<svg width="310" height="72" viewBox="0 0 310 72" fill="none" xmlns="http://www.w3.org/2000/svg">
<g filter="url(#filter0_d_825_1222)">
<rect x="2" y="2" width="302" height="64" rx="20" fill="url(#paint0_linear_825_1222)"/>
</g>
<path d="M47.9531 34H45.9453L45.9609 32.1094H47.9531C48.5052 32.1094 48.9349 32.0104 49.2422 31.8125C49.5495 31.6146 49.7656 31.3021 49.8906 30.875C50.0208 30.4479 50.0859 29.888 50.0859 29.1953V27.4219C50.0859 26.8958 50.0521 26.4505 49.9844 26.0859C49.9167 25.7161 49.8021 25.4193 49.6406 25.1953C49.4792 24.9661 49.263 24.7969 48.9922 24.6875C48.7214 24.5781 48.3854 24.5234 47.9844 24.5234H45.9062V22.625H47.9844C48.6406 22.625 49.237 22.7318 49.7734 22.9453C50.3099 23.1589 50.7708 23.4714 51.1562 23.8828C51.5417 24.2891 51.8385 24.7917 52.0469 25.3906C52.2552 25.9896 52.3594 26.6719 52.3594 27.4375V29.1953C52.3594 29.9661 52.2552 30.6484 52.0469 31.2422C51.8385 31.8359 51.5417 32.3385 51.1562 32.75C50.776 33.1562 50.3151 33.4661 49.7734 33.6797C49.2318 33.8932 48.625 34 47.9531 34ZM47.2734 22.625V34H44.9844V22.625H47.2734ZM57.3281 34.1562C56.75 34.1562 56.237 34.0677 55.7891 33.8906C55.3464 33.7135 54.9714 33.4583 54.6641 33.125C54.3568 32.7865 54.1224 32.3776 53.9609 31.8984C53.7995 31.4193 53.7188 30.8724 53.7188 30.2578V29.5625C53.7188 28.875 53.7969 28.2734 53.9531 27.7578C54.1094 27.237 54.3307 26.7995 54.6172 26.4453C54.9036 26.0911 55.2552 25.8281 55.6719 25.6562C56.0938 25.4792 56.5703 25.3906 57.1016 25.3906C57.6328 25.3906 58.099 25.4792 58.5 25.6562C58.9062 25.8281 59.2422 26.0885 59.5078 26.4375C59.7734 26.7812 59.974 27.2083 60.1094 27.7188C60.2448 28.2292 60.3125 28.8229 60.3125 29.5V30.5H54.6484V28.9609H58.1641V28.7656C58.1641 28.4219 58.1276 28.1354 58.0547 27.9062C57.9818 27.6719 57.8672 27.4974 57.7109 27.3828C57.5547 27.2682 57.3464 27.2109 57.0859 27.2109C56.8672 27.2109 56.6823 27.2552 56.5312 27.3438C56.3802 27.4323 56.2604 27.5703 56.1719 27.7578C56.0833 27.9453 56.0182 28.1901 55.9766 28.4922C55.9349 28.7891 55.9141 29.1458 55.9141 29.5625V30.2578C55.9141 30.6484 55.9479 30.9766 56.0156 31.2422C56.0833 31.5026 56.1823 31.7161 56.3125 31.8828C56.4479 32.0443 56.612 32.1615 56.8047 32.2344C56.9974 32.3021 57.2214 32.3359 57.4766 32.3359C57.862 32.3359 58.2083 32.2682 58.5156 32.1328C58.8281 31.9922 59.0938 31.8021 59.3125 31.5625L60.1875 32.8906C60.0365 33.0885 59.8281 33.2865 59.5625 33.4844C59.2969 33.6823 58.9792 33.8438 58.6094 33.9688C58.2396 34.0938 57.8125 34.1562 57.3281 34.1562ZM65.3281 31.7188C65.3281 31.5729 65.2786 31.4427 65.1797 31.3281C65.0807 31.2135 64.9245 31.0964 64.7109 30.9766C64.4974 30.8516 64.2135 30.7135 63.8594 30.5625C63.474 30.4062 63.1328 30.2448 62.8359 30.0781C62.5391 29.9115 62.2865 29.7266 62.0781 29.5234C61.875 29.3203 61.7214 29.0885 61.6172 28.8281C61.513 28.5677 61.4609 28.2708 61.4609 27.9375C61.4609 27.5781 61.526 27.2474 61.6562 26.9453C61.7917 26.638 61.9844 26.3698 62.2344 26.1406C62.4844 25.9062 62.7891 25.724 63.1484 25.5938C63.513 25.4583 63.9219 25.3906 64.375 25.3906C65.0104 25.3906 65.5547 25.5026 66.0078 25.7266C66.4661 25.9453 66.8177 26.2526 67.0625 26.6484C67.3073 27.0443 67.4297 27.5052 67.4297 28.0312H65.2422C65.2422 27.8438 65.2135 27.6771 65.1562 27.5312C65.099 27.3802 65.0052 27.263 64.875 27.1797C64.75 27.0964 64.5807 27.0547 64.3672 27.0547C64.2109 27.0547 64.0703 27.0885 63.9453 27.1562C63.8255 27.224 63.7292 27.3151 63.6562 27.4297C63.5885 27.5391 63.5547 27.6693 63.5547 27.8203C63.5547 27.9349 63.5781 28.0365 63.625 28.125C63.6771 28.2135 63.7578 28.2995 63.8672 28.3828C63.9766 28.4661 64.1224 28.5547 64.3047 28.6484C64.4922 28.737 64.7214 28.8359 64.9922 28.9453C65.5547 29.1536 66.0156 29.3776 66.375 29.6172C66.7396 29.8568 67.0104 30.138 67.1875 30.4609C67.3646 30.7786 67.4531 31.1719 67.4531 31.6406C67.4531 32.0156 67.3802 32.3568 67.2344 32.6641C67.0938 32.9714 66.888 33.237 66.6172 33.4609C66.3464 33.6849 66.0208 33.8568 65.6406 33.9766C65.2656 34.0964 64.8464 34.1562 64.3828 34.1562C63.7005 34.1562 63.125 34.0208 62.6562 33.75C62.1875 33.4792 61.8333 33.1328 61.5938 32.7109C61.3542 32.2839 61.2344 31.8411 61.2344 31.3828H63.3125C63.3229 31.6641 63.375 31.8854 63.4688 32.0469C63.5677 32.2031 63.7005 32.3125 63.8672 32.375C64.0339 32.4375 64.2188 32.4688 64.4219 32.4688C64.625 32.4688 64.7917 32.4427 64.9219 32.3906C65.0573 32.3333 65.1589 32.2474 65.2266 32.1328C65.2943 32.013 65.3281 31.875 65.3281 31.7188ZM68.8516 22H71.0312V32.0391L70.875 34H68.8516V22ZM75.4219 29.4922V30.0469C75.4219 30.7344 75.3672 31.3333 75.2578 31.8438C75.1536 32.3542 74.9896 32.7812 74.7656 33.125C74.5469 33.4688 74.2656 33.7266 73.9219 33.8984C73.5781 34.0703 73.1719 34.1562 72.7031 34.1562C72.2812 34.1562 71.9193 34.0573 71.6172 33.8594C71.3151 33.6562 71.0599 33.3776 70.8516 33.0234C70.6484 32.6641 70.4818 32.2448 70.3516 31.7656C70.2266 31.2812 70.1354 30.7526 70.0781 30.1797V29.3594C70.1302 28.7969 70.2188 28.2734 70.3438 27.7891C70.474 27.3047 70.6406 26.8854 70.8438 26.5312C71.0469 26.1719 71.2995 25.8932 71.6016 25.6953C71.9089 25.4922 72.2708 25.3906 72.6875 25.3906C73.1667 25.3906 73.5781 25.4792 73.9219 25.6562C74.2656 25.8281 74.5469 26.0859 74.7656 26.4297C74.9896 26.7734 75.1536 27.2031 75.2578 27.7188C75.3672 28.2292 75.4219 28.8203 75.4219 29.4922ZM73.2422 30.0469V29.4922C73.2422 29.1016 73.2266 28.7656 73.1953 28.4844C73.1641 28.2031 73.1068 27.9688 73.0234 27.7812C72.9401 27.5938 72.8203 27.4531 72.6641 27.3594C72.513 27.2656 72.3125 27.2188 72.0625 27.2188C71.8385 27.2188 71.651 27.263 71.5 27.3516C71.349 27.4349 71.2188 27.5599 71.1094 27.7266C71.0052 27.888 70.9297 28.0807 70.8828 28.3047C70.8359 28.5234 70.8073 28.7656 70.7969 29.0312V30.5078C70.8021 30.8672 70.8464 31.1849 70.9297 31.4609C71.013 31.737 71.1458 31.9505 71.3281 32.1016C71.5156 32.2526 71.7656 32.3281 72.0781 32.3281C72.3229 32.3281 72.5208 32.2865 72.6719 32.2031C72.8229 32.1198 72.9401 31.987 73.0234 31.8047C73.112 31.6224 73.1693 31.388 73.1953 31.1016C73.2266 30.8099 73.2422 30.4583 73.2422 30.0469ZM79.0625 22V34H76.8672V22H79.0625ZM80.5469 30.0625V29.4922C80.5469 28.8307 80.625 28.2448 80.7812 27.7344C80.9427 27.224 81.1719 26.7969 81.4688 26.4531C81.7656 26.1042 82.1224 25.8411 82.5391 25.6641C82.9609 25.4818 83.4323 25.3906 83.9531 25.3906C84.4792 25.3906 84.9505 25.4818 85.3672 25.6641C85.7891 25.8411 86.1484 26.1042 86.4453 26.4531C86.7474 26.7969 86.9792 27.224 87.1406 27.7344C87.3021 28.2448 87.3828 28.8307 87.3828 29.4922V30.0625C87.3828 30.7188 87.3021 31.3021 87.1406 31.8125C86.9792 32.3229 86.7474 32.7526 86.4453 33.1016C86.1484 33.4505 85.7917 33.7135 85.375 33.8906C84.9583 34.0677 84.4896 34.1562 83.9688 34.1562C83.4479 34.1562 82.9766 34.0677 82.5547 33.8906C82.138 33.7135 81.7786 33.4505 81.4766 33.1016C81.1745 32.7526 80.9427 32.3229 80.7812 31.8125C80.625 31.3021 80.5469 30.7188 80.5469 30.0625ZM82.7344 29.4922V30.0625C82.7344 30.4531 82.7604 30.7917 82.8125 31.0781C82.8698 31.3646 82.9505 31.6016 83.0547 31.7891C83.1641 31.9766 83.2943 32.1146 83.4453 32.2031C83.5964 32.2917 83.7708 32.3359 83.9688 32.3359C84.1667 32.3359 84.3438 32.2917 84.5 32.2031C84.6562 32.1146 84.7839 31.9766 84.8828 31.7891C84.987 31.6016 85.0625 31.3646 85.1094 31.0781C85.1615 30.7917 85.1875 30.4531 85.1875 30.0625V29.4922C85.1875 29.112 85.1589 28.7786 85.1016 28.4922C85.0443 28.2005 84.9635 27.9635 84.8594 27.7812C84.7552 27.5938 84.625 27.4531 84.4688 27.3594C84.3177 27.2604 84.1458 27.2109 83.9531 27.2109C83.7604 27.2109 83.5885 27.2604 83.4375 27.3594C83.2917 27.4531 83.1641 27.5938 83.0547 27.7812C82.9505 27.9635 82.8698 28.2005 82.8125 28.4922C82.7604 28.7786 82.7344 29.112 82.7344 29.4922ZM92.8594 37.25V27.2812L93.1328 25.5469H95.0625V37.25H92.8594ZM88.4766 30.0469V29.4844C88.4766 28.7969 88.5339 28.1953 88.6484 27.6797C88.7682 27.1641 88.9427 26.737 89.1719 26.3984C89.401 26.0599 89.6875 25.8073 90.0312 25.6406C90.375 25.474 90.7734 25.3906 91.2266 25.3906C91.6484 25.3906 92.0104 25.4896 92.3125 25.6875C92.6198 25.8854 92.8776 26.1641 93.0859 26.5234C93.2943 26.8828 93.4583 27.3073 93.5781 27.7969C93.7031 28.2812 93.7995 28.8151 93.8672 29.3984V30.2109C93.7995 30.763 93.7005 31.2786 93.5703 31.7578C93.4453 32.237 93.2786 32.6562 93.0703 33.0156C92.862 33.375 92.6068 33.6562 92.3047 33.8594C92.0026 34.0573 91.6406 34.1562 91.2188 34.1562C90.7656 34.1562 90.3672 34.0677 90.0234 33.8906C89.6849 33.7083 89.401 33.4453 89.1719 33.1016C88.9427 32.7526 88.7682 32.3229 88.6484 31.8125C88.5339 31.2969 88.4766 30.7083 88.4766 30.0469ZM90.6641 29.4844V30.0469C90.6641 30.4375 90.6849 30.7786 90.7266 31.0703C90.7682 31.362 90.8333 31.599 90.9219 31.7812C91.0104 31.9635 91.1302 32.1016 91.2812 32.1953C91.4323 32.2891 91.6224 32.3359 91.8516 32.3359C92.1641 32.3359 92.4115 32.2604 92.5938 32.1094C92.776 31.9531 92.9089 31.7396 92.9922 31.4688C93.0807 31.1927 93.1302 30.8828 93.1406 30.5391V29.0703C93.1354 28.7839 93.1068 28.526 93.0547 28.2969C93.0026 28.0677 92.9245 27.8724 92.8203 27.7109C92.7161 27.5495 92.5833 27.4271 92.4219 27.3438C92.2656 27.2552 92.0781 27.2109 91.8594 27.2109C91.6406 27.2109 91.4531 27.2552 91.2969 27.3438C91.1458 27.4323 91.0234 27.5703 90.9297 27.7578C90.8359 27.9401 90.7682 28.1745 90.7266 28.4609C90.6849 28.7422 90.6641 29.0833 90.6641 29.4844ZM100.805 31.9688V25.5469H103V34H100.938L100.805 31.9688ZM101.055 30.2266L101.664 30.2109C101.664 30.7786 101.609 31.3047 101.5 31.7891C101.391 32.2682 101.227 32.6849 101.008 33.0391C100.794 33.3932 100.521 33.6693 100.188 33.8672C99.8594 34.0599 99.4714 34.1562 99.0234 34.1562C98.6797 34.1562 98.362 34.099 98.0703 33.9844C97.7839 33.8646 97.5365 33.6797 97.3281 33.4297C97.1198 33.1745 96.9557 32.849 96.8359 32.4531C96.7214 32.0521 96.6641 31.5729 96.6641 31.0156V25.5469H98.8594V31.0312C98.8594 31.2604 98.8776 31.4583 98.9141 31.625C98.9557 31.7865 99.013 31.9193 99.0859 32.0234C99.1641 32.1276 99.2526 32.2031 99.3516 32.25C99.4505 32.2917 99.5625 32.3125 99.6875 32.3125C100.031 32.3125 100.302 32.224 100.5 32.0469C100.703 31.8646 100.846 31.6172 100.93 31.3047C101.013 30.987 101.055 30.6276 101.055 30.2266ZM108 34.1562C107.422 34.1562 106.909 34.0677 106.461 33.8906C106.018 33.7135 105.643 33.4583 105.336 33.125C105.029 32.7865 104.794 32.3776 104.633 31.8984C104.471 31.4193 104.391 30.8724 104.391 30.2578V29.5625C104.391 28.875 104.469 28.2734 104.625 27.7578C104.781 27.237 105.003 26.7995 105.289 26.4453C105.576 26.0911 105.927 25.8281 106.344 25.6562C106.766 25.4792 107.242 25.3906 107.773 25.3906C108.305 25.3906 108.771 25.4792 109.172 25.6562C109.578 25.8281 109.914 26.0885 110.18 26.4375C110.445 26.7812 110.646 27.2083 110.781 27.7188C110.917 28.2292 110.984 28.8229 110.984 29.5V30.5H105.32V28.9609H108.836V28.7656C108.836 28.4219 108.799 28.1354 108.727 27.9062C108.654 27.6719 108.539 27.4974 108.383 27.3828C108.227 27.2682 108.018 27.2109 107.758 27.2109C107.539 27.2109 107.354 27.2552 107.203 27.3438C107.052 27.4323 106.932 27.5703 106.844 27.7578C106.755 27.9453 106.69 28.1901 106.648 28.4922C106.607 28.7891 106.586 29.1458 106.586 29.5625V30.2578C106.586 30.6484 106.62 30.9766 106.688 31.2422C106.755 31.5026 106.854 31.7161 106.984 31.8828C107.12 32.0443 107.284 32.1615 107.477 32.2344C107.669 32.3021 107.893 32.3359 108.148 32.3359C108.534 32.3359 108.88 32.2682 109.188 32.1328C109.5 31.9922 109.766 31.8021 109.984 31.5625L110.859 32.8906C110.708 33.0885 110.5 33.2865 110.234 33.4844C109.969 33.6823 109.651 33.8438 109.281 33.9688C108.911 34.0938 108.484 34.1562 108 34.1562ZM115.977 32.0547V28.1484C115.977 27.8932 115.945 27.6901 115.883 27.5391C115.826 27.388 115.737 27.2786 115.617 27.2109C115.503 27.138 115.362 27.1016 115.195 27.1016C115.008 27.1016 114.852 27.1406 114.727 27.2188C114.602 27.2969 114.508 27.4089 114.445 27.5547C114.388 27.7005 114.359 27.875 114.359 28.0781H112.164C112.164 27.7135 112.234 27.3698 112.375 27.0469C112.516 26.7188 112.721 26.4323 112.992 26.1875C113.268 25.9375 113.596 25.7422 113.977 25.6016C114.357 25.4609 114.784 25.3906 115.258 25.3906C115.82 25.3906 116.32 25.487 116.758 25.6797C117.195 25.8672 117.542 26.1667 117.797 26.5781C118.052 26.9896 118.18 27.5234 118.18 28.1797V31.9453C118.18 32.4193 118.203 32.8047 118.25 33.1016C118.302 33.3984 118.378 33.6536 118.477 33.8672V34H116.273C116.174 33.7656 116.099 33.474 116.047 33.125C116 32.7708 115.977 32.4141 115.977 32.0547ZM116.242 28.8359L116.25 30.1484H115.445C115.237 30.1484 115.055 30.1823 114.898 30.25C114.747 30.3177 114.62 30.4141 114.516 30.5391C114.411 30.6589 114.333 30.7995 114.281 30.9609C114.234 31.1224 114.211 31.2943 114.211 31.4766C114.211 31.6797 114.24 31.8516 114.297 31.9922C114.354 32.1328 114.44 32.2396 114.555 32.3125C114.669 32.3854 114.805 32.4219 114.961 32.4219C115.201 32.4219 115.409 32.3724 115.586 32.2734C115.763 32.1745 115.893 32.0547 115.977 31.9141C116.065 31.7734 116.094 31.6432 116.062 31.5234L116.562 32.375C116.5 32.5677 116.414 32.7682 116.305 32.9766C116.201 33.1849 116.068 33.3776 115.906 33.5547C115.745 33.7318 115.544 33.8776 115.305 33.9922C115.07 34.1016 114.792 34.1562 114.469 34.1562C114.016 34.1562 113.602 34.0521 113.227 33.8438C112.852 33.6354 112.555 33.3438 112.336 32.9688C112.122 32.5938 112.016 32.1484 112.016 31.6328C112.016 31.2057 112.083 30.8203 112.219 30.4766C112.359 30.1276 112.568 29.8333 112.844 29.5938C113.12 29.349 113.469 29.1615 113.891 29.0312C114.312 28.901 114.807 28.8359 115.375 28.8359H116.242ZM121.984 27.4297V34H119.797V25.5469H121.859L121.984 27.4297ZM123.977 25.4844L123.945 27.6641C123.846 27.6432 123.727 27.6276 123.586 27.6172C123.451 27.6068 123.331 27.6016 123.227 27.6016C122.982 27.6016 122.773 27.6406 122.602 27.7188C122.43 27.7917 122.286 27.9036 122.172 28.0547C122.062 28.2005 121.979 28.3828 121.922 28.6016C121.865 28.8203 121.831 29.0677 121.82 29.3438L121.406 29.1875C121.406 28.6354 121.448 28.1302 121.531 27.6719C121.62 27.2083 121.75 26.8073 121.922 26.4688C122.094 26.125 122.299 25.8594 122.539 25.6719C122.784 25.4844 123.06 25.3906 123.367 25.3906C123.471 25.3906 123.581 25.401 123.695 25.4219C123.815 25.4375 123.909 25.4583 123.977 25.4844ZM132.508 32.0547V28.1484C132.508 27.8932 132.477 27.6901 132.414 27.5391C132.357 27.388 132.268 27.2786 132.148 27.2109C132.034 27.138 131.893 27.1016 131.727 27.1016C131.539 27.1016 131.383 27.1406 131.258 27.2188C131.133 27.2969 131.039 27.4089 130.977 27.5547C130.919 27.7005 130.891 27.875 130.891 28.0781H128.695C128.695 27.7135 128.766 27.3698 128.906 27.0469C129.047 26.7188 129.253 26.4323 129.523 26.1875C129.799 25.9375 130.128 25.7422 130.508 25.6016C130.888 25.4609 131.315 25.3906 131.789 25.3906C132.352 25.3906 132.852 25.487 133.289 25.6797C133.727 25.8672 134.073 26.1667 134.328 26.5781C134.583 26.9896 134.711 27.5234 134.711 28.1797V31.9453C134.711 32.4193 134.734 32.8047 134.781 33.1016C134.833 33.3984 134.909 33.6536 135.008 33.8672V34H132.805C132.706 33.7656 132.63 33.474 132.578 33.125C132.531 32.7708 132.508 32.4141 132.508 32.0547ZM132.773 28.8359L132.781 30.1484H131.977C131.768 30.1484 131.586 30.1823 131.43 30.25C131.279 30.3177 131.151 30.4141 131.047 30.5391C130.943 30.6589 130.865 30.7995 130.812 30.9609C130.766 31.1224 130.742 31.2943 130.742 31.4766C130.742 31.6797 130.771 31.8516 130.828 31.9922C130.885 32.1328 130.971 32.2396 131.086 32.3125C131.201 32.3854 131.336 32.4219 131.492 32.4219C131.732 32.4219 131.94 32.3724 132.117 32.2734C132.294 32.1745 132.424 32.0547 132.508 31.9141C132.596 31.7734 132.625 31.6432 132.594 31.5234L133.094 32.375C133.031 32.5677 132.945 32.7682 132.836 32.9766C132.732 33.1849 132.599 33.3776 132.438 33.5547C132.276 33.7318 132.076 33.8776 131.836 33.9922C131.602 34.1016 131.323 34.1562 131 34.1562C130.547 34.1562 130.133 34.0521 129.758 33.8438C129.383 33.6354 129.086 33.3438 128.867 32.9688C128.654 32.5938 128.547 32.1484 128.547 31.6328C128.547 31.2057 128.615 30.8203 128.75 30.4766C128.891 30.1276 129.099 29.8333 129.375 29.5938C129.651 29.349 130 29.1615 130.422 29.0312C130.844 28.901 131.339 28.8359 131.906 28.8359H132.773ZM140.078 31.7188C140.078 31.5729 140.029 31.4427 139.93 31.3281C139.831 31.2135 139.674 31.0964 139.461 30.9766C139.247 30.8516 138.964 30.7135 138.609 30.5625C138.224 30.4062 137.883 30.2448 137.586 30.0781C137.289 29.9115 137.036 29.7266 136.828 29.5234C136.625 29.3203 136.471 29.0885 136.367 28.8281C136.263 28.5677 136.211 28.2708 136.211 27.9375C136.211 27.5781 136.276 27.2474 136.406 26.9453C136.542 26.638 136.734 26.3698 136.984 26.1406C137.234 25.9062 137.539 25.724 137.898 25.5938C138.263 25.4583 138.672 25.3906 139.125 25.3906C139.76 25.3906 140.305 25.5026 140.758 25.7266C141.216 25.9453 141.568 26.2526 141.812 26.6484C142.057 27.0443 142.18 27.5052 142.18 28.0312H139.992C139.992 27.8438 139.964 27.6771 139.906 27.5312C139.849 27.3802 139.755 27.263 139.625 27.1797C139.5 27.0964 139.331 27.0547 139.117 27.0547C138.961 27.0547 138.82 27.0885 138.695 27.1562C138.576 27.224 138.479 27.3151 138.406 27.4297C138.339 27.5391 138.305 27.6693 138.305 27.8203C138.305 27.9349 138.328 28.0365 138.375 28.125C138.427 28.2135 138.508 28.2995 138.617 28.3828C138.727 28.4661 138.872 28.5547 139.055 28.6484C139.242 28.737 139.471 28.8359 139.742 28.9453C140.305 29.1536 140.766 29.3776 141.125 29.6172C141.49 29.8568 141.76 30.138 141.938 30.4609C142.115 30.7786 142.203 31.1719 142.203 31.6406C142.203 32.0156 142.13 32.3568 141.984 32.6641C141.844 32.9714 141.638 33.237 141.367 33.4609C141.096 33.6849 140.771 33.8568 140.391 33.9766C140.016 34.0964 139.596 34.1562 139.133 34.1562C138.451 34.1562 137.875 34.0208 137.406 33.75C136.938 33.4792 136.583 33.1328 136.344 32.7109C136.104 32.2839 135.984 31.8411 135.984 31.3828H138.062C138.073 31.6641 138.125 31.8854 138.219 32.0469C138.318 32.2031 138.451 32.3125 138.617 32.375C138.784 32.4375 138.969 32.4688 139.172 32.4688C139.375 32.4688 139.542 32.4427 139.672 32.3906C139.807 32.3333 139.909 32.2474 139.977 32.1328C140.044 32.013 140.078 31.875 140.078 31.7188ZM149.484 27.2969V34H147.289V25.5469H149.344L149.484 27.2969ZM149.18 29.4844L148.57 29.5C148.56 28.9062 148.612 28.3594 148.727 27.8594C148.841 27.3594 149.013 26.9245 149.242 26.5547C149.477 26.1849 149.771 25.8984 150.125 25.6953C150.484 25.4922 150.898 25.3906 151.367 25.3906C151.669 25.3906 151.951 25.4479 152.211 25.5625C152.477 25.6719 152.703 25.8464 152.891 26.0859C153.083 26.3203 153.232 26.6276 153.336 27.0078C153.44 27.3828 153.492 27.8333 153.492 28.3594V34H151.312V28.625C151.312 28.25 151.276 27.9635 151.203 27.7656C151.13 27.5625 151.026 27.4219 150.891 27.3438C150.755 27.2604 150.589 27.2188 150.391 27.2188C150.182 27.2188 150 27.276 149.844 27.3906C149.688 27.5052 149.56 27.6667 149.461 27.875C149.367 28.0781 149.294 28.3177 149.242 28.5938C149.195 28.8698 149.174 29.1667 149.18 29.4844ZM153.289 29.2656L152.508 29.3672C152.492 28.8099 152.539 28.2891 152.648 27.8047C152.758 27.3203 152.927 26.8984 153.156 26.5391C153.385 26.1797 153.672 25.8984 154.016 25.6953C154.365 25.4922 154.768 25.3906 155.227 25.3906C155.57 25.3906 155.883 25.4479 156.164 25.5625C156.445 25.6771 156.685 25.862 156.883 26.1172C157.086 26.3672 157.24 26.6979 157.344 27.1094C157.453 27.5156 157.508 28.0156 157.508 28.6094V34H155.312V28.6172C155.312 28.237 155.276 27.9453 155.203 27.7422C155.135 27.5391 155.034 27.401 154.898 27.3281C154.763 27.2552 154.599 27.2188 154.406 27.2188C154.219 27.2188 154.055 27.2708 153.914 27.375C153.779 27.4792 153.664 27.625 153.57 27.8125C153.477 28 153.406 28.2161 153.359 28.4609C153.312 28.7057 153.289 28.974 153.289 29.2656ZM162.562 34.1562C161.984 34.1562 161.471 34.0677 161.023 33.8906C160.581 33.7135 160.206 33.4583 159.898 33.125C159.591 32.7865 159.357 32.3776 159.195 31.8984C159.034 31.4193 158.953 30.8724 158.953 30.2578V29.5625C158.953 28.875 159.031 28.2734 159.188 27.7578C159.344 27.237 159.565 26.7995 159.852 26.4453C160.138 26.0911 160.49 25.8281 160.906 25.6562C161.328 25.4792 161.805 25.3906 162.336 25.3906C162.867 25.3906 163.333 25.4792 163.734 25.6562C164.141 25.8281 164.477 26.0885 164.742 26.4375C165.008 26.7812 165.208 27.2083 165.344 27.7188C165.479 28.2292 165.547 28.8229 165.547 29.5V30.5H159.883V28.9609H163.398V28.7656C163.398 28.4219 163.362 28.1354 163.289 27.9062C163.216 27.6719 163.102 27.4974 162.945 27.3828C162.789 27.2682 162.581 27.2109 162.32 27.2109C162.102 27.2109 161.917 27.2552 161.766 27.3438C161.615 27.4323 161.495 27.5703 161.406 27.7578C161.318 27.9453 161.253 28.1901 161.211 28.4922C161.169 28.7891 161.148 29.1458 161.148 29.5625V30.2578C161.148 30.6484 161.182 30.9766 161.25 31.2422C161.318 31.5026 161.417 31.7161 161.547 31.8828C161.682 32.0443 161.846 32.1615 162.039 32.2344C162.232 32.3021 162.456 32.3359 162.711 32.3359C163.096 32.3359 163.443 32.2682 163.75 32.1328C164.062 31.9922 164.328 31.8021 164.547 31.5625L165.422 32.8906C165.271 33.0885 165.062 33.2865 164.797 33.4844C164.531 33.6823 164.214 33.8438 163.844 33.9688C163.474 34.0938 163.047 34.1562 162.562 34.1562ZM169.109 22V34H166.914V22H169.109ZM172.977 22V34H170.789V22H172.977ZM172.664 29.4844L172.07 29.5C172.07 28.9062 172.13 28.3594 172.25 27.8594C172.37 27.3594 172.547 26.9245 172.781 26.5547C173.021 26.1849 173.307 25.8984 173.641 25.6953C173.979 25.4922 174.352 25.3906 174.758 25.3906C175.107 25.3906 175.424 25.4505 175.711 25.5703C175.997 25.6901 176.245 25.8776 176.453 26.1328C176.667 26.388 176.831 26.7266 176.945 27.1484C177.06 27.5651 177.117 28.0703 177.117 28.6641V34H174.922V28.6484C174.922 28.2839 174.885 27.9974 174.812 27.7891C174.74 27.5807 174.63 27.4349 174.484 27.3516C174.339 27.263 174.156 27.2188 173.938 27.2188C173.703 27.2188 173.503 27.276 173.336 27.3906C173.174 27.5052 173.044 27.6667 172.945 27.875C172.846 28.0781 172.773 28.3177 172.727 28.5938C172.685 28.8698 172.664 29.1667 172.664 29.4844ZM178.469 30.0625V29.4922C178.469 28.8307 178.547 28.2448 178.703 27.7344C178.865 27.224 179.094 26.7969 179.391 26.4531C179.688 26.1042 180.044 25.8411 180.461 25.6641C180.883 25.4818 181.354 25.3906 181.875 25.3906C182.401 25.3906 182.872 25.4818 183.289 25.6641C183.711 25.8411 184.07 26.1042 184.367 26.4531C184.669 26.7969 184.901 27.224 185.062 27.7344C185.224 28.2448 185.305 28.8307 185.305 29.4922V30.0625C185.305 30.7188 185.224 31.3021 185.062 31.8125C184.901 32.3229 184.669 32.7526 184.367 33.1016C184.07 33.4505 183.714 33.7135 183.297 33.8906C182.88 34.0677 182.411 34.1562 181.891 34.1562C181.37 34.1562 180.898 34.0677 180.477 33.8906C180.06 33.7135 179.701 33.4505 179.398 33.1016C179.096 32.7526 178.865 32.3229 178.703 31.8125C178.547 31.3021 178.469 30.7188 178.469 30.0625ZM180.656 29.4922V30.0625C180.656 30.4531 180.682 30.7917 180.734 31.0781C180.792 31.3646 180.872 31.6016 180.977 31.7891C181.086 31.9766 181.216 32.1146 181.367 32.2031C181.518 32.2917 181.693 32.3359 181.891 32.3359C182.089 32.3359 182.266 32.2917 182.422 32.2031C182.578 32.1146 182.706 31.9766 182.805 31.7891C182.909 31.6016 182.984 31.3646 183.031 31.0781C183.083 30.7917 183.109 30.4531 183.109 30.0625V29.4922C183.109 29.112 183.081 28.7786 183.023 28.4922C182.966 28.2005 182.885 27.9635 182.781 27.7812C182.677 27.5938 182.547 27.4531 182.391 27.3594C182.24 27.2604 182.068 27.2109 181.875 27.2109C181.682 27.2109 181.51 27.2604 181.359 27.3594C181.214 27.4531 181.086 27.5938 180.977 27.7812C180.872 27.9635 180.792 28.2005 180.734 28.4922C180.682 28.7786 180.656 29.112 180.656 29.4922ZM188.875 27.4297V34H186.688V25.5469H188.75L188.875 27.4297ZM190.867 25.4844L190.836 27.6641C190.737 27.6432 190.617 27.6276 190.477 27.6172C190.341 27.6068 190.221 27.6016 190.117 27.6016C189.872 27.6016 189.664 27.6406 189.492 27.7188C189.32 27.7917 189.177 27.9036 189.062 28.0547C188.953 28.2005 188.87 28.3828 188.812 28.6016C188.755 28.8203 188.721 29.0677 188.711 29.3438L188.297 29.1875C188.297 28.6354 188.339 28.1302 188.422 27.6719C188.51 27.2083 188.641 26.8073 188.812 26.4688C188.984 26.125 189.19 25.8594 189.43 25.6719C189.674 25.4844 189.951 25.3906 190.258 25.3906C190.362 25.3906 190.471 25.401 190.586 25.4219C190.706 25.4375 190.799 25.4583 190.867 25.4844ZM195.234 34.1562C194.656 34.1562 194.143 34.0677 193.695 33.8906C193.253 33.7135 192.878 33.4583 192.57 33.125C192.263 32.7865 192.029 32.3776 191.867 31.8984C191.706 31.4193 191.625 30.8724 191.625 30.2578V29.5625C191.625 28.875 191.703 28.2734 191.859 27.7578C192.016 27.237 192.237 26.7995 192.523 26.4453C192.81 26.0911 193.161 25.8281 193.578 25.6562C194 25.4792 194.477 25.3906 195.008 25.3906C195.539 25.3906 196.005 25.4792 196.406 25.6562C196.812 25.8281 197.148 26.0885 197.414 26.4375C197.68 26.7812 197.88 27.2083 198.016 27.7188C198.151 28.2292 198.219 28.8229 198.219 29.5V30.5H192.555V28.9609H196.07V28.7656C196.07 28.4219 196.034 28.1354 195.961 27.9062C195.888 27.6719 195.773 27.4974 195.617 27.3828C195.461 27.2682 195.253 27.2109 194.992 27.2109C194.773 27.2109 194.589 27.2552 194.438 27.3438C194.286 27.4323 194.167 27.5703 194.078 27.7578C193.99 27.9453 193.924 28.1901 193.883 28.4922C193.841 28.7891 193.82 29.1458 193.82 29.5625V30.2578C193.82 30.6484 193.854 30.9766 193.922 31.2422C193.99 31.5026 194.089 31.7161 194.219 31.8828C194.354 32.0443 194.518 32.1615 194.711 32.2344C194.904 32.3021 195.128 32.3359 195.383 32.3359C195.768 32.3359 196.115 32.2682 196.422 32.1328C196.734 31.9922 197 31.8021 197.219 31.5625L198.094 32.8906C197.943 33.0885 197.734 33.2865 197.469 33.4844C197.203 33.6823 196.885 33.8438 196.516 33.9688C196.146 34.0938 195.719 34.1562 195.234 34.1562ZM203.234 31.7188C203.234 31.5729 203.185 31.4427 203.086 31.3281C202.987 31.2135 202.831 31.0964 202.617 30.9766C202.404 30.8516 202.12 30.7135 201.766 30.5625C201.38 30.4062 201.039 30.2448 200.742 30.0781C200.445 29.9115 200.193 29.7266 199.984 29.5234C199.781 29.3203 199.628 29.0885 199.523 28.8281C199.419 28.5677 199.367 28.2708 199.367 27.9375C199.367 27.5781 199.432 27.2474 199.562 26.9453C199.698 26.638 199.891 26.3698 200.141 26.1406C200.391 25.9062 200.695 25.724 201.055 25.5938C201.419 25.4583 201.828 25.3906 202.281 25.3906C202.917 25.3906 203.461 25.5026 203.914 25.7266C204.372 25.9453 204.724 26.2526 204.969 26.6484C205.214 27.0443 205.336 27.5052 205.336 28.0312H203.148C203.148 27.8438 203.12 27.6771 203.062 27.5312C203.005 27.3802 202.911 27.263 202.781 27.1797C202.656 27.0964 202.487 27.0547 202.273 27.0547C202.117 27.0547 201.977 27.0885 201.852 27.1562C201.732 27.224 201.635 27.3151 201.562 27.4297C201.495 27.5391 201.461 27.6693 201.461 27.8203C201.461 27.9349 201.484 28.0365 201.531 28.125C201.583 28.2135 201.664 28.2995 201.773 28.3828C201.883 28.4661 202.029 28.5547 202.211 28.6484C202.398 28.737 202.628 28.8359 202.898 28.9453C203.461 29.1536 203.922 29.3776 204.281 29.6172C204.646 29.8568 204.917 30.138 205.094 30.4609C205.271 30.7786 205.359 31.1719 205.359 31.6406C205.359 32.0156 205.286 32.3568 205.141 32.6641C205 32.9714 204.794 33.237 204.523 33.4609C204.253 33.6849 203.927 33.8568 203.547 33.9766C203.172 34.0964 202.753 34.1562 202.289 34.1562C201.607 34.1562 201.031 34.0208 200.562 33.75C200.094 33.4792 199.74 33.1328 199.5 32.7109C199.26 32.2839 199.141 31.8411 199.141 31.3828H201.219C201.229 31.6641 201.281 31.8854 201.375 32.0469C201.474 32.2031 201.607 32.3125 201.773 32.375C201.94 32.4375 202.125 32.4688 202.328 32.4688C202.531 32.4688 202.698 32.4427 202.828 32.3906C202.964 32.3333 203.065 32.2474 203.133 32.1328C203.201 32.013 203.234 31.875 203.234 31.7188ZM212.93 32.3125L214.289 25.5469H216.57L214.25 34H212.883L212.93 32.3125ZM212.125 25.5469L213.508 32.3203L213.531 34H212.156L209.836 25.5469H212.125ZM219.922 25.5469V34H217.727V25.5469H219.922ZM217.625 23.3516C217.625 23.013 217.732 22.7344 217.945 22.5156C218.164 22.2969 218.458 22.1875 218.828 22.1875C219.193 22.1875 219.482 22.2969 219.695 22.5156C219.909 22.7344 220.016 23.013 220.016 23.3516C220.016 23.6901 219.909 23.9714 219.695 24.1953C219.482 24.4141 219.193 24.5234 218.828 24.5234C218.458 24.5234 218.164 24.4141 217.945 24.1953C217.732 23.9714 217.625 23.6901 217.625 23.3516ZM225.383 32.0547V28.1484C225.383 27.8932 225.352 27.6901 225.289 27.5391C225.232 27.388 225.143 27.2786 225.023 27.2109C224.909 27.138 224.768 27.1016 224.602 27.1016C224.414 27.1016 224.258 27.1406 224.133 27.2188C224.008 27.2969 223.914 27.4089 223.852 27.5547C223.794 27.7005 223.766 27.875 223.766 28.0781H221.57C221.57 27.7135 221.641 27.3698 221.781 27.0469C221.922 26.7188 222.128 26.4323 222.398 26.1875C222.674 25.9375 223.003 25.7422 223.383 25.6016C223.763 25.4609 224.19 25.3906 224.664 25.3906C225.227 25.3906 225.727 25.487 226.164 25.6797C226.602 25.8672 226.948 26.1667 227.203 26.5781C227.458 26.9896 227.586 27.5234 227.586 28.1797V31.9453C227.586 32.4193 227.609 32.8047 227.656 33.1016C227.708 33.3984 227.784 33.6536 227.883 33.8672V34H225.68C225.581 33.7656 225.505 33.474 225.453 33.125C225.406 32.7708 225.383 32.4141 225.383 32.0547ZM225.648 28.8359L225.656 30.1484H224.852C224.643 30.1484 224.461 30.1823 224.305 30.25C224.154 30.3177 224.026 30.4141 223.922 30.5391C223.818 30.6589 223.74 30.7995 223.688 30.9609C223.641 31.1224 223.617 31.2943 223.617 31.4766C223.617 31.6797 223.646 31.8516 223.703 31.9922C223.76 32.1328 223.846 32.2396 223.961 32.3125C224.076 32.3854 224.211 32.4219 224.367 32.4219C224.607 32.4219 224.815 32.3724 224.992 32.2734C225.169 32.1745 225.299 32.0547 225.383 31.9141C225.471 31.7734 225.5 31.6432 225.469 31.5234L225.969 32.375C225.906 32.5677 225.82 32.7682 225.711 32.9766C225.607 33.1849 225.474 33.3776 225.312 33.5547C225.151 33.7318 224.951 33.8776 224.711 33.9922C224.477 34.1016 224.198 34.1562 223.875 34.1562C223.422 34.1562 223.008 34.0521 222.633 33.8438C222.258 33.6354 221.961 33.3438 221.742 32.9688C221.529 32.5938 221.422 32.1484 221.422 31.6328C221.422 31.2057 221.49 30.8203 221.625 30.4766C221.766 30.1276 221.974 29.8333 222.25 29.5938C222.526 29.349 222.875 29.1615 223.297 29.0312C223.719 28.901 224.214 28.8359 224.781 28.8359H225.648ZM233.648 25.5469H235.633V34C235.633 34.7708 235.484 35.401 235.188 35.8906C234.896 36.3854 234.487 36.7474 233.961 36.9766C233.44 37.2109 232.831 37.3281 232.133 37.3281C231.867 37.3281 231.568 37.2917 231.234 37.2188C230.906 37.1458 230.589 37.0339 230.281 36.8828C229.974 36.737 229.721 36.5599 229.523 36.3516L230.266 34.8359C230.469 35.0391 230.734 35.2109 231.062 35.3516C231.391 35.4974 231.714 35.5703 232.031 35.5703C232.339 35.5703 232.594 35.5208 232.797 35.4219C233.005 35.3281 233.161 35.1667 233.266 34.9375C233.375 34.7083 233.43 34.401 233.43 34.0156V27.5078L233.648 25.5469ZM228.93 30.0703V29.5078C228.93 28.8203 228.995 28.2188 229.125 27.7031C229.255 27.1875 229.443 26.7578 229.688 26.4141C229.932 26.0703 230.232 25.8151 230.586 25.6484C230.945 25.4766 231.346 25.3906 231.789 25.3906C232.253 25.3906 232.641 25.4922 232.953 25.6953C233.266 25.8932 233.518 26.1719 233.711 26.5312C233.909 26.8906 234.06 27.3151 234.164 27.8047C234.273 28.2943 234.357 28.8307 234.414 29.4141V30.2266C234.357 30.7786 234.263 31.2943 234.133 31.7734C234.008 32.2526 233.841 32.6693 233.633 33.0234C233.424 33.3776 233.169 33.6562 232.867 33.8594C232.565 34.0573 232.201 34.1562 231.773 34.1562C231.336 34.1562 230.94 34.0677 230.586 33.8906C230.237 33.7135 229.938 33.4531 229.688 33.1094C229.443 32.7604 229.255 32.3333 229.125 31.8281C228.995 31.3177 228.93 30.7318 228.93 30.0703ZM231.125 29.5078V30.0703C231.125 30.4661 231.148 30.8073 231.195 31.0938C231.247 31.375 231.326 31.6068 231.43 31.7891C231.534 31.9661 231.667 32.099 231.828 32.1875C231.995 32.2708 232.19 32.3125 232.414 32.3125C232.732 32.3125 232.984 32.2396 233.172 32.0938C233.365 31.9427 233.505 31.737 233.594 31.4766C233.688 31.2109 233.74 30.9062 233.75 30.5625V29.0859C233.745 28.7995 233.711 28.5417 233.648 28.3125C233.591 28.0833 233.51 27.888 233.406 27.7266C233.302 27.5651 233.167 27.4401 233 27.3516C232.839 27.263 232.648 27.2188 232.43 27.2188C232.206 27.2188 232.013 27.263 231.852 27.3516C231.69 27.4401 231.555 27.5781 231.445 27.7656C231.341 27.9479 231.26 28.1849 231.203 28.4766C231.151 28.763 231.125 29.1068 231.125 29.5078ZM240.672 34.1562C240.094 34.1562 239.581 34.0677 239.133 33.8906C238.69 33.7135 238.315 33.4583 238.008 33.125C237.701 32.7865 237.466 32.3776 237.305 31.8984C237.143 31.4193 237.062 30.8724 237.062 30.2578V29.5625C237.062 28.875 237.141 28.2734 237.297 27.7578C237.453 27.237 237.674 26.7995 237.961 26.4453C238.247 26.0911 238.599 25.8281 239.016 25.6562C239.438 25.4792 239.914 25.3906 240.445 25.3906C240.977 25.3906 241.443 25.4792 241.844 25.6562C242.25 25.8281 242.586 26.0885 242.852 26.4375C243.117 26.7812 243.318 27.2083 243.453 27.7188C243.589 28.2292 243.656 28.8229 243.656 29.5V30.5H237.992V28.9609H241.508V28.7656C241.508 28.4219 241.471 28.1354 241.398 27.9062C241.326 27.6719 241.211 27.4974 241.055 27.3828C240.898 27.2682 240.69 27.2109 240.43 27.2109C240.211 27.2109 240.026 27.2552 239.875 27.3438C239.724 27.4323 239.604 27.5703 239.516 27.7578C239.427 27.9453 239.362 28.1901 239.32 28.4922C239.279 28.7891 239.258 29.1458 239.258 29.5625V30.2578C239.258 30.6484 239.292 30.9766 239.359 31.2422C239.427 31.5026 239.526 31.7161 239.656 31.8828C239.792 32.0443 239.956 32.1615 240.148 32.2344C240.341 32.3021 240.565 32.3359 240.82 32.3359C241.206 32.3359 241.552 32.2682 241.859 32.1328C242.172 31.9922 242.438 31.8021 242.656 31.5625L243.531 32.8906C243.38 33.0885 243.172 33.2865 242.906 33.4844C242.641 33.6823 242.323 33.8438 241.953 33.9688C241.583 34.0938 241.156 34.1562 240.672 34.1562ZM247.07 27.3516V34H244.875V25.5469H246.922L247.07 27.3516ZM246.742 29.4844L246.156 29.5C246.146 28.8646 246.206 28.2943 246.336 27.7891C246.471 27.2839 246.661 26.8542 246.906 26.5C247.156 26.1406 247.453 25.8672 247.797 25.6797C248.141 25.487 248.529 25.3906 248.961 25.3906C249.289 25.3906 249.589 25.4479 249.859 25.5625C250.135 25.6771 250.372 25.8594 250.57 26.1094C250.768 26.3594 250.922 26.6901 251.031 27.1016C251.141 27.513 251.195 28.0208 251.195 28.625V34H249V28.6094C249 28.2448 248.964 27.9635 248.891 27.7656C248.818 27.5625 248.708 27.4219 248.562 27.3438C248.422 27.2604 248.24 27.2188 248.016 27.2188C247.807 27.2188 247.622 27.276 247.461 27.3906C247.299 27.5052 247.164 27.6667 247.055 27.875C246.951 28.0781 246.87 28.3177 246.812 28.5938C246.76 28.8698 246.737 29.1667 246.742 29.4844ZM256.547 31.7188C256.547 31.5729 256.497 31.4427 256.398 31.3281C256.299 31.2135 256.143 31.0964 255.93 30.9766C255.716 30.8516 255.432 30.7135 255.078 30.5625C254.693 30.4062 254.352 30.2448 254.055 30.0781C253.758 29.9115 253.505 29.7266 253.297 29.5234C253.094 29.3203 252.94 29.0885 252.836 28.8281C252.732 28.5677 252.68 28.2708 252.68 27.9375C252.68 27.5781 252.745 27.2474 252.875 26.9453C253.01 26.638 253.203 26.3698 253.453 26.1406C253.703 25.9062 254.008 25.724 254.367 25.5938C254.732 25.4583 255.141 25.3906 255.594 25.3906C256.229 25.3906 256.773 25.5026 257.227 25.7266C257.685 25.9453 258.036 26.2526 258.281 26.6484C258.526 27.0443 258.648 27.5052 258.648 28.0312H256.461C256.461 27.8438 256.432 27.6771 256.375 27.5312C256.318 27.3802 256.224 27.263 256.094 27.1797C255.969 27.0964 255.799 27.0547 255.586 27.0547C255.43 27.0547 255.289 27.0885 255.164 27.1562C255.044 27.224 254.948 27.3151 254.875 27.4297C254.807 27.5391 254.773 27.6693 254.773 27.8203C254.773 27.9349 254.797 28.0365 254.844 28.125C254.896 28.2135 254.977 28.2995 255.086 28.3828C255.195 28.4661 255.341 28.5547 255.523 28.6484C255.711 28.737 255.94 28.8359 256.211 28.9453C256.773 29.1536 257.234 29.3776 257.594 29.6172C257.958 29.8568 258.229 30.138 258.406 30.4609C258.583 30.7786 258.672 31.1719 258.672 31.6406C258.672 32.0156 258.599 32.3568 258.453 32.6641C258.312 32.9714 258.107 33.237 257.836 33.4609C257.565 33.6849 257.24 33.8568 256.859 33.9766C256.484 34.0964 256.065 34.1562 255.602 34.1562C254.919 34.1562 254.344 34.0208 253.875 33.75C253.406 33.4792 253.052 33.1328 252.812 32.7109C252.573 32.2839 252.453 31.8411 252.453 31.3828H254.531C254.542 31.6641 254.594 31.8854 254.688 32.0469C254.786 32.2031 254.919 32.3125 255.086 32.375C255.253 32.4375 255.438 32.4688 255.641 32.4688C255.844 32.4688 256.01 32.4427 256.141 32.3906C256.276 32.3333 256.378 32.2474 256.445 32.1328C256.513 32.013 256.547 31.875 256.547 31.7188ZM126.727 46.1719V56.25H124.547V44.5469H126.562L126.727 46.1719ZM131.117 48.4844V49.0469C131.117 49.7083 131.06 50.2943 130.945 50.8047C130.831 51.3099 130.659 51.7396 130.43 52.0938C130.206 52.4427 129.924 52.7083 129.586 52.8906C129.247 53.0677 128.852 53.1562 128.398 53.1562C127.977 53.1562 127.612 53.0573 127.305 52.8594C127.003 52.6562 126.747 52.3776 126.539 52.0234C126.331 51.6693 126.164 51.2552 126.039 50.7812C125.914 50.3073 125.818 49.7995 125.75 49.2578V48.3828C125.812 47.8047 125.904 47.2734 126.023 46.7891C126.143 46.2995 126.307 45.875 126.516 45.5156C126.729 45.1562 126.987 44.8802 127.289 44.6875C127.596 44.4896 127.961 44.3906 128.383 44.3906C128.841 44.3906 129.24 44.474 129.578 44.6406C129.922 44.8073 130.206 45.0599 130.43 45.3984C130.659 45.7318 130.831 46.1562 130.945 46.6719C131.06 47.1875 131.117 47.7917 131.117 48.4844ZM128.922 49.0469V48.4844C128.922 48.0781 128.901 47.7318 128.859 47.4453C128.818 47.1589 128.75 46.9245 128.656 46.7422C128.562 46.5599 128.44 46.4271 128.289 46.3438C128.138 46.2604 127.953 46.2188 127.734 46.2188C127.521 46.2188 127.333 46.2604 127.172 46.3438C127.016 46.4271 126.888 46.5495 126.789 46.7109C126.69 46.8672 126.615 47.0599 126.562 47.2891C126.51 47.513 126.482 47.7682 126.477 48.0547V49.5859C126.487 49.9245 126.531 50.224 126.609 50.4844C126.693 50.7448 126.826 50.9531 127.008 51.1094C127.19 51.2604 127.438 51.3359 127.75 51.3359C127.974 51.3359 128.159 51.2891 128.305 51.1953C128.456 51.1016 128.578 50.9609 128.672 50.7734C128.766 50.5859 128.831 50.349 128.867 50.0625C128.904 49.776 128.922 49.4375 128.922 49.0469ZM136.188 51.0547V47.1484C136.188 46.8932 136.156 46.6901 136.094 46.5391C136.036 46.388 135.948 46.2786 135.828 46.2109C135.714 46.138 135.573 46.1016 135.406 46.1016C135.219 46.1016 135.062 46.1406 134.938 46.2188C134.812 46.2969 134.719 46.4089 134.656 46.5547C134.599 46.7005 134.57 46.875 134.57 47.0781H132.375C132.375 46.7135 132.445 46.3698 132.586 46.0469C132.727 45.7188 132.932 45.4323 133.203 45.1875C133.479 44.9375 133.807 44.7422 134.188 44.6016C134.568 44.4609 134.995 44.3906 135.469 44.3906C136.031 44.3906 136.531 44.487 136.969 44.6797C137.406 44.8672 137.753 45.1667 138.008 45.5781C138.263 45.9896 138.391 46.5234 138.391 47.1797V50.9453C138.391 51.4193 138.414 51.8047 138.461 52.1016C138.513 52.3984 138.589 52.6536 138.688 52.8672V53H136.484C136.385 52.7656 136.31 52.474 136.258 52.125C136.211 51.7708 136.188 51.4141 136.188 51.0547ZM136.453 47.8359L136.461 49.1484H135.656C135.448 49.1484 135.266 49.1823 135.109 49.25C134.958 49.3177 134.831 49.4141 134.727 49.5391C134.622 49.6589 134.544 49.7995 134.492 49.9609C134.445 50.1224 134.422 50.2943 134.422 50.4766C134.422 50.6797 134.451 50.8516 134.508 50.9922C134.565 51.1328 134.651 51.2396 134.766 51.3125C134.88 51.3854 135.016 51.4219 135.172 51.4219C135.411 51.4219 135.62 51.3724 135.797 51.2734C135.974 51.1745 136.104 51.0547 136.188 50.9141C136.276 50.7734 136.305 50.6432 136.273 50.5234L136.773 51.375C136.711 51.5677 136.625 51.7682 136.516 51.9766C136.411 52.1849 136.279 52.3776 136.117 52.5547C135.956 52.7318 135.755 52.8776 135.516 52.9922C135.281 53.1016 135.003 53.1562 134.68 53.1562C134.227 53.1562 133.812 53.0521 133.438 52.8438C133.062 52.6354 132.766 52.3438 132.547 51.9688C132.333 51.5938 132.227 51.1484 132.227 50.6328C132.227 50.2057 132.294 49.8203 132.43 49.4766C132.57 49.1276 132.779 48.8333 133.055 48.5938C133.331 48.349 133.68 48.1615 134.102 48.0312C134.523 47.901 135.018 47.8359 135.586 47.8359H136.453ZM142.195 46.4297V53H140.008V44.5469H142.07L142.195 46.4297ZM144.188 44.4844L144.156 46.6641C144.057 46.6432 143.938 46.6276 143.797 46.6172C143.661 46.6068 143.542 46.6016 143.438 46.6016C143.193 46.6016 142.984 46.6406 142.812 46.7188C142.641 46.7917 142.497 46.9036 142.383 47.0547C142.273 47.2005 142.19 47.3828 142.133 47.6016C142.076 47.8203 142.042 48.0677 142.031 48.3438L141.617 48.1875C141.617 47.6354 141.659 47.1302 141.742 46.6719C141.831 46.2083 141.961 45.8073 142.133 45.4688C142.305 45.125 142.51 44.8594 142.75 44.6719C142.995 44.4844 143.271 44.3906 143.578 44.3906C143.682 44.3906 143.792 44.401 143.906 44.4219C144.026 44.4375 144.12 44.4583 144.188 44.4844ZM148.797 51.0547V47.1484C148.797 46.8932 148.766 46.6901 148.703 46.5391C148.646 46.388 148.557 46.2786 148.438 46.2109C148.323 46.138 148.182 46.1016 148.016 46.1016C147.828 46.1016 147.672 46.1406 147.547 46.2188C147.422 46.2969 147.328 46.4089 147.266 46.5547C147.208 46.7005 147.18 46.875 147.18 47.0781H144.984C144.984 46.7135 145.055 46.3698 145.195 46.0469C145.336 45.7188 145.542 45.4323 145.812 45.1875C146.089 44.9375 146.417 44.7422 146.797 44.6016C147.177 44.4609 147.604 44.3906 148.078 44.3906C148.641 44.3906 149.141 44.487 149.578 44.6797C150.016 44.8672 150.362 45.1667 150.617 45.5781C150.872 45.9896 151 46.5234 151 47.1797V50.9453C151 51.4193 151.023 51.8047 151.07 52.1016C151.122 52.3984 151.198 52.6536 151.297 52.8672V53H149.094C148.995 52.7656 148.919 52.474 148.867 52.125C148.82 51.7708 148.797 51.4141 148.797 51.0547ZM149.062 47.8359L149.07 49.1484H148.266C148.057 49.1484 147.875 49.1823 147.719 49.25C147.568 49.3177 147.44 49.4141 147.336 49.5391C147.232 49.6589 147.154 49.7995 147.102 49.9609C147.055 50.1224 147.031 50.2943 147.031 50.4766C147.031 50.6797 147.06 50.8516 147.117 50.9922C147.174 51.1328 147.26 51.2396 147.375 51.3125C147.49 51.3854 147.625 51.4219 147.781 51.4219C148.021 51.4219 148.229 51.3724 148.406 51.2734C148.583 51.1745 148.714 51.0547 148.797 50.9141C148.885 50.7734 148.914 50.6432 148.883 50.5234L149.383 51.375C149.32 51.5677 149.234 51.7682 149.125 51.9766C149.021 52.1849 148.888 52.3776 148.727 52.5547C148.565 52.7318 148.365 52.8776 148.125 52.9922C147.891 53.1016 147.612 53.1562 147.289 53.1562C146.836 53.1562 146.422 53.0521 146.047 52.8438C145.672 52.6354 145.375 52.3438 145.156 51.9688C144.943 51.5938 144.836 51.1484 144.836 50.6328C144.836 50.2057 144.904 49.8203 145.039 49.4766C145.18 49.1276 145.388 48.8333 145.664 48.5938C145.94 48.349 146.289 48.1615 146.711 48.0312C147.133 47.901 147.628 47.8359 148.195 47.8359H149.062ZM158.508 46.2969V53H156.312V44.5469H158.367L158.508 46.2969ZM158.203 48.4844L157.594 48.5C157.583 47.9062 157.635 47.3594 157.75 46.8594C157.865 46.3594 158.036 45.9245 158.266 45.5547C158.5 45.1849 158.794 44.8984 159.148 44.6953C159.508 44.4922 159.922 44.3906 160.391 44.3906C160.693 44.3906 160.974 44.4479 161.234 44.5625C161.5 44.6719 161.727 44.8464 161.914 45.0859C162.107 45.3203 162.255 45.6276 162.359 46.0078C162.464 46.3828 162.516 46.8333 162.516 47.3594V53H160.336V47.625C160.336 47.25 160.299 46.9635 160.227 46.7656C160.154 46.5625 160.049 46.4219 159.914 46.3438C159.779 46.2604 159.612 46.2188 159.414 46.2188C159.206 46.2188 159.023 46.276 158.867 46.3906C158.711 46.5052 158.583 46.6667 158.484 46.875C158.391 47.0781 158.318 47.3177 158.266 47.5938C158.219 47.8698 158.198 48.1667 158.203 48.4844ZM162.312 48.2656L161.531 48.3672C161.516 47.8099 161.562 47.2891 161.672 46.8047C161.781 46.3203 161.951 45.8984 162.18 45.5391C162.409 45.1797 162.695 44.8984 163.039 44.6953C163.388 44.4922 163.792 44.3906 164.25 44.3906C164.594 44.3906 164.906 44.4479 165.188 44.5625C165.469 44.6771 165.708 44.862 165.906 45.1172C166.109 45.3672 166.263 45.6979 166.367 46.1094C166.477 46.5156 166.531 47.0156 166.531 47.6094V53H164.336V47.6172C164.336 47.237 164.299 46.9453 164.227 46.7422C164.159 46.5391 164.057 46.401 163.922 46.3281C163.786 46.2552 163.622 46.2188 163.43 46.2188C163.242 46.2188 163.078 46.2708 162.938 46.375C162.802 46.4792 162.688 46.625 162.594 46.8125C162.5 47 162.43 47.2161 162.383 47.4609C162.336 47.7057 162.312 47.974 162.312 48.2656ZM170.477 44.5469V53H168.281V44.5469H170.477ZM168.18 42.3516C168.18 42.013 168.286 41.7344 168.5 41.5156C168.719 41.2969 169.013 41.1875 169.383 41.1875C169.747 41.1875 170.036 41.2969 170.25 41.5156C170.464 41.7344 170.57 42.013 170.57 42.3516C170.57 42.6901 170.464 42.9714 170.25 43.1953C170.036 43.4141 169.747 43.5234 169.383 43.5234C169.013 43.5234 168.719 43.4141 168.5 43.1953C168.286 42.9714 168.18 42.6901 168.18 42.3516ZM174.414 46.2969V53H172.219V44.5469H174.273L174.414 46.2969ZM174.109 48.4844L173.5 48.5C173.49 47.9062 173.542 47.3594 173.656 46.8594C173.771 46.3594 173.943 45.9245 174.172 45.5547C174.406 45.1849 174.701 44.8984 175.055 44.6953C175.414 44.4922 175.828 44.3906 176.297 44.3906C176.599 44.3906 176.88 44.4479 177.141 44.5625C177.406 44.6719 177.633 44.8464 177.82 45.0859C178.013 45.3203 178.161 45.6276 178.266 46.0078C178.37 46.3828 178.422 46.8333 178.422 47.3594V53H176.242V47.625C176.242 47.25 176.206 46.9635 176.133 46.7656C176.06 46.5625 175.956 46.4219 175.82 46.3438C175.685 46.2604 175.518 46.2188 175.32 46.2188C175.112 46.2188 174.93 46.276 174.773 46.3906C174.617 46.5052 174.49 46.6667 174.391 46.875C174.297 47.0781 174.224 47.3177 174.172 47.5938C174.125 47.8698 174.104 48.1667 174.109 48.4844ZM178.219 48.2656L177.438 48.3672C177.422 47.8099 177.469 47.2891 177.578 46.8047C177.688 46.3203 177.857 45.8984 178.086 45.5391C178.315 45.1797 178.602 44.8984 178.945 44.6953C179.294 44.4922 179.698 44.3906 180.156 44.3906C180.5 44.3906 180.812 44.4479 181.094 44.5625C181.375 44.6771 181.615 44.862 181.812 45.1172C182.016 45.3672 182.169 45.6979 182.273 46.1094C182.383 46.5156 182.438 47.0156 182.438 47.6094V53H180.242V47.6172C180.242 47.237 180.206 46.9453 180.133 46.7422C180.065 46.5391 179.964 46.401 179.828 46.3281C179.693 46.2552 179.529 46.2188 179.336 46.2188C179.148 46.2188 178.984 46.2708 178.844 46.375C178.708 46.4792 178.594 46.625 178.5 46.8125C178.406 47 178.336 47.2161 178.289 47.4609C178.242 47.7057 178.219 47.974 178.219 48.2656Z" fill="white"/>
<defs>
<filter id="filter0_d_825_1222" x="0" y="0" width="310" height="72" filterUnits="userSpaceOnUse" color-interpolation-filters="sRGB">
<feFlood flood-opacity="0" result="BackgroundImageFix"/>
<feColorMatrix in="SourceAlpha" type="matrix" values="0 0 0 0 0 0 0 0 0 0 0 0 0 0 0 0 0 0 127 0" result="hardAlpha"/>
<feOffset dx="2" dy="2"/>
<feGaussianBlur stdDeviation="2"/>
<feComposite in2="hardAlpha" operator="out"/>
<feColorMatrix type="matrix" values="0 0 0 0 0 0 0 0 0 0 0 0 0 0 0 0 0 0 0.25 0"/>
<feBlend mode="normal" in2="BackgroundImageFix" result="effect1_dropShadow_825_1222"/>
<feBlend mode="normal" in="SourceGraphic" in2="effect1_dropShadow_825_1222" result="shape"/>
</filter>
<linearGradient id="paint0_linear_825_1222" x1="153" y1="2" x2="153" y2="66" gradientUnits="userSpaceOnUse">
<stop stop-color="#FF896F"/>
<stop offset="0.5" stop-color="#FF5F38"/>
<stop offset="1" stop-color="#E6502C"/>
</linearGradient>
</defs>
</svg>
