<svg width="90" height="90" viewBox="0 0 90 90" fill="none" xmlns="http://www.w3.org/2000/svg">
<g clip-path="url(#clip0_429_539)">
<g filter="url(#filter0_d_429_539)">
<path d="M75.323 26.543C81.8648 26.543 87.1889 21.2203 87.1889 14.677C87.1889 8.13375 81.8648 2.8125 75.323 2.8125C68.7811 2.8125 63.457 8.13516 63.457 14.6784C63.457 21.2217 68.7797 26.543 75.323 26.543ZM75.323 5.44922C76.535 5.44922 77.7351 5.68794 78.8548 6.15175C79.9746 6.61556 80.992 7.29538 81.849 8.15239C82.706 9.00941 83.3858 10.0268 83.8497 11.1466C84.3135 12.2663 84.5522 13.4664 84.5522 14.6784C84.5522 15.8904 84.3135 17.0906 83.8497 18.2103C83.3858 19.33 82.706 20.3475 81.849 21.2045C80.992 22.0615 79.9746 22.7413 78.8548 23.2051C77.7351 23.6689 76.535 23.9077 75.323 23.9077C72.8752 23.9077 70.5277 22.9353 68.7969 21.2045C67.0661 19.4737 66.0938 17.1262 66.0938 14.6784C66.0938 12.2307 67.0661 9.88321 68.7969 8.15239C70.5277 6.42158 72.8752 5.44922 75.323 5.44922ZM15.9961 13.3594H24.615C25.0777 14.1607 25.743 14.8262 26.5442 15.289C27.3455 15.7518 28.2544 15.9957 29.1797 15.9961H34.4531C37.3598 15.9961 39.7266 13.6294 39.7266 10.7227C39.7266 7.81594 37.3598 5.44922 34.4531 5.44922H33.7444C33.2817 4.64788 32.6164 3.98239 31.8151 3.51957C31.0139 3.05675 30.105 2.81289 29.1797 2.8125H15.9961C13.0894 2.8125 10.7227 5.17922 10.7227 8.08594C10.7227 10.9927 13.0894 13.3594 15.9961 13.3594ZM15.9961 5.44922H29.1797C30.6338 5.44922 31.8164 6.63047 31.8164 8.08594H34.4531C35.9072 8.08594 37.0898 9.26719 37.0898 10.7227C37.0898 12.1781 35.9072 13.3594 34.4531 13.3594H29.1797C28.4804 13.3594 27.8097 13.0816 27.3152 12.5871C26.8208 12.0926 26.543 11.422 26.543 10.7227H15.9961C15.2968 10.7227 14.6261 10.4449 14.1317 9.95038C13.6372 9.4559 13.3594 8.78524 13.3594 8.08594C13.3594 7.38664 13.6372 6.71598 14.1317 6.2215C14.6261 5.72702 15.2968 5.44922 15.9961 5.44922ZM47.6367 19.9519H52.9102C55.8169 19.9519 58.1836 17.5852 58.1836 14.6784C58.1836 11.7717 55.8169 9.405 52.9102 9.405H47.6367C44.73 9.405 42.3633 11.7717 42.3633 14.6784C42.3633 17.5852 44.73 19.9519 47.6367 19.9519ZM47.6367 12.0417H52.9102C54.3642 12.0417 55.5469 13.223 55.5469 14.6784C55.5469 16.1339 54.3642 17.3152 52.9102 17.3152H47.6367C46.9374 17.3152 46.2668 17.0374 45.7723 16.5429C45.2778 16.0484 45 15.3777 45 14.6784C45 13.9791 45.2778 13.3085 45.7723 12.814C46.2668 12.3195 46.9374 12.0417 47.6367 12.0417ZM25.2253 18.6328H19.9519C17.0452 18.6328 14.6784 20.9995 14.6784 23.9062C14.6784 26.813 17.0452 29.1797 19.9519 29.1797H25.2253C28.132 29.1797 30.4987 26.813 30.4987 23.9062C30.4987 20.9995 28.132 18.6328 25.2253 18.6328ZM25.2253 26.543H19.9519C19.2526 26.543 18.5819 26.2652 18.0874 25.7707C17.593 25.2762 17.3152 24.6056 17.3152 23.9062C17.3152 23.2069 17.593 22.5363 18.0874 22.0418C18.5819 21.5473 19.2526 21.2695 19.9519 21.2695H25.2253C26.6794 21.2695 27.862 22.4508 27.862 23.9062C27.862 25.3617 26.6794 26.543 25.2253 26.543ZM65.5355 51.9961C66.2892 52.1395 66.7012 51.9188 67.7841 51.2592C69.2789 50.3423 71.3348 49.0852 74.7183 49.7334L75.1697 49.8192C76.9008 40.7981 62.5416 35.2223 61.8694 35.0198C62.5416 38.8181 63.5667 45.0492 64.2431 51.1523C64.6664 51.6614 64.9786 51.8906 65.5355 51.9961ZM47.333 47.3498C48.0459 48.3511 48.3314 48.7055 49.0612 48.8447C49.7855 48.9853 50.1834 48.7603 51.2297 48.0966C51.3127 48.0431 51.4041 47.9883 51.487 47.932C54.2812 42.7444 57.337 37.6481 59.2636 34.5206C58.3495 34.4039 43.1058 34.4306 41.2959 43.3561L41.7375 43.4419C44.9789 44.0592 46.3387 45.9605 47.333 47.3498Z" fill="#1E293B"/>
</g>
<g filter="url(#filter1_d_429_539)">
<path d="M81.4655 45C79.0987 36.277 68.1708 31.8108 66.5044 31.1794C64.1967 29.9784 60.0103 29.2809 57.773 29.1797C51.1805 28.8802 37.2178 29.8673 34.7864 42.1594L34.5839 43.1902L34.5684 43.2591L34.56 43.3322C34.4837 43.8847 34.4546 44.4426 34.4728 45H2.8125V87.1875H87.1875V45H81.4655ZM37.1728 43.6964L37.3739 42.6713C39.4186 32.3325 52.0031 31.538 57.7744 31.8164C59.7361 31.9106 63.4739 32.5308 65.423 33.5897C65.423 33.5897 81.3023 39.3131 79.0608 50.6419L78.8597 51.6656C78.4842 53.1281 77.9512 53.903 77.4337 53.903C77.0836 53.903 76.7433 53.5458 76.4648 52.8089L75.472 52.6191C74.9795 52.5227 74.479 52.4728 73.9772 52.47C70.6922 52.47 69.4856 54.8606 66.787 54.8606C66.4889 54.8616 66.1702 54.8302 65.8308 54.7664C61.9931 54.0338 62.6119 50.1609 57.7125 49.223C57.2238 49.1269 56.727 49.0775 56.2289 49.0753C52.9411 49.0753 51.7345 51.4688 49.0331 51.4688C48.7369 51.4688 48.4186 51.4378 48.0783 51.3759C44.2406 50.6405 44.858 46.7677 39.9614 45.8311L38.9616 45.6413C38.5228 46.1124 38.1445 46.3359 37.8422 46.3359C37.2248 46.3317 36.9366 45.3839 37.1728 43.6964ZM58.4719 52.2211L54.3825 72.9225C54.3154 73.2696 54.1134 73.576 53.8208 73.7745C53.5282 73.973 53.1689 74.0474 52.8216 73.9814C52.6502 73.9491 52.487 73.8831 52.3414 73.7871C52.1958 73.6912 52.0708 73.5672 51.9735 73.4225C51.8763 73.2778 51.8088 73.1151 51.775 72.9441C51.7412 72.773 51.7418 72.5969 51.7767 72.4261L55.8605 51.7472L58.4719 52.2211ZM84.5508 84.5508H23.5744C-2.91797 64.0786 27.4641 56.8406 54.0141 54.2883L50.483 72.1688C50.3437 72.8634 50.4858 73.5722 50.8809 74.16C51.1214 74.5196 51.4473 74.8139 51.8294 75.0166C52.2115 75.2193 52.6379 75.3241 53.0705 75.3216C54.3361 75.3216 55.433 74.4188 55.6777 73.1756L59.4998 53.8214L60.1566 53.7736C60.1945 53.8242 60.2339 53.8678 60.2733 53.9198C61.2436 55.1461 62.5725 56.8266 65.3386 57.3539C65.828 57.4467 66.3159 57.4959 66.7884 57.4959C68.7727 57.4959 70.1845 56.6902 71.318 56.0419C72.2686 55.4963 72.9563 55.1053 73.98 55.1053C74.2303 55.1053 74.498 55.1283 74.783 55.1742C75.7266 56.3794 76.8895 56.5397 77.4366 56.5397C78.6769 56.5397 80.2927 55.8661 81.2264 52.9228C83.3259 52.9045 84.5522 52.9172 84.5522 52.9172L84.5508 84.5508Z" fill="#1E293B"/>
</g>
</g>
<defs>
<filter id="filter0_d_429_539" x="6.72266" y="0.8125" width="84.4663" height="57.2254" filterUnits="userSpaceOnUse" color-interpolation-filters="sRGB">
<feFlood flood-opacity="0" result="BackgroundImageFix"/>
<feColorMatrix in="SourceAlpha" type="matrix" values="0 0 0 0 0 0 0 0 0 0 0 0 0 0 0 0 0 0 127 0" result="hardAlpha"/>
<feOffset dy="2"/>
<feGaussianBlur stdDeviation="2"/>
<feComposite in2="hardAlpha" operator="out"/>
<feColorMatrix type="matrix" values="0 0 0 0 0 0 0 0 0 0 0 0 0 0 0 0 0 0 0.25 0"/>
<feBlend mode="normal" in2="BackgroundImageFix" result="effect1_dropShadow_429_539"/>
<feBlend mode="normal" in="SourceGraphic" in2="effect1_dropShadow_429_539" result="shape"/>
</filter>
<filter id="filter1_d_429_539" x="-1.1875" y="27.1373" width="92.375" height="66.0502" filterUnits="userSpaceOnUse" color-interpolation-filters="sRGB">
<feFlood flood-opacity="0" result="BackgroundImageFix"/>
<feColorMatrix in="SourceAlpha" type="matrix" values="0 0 0 0 0 0 0 0 0 0 0 0 0 0 0 0 0 0 127 0" result="hardAlpha"/>
<feOffset dy="2"/>
<feGaussianBlur stdDeviation="2"/>
<feComposite in2="hardAlpha" operator="out"/>
<feColorMatrix type="matrix" values="0 0 0 0 0 0 0 0 0 0 0 0 0 0 0 0 0 0 0.25 0"/>
<feBlend mode="normal" in2="BackgroundImageFix" result="effect1_dropShadow_429_539"/>
<feBlend mode="normal" in="SourceGraphic" in2="effect1_dropShadow_429_539" result="shape"/>
</filter>
<clipPath id="clip0_429_539">
<rect width="90" height="90" fill="white"/>
</clipPath>
</defs>
</svg>
