<svg width="95" height="95" viewBox="0 0 95 95" fill="none" xmlns="http://www.w3.org/2000/svg">
<path d="M89.0595 47.3991C89.0595 70.3505 70.4514 88.9616 47.497 88.9616C24.5456 88.9616 5.9375 70.3505 5.9375 47.3991C5.9375 24.4447 24.5456 5.83656 47.5 5.83656C70.4514 5.83656 89.0595 24.4447 89.0595 47.3991Z" fill="#FF896F"/>
<path d="M6.00282 45.0508C7.44883 44.5889 8.97573 44.436 10.4846 44.6018C11.9935 44.7676 13.4507 45.2486 14.7619 46.0134C16.0731 46.7783 17.209 47.8101 18.0961 49.0419C18.9832 50.2737 19.6016 51.6781 19.9114 53.1641C20.2211 54.6502 20.2153 56.1847 19.8942 57.6683C19.5731 59.152 18.944 60.5516 18.0476 61.7766C17.1512 63.0017 16.0074 64.0247 14.6905 64.7796C13.3735 65.5344 11.9126 66.0043 10.4025 66.1586C7.09663 59.635 5.57854 52.3519 6.00282 45.0508ZM77.6536 76C72.6012 81.3331 66.2256 85.2319 59.1761 87.2991C57.8258 84.8551 57.4708 81.9843 58.185 79.285C58.8992 76.5857 60.6276 74.2662 63.0098 72.8098C65.3921 71.3534 68.2445 70.8725 70.9726 71.4674C73.7006 72.0623 76.0939 73.684 77.6536 76ZM88.9259 50.7448C88.5351 55.7128 87.2477 60.5689 85.1259 65.078C84.166 64.8459 83.2621 64.4244 82.4673 63.8383C81.6724 63.2522 81.0027 62.5132 80.4973 61.6648C79.9919 60.8163 79.661 59.8754 79.5242 58.8974C79.3873 57.9193 79.4472 56.9238 79.7003 55.9692C79.9534 55.0146 80.3946 54.1202 80.998 53.3384C81.6014 52.5566 82.3549 51.9032 83.2143 51.4166C84.0736 50.93 85.0215 50.6199 86.0023 50.5045C86.9832 50.3891 87.9771 50.4709 88.9259 50.7448ZM45.9978 23.75C47.9639 23.75 49.8494 22.969 51.2396 21.5788C52.6298 20.1886 53.4108 18.3031 53.4108 16.337C53.4108 14.371 52.6298 12.4855 51.2396 11.0953C49.8494 9.70506 47.9639 8.92406 45.9978 8.92406C44.0318 8.92406 42.1463 9.70506 40.7561 11.0953C39.3659 12.4855 38.5848 14.371 38.5848 16.337C38.5848 18.3031 39.3659 20.1886 40.7561 21.5788C42.1463 22.969 44.0318 23.75 45.9978 23.75ZM43.9078 67.1383C47.025 69.5786 47.877 73.7022 45.8078 76.3473C43.7386 78.9895 39.5319 79.1528 36.4117 76.7125C33.2945 74.2692 32.4455 70.1486 34.5117 67.5034C36.5839 64.8612 40.7906 64.695 43.9078 67.1383Z" fill="#E6502C"/>
<path d="M31.6765 23.8687C29.7238 23.8687 27.8511 24.6444 26.4704 26.0252C25.0897 27.4059 24.314 29.2786 24.314 31.2312C24.314 31.6249 24.1576 32.0025 23.8792 32.2809C23.6008 32.5592 23.2233 32.7156 22.8296 32.7156C22.4359 32.7156 22.0584 32.5592 21.78 32.2809C21.5016 32.0025 21.3452 31.6249 21.3452 31.2312C21.3452 28.4912 22.4337 25.8634 24.3712 23.9259C26.3087 21.9885 28.9364 20.9 31.6765 20.9C32.0701 20.9 32.4477 21.0564 32.7261 21.3348C33.0045 21.6131 33.1608 21.9907 33.1608 22.3844C33.1608 22.778 33.0045 23.1556 32.7261 23.434C32.4477 23.7124 32.0701 23.8687 31.6765 23.8687ZM61.0077 22.3844C61.0077 21.9907 61.1641 21.6131 61.4425 21.3348C61.7209 21.0564 62.0984 20.9 62.4921 20.9C65.2321 20.9 67.8599 21.9885 69.7974 23.9259C71.7349 25.8634 72.8233 28.4912 72.8233 31.2312C72.8233 31.6249 72.6669 32.0025 72.3886 32.2809C72.1102 32.5592 71.7326 32.7156 71.339 32.7156C70.9453 32.7156 70.5677 32.5592 70.2894 32.2809C70.011 32.0025 69.8546 31.6249 69.8546 31.2312C69.8546 29.2786 69.0789 27.4059 67.6982 26.0252C66.3174 24.6444 64.4447 23.8687 62.4921 23.8687C62.0984 23.8687 61.7209 23.7124 61.4425 23.434C61.1641 23.1556 61.0077 22.778 61.0077 22.3844ZM30.6018 36.765C30.9042 36.004 31.4293 35.352 32.1084 34.8944C32.7874 34.4367 33.5888 34.1947 34.4077 34.2C36.2127 34.2 37.7505 35.3697 38.2908 37.0055C38.4863 37.5528 38.8881 38.0019 39.4102 38.2571C39.9324 38.5122 40.5336 38.553 41.0855 38.3709C41.6374 38.1887 42.0962 37.798 42.3639 37.2822C42.6316 36.7664 42.687 36.1663 42.5183 35.6102C41.9538 33.9047 40.8664 32.4203 39.4105 31.3678C37.9546 30.3153 36.2042 29.7482 34.4077 29.7469C32.6941 29.7418 31.0187 30.2535 29.6004 31.2153C28.1821 32.1771 27.0867 33.5442 26.4574 35.1381C26.2552 35.6848 26.2754 36.289 26.5137 36.8209C26.7521 37.3529 27.1895 37.7702 27.7321 37.9832C28.2747 38.1962 28.8791 38.1879 29.4157 37.9601C29.9523 37.7324 30.3781 37.3033 30.6018 36.765ZM59.9983 34.2C59.1795 34.1947 58.3781 34.4367 57.699 34.8944C57.0199 35.352 56.4948 36.004 56.1924 36.765C56.0897 37.0427 55.9326 37.2971 55.7303 37.5134C55.5281 37.7297 55.2847 37.9034 55.0145 38.0245C54.7443 38.1456 54.4526 38.2115 54.1566 38.2185C53.8606 38.2255 53.5662 38.1733 53.2905 38.0651C53.0149 37.9569 52.7636 37.7949 52.5514 37.5884C52.3392 37.3819 52.1703 37.1351 52.0546 36.8626C51.9389 36.59 51.8787 36.2971 51.8776 36.001C51.8765 35.7049 51.9344 35.4116 52.048 35.1381C52.6774 33.5442 53.7727 32.1771 55.191 31.2153C56.6093 30.2535 58.2847 29.7418 59.9983 29.7469C63.7746 29.7469 66.9868 32.1991 68.109 35.6102C68.2777 36.1663 68.2223 36.7664 67.9545 37.2822C67.6868 37.798 67.228 38.1887 66.6761 38.3709C66.1243 38.553 65.523 38.5122 65.0009 38.2571C64.4787 38.0019 64.077 37.5528 63.8815 37.0055C63.3411 35.3727 61.8033 34.2 59.9983 34.2ZM35.5358 49.2219C35.1138 48.8286 34.5555 48.6145 33.9787 48.6246C33.4018 48.6348 32.8515 48.8685 32.4435 49.2764C32.0356 49.6844 31.8019 50.2347 31.7917 50.8116C31.7815 51.3884 31.9957 51.9467 32.389 52.3687C34.3243 54.305 36.6222 55.8409 39.1513 56.8888C41.6804 57.9368 44.3912 58.4761 47.1288 58.4761C49.8664 58.4761 52.5772 57.9368 55.1063 56.8888C57.6354 55.8409 59.9333 54.305 61.8687 52.3687C62.0874 52.1649 62.2629 51.9191 62.3846 51.646C62.5063 51.3728 62.5717 51.078 62.577 50.779C62.5822 50.4801 62.5272 50.1831 62.4153 49.9059C62.3033 49.6286 62.1366 49.3768 61.9252 49.1653C61.7137 48.9539 61.4619 48.7872 61.1846 48.6753C60.9074 48.5633 60.6104 48.5083 60.3115 48.5135C60.0125 48.5188 59.7177 48.5843 59.4446 48.706C59.1714 48.8277 58.9256 49.0031 58.7218 49.2219C57.1999 50.7452 55.3927 51.9536 53.4035 52.7781C51.4143 53.6025 49.2821 54.0269 47.1288 54.0269C44.9755 54.0269 42.8433 53.6025 40.8541 52.7781C38.865 51.9536 37.0578 50.7452 35.5358 49.2219Z" fill="#321B41"/>
</svg>
