<svg width="70" height="70" viewBox="0 0 70 70" fill="none" xmlns="http://www.w3.org/2000/svg">
<path d="M70 52.5C70 54.5628 69.1806 56.5411 67.7219 57.9997C66.2633 59.4583 64.285 60.2778 62.2222 60.2778H7.77778C5.71498 60.2778 3.73667 59.4583 2.27806 57.9997C0.819442 56.5411 0 54.5628 0 52.5V17.5C0 15.4372 0.819442 13.4589 2.27806 12.0003C3.73667 10.5417 5.71498 9.72223 7.77778 9.72223H62.2222C64.285 9.72223 66.2633 10.5417 67.7219 12.0003C69.1806 13.4589 70 15.4372 70 17.5V52.5Z" fill="#009B3A"/>
<path d="M63.6379 35L35.0001 56.63L6.3623 35L35.0001 13.368L63.6379 35Z" fill="#FEDF01"/>
<path d="M34.9532 47.4094C41.8884 47.4094 47.5104 41.7874 47.5104 34.8522C47.5104 27.917 41.8884 22.295 34.9532 22.295C28.0181 22.295 22.396 27.917 22.396 34.8522C22.396 41.7874 28.0181 47.4094 34.9532 47.4094Z" fill="#002776"/>
<path d="M23.8721 28.9469C23.2197 30.1759 22.778 31.5055 22.5654 32.8805C30.3335 32.3166 40.8763 36.5575 45.401 41.8153C46.1827 40.6408 46.7621 39.3264 47.1179 37.9186C41.5335 32.4586 31.7238 28.9158 23.8721 28.9469Z" fill="#CBE9D4"/>
<path d="M23.3335 35.4531H25.2779V37.3975H23.3335V35.4531ZM25.2779 39.342H27.2224V41.2864H25.2779V39.342Z" fill="#88C9F9"/>
<path d="M29.1665 35.453H31.1109V37.3975H29.1665V35.453ZM33.0554 37.3975H34.9998V39.3419H33.0554V37.3975ZM40.8332 41.2864H42.7776V43.2308H40.8332V41.2864ZM34.9998 43.2308H36.9443V45.1753H34.9998V43.2308ZM40.8332 31.5641H42.7776V33.5086H40.8332V31.5641Z" fill="#55ACEE"/>
<path d="M36.9443 39.3419H38.8888V41.2864H36.9443V39.3419Z" fill="#3B88C3"/>
</svg>
