<svg width="341" height="150" viewBox="0 0 341 150" fill="none" xmlns="http://www.w3.org/2000/svg">
<circle cx="170.5" cy="75" r="60" fill="url(#paint0_linear_753_1242)"/>
<path d="M162.333 85.5L190.583 57.25C191.25 56.5833 192.028 56.25 192.917 56.25C193.806 56.25 194.583 56.5833 195.25 57.25C195.917 57.9167 196.25 58.7089 196.25 59.6267C196.25 60.5444 195.917 61.3356 195.25 62L164.667 92.6667C164 93.3333 163.222 93.6667 162.333 93.6667C161.444 93.6667 160.667 93.3333 160 92.6667L145.667 78.3333C145 77.6667 144.68 76.8756 144.707 75.96C144.733 75.0444 145.081 74.2522 145.75 73.5833C146.419 72.9144 147.211 72.5811 148.127 72.5833C149.042 72.5856 149.833 72.9189 150.5 73.5833L162.333 85.5Z" fill="#F1F1F1"/>
<defs>
<linearGradient id="paint0_linear_753_1242" x1="120.876" y1="24.7674" x2="245.386" y2="82.0676" gradientUnits="userSpaceOnUse">
<stop stop-color="#FF896F"/>
<stop offset="0.42" stop-color="#FF5F38" stop-opacity="0.9"/>
<stop offset="1" stop-color="#E6502C"/>
</linearGradient>
</defs>
</svg>
