<svg width="70" height="70" viewBox="0 0 70 70" fill="none" xmlns="http://www.w3.org/2000/svg">
<g clip-path="url(#clip0_538_784)">
<g filter="url(#filter0_d_538_784)">
<path d="M53.0469 61.25C50.5592 61.25 48.1273 60.5123 46.0588 59.1302C43.9904 57.7481 42.3782 55.7837 41.4262 53.4853C40.4742 51.187 40.2251 48.6579 40.7104 46.218C41.1958 43.7781 42.3937 41.5369 44.1528 39.7778C45.9119 38.0187 48.1531 36.8208 50.593 36.3355C53.0329 35.8501 55.562 36.0992 57.8603 37.0512C60.1587 38.0032 62.1231 39.6154 63.5052 41.6839C64.8873 43.7523 65.625 46.1842 65.625 48.6719C65.6214 52.0067 64.295 55.2039 61.937 57.562C59.5789 59.92 56.3817 61.2464 53.0469 61.25ZM53.0469 40.4688C51.4245 40.4688 49.8385 40.9499 48.4895 41.8512C47.1405 42.7526 46.0891 44.0338 45.4682 45.5327C44.8473 47.0316 44.6849 48.681 45.0014 50.2722C45.3179 51.8635 46.0992 53.3251 47.2464 54.4724C48.3936 55.6196 49.8553 56.4009 51.4465 56.7174C53.0378 57.0339 54.6872 56.8715 56.1861 56.2506C57.685 55.6297 58.9662 54.5783 59.8675 53.2293C60.7689 51.8803 61.25 50.2943 61.25 48.6719C61.2475 46.4971 60.3824 44.412 58.8446 42.8742C57.3067 41.3364 55.2217 40.4713 53.0469 40.4688ZM16.9531 61.25C14.4654 61.25 12.0336 60.5123 9.9651 59.1302C7.89664 57.7481 6.28447 55.7837 5.33246 53.4853C4.38045 51.187 4.13136 48.6579 4.61669 46.218C5.10202 43.7781 6.29997 41.5369 8.05905 39.7778C9.81814 38.0187 12.0593 36.8208 14.4993 36.3355C16.9392 35.8501 19.4682 36.0992 21.7666 37.0512C24.0649 38.0032 26.0294 39.6154 27.4115 41.6839C28.7936 43.7523 29.5313 46.1842 29.5313 48.6719C29.5276 52.0067 28.2013 55.2039 25.8432 57.562C23.4851 59.92 20.2879 61.2464 16.9531 61.25ZM16.9531 40.4688C15.3307 40.4688 13.7447 40.9499 12.3957 41.8512C11.0467 42.7526 9.99531 44.0338 9.37443 45.5327C8.75356 47.0316 8.59111 48.681 8.90763 50.2722C9.22415 51.8635 10.0054 53.3251 11.1526 54.4724C12.2999 55.6196 13.7615 56.4009 15.3528 56.7174C16.944 57.0339 18.5934 56.8715 20.0923 56.2506C21.5913 55.6297 22.8724 54.5783 23.7738 53.2293C24.6752 51.8803 25.1563 50.2943 25.1563 48.6719C25.1537 46.4971 24.2887 44.412 22.7508 42.8742C21.213 41.3364 19.128 40.4713 16.9531 40.4688ZM43.75 17.5C44.3263 17.502 44.8972 17.3898 45.4298 17.1698C45.9624 16.9497 46.4461 16.6263 46.8529 16.2182C47.2597 15.8101 47.5816 15.3254 47.8 14.7921C48.0183 14.2589 48.1288 13.6876 48.125 13.1113C48.1314 12.538 48.0234 11.9691 47.8073 11.438C47.5913 10.9069 47.2715 10.4241 46.8667 10.0181C46.4619 9.61197 45.9801 9.29067 45.4497 9.07295C44.9193 8.85522 44.3507 8.74544 43.7774 8.75002C43.2028 8.74822 42.6336 8.8596 42.1021 9.07781C41.5706 9.29602 41.0873 9.61677 40.6798 10.0218C40.2722 10.4267 39.9485 10.908 39.7269 11.4381C39.5054 11.9683 39.3905 12.5368 39.3887 13.1113C39.3869 13.6859 39.4983 14.2551 39.7165 14.7866C39.9347 15.3181 40.2554 15.8014 40.6604 16.2089C41.0654 16.6165 41.5467 16.9402 42.0768 17.1618C42.6069 17.3833 43.1755 17.4982 43.75 17.5Z" fill="#1E293B"/>
</g>
<g filter="url(#filter1_d_538_784)">
<path d="M50.251 26.25H44.2682C44.17 26.25 44.0737 26.2236 43.9892 26.1736C43.9048 26.1236 43.8354 26.0517 43.7883 25.9656L39.4488 18.0127C39.1431 17.4217 38.7025 16.911 38.1626 16.5219C37.6228 16.1328 36.999 15.8763 36.3416 15.7731C35.6842 15.6699 35.0118 15.723 34.3787 15.928C33.7457 16.133 33.1698 16.4842 32.6977 16.9531L23.1465 26.5781C22.3441 27.3971 21.8886 28.4942 21.875 29.6406C21.875 32.0195 23.5977 32.8672 24.4043 33.3457C28.3008 35.5906 31.0447 37.2326 32.55 38.1445C32.63 38.1933 32.6962 38.2617 32.7422 38.3434C32.7881 38.425 32.8123 38.5171 32.8125 38.6108V48.0608C32.8125 49.2379 33.7176 50.2483 34.8947 50.307C35.1903 50.3213 35.4856 50.2754 35.7629 50.1722C36.0402 50.069 36.2937 49.9107 36.5081 49.7067C36.7224 49.5027 36.8931 49.2573 37.0099 48.9855C37.1267 48.7136 37.1871 48.4209 37.1875 48.125V36.3672C37.1877 36.0199 37.1052 35.6776 36.9469 35.3686C36.7885 35.0595 36.5589 34.7926 36.277 34.5899L31.2184 30.9518C31.1549 30.9063 31.1018 30.8478 31.0628 30.7802C31.0238 30.7126 30.9998 30.6374 30.9923 30.5596C30.9847 30.4819 30.994 30.4035 31.0193 30.3296C31.0446 30.2558 31.0854 30.1882 31.1391 30.1315L36.8813 24.0078C36.9401 23.9448 37.0131 23.8966 37.0941 23.8672C37.1752 23.8378 37.262 23.8279 37.3476 23.8384C37.4332 23.849 37.5151 23.8796 37.5866 23.9278C37.6581 23.976 37.7171 24.0404 37.759 24.1158L40.7422 29.4998C40.9318 29.8411 41.2093 30.1254 41.5459 30.3233C41.8824 30.5212 42.2658 30.6253 42.6562 30.625H50.3125C50.6088 30.6254 50.9022 30.5655 51.1747 30.449C51.4472 30.3326 51.6932 30.162 51.8977 29.9475C52.1023 29.7331 52.2612 29.4794 52.3647 29.2017C52.4682 28.9241 52.5143 28.6282 52.5 28.3322C52.4426 27.1551 51.4281 26.25 50.251 26.25Z" fill="#1E293B"/>
</g>
</g>
<defs>
<filter id="filter0_d_538_784" x="2.375" y="6.74988" width="69.25" height="60.5001" filterUnits="userSpaceOnUse" color-interpolation-filters="sRGB">
<feFlood flood-opacity="0" result="BackgroundImageFix"/>
<feColorMatrix in="SourceAlpha" type="matrix" values="0 0 0 0 0 0 0 0 0 0 0 0 0 0 0 0 0 0 127 0" result="hardAlpha"/>
<feOffset dx="2" dy="2"/>
<feGaussianBlur stdDeviation="2"/>
<feComposite in2="hardAlpha" operator="out"/>
<feColorMatrix type="matrix" values="0 0 0 0 0 0 0 0 0 0 0 0 0 0 0 0 0 0 0.25 0"/>
<feBlend mode="normal" in2="BackgroundImageFix" result="effect1_dropShadow_538_784"/>
<feBlend mode="normal" in="SourceGraphic" in2="effect1_dropShadow_538_784" result="shape"/>
</filter>
<filter id="filter1_d_538_784" x="19.875" y="13.7219" width="38.6279" height="42.5877" filterUnits="userSpaceOnUse" color-interpolation-filters="sRGB">
<feFlood flood-opacity="0" result="BackgroundImageFix"/>
<feColorMatrix in="SourceAlpha" type="matrix" values="0 0 0 0 0 0 0 0 0 0 0 0 0 0 0 0 0 0 127 0" result="hardAlpha"/>
<feOffset dx="2" dy="2"/>
<feGaussianBlur stdDeviation="2"/>
<feComposite in2="hardAlpha" operator="out"/>
<feColorMatrix type="matrix" values="0 0 0 0 0 0 0 0 0 0 0 0 0 0 0 0 0 0 0.25 0"/>
<feBlend mode="normal" in2="BackgroundImageFix" result="effect1_dropShadow_538_784"/>
<feBlend mode="normal" in="SourceGraphic" in2="effect1_dropShadow_538_784" result="shape"/>
</filter>
<clipPath id="clip0_538_784">
<rect width="70" height="70" fill="white"/>
</clipPath>
</defs>
</svg>
