<svg width="90" height="90" viewBox="0 0 90 90" fill="none" xmlns="http://www.w3.org/2000/svg">
<g clip-path="url(#clip0_467_638)">
<g filter="url(#filter0_d_467_638)">
<path d="M81.4767 8.52325C74.79 1.83654 64.2684 0.946379 56.9897 6.25075L55.2277 4.48872L53.287 6.42794L51.9806 7.73435L50.3438 9.37263L52.0622 11.0897C49.223 14.8458 48.143 19.5539 48.742 24.165L47.8927 25.9467L44.2673 30.4312L8.67516 74.4342L7.50375 75.6056L9.33047 77.4323L2.8125 85.7193L4.28062 87.1875L12.5719 80.6695L14.3972 82.4948L15.5672 81.3248L59.5688 45.7326L64.0519 42.1101L65.8378 41.2608C70.4475 41.857 75.1542 40.7784 78.9089 37.942L80.6287 39.6618L82.267 38.0236L83.5748 36.7158L85.5141 34.7765L83.7506 33.0131C89.0536 25.7329 88.162 15.2086 81.4767 8.52325ZM16.0847 78.0764C16.0528 78.1089 16.0147 78.1347 15.9727 78.1523C15.9306 78.1699 15.8856 78.179 15.84 78.179C15.7944 78.179 15.7494 78.1699 15.7073 78.1523C15.6653 78.1347 15.6272 78.1089 15.5953 78.0764L11.9222 74.4047C11.8901 74.3726 11.8647 74.3346 11.8474 74.2927C11.8301 74.2509 11.8211 74.206 11.8211 74.1607C11.8211 74.0692 11.8575 73.9814 11.9222 73.9167C11.9869 73.852 12.0747 73.8156 12.1662 73.8156C12.2577 73.8156 12.3454 73.852 12.4102 73.9167L16.0847 77.5884C16.1492 77.6532 16.1854 77.741 16.1854 77.8324C16.1854 77.9238 16.1492 78.0116 16.0847 78.0764ZM19.9969 73.5243C19.7657 73.7557 19.4913 73.9391 19.1892 74.0643C18.8871 74.1895 18.5633 74.254 18.2363 74.254C17.9092 74.254 17.5854 74.1895 17.2833 74.0643C16.9812 73.9391 16.7068 73.7557 16.4756 73.5243C16.1594 73.206 15.9362 72.8073 15.8302 72.3712L20.6423 72.3684C20.5361 72.8052 20.313 73.2048 19.9969 73.5243ZM15.8316 71.1604C15.937 70.7386 16.148 70.3378 16.4756 70.0073C16.7068 69.776 16.9812 69.5925 17.2833 69.4673C17.5854 69.3421 17.9092 69.2777 18.2363 69.2777C18.5633 69.2777 18.8871 69.3421 19.1892 69.4673C19.4913 69.5925 19.7657 69.776 19.9969 70.0073C20.3259 70.3378 20.5369 70.74 20.6423 71.1633L15.8316 71.1604ZM23.5266 67.86C23.4355 67.9507 23.3275 68.0227 23.2086 68.0717C23.0898 68.1207 22.9625 68.1458 22.8339 68.1456C22.7053 68.1455 22.5781 68.1199 22.4594 68.0706C22.3407 68.0212 22.2329 67.9489 22.1421 67.8579C22.0513 67.7668 21.9794 67.6588 21.9304 67.5399C21.8814 67.4211 21.8562 67.2938 21.8564 67.1652C21.8566 67.0366 21.8821 66.9094 21.9315 66.7907C21.9809 66.672 22.0532 66.5642 22.1442 66.4734C22.3281 66.2901 22.5772 66.1873 22.8369 66.1877C23.0965 66.1881 23.3454 66.2916 23.5287 66.4755C23.712 66.6594 23.8147 66.9085 23.8143 67.1682C23.814 67.4278 23.7104 67.6767 23.5266 67.86ZM35.1591 59.7318L30.2681 54.8395L40.2806 44.8284L45.173 49.7207L35.1591 59.7318ZM47.0545 45.4373C46.7275 45.4373 46.4038 45.3729 46.1017 45.2477C45.7996 45.1225 45.5252 44.9391 45.294 44.7078C45.0629 44.4765 44.8795 44.202 44.7545 43.8998C44.6295 43.5977 44.5653 43.2738 44.5655 42.9468C44.5655 42.48 44.7019 42.0454 44.9269 41.6728L48.3272 45.0759C47.9445 45.3116 47.504 45.4367 47.0545 45.4373ZM49.1836 44.2195L45.7819 40.8178C46.1559 40.5942 46.5863 40.4578 47.0531 40.4578C47.3801 40.4576 47.7039 40.5218 48.0061 40.6469C48.3082 40.7719 48.5828 40.9552 48.8141 41.1863C49.0453 41.4175 49.2288 41.6919 49.354 41.994C49.4792 42.2961 49.5436 42.6199 49.5436 42.9468C49.5436 43.4137 49.4072 43.8468 49.1836 44.2195ZM59.6686 43.8778L46.1222 30.3328L48.0023 28.0097L61.9903 42.0018L59.6686 43.8778ZM67.6716 38.6508L51.3436 22.3242C51.2241 19.1826 52.0172 16.065 53.7736 13.4325L76.5675 36.2264C73.9336 37.9842 70.8145 38.7703 67.6716 38.6508ZM80.3123 36.0675L53.9353 9.68904L55.2417 8.38263L81.6202 34.7611L80.3123 36.0675ZM81.772 31.0331L58.9683 8.22935C65.1459 4.03872 73.9209 4.87544 79.5234 10.4779C85.1245 16.079 85.9627 24.8568 81.772 31.0331ZM79.7344 53.1084C78.8344 48.1823 74.2036 47.2373 74.2036 47.2373L65.5341 63.2531C65.2753 61.3983 63.817 59.4408 61.5727 58.2243C58.3509 56.4792 54.727 56.9334 53.4825 59.234C52.2366 61.5361 53.8383 64.814 57.0614 66.5606C60.2859 68.3029 63.907 67.8515 65.1516 65.5495L72.0703 52.7695C72.803 52.7583 73.8942 53.1956 75.3933 54.9126C78.5334 58.5126 82.7972 58.919 82.7972 58.919C82.7972 58.919 80.5148 57.389 79.7344 53.1084Z" fill="#1E293B"/>
</g>
<g filter="url(#filter1_d_467_638)">
<path d="M18.2179 40.4986C23.5687 40.929 28.1531 38.1769 28.4597 34.3547L30.157 13.133C31.1287 12.6844 32.85 12.6226 35.879 14.0401C42.217 16.9974 48.1697 15.023 48.1697 15.023C48.1697 15.023 44.2026 14.3213 40.6237 9.05068C36.502 2.97708 29.7365 4.45224 29.7365 4.45224L27.6075 31.0529C26.1632 28.7171 23.0512 26.9565 19.3218 26.6583C13.9725 26.2308 9.38809 28.9829 9.08293 32.8065C8.77777 36.6272 12.8643 40.0726 18.2179 40.4986ZM35.2518 57.1936L32.812 54.7538L33.3014 54.2644L35.7412 56.7043L35.2518 57.1936ZM36.1546 56.2866L33.7134 53.8454L34.2028 53.356L36.6426 55.7972L36.1546 56.2866ZM37.0589 55.3838L34.6162 52.9425L35.1056 52.4532L37.5482 54.8958L37.0589 55.3838ZM38.4567 53.9888L37.9701 54.4782L35.5232 52.0383L36.0112 51.5504L38.4567 53.9888Z" fill="#1E293B"/>
</g>
<g filter="url(#filter2_d_467_638)">
<path d="M31.7812 54.6989L35.3011 58.2173L43.6613 49.8586L40.1414 46.3387L31.7812 54.6989ZM35.3011 57.7294L32.272 54.7003L35.9634 51.0089L38.9911 54.038L35.3011 57.7294Z" fill="#1E293B"/>
</g>
</g>
<defs>
<filter id="filter0_d_467_638" x="0.8125" y="0.812256" width="92.375" height="92.3752" filterUnits="userSpaceOnUse" color-interpolation-filters="sRGB">
<feFlood flood-opacity="0" result="BackgroundImageFix"/>
<feColorMatrix in="SourceAlpha" type="matrix" values="0 0 0 0 0 0 0 0 0 0 0 0 0 0 0 0 0 0 127 0" result="hardAlpha"/>
<feOffset dx="2" dy="2"/>
<feGaussianBlur stdDeviation="2"/>
<feComposite in2="hardAlpha" operator="out"/>
<feColorMatrix type="matrix" values="0 0 0 0 0 0 0 0 0 0 0 0 0 0 0 0 0 0 0.25 0"/>
<feBlend mode="normal" in2="BackgroundImageFix" result="effect1_dropShadow_467_638"/>
<feBlend mode="normal" in="SourceGraphic" in2="effect1_dropShadow_467_638" result="shape"/>
</filter>
<filter id="filter1_d_467_638" x="7.06689" y="2.29456" width="47.1025" height="60.899" filterUnits="userSpaceOnUse" color-interpolation-filters="sRGB">
<feFlood flood-opacity="0" result="BackgroundImageFix"/>
<feColorMatrix in="SourceAlpha" type="matrix" values="0 0 0 0 0 0 0 0 0 0 0 0 0 0 0 0 0 0 127 0" result="hardAlpha"/>
<feOffset dx="2" dy="2"/>
<feGaussianBlur stdDeviation="2"/>
<feComposite in2="hardAlpha" operator="out"/>
<feColorMatrix type="matrix" values="0 0 0 0 0 0 0 0 0 0 0 0 0 0 0 0 0 0 0.25 0"/>
<feBlend mode="normal" in2="BackgroundImageFix" result="effect1_dropShadow_467_638"/>
<feBlend mode="normal" in="SourceGraphic" in2="effect1_dropShadow_467_638" result="shape"/>
</filter>
<filter id="filter2_d_467_638" x="29.7812" y="44.3387" width="19.8799" height="19.8785" filterUnits="userSpaceOnUse" color-interpolation-filters="sRGB">
<feFlood flood-opacity="0" result="BackgroundImageFix"/>
<feColorMatrix in="SourceAlpha" type="matrix" values="0 0 0 0 0 0 0 0 0 0 0 0 0 0 0 0 0 0 127 0" result="hardAlpha"/>
<feOffset dx="2" dy="2"/>
<feGaussianBlur stdDeviation="2"/>
<feComposite in2="hardAlpha" operator="out"/>
<feColorMatrix type="matrix" values="0 0 0 0 0 0 0 0 0 0 0 0 0 0 0 0 0 0 0.25 0"/>
<feBlend mode="normal" in2="BackgroundImageFix" result="effect1_dropShadow_467_638"/>
<feBlend mode="normal" in="SourceGraphic" in2="effect1_dropShadow_467_638" result="shape"/>
</filter>
<clipPath id="clip0_467_638">
<rect width="90" height="90" fill="white"/>
</clipPath>
</defs>
</svg>
