<svg width="80" height="80" viewBox="0 0 80 80" fill="none" xmlns="http://www.w3.org/2000/svg">
<g clip-path="url(#clip0_545_855)">
<g filter="url(#filter0_d_545_855)">
<path d="M48.6126 7.45627C55.2188 0.850024 65.9376 0.850024 72.5438 7.45627C79.1501 14.0625 79.1501 24.7813 72.5438 31.3875C65.9376 37.9938 53.0438 40.175 46.4376 33.5625C39.8313 26.95 42.0001 14.0625 48.6126 7.45627Z" fill="#1E293B"/>
</g>
<path d="M74.6441 10.025C74.6316 15.5375 72.5254 21.0438 68.3191 25.2438C61.6566 31.9063 51.7191 33.3 43.6816 29.4313C44.3254 30.9625 45.2316 32.3688 46.4316 33.5688C53.0379 40.175 65.9316 38 72.5379 31.3938C78.3504 25.5813 79.0504 16.6 74.6441 10.025Z" fill="#757575"/>
<g filter="url(#filter1_d_545_855)">
<path d="M52.5123 41.9125C53.7123 40.7125 51.4561 36.5063 47.4748 32.525C43.4935 28.5438 39.2873 26.2875 38.0873 27.4875C37.4498 28.125 3.2623 65.8563 2.91855 66.2C1.71855 67.4 3.18105 70.8125 6.18105 73.8125C9.18105 76.8125 12.5935 78.275 13.7935 77.075C14.1435 76.7375 51.8748 42.55 52.5123 41.9125Z" fill="#1E293B"/>
</g>
<path d="M7.73145 72.2687L46.4377 33.5625L52.0127 40L12.7689 75.4313C9.74395 75.4313 7.73145 72.2687 7.73145 72.2687Z" fill="#424242"/>
<path d="M27.1375 52.0813C25.4188 50.3125 25.675 49.0688 26.4625 48.3L33.6688 41.3125C33.857 41.1296 34.0794 40.9857 34.3234 40.8889C34.5673 40.7921 34.8279 40.7443 35.0904 40.7484C35.3528 40.7525 35.6118 40.8082 35.8526 40.9126C36.0934 41.0169 36.3113 41.1676 36.4938 41.3563L38.125 43.0375C38.3079 43.2257 38.4519 43.4482 38.5487 43.6921C38.6455 43.9361 38.6932 44.1967 38.6891 44.4591C38.6851 44.7215 38.6293 44.9805 38.525 45.2213C38.4207 45.4622 38.2699 45.68 38.0813 45.8625L30.875 52.85C30.0875 53.6125 28.8563 53.85 27.1375 52.0813Z" fill="black"/>
<path d="M35.5629 47.1125C37.3613 47.1125 38.8191 45.6546 38.8191 43.8562C38.8191 42.0578 37.3613 40.6 35.5629 40.6C33.7645 40.6 32.3066 42.0578 32.3066 43.8562C32.3066 45.6546 33.7645 47.1125 35.5629 47.1125Z" fill="#9E9E9E"/>
<path d="M69.7123 32.9938C70.4061 33.45 70.5686 33.525 71.3436 33.2188C72.1123 32.9125 73.3123 31.625 73.4811 31.2125C73.7373 30.5688 73.5811 30.4125 72.9873 30.0563C70.8498 28.7688 66.7811 25.85 60.4686 19.5375C54.1561 13.225 51.2373 9.15627 49.9498 7.01877C49.5936 6.42502 49.2936 6.39377 48.5311 6.93752C48.0623 7.27502 47.4061 7.95627 46.9748 8.71877C46.5686 9.44377 46.5498 9.59377 47.0061 10.2875C48.7311 12.9063 51.8561 16.9063 57.4748 22.525C63.0936 28.15 67.0936 31.2688 69.7123 32.9938Z" fill="#94D1E0"/>
<path d="M58.5247 37.2187C57.5934 36.6875 53.4809 33.3 49.8122 29.625C46.3309 26.1312 43.2747 22.3562 42.7747 21.4687C42.4122 20.8312 41.4934 20.8375 41.1372 21.475L38.7122 25.7875C38.1997 26.7062 38.1559 27.8187 38.6184 28.7625C39.4059 30.3625 40.6747 32.2812 44.1934 35.8C47.7122 39.3187 49.6309 40.5875 51.2309 41.375C52.1747 41.8375 53.2872 41.7937 54.2059 41.2812L58.5184 38.8562C59.1559 38.5 59.1622 37.5812 58.5247 37.2187Z" fill="#82AEC0"/>
<path d="M38.9442 28.2875L41.5505 24.425C41.9192 23.8812 42.7067 23.8437 43.1255 24.35L46.0067 27.85C46.3192 28.2312 46.3005 28.7875 45.963 29.15L42.6567 32.6625C42.2567 33.0875 41.5817 33.075 41.2005 32.6375C40.5692 31.9125 39.638 30.725 38.8817 29.2812C38.713 28.9687 38.7442 28.5812 38.9442 28.2875Z" fill="#94D1E0"/>
</g>
<defs>
<filter id="filter0_d_545_855" x="40.4365" y="0.501587" width="43.0615" height="43.0627" filterUnits="userSpaceOnUse" color-interpolation-filters="sRGB">
<feFlood flood-opacity="0" result="BackgroundImageFix"/>
<feColorMatrix in="SourceAlpha" type="matrix" values="0 0 0 0 0 0 0 0 0 0 0 0 0 0 0 0 0 0 127 0" result="hardAlpha"/>
<feOffset dx="2" dy="2"/>
<feGaussianBlur stdDeviation="2"/>
<feComposite in2="hardAlpha" operator="out"/>
<feColorMatrix type="matrix" values="0 0 0 0 0 0 0 0 0 0 0 0 0 0 0 0 0 0 0.25 0"/>
<feBlend mode="normal" in2="BackgroundImageFix" result="effect1_dropShadow_545_855"/>
<feBlend mode="normal" in="SourceGraphic" in2="effect1_dropShadow_545_855" result="shape"/>
</filter>
<filter id="filter1_d_545_855" x="0.499023" y="25.1653" width="58.3359" height="58.3292" filterUnits="userSpaceOnUse" color-interpolation-filters="sRGB">
<feFlood flood-opacity="0" result="BackgroundImageFix"/>
<feColorMatrix in="SourceAlpha" type="matrix" values="0 0 0 0 0 0 0 0 0 0 0 0 0 0 0 0 0 0 127 0" result="hardAlpha"/>
<feOffset dx="2" dy="2"/>
<feGaussianBlur stdDeviation="2"/>
<feComposite in2="hardAlpha" operator="out"/>
<feColorMatrix type="matrix" values="0 0 0 0 0 0 0 0 0 0 0 0 0 0 0 0 0 0 0.25 0"/>
<feBlend mode="normal" in2="BackgroundImageFix" result="effect1_dropShadow_545_855"/>
<feBlend mode="normal" in="SourceGraphic" in2="effect1_dropShadow_545_855" result="shape"/>
</filter>
<clipPath id="clip0_545_855">
<rect width="80" height="80" fill="white"/>
</clipPath>
</defs>
</svg>
