<svg width="86" height="83" viewBox="0 0 86 83" fill="none" xmlns="http://www.w3.org/2000/svg">
<g filter="url(#filter0_d_559_885)">
<rect x="6.5" y="5" width="73" height="73" rx="36.5" fill="#1E293B"/>
<rect x="8" y="6.5" width="70" height="70" rx="35" stroke="#1E293B" stroke-width="3"/>
</g>
<path d="M55.3125 43.3334H31.6875C30.9525 43.3334 30.375 42.7467 30.375 42C30.375 41.2534 30.9525 40.6667 31.6875 40.6667H55.3125C56.0475 40.6667 56.625 41.2534 56.625 42C56.625 42.7467 56.0475 43.3334 55.3125 43.3334Z" fill="#E6502C"/>
<path d="M48.75 52.6667C48.5779 52.6688 48.4072 52.6343 48.249 52.5655C48.0907 52.4966 47.9484 52.3948 47.8313 52.2667C47.3063 51.7334 47.3063 50.9067 47.8313 50.3734L56.1 41.9734L47.8313 33.5734C47.3063 33.04 47.3063 32.2134 47.8313 31.68C48.3563 31.1467 49.17 31.1467 49.695 31.68L58.8825 41.0134C59.4075 41.5467 59.4075 42.3734 58.8825 42.9067L49.695 52.24C49.4325 52.5067 49.0913 52.64 48.7763 52.64L48.75 52.6667Z" fill="#E6502C"/>
<defs>
<filter id="filter0_d_559_885" x="-0.5" y="-2" width="91" height="91" filterUnits="userSpaceOnUse" color-interpolation-filters="sRGB">
<feFlood flood-opacity="0" result="BackgroundImageFix"/>
<feColorMatrix in="SourceAlpha" type="matrix" values="0 0 0 0 0 0 0 0 0 0 0 0 0 0 0 0 0 0 127 0" result="hardAlpha"/>
<feOffset dx="2" dy="2"/>
<feGaussianBlur stdDeviation="4.5"/>
<feComposite in2="hardAlpha" operator="out"/>
<feColorMatrix type="matrix" values="0 0 0 0 0.117647 0 0 0 0 0.160784 0 0 0 0 0.231373 0 0 0 0.4 0"/>
<feBlend mode="normal" in2="BackgroundImageFix" result="effect1_dropShadow_559_885"/>
<feBlend mode="normal" in="SourceGraphic" in2="effect1_dropShadow_559_885" result="shape"/>
</filter>
</defs>
</svg>
