<svg width="70" height="70" viewBox="0 0 70 70" fill="none" xmlns="http://www.w3.org/2000/svg">
<g clip-path="url(#clip0_553_943)">
<g filter="url(#filter0_d_553_943)">
<path d="M4.23828 44.2291C4.23828 45.3622 5.15703 46.2798 6.28906 46.2798C6.81297 46.2798 7.28438 46.0775 7.64641 45.7559C8.1375 46.0873 8.72922 46.2798 9.36469 46.2798C10.0002 46.2798 10.5919 46.0863 11.083 45.7559C11.445 46.0786 11.9175 46.2798 12.4403 46.2798C12.9842 46.2798 13.5058 46.0638 13.8904 45.6792C14.275 45.2946 14.4911 44.773 14.4911 44.2291C14.4911 43.6852 14.275 43.1635 13.8904 42.7789C13.5058 42.3943 12.9842 42.1783 12.4403 42.1783C12.378 42.1783 12.3189 42.1914 12.2577 42.1969C12.0494 41.5944 11.659 41.0716 11.1405 40.7009C10.622 40.3301 10.001 40.1297 9.36359 40.1275C8.88371 40.1285 8.41077 40.2423 7.98292 40.4596C7.55507 40.6769 7.18429 40.9918 6.90047 41.3787C6.72757 41.236 6.5111 41.1565 6.28688 41.1534C6.15211 41.1533 6.01863 41.1797 5.8941 41.2312C5.76956 41.2827 5.6564 41.3583 5.56111 41.4536C5.46581 41.5489 5.39025 41.6621 5.33874 41.7866C5.28723 41.9111 5.26079 42.0446 5.26094 42.1794C5.26094 42.2702 5.29047 42.3511 5.31344 42.4353C4.98941 42.6099 4.7185 42.8687 4.52927 43.1844C4.34004 43.5001 4.23951 43.861 4.23828 44.2291ZM55.5078 20.918C60.6725 20.918 64.8736 16.7169 64.8736 11.5522C64.8736 6.38859 60.6725 2.1875 55.5078 2.1875C50.3431 2.1875 46.142 6.38859 46.142 11.5533C46.1431 16.7169 50.3431 20.918 55.5078 20.918ZM55.5078 4.375C56.4505 4.375 57.3839 4.56067 58.2548 4.92141C59.1257 5.28216 59.9171 5.8109 60.5836 6.47747C61.2502 7.14404 61.7789 7.93536 62.1397 8.80627C62.5004 9.67718 62.6861 10.6106 62.6861 11.5533C62.6861 12.4959 62.5004 13.4294 62.1397 14.3003C61.7789 15.1712 61.2502 15.9625 60.5836 16.6291C59.9171 17.2957 59.1257 17.8244 58.2548 18.1851C57.3839 18.5459 56.4505 18.7316 55.5078 18.7316C53.604 18.7316 51.7782 17.9753 50.432 16.6291C49.0858 15.2829 48.3295 13.4571 48.3295 11.5533C48.3295 9.64948 49.0858 7.82366 50.432 6.47747C51.7782 5.13128 53.604 4.375 55.5078 4.375ZM12.4414 10.6641H19.0662C19.4436 11.2892 19.9759 11.8065 20.6116 12.1657C21.2474 12.525 21.9651 12.7141 22.6953 12.7148H26.7969C29.1342 12.7148 31.0352 10.8139 31.0352 8.47656C31.0352 6.13922 29.1342 4.23828 26.7969 4.23828H26.3244C25.947 3.6131 25.4147 3.09587 24.779 2.73661C24.1432 2.37735 23.4255 2.18822 22.6953 2.1875H12.4414C10.1041 2.1875 8.20312 4.08844 8.20312 6.42578C8.20312 8.76312 10.1041 10.6641 12.4414 10.6641ZM12.4414 4.375H22.6953C23.8273 4.375 24.7461 5.29375 24.7461 6.42578H26.7969C27.3292 6.44317 27.8339 6.66685 28.2043 7.04955C28.5747 7.43225 28.7818 7.94397 28.7818 8.47656C28.7818 9.00915 28.5747 9.52088 28.2043 9.90358C27.8339 10.2863 27.3292 10.51 26.7969 10.5273H22.6953C22.1514 10.5273 21.6298 10.3113 21.2452 9.92668C20.8606 9.54209 20.6445 9.02046 20.6445 8.47656H12.4414C11.8975 8.47656 11.3759 8.2605 10.9913 7.8759C10.6067 7.49131 10.3906 6.96968 10.3906 6.42578C10.3906 5.88188 10.6067 5.36026 10.9913 4.97566C11.3759 4.59106 11.8975 4.375 12.4414 4.375ZM37.0508 15.7916H41.1523C43.4897 15.7916 45.3906 13.8906 45.3906 11.5533C45.3906 9.21594 43.4897 7.315 41.1523 7.315H37.0508C34.7134 7.315 32.8125 9.21594 32.8125 11.5533C32.8125 13.8906 34.7134 15.7916 37.0508 15.7916ZM37.0508 9.5025H41.1523C41.6847 9.51989 42.1893 9.74357 42.5597 10.1263C42.9301 10.509 43.1372 11.0207 43.1372 11.5533C43.1372 12.0859 42.9301 12.5976 42.5597 12.9803C42.1893 13.363 41.6847 13.5867 41.1523 13.6041H37.0508C36.5069 13.6041 35.9853 13.388 35.6007 13.0034C35.2161 12.6188 35 12.0972 35 11.5533C35 11.0094 35.2161 10.4878 35.6007 10.1032C35.9853 9.71856 36.5069 9.5025 37.0508 9.5025Z" fill="#1E293B"/>
</g>
<g filter="url(#filter1_d_553_943)">
<path d="M61.6602 47.3047V41.9125C63.4145 42.0416 65.4336 42.0263 67.8125 41.7999V39.3619C67.1278 39.4494 66.4329 39.5132 65.7278 39.5533C65.7869 39.1114 65.7016 38.6105 65.4139 38.0713L64.1364 35.6705C64.7675 35.2384 64.9359 34.4597 64.458 33.5606L62.9781 30.7781C63.6781 30.5167 63.9242 29.8419 63.502 29.05L61.6175 25.5106C61.0772 24.4924 60.1934 24.4924 59.652 25.5106L57.7675 29.05C57.3442 29.843 57.5914 30.5167 58.2914 30.7781L56.8116 33.5606C56.3325 34.4586 56.5031 35.2395 57.1331 35.6705L55.8556 38.0713C55.802 38.1697 55.7769 38.2649 55.7364 38.3622C55.0333 38.1375 54.341 37.8805 53.6616 37.5922L53.457 37.5102V32.8049C54.336 32.58 55.1152 32.0693 55.6722 31.3531C56.2291 30.637 56.5322 29.756 56.5337 28.8488C56.5337 27.761 56.1016 26.7177 55.3324 25.9485C54.5632 25.1793 53.52 24.7472 52.4322 24.7472H17.5689C16.7727 24.7472 16.0366 24.9834 15.4066 25.3761L9.37891 19.7444C8.55969 18.9788 7.48016 18.5959 6.39953 18.5959C4.06109 18.5949 2.1875 20.895 2.1875 20.895V23.8667C3.77016 22.1747 5.22266 20.7824 6.40063 20.7824C6.97266 20.7824 7.49984 20.9814 7.88594 21.3424L13.9311 26.9905C13.6298 27.5635 13.4704 28.2003 13.4663 28.8477C13.4678 29.7549 13.7709 30.6359 14.3278 31.3521C14.8848 32.0682 15.664 32.5789 16.543 32.8038V38.3567C15.2305 38.103 14.0361 37.7617 13.0561 37.3209C10.4016 36.1266 6.76156 34.9759 2.1875 35.0099V37.3002C5.41078 37.112 9.79562 38.2528 12.1592 39.317C13.4859 39.9142 15.015 40.3145 16.543 40.5858V51.4063H2.1875V67.8125H18.5938V55.5078H20.6445V51.4063H18.5938V40.8702C19.3473 40.9522 20.0856 41.0167 20.7638 41.0528C19.39 43.1167 19.2533 46.4636 27.1141 51.1952C39.1891 58.4653 27.5002 67.8125 27.5002 67.8125H44.9378C44.9378 67.8125 49.8564 55.0889 32.6287 49.1192C25.1792 46.538 24.0012 43.2305 24.1763 41.0955C28.0864 41.0025 31.7548 40.4206 34.1447 39.4888C36.8977 38.4169 39.6342 37.4555 42.8553 37.4555H42.968C45.7264 37.4741 48.6161 38.0253 51.4062 39.0502V51.4063H49.3555V55.5078H51.4062V67.8125H67.8125V51.4063H53.457V39.8814C55.1884 40.6055 57.1069 41.2978 59.6094 41.6828V47.3047H61.6602ZM8.33984 60.6353H4.23828V58.5845H8.33984V60.6353ZM16.543 62.6861H12.4414V60.6353H16.543V62.6861ZM61.6602 57.5586H65.7617V59.6094H61.6602V57.5586ZM57.5586 63.7109H61.6602V65.7617H57.5586V63.7109ZM17.5689 29.8736C17.2968 29.8736 17.0359 29.7655 16.8435 29.5731C16.6511 29.3807 16.543 29.1198 16.543 28.8477C16.543 28.5756 16.6511 28.3146 16.8435 28.1222C17.0359 27.9298 17.2968 27.8217 17.5689 27.8217C18.1366 27.8217 18.5938 28.28 18.5938 28.8477C18.5938 29.4153 18.1355 29.8736 17.5689 29.8736ZM23.0902 38.9277C21.5876 38.9307 20.0862 38.8452 18.5938 38.6717V32.9503H20.3088L26.553 38.7833C25.4011 38.8771 24.2459 38.9253 23.0902 38.9277ZM51.4062 36.7314C48.7156 35.8214 45.8675 35.2877 42.9833 35.268H42.8564C39.2109 35.268 36.1747 36.3508 33.3528 37.4511C32.2667 37.8744 30.8656 38.2102 29.3048 38.4574C29.1193 38.2233 28.9179 38.0022 28.7022 37.7956L23.5145 32.9492H51.4062V36.7314ZM52.4322 29.8736C52.1601 29.8736 51.8991 29.7655 51.7067 29.5731C51.5143 29.3807 51.4062 29.1198 51.4062 28.8477C51.4062 28.5756 51.5143 28.3146 51.7067 28.1222C51.8991 27.9298 52.1601 27.8217 52.4322 27.8217C52.7043 27.8217 52.9652 27.9298 53.1576 28.1222C53.35 28.3146 53.4581 28.5756 53.4581 28.8477C53.4581 29.1198 53.35 29.3807 53.1576 29.5731C52.9652 29.7655 52.7043 29.8736 52.4322 29.8736Z" fill="#1E293B"/>
</g>
</g>
<defs>
<filter id="filter0_d_553_943" x="2.23828" y="0.1875" width="68.6357" height="52.0923" filterUnits="userSpaceOnUse" color-interpolation-filters="sRGB">
<feFlood flood-opacity="0" result="BackgroundImageFix"/>
<feColorMatrix in="SourceAlpha" type="matrix" values="0 0 0 0 0 0 0 0 0 0 0 0 0 0 0 0 0 0 127 0" result="hardAlpha"/>
<feOffset dx="2" dy="2"/>
<feGaussianBlur stdDeviation="2"/>
<feComposite in2="hardAlpha" operator="out"/>
<feColorMatrix type="matrix" values="0 0 0 0 0 0 0 0 0 0 0 0 0 0 0 0 0 0 0.25 0"/>
<feBlend mode="normal" in2="BackgroundImageFix" result="effect1_dropShadow_553_943"/>
<feBlend mode="normal" in="SourceGraphic" in2="effect1_dropShadow_553_943" result="shape"/>
</filter>
<filter id="filter1_d_553_943" x="0.1875" y="16.5959" width="73.625" height="57.2166" filterUnits="userSpaceOnUse" color-interpolation-filters="sRGB">
<feFlood flood-opacity="0" result="BackgroundImageFix"/>
<feColorMatrix in="SourceAlpha" type="matrix" values="0 0 0 0 0 0 0 0 0 0 0 0 0 0 0 0 0 0 127 0" result="hardAlpha"/>
<feOffset dx="2" dy="2"/>
<feGaussianBlur stdDeviation="2"/>
<feComposite in2="hardAlpha" operator="out"/>
<feColorMatrix type="matrix" values="0 0 0 0 0 0 0 0 0 0 0 0 0 0 0 0 0 0 0.25 0"/>
<feBlend mode="normal" in2="BackgroundImageFix" result="effect1_dropShadow_553_943"/>
<feBlend mode="normal" in="SourceGraphic" in2="effect1_dropShadow_553_943" result="shape"/>
</filter>
<clipPath id="clip0_553_943">
<rect width="70" height="70" fill="white"/>
</clipPath>
</defs>
</svg>
