<svg width="70" height="70" viewBox="0 0 70 70" fill="none" xmlns="http://www.w3.org/2000/svg">
<g clip-path="url(#clip0_498_735)">
<g filter="url(#filter0_d_498_735)">
<path fill-rule="evenodd" clip-rule="evenodd" d="M43.7502 8.75C43.7502 11.0706 42.8284 13.2962 41.1874 14.9372C39.5465 16.5781 37.3209 17.5 35.0002 17.5C32.6796 17.5 30.454 16.5781 28.813 14.9372C27.1721 13.2962 26.2502 11.0706 26.2502 8.75C26.2502 6.42936 27.1721 4.20376 28.813 2.56282C30.454 0.921872 32.6796 0 35.0002 0C37.3209 0 39.5465 0.921872 41.1874 2.56282C42.8284 4.20376 43.7502 6.42936 43.7502 8.75ZM3.82106 24.7917C3.37231 24.7911 2.9295 24.8941 2.52707 25.0927C2.12464 25.2912 1.77345 25.58 1.50082 25.9364C1.2282 26.2928 1.0415 26.7074 0.955257 27.1478C0.869009 27.5881 0.885538 28.0425 1.00356 28.4754L4.37523 40.8333C4.37523 41.6069 4.68252 42.3487 5.2295 42.8957C5.77648 43.4427 6.51834 43.75 7.29189 43.75H30.6252C31.3988 43.75 32.1406 43.4427 32.6876 42.8957C33.2346 42.3487 33.5419 41.6069 33.5419 40.8333C33.5419 40.0598 33.2346 39.3179 32.6876 38.7709C32.1406 38.224 31.3988 37.9167 30.6252 37.9167H23.9956L21.0031 26.9413C20.8348 26.3238 20.4681 25.7788 19.9595 25.3904C19.4508 25.0019 18.8286 24.7915 18.1886 24.7917H3.82106ZM11.3869 48.125H30.6252C32.5591 48.125 34.4138 47.3568 35.7812 45.9893C37.1487 44.6219 37.9169 42.7672 37.9169 40.8333C37.9169 38.8995 37.1487 37.0448 35.7812 35.6773C34.4138 34.3099 32.5591 33.5417 30.6252 33.5417H27.3381L25.2236 25.7892L25.209 25.7367C26.4296 23.8558 28.1662 22.3663 30.211 21.4462C32.2558 20.5262 34.5224 20.2146 36.7396 20.5487C38.9568 20.8828 41.0309 21.8485 42.7138 23.3302C44.3967 24.812 45.6172 26.7471 46.2294 28.9042C45.0776 29.2954 44.0778 30.0386 43.3713 31.0287C42.6647 32.0189 42.2872 33.2061 42.2919 34.4225V42.3325C42.2919 45.1704 43.2486 47.9325 44.8819 50.1929C44.131 50.7444 43.2236 51.0417 42.2919 51.0417H30.109L21.1898 65.0563C20.8897 65.5582 20.4921 65.9949 20.0203 66.3405C19.5486 66.6861 19.0123 66.9336 18.4433 67.0684C17.8742 67.2033 17.2839 67.2226 16.7072 67.1254C16.1306 67.0281 15.5793 66.8163 15.0859 66.5023C14.5925 66.1883 14.1671 65.7786 13.8348 65.2974C13.5024 64.8162 13.27 64.2733 13.1511 63.7007C13.0322 63.1281 13.0293 62.5375 13.1426 61.9638C13.2559 61.39 13.483 60.8448 13.8106 60.3604L17.9406 54.0983C18.2067 53.6953 18.3018 53.2031 18.205 52.73C18.1082 52.2568 17.8274 51.8415 17.4244 51.5754C17.0214 51.3093 16.5292 51.2142 16.056 51.311C15.5829 51.4078 15.1676 51.6887 14.9015 52.0917L10.7336 58.4033C10.0205 59.5238 9.59692 60.8038 9.50071 62.1284C9.40449 63.453 9.6387 64.7808 10.1823 65.9925C9.39153 66.6893 8.37579 67.0772 7.32185 67.0849C6.2679 67.0926 5.24661 66.7195 4.44575 66.0344C3.64489 65.3492 3.1183 64.3979 2.9628 63.3555C2.8073 62.313 3.03336 61.2495 3.59939 60.3604L11.3869 48.125ZM64.0794 42.3325C64.0794 44.7242 63.3823 46.7717 61.9911 48.1367L68.259 57.0179C69.3031 58.7271 70.0002 60.7775 70.0002 62.8279V63.1692C70.0002 66.9258 66.8648 70 63.0352 70H43.7502C42.9767 70 42.2348 69.6927 41.6878 69.1457C41.1408 68.5988 40.8336 67.8569 40.8336 67.0833C40.8336 66.3098 41.1408 65.5679 41.6878 65.0209C42.2348 64.474 42.9767 64.1667 43.7502 64.1667H49.4523V48.8221C47.7111 47.1129 46.6669 44.7212 46.6669 42.3296V34.4254C46.6664 34.1776 46.7291 33.9337 46.849 33.7168C46.9689 33.4999 47.1421 33.3172 47.3523 33.1858C47.5625 33.0545 47.8026 32.9789 48.0501 32.9661C48.2977 32.9533 48.5443 33.0039 48.7669 33.1129L53.6319 35.4987H57.1144L61.9794 33.1129C62.2019 33.0039 62.4486 32.9533 62.6961 32.9661C62.9436 32.9789 63.1838 33.0545 63.394 33.1858C63.6041 33.3172 63.7774 33.4999 63.8973 33.7168C64.0172 33.9337 64.0799 34.1776 64.0794 34.4254V42.3325Z" fill="#1E293B"/>
</g>
</g>
<defs>
<filter id="filter0_d_498_735" x="-1.09912" y="-2" width="77.0991" height="78" filterUnits="userSpaceOnUse" color-interpolation-filters="sRGB">
<feFlood flood-opacity="0" result="BackgroundImageFix"/>
<feColorMatrix in="SourceAlpha" type="matrix" values="0 0 0 0 0 0 0 0 0 0 0 0 0 0 0 0 0 0 127 0" result="hardAlpha"/>
<feOffset dx="2" dy="2"/>
<feGaussianBlur stdDeviation="2"/>
<feComposite in2="hardAlpha" operator="out"/>
<feColorMatrix type="matrix" values="0 0 0 0 0 0 0 0 0 0 0 0 0 0 0 0 0 0 0.25 0"/>
<feBlend mode="normal" in2="BackgroundImageFix" result="effect1_dropShadow_498_735"/>
<feBlend mode="normal" in="SourceGraphic" in2="effect1_dropShadow_498_735" result="shape"/>
</filter>
<clipPath id="clip0_498_735">
<rect width="70" height="70" fill="white"/>
</clipPath>
</defs>
</svg>
