<svg width="70" height="70" viewBox="0 0 70 70" fill="none" xmlns="http://www.w3.org/2000/svg">
<path d="M24.4911 32.7687C25.06 32.655 25.5605 32.3199 25.8824 31.8372C26.2043 31.3545 26.3212 30.7637 26.2075 30.1947C26.0938 29.6258 25.7587 29.1253 25.276 28.8034C24.7933 28.4815 24.2025 28.3646 23.6336 28.4783C20.9998 29.0033 19.0106 30.8466 17.9519 33.317C16.9019 35.7612 16.7473 38.8179 17.5669 42.0904C17.6309 42.3748 17.7511 42.6435 17.9205 42.8808C18.0898 43.1181 18.3049 43.3192 18.553 43.4722C18.8012 43.6252 19.0774 43.727 19.3655 43.7717C19.6536 43.8164 19.9477 43.8031 20.2305 43.7326C20.5134 43.662 20.7793 43.5356 21.0126 43.3608C21.2459 43.186 21.442 42.9663 21.5892 42.7147C21.7364 42.4631 21.8318 42.1846 21.8698 41.8955C21.9079 41.6065 21.8877 41.3128 21.8106 41.0316C21.169 38.4708 21.379 36.4233 21.9711 35.0408C22.5544 33.6816 23.4819 32.9729 24.4911 32.7687ZM15.9569 9.97202C15.8323 12.0428 16.1354 14.117 16.8475 16.0655C17.5595 18.014 18.6652 19.795 20.0956 21.2974C17.3171 22.0941 14.8295 23.68 12.9346 25.8627C11.0397 28.0455 9.81904 30.7312 9.42064 33.5941C8.46062 40.4635 9.87002 47.4549 13.4165 53.4158L14.4373 55.1366L14.5627 55.3204L18.6927 60.8795C19.5675 62.0577 20.6885 63.0311 21.9778 63.7319C23.2671 64.4328 24.6937 64.8441 26.1582 64.9374C27.6227 65.0307 29.0899 64.8036 30.4577 64.2721C31.8255 63.7405 33.061 62.9172 34.0781 61.8595C34.1971 61.7358 34.3398 61.6374 34.4976 61.5702C34.6555 61.503 34.8253 61.4684 34.9969 61.4684C35.1685 61.4684 35.3383 61.503 35.4962 61.5702C35.654 61.6374 35.7967 61.7358 35.9156 61.8595C36.9328 62.9172 38.1683 63.7405 39.5361 64.2721C40.9039 64.8036 42.3711 65.0307 43.8356 64.9374C45.3001 64.8441 46.7267 64.4328 48.0159 63.7319C49.3052 63.0311 50.4263 62.0577 51.3011 60.8795L55.4311 55.3174L55.5536 55.1337L56.5773 53.4129C60.1261 47.4539 61.5386 40.4635 60.5819 33.5941C60.2995 31.57 59.6047 29.6254 58.5403 27.8806C57.476 26.1359 56.0649 24.6282 54.3943 23.4509C52.7238 22.2736 50.8294 21.4517 48.8283 21.0361C46.8273 20.6206 44.7623 20.6202 42.7611 21.0349L37.2165 22.1841H37.2077C37.2952 19.9091 37.6511 17.4591 38.3481 15.3649C39.194 12.8333 40.3665 11.3108 41.6731 10.7683C42.2088 10.5447 42.6338 10.1175 42.8545 9.58066C43.0752 9.0438 43.0736 8.44125 42.85 7.90557C42.6265 7.36988 42.1993 6.94495 41.6624 6.72424C41.1255 6.50353 40.523 6.50513 39.9873 6.72869C36.919 8.00911 35.1748 11.0454 34.1977 13.9795L34.0636 14.3937C33.3461 13.0053 32.4183 11.7362 31.3131 10.6312C29.8006 9.11668 27.9835 7.94085 25.9823 7.18158C23.981 6.42231 21.8413 6.09694 19.7048 6.22702C18.7298 6.28314 17.8093 6.69517 17.1179 7.38493C16.4265 8.0747 16.0124 8.99423 15.954 9.96911M20.3086 10.5729C21.7722 10.5306 23.2289 10.7883 24.5893 11.33C25.9496 11.8717 27.1847 12.686 28.2186 13.7229C29.2554 14.7567 30.0697 15.9918 30.6114 17.3522C31.1531 18.7125 31.4108 20.1693 31.3686 21.6329C30.8396 21.6445 30.3105 21.6201 29.7848 21.5599L27.9852 21.1866C26.276 20.6735 24.7207 19.7445 23.4586 18.4829C22.4217 17.449 21.6074 16.2139 21.0657 14.8536C20.524 13.4932 20.2663 12.0365 20.3086 10.5729ZM26.3461 25.3166L26.9352 25.4391C27.6352 25.6374 28.345 25.7852 29.0644 25.8824L31.8936 26.4658C33.9426 26.8903 36.057 26.8903 38.1061 26.4658L43.6536 25.3166C45.0686 25.0233 46.5288 25.0237 47.9437 25.3176C49.3586 25.6115 50.6981 26.1927 51.8792 27.0253C53.0604 27.8578 54.0581 28.924 54.8105 30.1577C55.5629 31.3915 56.0541 32.7666 56.2536 34.1979C57.0726 40.0829 55.8617 46.0713 52.8206 51.1758L51.8552 52.8004L47.7923 58.272C47.2965 58.9399 46.661 59.4917 45.9301 59.8889C45.1993 60.2861 44.3906 60.5192 43.5604 60.572C42.7303 60.6247 41.8986 60.4959 41.1233 60.1944C40.3481 59.8929 39.6479 59.426 39.0715 58.8262C38.5446 58.2778 37.9123 57.8415 37.2126 57.5435C36.513 57.2455 35.7603 57.0919 34.9998 57.0919C34.2393 57.0919 33.4867 57.2455 32.787 57.5435C32.0873 57.8415 31.4551 58.2778 30.9281 58.8262C30.3518 59.426 29.6515 59.8929 28.8763 60.1944C28.101 60.4959 27.2693 60.6247 26.4392 60.572C25.609 60.5192 24.8004 60.2861 24.0695 59.8889C23.3386 59.4917 22.7031 58.9399 22.2073 58.272L18.1444 52.8004L17.179 51.1758C14.1389 46.0709 12.9291 40.0825 13.749 34.1979C13.9485 32.7669 14.4396 31.3921 15.1918 30.1586C15.944 28.925 16.9415 27.859 18.1223 27.0265C19.3031 26.194 20.6423 25.6127 22.0568 25.3186C23.4714 25.0244 24.9312 25.0238 26.3461 25.3166Z" fill="#1E293B"/>
</svg>
