<svg width="167" height="181" viewBox="0 0 167 181" fill="none" xmlns="http://www.w3.org/2000/svg">
<path d="M76.8353 83.1029C82.3606 83.1029 87.6597 80.908 91.5667 77.0009C95.4737 73.0939 97.6686 67.7949 97.6686 62.2696C97.6686 56.7442 95.4737 51.4452 91.5667 47.5382C87.6597 43.6312 82.3606 41.4362 76.8353 41.4362C71.3099 41.4362 66.0109 43.6312 62.1039 47.5382C58.1969 51.4452 56.002 56.7442 56.002 62.2696C56.002 67.7949 58.1969 73.0939 62.1039 77.0009C66.0109 80.908 71.3099 83.1029 76.8353 83.1029Z" fill="white" stroke="white" stroke-width="2" stroke-miterlimit="2"/>
<path d="M72.6686 112.27L64.3353 141.436M72.6686 112.27L6.00195 87.2696M72.6686 112.27L122.669 103.936L147.835 83.2279M64.3353 141.436L26.8353 133.103L6.00195 174.77M64.3353 141.436L72.6686 174.77H118.502M26.8353 8.10288C85.1686 -0.23045 126.835 16.4362 160.169 53.9362" stroke="white" stroke-width="12" stroke-miterlimit="2" stroke-linecap="round" stroke-linejoin="round"/>
</svg>
