<svg width="90" height="90" viewBox="0 0 90 90" fill="none" xmlns="http://www.w3.org/2000/svg">
<g clip-path="url(#clip0_467_630)">
<g filter="url(#filter0_d_467_630)">
<path d="M21.5625 52.5C21.5625 50 21.675 47.5 21.9 45C21.9112 44.8723 21.8971 44.7436 21.8585 44.6213C21.8199 44.4991 21.7575 44.3856 21.675 44.2875C21.4865 44.0972 21.2303 43.9893 20.9625 43.9875H9.375C9.16891 43.9958 8.97075 44.0692 8.80903 44.1973C8.64732 44.3253 8.53036 44.5013 8.475 44.7C7.83682 47.2512 7.50944 49.8702 7.5 52.5C7.49722 55.1182 7.82481 57.7263 8.475 60.2625C8.51861 60.4675 8.63237 60.6508 8.79667 60.7809C8.96096 60.9109 9.1655 60.9796 9.375 60.975H20.9625C21.2303 60.9732 21.4865 60.8653 21.675 60.675C21.8324 60.4864 21.9127 60.2453 21.9 60C21.675 57.5 21.5625 55 21.5625 52.5ZM51.1875 45C51.1525 44.7745 51.0395 44.5685 50.8682 44.4177C50.6969 44.267 50.4781 44.1811 50.25 44.175H28.5C28.2719 44.1811 28.0531 44.267 27.8818 44.4177C27.7105 44.5685 27.5975 44.7745 27.5625 45C27.3375 47.4 27.1875 49.95 27.1875 52.5C27.1875 55.05 27.1875 57.7125 27.5625 60C27.5975 60.2255 27.7105 60.4315 27.8818 60.5823C28.0531 60.733 28.2719 60.8189 28.5 60.825H50.25C50.4781 60.8189 50.6969 60.733 50.8682 60.5823C51.0395 60.4315 51.1525 60.2255 51.1875 60C51.4125 57.6 51.5625 55.05 51.5625 52.5C51.5625 49.95 51.4125 47.2875 51.1875 45ZM69.3375 60.9375C69.5501 60.9372 69.7567 60.8674 69.926 60.7388C70.0952 60.6101 70.2178 60.4297 70.275 60.225C70.9037 57.6975 71.231 55.1045 71.25 52.5C71.2438 49.9094 70.9291 47.3287 70.3125 44.8125C70.2571 44.6138 70.1402 44.4378 69.9785 44.3098C69.8167 44.1817 69.6186 44.1083 69.4125 44.1H57.7875C57.6598 44.0969 57.533 44.1222 57.4163 44.1741C57.2995 44.226 57.1958 44.3031 57.1125 44.4C57.0173 44.4909 56.9441 44.6023 56.8986 44.7258C56.8531 44.8493 56.8365 44.9816 56.85 45.1125C57.075 47.6125 57.1875 50.1125 57.1875 52.6125C57.1875 55.1125 57.075 57.6125 56.85 60.1125C56.8365 60.2434 56.8531 60.3757 56.8986 60.4992C56.9441 60.6227 57.0173 60.7341 57.1125 60.825C57.1958 60.9219 57.2995 60.999 57.4163 61.0509C57.533 61.1028 57.6598 61.1281 57.7875 61.125L69.3375 60.9375ZM29.625 66.5625C29.5011 66.566 29.3794 66.5961 29.2682 66.6509C29.157 66.7057 29.0589 66.7838 28.9807 66.8798C28.9024 66.9759 28.8457 67.0878 28.8145 67.2077C28.7833 67.3277 28.7784 67.453 28.8 67.575C31.0875 77.3625 35.4 83.4375 39.375 83.4375C43.35 83.4375 47.625 77.4 49.9125 67.725C49.9516 67.5887 49.9548 67.4446 49.922 67.3067C49.8891 67.1687 49.8213 67.0416 49.725 66.9375C49.6398 66.8279 49.5321 66.7377 49.4093 66.673C49.2864 66.6083 49.1511 66.5707 49.0125 66.5625H29.625ZM56.7 66.5625C56.4825 66.565 56.272 66.6402 56.1021 66.7761C55.9322 66.912 55.8127 67.1008 55.7625 67.3125C54.9298 71.8051 53.4121 76.1432 51.2625 80.175C51.1669 80.3468 51.1277 80.5444 51.1506 80.7397C51.1734 80.9351 51.2571 81.1183 51.3898 81.2634C51.5225 81.4085 51.6975 81.5083 51.89 81.5485C52.0825 81.5887 52.2828 81.5674 52.4625 81.4875C58.6949 78.6651 63.8597 73.9209 67.2 67.95C67.2823 67.8075 67.3256 67.6458 67.3256 67.4813C67.3256 67.3167 67.2823 67.155 67.2 67.0125C67.1203 66.8745 67.0054 66.7601 66.8671 66.681C66.7287 66.602 66.5718 66.5611 66.4125 66.5625H56.7ZM22.9875 67.5C22.9373 67.2883 22.8178 67.0995 22.6479 66.9636C22.478 66.8277 22.2675 66.7525 22.05 66.75H12.375C12.2156 66.7486 12.0588 66.7895 11.9204 66.8685C11.7821 66.9476 11.6672 67.062 11.5875 67.2C11.5052 67.3425 11.4619 67.5042 11.4619 67.6687C11.4619 67.8333 11.5052 67.995 11.5875 68.1375C14.9395 74.0267 20.0732 78.7008 26.25 81.4875C26.4297 81.5674 26.63 81.5887 26.8225 81.5485C27.015 81.5083 27.19 81.4085 27.3227 81.2634C27.4554 81.1183 27.5391 80.9351 27.5619 80.7397C27.5848 80.5444 27.5456 80.3468 27.45 80.175C25.3313 76.1995 23.8267 71.926 22.9875 67.5ZM22.05 38.4375C22.2675 38.435 22.478 38.3598 22.6479 38.2239C22.8178 38.088 22.9373 37.8992 22.9875 37.6875C23.8246 33.167 25.3551 28.803 27.525 24.75C27.6436 24.5935 27.7078 24.4026 27.7078 24.2062C27.7078 24.0099 27.6436 23.819 27.525 23.6625C27.4574 23.5623 27.3704 23.4768 27.2691 23.411C27.1678 23.3452 27.0542 23.3004 26.9352 23.2794C26.8163 23.2584 26.6943 23.2616 26.5765 23.2888C26.4588 23.3159 26.3478 23.3665 26.25 23.4375C20.0049 26.2772 14.8381 31.0495 11.5125 37.05C11.4302 37.1925 11.3869 37.3542 11.3869 37.5187C11.3869 37.6833 11.4302 37.845 11.5125 37.9875C11.5922 38.1255 11.7071 38.2399 11.8454 38.319C11.9838 38.398 12.1406 38.4389 12.3 38.4375H22.05ZM55.7625 37.6875C55.8127 37.8992 55.9322 38.088 56.1021 38.2239C56.272 38.3598 56.4825 38.435 56.7 38.4375H66.4125C66.5718 38.4389 66.7287 38.398 66.8671 38.319C67.0054 38.2399 67.1203 38.1255 67.2 37.9875C67.2823 37.845 67.3256 37.6833 67.3256 37.5187C67.3256 37.3542 67.2823 37.1925 67.2 37.05C63.8841 31.0555 58.7312 26.2838 52.5 23.4375C52.3184 23.3542 52.115 23.3312 51.9193 23.3716C51.7237 23.4121 51.5461 23.514 51.4125 23.6625C51.2995 23.8213 51.2387 24.0113 51.2387 24.2062C51.2387 24.4012 51.2995 24.5912 51.4125 24.75C53.5173 28.8139 54.9845 33.1775 55.7625 37.6875ZM43.425 23.5125C43.3329 23.4333 43.2586 23.3356 43.2069 23.2258C43.1552 23.1159 43.1273 22.9964 43.125 22.875V3.75C43.125 2.75544 42.7299 1.80161 42.0266 1.09835C41.3234 0.395088 40.3696 0 39.375 0C38.3804 0 37.4266 0.395088 36.7234 1.09835C36.0201 1.80161 35.625 2.75544 35.625 3.75V22.875C35.6227 22.9964 35.5948 23.1159 35.5431 23.2258C35.4914 23.3356 35.4171 23.4333 35.325 23.5125C32.0013 27.457 29.765 32.2009 28.8375 37.275C28.7746 37.4034 28.7419 37.5445 28.7419 37.6875C28.7419 37.8305 28.7746 37.9716 28.8375 38.1C29.0359 38.3031 29.3039 38.4237 29.5875 38.4375H48.825C48.9664 38.436 49.1056 38.4025 49.2323 38.3395C49.3589 38.2766 49.4696 38.1858 49.5562 38.074C49.6428 37.9621 49.7029 37.8322 49.7322 37.6938C49.7614 37.5555 49.7589 37.4123 49.725 37.275C48.8689 32.2142 46.6961 27.4678 43.425 23.5125ZM70.3125 22.5C71.0554 22.4903 71.7651 22.1909 72.2905 21.6655C72.8158 21.1401 73.1153 20.4304 73.125 19.6875V17.8125C73.125 17.5639 73.2238 17.3254 73.3996 17.1496C73.5754 16.9738 73.8139 16.875 74.0625 16.875H75.9375C76.6834 16.875 77.3988 16.5787 77.9262 16.0512C78.4537 15.5238 78.75 14.8084 78.75 14.0625C78.75 13.3166 78.4537 12.6012 77.9262 12.0738C77.3988 11.5463 76.6834 11.25 75.9375 11.25H74.0625C73.8139 11.25 73.5754 11.1512 73.3996 10.9754C73.2238 10.7996 73.125 10.5611 73.125 10.3125V8.4375C73.125 7.69158 72.8287 6.97621 72.3012 6.44876C71.7738 5.92132 71.0584 5.625 70.3125 5.625C69.5666 5.625 68.8512 5.92132 68.3238 6.44876C67.7963 6.97621 67.5 7.69158 67.5 8.4375V10.3125C67.5 10.5611 67.4012 10.7996 67.2254 10.9754C67.0496 11.1512 66.8111 11.25 66.5625 11.25H64.6875C63.9416 11.25 63.2262 11.5463 62.6988 12.0738C62.1713 12.6012 61.875 13.3166 61.875 14.0625C61.875 14.8084 62.1713 15.5238 62.6988 16.0512C63.2262 16.5787 63.9416 16.875 64.6875 16.875H66.5625C66.8111 16.875 67.0496 16.9738 67.2254 17.1496C67.4012 17.3254 67.5 17.5639 67.5 17.8125V19.6875C67.5097 20.4304 67.8092 21.1401 68.3345 21.6655C68.8599 22.1909 69.5696 22.4903 70.3125 22.5ZM87.1875 76.875H83.4375C83.1889 76.875 82.9504 76.7762 82.7746 76.6004C82.5988 76.4246 82.5 76.1861 82.5 75.9375V72.1875C82.5 71.4416 82.2037 70.7262 81.6762 70.1988C81.1488 69.6713 80.4334 69.375 79.6875 69.375C78.9416 69.375 78.2262 69.6713 77.6988 70.1988C77.1713 70.7262 76.875 71.4416 76.875 72.1875V75.9375C76.875 76.1861 76.7762 76.4246 76.6004 76.6004C76.4246 76.7762 76.1861 76.875 75.9375 76.875H72.1875C71.4416 76.875 70.7262 77.1713 70.1988 77.6988C69.6713 78.2262 69.375 78.9416 69.375 79.6875C69.375 80.4334 69.6713 81.1488 70.1988 81.6762C70.7262 82.2037 71.4416 82.5 72.1875 82.5H75.9375C76.1861 82.5 76.4246 82.5988 76.6004 82.7746C76.7762 82.9504 76.875 83.1889 76.875 83.4375V87.1875C76.875 87.9334 77.1713 88.6488 77.6988 89.1762C78.2262 89.7037 78.9416 90 79.6875 90C80.4334 90 81.1488 89.7037 81.6762 89.1762C82.2037 88.6488 82.5 87.9334 82.5 87.1875V83.4375C82.5 83.1889 82.5988 82.9504 82.7746 82.7746C82.9504 82.5988 83.1889 82.5 83.4375 82.5H87.1875C87.9334 82.5 88.6488 82.2037 89.1762 81.6762C89.7037 81.1488 90 80.4334 90 79.6875C90 78.9416 89.7037 78.2262 89.1762 77.6988C88.6488 77.1713 87.9334 76.875 87.1875 76.875ZM14.0625 15H12.1875C11.9389 15 11.7004 14.9012 11.5246 14.7254C11.3488 14.5496 11.25 14.3111 11.25 14.0625V12.1875C11.25 11.4416 10.9537 10.7262 10.4262 10.1988C9.89879 9.67132 9.18342 9.375 8.4375 9.375C7.69158 9.375 6.97621 9.67132 6.44876 10.1988C5.92132 10.7262 5.625 11.4416 5.625 12.1875V14.0625C5.625 14.3111 5.52623 14.5496 5.35041 14.7254C5.1746 14.9012 4.93614 15 4.6875 15H2.8125C2.06658 15 1.35121 15.2963 0.823762 15.8238C0.296316 16.3512 0 17.0666 0 17.8125C0 18.5584 0.296316 19.2738 0.823762 19.8012C1.35121 20.3287 2.06658 20.625 2.8125 20.625H4.6875C4.93614 20.625 5.1746 20.7238 5.35041 20.8996C5.52623 21.0754 5.625 21.3139 5.625 21.5625V23.4375C5.625 24.1834 5.92132 24.8988 6.44876 25.4262C6.97621 25.9537 7.69158 26.25 8.4375 26.25C9.18342 26.25 9.89879 25.9537 10.4262 25.4262C10.9537 24.8988 11.25 24.1834 11.25 23.4375V21.5625C11.25 21.3139 11.3488 21.0754 11.5246 20.8996C11.7004 20.7238 11.9389 20.625 12.1875 20.625H14.0625C14.8084 20.625 15.5238 20.3287 16.0512 19.8012C16.5787 19.2738 16.875 18.5584 16.875 17.8125C16.875 17.0666 16.5787 16.3512 16.0512 15.8238C15.5238 15.2963 14.8084 15 14.0625 15Z" fill="#1E293B"/>
</g>
</g>
<defs>
<filter id="filter0_d_467_630" x="-2" y="-2" width="98" height="98" filterUnits="userSpaceOnUse" color-interpolation-filters="sRGB">
<feFlood flood-opacity="0" result="BackgroundImageFix"/>
<feColorMatrix in="SourceAlpha" type="matrix" values="0 0 0 0 0 0 0 0 0 0 0 0 0 0 0 0 0 0 127 0" result="hardAlpha"/>
<feOffset dx="2" dy="2"/>
<feGaussianBlur stdDeviation="2"/>
<feComposite in2="hardAlpha" operator="out"/>
<feColorMatrix type="matrix" values="0 0 0 0 0 0 0 0 0 0 0 0 0 0 0 0 0 0 0.25 0"/>
<feBlend mode="normal" in2="BackgroundImageFix" result="effect1_dropShadow_467_630"/>
<feBlend mode="normal" in="SourceGraphic" in2="effect1_dropShadow_467_630" result="shape"/>
</filter>
<clipPath id="clip0_467_630">
<rect width="90" height="90" fill="white"/>
</clipPath>
</defs>
</svg>
