<svg width="70" height="70" viewBox="0 0 70 70" fill="none" xmlns="http://www.w3.org/2000/svg">
<path d="M35.0002 29.1667C38.0944 29.1667 41.0618 27.9375 43.2497 25.7496C45.4377 23.5617 46.6668 20.5942 46.6668 17.5C46.6668 14.4058 45.4377 11.4384 43.2497 9.25046C41.0618 7.06254 38.0944 5.83337 35.0002 5.83337C31.906 5.83337 28.9385 7.06254 26.7506 9.25046C24.5627 11.4384 23.3335 14.4058 23.3335 17.5C23.3335 20.5942 24.5627 23.5617 26.7506 25.7496C28.9385 27.9375 31.906 29.1667 35.0002 29.1667Z" fill="#1E293B" stroke="#1E293B" stroke-width="2" stroke-linejoin="round"/>
<path d="M35.0002 29.1667V55.4167M23.3335 46.6667H17.5002L5.8335 64.1667H64.1668L52.5002 46.6667H46.6668" stroke="#1E293B" stroke-width="3" stroke-linecap="round" stroke-linejoin="round"/>
</svg>
