<svg width="150" height="150" viewBox="0 0 150 150" fill="none" xmlns="http://www.w3.org/2000/svg">
<path d="M117.188 43.3594L111 36.1611C105.754 30.6509 99.4411 26.2657 92.4463 23.2725C85.4515 20.2792 77.9208 18.7405 70.3125 18.75C39.2578 18.75 14.0625 43.9453 14.0625 75C14.0625 106.055 39.2578 131.25 70.3125 131.25C81.9463 131.249 93.294 127.643 102.794 120.927C112.294 114.212 119.479 104.717 123.36 93.75" stroke="white" stroke-width="10" stroke-miterlimit="10" stroke-linecap="round"/>
<path d="M135.938 28.541V60.9375C135.938 62.1807 135.444 63.373 134.565 64.2521C133.686 65.1311 132.494 65.625 131.25 65.625H98.854C94.6762 65.625 92.5844 60.5772 95.5376 57.624L127.937 25.2246C130.89 22.2656 135.938 24.3633 135.938 28.541Z" fill="white"/>
</svg>
