<svg width="70" height="70" viewBox="0 0 70 70" fill="none" xmlns="http://www.w3.org/2000/svg">
<g clip-path="url(#clip0_554_1055)">
<g filter="url(#filter0_d_554_1055)">
<path d="M55.4171 52.5H14.5838M35.0004 52.5V35M43.7504 52.5V40.8333M26.2504 52.5V40.8333M55.4171 64.1666V33.0458C56.5001 32.6511 57.4945 32.0464 58.3432 31.2664C59.1919 30.4863 59.8781 29.5463 60.3626 28.5003C60.847 27.4544 61.12 26.323 61.166 25.1712C61.212 24.0194 61.03 22.8699 60.6305 21.7886C60.2311 20.7074 59.622 19.7156 58.8382 18.8704C58.0544 18.0252 57.1114 17.3431 56.0633 16.8633C55.0151 16.3835 53.8826 16.1155 52.7306 16.0746C51.5786 16.0337 50.4299 16.2207 49.3504 16.625C48.2713 11.2991 42.1754 5.83331 35.0004 5.83331C27.8254 5.83331 21.7296 11.2991 20.6504 16.625C18.4729 15.8205 16.065 15.914 13.9563 16.8849C11.8477 17.8558 10.2112 19.6245 9.40667 21.8021C8.60218 23.9796 8.69567 26.3875 9.66656 28.4961C10.6375 30.6048 12.4062 32.2413 14.5838 33.0458V64.1666H55.4171Z" stroke="#1E293B" stroke-width="5" shape-rendering="crispEdges"/>
</g>
</g>
<defs>
<filter id="filter0_d_554_1055" x="4.36426" y="1.33331" width="65.3086" height="71.3333" filterUnits="userSpaceOnUse" color-interpolation-filters="sRGB">
<feFlood flood-opacity="0" result="BackgroundImageFix"/>
<feColorMatrix in="SourceAlpha" type="matrix" values="0 0 0 0 0 0 0 0 0 0 0 0 0 0 0 0 0 0 127 0" result="hardAlpha"/>
<feOffset dx="2" dy="2"/>
<feGaussianBlur stdDeviation="2"/>
<feComposite in2="hardAlpha" operator="out"/>
<feColorMatrix type="matrix" values="0 0 0 0 0 0 0 0 0 0 0 0 0 0 0 0 0 0 0.25 0"/>
<feBlend mode="normal" in2="BackgroundImageFix" result="effect1_dropShadow_554_1055"/>
<feBlend mode="normal" in="SourceGraphic" in2="effect1_dropShadow_554_1055" result="shape"/>
</filter>
<clipPath id="clip0_554_1055">
<rect width="70" height="70" fill="white"/>
</clipPath>
</defs>
</svg>
