<svg width="90" height="90" viewBox="0 0 90 90" fill="none" xmlns="http://www.w3.org/2000/svg">
<g clip-path="url(#clip0_464_448)">
<g filter="url(#filter0_d_464_448)">
<path d="M88.5938 84.375H80.1562V58.7222C85.2975 61.4714 85.4522 67.0444 85.4522 67.0444C86.4323 59.2819 82.8619 56.2964 80.0761 55.1433C80.0338 54.828 79.9737 54.5153 79.8961 54.2067C85.5492 49.5984 90 51.5152 90 51.5152C84.9403 45.4022 80.6231 48.0952 78.1678 50.8233C77.3784 49.8804 76.3918 49.1222 75.2775 48.602C74.1632 48.0818 72.9485 47.8123 71.7188 47.8125H64.6875V36.5625C64.6875 31.9106 60.9033 28.125 56.25 28.125H54.8438V19.6875C54.8438 18.173 54.097 16.3687 53.0255 15.2986L50.7952 13.0669C49.725 11.9981 47.9194 11.25 46.4062 11.25V9.22219C50.1553 11.378 51.0919 7.065 54.8438 9.22219V2.02922C51.0919 -0.126563 50.1553 4.18641 46.4062 2.02922V1.40625C46.4062 0.632812 45.772 0 45 0C44.2252 0 43.5938 0.632812 43.5938 1.40625V11.25C42.0806 11.25 40.275 11.9981 39.2048 13.0669L36.9745 15.2986C35.903 16.3687 35.1562 18.173 35.1562 19.6875V28.125H33.75C29.0967 28.125 25.3125 31.9106 25.3125 36.5625V47.8125H18.2812C17.0512 47.8128 15.8362 48.0826 14.7216 48.6027C13.6069 49.1229 12.6198 49.8808 11.8294 50.8233C9.37687 48.0952 5.05828 45.4008 0 51.5152C0 51.5152 4.44938 49.5984 10.1053 54.2095C10.0278 54.5172 9.96771 54.8289 9.92531 55.1433C7.13953 56.2964 3.56766 59.2819 4.54922 67.0444C4.54922 67.0444 4.7025 61.4686 9.84516 58.7222V84.375H1.40625C0.631406 84.375 0 85.0092 0 85.7812V88.5938C0 89.3686 0.631406 90 1.40625 90H88.5938C89.3658 90 90 89.3686 90 88.5938V85.7812C90 85.0092 89.3658 84.375 88.5938 84.375ZM75.9769 57.7111C76.2117 57.645 76.4212 57.5677 76.6702 57.51C77.1427 57.5986 77.5786 57.7139 78.0019 57.8391C78.1073 58.732 78.2255 59.8683 78.3309 61.283H75.9023C75.9403 60.1284 75.9642 58.9303 75.9769 57.7111ZM75.8911 61.7738C76.9556 63.1223 77.85 62.6527 78.3858 62.0761C78.4664 63.2517 78.5316 64.5802 78.5813 66.0614H75.6914C75.7702 64.6847 75.8391 63.2644 75.8911 61.7738ZM74.5312 58.1695L74.5664 58.1555C74.5312 60.712 74.4398 63.1294 74.3175 65.3977C74.1982 65.1853 74.0253 65.008 73.8161 64.8834C73.6068 64.7588 73.3685 64.6912 73.125 64.6875H68.0077C68.3311 63.3713 69.0623 61.8427 70.5839 60.4688H73.125C73.897 60.4688 74.5312 59.8373 74.5312 59.0625V58.1695ZM15.4688 58.1723V59.0625C15.4688 59.8373 16.1002 60.4688 16.875 60.4688H19.4161C20.9363 61.8427 21.6675 63.3713 21.9909 64.6875H16.875C16.6314 64.6908 16.3929 64.758 16.1834 64.8824C15.9739 65.0068 15.8007 65.184 15.6811 65.3963C15.5573 63.1308 15.4688 60.7134 15.4322 58.1569L15.4688 58.1723ZM11.9967 57.8405C12.4186 57.7139 12.8545 57.5986 13.3256 57.5114C13.5759 57.5719 13.7855 57.6464 14.0217 57.7125C14.0358 58.9317 14.0583 60.1298 14.0934 61.2858H11.6662C11.7731 59.8697 11.8898 58.7334 11.9967 57.8405ZM11.6128 62.0761C12.1514 62.6527 13.0458 63.1223 14.1089 61.7709C14.1581 63.263 14.227 64.6819 14.3086 66.0614H11.4145C11.4652 64.5802 11.5313 63.2517 11.6128 62.0761ZM11.3934 66.7533C12.0037 67.3495 13.0627 67.9177 14.3438 66.6872C14.4328 68.1441 14.5327 69.5264 14.6433 70.8342H11.3484C11.3456 69.3787 11.3597 68.0105 11.3934 66.7533ZM11.3512 71.4881C12.0009 72.1448 13.2103 72.8198 14.6644 71.1141C14.805 72.7425 14.9541 74.2458 15.1045 75.6098H11.4412C11.3939 74.2364 11.3639 72.8624 11.3512 71.4881ZM11.4567 76.012C12.0614 76.6463 13.4452 77.663 15.1791 76.268C15.2747 77.1061 15.3731 77.8697 15.4673 78.5911V78.75C15.4673 78.8597 15.5053 78.9581 15.5306 79.0636C15.5944 79.5352 15.6562 79.9762 15.7162 80.3869H11.6761C11.5839 78.9296 11.5108 77.4712 11.4567 76.012ZM11.97 84.375C11.8603 83.0897 11.7689 81.8508 11.6916 80.6456C12.2288 81.2686 13.7967 82.672 15.7837 80.8411C16.1213 83.1094 16.373 84.375 16.373 84.375H11.97ZM30.9375 67.5886L29.1994 68.9062L29.8589 66.7617L28.125 65.4314L30.2695 65.423L30.9375 63.2812L31.6055 65.423L33.75 65.4314L32.0175 66.7603L32.6756 68.9062L30.9375 67.5886ZM33.75 88.5938L35.6245 87.1875H54.3755L56.25 88.5938H33.75ZM39.7069 68.9062L37.9688 67.5886L36.2306 68.9062L36.8902 66.7617L35.1562 65.4314L37.3008 65.423L37.9688 63.2812L38.6367 65.423L40.7812 65.4314L39.0487 66.7603L39.7069 68.9062ZM39.375 70.3125V84.375H35.1562V70.3125H39.375ZM46.7381 68.9062L45 67.5886L43.2619 68.9062L43.9214 66.7617L42.1875 65.4314L44.332 65.423L45 63.2812L45.668 65.423L47.8125 65.4314L46.08 66.7603L46.7381 68.9062ZM46.4062 70.3125V84.375H43.5938V70.3125H46.4062ZM53.7694 68.9062L52.0312 67.5886L50.2931 68.9062L50.9527 66.7617L49.2188 65.4314L51.3633 65.423L52.0312 63.2812L52.6992 65.423L54.8438 65.4314L53.1113 66.7603L53.7694 68.9062ZM54.8438 70.3125V84.375H50.625V70.3125H54.8438ZM57.3244 68.9062L57.9839 66.7617L56.25 65.4314L58.3945 65.423L59.0625 63.2812L59.7305 65.423L61.875 65.4314L60.1425 66.7603L60.8006 68.9062L59.0625 67.5886L57.3244 68.9062ZM73.125 74.5312H67.5C66.7252 74.5312 66.0938 75.1655 66.0938 75.9375V78.75C66.0938 79.5248 66.7252 80.1562 67.5 80.1562H72.8902C72.7052 81.4758 72.4904 82.7909 72.2461 84.1008L72.1898 84.375H60.4688V70.3125H63.2812V61.875H26.7188V70.3125H29.5312V84.375H17.8059L17.7511 84.1008C17.5068 82.791 17.2925 81.4758 17.1084 80.1562H22.5C23.272 80.1562 23.9062 79.5248 23.9062 78.75V75.9375C23.9062 75.1655 23.272 74.5312 22.5 74.5312H16.875C16.719 74.5367 16.565 74.5681 16.4194 74.6241C16.2529 73.0741 16.1076 71.5219 15.9834 69.968C16.23 70.1855 16.5462 70.3077 16.875 70.3125H22.5C23.272 70.3125 23.9062 69.6811 23.9062 68.9062V66.0938C23.9062 65.5116 23.5434 65.0095 23.0372 64.7972C23.2861 63.1223 23.0667 61.6852 22.5422 60.4603C23.2931 60.4364 23.9062 59.8205 23.9062 59.0625V56.25C23.9062 55.478 23.272 54.8438 22.5 54.8438H16.875C16.6761 54.8466 16.4801 54.8917 16.2998 54.9759C16.1452 54.9098 15.9877 54.8409 15.84 54.7805C22.6983 48.337 28.125 53.1633 28.125 53.1633C27.4063 52.1911 26.5427 51.3351 25.5642 50.625H28.125V36.5625C28.125 33.4688 30.6548 30.9375 33.75 30.9375H37.9688V19.6875C37.9688 18.9141 38.4159 17.8341 38.963 17.2856L41.1933 15.0567C41.7403 14.5097 42.8189 14.0625 43.5938 14.0625H46.4062C47.1783 14.0625 48.2597 14.5097 48.8067 15.0581L51.037 17.287C51.5841 17.8341 52.0312 18.9141 52.0312 19.6875V30.9375H56.25C59.3423 30.9375 61.875 33.4688 61.875 36.5625V50.625H64.4344C63.4564 51.3352 62.5932 52.1912 61.875 53.1633C61.875 53.1633 67.3003 48.337 74.1572 54.7805C74.0095 54.8409 73.852 54.9098 73.6988 54.9759C73.5197 54.8898 73.3237 54.8446 73.125 54.8438H67.5C66.7252 54.8438 66.0938 55.478 66.0938 56.25V59.0625C66.0958 59.4266 66.2389 59.7757 66.493 60.0364C66.7472 60.2971 67.0925 60.449 67.4564 60.4603C66.9319 61.6852 66.7139 63.1223 66.96 64.7972C66.4538 65.0095 66.0938 65.5116 66.0938 66.0938V68.9062C66.0938 69.6811 66.7252 70.3125 67.5 70.3125H73.125C73.4526 70.3053 73.7675 70.184 74.0152 69.9694C73.8906 71.5232 73.7458 73.0754 73.5806 74.6255C73.4359 74.5662 73.2814 74.5342 73.125 74.5312ZM78.0272 84.375H73.6242C73.6242 84.375 73.8759 83.1094 74.212 80.8425C76.2005 82.672 77.767 81.2686 78.3056 80.6442C78.2283 81.8508 78.1369 83.0897 78.0272 84.375ZM78.3211 80.3869H74.2809L74.4623 79.0847C74.4919 78.975 74.5312 78.8681 74.5312 78.75V78.577C74.6255 77.8598 74.7225 77.0991 74.8195 76.2637C76.552 77.6616 77.9358 76.6448 78.5405 76.0106C78.4884 77.407 78.4181 78.8597 78.3211 80.3869ZM78.5559 75.6113H74.8913C75.0459 74.2444 75.1931 72.7448 75.3328 71.1127C76.7855 72.8184 77.9962 72.1477 78.6445 71.4923C78.6352 72.7898 78.6056 74.1628 78.5559 75.6113ZM75.3553 70.8342C75.465 69.5236 75.5677 68.1455 75.6577 66.6844C76.9359 67.9148 77.9962 67.3495 78.6052 66.7561C78.6375 68.0119 78.6516 69.3787 78.6473 70.8342H75.3553Z" fill="#1E293B"/>
</g>
<g filter="url(#filter1_d_464_448)">
<path d="M29.6986 59.6559V56.8055H32.2805V59.6559H33.8428V52.8469H32.2805V55.4611H29.6986V52.8469H28.125V59.6559H29.6986ZM39.2948 52.7344C37.2488 52.7344 35.9227 54.2616 35.9227 56.2992C35.9227 58.2412 37.125 59.7656 39.1823 59.7656C41.2073 59.7656 42.5883 58.4114 42.5883 56.1811C42.5883 54.2995 41.4239 52.7344 39.2948 52.7344ZM39.2653 58.5436C38.2163 58.5436 37.5792 57.6042 37.5792 56.2697C37.5792 54.9492 38.1952 53.9564 39.2541 53.9564C40.3383 53.9564 40.9317 55.0083 40.9317 56.2303C40.9317 57.555 40.3256 58.5436 39.2653 58.5436ZM43.8328 54.1378H45.6947V59.6559H47.2655V54.1378H49.1611V52.8469H43.8328V54.1378ZM52.5994 56.7745H55.1489V55.5216H52.5994V54.1111H55.3022V52.8469H51.0202V59.6559H55.4456V58.3917H52.5994V56.7745ZM59.1173 52.8469H57.5437V59.6559H61.875V58.3622H59.1173V52.8469ZM47.8125 33.75H42.1875C41.4127 33.75 40.7812 34.3828 40.7812 35.1562V46.4062C40.7812 47.1811 41.4127 47.8125 42.1875 47.8125H47.8125C48.5845 47.8125 49.2188 47.1811 49.2188 46.4062V35.1562C49.2188 34.3828 48.5845 33.75 47.8125 33.75ZM42.1875 28.125C42.9595 28.125 43.5938 27.4922 43.5938 26.7188V21.0938C43.5938 20.3203 42.9595 19.6875 42.1875 19.6875C41.4127 19.6875 40.7812 20.3203 40.7812 21.0938V26.7188C40.7812 27.4922 41.4127 28.125 42.1875 28.125ZM47.8125 19.6875C47.0377 19.6875 46.4062 20.3203 46.4062 21.0938V26.7188C46.4062 27.4922 47.0377 28.125 47.8125 28.125C48.5845 28.125 49.2188 27.4922 49.2188 26.7188V21.0938C49.2188 20.3203 48.5845 19.6875 47.8125 19.6875ZM32.3438 39.375H36.5625C37.3345 39.375 37.9688 38.7436 37.9688 37.9688V35.1562C37.9688 34.3828 37.3345 33.75 36.5625 33.75H32.3438C31.5689 33.75 30.9375 34.3828 30.9375 35.1562V37.9688C30.9375 38.7422 31.5689 39.375 32.3438 39.375ZM37.9688 46.4062V43.5938C37.9688 42.8217 37.3345 42.1875 36.5625 42.1875H32.3438C31.5689 42.1875 30.9375 42.8217 30.9375 43.5938V46.4062C30.9375 47.1811 31.5689 47.8125 32.3438 47.8125H36.5625C37.3345 47.8125 37.9688 47.1811 37.9688 46.4062ZM53.4375 39.375H57.6562C58.4283 39.375 59.0625 38.7436 59.0625 37.9688V35.1562C59.0625 34.3828 58.4283 33.75 57.6562 33.75H53.4375C52.6627 33.75 52.0312 34.3828 52.0312 35.1562V37.9688C52.0312 38.7422 52.6627 39.375 53.4375 39.375ZM53.4375 47.8125H57.6562C58.4283 47.8125 59.0625 47.1811 59.0625 46.4062V43.5938C59.0625 42.8217 58.4283 42.1875 57.6562 42.1875H53.4375C52.6627 42.1875 52.0312 42.8217 52.0312 43.5938V46.4062C52.0312 47.1811 52.6627 47.8125 53.4375 47.8125Z" fill="#1E293B"/>
</g>
</g>
<defs>
<filter id="filter0_d_464_448" x="-2" y="-2" width="98" height="98" filterUnits="userSpaceOnUse" color-interpolation-filters="sRGB">
<feFlood flood-opacity="0" result="BackgroundImageFix"/>
<feColorMatrix in="SourceAlpha" type="matrix" values="0 0 0 0 0 0 0 0 0 0 0 0 0 0 0 0 0 0 127 0" result="hardAlpha"/>
<feOffset dx="2" dy="2"/>
<feGaussianBlur stdDeviation="2"/>
<feComposite in2="hardAlpha" operator="out"/>
<feColorMatrix type="matrix" values="0 0 0 0 0 0 0 0 0 0 0 0 0 0 0 0 0 0 0.25 0"/>
<feBlend mode="normal" in2="BackgroundImageFix" result="effect1_dropShadow_464_448"/>
<feBlend mode="normal" in="SourceGraphic" in2="effect1_dropShadow_464_448" result="shape"/>
</filter>
<filter id="filter1_d_464_448" x="26.125" y="17.6875" width="41.75" height="48.0781" filterUnits="userSpaceOnUse" color-interpolation-filters="sRGB">
<feFlood flood-opacity="0" result="BackgroundImageFix"/>
<feColorMatrix in="SourceAlpha" type="matrix" values="0 0 0 0 0 0 0 0 0 0 0 0 0 0 0 0 0 0 127 0" result="hardAlpha"/>
<feOffset dx="2" dy="2"/>
<feGaussianBlur stdDeviation="2"/>
<feComposite in2="hardAlpha" operator="out"/>
<feColorMatrix type="matrix" values="0 0 0 0 0 0 0 0 0 0 0 0 0 0 0 0 0 0 0.25 0"/>
<feBlend mode="normal" in2="BackgroundImageFix" result="effect1_dropShadow_464_448"/>
<feBlend mode="normal" in="SourceGraphic" in2="effect1_dropShadow_464_448" result="shape"/>
</filter>
<clipPath id="clip0_464_448">
<rect width="90" height="90" fill="white"/>
</clipPath>
</defs>
</svg>
