<svg width="64" height="64" viewBox="0 0 64 64" fill="none" xmlns="http://www.w3.org/2000/svg">
<g filter="url(#filter0_d_413_599)">
<path d="M37.1457 18.1496L47.4562 7.83333H34.0832V2H57.4166V25.3333H51.5832V11.9575L41.267 22.2738C44.6324 26.6853 46.1956 32.2108 45.6401 37.7316C45.0846 43.2523 42.4519 48.3557 38.2751 52.0083C34.0982 55.6609 28.6895 57.5898 23.1439 57.4043C17.5984 57.2189 12.3305 54.933 8.40705 51.0095C4.48357 47.086 2.19768 41.8182 2.01223 36.2727C1.82679 30.7271 3.75565 25.3183 7.40826 21.1415C11.0609 16.9647 16.1642 14.332 21.685 13.7765C27.2057 13.221 32.7313 14.7842 37.1428 18.1496M23.8749 51.5833C28.1294 51.5833 32.2097 49.8932 35.2181 46.8848C38.2265 43.8764 39.9166 39.7962 39.9166 35.5417C39.9166 31.2872 38.2265 27.2069 35.2181 24.1985C32.2097 21.1901 28.1294 19.5 23.8749 19.5C19.6204 19.5 15.5401 21.1901 12.5317 24.1985C9.52334 27.2069 7.83324 31.2872 7.83324 35.5417C7.83324 39.7962 9.52334 43.8764 12.5317 46.8848C15.5401 49.8932 19.6204 51.5833 23.8749 51.5833Z" fill="#1E293B"/>
</g>
<defs>
<filter id="filter0_d_413_599" x="0" y="0" width="63.4166" height="63.4166" filterUnits="userSpaceOnUse" color-interpolation-filters="sRGB">
<feFlood flood-opacity="0" result="BackgroundImageFix"/>
<feColorMatrix in="SourceAlpha" type="matrix" values="0 0 0 0 0 0 0 0 0 0 0 0 0 0 0 0 0 0 127 0" result="hardAlpha"/>
<feOffset dx="2" dy="2"/>
<feGaussianBlur stdDeviation="2"/>
<feComposite in2="hardAlpha" operator="out"/>
<feColorMatrix type="matrix" values="0 0 0 0 0 0 0 0 0 0 0 0 0 0 0 0 0 0 0.25 0"/>
<feBlend mode="normal" in2="BackgroundImageFix" result="effect1_dropShadow_413_599"/>
<feBlend mode="normal" in="SourceGraphic" in2="effect1_dropShadow_413_599" result="shape"/>
</filter>
</defs>
</svg>
