<svg width="70" height="67" viewBox="0 0 70 67" fill="none" xmlns="http://www.w3.org/2000/svg">
<g clip-path="url(#clip0_524_573)">
<g filter="url(#filter0_d_524_573)">
<path d="M39.4296 30.4236V25.125M39.4296 30.4236V33.447L39.4688 33.5M39.4296 30.4236C39.4296 31.6994 39.4296 32.6932 39.4688 33.5M39.4688 33.5C39.5192 34.505 39.6284 35.2225 39.8748 35.8422C40.3536 37.0454 41.188 38.0113 42.2296 38.5697C43.19 39.0833 44.4304 39.0833 46.9056 39.0833H49.1092C49.35 39.0833 49.4676 39.0833 49.546 39.0778C51.3268 38.941 52.3656 36.6909 51.478 34.9014L51.24 34.4743L51.184 34.3822L51.0496 34.1505C49.8512 32.1656 47.6812 31.303 45.682 32.0204L45.4552 32.1042M39.4296 33.4442V33.5C39.4296 34.6809 39.4296 35.5938 39.396 36.3335M39.396 36.3335C39.354 37.2269 39.2644 37.869 39.0628 38.4273C38.5728 39.7952 37.6348 40.884 36.456 41.4507C35.5684 41.875 34.4456 41.875 32.2 41.875M39.396 36.3335L33.404 29.3125M26.6 25.125V36.2917C26.6 37.7725 26.01 39.1926 24.9598 40.2397C23.9096 41.2868 22.4852 41.875 21 41.875" stroke="#1E293B" stroke-width="4" stroke-linecap="round" stroke-linejoin="round" shape-rendering="crispEdges"/>
</g>
<g filter="url(#filter1_d_524_573)">
<path d="M28.7838 9.35772C30.3602 7.67435 31.1498 6.83127 31.9926 6.36227C32.9115 5.84978 33.9469 5.58069 34.9998 5.58069C36.0527 5.58069 37.0881 5.84978 38.007 6.36227C38.8498 6.83127 39.6394 7.67435 41.2186 9.35772C41.9298 10.1171 42.2826 10.4967 42.6802 10.801C43.5481 11.4703 44.5795 11.8962 45.6678 12.0349C46.1634 12.0963 46.6842 12.0796 47.7258 12.0461C50.0358 11.9679 51.1894 11.9288 52.119 12.1913C53.132 12.479 54.0545 13.0197 54.7993 13.7623C55.5441 14.5048 56.0864 15.4246 56.375 16.4346C56.6354 17.3558 56.599 18.5088 56.5178 20.8119C56.4842 21.8504 56.4674 22.3697 56.529 22.8638C56.669 23.9498 57.0974 24.9771 57.7666 25.8425C58.0746 26.2361 58.4526 26.5907 59.2142 27.2998C60.9026 28.8743 61.7482 29.6615 62.2186 30.5018C63.2602 32.3666 63.2602 34.6335 62.2186 36.4983C61.7482 37.3386 60.9026 38.1259 59.2142 39.7003C58.4526 40.4094 58.0718 40.7612 57.7666 41.1576C57.0953 42.0229 56.6681 43.0512 56.529 44.1363C56.4674 44.6304 56.4842 45.1497 56.5178 46.1854C56.5962 48.4913 56.6354 49.6415 56.3722 50.5683C56.086 51.5795 55.5445 52.5006 54.7994 53.2435C54.0542 53.9864 53.1304 54.5264 52.1162 54.8116C51.1922 55.0713 50.0358 55.035 47.723 54.954C46.6842 54.9205 46.1634 54.9038 45.6678 54.9652C44.5786 55.1048 43.5482 55.5319 42.6802 56.1991C42.2854 56.5062 41.9298 56.8831 41.2186 57.6424C39.6394 59.3258 38.8498 60.1688 38.007 60.6379C37.0881 61.1503 36.0527 61.4194 34.9998 61.4194C33.9469 61.4194 32.9115 61.1503 31.9926 60.6379C31.1498 60.1688 30.3602 59.3258 28.781 57.6424C28.0698 56.8831 27.717 56.5034 27.3194 56.1991C26.4515 55.5299 25.4201 55.1039 24.3318 54.9652C23.8362 54.9038 23.3154 54.9205 22.2738 54.954C19.9638 55.0322 18.8102 55.0713 17.8806 54.8088C16.8664 54.5236 15.9425 53.9837 15.1974 53.2407C14.4522 52.4978 13.9107 51.5767 13.6246 50.5655C13.3642 49.6443 13.4006 48.4913 13.4818 46.1854C13.5154 45.1497 13.5322 44.6304 13.4706 44.1363C13.3315 43.0512 12.9042 42.0229 12.233 41.1576C11.925 40.764 11.547 40.4094 10.7854 39.7003C9.09698 38.1259 8.25138 37.3386 7.78098 36.4983C7.26696 35.5821 6.99707 34.5498 6.99707 33.5001C6.99707 32.4503 7.26696 31.418 7.78098 30.5018C8.25138 29.6615 9.09698 28.8743 10.7854 27.2998C11.547 26.5907 11.9278 26.2389 12.233 25.8425C12.9042 24.9772 13.3315 23.9489 13.4706 22.8638C13.5322 22.3697 13.5154 21.8504 13.4818 20.8119C13.4034 18.5088 13.3642 17.3586 13.6274 16.4318C13.9135 15.4206 14.455 14.4995 15.2002 13.7566C15.9453 13.0137 16.8692 12.4738 17.8834 12.1885C18.8074 11.9288 19.9638 11.9651 22.2738 12.0461C23.3154 12.0796 23.8362 12.0963 24.3318 12.0349C25.421 11.8953 26.4514 11.4682 27.3194 10.801C27.7142 10.4939 28.0726 10.1171 28.7838 9.35772Z" stroke="#1E293B" stroke-width="4" shape-rendering="crispEdges"/>
</g>
</g>
<defs>
<filter id="filter0_d_524_573" x="17" y="21.125" width="42.8008" height="28.75" filterUnits="userSpaceOnUse" color-interpolation-filters="sRGB">
<feFlood flood-opacity="0" result="BackgroundImageFix"/>
<feColorMatrix in="SourceAlpha" type="matrix" values="0 0 0 0 0 0 0 0 0 0 0 0 0 0 0 0 0 0 127 0" result="hardAlpha"/>
<feOffset dx="2" dy="2"/>
<feGaussianBlur stdDeviation="2"/>
<feComposite in2="hardAlpha" operator="out"/>
<feColorMatrix type="matrix" values="0 0 0 0 0 0 0 0 0 0 0 0 0 0 0 0 0 0 0.25 0"/>
<feBlend mode="normal" in2="BackgroundImageFix" result="effect1_dropShadow_524_573"/>
<feBlend mode="normal" in="SourceGraphic" in2="effect1_dropShadow_524_573" result="shape"/>
</filter>
<filter id="filter1_d_524_573" x="2.99707" y="1.58069" width="68.0029" height="67.8387" filterUnits="userSpaceOnUse" color-interpolation-filters="sRGB">
<feFlood flood-opacity="0" result="BackgroundImageFix"/>
<feColorMatrix in="SourceAlpha" type="matrix" values="0 0 0 0 0 0 0 0 0 0 0 0 0 0 0 0 0 0 127 0" result="hardAlpha"/>
<feOffset dx="2" dy="2"/>
<feGaussianBlur stdDeviation="2"/>
<feComposite in2="hardAlpha" operator="out"/>
<feColorMatrix type="matrix" values="0 0 0 0 0 0 0 0 0 0 0 0 0 0 0 0 0 0 0.25 0"/>
<feBlend mode="normal" in2="BackgroundImageFix" result="effect1_dropShadow_524_573"/>
<feBlend mode="normal" in="SourceGraphic" in2="effect1_dropShadow_524_573" result="shape"/>
</filter>
<clipPath id="clip0_524_573">
<rect width="70" height="67" fill="white"/>
</clipPath>
</defs>
</svg>
