<svg width="70" height="70" viewBox="0 0 70 70" fill="none" xmlns="http://www.w3.org/2000/svg">
<g clip-path="url(#clip0_551_860)">
<path fill-rule="evenodd" clip-rule="evenodd" d="M36.7296 67.8359L36.6975 67.8417L36.4904 67.9438L36.4321 67.9554L36.3913 67.9438L36.1842 67.8417C36.1531 67.832 36.1297 67.8368 36.1142 67.8563L36.1025 67.8854L36.0529 69.1338L36.0675 69.1921L36.0967 69.23L36.4 69.4459L36.4438 69.4575L36.4788 69.4459L36.7821 69.23L36.8171 69.1834L36.8288 69.1338L36.7792 67.8884C36.7714 67.8572 36.7549 67.8397 36.7296 67.8359ZM37.5025 67.5063L37.4646 67.5121L36.925 67.7834L36.8958 67.8125L36.8871 67.8446L36.9396 69.0988L36.9542 69.1338L36.9775 69.1542L37.5638 69.4254C37.6007 69.4352 37.6289 69.4274 37.6483 69.4021L37.66 69.3613L37.5608 67.5704C37.5511 67.5354 37.5317 67.5141 37.5025 67.5063ZM35.4171 67.5121C35.4042 67.5043 35.3889 67.5018 35.3742 67.5051C35.3595 67.5083 35.3467 67.5171 35.3383 67.5296L35.3208 67.5704L35.2217 69.3613C35.2236 69.3963 35.2402 69.4196 35.2713 69.4313L35.315 69.4254L35.9013 69.1542L35.9304 69.1309L35.9421 69.0988L35.9917 67.8446L35.9829 67.8096L35.9538 67.7804L35.4171 67.5121Z" fill="#1E293B"/>
<g filter="url(#filter0_d_551_860)">
<path fill-rule="evenodd" clip-rule="evenodd" d="M53.3893 25.1417C53.1014 25.3062 52.8044 25.4542 52.4997 25.585V32.0833H54.1301C55.1962 32.0836 56.2256 32.4732 57.0248 33.179C57.8239 33.8847 58.3379 34.8579 58.4701 35.9158L60.9084 55.4167H61.2497C62.0232 55.4167 62.7651 55.724 63.3121 56.2709C63.859 56.8179 64.1663 57.5598 64.1663 58.3333C64.1663 59.1069 63.859 59.8488 63.3121 60.3957C62.7651 60.9427 62.0232 61.25 61.2497 61.25H43.9772C43.1438 61.2485 42.3449 60.9167 41.7556 60.3274C41.1663 59.7381 40.8345 58.9392 40.833 58.1058V55.4167C40.833 53.8696 40.2184 52.3858 39.1245 51.2919C38.0305 50.1979 36.5468 49.5833 34.9997 49.5833C33.4526 49.5833 31.9688 50.1979 30.8749 51.2919C29.7809 52.3858 29.1663 53.8696 29.1663 55.4167V58.1058C29.1663 59.8413 27.7576 61.25 26.0222 61.25H8.74967C7.97613 61.25 7.23426 60.9427 6.68728 60.3957C6.1403 59.8488 5.83301 59.1069 5.83301 58.3333C5.83301 57.5598 6.1403 56.8179 6.68728 56.2709C7.23426 55.724 7.97613 55.4167 8.74967 55.4167H9.09092L11.5293 35.9158C11.6615 34.8579 12.1754 33.8847 12.9746 33.179C13.7737 32.4732 14.8031 32.0836 15.8693 32.0833H17.4997V25.585C17.196 25.455 16.9 25.308 16.613 25.1446C14.6326 24.0158 12.6901 21.9013 11.7655 18.2525C11.3397 16.5783 12.5093 14.5921 14.6063 14.5833C16.8726 14.5746 19.6638 13.4313 20.5622 10.7567C20.953 9.59 22.0555 8.75 23.3534 8.75H46.6459C47.9438 8.75 49.0463 9.59 49.4372 10.7567C50.3355 13.4313 53.1268 14.5746 55.393 14.5833C57.4901 14.5921 58.6597 16.5783 58.2338 18.2525C57.3093 21.9013 55.3668 24.0158 53.3863 25.1446L53.3893 25.1417ZM23.333 32.0833H46.6663V26.2646C40.7601 26.2938 34.8538 26.2792 28.9505 26.2646L23.333 26.2529V32.0833Z" fill="#1E293B"/>
</g>
</g>
<defs>
<filter id="filter0_d_551_860" x="3.83301" y="6.75" width="66.333" height="60.5" filterUnits="userSpaceOnUse" color-interpolation-filters="sRGB">
<feFlood flood-opacity="0" result="BackgroundImageFix"/>
<feColorMatrix in="SourceAlpha" type="matrix" values="0 0 0 0 0 0 0 0 0 0 0 0 0 0 0 0 0 0 127 0" result="hardAlpha"/>
<feOffset dx="2" dy="2"/>
<feGaussianBlur stdDeviation="2"/>
<feComposite in2="hardAlpha" operator="out"/>
<feColorMatrix type="matrix" values="0 0 0 0 0 0 0 0 0 0 0 0 0 0 0 0 0 0 0.25 0"/>
<feBlend mode="normal" in2="BackgroundImageFix" result="effect1_dropShadow_551_860"/>
<feBlend mode="normal" in="SourceGraphic" in2="effect1_dropShadow_551_860" result="shape"/>
</filter>
<clipPath id="clip0_551_860">
<rect width="70" height="70" fill="white"/>
</clipPath>
</defs>
</svg>
