<svg width="90" height="88" viewBox="0 0 90 88" fill="none" xmlns="http://www.w3.org/2000/svg">
<g filter="url(#filter0_d_429_554)">
<path d="M45 2C43.4232 3.85871 41.3364 5.78035 39.0872 7.86178C36.1399 10.589 32.9358 13.5413 30.3949 16.5904C27.8543 19.6393 26.0228 22.7656 25.6048 25.7299C25.2067 28.5519 25.9409 31.3198 28.8172 34.3861H61.1829C64.0591 31.3198 64.7935 28.5519 64.3954 25.7301C63.977 22.7656 62.1457 19.6393 59.605 16.5905C57.0642 13.5418 53.8601 10.5894 50.9126 7.86195C48.6638 5.78053 46.5768 3.85871 45 2ZM5.625 9.07344C2.8125 11.8859 2.8125 14.6984 2.8125 17.5109H4.04297V29.9914H2.8125V33.1555H4.04297V82.1984H7.20703V33.1555H8.4375V29.9914H7.20703V17.5109H8.4375C8.4375 14.6984 8.4375 11.8859 5.625 9.07344ZM84.375 9.07344C81.5625 11.8859 81.5625 14.6984 81.5625 17.5109H82.793V29.9914H81.5625V33.1555H82.793V82.1984H85.957V33.1555H87.1875V29.9914H85.957V17.5109H87.1875C87.1875 14.6984 87.1875 11.8859 84.375 9.07344ZM19.6875 33.1555C16.875 35.968 14.0625 38.7805 14.0625 41.593V45.6359H25.3125V41.593C25.3125 38.7805 22.5 35.968 19.6875 33.1555ZM70.3125 33.1555C67.5 35.968 64.6875 38.7805 64.6875 41.593V45.6359H75.9375V41.593C75.9375 38.7805 73.125 35.968 70.3125 33.1555ZM29.707 37.55V40.0109H60.293V37.55H29.707ZM29.707 43.175V82.1984H36.5625V58.468C36.5625 55.6555 42.1875 50.0305 45 47.218C47.8125 50.0305 53.4375 55.6555 53.4375 58.468V82.1984H60.293V43.175H29.707ZM12.832 48.8V82.1984H26.543V48.8H12.832ZM63.457 48.8V82.1984H77.168V48.8H63.457ZM19.6875 50.0305C19.6875 50.0305 22.5 51.4778 22.5 52.843V58.468H16.875V52.843C16.875 51.4778 19.6875 50.0305 19.6875 50.0305ZM70.3125 50.9909C70.3125 50.9909 73.125 52.4381 73.125 53.8034V59.4284H67.5V53.8034C67.5 52.4381 70.3125 50.9909 70.3125 50.9909ZM19.6875 61.2805C19.6875 61.2805 22.5 62.7278 22.5 64.093V69.718H16.875V64.093C16.875 62.7278 19.6875 61.2805 19.6875 61.2805ZM70.3125 61.2805C70.3125 61.2805 73.125 62.7278 73.125 64.093V69.718H67.5V64.093C67.5 62.7278 70.3125 61.2805 70.3125 61.2805ZM19.6875 72.5305C19.6875 72.5305 22.5 73.9779 22.5 75.343V80.968H16.875V75.343C16.875 73.9779 19.6875 72.5305 19.6875 72.5305ZM70.3125 72.5305C70.3125 72.5305 73.125 73.9779 73.125 75.343V80.968H67.5V75.343C67.5 73.9779 70.3125 72.5305 70.3125 72.5305Z" fill="#1E293B"/>
</g>
<defs>
<filter id="filter0_d_429_554" x="-1.1875" y="0" width="92.375" height="88.1984" filterUnits="userSpaceOnUse" color-interpolation-filters="sRGB">
<feFlood flood-opacity="0" result="BackgroundImageFix"/>
<feColorMatrix in="SourceAlpha" type="matrix" values="0 0 0 0 0 0 0 0 0 0 0 0 0 0 0 0 0 0 127 0" result="hardAlpha"/>
<feOffset dy="2"/>
<feGaussianBlur stdDeviation="2"/>
<feComposite in2="hardAlpha" operator="out"/>
<feColorMatrix type="matrix" values="0 0 0 0 0 0 0 0 0 0 0 0 0 0 0 0 0 0 0.25 0"/>
<feBlend mode="normal" in2="BackgroundImageFix" result="effect1_dropShadow_429_554"/>
<feBlend mode="normal" in="SourceGraphic" in2="effect1_dropShadow_429_554" result="shape"/>
</filter>
</defs>
</svg>
