<svg width="70" height="70" viewBox="0 0 70 70" fill="none" xmlns="http://www.w3.org/2000/svg">
<g clip-path="url(#clip0_538_675)">
<g filter="url(#filter0_d_538_675)">
<path d="M6.42578 19.8242C5.05859 19.8242 3.28125 21.5195 3.28125 23.2285V41.5898L10.4576 42.6152C11.617 40.6055 13.7949 39.2383 16.2695 39.2383C19.1406 39.2383 21.6016 41.0566 22.5449 43.6133H48.2754C49.2188 41.0566 51.6797 39.2383 54.5508 39.2383C57.4219 39.2383 59.8828 41.0566 60.8262 43.6133H66.7188V33.0586L62.4121 19.8242H6.42578ZM5.19531 21.7383H60.6484L64.1484 32.9492H40.4688V41.6992H27.0703V32.9492H5.19531V21.7383ZM7.65625 24.1992V30.4883H16.1328V24.1992H7.65625ZM18.5938 24.1992V30.4883H27.0703V24.1992H18.5938ZM29.5312 24.1992V39.2383H32.5391V24.1992H29.5312ZM35 24.1992V39.2383H38.0078V24.1992H35ZM40.4688 24.1992V30.4883H48.9453V24.1992H40.4688ZM52.3086 24.1992V30.4883H60.8125L58.8438 24.1992H52.3086ZM16.2695 41.6992C13.918 41.6992 12.0312 43.5859 12.0312 45.9375C12.0312 48.2891 13.918 50.1758 16.2695 50.1758C18.6211 50.1758 20.5078 48.2891 20.5078 45.9375C20.5078 43.5859 18.6211 41.6992 16.2695 41.6992ZM54.5508 41.6992C52.1992 41.6992 50.3125 43.5859 50.3125 45.9375C50.3125 48.2891 52.1992 50.1758 54.5508 50.1758C56.9023 50.1758 58.7891 48.2891 58.7891 45.9375C58.7891 43.5859 56.9023 41.6992 54.5508 41.6992ZM16.2695 44.8438C16.5596 44.8438 16.8378 44.959 17.0429 45.1641C17.248 45.3692 17.3633 45.6474 17.3633 45.9375C17.3633 46.2276 17.248 46.5058 17.0429 46.7109C16.8378 46.916 16.5596 47.0312 16.2695 47.0312C15.9795 47.0312 15.7013 46.916 15.4961 46.7109C15.291 46.5058 15.1758 46.2276 15.1758 45.9375C15.1758 45.6474 15.291 45.3692 15.4961 45.1641C15.7013 44.959 15.9795 44.8438 16.2695 44.8438ZM54.5508 44.8438C54.8409 44.8438 55.1191 44.959 55.3242 45.1641C55.5293 45.3692 55.6445 45.6474 55.6445 45.9375C55.6445 46.2276 55.5293 46.5058 55.3242 46.7109C55.1191 46.916 54.8409 47.0312 54.5508 47.0312C54.2607 47.0312 53.9825 46.916 53.7774 46.7109C53.5723 46.5058 53.457 46.2276 53.457 45.9375C53.457 45.6474 53.5723 45.3692 53.7774 45.1641C53.9825 44.959 54.2607 44.8438 54.5508 44.8438Z" fill="#1E293B"/>
</g>
</g>
<defs>
<filter id="filter0_d_538_675" x="1.28125" y="17.8242" width="71.4375" height="38.3516" filterUnits="userSpaceOnUse" color-interpolation-filters="sRGB">
<feFlood flood-opacity="0" result="BackgroundImageFix"/>
<feColorMatrix in="SourceAlpha" type="matrix" values="0 0 0 0 0 0 0 0 0 0 0 0 0 0 0 0 0 0 127 0" result="hardAlpha"/>
<feOffset dx="2" dy="2"/>
<feGaussianBlur stdDeviation="2"/>
<feComposite in2="hardAlpha" operator="out"/>
<feColorMatrix type="matrix" values="0 0 0 0 0 0 0 0 0 0 0 0 0 0 0 0 0 0 0.25 0"/>
<feBlend mode="normal" in2="BackgroundImageFix" result="effect1_dropShadow_538_675"/>
<feBlend mode="normal" in="SourceGraphic" in2="effect1_dropShadow_538_675" result="shape"/>
</filter>
<clipPath id="clip0_538_675">
<rect width="70" height="70" fill="white"/>
</clipPath>
</defs>
</svg>
