<svg width="90" height="90" viewBox="0 0 90 90" fill="none" xmlns="http://www.w3.org/2000/svg">
<g clip-path="url(#clip0_430_577)">
<g filter="url(#filter0_d_430_577)">
<path d="M83.4751 12.5625C83.123 12.1509 82.6859 11.8204 82.1939 11.5938C81.7019 11.3673 81.1667 11.25 80.6251 11.25H46.8751C46.3426 11.2507 45.8164 11.3647 45.3315 11.5846C44.8465 11.8044 44.414 12.125 44.0626 12.525C43.7103 12.9263 43.4477 13.3981 43.2925 13.909C43.1373 14.4199 43.093 14.9581 43.1626 15.4875L46.9126 43.6125C46.9766 44.105 47.137 44.58 47.3846 45.0105C47.6322 45.4409 47.9621 45.8184 48.3556 46.1214C48.7491 46.4243 49.1984 46.6468 49.6779 46.7761C50.1574 46.9054 50.6576 46.939 51.1501 46.875C51.6425 46.811 52.1175 46.6506 52.548 46.403C52.9785 46.1554 53.356 45.8254 53.6589 45.4319C53.9619 45.0384 54.1844 44.5891 54.3137 44.1097C54.443 43.6302 54.4766 43.13 54.4126 42.6375L51.3751 19.8C51.3539 19.6719 51.3632 19.5406 51.4023 19.4168C51.4414 19.293 51.5091 19.1802 51.6001 19.0875C51.6788 18.9919 51.7756 18.9129 51.885 18.855C51.9945 18.7971 52.1143 18.7614 52.2376 18.75H75.0001C75.1376 18.7423 75.2748 18.7692 75.3992 18.8281C75.5237 18.8871 75.6314 18.9763 75.7126 19.0875C75.8041 19.1875 75.8719 19.3069 75.9109 19.4367C75.9499 19.5666 75.959 19.7036 75.9376 19.8375L71.8501 44.475C71.686 45.4696 71.9237 46.4886 72.5109 47.3079C73.0981 48.1272 73.9867 48.6796 74.9813 48.8438C75.4738 48.925 75.9774 48.9085 76.4635 48.7951C76.9495 48.6817 77.4085 48.4737 77.8142 48.1829C78.6335 47.5957 79.186 46.7071 79.3501 45.7125L84.3751 15.7125C84.4732 15.1536 84.4431 14.5797 84.2872 14.034C84.1313 13.4884 83.8536 12.9852 83.4751 12.5625Z" fill="#1E293B"/>
</g>
<g filter="url(#filter1_d_430_577)">
<path d="M71.25 52.4999H48.75C48.5755 52.5062 48.4032 52.4594 48.2559 52.3657C48.1086 52.2719 47.9932 52.1357 47.925 51.9749L44.325 44.9999C44.1889 44.7163 43.9836 44.4714 43.728 44.2879C43.4724 44.1044 43.1748 43.9882 42.8625 43.9499C42.5473 43.9137 42.228 43.9563 41.9334 44.0742C41.6389 44.192 41.3782 44.3813 41.175 44.6249L34.125 53.2874C33.545 53.9021 32.7555 54.2768 31.9125 54.3374H28.1625C27.9099 54.3323 27.659 54.3783 27.4246 54.4726C27.1903 54.5669 26.9774 54.7076 26.7988 54.8862C26.6202 55.0649 26.4795 55.2777 26.3852 55.5121C26.2909 55.7464 26.2449 55.9974 26.25 56.2499V78.7499C26.2439 79.0421 26.309 79.3313 26.4396 79.5926C26.5703 79.854 26.7626 80.0796 27 80.2499C35.625 86.7374 42.3 89.9999 46.875 89.9999H67.6875C69.3203 90.2762 70.9965 89.9062 72.3614 88.9683C73.7262 88.0304 74.6725 86.5983 75 84.9749C76.827 76.1151 78.0796 67.1464 78.75 58.1249C78.75 55.3124 76.1625 52.4999 71.25 52.4999ZM18.1125 50.6249H6.5625C6.31386 50.6249 6.0754 50.7237 5.89959 50.8995C5.72377 51.0753 5.625 51.3138 5.625 51.5624V85.3124C5.625 85.5611 5.72377 85.7995 5.89959 85.9754C6.0754 86.1512 6.31386 86.2499 6.5625 86.2499H18.1125C18.4261 86.2868 18.744 86.2572 19.0454 86.1632C19.3468 86.0691 19.6251 85.9126 19.8621 85.7039C20.0991 85.4952 20.2895 85.239 20.4209 84.9519C20.5524 84.6648 20.6219 84.3532 20.625 84.0374V52.8374C20.6219 52.5217 20.5524 52.2101 20.4209 51.923C20.2895 51.6359 20.0991 51.3797 19.8621 51.171C19.6251 50.9623 19.3468 50.8058 19.0454 50.7117C18.744 50.6177 18.4261 50.5881 18.1125 50.6249ZM58.125 33.7499C58.125 35.2418 58.7176 36.6725 59.7725 37.7274C60.8274 38.7823 62.2582 39.3749 63.75 39.3749C65.2418 39.3749 66.6726 38.7823 67.7275 37.7274C68.7824 36.6725 69.375 35.2418 69.375 33.7499C69.375 32.2581 68.7824 30.8274 67.7275 29.7725C66.6726 28.7176 65.2418 28.1249 63.75 28.1249C62.2582 28.1249 60.8274 28.7176 59.7725 29.7725C58.7176 30.8274 58.125 32.2581 58.125 33.7499ZM37.5 41.2499C38.0473 41.257 38.5895 41.1442 39.0885 40.9194C39.5875 40.6946 40.0313 40.3633 40.3886 39.9488C40.746 39.5342 41.0083 39.0465 41.1571 38.5198C41.3059 37.9931 41.3376 37.4402 41.25 36.8999L36.4875 8.58745C36.3952 8.34597 36.3952 8.07892 36.4875 7.83745C36.6019 7.68489 36.7601 7.57086 36.941 7.51055C37.1219 7.45025 37.3169 7.44655 37.5 7.49995H67.5C68.4946 7.49995 69.4484 7.10486 70.1517 6.4016C70.8549 5.69834 71.25 4.74451 71.25 3.74995C71.25 2.75538 70.8549 1.80156 70.1517 1.0983C69.4484 0.395034 68.4946 -5.43135e-05 67.5 -5.43135e-05H31.875C31.3277 -0.00711277 30.7855 0.10571 30.2865 0.330492C29.7875 0.555274 29.3437 0.886567 28.9864 1.30111C28.629 1.71565 28.3667 2.2034 28.2179 2.7301C28.0691 3.2568 28.0374 3.80969 28.125 4.34995L33.75 38.0999C33.8938 38.9873 34.3515 39.7935 35.0398 40.3717C35.7281 40.9498 36.6012 41.2615 37.5 41.2499Z" fill="#1E293B"/>
</g>
</g>
<defs>
<filter id="filter0_d_430_577" x="39.1306" y="9.25" width="49.3008" height="45.6444" filterUnits="userSpaceOnUse" color-interpolation-filters="sRGB">
<feFlood flood-opacity="0" result="BackgroundImageFix"/>
<feColorMatrix in="SourceAlpha" type="matrix" values="0 0 0 0 0 0 0 0 0 0 0 0 0 0 0 0 0 0 127 0" result="hardAlpha"/>
<feOffset dy="2"/>
<feGaussianBlur stdDeviation="2"/>
<feComposite in2="hardAlpha" operator="out"/>
<feColorMatrix type="matrix" values="0 0 0 0 0 0 0 0 0 0 0 0 0 0 0 0 0 0 0.25 0"/>
<feBlend mode="normal" in2="BackgroundImageFix" result="effect1_dropShadow_430_577"/>
<feBlend mode="normal" in="SourceGraphic" in2="effect1_dropShadow_430_577" result="shape"/>
</filter>
<filter id="filter1_d_430_577" x="1.625" y="-2.00037" width="81.125" height="98.0896" filterUnits="userSpaceOnUse" color-interpolation-filters="sRGB">
<feFlood flood-opacity="0" result="BackgroundImageFix"/>
<feColorMatrix in="SourceAlpha" type="matrix" values="0 0 0 0 0 0 0 0 0 0 0 0 0 0 0 0 0 0 127 0" result="hardAlpha"/>
<feOffset dy="2"/>
<feGaussianBlur stdDeviation="2"/>
<feComposite in2="hardAlpha" operator="out"/>
<feColorMatrix type="matrix" values="0 0 0 0 0 0 0 0 0 0 0 0 0 0 0 0 0 0 0.25 0"/>
<feBlend mode="normal" in2="BackgroundImageFix" result="effect1_dropShadow_430_577"/>
<feBlend mode="normal" in="SourceGraphic" in2="effect1_dropShadow_430_577" result="shape"/>
</filter>
<clipPath id="clip0_430_577">
<rect width="90" height="90" fill="white"/>
</clipPath>
</defs>
</svg>
