<svg width="70" height="70" viewBox="0 0 70 70" fill="none" xmlns="http://www.w3.org/2000/svg">
<g clip-path="url(#clip0_523_545)">
<g filter="url(#filter0_d_523_545)">
<path d="M23.3337 5.83331H46.667M26.2503 5.83331V9.7504M43.7503 5.83331V13.9679C43.7504 16.2714 44.4324 18.5234 45.7103 20.44L47.6237 23.31C48.9022 25.2274 49.5842 27.4804 49.5837 29.785V33.0837M22.7503 22.75L22.377 23.31C21.0985 25.2274 20.4165 27.4804 20.417 29.785V58.3333C20.417 59.8804 21.0316 61.3641 22.1255 62.4581C23.2195 63.5521 24.7032 64.1666 26.2503 64.1666H43.7503C45.2974 64.1666 46.7812 63.5521 47.8751 62.4581C48.9691 61.3641 49.5837 59.8804 49.5837 58.3333V49.5833" stroke="#1E293B" stroke-width="4" stroke-linecap="round" stroke-linejoin="round" shape-rendering="crispEdges"/>
</g>
<g filter="url(#filter1_d_523_545)">
<path d="M20.4168 43.75C22.7261 42.7825 25.2048 42.2843 27.7085 42.2843C30.2122 42.2843 32.6909 42.7825 35.0002 43.75C38.1625 45.0752 41.6261 45.5139 45.0189 45.0187M5.8335 5.83331L64.1668 64.1666" stroke="#1E293B" stroke-width="4" stroke-linecap="round" stroke-linejoin="round" shape-rendering="crispEdges"/>
</g>
</g>
<defs>
<filter id="filter0_d_523_545" x="16.417" y="1.83331" width="41.1665" height="70.3333" filterUnits="userSpaceOnUse" color-interpolation-filters="sRGB">
<feFlood flood-opacity="0" result="BackgroundImageFix"/>
<feColorMatrix in="SourceAlpha" type="matrix" values="0 0 0 0 0 0 0 0 0 0 0 0 0 0 0 0 0 0 127 0" result="hardAlpha"/>
<feOffset dx="2" dy="2"/>
<feGaussianBlur stdDeviation="2"/>
<feComposite in2="hardAlpha" operator="out"/>
<feColorMatrix type="matrix" values="0 0 0 0 0 0 0 0 0 0 0 0 0 0 0 0 0 0 0.25 0"/>
<feBlend mode="normal" in2="BackgroundImageFix" result="effect1_dropShadow_523_545"/>
<feBlend mode="normal" in="SourceGraphic" in2="effect1_dropShadow_523_545" result="shape"/>
</filter>
<filter id="filter1_d_523_545" x="1.8335" y="1.83331" width="70.3335" height="70.3333" filterUnits="userSpaceOnUse" color-interpolation-filters="sRGB">
<feFlood flood-opacity="0" result="BackgroundImageFix"/>
<feColorMatrix in="SourceAlpha" type="matrix" values="0 0 0 0 0 0 0 0 0 0 0 0 0 0 0 0 0 0 127 0" result="hardAlpha"/>
<feOffset dx="2" dy="2"/>
<feGaussianBlur stdDeviation="2"/>
<feComposite in2="hardAlpha" operator="out"/>
<feColorMatrix type="matrix" values="0 0 0 0 0 0 0 0 0 0 0 0 0 0 0 0 0 0 0.25 0"/>
<feBlend mode="normal" in2="BackgroundImageFix" result="effect1_dropShadow_523_545"/>
<feBlend mode="normal" in="SourceGraphic" in2="effect1_dropShadow_523_545" result="shape"/>
</filter>
<clipPath id="clip0_523_545">
<rect width="70" height="70" fill="white"/>
</clipPath>
</defs>
</svg>
