<svg width="90" height="90" viewBox="0 0 90 90" fill="none" xmlns="http://www.w3.org/2000/svg">
<g clip-path="url(#clip0_464_490)">
<g filter="url(#filter0_d_464_490)">
<path d="M26.543 36.6328C26.543 36.0547 26.3133 35.5003 25.9046 35.0915C25.4958 34.6828 24.9414 34.4531 24.3633 34.4531H32.9456C33.5237 34.4531 34.0781 34.2235 34.4869 33.8147C34.8957 33.4059 35.1253 32.8515 35.1253 32.2734C35.1253 31.6953 34.8957 31.1409 34.4869 30.7322C34.0781 30.3234 33.5237 30.0938 32.9456 30.0938H13.5745C12.9964 30.0938 12.442 30.3234 12.0333 30.7322C11.6245 31.1409 11.3948 31.6953 11.3948 32.2734C11.3948 32.8515 11.6245 33.4059 12.0333 33.8147C12.442 34.2235 12.9964 34.4531 13.5745 34.4531H4.99219C4.4141 34.4531 3.85969 34.6828 3.45092 35.0915C3.04214 35.5003 2.8125 36.0547 2.8125 36.6328C2.8125 37.2109 3.04214 37.7653 3.45092 38.1741C3.85969 38.5829 4.4141 38.8125 4.99219 38.8125H24.3633C24.9414 38.8125 25.4958 38.5829 25.9046 38.1741C26.3133 37.7653 26.543 37.2109 26.543 36.6328ZM85.0078 54.2461H79.9538C80.5318 54.2461 81.0863 54.0164 81.495 53.6077C81.9038 53.1989 82.1334 52.6445 82.1334 52.0664C82.1334 51.4883 81.9038 50.9339 81.495 50.5251C81.0863 50.1164 80.5318 49.8867 79.9538 49.8867H60.5841C60.006 49.8867 59.4516 50.1164 59.0428 50.5251C58.634 50.9339 58.4044 51.4883 58.4044 52.0664C58.4044 52.6445 58.634 53.1989 59.0428 53.6077C59.4516 54.0164 60.006 54.2461 60.5841 54.2461H65.6367C65.0584 54.2461 64.5039 54.4758 64.095 54.8847C63.6861 55.2936 63.4563 55.8482 63.4563 56.4265C63.4563 57.0048 63.6861 57.5594 64.095 57.9683C64.5039 58.3772 65.0584 58.6069 65.6367 58.6069H85.0078C85.5861 58.6069 86.1407 58.3772 86.5496 57.9683C86.9585 57.5594 87.1882 57.0048 87.1882 56.4265C87.1882 55.8482 86.9585 55.2936 86.5496 54.8847C86.1407 54.4758 85.5861 54.2461 85.0078 54.2461ZM53.7891 66.3131V65.4131L55.5469 60.8189V59.9189H52.2745L50.483 53.4769H52.1072V49.6997H51.6895V46.9223H51.1945V44.1464H50.9062V41.3705H48.8152L47.8617 33.4055V32.5055H49.7419V28.7044H48.1584V26.2209H49.7419V20.7492H46.7367V2.8125H43.2633V20.7534H40.2581V26.2252H41.8416V28.7086H40.2581V32.5097H42.1383V33.4097L41.1848 41.3747H39.0938V44.1506H38.8055V46.9266H38.3105V49.7039H37.8928V53.4811H39.517L37.7255 59.9231H34.4531V60.8231L36.2109 65.4173V66.3173C33.9567 74.5791 30.7308 80.5753 23.9062 87.1875H34.1128C34.1128 87.1875 37.7241 74.6634 45 74.6634C52.2759 74.6634 55.8872 87.1875 55.8872 87.1875H66.0938C59.2678 80.5753 56.0433 74.5791 53.7891 66.3131ZM44.2519 12.6534V5.72766H45.7467V12.6534H44.2519ZM41.2467 23.5617H48.7533V25.2352H41.2467V23.5617ZM47.1698 26.2252V28.215H42.8316V26.2252H47.1698ZM41.2467 31.5211V29.6986H48.7533V31.5211H41.2467ZM47.257 37.9505V41.3733H45.5681V37.9505C45.577 37.7325 45.6699 37.5264 45.8273 37.3753C45.9847 37.2242 46.1944 37.1398 46.4126 37.1398C46.6308 37.1398 46.8405 37.2242 46.9979 37.3753C47.1553 37.5264 47.2481 37.7325 47.257 37.9505ZM44.4305 37.9505V41.3733H42.7416V37.9505C42.7567 37.7368 42.8522 37.5368 43.0089 37.3908C43.1656 37.2448 43.3718 37.1636 43.586 37.1636C43.8002 37.1636 44.0064 37.2448 44.1631 37.3908C44.3198 37.5368 44.4154 37.7368 44.4305 37.9505ZM40.0823 42.3619H49.9177V44.1492H40.0823V42.3619ZM39.7941 45.1505H50.2059V46.9252H39.7941V45.1505ZM39.2991 47.9264H50.6995V49.7025H39.2991V47.9264ZM38.8814 52.4897V50.7023H51.1172V52.4897H38.8814ZM49.8895 55.7564V59.9203H48.2006V55.7564C48.2006 55.5324 48.2896 55.3176 48.448 55.1593C48.6063 55.0009 48.8211 54.912 49.0451 54.912C49.269 54.912 49.4838 55.0009 49.6422 55.1593C49.8006 55.3176 49.8895 55.5324 49.8895 55.7564ZM47.1938 55.7564V59.9203H45.5034V55.7564C45.5034 55.5323 45.5925 55.3173 45.751 55.1588C45.9095 55.0003 46.1244 54.9113 46.3486 54.9113C46.5727 54.9113 46.7877 55.0003 46.9462 55.1588C47.1047 55.3173 47.1938 55.5323 47.1938 55.7564ZM44.4966 55.7564V59.9203H42.8077V55.7564C42.8077 55.5324 42.8966 55.3176 43.055 55.1593C43.2134 55.0009 43.4281 54.912 43.6521 54.912C43.8761 54.912 44.0909 55.0009 44.2492 55.1593C44.4076 55.3176 44.4966 55.5324 44.4966 55.7564ZM41.8008 55.7564V59.9203H40.1119V55.7564C40.1119 55.6455 40.1337 55.5357 40.1762 55.4332C40.2186 55.3308 40.2808 55.2377 40.3592 55.1593C40.4376 55.0809 40.5307 55.0187 40.6332 54.9762C40.7356 54.9338 40.8454 54.912 40.9563 54.912C41.0672 54.912 41.177 54.9338 41.2795 54.9762C41.3819 55.0187 41.475 55.0809 41.5534 55.1593C41.6319 55.2377 41.6941 55.3308 41.7365 55.4332C41.7789 55.5357 41.8008 55.6455 41.8008 55.7564ZM36.8916 64.4245L35.8903 61.8089H54.1111L53.1084 64.4245H36.8916Z" fill="#1E293B"/>
</g>
</g>
<defs>
<filter id="filter0_d_464_490" x="0.8125" y="0.8125" width="92.3755" height="92.375" filterUnits="userSpaceOnUse" color-interpolation-filters="sRGB">
<feFlood flood-opacity="0" result="BackgroundImageFix"/>
<feColorMatrix in="SourceAlpha" type="matrix" values="0 0 0 0 0 0 0 0 0 0 0 0 0 0 0 0 0 0 127 0" result="hardAlpha"/>
<feOffset dx="2" dy="2"/>
<feGaussianBlur stdDeviation="2"/>
<feComposite in2="hardAlpha" operator="out"/>
<feColorMatrix type="matrix" values="0 0 0 0 0 0 0 0 0 0 0 0 0 0 0 0 0 0 0.25 0"/>
<feBlend mode="normal" in2="BackgroundImageFix" result="effect1_dropShadow_464_490"/>
<feBlend mode="normal" in="SourceGraphic" in2="effect1_dropShadow_464_490" result="shape"/>
</filter>
<clipPath id="clip0_464_490">
<rect width="90" height="90" fill="white"/>
</clipPath>
</defs>
</svg>
