<svg width="17" height="17" viewBox="0 0 17 17" fill="none" xmlns="http://www.w3.org/2000/svg">
<path d="M10.6027 12.7233V13.2534C10.6027 13.8158 10.3793 14.3552 9.98158 14.7528C9.58391 15.1505 9.04454 15.3739 8.48214 15.3739C7.91974 15.3739 7.38037 15.1505 6.98269 14.7528C6.58502 14.3552 6.3616 13.8158 6.3616 13.2534V12.7233M14.1705 11.6441C13.3196 10.6027 12.7189 10.0726 12.7189 7.20159C12.7189 4.57246 11.3763 3.63578 10.2713 3.18086C10.1246 3.12055 9.98639 2.98206 9.94166 2.8313C9.74783 2.17161 9.20445 1.59045 8.48214 1.59045C7.75983 1.59045 7.21611 2.17194 7.02427 2.83196C6.97954 2.98438 6.84137 3.12055 6.69459 3.18086C5.58827 3.63644 4.24703 4.56981 4.24703 7.20159C4.24537 10.0726 3.64467 10.6027 2.7938 11.6441C2.44126 12.0755 2.75007 12.7233 3.36668 12.7233H13.6009C14.2142 12.7233 14.521 12.0735 14.1705 11.6441Z" stroke="#1E293B" stroke-linecap="round" stroke-linejoin="round"/>
</svg>
