<svg width="87" height="81" viewBox="0 0 87 81" fill="none" xmlns="http://www.w3.org/2000/svg">
<g filter="url(#filter0_d_429_566)">
<path d="M18.0635 2.00001C17.5417 2.00002 17.0301 2.14525 16.586 2.41943C16.142 2.69361 15.783 3.08593 15.5492 3.55251L4.29917 26.0525C4.05588 26.5369 3.95776 27.0814 4.01664 27.6203C4.07552 28.1591 4.28888 28.6695 4.63105 29.09L41.1936 74.09C41.4573 74.4145 41.79 74.676 42.1675 74.8557C42.5451 75.0354 42.9579 75.1286 43.376 75.1286C43.7942 75.1286 44.207 75.0354 44.5845 74.8557C44.9621 74.676 45.2948 74.4145 45.5585 74.09L82.121 29.09C82.4641 28.6701 82.6785 28.16 82.7384 27.6211C82.7983 27.0822 82.7011 26.5375 82.4585 26.0525L71.2085 3.55251C70.9743 3.08507 70.6144 2.69218 70.1693 2.41795C69.7242 2.14371 69.2114 1.99898 68.6886 2.00001H18.0635ZM11.3642 24.5L19.8017 7.62501H31.3329L27.1142 24.5H11.3642ZM12.7198 30.125H27.2492L36.3223 59.1725L12.7198 30.125ZM33.1385 30.125H53.6135L43.376 62.8794L33.1385 30.125ZM59.5086 30.125H74.0323L50.4298 59.1725L59.5086 30.125ZM75.3879 24.5H59.6379L55.4192 7.62501H66.9504L75.3879 24.5ZM53.8386 24.5H32.9135L37.1323 7.62501H49.6198L53.8386 24.5Z" fill="#1E293B"/>
</g>
<defs>
<filter id="filter0_d_429_566" x="0" y="0" width="86.7556" height="81.1285" filterUnits="userSpaceOnUse" color-interpolation-filters="sRGB">
<feFlood flood-opacity="0" result="BackgroundImageFix"/>
<feColorMatrix in="SourceAlpha" type="matrix" values="0 0 0 0 0 0 0 0 0 0 0 0 0 0 0 0 0 0 127 0" result="hardAlpha"/>
<feOffset dy="2"/>
<feGaussianBlur stdDeviation="2"/>
<feComposite in2="hardAlpha" operator="out"/>
<feColorMatrix type="matrix" values="0 0 0 0 0 0 0 0 0 0 0 0 0 0 0 0 0 0 0.25 0"/>
<feBlend mode="normal" in2="BackgroundImageFix" result="effect1_dropShadow_429_566"/>
<feBlend mode="normal" in="SourceGraphic" in2="effect1_dropShadow_429_566" result="shape"/>
</filter>
</defs>
</svg>
