<svg width="70" height="70" viewBox="0 0 70 70" fill="none" xmlns="http://www.w3.org/2000/svg">
<g clip-path="url(#clip0_556_1272)">
<g filter="url(#filter0_d_556_1272)">
<path d="M64.1663 23.8058V24.0187C64.1663 26.5271 64.1663 27.7842 63.5626 28.8108C62.9588 29.8375 61.8593 30.4471 59.6659 31.6692L57.353 32.9525C58.9455 27.5625 59.4793 21.77 59.6747 16.8175L59.7038 16.1729L59.7097 16.0212C61.6084 16.6804 62.6759 17.1733 63.3409 18.095C64.1663 19.2412 64.1663 20.7637 64.1663 23.8058ZM5.83301 23.8058V24.0187C5.83301 26.5271 5.83301 27.7842 6.43676 28.8108C7.04051 29.8375 8.14009 30.4471 10.3334 31.6692L12.6493 32.9525C11.0538 27.5625 10.5201 21.77 10.3247 16.8175L10.2955 16.1729L10.2926 16.0212C8.39092 16.6804 7.32342 17.1733 6.65842 18.095C5.83301 19.2412 5.83301 20.7667 5.83301 23.8058Z" fill="#1E293B"/>
</g>
<g filter="url(#filter1_d_556_1272)">
<path fill-rule="evenodd" clip-rule="evenodd" d="M34.9998 5.83333C40.2031 5.83333 44.4877 6.29125 47.766 6.84542C51.0881 7.40542 52.7477 7.68542 54.136 9.39458C55.5243 11.1037 55.4485 12.95 55.3027 16.6425C54.801 29.3271 52.0652 45.1675 37.1873 46.5675V56.875H41.3581C42.0321 56.8754 42.6852 57.1092 43.2063 57.5368C43.7274 57.9643 44.0843 58.5591 44.2164 59.22L44.7706 61.9792H52.4998C53.0799 61.9792 53.6363 62.2096 54.0466 62.6199C54.4568 63.0301 54.6873 63.5865 54.6873 64.1667C54.6873 64.7468 54.4568 65.3032 54.0466 65.7135C53.6363 66.1237 53.0799 66.3542 52.4998 66.3542H17.4998C16.9196 66.3542 16.3632 66.1237 15.953 65.7135C15.5427 65.3032 15.3123 64.7468 15.3123 64.1667C15.3123 63.5865 15.5427 63.0301 15.953 62.6199C16.3632 62.2096 16.9196 61.9792 17.4998 61.9792H25.2289L25.7831 59.22C25.9152 58.5591 26.2721 57.9643 26.7932 57.5368C27.3143 57.1092 27.9674 56.8754 28.6414 56.875H32.8123V46.5675C17.9373 45.1675 15.2014 29.3242 14.6998 16.6425C14.551 12.95 14.4781 11.1008 15.8664 9.39458C17.2518 7.68542 18.9114 7.40542 22.2335 6.84542C26.4534 6.15415 30.7236 5.81562 34.9998 5.83333ZM37.7764 18.0804L37.4906 17.5671C36.3823 15.575 35.8281 14.5833 34.9998 14.5833C34.1714 14.5833 33.6173 15.575 32.5089 17.5671L32.2231 18.0804C31.9081 18.6462 31.7506 18.9262 31.5056 19.1129C31.2577 19.2996 30.9514 19.3696 30.3389 19.5067L29.7848 19.635C27.6323 20.1221 26.556 20.3642 26.2993 21.1867C26.0427 22.0092 26.7777 22.8696 28.2448 24.5846L28.6239 25.0279C29.041 25.515 29.251 25.7571 29.3443 26.0604C29.4377 26.3638 29.4056 26.6875 29.3443 27.3379L29.286 27.93C29.0643 30.2196 28.9535 31.3658 29.6214 31.8733C30.2923 32.3808 31.3014 31.9171 33.3168 30.9896L33.836 30.7504C34.4106 30.4879 34.6964 30.3567 34.9998 30.3567C35.3031 30.3567 35.5889 30.4879 36.1635 30.7504L36.6827 30.9896C38.6981 31.92 39.7073 32.3808 40.3781 31.8733C41.0489 31.3658 40.9352 30.2196 40.7135 27.93L40.6552 27.3379C40.5939 26.6875 40.5618 26.3638 40.6552 26.0604C40.7485 25.7571 40.9585 25.515 41.3756 25.0279L41.7548 24.5846C43.2218 22.8696 43.9568 22.0121 43.7002 21.1867C43.4435 20.3642 42.3673 20.1221 40.2148 19.635L39.6606 19.5067C39.0481 19.3696 38.7418 19.3025 38.4939 19.1129C38.2489 18.9262 38.0914 18.6462 37.7764 18.0804Z" fill="#1E293B"/>
</g>
</g>
<defs>
<filter id="filter0_d_556_1272" x="3.83301" y="14.0212" width="66.333" height="24.9313" filterUnits="userSpaceOnUse" color-interpolation-filters="sRGB">
<feFlood flood-opacity="0" result="BackgroundImageFix"/>
<feColorMatrix in="SourceAlpha" type="matrix" values="0 0 0 0 0 0 0 0 0 0 0 0 0 0 0 0 0 0 127 0" result="hardAlpha"/>
<feOffset dx="2" dy="2"/>
<feGaussianBlur stdDeviation="2"/>
<feComposite in2="hardAlpha" operator="out"/>
<feColorMatrix type="matrix" values="0 0 0 0 0 0 0 0 0 0 0 0 0 0 0 0 0 0 0.25 0"/>
<feBlend mode="normal" in2="BackgroundImageFix" result="effect1_dropShadow_556_1272"/>
<feBlend mode="normal" in="SourceGraphic" in2="effect1_dropShadow_556_1272" result="shape"/>
</filter>
<filter id="filter1_d_556_1272" x="12.623" y="3.83267" width="48.7549" height="68.5215" filterUnits="userSpaceOnUse" color-interpolation-filters="sRGB">
<feFlood flood-opacity="0" result="BackgroundImageFix"/>
<feColorMatrix in="SourceAlpha" type="matrix" values="0 0 0 0 0 0 0 0 0 0 0 0 0 0 0 0 0 0 127 0" result="hardAlpha"/>
<feOffset dx="2" dy="2"/>
<feGaussianBlur stdDeviation="2"/>
<feComposite in2="hardAlpha" operator="out"/>
<feColorMatrix type="matrix" values="0 0 0 0 0 0 0 0 0 0 0 0 0 0 0 0 0 0 0.25 0"/>
<feBlend mode="normal" in2="BackgroundImageFix" result="effect1_dropShadow_556_1272"/>
<feBlend mode="normal" in="SourceGraphic" in2="effect1_dropShadow_556_1272" result="shape"/>
</filter>
<clipPath id="clip0_556_1272">
<rect width="70" height="70" fill="white"/>
</clipPath>
</defs>
</svg>
