<svg width="90" height="90" viewBox="0 0 90 90" fill="none" xmlns="http://www.w3.org/2000/svg">
<g clip-path="url(#clip0_467_632)">
<g filter="url(#filter0_d_467_632)">
<path fill-rule="evenodd" clip-rule="evenodd" d="M36.2737 12.9263C36.6021 11.0626 37.6229 9.39191 39.1313 8.24925C40.6398 7.10659 42.5245 6.57641 44.4075 6.76503L44.9625 6.84003L59.7375 9.44628C61.6005 9.77548 63.2703 10.7966 64.4122 12.305C65.5541 13.8134 66.0837 15.6976 65.895 17.58L65.82 18.135L65.1675 21.825C66.073 21.9844 66.8884 22.4708 67.4587 23.1919C68.0291 23.913 68.3147 24.8184 68.2612 25.7363L68.2087 26.1713L65.6025 40.9463C66.5371 41.12 67.3709 41.6421 67.9352 42.4072C68.4995 43.1722 68.7522 44.123 68.6421 45.0673C68.5321 46.0115 68.0675 46.8787 67.3424 47.4935C66.6173 48.1082 65.6858 48.4247 64.7362 48.3788L64.3012 48.33L62.3512 59.4075C63.2936 59.5741 64.1366 60.0946 64.7077 60.8625C65.2788 61.6303 65.5347 62.5875 65.423 63.5379C65.3113 64.4883 64.8405 65.3601 64.107 65.9747C63.3735 66.5893 62.4328 66.9002 61.4775 66.8438L61.0425 66.795L58.14 83.1563C57.9995 83.9477 57.6084 84.673 57.0243 85.2253C56.4403 85.7776 55.6943 86.1276 54.8962 86.2238L54.4462 86.25H23.9887C23.4804 86.2502 22.9774 86.1469 22.5102 85.9466C22.043 85.7463 21.6214 85.4531 21.271 85.0849C20.9206 84.7166 20.6487 84.2809 20.4719 83.8044C20.2951 83.3278 20.2171 82.8202 20.2425 82.3125L20.295 81.8475L24.1162 60.285C23.1673 60.1258 22.3158 59.6079 21.738 58.8385C21.1602 58.069 20.9003 57.1069 21.0121 56.1512C21.1239 55.1955 21.5987 54.3193 22.3384 53.7039C23.0782 53.0885 24.0261 52.781 24.9862 52.845L25.4212 52.8975L27.3712 41.8163C26.4296 41.6494 25.5873 41.129 25.0166 40.3617C24.4459 39.5943 24.19 38.6379 24.3011 37.6881C24.4122 36.7382 24.882 35.8667 25.6144 35.2518C26.3468 34.6369 27.2865 34.3251 28.2412 34.38L28.6762 34.4325L31.2825 19.6575C31.4407 18.7628 31.9183 17.9559 32.6267 17.3869C33.3351 16.8179 34.2259 16.5254 35.1337 16.5638L35.625 16.6163L36.2775 12.9225L36.2737 12.9263ZM31.5 61.5825L28.4587 78.75H35.85L37.3575 70.2113C37.4429 69.7262 37.6231 69.2627 37.8876 68.8473C38.1522 68.4318 38.496 68.0725 38.8994 67.79C39.3028 67.5074 39.758 67.307 40.2388 67.2003C40.7196 67.0936 41.2168 67.0827 41.7019 67.1681C42.1869 67.2536 42.6504 67.4337 43.0659 67.6983C43.4813 67.9629 43.8406 68.3067 44.1232 68.7101C44.4058 69.1135 44.6061 69.5686 44.7128 70.0495C44.8195 70.5303 44.8304 71.0275 44.745 71.5125L43.4625 78.75H51.3L53.6512 65.49L31.5 61.5825ZM34.7587 43.1213L32.805 54.1988L40.1925 55.5L40.8412 51.8063C41.0081 50.8646 41.5285 50.0223 42.2958 49.4517C43.0632 48.881 44.0196 48.625 44.9694 48.7361C45.9193 48.8473 46.7908 49.3171 47.4057 50.0495C48.0206 50.7819 48.3325 51.7215 48.2775 52.6763L48.225 53.1113L47.5762 56.805L54.9637 58.1063L56.9137 47.0288L34.7587 43.1213ZM38.0137 24.6563L36.06 35.7338L43.4475 37.035L44.0962 33.3413C44.2693 32.3616 44.8244 31.4909 45.6395 30.9205C46.4546 30.3502 47.4628 30.127 48.4425 30.3C49.4221 30.4731 50.2929 31.0282 50.8633 31.8433C51.4336 32.6584 51.6568 33.6666 51.4837 34.6463L50.8312 38.34L58.2187 39.6413L60.1687 28.56L38.0137 24.6563ZM43.6575 14.2275L43.0087 17.9213L57.7837 20.5238L58.4325 16.83L43.6575 14.2275Z" fill="#1E293B"/>
</g>
</g>
<defs>
<filter id="filter0_d_467_632" x="18.2378" y="4.72766" width="56.4297" height="87.5223" filterUnits="userSpaceOnUse" color-interpolation-filters="sRGB">
<feFlood flood-opacity="0" result="BackgroundImageFix"/>
<feColorMatrix in="SourceAlpha" type="matrix" values="0 0 0 0 0 0 0 0 0 0 0 0 0 0 0 0 0 0 127 0" result="hardAlpha"/>
<feOffset dx="2" dy="2"/>
<feGaussianBlur stdDeviation="2"/>
<feComposite in2="hardAlpha" operator="out"/>
<feColorMatrix type="matrix" values="0 0 0 0 0 0 0 0 0 0 0 0 0 0 0 0 0 0 0.25 0"/>
<feBlend mode="normal" in2="BackgroundImageFix" result="effect1_dropShadow_467_632"/>
<feBlend mode="normal" in="SourceGraphic" in2="effect1_dropShadow_467_632" result="shape"/>
</filter>
<clipPath id="clip0_467_632">
<rect width="90" height="90" fill="white"/>
</clipPath>
</defs>
</svg>
