<svg width="83" height="80" viewBox="0 0 83 80" fill="none" xmlns="http://www.w3.org/2000/svg">
<g filter="url(#filter0_d_445_435)">
<path d="M43.25 65.75V23.8625C46.4375 22.7375 48.9875 20.1875 50.1125 17H62L51.575 41.3375C50.9375 42.8 50.7125 44.4875 51.1625 46.025C52.625 50.9 57.7625 54.5 63.875 54.5C69.9875 54.5 75.1625 50.9 76.5875 46.025C77.0375 44.4875 76.8125 42.8 76.175 41.3375L65.75 17H69.5C71.5625 17 73.25 15.3125 73.25 13.25C73.25 11.1875 71.5625 9.5 69.5 9.5H50.1125C48.575 5.1125 44.4125 2 39.5 2C34.5875 2 30.425 5.1125 28.8875 9.5H9.5C7.4375 9.5 5.75 11.1875 5.75 13.25C5.75 15.3125 7.4375 17 9.5 17H13.25L2.825 41.3375C2.1875 42.8 1.9625 44.4875 2.4125 46.025C3.8375 50.9 9.0125 54.5 15.125 54.5C21.2375 54.5 26.4125 50.9 27.8375 46.025C28.2875 44.4875 28.0625 42.8 27.425 41.3375L17 17H28.8875C30.0125 20.1875 32.5625 22.7375 35.75 23.8625V65.75M35.75 65.75H5.75C3.6875 65.75 2 67.4375 2 69.5C2 71.5625 3.6875 73.25 5.75 73.25H73.25C75.3125 73.25 77 71.5625 77 69.5C77 67.4375 75.3125 65.75 73.25 65.75H43.25M70.8875 43.25H56.8625L63.875 26.9L70.8875 43.25ZM22.1375 43.25H8.1125L15.125 26.9L22.1375 43.25ZM39.5 17C37.4375 17 35.75 15.3125 35.75 13.25C35.75 11.1875 37.4375 9.5 39.5 9.5C41.5625 9.5 43.25 11.1875 43.25 13.25C43.25 15.3125 41.5625 17 39.5 17Z" fill="#1E293B"/>
</g>
<defs>
<filter id="filter0_d_445_435" x="0" y="0" width="83" height="79.25" filterUnits="userSpaceOnUse" color-interpolation-filters="sRGB">
<feFlood flood-opacity="0" result="BackgroundImageFix"/>
<feColorMatrix in="SourceAlpha" type="matrix" values="0 0 0 0 0 0 0 0 0 0 0 0 0 0 0 0 0 0 127 0" result="hardAlpha"/>
<feOffset dx="2" dy="2"/>
<feGaussianBlur stdDeviation="2"/>
<feComposite in2="hardAlpha" operator="out"/>
<feColorMatrix type="matrix" values="0 0 0 0 0 0 0 0 0 0 0 0 0 0 0 0 0 0 0.25 0"/>
<feBlend mode="normal" in2="BackgroundImageFix" result="effect1_dropShadow_445_435"/>
<feBlend mode="normal" in="SourceGraphic" in2="effect1_dropShadow_445_435" result="shape"/>
</filter>
</defs>
</svg>
