<svg width="90" height="90" viewBox="0 0 90 90" fill="none" xmlns="http://www.w3.org/2000/svg">
<g clip-path="url(#clip0_467_636)">
<g filter="url(#filter0_d_467_636)">
<path fill-rule="evenodd" clip-rule="evenodd" d="M62.473 2.17285C61.9545 2.26279 61.4589 2.45452 61.0149 2.73697C60.5709 3.01942 60.1872 3.38701 59.8859 3.81852C59.5847 4.25004 59.3719 4.73693 59.2599 5.2511C59.1478 5.76527 59.1386 6.29655 59.233 6.81428C59.4313 7.86414 60.0365 8.79309 60.9167 9.39875C61.7969 10.0044 62.8808 10.2377 63.9322 10.0478C64.7808 9.89785 65.6337 9.75428 66.4908 9.61714C67.423 9.47571 68.143 9.91285 68.4515 10.5171C71.5115 16.4636 74.2373 22.3329 76.1273 28.4014C73.6973 29.5071 70.978 30.7671 68.2651 32.085C67.8789 35.0936 67.3598 38.0837 66.7094 41.0464V41.0721L66.6901 41.13C66.013 44.2286 65.1215 47.3443 64.0158 50.4771C63.0901 53.0679 60.9944 55.5364 58.8601 57.6964C56.2565 60.3321 57.523 64.7036 61.1937 64.1893L64.0544 75.1307C60.4115 76.3093 56.7944 77.7021 53.203 79.3093C52.6288 79.5619 52.1104 79.926 51.6781 80.3804C51.2457 80.8349 50.9079 81.3707 50.6842 81.9568C50.4605 82.5429 50.3555 83.1675 50.3751 83.7945C50.3948 84.4215 50.5387 85.0384 50.7987 85.6093C51.8915 88.0007 54.7458 89.0678 57.1694 87.9879C66.2254 83.9045 75.8651 81.2647 85.738 80.1643C86.362 80.0962 86.9665 79.9059 87.5168 79.6041C88.0672 79.3023 88.5527 78.8949 88.9456 78.4053C89.3384 77.9158 89.631 77.3535 89.8064 76.7508C89.9818 76.1481 90.0367 75.5168 89.968 74.8928C89.8103 73.6321 89.1613 72.4846 88.1622 71.6997C87.163 70.9148 85.8945 70.5561 84.6322 70.7014C80.7837 71.1429 77.0208 71.775 73.3437 72.5979L70.4958 61.7271C81.598 57.2593 88.033 45.6171 85.8472 34.0521C83.983 24.2357 79.9651 15.3257 75.6387 6.91071C74.6638 5.05575 73.129 3.55533 71.2524 2.62281C69.3758 1.69028 67.253 1.37312 65.1858 1.71642C64.2773 1.85785 63.373 2.01428 62.473 2.17285ZM26.1194 2.26285C24.0604 1.95722 21.9573 2.29155 20.0946 3.2206C18.2319 4.14964 16.6996 5.62854 15.7051 7.45714C11.2244 15.8593 7.03939 24.7628 5.01439 34.5279C3.90532 39.8279 4.63782 45.3477 7.09082 50.175C9.78149 55.4779 14.314 59.6173 19.8387 61.8171L16.8108 72.6043C13.0025 71.8168 9.15491 71.2331 5.28439 70.8557C4.01164 70.7304 2.74123 71.1158 1.75265 71.9272C0.764063 72.7385 0.138281 73.9094 0.0129658 75.1821C-0.112349 76.4549 0.273069 77.7253 1.08443 78.7139C1.89579 79.7025 3.06664 80.3283 4.33939 80.4536C9.31466 80.9315 14.2452 81.7955 19.0865 83.0378C23.8115 84.2464 28.4272 85.8279 33.0494 87.8079C34.2258 88.3108 35.5539 88.3258 36.7414 87.8496C37.9289 87.3734 38.8786 86.445 39.3815 85.2686C39.8845 84.0921 39.8995 82.7641 39.4233 81.5766C38.9471 80.3891 38.0187 79.4394 36.8422 78.9364C33.3492 77.4444 29.7808 76.1355 26.1515 75.015L29.173 64.2536C41.0144 65.8607 52.4765 58.9821 56.4301 47.8736C57.433 45.0771 58.2173 42.2614 58.8472 39.4393L58.8601 39.375C60.3515 32.6893 60.9687 25.9264 61.3287 19.3179C61.4295 17.2295 60.8601 15.1636 59.7036 13.4219C58.547 11.6801 56.864 10.3538 54.9001 9.63642C45.6135 6.10678 35.9592 3.63336 26.1194 2.26285ZM51.0172 37.6843L51.0237 37.6457C52.3737 31.6093 52.9522 25.3543 53.3058 18.8743C53.3444 18.225 52.9522 17.4857 52.0587 17.1514C43.3272 13.8277 34.2482 11.5008 24.9944 10.215C24.5674 10.1403 24.1278 10.1983 23.7347 10.381C23.3416 10.5638 23.014 10.8625 22.7958 11.2371C18.4115 19.4657 14.6701 27.5464 12.8894 36.1543C12.7609 36.8089 12.6665 37.4698 12.6065 38.1343C18.6108 37.5943 26.1901 37.0414 32.098 37.0607C37.8065 37.08 45.1287 37.6329 50.9015 38.1664L51.0172 37.6843Z" fill="#1E293B"/>
</g>
</g>
<defs>
<filter id="filter0_d_467_636" x="-2.01025" y="-0.418213" width="98.0068" height="94.8276" filterUnits="userSpaceOnUse" color-interpolation-filters="sRGB">
<feFlood flood-opacity="0" result="BackgroundImageFix"/>
<feColorMatrix in="SourceAlpha" type="matrix" values="0 0 0 0 0 0 0 0 0 0 0 0 0 0 0 0 0 0 127 0" result="hardAlpha"/>
<feOffset dx="2" dy="2"/>
<feGaussianBlur stdDeviation="2"/>
<feComposite in2="hardAlpha" operator="out"/>
<feColorMatrix type="matrix" values="0 0 0 0 0 0 0 0 0 0 0 0 0 0 0 0 0 0 0.25 0"/>
<feBlend mode="normal" in2="BackgroundImageFix" result="effect1_dropShadow_467_636"/>
<feBlend mode="normal" in="SourceGraphic" in2="effect1_dropShadow_467_636" result="shape"/>
</filter>
<clipPath id="clip0_467_636">
<rect width="90" height="90" fill="white"/>
</clipPath>
</defs>
</svg>
