<svg width="72" height="72" viewBox="0 0 72 72" fill="none" xmlns="http://www.w3.org/2000/svg">
<path d="M70.2 1.61838C66.6 -1.98162 60.75 1.16838 58.05 3.86838L42.3 20.9684L31.5 16.4684L34.2 13.7684C35.1 12.8684 35.1 11.5184 34.2 10.6184C33.75 9.71838 32.4 10.1684 31.5 10.6184L27.45 14.6684L19.35 11.0684L21.6 8.81838C22.5 7.91838 22.5 6.56838 21.6 6.11838C20.7 5.21838 19.35 5.21838 18.45 6.11838L14.85 9.71838L12.6 8.81838C9 7.01838 4.95 7.46838 2.25 10.6184L28.35 36.7184L18 47.5184L2.25 46.6184L0 49.7684L13.95 57.8684L22.05 71.8184L25.2 69.5684L24.3 53.8184L35.55 43.4684L61.65 69.5684C64.35 66.8684 65.25 62.3684 63.45 59.2184L62.55 56.9684L66.15 53.3684C67.05 52.4684 67.05 51.1184 66.15 50.2184C65.25 49.3184 63.9 49.3184 63 50.2184L60.75 52.4684L57.15 43.9184L61.2 39.8684C62.1 38.9684 62.1 37.6184 61.2 36.7184C60.3 35.8184 58.95 35.8184 58.5 36.7184L55.8 39.4184L51.3 28.6184L68.4 13.3184C71.1 11.0684 73.8 4.76838 70.2 1.61838Z" fill="#E6502C"/>
</svg>
