<svg width="90" height="90" viewBox="0 0 90 90" fill="none" xmlns="http://www.w3.org/2000/svg">
<g clip-path="url(#clip0_524_1004)">
<path d="M18.828 55.5736C18.5298 56.3485 17.8563 58.4353 17.6875 61.7808C20.5562 61.2113 22.7191 58.6561 22.7191 55.5849H18.9728C18.9236 55.5835 18.8772 55.5736 18.828 55.5736Z" fill="#1E293B"/>
<path d="M31.4597 57.9558C32.1494 57.9558 32.7084 56.8943 32.7084 55.5849C32.7084 54.2754 32.1494 53.2139 31.4597 53.2139C30.77 53.2139 30.2109 54.2754 30.2109 55.5849C30.2109 56.8943 30.77 57.9558 31.4597 57.9558Z" fill="#1E293B"/>
<path d="M36.4552 56.3752C37.1457 56.3752 37.7054 55.3143 37.7054 54.0056C37.7054 52.697 37.1457 51.6361 36.4552 51.6361C35.7648 51.6361 35.2051 52.697 35.2051 54.0056C35.2051 55.3143 35.7648 56.3752 36.4552 56.3752Z" fill="#1E293B"/>
<path d="M41.4495 54.7946C42.1384 54.7946 42.6968 53.733 42.6968 52.4236C42.6968 51.1142 42.1384 50.0527 41.4495 50.0527C40.7606 50.0527 40.2021 51.1142 40.2021 52.4236C40.2021 53.733 40.7606 54.7946 41.4495 54.7946Z" fill="#1E293B"/>
<g filter="url(#filter0_d_524_1004)">
<path d="M78.9091 66.8405L54.3757 55.8759C54.5998 55.5731 54.8243 55.2675 55.0493 54.9591C55.654 54.1294 56.2952 53.2561 57.0082 52.3983C60.2665 52.1297 66.5665 49.7728 68.7996 47.5552C69.0063 47.3498 69.1484 46.935 69.2398 46.4161L87.1877 35.9044L72.9438 39.9122L74.3937 32.8809L79.1102 31.0837L74.6468 31.6505L75.2065 28.9378L77.5198 29.5144L82.6554 25.8525L76.2443 23.9034L76.2794 23.7262L77.2413 19.0659L73.0085 20.8519L72.0143 21.2709L67.6732 16.875L62.6768 18.4542L65.239 24.1284L64.744 24.3352L64.3263 25.0889L59.6463 33.5545L57.3162 33.8513C57.1972 33.7472 57.0466 33.6862 56.8887 33.6783C56.8887 33.6783 48.7127 34.7527 45.6499 37.6214C45.0649 38.1698 44.456 38.9841 44.411 40.5942C40.7517 41.6929 37.0977 42.8095 33.4493 43.9439L21.4694 34.2548V26.3545L18.9719 27.9352L16.4744 35.8341L22.1894 47.5861C21.6523 47.7717 21.1404 47.9503 20.6763 48.1191C13.773 50.6067 12.3232 53.3967 10.6455 56.6283C9.64992 58.545 8.62054 60.5264 6.0471 63.1237C4.2682 64.9209 2.02804 67.6237 3.08273 70.3505C3.79429 72.1898 5.64913 73.125 8.59382 73.125C14.0529 73.125 24.5098 70.1423 39.1249 64.4484L77.6604 72.1744L82.6554 68.5139V59.5322L80.231 61.1902L78.9091 66.8405ZM78.1259 39.7631L69.3537 44.9002C69.3578 44.0284 69.2606 43.1591 69.064 42.3098L78.1259 39.7631ZM58.8898 34.9256L58.1318 36.2967C58.1282 35.8735 58.0729 35.4522 57.9673 35.0423L58.8898 34.9256ZM50.1893 54.0056L31.0305 62.8256L34.5026 63.5217C21.333 68.4633 12.8702 70.5938 8.59382 70.5938C4.3357 70.5938 4.22179 68.4844 7.72898 64.9406C9.72585 62.9255 10.9057 61.1944 11.7846 59.6672L11.7691 59.6939C12.9124 61.0355 14.5859 61.9017 16.4759 61.9017L16.5068 61.8989C16.6277 58.8558 17.1312 56.6747 17.5348 55.3894C16.6487 55.1795 15.82 54.7766 15.1076 54.2095C14.0023 55.3936 13.368 56.6902 12.5848 58.1892C14.2413 55.0139 15.213 52.7597 21.4638 50.5069C31.3948 46.928 59.5788 38.7239 59.5788 38.7239L66.3218 26.5289L66.4202 26.7469L72.8496 28.3486L70.3127 40.6477L68.5732 41.137C68.4424 40.9795 68.299 40.8952 68.1401 40.9148C64.9859 41.3283 59.2568 43.193 56.4302 46.1039C55.848 46.703 55.1801 47.5172 55.1801 49.2623C55.1801 49.7377 55.2251 50.1834 55.2996 50.5898C54.0537 52.0734 53.0426 53.5739 52.0666 54.8423L50.1893 54.0056ZM12.1896 58.9387L12.2515 58.822C12.2327 58.8614 12.2121 58.9003 12.1896 58.9387Z" fill="#1E293B"/>
</g>
</g>
<defs>
<filter id="filter0_d_524_1004" x="0.811523" y="14.875" width="92.376" height="64.25" filterUnits="userSpaceOnUse" color-interpolation-filters="sRGB">
<feFlood flood-opacity="0" result="BackgroundImageFix"/>
<feColorMatrix in="SourceAlpha" type="matrix" values="0 0 0 0 0 0 0 0 0 0 0 0 0 0 0 0 0 0 127 0" result="hardAlpha"/>
<feOffset dx="2" dy="2"/>
<feGaussianBlur stdDeviation="2"/>
<feComposite in2="hardAlpha" operator="out"/>
<feColorMatrix type="matrix" values="0 0 0 0 0 0 0 0 0 0 0 0 0 0 0 0 0 0 0.25 0"/>
<feBlend mode="normal" in2="BackgroundImageFix" result="effect1_dropShadow_524_1004"/>
<feBlend mode="normal" in="SourceGraphic" in2="effect1_dropShadow_524_1004" result="shape"/>
</filter>
<clipPath id="clip0_524_1004">
<rect width="90" height="90" fill="white"/>
</clipPath>
</defs>
</svg>
