<svg width="70" height="70" viewBox="0 0 70 70" fill="none" xmlns="http://www.w3.org/2000/svg">
<g clip-path="url(#clip0_498_730)">
<g filter="url(#filter0_d_498_730)">
<path d="M35.245 10.2083C32.5035 10.2078 29.8235 11.0207 27.5443 12.544C25.265 14.0673 23.4889 16.2326 22.4408 18.7658C22.3309 19.0314 22.1697 19.2728 21.9665 19.4762C21.7633 19.6795 21.522 19.8408 21.2564 19.9509C20.9909 20.061 20.7062 20.1177 20.4188 20.1178C20.1313 20.1179 19.8466 20.0614 19.581 19.9514C19.3154 19.8415 19.074 19.6803 18.8707 19.4771C18.6673 19.2739 18.506 19.0327 18.3959 18.7671C18.2858 18.5015 18.2291 18.2169 18.229 17.9294C18.2289 17.642 18.2854 17.3573 18.3954 17.0917C19.7752 13.7589 22.1124 10.9103 25.1114 8.90604C28.1104 6.90181 31.6364 5.83203 35.2435 5.83203C38.8506 5.83203 42.3766 6.90181 45.3756 8.90604C48.3746 10.9103 50.7118 13.7589 52.0916 17.0917C52.3136 17.6277 52.3136 18.23 52.0915 18.7661C51.8694 19.3021 51.4435 19.728 50.9075 19.95C50.3714 20.172 49.7691 20.172 49.233 19.9499C48.697 19.7278 48.2711 19.3019 48.0491 18.7658C47.001 16.2326 45.2249 14.0673 42.9457 12.544C40.6664 11.0207 37.9864 10.2078 35.245 10.2083Z" fill="#1E293B"/>
</g>
<g filter="url(#filter1_d_498_730)">
<path d="M35.2481 17.5001C33.829 17.4997 32.4479 17.9594 31.3121 18.8102C30.1762 19.6611 29.3468 20.8572 28.9482 22.2192C28.7857 22.7762 28.4087 23.2458 27.9 23.5248C27.3913 23.8037 26.7926 23.8692 26.2356 23.7067C25.6787 23.5443 25.2091 23.1672 24.9301 22.6585C24.6512 22.1499 24.5857 21.5512 24.7481 20.9942C25.4126 18.724 26.7949 16.7302 28.6879 15.3118C30.5809 13.8934 32.8827 13.1267 35.2481 13.1267C37.6136 13.1267 39.9154 13.8934 41.8084 15.3118C43.7014 16.7302 45.0837 18.724 45.7481 20.9942C45.9106 21.5512 45.8451 22.1499 45.5662 22.6585C45.2872 23.1672 44.8176 23.5443 44.2607 23.7067C43.7037 23.8692 43.105 23.8037 42.5963 23.5248C42.0876 23.2458 41.7106 22.7762 41.5481 22.2192C41.1495 20.8572 40.3201 19.6611 39.1842 18.8102C38.0484 17.9594 36.6673 17.4997 35.2481 17.5001Z" fill="#1E293B"/>
</g>
<g filter="url(#filter2_d_498_730)">
<path d="M38.1615 22.6042C38.1615 23.3777 37.8542 24.1196 37.3072 24.6666C36.7602 25.2135 36.0183 25.5208 35.2448 25.5208C34.4712 25.5208 33.7294 25.2135 33.1824 24.6666C32.6354 24.1196 32.3281 23.3777 32.3281 22.6042C32.3281 21.8306 32.6354 21.0888 33.1824 20.5418C33.7294 19.9948 34.4712 19.6875 35.2448 19.6875C36.0183 19.6875 36.7602 19.9948 37.3072 20.5418C37.8542 21.0888 38.1615 21.8306 38.1615 22.6042Z" fill="#1E293B"/>
</g>
<g filter="url(#filter3_d_498_730)">
<path fill-rule="evenodd" clip-rule="evenodd" d="M10.6489 12.7691C10.3539 12.28 9.87921 11.9257 9.3264 11.782C8.77359 11.6382 8.18648 11.7164 7.69054 11.9998C7.1946 12.2832 6.82919 12.7493 6.67238 13.2986C6.51558 13.8478 6.57984 14.4366 6.85141 14.9391L17.8968 34.2708H17.5002C11.9993 34.2708 9.25183 34.2708 7.54266 35.9799C5.8335 37.6891 5.8335 40.4366 5.8335 45.9374C5.8335 51.4383 5.8335 54.1858 7.54266 55.8949C9.25183 57.6041 11.9993 57.6041 17.5002 57.6041H52.5002C58.001 57.6041 60.7485 57.6041 62.4577 55.8949C64.1668 54.1858 64.1668 51.4383 64.1668 45.9374C64.1668 40.4366 64.1668 37.6891 62.4577 35.9799C60.7485 34.2708 58.001 34.2708 52.5002 34.2708H52.1035L63.1489 14.9391C63.4205 14.4366 63.4847 13.8478 63.3279 13.2986C63.1711 12.7493 62.8057 12.2832 62.3098 11.9998C61.8138 11.7164 61.2267 11.6382 60.6739 11.782C60.1211 11.9257 59.6465 12.28 59.3514 12.7691L47.6847 33.1858L47.0431 34.2708H22.9835L22.3127 33.1858L10.6489 12.7691ZM17.5002 48.8541C18.2737 48.8541 19.0156 48.5468 19.5626 47.9998C20.1095 47.4529 20.4168 46.711 20.4168 45.9374C20.4168 45.1639 20.1095 44.422 19.5626 43.875C19.0156 43.3281 18.2737 43.0208 17.5002 43.0208C16.7266 43.0208 15.9847 43.3281 15.4378 43.875C14.8908 44.422 14.5835 45.1639 14.5835 45.9374C14.5835 46.711 14.8908 47.4529 15.4378 47.9998C15.9847 48.5468 16.7266 48.8541 17.5002 48.8541ZM29.1668 45.9374C29.1668 46.711 28.8595 47.4529 28.3126 47.9998C27.7656 48.5468 27.0237 48.8541 26.2502 48.8541C25.4766 48.8541 24.7347 48.5468 24.1878 47.9998C23.6408 47.4529 23.3335 46.711 23.3335 45.9374C23.3335 45.1639 23.6408 44.422 24.1878 43.875C24.7347 43.3281 25.4766 43.0208 26.2502 43.0208C27.0237 43.0208 27.7656 43.3281 28.3126 43.875C28.8595 44.422 29.1668 45.1639 29.1668 45.9374ZM40.8335 43.7499C40.2533 43.7499 39.6969 43.9804 39.2867 44.3906C38.8765 44.8009 38.646 45.3573 38.646 45.9374C38.646 46.5176 38.8765 47.074 39.2867 47.4842C39.6969 47.8945 40.2533 48.1249 40.8335 48.1249H52.5002C53.0803 48.1249 53.6367 47.8945 54.047 47.4842C54.4572 47.074 54.6877 46.5176 54.6877 45.9374C54.6877 45.3573 54.4572 44.8009 54.047 44.3906C53.6367 43.9804 53.0803 43.7499 52.5002 43.7499H40.8335Z" fill="#1E293B"/>
</g>
</g>
<defs>
<filter id="filter0_d_498_730" x="16.229" y="3.83203" width="42.0293" height="22.2858" filterUnits="userSpaceOnUse" color-interpolation-filters="sRGB">
<feFlood flood-opacity="0" result="BackgroundImageFix"/>
<feColorMatrix in="SourceAlpha" type="matrix" values="0 0 0 0 0 0 0 0 0 0 0 0 0 0 0 0 0 0 127 0" result="hardAlpha"/>
<feOffset dx="2" dy="2"/>
<feGaussianBlur stdDeviation="2"/>
<feComposite in2="hardAlpha" operator="out"/>
<feColorMatrix type="matrix" values="0 0 0 0 0 0 0 0 0 0 0 0 0 0 0 0 0 0 0.25 0"/>
<feBlend mode="normal" in2="BackgroundImageFix" result="effect1_dropShadow_498_730"/>
<feBlend mode="normal" in="SourceGraphic" in2="effect1_dropShadow_498_730" result="shape"/>
</filter>
<filter id="filter1_d_498_730" x="22.6606" y="11.1267" width="29.1748" height="18.6675" filterUnits="userSpaceOnUse" color-interpolation-filters="sRGB">
<feFlood flood-opacity="0" result="BackgroundImageFix"/>
<feColorMatrix in="SourceAlpha" type="matrix" values="0 0 0 0 0 0 0 0 0 0 0 0 0 0 0 0 0 0 127 0" result="hardAlpha"/>
<feOffset dx="2" dy="2"/>
<feGaussianBlur stdDeviation="2"/>
<feComposite in2="hardAlpha" operator="out"/>
<feColorMatrix type="matrix" values="0 0 0 0 0 0 0 0 0 0 0 0 0 0 0 0 0 0 0.25 0"/>
<feBlend mode="normal" in2="BackgroundImageFix" result="effect1_dropShadow_498_730"/>
<feBlend mode="normal" in="SourceGraphic" in2="effect1_dropShadow_498_730" result="shape"/>
</filter>
<filter id="filter2_d_498_730" x="30.3281" y="17.6875" width="13.8335" height="13.8334" filterUnits="userSpaceOnUse" color-interpolation-filters="sRGB">
<feFlood flood-opacity="0" result="BackgroundImageFix"/>
<feColorMatrix in="SourceAlpha" type="matrix" values="0 0 0 0 0 0 0 0 0 0 0 0 0 0 0 0 0 0 127 0" result="hardAlpha"/>
<feOffset dx="2" dy="2"/>
<feGaussianBlur stdDeviation="2"/>
<feComposite in2="hardAlpha" operator="out"/>
<feColorMatrix type="matrix" values="0 0 0 0 0 0 0 0 0 0 0 0 0 0 0 0 0 0 0.25 0"/>
<feBlend mode="normal" in2="BackgroundImageFix" result="effect1_dropShadow_498_730"/>
<feBlend mode="normal" in="SourceGraphic" in2="effect1_dropShadow_498_730" result="shape"/>
</filter>
<filter id="filter3_d_498_730" x="3.8335" y="9.71155" width="66.3335" height="53.8926" filterUnits="userSpaceOnUse" color-interpolation-filters="sRGB">
<feFlood flood-opacity="0" result="BackgroundImageFix"/>
<feColorMatrix in="SourceAlpha" type="matrix" values="0 0 0 0 0 0 0 0 0 0 0 0 0 0 0 0 0 0 127 0" result="hardAlpha"/>
<feOffset dx="2" dy="2"/>
<feGaussianBlur stdDeviation="2"/>
<feComposite in2="hardAlpha" operator="out"/>
<feColorMatrix type="matrix" values="0 0 0 0 0 0 0 0 0 0 0 0 0 0 0 0 0 0 0.25 0"/>
<feBlend mode="normal" in2="BackgroundImageFix" result="effect1_dropShadow_498_730"/>
<feBlend mode="normal" in="SourceGraphic" in2="effect1_dropShadow_498_730" result="shape"/>
</filter>
<clipPath id="clip0_498_730">
<rect width="70" height="70" fill="white"/>
</clipPath>
</defs>
</svg>
