<svg width="67" height="61" viewBox="0 0 67 61" fill="none" xmlns="http://www.w3.org/2000/svg">
<g filter="url(#filter0_d_556_1395)">
<path d="M20.6402 2.04388C24.0819 1.54804 27.7277 5.31054 28.7777 10.5022C29.8277 15.6647 27.9319 20.273 24.4902 20.798C21.0777 21.323 17.4027 17.5605 16.3235 12.3689C15.2444 7.20638 17.1985 2.59804 20.6402 2.04388ZM41.4944 2.04388C44.9652 2.59804 46.8902 7.20638 45.8694 12.3689C44.761 17.5605 41.1152 21.323 37.6735 20.798C34.2027 20.273 32.3069 15.6647 33.386 10.5022C34.436 5.31054 38.0819 1.54804 41.4944 2.04388ZM5.03602 15.4605C8.36102 14.0314 12.8819 16.6272 15.2444 21.148C17.461 25.7564 16.7027 30.598 13.4069 32.0272C10.111 33.4564 5.61936 30.8897 3.31519 26.3105C1.01102 21.7314 1.82769 16.8605 5.03602 15.4605ZM57.536 15.4605C60.7444 16.8605 61.561 21.7314 59.2569 26.3105C56.9527 30.8897 52.461 33.4564 49.1652 32.0272C45.8694 30.598 45.111 25.7564 47.3277 21.148C49.6902 16.6272 54.211 14.0314 57.536 15.4605ZM52.6652 46.9022C52.7819 49.6439 50.6819 52.6772 48.1735 53.8147C42.9527 56.2064 36.7694 51.248 30.9652 51.248C25.161 51.248 18.9194 56.4105 13.786 53.8147C10.8694 52.3855 8.85686 48.5939 9.23602 45.4439C9.76102 41.098 14.9819 38.7647 18.0735 35.5855C22.186 31.473 25.1027 23.7439 30.9652 23.7439C36.7985 23.7439 39.8902 31.3564 43.8277 35.5855C47.0652 39.1439 52.461 42.148 52.6652 46.9022Z" fill="#1E293B"/>
</g>
<defs>
<filter id="filter0_d_556_1395" x="0" y="0" width="66.5723" height="60.5446" filterUnits="userSpaceOnUse" color-interpolation-filters="sRGB">
<feFlood flood-opacity="0" result="BackgroundImageFix"/>
<feColorMatrix in="SourceAlpha" type="matrix" values="0 0 0 0 0 0 0 0 0 0 0 0 0 0 0 0 0 0 127 0" result="hardAlpha"/>
<feOffset dx="2" dy="2"/>
<feGaussianBlur stdDeviation="2"/>
<feComposite in2="hardAlpha" operator="out"/>
<feColorMatrix type="matrix" values="0 0 0 0 0 0 0 0 0 0 0 0 0 0 0 0 0 0 0.25 0"/>
<feBlend mode="normal" in2="BackgroundImageFix" result="effect1_dropShadow_556_1395"/>
<feBlend mode="normal" in="SourceGraphic" in2="effect1_dropShadow_556_1395" result="shape"/>
</filter>
</defs>
</svg>
