<svg width="66" height="64" viewBox="0 0 66 64" fill="none" xmlns="http://www.w3.org/2000/svg">
<g filter="url(#filter0_d_538_923)">
<path d="M13.25 5C15.438 5 17.5368 5.86884 19.084 7.41602C20.6312 8.96319 21.5 11.062 21.5 13.25C21.5 15.438 20.6312 17.5368 19.084 19.084C17.5368 20.6312 15.438 21.5 13.25 21.5C11.062 21.5 8.96319 20.6312 7.41602 19.084C5.86884 17.5368 5 15.438 5 13.25C5 11.062 5.86884 8.96319 7.41602 7.41602C8.96319 5.86884 11.062 5 13.25 5Z" stroke="#1E293B" shape-rendering="crispEdges"/>
</g>
<g filter="url(#filter1_d_538_923)">
<path d="M22 13.25H48.25C50.5706 13.25 52.7962 14.1719 54.4372 15.8128C56.0781 17.4538 57 19.6794 57 22C57 24.3206 56.0781 26.5462 54.4372 28.1872C52.7962 29.8281 50.5706 30.75 48.25 30.75H13.25C10.9294 30.75 8.70376 31.6719 7.06282 33.3128C5.42187 34.9538 4.5 37.1794 4.5 39.5C4.5 41.8206 5.42187 44.0462 7.06282 45.6872C8.70376 47.3281 10.9294 48.25 13.25 48.25H48.25M22 13.25C22 15.5706 21.0781 17.7962 19.4372 19.4372C17.7962 21.0781 15.5706 22 13.25 22C10.9294 22 8.70376 21.0781 7.06282 19.4372C5.42187 17.7962 4.5 15.5706 4.5 13.25C4.5 10.9294 5.42187 8.70376 7.06282 7.06282C8.70376 5.42187 10.9294 4.5 13.25 4.5C15.5706 4.5 17.7962 5.42187 19.4372 7.06282C21.0781 8.70376 22 10.9294 22 13.25ZM54.0833 48.25L48.25 52.625V43.875L54.0833 48.25Z" stroke="#1E293B" stroke-width="5" stroke-linecap="square" shape-rendering="crispEdges"/>
</g>
<defs>
<filter id="filter0_d_538_923" x="2.5" y="2.5" width="25.5" height="25.5" filterUnits="userSpaceOnUse" color-interpolation-filters="sRGB">
<feFlood flood-opacity="0" result="BackgroundImageFix"/>
<feColorMatrix in="SourceAlpha" type="matrix" values="0 0 0 0 0 0 0 0 0 0 0 0 0 0 0 0 0 0 127 0" result="hardAlpha"/>
<feOffset dx="2" dy="2"/>
<feGaussianBlur stdDeviation="2"/>
<feComposite in2="hardAlpha" operator="out"/>
<feColorMatrix type="matrix" values="0 0 0 0 0 0 0 0 0 0 0 0 0 0 0 0 0 0 0.25 0"/>
<feBlend mode="normal" in2="BackgroundImageFix" result="effect1_dropShadow_538_923"/>
<feBlend mode="normal" in="SourceGraphic" in2="effect1_dropShadow_538_923" result="shape"/>
</filter>
<filter id="filter1_d_538_923" x="0" y="0" width="65.5" height="63.625" filterUnits="userSpaceOnUse" color-interpolation-filters="sRGB">
<feFlood flood-opacity="0" result="BackgroundImageFix"/>
<feColorMatrix in="SourceAlpha" type="matrix" values="0 0 0 0 0 0 0 0 0 0 0 0 0 0 0 0 0 0 127 0" result="hardAlpha"/>
<feOffset dx="2" dy="2"/>
<feGaussianBlur stdDeviation="2"/>
<feComposite in2="hardAlpha" operator="out"/>
<feColorMatrix type="matrix" values="0 0 0 0 0 0 0 0 0 0 0 0 0 0 0 0 0 0 0.25 0"/>
<feBlend mode="normal" in2="BackgroundImageFix" result="effect1_dropShadow_538_923"/>
<feBlend mode="normal" in="SourceGraphic" in2="effect1_dropShadow_538_923" result="shape"/>
</filter>
</defs>
</svg>
