<svg width="70" height="70" viewBox="0 0 70 70" fill="none" xmlns="http://www.w3.org/2000/svg">
<g clip-path="url(#clip0_538_615)">
<g filter="url(#filter0_d_538_615)">
<path d="M39.0506 5.80713C33.6363 5.80713 29.0702 9.70539 29.0702 14.6938C29.0702 17.2136 30.2361 19.4544 32.087 21.0558L33.2454 18.7767C32.1686 17.6553 31.531 16.2246 31.531 14.6938C31.531 11.2253 34.7999 8.26807 39.0505 8.26807C43.3011 8.26807 46.57 11.2253 46.57 14.6938C46.57 17.0732 45.0315 19.2119 42.6932 20.3204L41.6703 23.2675C41.9287 23.2049 42.1846 23.1329 42.4377 23.0515L43.6898 25.2407C42.278 26.2337 40.9116 27.4646 39.4468 28.9967L50.5689 53.5229C57.4411 53.8398 64.0718 50.1959 67.4884 44.2247L52.746 21.6884C49.9889 22.2389 47.7708 22.9262 45.7904 23.9576L44.6844 22.0239C47.2898 20.4359 49.0311 17.7733 49.0311 14.694C49.0311 9.70553 44.465 5.80727 39.0506 5.80727V5.80713ZM22.2799 6.6202C21.9162 6.6243 21.5342 6.68445 21.1654 6.80449C20.3218 7.07848 19.6081 7.64313 19.2978 8.25234L19.2584 8.33027L10.3848 20.949C10.0929 21.5577 10.0591 22.4457 10.3223 23.2691C10.5917 24.1109 11.1488 24.8147 11.7171 25.1042L31.3612 35.1065C31.9179 35.3902 32.809 35.4353 33.6372 35.1649C34.45 34.8996 35.1406 34.3603 35.4697 33.7304L38.9369 23.5777L38.9574 23.5782L39.8224 21.0859C39.8106 21.087 39.7985 21.0872 39.7869 21.0883L40.4575 19.1244L40.4971 19.0467C40.8075 18.4375 40.8444 17.5264 40.5723 16.6839C40.3002 15.8415 39.7383 15.1315 39.1458 14.8297L34.7601 12.5967C33.8656 13.7148 33.5912 15.313 34.7128 16.8172L35.0013 17.3001L36.4079 18.0384L35.2791 20.2552L35.2591 20.2456L34.1493 22.429L34.1677 22.4379L33.306 24.1299L19.4167 17.0577L21.9605 12.0623L22.5186 10.9658L26.7369 13.1139C26.9496 11.7727 27.4098 10.4824 28.1499 9.23057L23.5296 6.87832C23.1859 6.70332 22.7475 6.61514 22.2799 6.6202ZM52.0747 24.5823L55.3672 30.5733L45.542 35.9723L42.8421 31.06L42.2496 29.9817L52.0747 24.5823ZM51.1032 27.9243L45.5918 30.9531L46.5136 32.6307L52.025 29.6018L51.1032 27.9243ZM15.6542 29.8706L12.8009 35.4751L22.3039 40.3138L25.1577 34.7095L15.6542 29.8706ZM56.2889 32.2509L59.5811 38.2415L49.7561 43.6405L47.0566 38.7282L46.4641 37.6499L56.2892 32.2506L56.2889 32.2509ZM55.3174 35.5925L49.8057 38.6214L50.7278 40.2989L56.2393 37.2701L55.3174 35.5925ZM13.6335 38.6605H13.6332L2.51172 60.5021L3.34885 63.0766L13.9123 42.3313L16.105 43.448L5.54182 64.193L8.6009 63.1984L10.3739 62.6218L9.41875 59.6747L12.3577 58.7218L11.4012 55.7812L14.3434 54.8245L13.6092 52.5681L19.2379 41.5141L13.6335 38.6605Z" fill="#1E293B"/>
</g>
</g>
<defs>
<filter id="filter0_d_538_615" x="0.511719" y="3.80713" width="72.9766" height="66.3859" filterUnits="userSpaceOnUse" color-interpolation-filters="sRGB">
<feFlood flood-opacity="0" result="BackgroundImageFix"/>
<feColorMatrix in="SourceAlpha" type="matrix" values="0 0 0 0 0 0 0 0 0 0 0 0 0 0 0 0 0 0 127 0" result="hardAlpha"/>
<feOffset dx="2" dy="2"/>
<feGaussianBlur stdDeviation="2"/>
<feComposite in2="hardAlpha" operator="out"/>
<feColorMatrix type="matrix" values="0 0 0 0 0 0 0 0 0 0 0 0 0 0 0 0 0 0 0.25 0"/>
<feBlend mode="normal" in2="BackgroundImageFix" result="effect1_dropShadow_538_615"/>
<feBlend mode="normal" in="SourceGraphic" in2="effect1_dropShadow_538_615" result="shape"/>
</filter>
<clipPath id="clip0_538_615">
<rect width="70" height="70" fill="white"/>
</clipPath>
</defs>
</svg>
