<svg width="70" height="70" viewBox="0 0 70 70" fill="none" xmlns="http://www.w3.org/2000/svg">
<g clip-path="url(#clip0_556_1309)">
<g filter="url(#filter0_d_556_1309)">
<path d="M64.1667 21.2421C64.1667 28.9479 57.6362 35.1954 49.5833 35.1954C48.6344 35.1954 47.6943 35.1079 46.7629 34.9329C46.0921 34.8075 45.7567 34.7463 45.5233 34.7813C45.29 34.8163 44.9575 34.9913 44.2983 35.3442C42.4111 36.3501 40.2392 36.6883 38.1354 36.3038C38.9346 35.3209 39.48 34.1425 39.7221 32.8796C39.8679 32.1067 39.5063 31.3542 38.9638 30.8059C36.4326 28.2657 35.0079 24.8281 35 21.2421C35 13.5392 41.5304 7.29169 49.5833 7.29169C57.6362 7.29169 64.1667 13.5392 64.1667 21.2421Z" stroke="#1E293B" stroke-width="4" stroke-linejoin="round" shape-rendering="crispEdges"/>
</g>
<path d="M45.1855 21.875H45.2089M53.9355 21.875H53.9589" stroke="#1E293B" stroke-width="3" stroke-linecap="round"/>
<g filter="url(#filter1_d_556_1309)">
<path d="M21.881 62.7084H13.761C12.8176 62.7277 11.8801 62.556 11.0048 62.2038C8.18727 60.9934 6.75518 59.3921 6.09018 58.3917C5.90971 58.1146 5.82103 57.7877 5.83674 57.4574C5.85244 57.127 5.97173 56.81 6.17768 56.5513C9.44435 52.2113 17.0277 49.5921 21.8956 49.5921C26.7606 49.5921 34.3323 52.2113 37.5989 56.5513C38.0102 57.0967 38.0656 57.823 37.6864 58.3917C37.0185 59.3921 35.5864 60.9934 32.7689 62.2038C31.8936 62.556 30.9561 62.7277 30.0127 62.7084H21.881ZM29.9981 34.3846C29.9958 36.5315 29.1409 38.5895 27.6215 40.1062C26.1021 41.6229 24.0425 42.4741 21.8956 42.4725C20.8321 42.4741 19.7787 42.2661 18.7956 41.8604C17.8125 41.4547 16.9189 40.8594 16.1659 40.1083C15.413 39.3572 14.8154 38.4652 14.4072 37.4831C13.9991 36.501 13.7884 35.4481 13.7873 34.3846C13.7884 33.3211 13.9991 32.2682 14.4072 31.2861C14.8154 30.3041 15.413 29.412 16.1659 28.6609C16.9189 27.9099 17.8125 27.3145 18.7956 26.9088C19.7787 26.5032 20.8321 26.2952 21.8956 26.2967C24.0425 26.2952 26.1021 27.1463 27.6215 28.663C29.1409 30.1797 29.9958 32.2378 29.9981 34.3846Z" stroke="#1E293B" stroke-width="4" stroke-linecap="round" stroke-linejoin="round" shape-rendering="crispEdges"/>
</g>
</g>
<defs>
<filter id="filter0_d_556_1309" x="31" y="3.29169" width="41.167" height="41.1666" filterUnits="userSpaceOnUse" color-interpolation-filters="sRGB">
<feFlood flood-opacity="0" result="BackgroundImageFix"/>
<feColorMatrix in="SourceAlpha" type="matrix" values="0 0 0 0 0 0 0 0 0 0 0 0 0 0 0 0 0 0 127 0" result="hardAlpha"/>
<feOffset dx="2" dy="2"/>
<feGaussianBlur stdDeviation="2"/>
<feComposite in2="hardAlpha" operator="out"/>
<feColorMatrix type="matrix" values="0 0 0 0 0 0 0 0 0 0 0 0 0 0 0 0 0 0 0.25 0"/>
<feBlend mode="normal" in2="BackgroundImageFix" result="effect1_dropShadow_556_1309"/>
<feBlend mode="normal" in="SourceGraphic" in2="effect1_dropShadow_556_1309" result="shape"/>
</filter>
<filter id="filter1_d_556_1309" x="1.83496" y="22.2967" width="44.1074" height="48.4131" filterUnits="userSpaceOnUse" color-interpolation-filters="sRGB">
<feFlood flood-opacity="0" result="BackgroundImageFix"/>
<feColorMatrix in="SourceAlpha" type="matrix" values="0 0 0 0 0 0 0 0 0 0 0 0 0 0 0 0 0 0 127 0" result="hardAlpha"/>
<feOffset dx="2" dy="2"/>
<feGaussianBlur stdDeviation="2"/>
<feComposite in2="hardAlpha" operator="out"/>
<feColorMatrix type="matrix" values="0 0 0 0 0 0 0 0 0 0 0 0 0 0 0 0 0 0 0.25 0"/>
<feBlend mode="normal" in2="BackgroundImageFix" result="effect1_dropShadow_556_1309"/>
<feBlend mode="normal" in="SourceGraphic" in2="effect1_dropShadow_556_1309" result="shape"/>
</filter>
<clipPath id="clip0_556_1309">
<rect width="70" height="70" fill="white"/>
</clipPath>
</defs>
</svg>
