<svg width="70" height="70" viewBox="0 0 70 70" fill="none" xmlns="http://www.w3.org/2000/svg">
<path d="M70 52.5C70 54.5628 69.1806 56.5411 67.7219 57.9997C66.2633 59.4583 64.285 60.2778 62.2222 60.2778H7.77778C5.71498 60.2778 3.73667 59.4583 2.27806 57.9997C0.819442 56.5411 0 54.5628 0 52.5V17.5C0 15.4372 0.819442 13.4589 2.27806 12.0003C3.73667 10.5417 5.71498 9.72223 7.77778 9.72223H62.2222C64.285 9.72223 66.2633 10.5417 67.7219 12.0003C69.1806 13.4589 70 15.4372 70 17.5V52.5Z" fill="#EEEEEE"/>
<path d="M34.9998 48.6111C42.517 48.6111 48.6109 42.5172 48.6109 35C48.6109 27.4828 42.517 21.3889 34.9998 21.3889C27.4826 21.3889 21.3887 27.4828 21.3887 35C21.3887 42.5172 27.4826 48.6111 34.9998 48.6111Z" fill="#ED1B2F"/>
</svg>
