<svg width="70" height="70" viewBox="0 0 70 70" fill="none" xmlns="http://www.w3.org/2000/svg">
<g clip-path="url(#clip0_545_686)">
<g filter="url(#filter0_d_545_686)">
<path d="M42.2912 14.5834C42.2912 16.5172 41.523 18.3719 40.1556 19.7393C38.7881 21.1068 36.9334 21.875 34.9996 21.875C33.0657 21.875 31.211 21.1068 29.8436 19.7393C28.4761 18.3719 27.7079 16.5172 27.7079 14.5834C27.7079 12.6495 28.4761 10.7948 29.8436 9.42737C31.211 8.05991 33.0657 7.29169 34.9996 7.29169C36.9334 7.29169 38.7881 8.05991 40.1556 9.42737C41.523 10.7948 42.2912 12.6495 42.2912 14.5834ZM45.2079 62.7084C45.2079 63.0951 45.0543 63.4661 44.7808 63.7396C44.5073 64.013 44.1363 64.1667 43.7496 64.1667H18.7479C17.8426 64.1667 16.9619 63.8717 16.2392 63.3263C15.5165 62.781 14.9912 62.015 14.7428 61.1444C14.4944 60.2738 14.5365 59.346 14.8626 58.5014C15.1887 57.6568 15.7812 56.9415 16.5502 56.4638L24.256 51.6775C24.888 51.285 25.4094 50.7377 25.771 50.0875C26.1326 49.4373 26.3224 48.7057 26.3225 47.9617V46.6667H29.7846C31.3315 46.6664 32.815 46.0516 33.9087 44.9575L34.9996 43.8681L36.0889 44.9575C36.6308 45.4996 37.2743 45.9295 37.9824 46.2228C38.6906 46.5161 39.4496 46.6669 40.216 46.6667H43.7496V47.9675C43.7498 48.7093 43.9387 49.4388 44.2984 50.0876C44.6581 50.7363 45.1768 51.2829 45.8058 51.6761L53.4562 56.4579C54.2247 56.9377 54.8161 57.6547 55.1409 58.5005C55.4658 59.3463 55.5064 60.2748 55.2566 61.1457C55.0068 62.0166 54.4803 62.7824 53.7566 63.3275C53.0329 63.8725 52.1514 64.1671 51.2454 64.1667H47.8767C48.0371 63.7102 48.1246 63.2188 48.1246 62.7084V62.3438C48.1244 61.2841 47.7396 60.2605 47.0418 59.4631C46.3439 58.6657 45.3803 58.1487 44.33 58.0081L25.0581 55.4298C24.6778 55.3846 24.2951 55.4908 23.9924 55.7255C23.6898 55.9602 23.4916 56.3044 23.4407 56.684C23.3898 57.0635 23.4902 57.4479 23.7202 57.754C23.9502 58.0602 24.2915 58.2635 24.6702 58.3202L43.9435 60.8986C44.2935 60.9455 44.6146 61.1179 44.8471 61.3837C45.0797 61.6495 45.2079 61.9906 45.2079 62.3438V62.7084ZM38.1525 42.8954L36.4579 41.2009V35.7438C36.6757 35.8692 36.8769 36.0238 37.0617 36.2075L39.8019 38.9492C40.0755 39.2222 40.4464 39.3753 40.8329 39.375H45.2079C45.4564 39.3749 45.7007 39.3113 45.9177 39.1902C46.1347 39.0691 46.3172 38.8946 46.4478 38.6832C46.5784 38.4718 46.6528 38.2305 46.664 37.9823C46.6752 37.7341 46.6227 37.4871 46.5117 37.2648L45.0533 34.3481C44.9714 34.1708 44.8547 34.0118 44.7102 33.8805C44.5657 33.7491 44.3962 33.6481 44.2119 33.5835C44.0276 33.5189 43.8322 33.492 43.6373 33.5043C43.4424 33.5166 43.2519 33.568 43.0772 33.6553C42.9025 33.7427 42.7472 33.8642 42.6204 34.0128C42.4935 34.1613 42.3978 34.3338 42.339 34.52C42.2801 34.7062 42.2592 34.9023 42.2775 35.0968C42.2959 35.2912 42.3531 35.48 42.4458 35.6519L42.8483 36.4584H41.4367L39.1237 34.1454C38.0298 33.0519 36.5464 32.4375 34.9996 32.4375C33.4528 32.4375 31.9693 33.0519 30.8754 34.1454L28.5625 36.4584H27.1508L27.5533 35.6519C27.646 35.48 27.7032 35.2912 27.7216 35.0968C27.74 34.9023 27.7191 34.7062 27.6602 34.52C27.6013 34.3338 27.5056 34.1613 27.3788 34.0128C27.252 33.8642 27.0966 33.7427 26.9219 33.6553C26.7472 33.568 26.5568 33.5166 26.3619 33.5043C26.1669 33.492 25.9715 33.5189 25.7872 33.5835C25.6029 33.6481 25.4335 33.7491 25.2889 33.8805C25.1444 34.0118 25.0277 34.1708 24.9458 34.3481L23.4875 37.2648C23.3764 37.4871 23.324 37.7341 23.3352 37.9823C23.3463 38.2305 23.4208 38.4718 23.5514 38.6832C23.682 38.8946 23.8644 39.0691 24.0814 39.1902C24.2984 39.3113 24.5428 39.3749 24.7912 39.375H29.1662C29.553 39.3749 29.9239 39.2212 30.1973 38.9477L32.9375 36.2075C33.1232 36.0238 33.3244 35.8692 33.5412 35.7438V41.2009L31.8467 42.8954C31.2998 43.4425 30.5581 43.7499 29.7846 43.75H20.9792C20.5049 43.75 20.0377 43.6344 19.6182 43.4131C19.1987 43.1918 18.8395 42.8715 18.5718 42.4801C18.304 42.0886 18.1357 41.6377 18.0815 41.1666C18.0274 40.6954 18.0889 40.2181 18.2608 39.7761L22.6417 28.5104C23.0677 27.415 23.8148 26.4739 24.7849 25.8103C25.755 25.1467 26.903 24.7917 28.0783 24.7917H41.9208C43.0962 24.7917 44.2441 25.1467 45.2143 25.8103C46.1844 26.4739 46.9314 27.415 47.3575 28.5104L51.7398 39.7761C51.9118 40.2183 51.9733 40.6959 51.919 41.1673C51.8647 41.6387 51.6961 42.0897 51.428 42.4813C51.1599 42.8728 50.8003 43.193 50.3804 43.4141C49.9605 43.6352 49.4931 43.7505 49.0185 43.75H40.2131C39.4396 43.7499 38.6979 43.4425 38.151 42.8954" fill="#1E293B"/>
</g>
</g>
<defs>
<filter id="filter0_d_545_686" x="12.583" y="5.29169" width="48.835" height="64.875" filterUnits="userSpaceOnUse" color-interpolation-filters="sRGB">
<feFlood flood-opacity="0" result="BackgroundImageFix"/>
<feColorMatrix in="SourceAlpha" type="matrix" values="0 0 0 0 0 0 0 0 0 0 0 0 0 0 0 0 0 0 127 0" result="hardAlpha"/>
<feOffset dx="2" dy="2"/>
<feGaussianBlur stdDeviation="2"/>
<feComposite in2="hardAlpha" operator="out"/>
<feColorMatrix type="matrix" values="0 0 0 0 0 0 0 0 0 0 0 0 0 0 0 0 0 0 0.25 0"/>
<feBlend mode="normal" in2="BackgroundImageFix" result="effect1_dropShadow_545_686"/>
<feBlend mode="normal" in="SourceGraphic" in2="effect1_dropShadow_545_686" result="shape"/>
</filter>
<clipPath id="clip0_545_686">
<rect width="70" height="70" fill="white"/>
</clipPath>
</defs>
</svg>
