<svg width="42" height="72" viewBox="0 0 42 72" fill="none" xmlns="http://www.w3.org/2000/svg">
<g filter="url(#filter0_d_413_604)">
<path d="M22 2H15.3334V9.56667L8.80004 5.76667L5.4667 11.5667L12 15.3333L5.4667 19.1L8.80004 24.9L15.3334 21.1V32.3333C11.2866 33.1594 7.69063 35.4586 5.24271 38.7853C2.7948 42.112 1.66931 46.2291 2.08444 50.3384C2.49956 54.4478 4.42574 58.2566 7.48953 61.0265C10.5533 63.7963 14.5364 65.3299 18.6667 65.3299C22.797 65.3299 26.7801 63.7963 29.8439 61.0265C32.9077 58.2566 34.8338 54.4478 35.249 50.3384C35.6641 46.2291 34.5386 42.112 32.0907 38.7853C29.6428 35.4586 26.0468 33.1594 22 32.3333V21.1L28.5334 24.9L31.8667 19.1L25.3334 15.3333L31.8667 11.5667L28.5334 5.76667L22 9.56667V2ZM18.6667 58.6667C13.1667 58.6667 8.66671 54.1667 8.66671 48.6667C8.66671 43.1667 13.1667 38.6667 18.6667 38.6667C24.1667 38.6667 28.6667 43.1667 28.6667 48.6667C28.6667 54.1667 24.1667 58.6667 18.6667 58.6667Z" fill="#1E293B"/>
</g>
<defs>
<filter id="filter0_d_413_604" x="0" y="0" width="41.3334" height="71.33" filterUnits="userSpaceOnUse" color-interpolation-filters="sRGB">
<feFlood flood-opacity="0" result="BackgroundImageFix"/>
<feColorMatrix in="SourceAlpha" type="matrix" values="0 0 0 0 0 0 0 0 0 0 0 0 0 0 0 0 0 0 127 0" result="hardAlpha"/>
<feOffset dx="2" dy="2"/>
<feGaussianBlur stdDeviation="2"/>
<feComposite in2="hardAlpha" operator="out"/>
<feColorMatrix type="matrix" values="0 0 0 0 0 0 0 0 0 0 0 0 0 0 0 0 0 0 0.25 0"/>
<feBlend mode="normal" in2="BackgroundImageFix" result="effect1_dropShadow_413_604"/>
<feBlend mode="normal" in="SourceGraphic" in2="effect1_dropShadow_413_604" result="shape"/>
</filter>
</defs>
</svg>
