<svg width="70" height="70" viewBox="0 0 70 70" fill="none" xmlns="http://www.w3.org/2000/svg">
<g clip-path="url(#clip0_553_959)">
<g filter="url(#filter0_d_553_959)">
<path d="M33.6245 28.5272C33.8681 28.6074 34.1175 28.6665 34.3727 28.7044C34.7781 28.8065 35.1886 28.8794 35.6042 28.9231C35.8022 29.8755 36.3152 30.7334 37.0606 31.3583C37.8059 31.9833 38.7401 32.3389 39.7124 32.3677C40.6847 32.3965 41.6383 32.0969 42.4194 31.5172C43.2004 30.9374 43.7634 30.1115 44.0174 29.1725C44.4942 27.4531 44.7392 25.6769 44.7458 23.8919C45.7905 22.4762 46.6492 20.9324 47.3008 19.2981L47.3292 19.2325L47.5633 18.6638L47.863 17.9069C48.1831 17.0777 48.4858 16.2419 48.7708 15.4L48.8299 15.225L48.8517 15.155C49.0005 14.7175 49.1492 14.2319 49.2892 13.7419C49.3724 13.459 49.4518 13.1731 49.5277 12.8844C49.8873 11.604 50.1232 10.292 50.232 8.96657V8.90094C50.27 7.81603 49.9032 6.75576 49.203 5.92619C48.5028 5.09662 47.5192 4.557 46.4433 4.41219C45.5924 4.303 44.7282 4.45159 43.9627 4.83876C43.2903 5.17921 42.7173 5.68757 42.2992 6.31457C41.8811 6.94157 41.632 7.66595 41.5761 8.41751V8.43938C41.4057 9.77702 41.0903 11.0921 40.6355 12.3616C40.4167 13.0178 40.198 13.6413 39.9792 14.1991C39.5388 13.973 39.0838 13.7834 38.6142 13.6303L38.5727 13.6106C36.6029 12.9844 34.4657 13.1595 32.6242 14.098C30.7826 15.0365 29.385 16.6628 28.7342 18.6245C28.0833 20.5863 28.2317 22.7255 29.147 24.5786C30.0624 26.4318 31.6711 27.8496 33.6245 28.525V28.5272ZM41.9064 28.595C41.79 29.0269 41.5412 29.4114 41.1949 29.6946C40.8486 29.9777 40.4223 30.1451 39.9759 30.1734C39.5294 30.2016 39.0854 30.0893 38.7062 29.852C38.327 29.6148 38.0316 29.2647 37.8617 28.8509C38.2774 28.7766 38.685 28.6716 39.0845 28.5359C40.2887 28.1096 41.396 27.4477 42.3417 26.5891C42.2324 27.2657 42.0873 27.9344 41.9064 28.595ZM30.7283 19.2763C30.9622 18.5709 31.3329 17.9185 31.819 17.3565C32.3051 16.7944 32.8973 16.3336 33.5616 16.0004C34.2258 15.6673 34.9493 15.4683 35.6905 15.4148C36.4317 15.3613 37.1762 15.4544 37.8814 15.6888L37.947 15.7106C38.3743 15.8477 38.7834 16.0256 39.1742 16.2444L39.1283 16.3516V16.3778C38.64 17.5166 37.9757 18.5715 37.1595 19.5038L37.1245 19.5388L37.0699 19.6022C36.9999 19.6843 36.9269 19.7639 36.8511 19.8406L36.6324 19.7575L36.5667 19.7356C36.2186 19.6205 35.8391 19.648 35.5111 19.8119C35.1832 19.9759 34.9335 20.2631 34.8167 20.6106C34.7505 20.7799 34.722 20.9615 34.7334 21.1429C34.7447 21.3243 34.7956 21.501 34.8824 21.6606C35.0136 21.9406 35.2367 22.1659 35.5145 22.2994C35.5875 22.3169 35.6604 22.3373 35.7333 22.3606C35.9316 22.4321 36.1351 22.4766 36.3436 22.4941C36.6766 22.5137 37.0083 22.4378 37.2995 22.2753C37.4527 22.1966 37.5985 22.1062 37.737 22.0041C38.106 21.7153 38.44 21.3908 38.7389 21.0306L38.7608 21.0088C39.7389 19.9081 40.5343 18.6577 41.1167 17.3053C41.1845 17.1501 41.2487 16.9932 41.3092 16.835V16.8022L41.3311 16.7497C41.4528 16.4646 41.5709 16.178 41.6855 15.89L41.7599 15.6997L41.8342 15.5072C42.7617 13.2869 43.4092 10.9594 43.7658 8.57938C43.7862 8.31397 43.8518 8.05949 43.9627 7.81594C44.0894 7.54513 44.2703 7.30317 44.4942 7.10501C44.9182 6.72805 45.4744 6.53454 46.0408 6.56688C46.5111 6.59313 46.9595 6.77688 47.3095 7.09188C47.5543 7.30646 47.748 7.57294 47.8767 7.8719C48.0054 8.17086 48.0657 8.49477 48.0533 8.82001C48.03 9.17001 47.9899 9.53459 47.933 9.91376C47.758 10.9929 47.513 12.0553 47.198 13.1009L47.1061 13.4072C46.7079 14.7104 46.2591 15.9976 45.7608 17.2659L45.6886 17.4497C45.5648 17.7637 45.4379 18.0766 45.308 18.3881L45.2752 18.4669L45.087 18.9219C44.3184 20.7068 43.2747 22.3602 41.9939 23.8219C40.969 25.1253 39.5722 26.0865 37.9886 26.5781C37.2456 26.7788 36.4706 26.8323 35.707 26.7356C35.3953 26.6966 35.0868 26.6351 34.7839 26.5519C34.6248 26.5363 34.4678 26.5033 34.3158 26.4534C33.6089 26.2179 32.9553 25.8454 32.3923 25.3572C31.8294 24.869 31.3682 24.2746 31.035 23.6081C30.7019 22.9416 30.5033 22.216 30.4507 21.4727C30.3981 20.7294 30.4924 19.9831 30.7283 19.2763ZM26.3817 8.70626C26.1527 8.86855 25.8935 8.9833 25.6194 9.04371C25.3454 9.10413 25.0619 9.10898 24.7859 9.058C24.5099 9.00701 24.247 8.90121 24.0125 8.74685C23.7781 8.5925 23.577 8.39272 23.4211 8.15932C23.2652 7.92592 23.1577 7.66365 23.1049 7.38799C23.0521 7.11232 23.0551 6.82888 23.1137 6.55439C23.1723 6.27991 23.2854 6.01996 23.4462 5.78991C23.607 5.55986 23.8122 5.36437 24.0499 5.21501C24.5129 4.92397 25.0711 4.82503 25.606 4.93924C26.1408 5.05344 26.61 5.37178 26.9137 5.82655C27.2175 6.28132 27.3318 6.83665 27.2325 7.37443C27.1331 7.91221 26.8279 8.39003 26.3817 8.70626ZM52.4305 49.9319C52.6618 49.7676 52.9236 49.6514 53.2006 49.5901C53.4776 49.5288 53.764 49.5237 54.043 49.575C54.322 49.6263 54.5878 49.7331 54.8249 49.8889C55.0619 50.0447 55.2652 50.2465 55.4229 50.4823C55.5806 50.7181 55.6894 50.9832 55.7429 51.2617C55.7964 51.5403 55.7935 51.8268 55.7344 52.1042C55.6752 52.3817 55.5611 52.6444 55.3986 52.877C55.2362 53.1095 55.0287 53.3071 54.7886 53.4581C54.3209 53.7522 53.757 53.8523 53.2167 53.7371C52.6765 53.6219 52.2024 53.3006 51.8953 52.8414C51.5882 52.3822 51.4723 51.8213 51.5723 51.278C51.6722 50.7347 51.9801 50.2518 52.4305 49.9319ZM54.6158 19.495C55.2888 19.495 55.9342 19.2277 56.4101 18.7518C56.886 18.2759 57.1533 17.6305 57.1533 16.9575C57.1533 16.2845 56.886 15.6391 56.4101 15.1632C55.9342 14.6873 55.2888 14.42 54.6158 14.42C53.9428 14.42 53.2974 14.6873 52.8215 15.1632C52.3456 15.6391 52.0783 16.2845 52.0783 16.9575C52.0783 17.6305 52.3456 18.2759 52.8215 18.7518C53.2974 19.2277 53.9428 19.495 54.6158 19.495ZM14.5495 19.0663C14.2727 19.2597 13.96 19.396 13.6298 19.467C13.2996 19.538 12.9585 19.5424 12.6266 19.48C12.2947 19.4175 11.9786 19.2893 11.6968 19.1031C11.4151 18.9168 11.1733 18.6762 10.9858 18.3953C10.7982 18.1144 10.6686 17.7989 10.6046 17.4673C10.5406 17.1357 10.5434 16.7946 10.6129 16.4641C10.6824 16.1335 10.8172 15.8202 11.0094 15.5425C11.2016 15.2647 11.4472 15.0281 11.732 14.8466C12.2919 14.4729 12.9772 14.337 13.6373 14.4687C14.2974 14.6004 14.8781 14.9889 15.2517 15.5488C15.6254 16.1086 15.7613 16.794 15.6296 17.454C15.4979 18.1141 15.1094 18.6948 14.5495 19.0684" fill="#1E293B"/>
</g>
<g filter="url(#filter1_d_553_959)">
<path d="M64.3039 32.5719C64.0316 32.6983 63.7369 32.7696 63.437 32.7816C63.137 32.7936 62.8376 32.7461 62.5561 32.6419C60.236 31.7747 57.733 31.5143 55.2842 31.8852C52.8353 32.2562 50.5217 33.2462 48.5626 34.7616C53.6529 34.8928 58.6295 36.2797 63.0504 38.8063C64.1315 39.4165 64.9274 40.4293 65.2647 41.6239C65.602 42.8186 65.4534 44.0981 64.8512 45.1836C64.249 46.2691 63.242 47.0725 62.0499 47.4186C60.8578 47.7647 59.5772 47.6255 58.4873 47.0313C55.8704 45.5121 52.96 44.5678 49.9497 44.2612C46.9394 43.9545 43.8983 44.2926 41.0289 45.2528C41.7617 46.6594 42.3107 48.1557 42.6586 49.7044C42.7832 50.166 42.8445 50.645 42.8423 51.1219C42.917 51.7265 42.8619 52.34 42.6809 52.9216C42.4998 53.5033 42.1969 54.0397 41.7923 54.495C41.6173 54.67 41.4241 54.8224 41.2126 54.9522C40.5663 55.5731 39.7718 56.0181 38.9048 56.245L11.0404 63.7044C10.142 63.9441 9.19634 63.943 8.29852 63.7011C7.40069 63.4593 6.58242 62.9852 5.92603 62.3266C5.26965 61.668 4.79832 60.8481 4.55947 59.9495C4.32062 59.0508 4.32268 58.1051 4.56544 57.2075L12.0248 29.3388C12.2539 28.462 12.7061 27.6594 13.3373 27.0091C13.4627 26.8064 13.6086 26.6205 13.7748 26.4513C14.2163 26.0572 14.7353 25.7599 15.2985 25.5783C15.8617 25.3967 16.4566 25.3349 17.0451 25.3969C17.5767 25.3838 18.1083 25.4516 18.6201 25.5982C19.979 25.9041 21.2964 26.3711 22.5445 26.9894C23.157 23.4457 22.5664 19.7969 20.8623 16.6294C20.5403 16.0289 20.4701 15.3252 20.667 14.6729C20.8639 14.0206 21.3118 13.4733 21.9123 13.1513C22.5128 12.8293 23.2166 12.759 23.8688 12.9559C24.5211 13.1529 25.0685 13.6008 25.3904 14.2013C27.9477 18.9677 28.5923 24.5295 27.1929 29.7544C28.8913 30.9595 30.5058 32.2787 32.0251 33.7028C32.486 33.2357 33.1111 32.967 33.7672 32.9543C34.4233 32.9415 35.0585 33.1857 35.5371 33.6346C36.0157 34.0836 36.3 34.7018 36.3292 35.3574C36.3584 36.013 36.1303 36.654 35.6936 37.1438C36.0056 37.0198 36.3221 36.901 36.6429 36.7872C39.5259 35.7512 42.5324 35.0981 45.5854 34.8447C45.3165 34.6289 45.0996 34.3553 44.9509 34.0442C44.8021 33.7332 44.7253 33.3926 44.7262 33.0478C44.727 32.703 44.8055 32.3628 44.9557 32.0524C45.106 31.7421 45.3242 31.4695 45.5942 31.255C48.1761 29.213 51.2416 27.8723 54.4937 27.3626C57.7458 26.8529 61.0745 27.1915 64.1573 28.3457C64.5798 28.5057 64.9456 28.7871 65.2088 29.1543C65.4719 29.5216 65.6207 29.9585 65.6363 30.41C65.652 30.8616 65.5339 31.3077 65.2968 31.6923C65.0597 32.077 64.7143 32.383 64.3039 32.5719ZM25.1739 48.6653L24.7779 48.3263L25.1411 48.6369L25.1739 48.6653ZM8.86825 61.5891C9.39325 61.7313 9.94888 61.7313 10.4761 61.5913L11.7404 61.261C9.95256 59.9644 8.34649 58.4342 6.96513 56.711L6.67856 57.7829C6.46454 58.5779 6.57495 59.4255 6.98555 60.1392C7.39615 60.8529 8.07332 61.3744 8.86825 61.5891ZM12.3595 56.105C13.9169 57.5402 15.6688 58.7487 17.5636 59.6947L23.6842 58.0563C21.3023 56.6491 19.0799 54.9878 17.0561 53.1016C14.4094 50.6019 12.099 47.7686 10.1829 44.6732L8.44606 51.1679C9.51047 52.9904 10.8281 54.6527 12.3595 56.105ZM20.0529 49.9035C22.9722 52.5989 26.3215 54.7873 29.9623 56.3785L35.4114 54.9172C30.428 52.9476 25.9388 49.9059 22.2623 46.0075C20.9736 44.7283 19.7583 43.3772 18.6223 41.9607C18.1192 41.3365 17.6496 40.7145 17.2136 40.0947C15.5785 37.8835 14.2728 35.4468 13.3373 32.8607L11.7995 38.6816C13.8888 42.8666 16.6804 46.6622 20.0529 49.9035ZM62.7836 41.3503C62.5668 41.0923 62.3024 40.8784 62.0048 40.7203H61.9939C58.2866 38.5997 54.1537 37.3313 49.8951 37.007C45.6365 36.6827 41.3592 37.3108 37.3736 38.8457L36.9536 38.9988L36.9733 39.0207C32.828 40.6788 29.1276 43.2826 26.167 46.6244C26.7336 47.121 27.2826 47.576 27.8273 48.0135C28.5908 48.626 29.3586 49.1925 30.2336 49.7635C32.6207 47.0161 35.6465 44.8977 39.0448 43.5947C42.3583 42.295 45.9216 41.7564 49.4712 42.0187C53.0209 42.2811 56.4662 43.3378 59.5526 45.1107C60.0618 45.4161 60.6625 45.5315 61.2486 45.4367C61.8347 45.3418 62.3684 45.0427 62.7552 44.5923C63.142 44.1418 63.357 43.5691 63.3622 42.9754C63.3674 42.3817 63.1624 41.8075 62.7836 41.3503Z" fill="#1E293B"/>
</g>
</g>
<defs>
<filter id="filter0_d_553_959" x="8.55859" y="2.37732" width="54.5947" height="57.4064" filterUnits="userSpaceOnUse" color-interpolation-filters="sRGB">
<feFlood flood-opacity="0" result="BackgroundImageFix"/>
<feColorMatrix in="SourceAlpha" type="matrix" values="0 0 0 0 0 0 0 0 0 0 0 0 0 0 0 0 0 0 127 0" result="hardAlpha"/>
<feOffset dx="2" dy="2"/>
<feGaussianBlur stdDeviation="2"/>
<feComposite in2="hardAlpha" operator="out"/>
<feColorMatrix type="matrix" values="0 0 0 0 0 0 0 0 0 0 0 0 0 0 0 0 0 0 0.25 0"/>
<feBlend mode="normal" in2="BackgroundImageFix" result="effect1_dropShadow_553_959"/>
<feBlend mode="normal" in="SourceGraphic" in2="effect1_dropShadow_553_959" result="shape"/>
</filter>
<filter id="filter1_d_553_959" x="2.38184" y="10.8463" width="69.2559" height="59.0371" filterUnits="userSpaceOnUse" color-interpolation-filters="sRGB">
<feFlood flood-opacity="0" result="BackgroundImageFix"/>
<feColorMatrix in="SourceAlpha" type="matrix" values="0 0 0 0 0 0 0 0 0 0 0 0 0 0 0 0 0 0 127 0" result="hardAlpha"/>
<feOffset dx="2" dy="2"/>
<feGaussianBlur stdDeviation="2"/>
<feComposite in2="hardAlpha" operator="out"/>
<feColorMatrix type="matrix" values="0 0 0 0 0 0 0 0 0 0 0 0 0 0 0 0 0 0 0.25 0"/>
<feBlend mode="normal" in2="BackgroundImageFix" result="effect1_dropShadow_553_959"/>
<feBlend mode="normal" in="SourceGraphic" in2="effect1_dropShadow_553_959" result="shape"/>
</filter>
<clipPath id="clip0_553_959">
<rect width="70" height="70" fill="white"/>
</clipPath>
</defs>
</svg>
