<svg width="80" height="80" viewBox="0 0 80 80" fill="none" xmlns="http://www.w3.org/2000/svg">
<g clip-path="url(#clip0_548_710)">
<path d="M76.5263 72.6L71.973 56.6667C71.7804 56.0018 71.3775 55.4172 70.8245 55.0007C70.2716 54.5842 69.5985 54.3582 68.9063 54.3567H11.0863C10.3935 54.356 9.71938 54.5812 9.16602 54.998C8.61266 55.4148 8.21021 56.0006 8.01962 56.6667L3.46962 72.6C3.33321 73.0748 3.30904 73.5748 3.39901 74.0605C3.48898 74.5462 3.69064 75.0043 3.98805 75.3987C4.28546 75.7931 4.67049 76.113 5.11273 76.333C5.55498 76.5531 6.04232 76.6673 6.53629 76.6667H73.463C73.9569 76.6673 74.4443 76.5531 74.8865 76.333C75.3288 76.113 75.7138 75.7931 76.0112 75.3987C76.3086 75.0043 76.5103 74.5462 76.6002 74.0605C76.6902 73.5748 76.6627 73.0748 76.5263 72.6Z" fill="#E3E3E3"/>
<path d="M73.1427 60.7332L71.9827 56.6666C71.7926 56.0002 71.3903 55.4141 70.8368 54.9972C70.2833 54.5803 69.609 54.3554 68.916 54.3566H11.0927C10.3999 54.3559 9.7258 54.5811 9.17244 54.9979C8.61908 55.4147 8.21663 56.0005 8.02604 56.6666L6.85938 60.7332H73.1427Z" fill="white"/>
<g filter="url(#filter0_d_548_710)">
<path d="M76.5263 72.6L71.973 56.6667C71.7804 56.0018 71.3775 55.4172 70.8245 55.0007C70.2716 54.5842 69.5985 54.3582 68.9063 54.3567H11.0863C10.3935 54.356 9.71938 54.5812 9.16602 54.998C8.61266 55.4148 8.21021 56.0006 8.01962 56.6667L3.46962 72.6C3.33321 73.0748 3.30904 73.5748 3.39901 74.0605C3.48898 74.5462 3.69064 75.0043 3.98805 75.3987C4.28546 75.7931 4.67049 76.113 5.11273 76.333C5.55498 76.5531 6.04232 76.6673 6.53629 76.6667H73.463C73.9569 76.6673 74.4443 76.5531 74.8865 76.333C75.3288 76.113 75.7138 75.7931 76.0112 75.3987C76.3086 75.0043 76.5103 74.5462 76.6002 74.0605C76.6902 73.5748 76.6627 73.0748 76.5263 72.6Z" stroke="#191919" stroke-width="4" stroke-linecap="round" stroke-linejoin="round" shape-rendering="crispEdges"/>
</g>
<path d="M24.0965 70.2933C28.4965 70.2933 32.0632 68.1533 32.0632 65.5133C32.0632 62.8733 28.4965 60.73 24.0965 60.73C19.6965 60.73 16.1299 62.8733 16.1299 65.5133C16.1299 68.1533 19.6965 70.2933 24.0965 70.2933ZM55.9332 70.2933C60.3332 70.2933 63.8999 68.1533 63.8999 65.5133C63.8999 62.8733 60.3332 60.73 55.9332 60.73C51.5332 60.73 47.9666 62.8733 47.9666 65.5133C47.9666 68.1533 51.5332 70.2933 55.9332 70.2933Z" fill="#808080" stroke="#191919" stroke-width="4" stroke-linecap="round" stroke-linejoin="round"/>
<path d="M39.9999 32.0466C42.1128 32.0466 44.1391 31.2073 45.6332 29.7132C47.1272 28.2192 47.9665 26.1928 47.9665 24.0799C47.9665 21.9671 47.1272 19.9407 45.6332 18.4467C44.1391 16.9526 42.1128 16.1133 39.9999 16.1133C37.887 16.1133 35.8606 16.9526 34.3666 18.4467C32.8725 19.9407 32.0332 21.9671 32.0332 24.0799C32.0332 26.1928 32.8725 28.2192 34.3666 29.7132C35.8606 31.2073 37.887 32.0466 39.9999 32.0466Z" fill="#FF896F" stroke="#191919" stroke-width="4" stroke-linecap="round" stroke-linejoin="round"/>
<path d="M25.6562 16.1133C25.7442 14.3286 26.1871 12.5794 26.9591 10.9679C27.731 9.3564 28.8164 7.91495 30.1519 6.72782C31.4873 5.54069 33.0461 4.63171 34.737 4.05402C36.4278 3.47632 38.2169 3.2415 39.9996 3.3633C41.7819 3.24242 43.5704 3.4779 45.2607 4.05598C46.951 4.63406 48.5092 5.54315 49.8442 6.73014C51.1792 7.91714 52.2643 9.35826 53.0362 10.9693C53.808 12.5804 54.2511 14.3291 54.3396 16.1133" stroke="#191919" stroke-width="4" stroke-linecap="round" stroke-linejoin="round"/>
<path d="M54.3398 16.1133H57.6598C59.3502 16.1133 60.9712 16.7848 62.1665 17.98C63.3617 19.1752 64.0332 20.7963 64.0332 22.4866C64.0332 24.1769 63.3617 25.798 62.1665 26.9932C60.9712 28.1885 59.3502 28.8599 57.6598 28.8599H54.3398V16.1133Z" fill="#808080"/>
<path d="M54.3398 16.1133H57.6598C59.3328 16.1309 60.9303 16.8121 62.1011 18.0073C63.2719 19.2025 63.9201 20.8136 63.9032 22.4866H54.3398V16.1133Z" fill="#B2B2B2"/>
<path d="M25.6558 16.1133H22.3392C20.6488 16.1133 19.0278 16.7848 17.8325 17.98C16.6373 19.1752 15.9658 20.7963 15.9658 22.4866C15.9658 24.1769 16.6373 25.798 17.8325 26.9932C19.0278 28.1885 20.6488 28.8599 22.3392 28.8599H25.6558V16.1133Z" fill="#808080"/>
<path d="M25.656 16.1133H22.3394C20.6664 16.1309 19.0689 16.8121 17.8981 18.0073C16.7273 19.2025 16.0791 20.8136 16.096 22.4866H25.656V16.1133Z" fill="#B2B2B2"/>
<path d="M25.6562 48.05C26.0501 45.3732 27.3941 42.9274 29.4426 41.1599C31.4911 39.3923 34.1073 38.4209 36.8129 38.4233H43.1863C45.8913 38.4217 48.5067 39.3935 50.5545 41.161C52.6023 42.9285 53.9458 45.3737 54.3396 48.05" fill="#1E293B"/>
<g filter="url(#filter1_d_548_710)">
<path d="M25.6558 48.0499C26.0497 45.3731 27.3937 42.9274 29.4422 41.1598C31.4906 39.3922 34.1068 38.4209 36.8125 38.4233H43.1858C45.8909 38.4217 48.5063 39.3934 50.5541 41.1609C52.6019 42.9284 53.9454 45.3737 54.3392 48.0499M54.3392 16.1133H57.5258C59.2161 16.1133 60.8372 16.7848 62.0324 17.98C63.2277 19.1752 63.8992 20.7963 63.8992 22.4866C63.8992 24.1769 63.2277 25.798 62.0324 26.9932C60.8372 28.1885 59.2161 28.8599 57.5258 28.8599H54.3392V16.1133ZM25.6558 16.1133H22.3392C20.6488 16.1133 19.0278 16.7848 17.8325 17.98C16.6373 19.1752 15.9658 20.7963 15.9658 22.4866C15.9658 24.1769 16.6373 25.798 17.8325 26.9932C19.0278 28.1885 20.6488 28.8599 22.3392 28.8599H25.6558V16.1133Z" stroke="#191919" stroke-width="4" stroke-linecap="round" stroke-linejoin="round" shape-rendering="crispEdges"/>
</g>
</g>
<defs>
<filter id="filter0_d_548_710" x="-0.654297" y="50.3567" width="85.3066" height="34.3101" filterUnits="userSpaceOnUse" color-interpolation-filters="sRGB">
<feFlood flood-opacity="0" result="BackgroundImageFix"/>
<feColorMatrix in="SourceAlpha" type="matrix" values="0 0 0 0 0 0 0 0 0 0 0 0 0 0 0 0 0 0 127 0" result="hardAlpha"/>
<feOffset dx="2" dy="2"/>
<feGaussianBlur stdDeviation="2"/>
<feComposite in2="hardAlpha" operator="out"/>
<feColorMatrix type="matrix" values="0 0 0 0 0 0 0 0 0 0 0 0 0 0 0 0 0 0 0.25 0"/>
<feBlend mode="normal" in2="BackgroundImageFix" result="effect1_dropShadow_548_710"/>
<feBlend mode="normal" in="SourceGraphic" in2="effect1_dropShadow_548_710" result="shape"/>
</filter>
<filter id="filter1_d_548_710" x="11.9658" y="12.1133" width="59.9336" height="43.9369" filterUnits="userSpaceOnUse" color-interpolation-filters="sRGB">
<feFlood flood-opacity="0" result="BackgroundImageFix"/>
<feColorMatrix in="SourceAlpha" type="matrix" values="0 0 0 0 0 0 0 0 0 0 0 0 0 0 0 0 0 0 127 0" result="hardAlpha"/>
<feOffset dx="2" dy="2"/>
<feGaussianBlur stdDeviation="2"/>
<feComposite in2="hardAlpha" operator="out"/>
<feColorMatrix type="matrix" values="0 0 0 0 0 0 0 0 0 0 0 0 0 0 0 0 0 0 0.25 0"/>
<feBlend mode="normal" in2="BackgroundImageFix" result="effect1_dropShadow_548_710"/>
<feBlend mode="normal" in="SourceGraphic" in2="effect1_dropShadow_548_710" result="shape"/>
</filter>
<clipPath id="clip0_548_710">
<rect width="80" height="80" fill="white"/>
</clipPath>
</defs>
</svg>
