<svg width="200" height="200" viewBox="0 0 200 200" fill="none" xmlns="http://www.w3.org/2000/svg">
<g clip-path="url(#clip0_524_852)">
<g filter="url(#filter0_d_524_852)">
<path d="M194.777 103.148L183.351 94.3012L168.784 64.45C167.228 61.26 164.806 58.5714 161.796 56.6907C158.786 54.81 155.307 53.8129 151.758 53.8129H78.1066C75.0214 53.813 71.9913 54.6306 69.3247 56.1824C66.6582 57.7342 64.4504 59.9649 62.9262 62.6473L45.2922 93.6828C28.0691 94.1481 11.6633 105.367 11.6633 105.367C5.40664 108.156 4.92461 116.272 4.92461 123.123C4.92461 124.797 5.18359 126.155 3.50898 126.155C2.70474 126.155 1.93343 126.475 1.36474 127.043C0.796049 127.612 0.476563 128.383 0.476562 129.188V140.017C0.476563 140.821 0.796049 141.593 1.36474 142.161C1.93343 142.73 2.70474 143.05 3.50898 143.05H186.729C193.989 143.05 199.875 137.164 199.875 129.904V113.542C199.875 111.536 199.415 109.556 198.532 107.754C197.648 105.952 196.364 104.377 194.777 103.148Z" fill="#FF473E"/>
</g>
<path d="M61.9162 86.4301L71.8385 68.9672C72.7981 67.2781 74.1881 65.8735 75.8671 64.8964C77.5461 63.9193 79.4541 63.4046 81.3967 63.4047H119.778V90.7875L64.3537 90.632C62.2006 90.6262 60.8526 88.302 61.9162 86.4301ZM168.58 86.8719L160.547 70.4113C158.47 66.1551 154.068 63.4051 149.332 63.4051H130.69V90.8184L166.044 90.9176C168.127 90.9234 169.493 88.743 168.58 86.8719Z" fill="white"/>
<path d="M21.4688 139.709C21.4688 124.473 33.8199 112.121 49.0559 112.121C64.2918 112.121 76.643 124.473 76.643 139.709V143.05H21.4688V139.709ZM122.504 143.05H177.679V139.709C177.679 124.473 165.327 112.121 150.091 112.121C134.855 112.121 122.504 124.473 122.504 139.709V143.05Z" fill="#D32A2A"/>
<g filter="url(#filter1_d_524_852)">
<path d="M71.9332 140.315C71.9332 152.642 61.9406 162.634 49.6141 162.634C37.2875 162.634 27.2949 152.642 27.2949 140.315C27.2949 127.989 37.2875 117.996 49.6141 117.996C61.9406 117.996 71.9332 127.989 71.9332 140.315ZM150.65 117.996C138.323 117.996 128.33 127.989 128.33 140.315C128.33 152.642 138.323 162.634 150.65 162.634C162.976 162.634 172.969 152.642 172.969 140.315C172.969 127.989 162.976 117.996 150.65 117.996ZM75.3812 81.7293C74.2937 82.3727 73.1996 83.0996 72.2621 83.8727L68.9926 73.9766L61.3078 86.8203C60.2395 88.5266 61.4641 90.7422 63.477 90.7453L71.1535 90.7531C72.2738 91.9059 73.8762 92.9652 75.4559 93.8426C77.7176 95.0988 80.7875 93.7899 80.7875 91.5645V83.9637C80.7875 81.7051 77.6297 80.3988 75.3812 81.7293ZM167.943 90.8949C169.639 90.8899 170.745 89.1106 169.998 87.5875L159.28 65.7363C158.957 65.078 158.456 64.5233 157.833 64.1354C157.211 63.7475 156.492 63.5419 155.759 63.5418H150.65V90.9457L167.943 90.8949Z" fill="#2B3B47"/>
</g>
<path d="M64.2422 140.315C64.2422 148.395 57.6926 154.944 49.6133 154.944C41.534 154.944 34.9844 148.395 34.9844 140.315C34.9844 132.236 41.534 125.686 49.6133 125.686C57.6926 125.686 64.2422 132.236 64.2422 140.315ZM150.649 125.687C142.57 125.687 136.02 132.236 136.02 140.316C136.02 148.395 142.57 154.945 150.649 154.945C158.728 154.945 165.278 148.395 165.278 140.316C165.278 132.236 158.728 125.687 150.649 125.687Z" fill="#9BA5A8"/>
<path d="M54.7387 140.315C54.7387 143.145 52.4445 145.439 49.6145 145.439C46.7844 145.439 44.4902 143.145 44.4902 140.315C44.4902 137.485 46.7844 135.191 49.6145 135.191C52.4445 135.191 54.7387 137.485 54.7387 140.315ZM150.65 135.191C147.82 135.191 145.525 137.485 145.525 140.315C145.525 143.145 147.82 145.439 150.65 145.439C153.48 145.439 155.774 143.145 155.774 140.315C155.774 137.485 153.48 135.191 150.65 135.191Z" fill="#E5E4DF"/>
<path d="M199.843 125.381H196.832C193.578 125.381 191.548 122.743 191.548 119.489C191.548 116.235 193.578 113.597 196.832 113.597H199.843V125.381ZM4.8229 124.572H8.23814C11.492 124.572 13.5225 121.934 13.5225 118.68C13.5225 115.427 11.492 112.789 8.23814 112.789H5.92876C4.68501 115.202 4.8229 124.572 4.8229 124.572Z" fill="#FFD469"/>
</g>
<defs>
<filter id="filter0_d_524_852" x="-3.52344" y="53.8129" width="207.398" height="97.2367" filterUnits="userSpaceOnUse" color-interpolation-filters="sRGB">
<feFlood flood-opacity="0" result="BackgroundImageFix"/>
<feColorMatrix in="SourceAlpha" type="matrix" values="0 0 0 0 0 0 0 0 0 0 0 0 0 0 0 0 0 0 127 0" result="hardAlpha"/>
<feOffset dy="4"/>
<feGaussianBlur stdDeviation="2"/>
<feComposite in2="hardAlpha" operator="out"/>
<feColorMatrix type="matrix" values="0 0 0 0 0 0 0 0 0 0 0 0 0 0 0 0 0 0 0.25 0"/>
<feBlend mode="normal" in2="BackgroundImageFix" result="effect1_dropShadow_524_852"/>
<feBlend mode="normal" in="SourceGraphic" in2="effect1_dropShadow_524_852" result="shape"/>
</filter>
<filter id="filter1_d_524_852" x="23.2949" y="63.5418" width="153.674" height="107.093" filterUnits="userSpaceOnUse" color-interpolation-filters="sRGB">
<feFlood flood-opacity="0" result="BackgroundImageFix"/>
<feColorMatrix in="SourceAlpha" type="matrix" values="0 0 0 0 0 0 0 0 0 0 0 0 0 0 0 0 0 0 127 0" result="hardAlpha"/>
<feOffset dy="4"/>
<feGaussianBlur stdDeviation="2"/>
<feComposite in2="hardAlpha" operator="out"/>
<feColorMatrix type="matrix" values="0 0 0 0 0 0 0 0 0 0 0 0 0 0 0 0 0 0 0.25 0"/>
<feBlend mode="normal" in2="BackgroundImageFix" result="effect1_dropShadow_524_852"/>
<feBlend mode="normal" in="SourceGraphic" in2="effect1_dropShadow_524_852" result="shape"/>
</filter>
<clipPath id="clip0_524_852">
<rect width="200" height="200" fill="white"/>
</clipPath>
</defs>
</svg>
