<svg width="90" height="90" viewBox="0 0 90 90" fill="none" xmlns="http://www.w3.org/2000/svg">
<path d="M75.3377 84.4875L48.5402 57.6938H9.15771C9.15771 53.3513 11.3952 49.6213 15.8702 46.5038C20.3452 43.3863 26.3777 41.8275 33.9677 41.8275C34.7127 41.8275 35.4527 41.8425 36.1877 41.8725C36.9227 41.9025 37.6152 41.9663 38.2652 42.0638V47.3925L3.25146 12.405L5.92896 9.72751L78.0152 81.8138L75.3377 84.4875ZM9.16147 70.0988V66.3488H58.7777V70.0988H9.16147ZM12.0452 82.5C11.2702 82.5 10.5952 82.2125 10.0202 81.6375C9.44521 81.0625 9.15771 80.3875 9.15771 79.6125V78.75H58.774V79.6125C58.774 80.3875 58.4865 81.0625 57.9115 81.6375C57.3365 82.2125 56.6615 82.5 55.8865 82.5H12.0452ZM76.189 69.45L44.3815 37.5863L42.4765 23.9438H59.7827V8.94376H63.5327V23.9438H80.8427L76.189 69.45Z" fill="#E6502C"/>
</svg>
