<svg width="70" height="70" viewBox="0 0 70 70" fill="none" xmlns="http://www.w3.org/2000/svg">
<path d="M17.6165 22.6684C10.4415 24.293 6.85404 25.1038 5.99945 27.8484C5.14779 30.59 7.59196 33.4513 12.4832 39.1709L13.749 40.6496C15.1374 42.2742 15.8345 43.088 16.1465 44.0913C16.4586 45.0975 16.3536 46.1825 16.1436 48.3496L15.9511 50.3242C15.2132 57.9571 14.8428 61.7721 17.077 63.4667C19.3111 65.1613 22.6711 63.6155 29.3853 60.5238L31.1265 59.7246C33.034 58.8438 33.9878 58.4063 34.9999 58.4063C36.012 58.4063 36.9657 58.8438 38.8761 59.7246L40.6115 60.5238C47.3286 63.6155 50.6886 65.1613 52.9199 63.4696C55.157 61.7721 54.7865 57.9571 54.0486 50.3242M57.5165 39.1709C62.4078 33.4542 64.852 30.593 64.0003 27.8484C63.1486 25.1038 59.5582 24.29 52.3832 22.6684L50.5282 22.2484C48.4895 21.7875 47.4715 21.5571 46.652 20.9359C45.8324 20.3146 45.3103 19.3725 44.2603 17.4884L43.3036 15.7734C39.6082 9.14671 37.762 5.83337 34.9999 5.83337C32.2378 5.83337 30.3915 9.14671 26.6961 15.7734" stroke="#1E293B" stroke-width="6" stroke-linecap="round"/>
</svg>
