<svg width="90" height="90" viewBox="0 0 90 90" fill="none" xmlns="http://www.w3.org/2000/svg">
<mask id="mask0_552_911" style="mask-type:luminance" maskUnits="userSpaceOnUse" x="14" y="6" width="62" height="78">
<path d="M71.25 7.5H18.75C16.6789 7.5 15 9.17893 15 11.25V78.75C15 80.8211 16.6789 82.5 18.75 82.5H71.25C73.3211 82.5 75 80.8211 75 78.75V11.25C75 9.17893 73.3211 7.5 71.25 7.5Z" fill="#555555" stroke="white" stroke-width="2" stroke-linejoin="round"/>
<path d="M39.375 26.25H61.875M39.375 45H61.875M39.375 63.75H61.875" stroke="white" stroke-width="2" stroke-linecap="round" stroke-linejoin="round"/>
<path fill-rule="evenodd" clip-rule="evenodd" d="M28.125 30C29.1196 30 30.0734 29.6049 30.7766 28.9016C31.4799 28.1984 31.875 27.2446 31.875 26.25C31.875 25.2554 31.4799 24.3016 30.7766 23.5984C30.0734 22.8951 29.1196 22.5 28.125 22.5C27.1304 22.5 26.1766 22.8951 25.4734 23.5984C24.7701 24.3016 24.375 25.2554 24.375 26.25C24.375 27.2446 24.7701 28.1984 25.4734 28.9016C26.1766 29.6049 27.1304 30 28.125 30ZM28.125 48.75C29.1196 48.75 30.0734 48.3549 30.7766 47.6516C31.4799 46.9484 31.875 45.9946 31.875 45C31.875 44.0054 31.4799 43.0516 30.7766 42.3484C30.0734 41.6451 29.1196 41.25 28.125 41.25C27.1304 41.25 26.1766 41.6451 25.4734 42.3484C24.7701 43.0516 24.375 44.0054 24.375 45C24.375 45.9946 24.7701 46.9484 25.4734 47.6516C26.1766 48.3549 27.1304 48.75 28.125 48.75ZM28.125 67.5C29.1196 67.5 30.0734 67.1049 30.7766 66.4017C31.4799 65.6984 31.875 64.7446 31.875 63.75C31.875 62.7554 31.4799 61.8016 30.7766 61.0983C30.0734 60.3951 29.1196 60 28.125 60C27.1304 60 26.1766 60.3951 25.4734 61.0983C24.7701 61.8016 24.375 62.7554 24.375 63.75C24.375 64.7446 24.7701 65.6984 25.4734 66.4017C26.1766 67.1049 27.1304 67.5 28.125 67.5Z" fill="white"/>
</mask>
<g mask="url(#mask0_552_911)">
<path d="M0 0H90V90H0V0Z" fill="#E6502C"/>
</g>
</svg>
