<svg width="70" height="70" viewBox="0 0 70 70" fill="none" xmlns="http://www.w3.org/2000/svg">
<g clip-path="url(#clip0_498_552)">
<g filter="url(#filter0_d_498_552)">
<path d="M13.0967 54.6426H19.5837V57.902H13.0967V54.6426ZM50.2842 54.6426H56.7723V57.902H50.2842V54.6426Z" fill="#1E293B"/>
</g>
<g filter="url(#filter1_d_498_552)">
<path d="M55.4369 50.1768C56.8884 50.1768 58.0652 48.9938 58.0652 47.5343C58.0652 46.0749 56.8884 44.8918 55.4369 44.8918C53.9853 44.8918 52.8086 46.0749 52.8086 47.5343C52.8086 48.9938 53.9853 50.1768 55.4369 50.1768Z" fill="#1E293B"/>
</g>
<g filter="url(#filter2_d_498_552)">
<path d="M49.7546 50.1768C51.2056 50.1768 52.3818 48.9938 52.3818 47.5343C52.3818 46.0749 51.2056 44.8918 49.7546 44.8918C48.3037 44.8918 47.1274 46.0749 47.1274 47.5343C47.1274 48.9938 48.3037 50.1768 49.7546 50.1768Z" fill="#1E293B"/>
</g>
<g filter="url(#filter3_d_498_552)">
<path d="M20.2464 50.1768C21.698 50.1768 22.8747 48.9938 22.8747 47.5343C22.8747 46.0749 21.698 44.8918 20.2464 44.8918C18.7949 44.8918 17.6182 46.0749 17.6182 47.5343C17.6182 48.9938 18.7949 50.1768 20.2464 50.1768Z" fill="#1E293B"/>
</g>
<g filter="url(#filter4_d_498_552)">
<path d="M14.5643 50.1768C16.0159 50.1768 17.1926 48.9938 17.1926 47.5343C17.1926 46.0749 16.0159 44.8918 14.5643 44.8918C13.1128 44.8918 11.936 46.0749 11.936 47.5343C11.936 48.9938 13.1128 50.1768 14.5643 50.1768Z" fill="#1E293B"/>
</g>
<g filter="url(#filter5_d_498_552)">
<path d="M65.6261 17.2309H65.2083L61.25 13.2519V8.43391C61.2523 7.56114 60.908 6.72317 60.2927 6.10418C59.6774 5.4852 58.8415 5.13586 57.9688 5.13297H52.4453C52.4453 3.50547 51.5769 2.1875 50.5072 2.1875H19.495C18.4231 2.1875 17.5569 3.50547 17.5569 5.13297H12.0312C11.1585 5.13586 10.3226 5.4852 9.70729 6.10418C9.092 6.72317 8.74768 7.56114 8.75 8.43391V13.2519L4.79281 17.2309H4.37609C3.77125 17.2309 3.28125 17.722 3.28125 18.3302V27.1261C3.28125 27.7353 3.77125 28.2264 4.37609 28.2264H6.5625C7.16844 28.2264 7.65625 27.7353 7.65625 27.1261V18.3302C7.65697 18.1861 7.62921 18.0432 7.57457 17.9099C7.51992 17.7766 7.43947 17.6554 7.33784 17.5532C7.2362 17.4511 7.11538 17.37 6.98233 17.3147C6.84927 17.2594 6.70659 17.2309 6.5625 17.2309H6.34047L8.75 14.8072V59.0155C8.74826 59.8879 9.09284 60.7253 9.70807 61.3438C10.3233 61.9623 11.1589 62.3113 12.0312 62.3142V65.6152C12.0312 66.8238 13.0167 67.8136 14.2198 67.8136H18.5948C19.1758 67.8104 19.7319 67.5774 20.1416 67.1655C20.5513 66.7535 20.7813 66.1961 20.7812 65.6152V62.3142H49.2188V65.6152C49.2188 66.8238 50.2042 67.8136 51.4073 67.8136H55.7823C56.3633 67.8104 56.9194 67.5774 57.3291 67.1655C57.7388 66.7535 57.9688 66.1961 57.9688 65.6152V62.3142C59.7811 62.3142 61.25 60.8377 61.25 59.0155V14.8072L63.6617 17.2309H63.4375C62.8338 17.2309 62.3438 17.722 62.3438 18.3302V27.1261C62.3438 27.7353 62.8338 28.2264 63.4375 28.2264H65.6261C65.7702 28.2263 65.9128 28.1977 66.0458 28.1422C66.1788 28.0868 66.2996 28.0056 66.4011 27.9034C66.5027 27.8011 66.583 27.6798 66.6375 27.5464C66.692 27.413 66.7196 27.2702 66.7188 27.1261V18.3302C66.7195 18.1862 66.6917 18.0434 66.6372 17.9102C66.5826 17.7769 66.5022 17.6557 66.4007 17.5536C66.2992 17.4515 66.1785 17.3704 66.0456 17.315C65.9127 17.2597 65.7701 17.2311 65.6261 17.2309ZM44.9444 49.665V50.7653H25.0578V49.665H44.9444ZM25.0578 48.5669V47.4666H44.9444V48.5669H25.0578ZM44.9444 51.8656V52.9659H25.0578V51.8656H44.9444ZM44.9444 54.0641V55.1644H25.0578V54.0641H44.9444ZM44.9444 56.2636V57.3617H25.0578V56.2636H44.9444ZM58.4598 59.5328H48.7298V53.013H58.4598V59.5328ZM21.2723 59.5328H11.5423V53.013H21.2723V59.5328ZM45.9375 51.3253V46.3673H24.0625V51.3253H10.9375V8.43391C10.9355 8.14149 11.0494 7.86019 11.2545 7.65168C11.4595 7.44316 11.7388 7.32445 12.0312 7.32156H57.9688C58.5725 7.32156 59.0625 7.82031 59.0625 8.43391V51.3253H45.9375Z" fill="#1E293B"/>
</g>
<g filter="url(#filter6_d_498_552)">
<path d="M19.4949 16.7179H50.5071C51.5779 16.7179 52.4452 15.8462 52.4452 14.7689V10.8719C52.4452 9.79451 51.5768 8.92279 50.5071 8.92279H19.4949C18.423 8.92279 17.5568 9.79451 17.5568 10.8719V14.7689C17.5568 15.8462 18.423 16.7179 19.4949 16.7179ZM27.0921 12.6011L26.8011 12.8931L26.5124 12.6011V10.9233H27.091L27.0921 12.6011ZM28.3236 15.0817C28.3054 15.171 28.2615 15.2531 28.1974 15.318C28.1334 15.3828 28.0518 15.4277 27.9627 15.447L27.7461 14.8629V13.3317L28.1804 12.8942L28.3236 13.0408V15.0817ZM31.373 15.447H29.7783L29.4874 15.1539L29.7783 14.8619H31.373L31.664 15.1539L31.373 15.447ZM32.0993 14.7175L31.7361 15.0817L31.5185 14.8629V13.3317L31.9538 12.8942L32.0993 13.0408V14.7175ZM40.2247 15.447H38.629L38.338 15.1539L38.629 14.8619H40.2247L40.5157 15.1539L40.2247 15.447ZM40.9488 14.7175L40.5879 15.0817L40.3702 14.8629V13.3317L40.8055 12.8942L40.9488 13.0408V14.7175ZM45.8193 10.1937H48.2069L47.9893 10.7778H46.038L45.4583 10.559C45.4766 10.4697 45.5205 10.3876 45.5845 10.3228C45.6486 10.2579 45.7302 10.2131 45.8193 10.1937ZM48.2058 12.8209L47.916 13.1129H46.0282L45.7372 12.8209L46.0282 12.5289H47.916L48.2058 12.8209ZM45.4496 10.7045L46.0293 10.9233V12.3101L45.5951 12.7476L45.4496 12.6011V10.7045ZM45.4496 13.0397L45.5951 12.8931L46.0293 13.3306V14.7175L45.4496 14.9362V13.0397ZM46.0293 14.8629H47.9882L48.2058 15.447H45.8116C45.7223 15.4278 45.6405 15.3831 45.5762 15.3182C45.512 15.2534 45.4679 15.1712 45.4496 15.0817L46.0293 14.8629ZM44.1426 10.8511L44.3602 10.2681C44.4502 10.2857 44.5328 10.3297 44.5975 10.3946C44.6622 10.4595 44.706 10.5423 44.7233 10.6323V12.6744L44.5779 12.8209L44.1426 12.3834V10.8511ZM44.1426 13.3306L44.5779 12.8931L44.7233 13.0397V15.0817C44.7049 15.1713 44.6607 15.2536 44.5962 15.3185C44.5317 15.3834 44.4497 15.428 44.3602 15.447L44.1426 14.8629V13.3306ZM42.4024 10.8511H42.8377L43.9982 12.017V12.3823H43.4907L42.4024 11.2886V10.8511ZM41.6761 10.6323C41.6948 10.5429 41.739 10.4609 41.8035 10.3962C41.868 10.3315 41.9499 10.287 42.0393 10.2681L42.2569 10.8511V12.3823L41.8216 12.8198L41.6761 12.6733V10.6323ZM41.6761 13.0397L41.8216 12.8931L42.2569 13.3306V14.8619L42.0393 15.4459C41.9498 15.4269 41.8678 15.3823 41.8033 15.3174C41.7388 15.2525 41.6946 15.1702 41.6761 15.0806V13.0397ZM40.9488 10.9233V12.6011L40.8055 12.7476L40.3702 12.3101V10.7789L40.5879 10.5601L40.9488 10.9233ZM38.629 10.1937H40.2247L40.5157 10.4869L40.2247 10.7789H38.629L38.338 10.4869L38.629 10.1937ZM37.9038 10.9233L38.2658 10.559L38.4835 10.7778V12.309L38.0482 12.7465L37.9038 12.6V10.9233ZM37.9038 13.0397L38.0482 12.8931L38.4835 13.3306V14.8619L38.2658 15.0806L37.9038 14.7164V13.0397ZM36.5979 10.7778L36.8144 10.1937C36.9039 10.2127 36.986 10.2574 37.0504 10.3223C37.1149 10.3871 37.1591 10.4694 37.1776 10.559V12.6011L37.0321 12.7476L36.5979 12.3101V10.7778ZM36.5979 13.2584L37.0321 12.8209L37.1776 12.9675V15.0084C37.1591 15.098 37.1149 15.1803 37.0504 15.2452C36.986 15.3101 36.9039 15.3548 36.8144 15.3737L36.5979 14.7908V13.2584ZM35.2919 10.7778L35.5085 10.1937C35.598 10.2127 35.68 10.2574 35.7445 10.3223C35.809 10.3871 35.8532 10.4694 35.8716 10.559V12.6011L35.7262 12.7476L35.2919 12.3101V10.7778ZM35.2919 13.3306L35.7262 12.8931L35.8716 13.0397V15.0817C35.8532 15.1713 35.809 15.2536 35.7445 15.3185C35.68 15.3834 35.598 15.428 35.5085 15.447L35.2919 14.8629V13.3306ZM32.8244 13.0397L32.9699 12.8931L33.4041 13.3306V14.7175L32.8244 14.9362V13.0397ZM33.4041 14.8629H35.1465L35.363 15.447H33.1876C33.0981 15.428 33.016 15.3834 32.9515 15.3185C32.887 15.2536 32.8429 15.1713 32.8244 15.0817L33.4041 14.8629ZM32.0993 10.9233V12.6011L31.9538 12.7476L31.5185 12.3101V10.7789L31.7361 10.5601L32.0993 10.9233ZM29.7783 10.1937H31.373L31.664 10.4869L31.373 10.7789H29.7783L29.4874 10.4869L29.7783 10.1937ZM29.051 10.9233L29.4141 10.559L29.6318 10.7778V12.309L29.1965 12.7465L29.051 12.6V10.9233ZM29.051 13.0397L29.1965 12.8931L29.6318 13.3306V14.8619L29.4141 15.0806L29.051 14.7164V13.0397ZM28.3236 10.559V12.6011L28.1804 12.7476L27.7461 12.3101V10.7789L27.9627 10.1948C28.0523 10.2128 28.1344 10.257 28.1987 10.3219C28.263 10.3868 28.3065 10.4693 28.3236 10.559ZM25.6472 10.1937H27.8172L27.5996 10.7778H25.866L25.2863 10.559C25.3046 10.4697 25.3484 10.3876 25.4125 10.3228C25.4766 10.2579 25.5581 10.2131 25.6472 10.1937ZM25.2786 10.7045L25.8583 10.9233V12.3101L25.423 12.7476L25.2786 12.6011V10.7045ZM25.2786 13.0397L25.423 12.8931L25.8583 13.3306V14.8619L25.6407 15.4459C25.5514 15.4268 25.4696 15.382 25.4053 15.3171C25.341 15.2523 25.297 15.1701 25.2786 15.0806V13.0397ZM22.1658 10.1937H24.5535L24.3347 10.7778H22.3846L21.8049 10.559C21.8232 10.4697 21.867 10.3876 21.9311 10.3228C21.9952 10.2579 22.0767 10.2131 22.1658 10.1937ZM24.5524 12.8209L24.2626 13.1129H22.3747L22.0838 12.8209L22.3747 12.5289H24.2626L24.5524 12.8209ZM21.7961 10.7045L22.3758 10.9233V12.3101L21.9416 12.7476L21.7961 12.6011V10.7045ZM21.7961 13.0397L21.9416 12.8931L22.3758 13.3306V14.7175L21.7961 14.9362V13.0397ZM22.3758 14.8629H24.3336L24.5524 15.447H22.1571C22.068 15.4277 21.9864 15.3828 21.9224 15.318C21.8583 15.2531 21.8144 15.171 21.7961 15.0817L22.3758 14.8629ZM46.2382 39.6714H36.4415V38.5711H56.328V39.6714H47.4544L52.2669 42.2504H54.9335C55.7412 42.2478 56.5148 41.9246 57.0841 41.3517C57.6535 40.7788 57.9721 40.0033 57.9697 39.1956V21.2439C57.9718 20.4365 57.6531 19.6613 57.0837 19.0889C56.5143 18.5164 55.7409 18.1935 54.9335 18.1912H15.0685C14.6687 18.1922 14.273 18.272 13.904 18.426C13.535 18.5799 13.1999 18.8051 12.918 19.0886C12.636 19.372 12.4127 19.7083 12.2607 20.0781C12.1087 20.4479 12.0311 20.8441 12.0322 21.2439V39.1967C12.0309 39.5967 12.1085 39.993 12.2604 40.363C12.4123 40.733 12.6356 41.0694 12.9175 41.3531C13.1995 41.6368 13.5346 41.8621 13.9036 42.0163C14.2727 42.1705 14.6685 42.2504 15.0685 42.2515H28.4604L23.509 39.6725H13.7122V38.5722H33.5988V39.6725H24.7252L29.5377 42.2515H51.1907L46.2382 39.6714Z" fill="#1E293B"/>
</g>
</g>
<defs>
<filter id="filter0_d_498_552" x="11.0967" y="52.6426" width="51.6758" height="11.2594" filterUnits="userSpaceOnUse" color-interpolation-filters="sRGB">
<feFlood flood-opacity="0" result="BackgroundImageFix"/>
<feColorMatrix in="SourceAlpha" type="matrix" values="0 0 0 0 0 0 0 0 0 0 0 0 0 0 0 0 0 0 127 0" result="hardAlpha"/>
<feOffset dx="2" dy="2"/>
<feGaussianBlur stdDeviation="2"/>
<feComposite in2="hardAlpha" operator="out"/>
<feColorMatrix type="matrix" values="0 0 0 0 0 0 0 0 0 0 0 0 0 0 0 0 0 0 0.25 0"/>
<feBlend mode="normal" in2="BackgroundImageFix" result="effect1_dropShadow_498_552"/>
<feBlend mode="normal" in="SourceGraphic" in2="effect1_dropShadow_498_552" result="shape"/>
</filter>
<filter id="filter1_d_498_552" x="50.8086" y="42.8918" width="13.2563" height="13.285" filterUnits="userSpaceOnUse" color-interpolation-filters="sRGB">
<feFlood flood-opacity="0" result="BackgroundImageFix"/>
<feColorMatrix in="SourceAlpha" type="matrix" values="0 0 0 0 0 0 0 0 0 0 0 0 0 0 0 0 0 0 127 0" result="hardAlpha"/>
<feOffset dx="2" dy="2"/>
<feGaussianBlur stdDeviation="2"/>
<feComposite in2="hardAlpha" operator="out"/>
<feColorMatrix type="matrix" values="0 0 0 0 0 0 0 0 0 0 0 0 0 0 0 0 0 0 0.25 0"/>
<feBlend mode="normal" in2="BackgroundImageFix" result="effect1_dropShadow_498_552"/>
<feBlend mode="normal" in="SourceGraphic" in2="effect1_dropShadow_498_552" result="shape"/>
</filter>
<filter id="filter2_d_498_552" x="45.1274" y="42.8918" width="13.2544" height="13.285" filterUnits="userSpaceOnUse" color-interpolation-filters="sRGB">
<feFlood flood-opacity="0" result="BackgroundImageFix"/>
<feColorMatrix in="SourceAlpha" type="matrix" values="0 0 0 0 0 0 0 0 0 0 0 0 0 0 0 0 0 0 127 0" result="hardAlpha"/>
<feOffset dx="2" dy="2"/>
<feGaussianBlur stdDeviation="2"/>
<feComposite in2="hardAlpha" operator="out"/>
<feColorMatrix type="matrix" values="0 0 0 0 0 0 0 0 0 0 0 0 0 0 0 0 0 0 0.25 0"/>
<feBlend mode="normal" in2="BackgroundImageFix" result="effect1_dropShadow_498_552"/>
<feBlend mode="normal" in="SourceGraphic" in2="effect1_dropShadow_498_552" result="shape"/>
</filter>
<filter id="filter3_d_498_552" x="15.6182" y="42.8918" width="13.2563" height="13.285" filterUnits="userSpaceOnUse" color-interpolation-filters="sRGB">
<feFlood flood-opacity="0" result="BackgroundImageFix"/>
<feColorMatrix in="SourceAlpha" type="matrix" values="0 0 0 0 0 0 0 0 0 0 0 0 0 0 0 0 0 0 127 0" result="hardAlpha"/>
<feOffset dx="2" dy="2"/>
<feGaussianBlur stdDeviation="2"/>
<feComposite in2="hardAlpha" operator="out"/>
<feColorMatrix type="matrix" values="0 0 0 0 0 0 0 0 0 0 0 0 0 0 0 0 0 0 0.25 0"/>
<feBlend mode="normal" in2="BackgroundImageFix" result="effect1_dropShadow_498_552"/>
<feBlend mode="normal" in="SourceGraphic" in2="effect1_dropShadow_498_552" result="shape"/>
</filter>
<filter id="filter4_d_498_552" x="9.93604" y="42.8918" width="13.2563" height="13.285" filterUnits="userSpaceOnUse" color-interpolation-filters="sRGB">
<feFlood flood-opacity="0" result="BackgroundImageFix"/>
<feColorMatrix in="SourceAlpha" type="matrix" values="0 0 0 0 0 0 0 0 0 0 0 0 0 0 0 0 0 0 127 0" result="hardAlpha"/>
<feOffset dx="2" dy="2"/>
<feGaussianBlur stdDeviation="2"/>
<feComposite in2="hardAlpha" operator="out"/>
<feColorMatrix type="matrix" values="0 0 0 0 0 0 0 0 0 0 0 0 0 0 0 0 0 0 0.25 0"/>
<feBlend mode="normal" in2="BackgroundImageFix" result="effect1_dropShadow_498_552"/>
<feBlend mode="normal" in="SourceGraphic" in2="effect1_dropShadow_498_552" result="shape"/>
</filter>
<filter id="filter5_d_498_552" x="1.28125" y="0.1875" width="71.4375" height="73.6261" filterUnits="userSpaceOnUse" color-interpolation-filters="sRGB">
<feFlood flood-opacity="0" result="BackgroundImageFix"/>
<feColorMatrix in="SourceAlpha" type="matrix" values="0 0 0 0 0 0 0 0 0 0 0 0 0 0 0 0 0 0 127 0" result="hardAlpha"/>
<feOffset dx="2" dy="2"/>
<feGaussianBlur stdDeviation="2"/>
<feComposite in2="hardAlpha" operator="out"/>
<feColorMatrix type="matrix" values="0 0 0 0 0 0 0 0 0 0 0 0 0 0 0 0 0 0 0.25 0"/>
<feBlend mode="normal" in2="BackgroundImageFix" result="effect1_dropShadow_498_552"/>
<feBlend mode="normal" in="SourceGraphic" in2="effect1_dropShadow_498_552" result="shape"/>
</filter>
<filter id="filter6_d_498_552" x="10.0322" y="6.92279" width="53.9375" height="41.3287" filterUnits="userSpaceOnUse" color-interpolation-filters="sRGB">
<feFlood flood-opacity="0" result="BackgroundImageFix"/>
<feColorMatrix in="SourceAlpha" type="matrix" values="0 0 0 0 0 0 0 0 0 0 0 0 0 0 0 0 0 0 127 0" result="hardAlpha"/>
<feOffset dx="2" dy="2"/>
<feGaussianBlur stdDeviation="2"/>
<feComposite in2="hardAlpha" operator="out"/>
<feColorMatrix type="matrix" values="0 0 0 0 0 0 0 0 0 0 0 0 0 0 0 0 0 0 0.25 0"/>
<feBlend mode="normal" in2="BackgroundImageFix" result="effect1_dropShadow_498_552"/>
<feBlend mode="normal" in="SourceGraphic" in2="effect1_dropShadow_498_552" result="shape"/>
</filter>
<clipPath id="clip0_498_552">
<rect width="70" height="70" fill="white"/>
</clipPath>
</defs>
</svg>
