<svg width="70" height="70" viewBox="0 0 70 70" fill="none" xmlns="http://www.w3.org/2000/svg">
<g clip-path="url(#clip0_498_542)">
<g filter="url(#filter0_d_498_542)">
<path d="M47.799 28.5644H47.834C48.9217 29.5168 50.317 30.0439 51.7628 30.0486C51.9473 30.0486 52.1325 30.0395 52.3184 30.0213C53.2354 30.9114 54.4621 31.4109 55.74 31.4146C57.018 31.4183 58.2476 30.9258 59.1696 30.0409C59.682 30.0097 60.1823 29.8721 60.6386 29.6369C61.0948 29.4017 61.4971 29.0741 61.8198 28.6749C62.5706 28.5005 63.275 28.1662 63.8848 27.6949L63.9723 27.6959C66.0898 27.6959 67.8136 25.958 67.8136 23.8219C67.8153 22.9558 67.5266 22.1142 66.9936 21.4315C66.4606 20.7488 65.7142 20.2645 64.8736 20.0561C64.3715 19.4073 63.7277 18.8818 62.9914 18.5199C62.2551 18.1581 61.4458 17.9693 60.6254 17.9681C59.2364 17.9681 57.9206 18.5161 56.9351 19.4567C56.5634 19.4423 56.1914 19.4806 55.8304 19.5705C55.224 19.0018 54.5048 18.567 53.7194 18.2943C52.934 18.0216 52.1 17.9172 51.2717 17.9878C50.9272 17.6281 50.5132 17.3422 50.0548 17.1474C49.5964 16.9526 49.1032 16.853 48.6051 16.8547C46.5784 16.8547 44.9268 18.4975 44.8896 20.5319C44.3864 20.961 43.9817 21.4937 43.7033 22.0936C43.4248 22.6935 43.2792 23.3465 43.2764 24.0078C43.2742 26.5213 45.3053 28.5644 47.799 28.5644ZM47.2631 21.5939C47.0476 21.3093 46.9309 20.9621 46.9306 20.6052C46.9342 20.1865 47.0947 19.7845 47.3805 19.4786C47.6663 19.1727 48.0565 18.9851 48.4739 18.9531C48.8913 18.9211 49.3055 19.0469 49.6347 19.3056C49.9638 19.5643 50.1838 19.9371 50.2512 20.3503C50.7303 20.1511 51.244 20.0485 51.7628 20.0484C53.3159 20.0484 54.6481 20.9508 55.2978 22.2491C55.4759 22.0265 55.7017 21.8467 55.9586 21.7231C56.2155 21.5995 56.4969 21.5351 56.782 21.5349C57.12 21.5349 57.4317 21.63 57.7084 21.7831C57.9949 21.26 58.4164 20.8232 58.9291 20.5183C59.4417 20.2134 60.0268 20.0515 60.6232 20.0495C61.997 20.0495 63.1728 20.8775 63.689 22.0588C63.7809 22.0434 63.875 22.0303 63.9712 22.0303C64.2133 22.02 64.455 22.0587 64.6817 22.1442C64.9084 22.2297 65.1155 22.3602 65.2904 22.5278C65.4654 22.6955 65.6046 22.8968 65.6998 23.1197C65.7949 23.3425 65.8439 23.5823 65.8439 23.8246C65.8439 24.0669 65.7949 24.3067 65.6998 24.5296C65.6046 24.7524 65.4654 24.9538 65.2904 25.1214C65.1155 25.289 64.9084 25.4195 64.6817 25.505C64.455 25.5905 64.2133 25.6293 63.9712 25.6189C63.7076 25.6189 63.4593 25.5599 63.2351 25.4592C62.9247 25.8557 62.5284 26.1765 62.0759 26.3974C61.6235 26.6183 61.1267 26.7336 60.6232 26.7345C60.6036 26.7345 60.5839 26.728 60.5609 26.728C60.5002 26.9584 60.3908 27.1731 60.2401 27.3577C60.0894 27.5422 59.9009 27.6924 59.6873 27.798C59.4737 27.9036 59.24 27.9622 59.0018 27.9699C58.7637 27.9776 58.5266 27.9341 58.3067 27.8425C58.0522 28.2954 57.6819 28.6725 57.2337 28.9352C56.7855 29.1979 56.2756 29.3368 55.7561 29.3377C55.2118 29.337 54.6784 29.1848 54.2158 28.8981C53.7531 28.6114 53.3794 28.2016 53.1365 27.7145C52.697 27.8821 52.231 27.9695 51.7606 27.9727C51.1397 27.9727 50.5275 27.8258 49.9742 27.5441C49.4209 27.2624 48.942 26.8538 48.5767 26.3517C48.3256 26.4382 48.0624 26.4843 47.7968 26.4884C47.4714 26.4887 47.1491 26.4249 46.8484 26.3006C46.5476 26.1763 46.2743 25.994 46.0441 25.764C45.8138 25.5341 45.6311 25.261 45.5064 24.9604C45.3817 24.6598 45.3174 24.3376 45.3173 24.0122C45.3186 23.448 45.512 22.9011 45.8657 22.4615C46.2194 22.0219 46.7123 21.7159 47.2631 21.5939Z" fill="#1E293B"/>
</g>
<g filter="url(#filter1_d_498_542)">
<path d="M48.7909 25.8945C49.0272 25.8945 49.2514 25.8475 49.4646 25.7797C49.7865 26.2049 50.2027 26.5497 50.6804 26.7867C51.1581 27.0238 51.6843 27.1467 52.2176 27.1458C52.6232 27.1426 53.0251 27.069 53.4054 26.9281C53.6217 27.3415 53.9473 27.6876 54.3467 27.9287C54.7461 28.1698 55.204 28.2966 55.6706 28.2953C56.116 28.2962 56.5539 28.1804 56.9406 27.9593C57.3273 27.7382 57.6493 27.4196 57.8745 27.0353C58.0451 27.1053 58.2343 27.1447 58.4312 27.1447C59.0995 27.1447 59.6584 26.7006 59.8225 26.0991C59.8422 26.0991 59.8586 26.1045 59.8761 26.1045C60.7959 26.1045 61.602 25.6791 62.1325 25.0305C62.3261 25.1147 62.5404 25.165 62.7668 25.165C63.4504 25.165 64.0236 24.733 64.2336 24.1369C64.0073 24.2354 63.7637 24.2878 63.5169 24.2912C63.2702 24.2946 63.0252 24.2488 62.7964 24.1566C62.2134 24.8063 61.3253 25.2284 60.3147 25.2284L60.2534 25.2241C60.074 25.8256 59.4604 26.2708 58.7243 26.2708C58.5067 26.2708 58.2989 26.2303 58.1118 26.1614C57.6295 26.9106 56.7304 27.4203 55.6859 27.4203C54.5932 27.4203 53.6581 26.8603 53.1965 26.052C52.7754 26.1944 52.3341 26.2682 51.8895 26.2708C50.6437 26.2708 49.5445 25.7294 48.8609 24.9047C48.6247 24.9736 48.3797 25.0195 48.1182 25.0195C47.6512 25.0195 47.217 24.8959 46.8506 24.6859C47.027 25.0499 47.3029 25.3566 47.6462 25.5704C47.9896 25.7843 48.3864 25.8967 48.7909 25.8945ZM7.96121 17.8894C8.09173 17.8894 8.22153 17.8832 8.35059 17.8708C9.23331 18.6191 10.2955 19.1249 11.4328 19.3386C11.8359 19.9067 12.3689 20.3703 12.9874 20.6909C13.6059 21.0114 14.292 21.1796 14.9886 21.1816H15.0268C15.6032 21.793 16.2998 22.2786 17.0728 22.608C17.8458 22.9374 18.6785 23.1035 19.5187 23.0958C20.359 23.0881 21.1885 22.9068 21.9554 22.5633C22.7222 22.2197 23.4097 21.7214 23.9748 21.0995C25.1062 21.2675 26.261 21.1738 27.3505 20.8257C28.44 20.4776 29.4351 19.8843 30.2595 19.0914C30.374 19.0994 30.4881 19.1034 30.6018 19.1034C33.6436 19.1034 36.1176 16.6163 36.1176 13.5581C36.1176 11.7611 35.235 10.1128 33.8525 9.09016C33.859 8.99173 33.8623 8.89292 33.8623 8.79376C33.8623 6.35688 31.8947 4.37501 29.4753 4.37501C28.8224 4.37374 28.1775 4.51936 27.5885 4.80109C26.9995 5.08281 26.4814 5.49342 26.0726 6.00251C24.8883 5.83826 23.6818 5.95942 22.5538 6.35591C21.4258 6.7524 20.4089 7.41273 19.5878 8.28188C18.92 8.04365 18.2065 7.96134 17.502 8.04126C16.8793 7.377 16.1272 6.84723 15.292 6.48457C14.4568 6.12191 13.5563 5.93403 12.6457 5.93251C10.444 5.93251 8.41293 7.01313 7.16606 8.77407C6.10826 8.96817 5.15208 9.52724 4.46414 10.3539C3.7762 11.1805 3.4001 12.2224 3.40137 13.2978C3.40137 15.8299 5.44668 17.8894 7.96121 17.8894ZM7.96121 10.7855C8.09465 10.7855 8.2259 10.8041 8.35387 10.8249C8.71799 9.9894 9.31805 9.27839 10.0804 8.77907C10.8428 8.27975 11.7344 8.01382 12.6457 8.01391C14.4089 8.01391 15.9292 8.99938 16.7265 10.4399C17.1228 10.2159 17.5696 10.0966 18.0248 10.0931C18.4238 10.0941 18.8175 10.1845 19.177 10.3577C19.5364 10.5309 19.8525 10.7824 20.1018 11.0939C21.0129 9.2761 22.8767 8.01501 25.0511 8.01501C25.8014 8.01501 26.5145 8.16813 27.1675 8.4372C27.2539 7.85191 27.5592 7.3212 28.0215 6.9521C28.4839 6.583 29.0691 6.40299 29.659 6.44837C30.2489 6.49374 30.7996 6.76113 31.2001 7.19661C31.6006 7.63208 31.8211 8.20323 31.817 8.79485C31.817 9.31657 31.6398 9.79126 31.3511 10.1806C32.1863 10.3632 32.9245 10.8482 33.4236 11.5425C33.9226 12.2367 34.1472 13.091 34.054 13.9409C33.9609 14.7908 33.5566 15.5762 32.919 16.1458C32.2815 16.7155 31.4557 17.0291 30.6007 17.0264C30.2292 17.0224 29.8608 16.9574 29.5103 16.8339C28.9982 17.5367 28.3274 18.1086 27.5526 18.5032C26.7777 18.8977 25.9206 19.1038 25.0511 19.1045C24.3707 19.1045 23.7276 18.9656 23.125 18.7414C22.7842 19.4231 22.2608 19.9968 21.613 20.3983C20.9652 20.7998 20.2186 21.0134 19.4565 21.0153C18.7295 21.014 18.0159 20.8195 17.3888 20.4516C16.7616 20.0838 16.2436 19.5558 15.8876 18.9219C15.6025 19.0425 15.296 19.1043 14.9864 19.1034C14.471 19.1021 13.9706 18.9307 13.5626 18.6159C13.1546 18.301 12.8619 17.8603 12.73 17.3622C12.7004 17.3633 12.672 17.3709 12.6436 17.3709C11.1561 17.3709 9.84684 16.6655 8.98825 15.5859C8.64611 15.7419 8.27334 15.8191 7.89741 15.8118C7.52147 15.8046 7.15196 15.7131 6.81608 15.5441C6.4802 15.3751 6.18652 15.1329 5.95667 14.8353C5.72682 14.5377 5.56667 14.1924 5.48801 13.8247C5.40934 13.457 5.41418 13.0764 5.50215 12.7108C5.59012 12.3452 5.75899 12.0041 5.99632 11.7124C6.23364 11.4208 6.53338 11.1861 6.87344 11.0257C7.2135 10.8653 7.58522 10.7832 7.96121 10.7855Z" fill="#1E293B"/>
</g>
<g filter="url(#filter2_d_498_542)">
<path d="M9.64141 14.6355C9.9575 14.6355 10.255 14.5688 10.5262 14.4517C10.909 14.9142 11.3893 15.2862 11.9328 15.5411C12.4763 15.796 13.0694 15.9275 13.6697 15.9261C13.6938 15.9261 13.7189 15.9185 13.7441 15.9174C13.9727 16.7442 14.7503 17.3546 15.6833 17.3546C15.9556 17.3546 16.2192 17.301 16.4598 17.2069C16.7774 17.7367 17.2276 18.1746 17.766 18.4775C18.3043 18.7803 18.9123 18.9376 19.53 18.9339C20.1767 18.9374 20.8121 18.7643 21.3678 18.4334C21.9234 18.1025 22.3782 17.6262 22.6833 17.056C23.6472 17.4126 24.6997 17.452 25.6876 17.1685C26.6755 16.885 27.5469 16.2934 28.175 15.4799C28.4725 15.5728 28.7853 15.6385 29.1145 15.6385C30.5441 15.6385 31.7352 14.6716 32.0283 13.3832C31.4529 13.7384 30.7893 13.9248 30.1131 13.9213C29.7467 13.9213 29.4022 13.8557 29.073 13.7616C28.1116 14.8925 26.5748 15.6363 24.827 15.6363C24.2042 15.6322 23.5858 15.5315 22.9939 15.3377C22.3453 16.4467 21.035 17.2157 19.5016 17.2157C18.037 17.2157 16.7792 16.5135 16.1055 15.4875C15.8294 15.5869 15.5381 15.6373 15.2447 15.6363C14.2111 15.6363 13.3514 15.0238 13.0988 14.1991C13.0692 14.2013 13.0441 14.2078 13.0156 14.2078C11.5981 14.2078 10.3545 13.6238 9.53422 12.7335C9.22157 12.8543 8.88939 12.9165 8.55422 12.9172C8.17141 12.9172 7.81484 12.8319 7.49219 12.6941C7.56547 13.7758 8.49516 14.6355 9.64141 14.6355ZM49.945 42.7175L38.8916 24.0986L37.2509 21.3358L35.455 23.998L29.2797 33.1439L20.6445 39.1858L20.1972 39.4986L19.962 39.9974L15.6647 49.0755L11.2252 51.3188L2.1875 64.4635V67.8125H67.8125V63.3128L60.9536 51.5616L49.945 42.7175ZM12.6033 52.9463L17.2036 50.6221L20.7823 59.6225L12.6033 52.9463ZM30.6655 61.9708L32.1989 52.5777L20.7823 50.2305L33.5628 46.0535L30.7508 34.6391L37.1405 25.1749L35.4364 33.0127L40.0378 39.2733L34.4137 39.013L42.5939 44.9346L36.4602 48.9289L30.6655 61.9708ZM52.477 57.0872L40.7192 61.9708L48.8994 55.4477L54.5606 49.0755L59.3786 52.9463L52.477 57.0872Z" fill="#1E293B"/>
</g>
</g>
<defs>
<filter id="filter0_d_498_542" x="41.2764" y="14.8547" width="32.5371" height="22.5599" filterUnits="userSpaceOnUse" color-interpolation-filters="sRGB">
<feFlood flood-opacity="0" result="BackgroundImageFix"/>
<feColorMatrix in="SourceAlpha" type="matrix" values="0 0 0 0 0 0 0 0 0 0 0 0 0 0 0 0 0 0 127 0" result="hardAlpha"/>
<feOffset dx="2" dy="2"/>
<feGaussianBlur stdDeviation="2"/>
<feComposite in2="hardAlpha" operator="out"/>
<feColorMatrix type="matrix" values="0 0 0 0 0 0 0 0 0 0 0 0 0 0 0 0 0 0 0.25 0"/>
<feBlend mode="normal" in2="BackgroundImageFix" result="effect1_dropShadow_498_542"/>
<feBlend mode="normal" in="SourceGraphic" in2="effect1_dropShadow_498_542" result="shape"/>
</filter>
<filter id="filter1_d_498_542" x="1.40137" y="2.375" width="68.832" height="31.9203" filterUnits="userSpaceOnUse" color-interpolation-filters="sRGB">
<feFlood flood-opacity="0" result="BackgroundImageFix"/>
<feColorMatrix in="SourceAlpha" type="matrix" values="0 0 0 0 0 0 0 0 0 0 0 0 0 0 0 0 0 0 127 0" result="hardAlpha"/>
<feOffset dx="2" dy="2"/>
<feGaussianBlur stdDeviation="2"/>
<feComposite in2="hardAlpha" operator="out"/>
<feColorMatrix type="matrix" values="0 0 0 0 0 0 0 0 0 0 0 0 0 0 0 0 0 0 0.25 0"/>
<feBlend mode="normal" in2="BackgroundImageFix" result="effect1_dropShadow_498_542"/>
<feBlend mode="normal" in="SourceGraphic" in2="effect1_dropShadow_498_542" result="shape"/>
</filter>
<filter id="filter2_d_498_542" x="0.1875" y="10.6941" width="73.625" height="63.1184" filterUnits="userSpaceOnUse" color-interpolation-filters="sRGB">
<feFlood flood-opacity="0" result="BackgroundImageFix"/>
<feColorMatrix in="SourceAlpha" type="matrix" values="0 0 0 0 0 0 0 0 0 0 0 0 0 0 0 0 0 0 127 0" result="hardAlpha"/>
<feOffset dx="2" dy="2"/>
<feGaussianBlur stdDeviation="2"/>
<feComposite in2="hardAlpha" operator="out"/>
<feColorMatrix type="matrix" values="0 0 0 0 0 0 0 0 0 0 0 0 0 0 0 0 0 0 0.25 0"/>
<feBlend mode="normal" in2="BackgroundImageFix" result="effect1_dropShadow_498_542"/>
<feBlend mode="normal" in="SourceGraphic" in2="effect1_dropShadow_498_542" result="shape"/>
</filter>
<clipPath id="clip0_498_542">
<rect width="70" height="70" fill="white"/>
</clipPath>
</defs>
</svg>
