<svg width="70" height="70" viewBox="0 0 70 70" fill="none" xmlns="http://www.w3.org/2000/svg">
<g clip-path="url(#clip0_538_709)">
<g filter="url(#filter0_d_538_709)">
<path d="M56.8754 64.6871C56.8753 64.5191 56.83 64.3542 56.7441 64.2099C56.6582 64.0655 56.5349 63.947 56.3873 63.8668C52.6863 61.8775 49.3107 58.8328 47.826 57.3043C47.6054 57.073 47.311 56.9258 46.9936 56.8881C46.6762 56.8504 46.3555 56.9246 46.0869 57.0979C39.2059 61.5303 30.8277 61.533 23.9453 57.1047C23.6743 56.9297 23.3506 56.8552 23.0304 56.8942C22.7101 56.9331 22.4137 57.0831 22.1926 57.318C20.7201 58.8602 17.3814 61.8707 13.6572 63.8463C13.5092 63.9207 13.3826 64.0317 13.2895 64.1689C13.1964 64.306 13.1399 64.4646 13.1254 64.6297C13.1143 64.7702 13.1356 64.9114 13.1878 65.0424C13.2399 65.1734 13.3214 65.2906 13.4261 65.3851C13.5307 65.4796 13.6557 65.5487 13.7913 65.5872C13.9269 65.6258 14.0695 65.6326 14.2082 65.6072C17.0588 65.0357 19.8137 63.7369 22.4387 62.3492C22.6071 62.2606 22.7943 62.2135 22.9846 62.2121C23.1749 62.2107 23.3627 62.2549 23.5324 62.341C27.0864 64.1479 31.0169 65.0897 35.0038 65.0897C38.9907 65.0897 42.9212 64.1479 46.4752 62.341C46.6468 62.254 46.8368 62.2094 47.0292 62.2108C47.2216 62.2122 47.4109 62.2597 47.5812 62.3492C50.1926 63.7164 52.9434 65.0275 55.7844 65.6031C55.9186 65.6289 56.057 65.6245 56.1893 65.5902C56.3216 65.5558 56.4447 65.4924 56.5494 65.4045C56.6542 65.3167 56.738 65.2066 56.7949 65.0822C56.8517 64.9579 56.8802 64.8224 56.8781 64.6857L56.8754 64.6871ZM65.1756 33.7572C64.6984 32.6102 63.6854 31.7215 62.3182 31.2484L59.0629 29.9523V18.5938C59.0629 16.2731 58.141 14.0475 56.5001 12.4066C54.8591 10.7656 52.6335 9.84375 50.3129 9.84375H45.9379V8.75C45.9379 7.2996 45.3617 5.9086 44.3361 4.88301C43.3105 3.85742 41.9195 3.28125 40.4691 3.28125H29.5316C28.0812 3.28125 26.6902 3.85742 25.6647 4.88301C24.6391 5.9086 24.0629 7.2996 24.0629 8.75V9.84375H19.6879C17.3672 9.84375 15.1417 10.7656 13.5007 12.4066C11.8598 14.0475 10.9379 16.2731 10.9379 18.5938V29.9619L7.71406 31.2457C6.35508 31.6969 5.30371 32.6129 4.82246 33.7668C4.4875 34.5721 4.10469 35.8176 4.64473 37.3844L4.6584 37.4254L11.0377 53.7551C11.2727 54.355 11.6839 54.8697 12.2172 55.2314C12.7504 55.5931 13.3807 55.7848 14.025 55.7812C14.0934 55.7812 14.1617 55.7812 14.2342 55.7744C18.5162 55.501 21.8904 53.4133 24.16 51.4527C27.4016 54.2514 31.2146 55.7812 35.0004 55.7812C38.7861 55.7812 42.5787 54.25 45.8203 51.4473C48.0885 53.4105 51.4668 55.5037 55.7475 55.7744C56.4251 55.822 57.1003 55.6522 57.6749 55.2898C58.2495 54.9274 58.6936 54.3912 58.9426 53.7592L65.3205 37.4896C65.7689 36.3836 65.717 35.0615 65.1756 33.7572ZM36.7777 21.0834L36.6219 21.0287C35.566 20.6965 34.4335 20.6965 33.3775 21.0287L33.2982 21.0533L16.0621 27.9207C15.9791 27.9538 15.8893 27.966 15.8004 27.9563C15.7116 27.9466 15.6265 27.9153 15.5526 27.8651C15.4787 27.8149 15.4182 27.7474 15.3764 27.6684C15.3346 27.5895 15.3128 27.5015 15.3129 27.4121V18.5938C15.3129 17.4334 15.7738 16.3206 16.5943 15.5002C17.4148 14.6797 18.5276 14.2188 19.6879 14.2188H50.3129C51.4732 14.2188 52.586 14.6797 53.4065 15.5002C54.227 16.3206 54.6879 17.4334 54.6879 18.5938V27.4039C54.688 27.4933 54.6662 27.5813 54.6244 27.6602C54.5826 27.7392 54.5221 27.8067 54.4482 27.8569C54.3742 27.9071 54.2892 27.9384 54.2003 27.9481C54.1115 27.9578 54.0217 27.9456 53.9387 27.9125L36.7777 21.0834Z" fill="#1E293B"/>
</g>
</g>
<defs>
<filter id="filter0_d_538_709" x="2.375" y="1.28125" width="69.248" height="70.3409" filterUnits="userSpaceOnUse" color-interpolation-filters="sRGB">
<feFlood flood-opacity="0" result="BackgroundImageFix"/>
<feColorMatrix in="SourceAlpha" type="matrix" values="0 0 0 0 0 0 0 0 0 0 0 0 0 0 0 0 0 0 127 0" result="hardAlpha"/>
<feOffset dx="2" dy="2"/>
<feGaussianBlur stdDeviation="2"/>
<feComposite in2="hardAlpha" operator="out"/>
<feColorMatrix type="matrix" values="0 0 0 0 0 0 0 0 0 0 0 0 0 0 0 0 0 0 0.25 0"/>
<feBlend mode="normal" in2="BackgroundImageFix" result="effect1_dropShadow_538_709"/>
<feBlend mode="normal" in="SourceGraphic" in2="effect1_dropShadow_538_709" result="shape"/>
</filter>
<clipPath id="clip0_538_709">
<rect width="70" height="70" fill="white"/>
</clipPath>
</defs>
</svg>
