<svg width="70" height="60" viewBox="0 0 70 60" fill="none" xmlns="http://www.w3.org/2000/svg">
<g filter="url(#filter0_d_551_870)">
<path d="M1.205 60C0.946162 59.9974 0.69882 59.8927 0.516723 59.7087C0.334626 59.5247 0.232487 59.2764 0.2325 59.0175V54.56C0.2325 54.0175 0.6725 53.5775 1.215 53.5775H4.5825V21.6775C4.58321 21.4703 4.6161 21.2646 4.68 21.0675L4.675 21.0825C2.84668 20.5655 1.25552 19.4279 0.175 17.865L0.1575 17.8375C0.0553277 17.6777 0.000703094 17.4922 0 17.3025L0 0.985C0 0.4425 0.44 0.0025 0.9825 0H68.5175C69.06 0 69.5 0.44 69.5 0.9825V17.3C69.499 17.4908 69.4435 17.6773 69.34 17.8375L69.3425 17.8325C68.5754 18.9146 67.5717 19.8076 66.4077 20.4435C65.2437 21.0794 63.95 21.4416 62.625 21.5025H62.605V53.575H65.3325C65.875 53.575 66.315 54.015 66.315 54.5575V59.015C66.315 59.2756 66.2115 59.5255 66.0272 59.7097C65.843 59.894 65.5931 59.9975 65.3325 59.9975L1.205 60ZM58.68 52.5875V21.6825C58.68 21.5058 58.7017 21.3375 58.745 21.1775L58.7425 21.1925C57.3116 20.8296 55.9958 20.1107 54.9175 19.1025L54.9225 19.1075C53.088 20.7554 50.6871 21.6297 48.2225 21.5475H48.2375C45.7566 21.6279 43.3428 20.7342 41.5125 19.0575L41.52 19.065C39.7625 20.6713 37.4659 21.559 35.085 21.5525L34.7875 21.5475H34.8025C32.3225 21.6226 29.9106 20.7296 28.0775 19.0575L28.085 19.065C26.3269 20.6718 24.0293 21.5596 21.6475 21.5525L21.3275 21.5475H21.3425C18.8616 21.6279 16.4478 20.7342 14.6175 19.0575L14.625 19.065C12.9594 20.6055 10.7905 21.4878 8.5225 21.5475H8.51V52.59H11.4V39.4575C11.4 38.915 11.84 38.475 12.3825 38.475H24.01C24.5525 38.475 24.9925 38.915 24.9925 39.4575V52.59L58.68 52.5875ZM48.2375 19.5825C49.2471 19.6189 50.2539 19.453 51.1984 19.0945C52.143 18.736 53.0063 18.1921 53.7375 17.495L53.735 17.4975C53.7203 17.4293 53.7127 17.3598 53.7125 17.29V1.9675H42.6875V17.3L42.69 17.3675L42.6875 17.4375C44.1031 18.8183 46.0025 19.5883 47.98 19.5875L48.255 19.5825H48.2425H48.2375ZM21.3425 19.5825L21.6075 19.5875C23.6675 19.5875 25.535 18.7675 26.9025 17.435L26.9 17.4375L26.8975 17.37L26.9 17.3V1.97H15.78V17.3025L15.7825 17.37L15.78 17.44C17.1956 18.8208 19.095 19.5908 21.0725 19.59L21.3525 19.585H21.34L21.3425 19.5825ZM28.525 45.82C28.396 45.82 28.2682 45.7946 28.149 45.7452C28.0298 45.6958 27.9215 45.6235 27.8303 45.5322C27.739 45.441 27.6667 45.3327 27.6173 45.2135C27.5679 45.0943 27.5425 44.9665 27.5425 44.8375V27.785C27.5425 27.2425 27.9825 26.8025 28.525 26.8025H56.0475C56.59 26.8025 57.03 27.2425 57.03 27.785V44.84C57.03 45.1006 56.9265 45.3505 56.7422 45.5347C56.558 45.719 56.3081 45.8225 56.0475 45.8225H56.045L28.525 45.82Z" fill="#1E293B"/>
</g>
<defs>
<filter id="filter0_d_551_870" x="-2" y="-2" width="77.5" height="68" filterUnits="userSpaceOnUse" color-interpolation-filters="sRGB">
<feFlood flood-opacity="0" result="BackgroundImageFix"/>
<feColorMatrix in="SourceAlpha" type="matrix" values="0 0 0 0 0 0 0 0 0 0 0 0 0 0 0 0 0 0 127 0" result="hardAlpha"/>
<feOffset dx="2" dy="2"/>
<feGaussianBlur stdDeviation="2"/>
<feComposite in2="hardAlpha" operator="out"/>
<feColorMatrix type="matrix" values="0 0 0 0 0 0 0 0 0 0 0 0 0 0 0 0 0 0 0.25 0"/>
<feBlend mode="normal" in2="BackgroundImageFix" result="effect1_dropShadow_551_870"/>
<feBlend mode="normal" in="SourceGraphic" in2="effect1_dropShadow_551_870" result="shape"/>
</filter>
</defs>
</svg>
