<svg width="70" height="70" viewBox="0 0 70 70" fill="none" xmlns="http://www.w3.org/2000/svg">
<g clip-path="url(#clip0_524_603)">
<g filter="url(#filter0_d_524_603)">
<path d="M24.0625 17.5V26.25H54.6875C56.428 26.25 58.0972 26.9414 59.3279 28.1721C60.5586 29.4028 61.25 31.072 61.25 32.8125V59.0625C61.25 60.803 60.5586 62.4722 59.3279 63.7029C58.0972 64.9336 56.428 65.625 54.6875 65.625H15.3125C13.572 65.625 11.9028 64.9336 10.6721 63.7029C9.4414 62.4722 8.75 60.803 8.75 59.0625V32.8125C8.75 31.0728 9.4408 29.4042 10.6706 28.1737C11.9003 26.9431 13.5684 26.2512 15.3081 26.25H17.5V17.5C17.4993 13.7145 18.726 10.0308 20.9963 7.00156C23.2665 3.97234 26.4578 1.76093 30.0913 0.699113C33.7249 -0.362706 37.6048 -0.217684 41.1489 1.11242C44.6931 2.44253 47.7104 4.886 49.7481 8.07624C49.9802 8.43935 50.1386 8.84462 50.214 9.26891C50.2895 9.6932 50.2807 10.1282 50.1881 10.5491C50.0955 10.97 49.9208 11.3685 49.6742 11.7219C49.4276 12.0753 49.1137 12.3766 48.7506 12.6087C48.3875 12.8409 47.9823 12.9992 47.558 13.0747C47.1337 13.1502 46.6987 13.1413 46.2778 13.0487C45.4278 12.8616 44.6869 12.3446 44.2181 11.6112C42.9447 9.61717 41.0589 8.0898 38.8438 7.25829C36.6288 6.42678 34.2038 6.33598 31.9327 6.99951C29.6616 7.66303 27.6669 9.0451 26.2479 10.9384C24.8289 12.8316 24.0621 15.134 24.0625 17.5ZM15.3125 32.8125V59.0625H54.6875V32.8125H15.3125Z" fill="#1E293B"/>
</g>
</g>
<defs>
<filter id="filter0_d_524_603" x="6.75" y="-2.00342" width="60.5" height="73.6284" filterUnits="userSpaceOnUse" color-interpolation-filters="sRGB">
<feFlood flood-opacity="0" result="BackgroundImageFix"/>
<feColorMatrix in="SourceAlpha" type="matrix" values="0 0 0 0 0 0 0 0 0 0 0 0 0 0 0 0 0 0 127 0" result="hardAlpha"/>
<feOffset dx="2" dy="2"/>
<feGaussianBlur stdDeviation="2"/>
<feComposite in2="hardAlpha" operator="out"/>
<feColorMatrix type="matrix" values="0 0 0 0 0 0 0 0 0 0 0 0 0 0 0 0 0 0 0.25 0"/>
<feBlend mode="normal" in2="BackgroundImageFix" result="effect1_dropShadow_524_603"/>
<feBlend mode="normal" in="SourceGraphic" in2="effect1_dropShadow_524_603" result="shape"/>
</filter>
<clipPath id="clip0_524_603">
<rect width="70" height="70" fill="white"/>
</clipPath>
</defs>
</svg>
