<svg width="52" height="75" viewBox="0 0 52 75" fill="none" xmlns="http://www.w3.org/2000/svg">
<path d="M12.9027 23.5152C13.7882 28.9401 18.8746 32.4318 18.8746 32.4318C18.8746 32.4318 22.5273 27.1279 21.6446 21.7019C20.7573 16.2707 15.669 12.7832 15.669 12.7832C15.669 12.7832 12.02 18.0892 12.9027 23.5152ZM13.4997 42.6103C16.8187 46.6681 22.7806 46.5749 22.7806 46.5749C22.7806 46.5749 23.3623 39.9016 20.0433 35.8438C16.7243 31.7859 10.7587 31.877 10.7587 31.877C10.7587 31.877 10.1779 38.5535 13.4997 42.6103Z" stroke="black" stroke-width="2" stroke-linejoin="round"/>
<path d="M30.4348 57.0691C30.4348 57.0691 25.2223 60.3342 20.5852 58.5379C15.9482 56.7416 13.6391 50.5617 13.6391 50.5617C13.6391 50.5617 18.8517 47.2966 23.4887 49.0929C28.1258 50.8892 30.4348 57.0691 30.4348 57.0691ZM30.4348 57.0691L39.4386 53.8105C40.1755 53.5438 40.9517 53.4432 41.7231 53.5145C42.4945 53.5858 43.2458 53.8275 43.9343 54.2259C44.6227 54.6243 45.2347 55.1716 45.7354 55.8364C46.2361 56.5013 46.6157 57.2707 46.8524 58.1008C47.0892 58.9309 47.1784 59.8054 47.1152 60.6744C47.0519 61.5434 46.8373 62.3898 46.4836 63.1654C46.13 63.9409 45.6442 64.6304 45.054 65.1945C44.4638 65.7585 43.7808 66.1861 43.0439 66.4528L37.3934 68.4978" stroke="black" stroke-width="2" stroke-linecap="round" stroke-linejoin="round"/>
<path d="M22.3753 7.33977C19.9934 12.1662 21.9419 18.4976 21.9419 18.4976C21.9419 18.4976 27.7601 17.0077 30.142 12.1813C32.5239 7.35481 30.5745 1.02026 30.5745 1.02026C30.5745 1.02026 24.7572 2.51331 22.3753 7.33977Z" stroke="black" stroke-width="2" stroke-linejoin="round"/>
</svg>
