<svg width="70" height="70" viewBox="0 0 70 70" fill="none" xmlns="http://www.w3.org/2000/svg">
<g clip-path="url(#clip0_556_1390)">
<g filter="url(#filter0_d_556_1390)">
<path fill-rule="evenodd" clip-rule="evenodd" d="M54.8526 28.3325C56.7376 27.5075 58.1676 26.11 59.5088 24.7075C61.0376 23.1087 61.0576 21.105 61.0576 20.0562C61.0576 18.3887 59.4913 17.0737 56.9451 17.0125C55.5963 16.98 54.7726 17.3162 53.6488 18.135C52.8438 18.72 50.9576 20.635 51.7988 22.2012C51.8422 22.2829 51.9142 22.3817 52.0151 22.4975C52.1146 22.6133 52.1701 22.7605 52.1719 22.9132C52.1737 23.0658 52.1217 23.2143 52.0251 23.3325C51.928 23.4506 51.7887 23.5262 51.6367 23.5432C51.4848 23.5603 51.3322 23.5174 51.2113 23.4237L51.0788 23.3212C49.4163 22.0512 48.5113 21.5787 48.5113 19.6975C48.5113 16.1575 53.1826 12.7562 57.6938 12.865C62.2001 12.9737 65.7088 16.2275 65.7088 20.0212C65.7088 22.0962 64.3863 25.04 62.2238 27.3025C60.8414 28.7498 59.1721 29.8925 57.3226 30.6575C57.4401 30.8508 57.5609 31.0604 57.6851 31.2862C58.9101 33.5187 58.7501 33.79 58.9063 36.5787C59.0613 39.3687 58.2363 44.3562 58.5526 46.8137C58.8701 49.27 60.4563 49.5437 60.8051 51.3137C61.0259 52.4354 61.5747 57.3021 62.4513 65.9137C62.4696 66.088 62.4509 66.2643 62.3966 66.4309C62.3423 66.5975 62.2536 66.7509 62.1362 66.8811C62.0188 67.0112 61.8754 67.1152 61.7152 67.1863C61.555 67.2574 61.3816 67.294 61.2063 67.2937H58.6351C58.3044 67.2931 57.9875 67.1614 57.7537 66.9276C57.5199 66.6938 57.3882 66.3769 57.3876 66.0462V65.425C57.3876 65.0312 57.5726 64.66 57.8876 64.425L58.2851 64.1262C58.4721 63.9861 58.6161 63.7963 58.7008 63.5785C58.7854 63.3606 58.8072 63.1234 58.7638 62.8937C58.0805 59.2537 57.4797 57.0625 56.9613 56.32C56.5788 55.77 54.8513 54.8737 52.6238 53.1362C52.2247 52.8246 51.508 52.1612 50.4738 51.1462C50.3907 51.064 50.2861 51.0067 50.172 50.981C50.0579 50.9552 49.9388 50.962 49.8284 51.0006C49.718 51.0391 49.6206 51.1079 49.5473 51.199C49.474 51.2902 49.4278 51.4001 49.4138 51.5162C49.2255 53.0204 48.9917 54.2879 48.7126 55.3187C48.3751 56.5621 47.338 59.8025 45.6013 65.04C45.5188 65.2897 45.3595 65.5069 45.1463 65.6609C44.9331 65.8148 44.6768 65.8976 44.4138 65.8975H41.1413C40.845 65.8972 40.561 65.7793 40.3515 65.5698C40.142 65.3603 40.0242 65.0763 40.0238 64.78V64.705C40.0235 64.412 40.1261 64.1283 40.3136 63.9032C40.5012 63.6782 40.7619 63.5262 41.0501 63.4737L42.4538 63.2162C43.4613 59.5362 43.9009 56.8408 43.7726 55.13C43.6826 53.92 42.8651 52.5125 42.0413 50.0625C41.8697 49.5533 41.6288 48.5116 41.3188 46.9375C41.3023 46.8538 41.2689 46.7744 41.2205 46.7041C41.1722 46.6339 41.11 46.5743 41.0377 46.5289C40.9655 46.4836 40.8847 46.4536 40.8004 46.4406C40.7161 46.4277 40.6301 46.4322 40.5476 46.4537L32.2188 48.6112C32.1272 48.6349 32.0421 48.679 31.97 48.7403C31.8979 48.8017 31.8407 48.8786 31.8026 48.9652C31.7646 49.0519 31.7467 49.1461 31.7504 49.2407C31.7541 49.3353 31.7792 49.4278 31.8238 49.5112L32.0201 49.8812C32.3951 50.5837 32.5901 51.3687 32.5901 52.165V63.865C32.5901 64.2537 32.4088 64.6212 32.1001 64.8587L30.3538 66.1962C30.1352 66.3642 29.8671 66.4552 29.5913 66.455H28.3376C28.1733 66.455 28.0107 66.4226 27.8589 66.3597C27.7072 66.2968 27.5693 66.2046 27.4533 66.0884C27.3372 65.9722 27.2451 65.8343 27.1824 65.6825C27.1196 65.5307 27.0874 65.368 27.0876 65.2037V64.5662C27.0876 64.1125 27.3313 63.6937 27.7276 63.4725L28.6276 62.97C28.8378 62.8529 29.0098 62.6777 29.1229 62.4652C29.236 62.2528 29.2854 62.0123 29.2651 61.7725C29.1234 60.0833 28.9476 58.7987 28.7376 57.9187C28.5226 57.0104 28.0005 55.3912 27.1713 53.0612C27.1372 52.9653 27.0802 52.8792 27.0053 52.8104C26.9304 52.7415 26.8397 52.692 26.7413 52.6661C26.6429 52.6402 26.5396 52.6388 26.4405 52.6619C26.3414 52.685 26.2494 52.732 26.1726 52.7987L25.9288 53.0087C25.3176 53.5375 24.5713 53.8837 23.7738 54.0125L15.9588 55.2625C15.8476 55.2803 15.7432 55.3278 15.6568 55.4001C15.5704 55.4723 15.5051 55.5665 15.4678 55.6728C15.4305 55.7791 15.4227 55.8935 15.4451 56.0039C15.4675 56.1143 15.5193 56.2166 15.5951 56.3L16.4263 57.215C16.6363 57.445 16.7513 57.745 16.7513 58.0562V58.8737C16.7514 59.0411 16.7179 59.2068 16.6527 59.3609C16.5876 59.5151 16.4921 59.6546 16.3721 59.7711C16.252 59.8877 16.1097 59.979 15.9537 60.0396C15.7977 60.1001 15.6311 60.1288 15.4638 60.1237L14.4388 60.0937C14.2524 60.0884 14.0695 60.0413 13.9036 59.9561C13.7377 59.8709 13.593 59.7496 13.4801 59.6012L12.1876 57.9087C12.0213 57.6908 11.9312 57.4242 11.9313 57.15V54.665C11.9313 54.2312 12.1563 53.8275 12.5251 53.6C17.8642 50.3 20.7592 48.475 21.2101 48.125C21.6776 47.7625 21.8726 47.1567 21.7951 46.3075C20.9251 43.7237 19.5313 42.8087 18.9051 41.2787C18.2788 39.7487 17.1176 34.9912 16.5426 33.1637C15.3863 29.4887 14.3713 27.545 14.0976 26.9637C13.4826 25.6587 12.3976 25.4737 11.2513 25.0237C10.1051 24.5737 7.92633 24.6412 6.50883 23.3975C5.09258 22.1525 5.22258 20.8525 4.89258 19.4375V17.7062C4.89258 17.015 5.45383 16.455 6.14508 16.455H9.54008C9.99883 16.455 10.4201 16.205 10.6401 15.8012C11.0276 15.0896 11.6467 14.41 12.4976 13.7625C13.6301 12.9055 14.9212 12.2814 16.2963 11.9262C15.9838 8.03374 15.9838 5.83499 16.2963 5.32999C16.6088 4.82499 17.4784 5.61499 18.9051 7.69999C19.1084 5.24499 19.5063 4.34499 20.0988 4.99999C20.6513 5.61249 21.6047 7.83749 22.9588 11.675C23.1363 12.175 23.3926 12.6475 23.7176 13.0687C24.2859 13.8037 24.7992 14.6829 25.2576 15.7062C26.1288 17.6512 27.1463 22.7312 28.9476 25.23C30.7476 27.7287 31.7988 27.9337 34.3988 28.3962C36.1263 28.7037 42.0826 27.7212 46.9613 27.5312C50.7188 27.3837 53.7413 28.0162 54.2863 28.1562C54.4822 28.2062 54.6709 28.2658 54.8526 28.3325Z" fill="#1E293B"/>
</g>
</g>
<defs>
<filter id="filter0_d_556_1390" x="2.89258" y="2.79306" width="68.8164" height="70.5007" filterUnits="userSpaceOnUse" color-interpolation-filters="sRGB">
<feFlood flood-opacity="0" result="BackgroundImageFix"/>
<feColorMatrix in="SourceAlpha" type="matrix" values="0 0 0 0 0 0 0 0 0 0 0 0 0 0 0 0 0 0 127 0" result="hardAlpha"/>
<feOffset dx="2" dy="2"/>
<feGaussianBlur stdDeviation="2"/>
<feComposite in2="hardAlpha" operator="out"/>
<feColorMatrix type="matrix" values="0 0 0 0 0 0 0 0 0 0 0 0 0 0 0 0 0 0 0.25 0"/>
<feBlend mode="normal" in2="BackgroundImageFix" result="effect1_dropShadow_556_1390"/>
<feBlend mode="normal" in="SourceGraphic" in2="effect1_dropShadow_556_1390" result="shape"/>
</filter>
<clipPath id="clip0_556_1390">
<rect width="70" height="70" fill="white"/>
</clipPath>
</defs>
</svg>
