<svg width="86" height="82" viewBox="0 0 86 82" fill="none" xmlns="http://www.w3.org/2000/svg">
<g filter="url(#filter0_d_430_592)">
<path d="M8.86782 27.3635V27.3129C8.86775 22.3126 10.3487 17.4243 13.1237 13.2647C15.8987 9.10512 19.8436 5.86062 24.4605 3.94055C29.0775 2.02048 34.1597 1.51086 39.066 2.47598C43.9722 3.44111 48.4828 5.83773 52.0285 9.3635C54.8182 7.98656 57.9343 7.40763 61.0325 7.69067C64.1306 7.9737 67.0902 9.10768 69.5843 10.9673C72.0784 12.827 74.0098 15.3399 75.1652 18.2284C76.3207 21.117 76.6551 24.2687 76.1316 27.3354C76.9013 27.4068 77.648 27.6361 78.3251 28.009C79.0022 28.3819 79.5952 28.8903 80.0671 29.5026C80.539 30.1149 80.8796 30.8178 81.0677 31.5676C81.2558 32.3174 81.2873 33.0979 81.1603 33.8604C78.6178 49.1547 72.3291 58.8354 62.3053 62.9079V66.6879C62.3053 68.9256 61.4164 71.0718 59.834 72.6541C58.2517 74.2364 56.1056 75.1254 53.8678 75.1254H31.3678C29.1301 75.1254 26.9839 74.2364 25.4016 72.6541C23.8193 71.0718 22.9303 68.9256 22.9303 66.6879V62.9079C12.9066 58.8354 6.61782 49.1547 4.07532 33.8604C3.95262 33.1181 3.98005 32.3588 4.15601 31.6273C4.33197 30.8959 4.65287 30.2071 5.09972 29.6019C5.54657 28.9967 6.11029 28.4872 6.75752 28.1037C7.40475 27.7202 8.12234 27.4704 8.86782 27.3691V27.3635ZM14.4928 27.3129H20.1178C20.1178 23.5833 21.5994 20.0064 24.2366 17.3692C26.8739 14.732 30.4507 13.2504 34.1803 13.2504C37.9099 13.2504 41.4868 14.732 44.124 17.3692C46.7612 20.0064 48.2428 23.5833 48.2428 27.3129H53.8678C53.8678 22.0914 51.7936 17.0838 48.1015 13.3917C44.4094 9.69959 39.4018 7.62537 34.1803 7.62537C28.9589 7.62537 23.9513 9.69959 20.2592 13.3917C16.567 17.0838 14.4928 22.0914 14.4928 27.3129ZM25.7428 27.3129H42.6178C42.6178 25.0751 41.7289 22.929 40.1465 21.3467C38.5642 19.7643 36.4181 18.8754 34.1803 18.8754C31.9426 18.8754 29.7964 19.7643 28.2141 21.3467C26.6318 22.929 25.7428 25.0751 25.7428 27.3129ZM64.3641 27.3129H70.3885C70.8131 25.6505 70.8527 23.9132 70.5042 22.2332C70.1557 20.5533 69.4283 18.975 68.3775 17.6187C67.3267 16.2625 65.9801 15.164 64.4404 14.4069C62.9007 13.6499 61.2085 13.2544 59.4928 13.2504C58.1428 13.2504 56.8603 13.4866 55.6678 13.9197C56.6634 15.5172 57.4847 17.2385 58.1147 19.0441C59.1861 18.7784 60.3119 18.8331 61.3524 19.2015C62.393 19.5698 63.3025 20.2356 63.968 21.1163C64.6336 21.9969 65.0259 23.0535 65.0963 24.1551C65.1667 25.2567 64.9121 26.3547 64.3641 27.3129ZM56.6803 63.8754H28.5553V66.6879C28.5553 67.4338 28.8516 68.1492 29.3791 68.6766C29.9065 69.2041 30.6219 69.5004 31.3678 69.5004H53.8678C54.6137 69.5004 55.3291 69.2041 55.8566 68.6766C56.384 68.1492 56.6803 67.4338 56.6803 66.6879V63.8754ZM26.5753 58.2504H58.6603C67.5816 55.3816 73.2291 47.2704 75.6141 32.9379H9.62157C12.0066 47.2704 17.6541 55.3816 26.5753 58.2504Z" fill="#1E293B"/>
</g>
<defs>
<filter id="filter0_d_430_592" x="0" y="0" width="85.2368" height="81.1254" filterUnits="userSpaceOnUse" color-interpolation-filters="sRGB">
<feFlood flood-opacity="0" result="BackgroundImageFix"/>
<feColorMatrix in="SourceAlpha" type="matrix" values="0 0 0 0 0 0 0 0 0 0 0 0 0 0 0 0 0 0 127 0" result="hardAlpha"/>
<feOffset dy="2"/>
<feGaussianBlur stdDeviation="2"/>
<feComposite in2="hardAlpha" operator="out"/>
<feColorMatrix type="matrix" values="0 0 0 0 0 0 0 0 0 0 0 0 0 0 0 0 0 0 0.25 0"/>
<feBlend mode="normal" in2="BackgroundImageFix" result="effect1_dropShadow_430_592"/>
<feBlend mode="normal" in="SourceGraphic" in2="effect1_dropShadow_430_592" result="shape"/>
</filter>
</defs>
</svg>
