<svg width="80" height="80" viewBox="0 0 80 80" fill="none" xmlns="http://www.w3.org/2000/svg">
<g clip-path="url(#clip0_545_883)">
<g filter="url(#filter0_d_545_883)">
<path d="M39.9971 79.995C62.0887 79.995 79.9971 62.0867 79.9971 39.995C79.9971 17.9033 62.0887 -0.00500488 39.9971 -0.00500488C17.9054 -0.00500488 -0.00292969 17.9033 -0.00292969 39.995C-0.00292969 62.0867 17.9054 79.995 39.9971 79.995Z" fill="#64748B"/>
</g>
<g filter="url(#filter1_d_545_883)">
<path fill-rule="evenodd" clip-rule="evenodd" d="M32.7236 45.8116L36.437 48.7183C36.641 48.9486 36.8917 49.1329 37.1725 49.2587C37.4533 49.3846 37.7576 49.4492 38.0653 49.4483H41.927C42.5503 49.4483 43.1436 49.1816 43.557 48.7183L47.2686 45.8116V50.1766L58.147 53.0966C59.1253 53.525 59.9127 54.297 60.3603 55.2666L63.2686 63.2666H16.7236L19.6336 55.2666C20.0808 54.2973 20.8676 53.5253 21.8453 53.0966L32.7236 50.175V45.8116Z" fill="white"/>
</g>
<g filter="url(#filter2_d_545_883)">
<path fill-rule="evenodd" clip-rule="evenodd" d="M29.0891 32.7483C29.8157 32.7483 29.8157 33.5566 29.8157 33.5566V32.7483C29.8291 26.2033 30.5607 21.84 39.9991 21.84C49.4374 21.84 50.1657 26.2033 50.1791 32.7483V33.5566C50.1791 33.5566 50.1791 32.75 50.9074 32.75C51.6341 32.75 52.3607 33.5566 52.3607 34.365C52.3607 36.7366 51.6624 39.8683 49.5941 40.0083L47.2707 45.8133L43.5574 48.72C43.3534 48.9503 43.1027 49.1345 42.8219 49.2604C42.5411 49.3863 42.2368 49.4509 41.9291 49.45H38.0674C37.7593 49.4509 37.4546 49.3861 37.1735 49.26C36.8924 49.1338 36.6415 48.9491 36.4374 48.7183L32.7257 45.8133L30.4024 40.0083C28.3324 39.8683 27.6357 36.735 27.6357 34.365C27.6357 33.5566 28.3607 32.7483 29.0891 32.7483Z" fill="white"/>
</g>
<path d="M53.8135 51.63C53.8135 51.63 51.7152 51.185 50.9052 50.9033C50.0485 58.375 48.2285 59.6317 39.9969 59.6317C31.7635 59.6317 29.9435 58.375 29.0869 50.9033C28.2769 51.1867 26.1785 51.63 26.1785 51.63L24.7235 63.2667H55.2685L53.8135 51.63ZM19.8619 60.8567C19.3619 60.7833 18.8652 60.6939 18.3719 60.5883L18.3385 59.9217C18.8452 59.2483 19.1452 58.8533 19.8419 58.0667C19.8752 57.2133 19.9085 56.79 20.0719 56.0233C19.9068 55.7782 19.7682 55.5161 19.6585 55.2417L19.6335 55.2667L17.4219 61.3467C18.2219 61.7017 18.7585 61.86 19.8919 62.1317C19.8885 61.6517 19.8785 61.3917 19.8619 60.8567ZM21.4385 55C21.0702 55.4167 20.8785 55.6167 20.5119 56.01C20.4235 56.49 20.3952 56.7433 20.3519 57.255C20.9102 57.27 21.2052 57.275 21.7802 57.2667C21.8019 56.8767 21.8135 56.6833 21.8469 56.3017L22.1385 56.2833C22.0952 56.8222 22.0669 57.3617 22.0535 57.9017C21.8491 57.9028 21.6452 57.9017 21.4419 57.8983C21.4219 58.3872 21.4108 58.8761 21.4085 59.365L22.0235 59.3917C22.0169 60.0883 22.0169 60.4383 22.0152 61.1217L21.7152 61.0917V60.0417C21.2271 60.0125 20.7397 59.9714 20.2535 59.9183C20.2635 60.4717 20.2719 60.7483 20.2852 61.275C20.6052 61.7183 20.7635 61.9383 21.0819 62.39C21.6835 62.5067 21.9985 62.5617 22.6319 62.6617C22.9819 62.2833 23.1569 62.0783 23.5019 61.64V59.5017C23.2573 59.2143 23.0106 58.9288 22.7619 58.645C23.0685 58.28 23.2202 58.0917 23.5019 57.695V55.7067C23.2169 55.3083 23.0752 55.1133 22.8219 54.7533C22.3661 54.8633 21.9042 54.9456 21.4385 55ZM45.0902 42.93C45.0269 41.1567 45.4269 39.2933 40.0002 39.2933C34.5735 39.2933 34.9719 41.1567 34.9085 42.93C34.8169 45.48 37.0902 46.565 39.9985 48.7467C42.9085 46.565 45.1819 45.48 45.0902 42.93ZM40.0002 45.1117C36.3669 45.1333 36.4885 41.48 36.3669 41.4517H43.6335C43.5102 41.4817 43.6335 45.1317 40.0002 45.1117Z" fill="#1E293B"/>
<path d="M45.0403 32.3617H34.9553C34.0887 32.3617 30.542 32.6367 30.542 34.8817C30.542 37.1267 31.4487 39.295 33.692 39.295C35.767 39.295 38.4803 37.5617 38.7137 34.6517C39.027 34.405 39.4803 34.2517 39.997 34.2517H40.0003C40.5153 34.2517 40.967 34.4067 41.2803 34.6517C41.5137 37.5617 44.227 39.295 46.3003 39.295C48.5453 39.295 49.4503 37.1283 49.4503 34.8833C49.4503 32.6367 45.9053 32.3617 45.0403 32.3617ZM38.6987 33.9167C38.607 33.5117 38.347 33.2117 38.0003 32.99H41.9937C41.6487 33.21 41.3903 33.5067 41.297 33.9083C40.8927 33.7138 40.449 33.6151 40.0003 33.62C39.5153 33.6333 39.0687 33.7367 38.6987 33.9167Z" fill="#1E293B"/>
<path d="M47.8883 27.0083L54.0433 29.3133C55.7183 30.0433 55.6699 31.1116 53.9349 31.6866L49.5466 33.14C43.2383 35.1516 35.1049 34.2733 30.1133 30.8033L47.8883 27.0083Z" fill="#1E293B"/>
<path d="M28.3633 24.0216C28.2333 22.7533 36.4583 18.8883 38.425 18.6883C40.3933 18.4883 48.5716 20.685 48.7 21.955L49.9566 27.7916C50.085 29.0583 45.3433 30.58 39.365 31.1883C33.3866 31.7966 28.4366 31.2616 28.3066 29.9933L28.3633 24.0216Z" fill="#1E293B"/>
<path fill-rule="evenodd" clip-rule="evenodd" d="M49.9638 27.7833C49.8472 27.9283 49.6138 28.1317 49.1972 28.37C48.6405 28.69 47.8572 29.015 46.8705 29.3267C44.8955 29.9467 42.1938 30.48 39.0438 30.8083C35.8738 31.1367 33.2338 31.275 31.3205 31.165C30.8948 31.1426 30.4704 31.0997 30.0488 31.0367C30.2355 31.08 30.4355 31.12 30.6488 31.1567C31.5931 31.7475 32.5922 32.2459 33.6322 32.645C35.491 32.5872 37.3468 32.4571 39.1955 32.255C42.4088 31.92 45.2122 31.3717 47.3055 30.7133C48.3505 30.385 49.2388 30.0233 49.9205 29.63C50.5305 29.2817 51.0838 28.8483 51.3538 28.305L49.9638 27.7833Z" fill="white"/>
<path d="M43.2904 23.4983C43.2904 23.4983 45.3237 23.9533 45.457 25.265C45.5904 26.5783 43.8237 28.745 43.8237 28.745C43.8237 28.745 41.6554 26.9783 41.5204 25.665C41.387 24.3533 43.2887 23.4983 43.2887 23.4983" fill="white"/>
</g>
<defs>
<filter id="filter0_d_545_883" x="-2.00293" y="-2.005" width="88" height="88" filterUnits="userSpaceOnUse" color-interpolation-filters="sRGB">
<feFlood flood-opacity="0" result="BackgroundImageFix"/>
<feColorMatrix in="SourceAlpha" type="matrix" values="0 0 0 0 0 0 0 0 0 0 0 0 0 0 0 0 0 0 127 0" result="hardAlpha"/>
<feOffset dx="2" dy="2"/>
<feGaussianBlur stdDeviation="2"/>
<feComposite in2="hardAlpha" operator="out"/>
<feColorMatrix type="matrix" values="0 0 0 0 0 0 0 0 0 0 0 0 0 0 0 0 0 0 0.25 0"/>
<feBlend mode="normal" in2="BackgroundImageFix" result="effect1_dropShadow_545_883"/>
<feBlend mode="normal" in="SourceGraphic" in2="effect1_dropShadow_545_883" result="shape"/>
</filter>
<filter id="filter1_d_545_883" x="14.7236" y="43.8116" width="54.5449" height="25.455" filterUnits="userSpaceOnUse" color-interpolation-filters="sRGB">
<feFlood flood-opacity="0" result="BackgroundImageFix"/>
<feColorMatrix in="SourceAlpha" type="matrix" values="0 0 0 0 0 0 0 0 0 0 0 0 0 0 0 0 0 0 127 0" result="hardAlpha"/>
<feOffset dx="2" dy="2"/>
<feGaussianBlur stdDeviation="2"/>
<feComposite in2="hardAlpha" operator="out"/>
<feColorMatrix type="matrix" values="0 0 0 0 0 0 0 0 0 0 0 0 0 0 0 0 0 0 0.25 0"/>
<feBlend mode="normal" in2="BackgroundImageFix" result="effect1_dropShadow_545_883"/>
<feBlend mode="normal" in="SourceGraphic" in2="effect1_dropShadow_545_883" result="shape"/>
</filter>
<filter id="filter2_d_545_883" x="25.6357" y="17.84" width="32.7246" height="35.61" filterUnits="userSpaceOnUse" color-interpolation-filters="sRGB">
<feFlood flood-opacity="0" result="BackgroundImageFix"/>
<feColorMatrix in="SourceAlpha" type="matrix" values="0 0 0 0 0 0 0 0 0 0 0 0 0 0 0 0 0 0 127 0" result="hardAlpha"/>
<feOffset dx="2"/>
<feGaussianBlur stdDeviation="2"/>
<feComposite in2="hardAlpha" operator="out"/>
<feColorMatrix type="matrix" values="0 0 0 0 0 0 0 0 0 0 0 0 0 0 0 0 0 0 0.25 0"/>
<feBlend mode="normal" in2="BackgroundImageFix" result="effect1_dropShadow_545_883"/>
<feBlend mode="normal" in="SourceGraphic" in2="effect1_dropShadow_545_883" result="shape"/>
</filter>
<clipPath id="clip0_545_883">
<rect width="80" height="80" fill="white"/>
</clipPath>
</defs>
</svg>
