<svg width="141" height="137" viewBox="0 0 141 137" fill="none" xmlns="http://www.w3.org/2000/svg">
<path d="M26.6031 115.284C22.9656 113.138 18.1188 109.144 18.2594 102.431C18.3813 96.7313 26.4438 87.6656 47.1156 84.1969C67.7875 80.7281 79.1969 82.3781 88.4594 83.3719C97.7219 84.3656 103.506 87.3375 103.506 87.3375L95.0688 104.372L26.6031 115.284Z" fill="#1E293B"/>
<path d="M63.2687 99.7125L44.2656 104.756L29.0406 111.478C29.0406 111.478 27.1469 115.472 28.0937 116.522C29.0406 117.572 43.0094 125.559 67.7781 125.653C95.1906 125.756 109.769 118.622 114.812 114.947C119.856 111.272 104.837 90.1688 104.837 90.1688L92.3031 85.0125L78.0625 86.3906L69.6625 90.5906L63.2687 99.7125Z" fill="#F5C876"/>
<path d="M75.6344 97.9969L96.8688 96.8719C96.8688 96.8719 94.0938 91.5469 93.0719 89.1562C91.9094 86.4375 91.6937 84.8719 91.6937 84.8719C91.6937 84.8719 94.1875 84.1781 98.4437 85.2562C102.7 86.3344 117.831 91.1906 121.534 100.547C124.759 108.703 114.747 115.012 114.747 115.012C114.747 115.012 107.997 110.409 105.475 108C101.528 104.231 99.3906 101.072 99.3906 101.072L75.4094 101.916L73.9844 100.969L75.6344 97.9969Z" fill="#F2A159"/>
<path d="M29.9969 101.391C27.3156 104.072 30.4188 107.372 30.4188 107.372C30.4188 107.372 24.3344 108.741 24.5407 112.303C24.6438 114.084 27.0625 116.184 28.1125 116.503C29.1625 116.822 28.9563 114.778 30.4188 113.353C34.1969 109.678 45.85 108.834 53.9313 108C62.0125 107.166 65.3313 104.372 66.8406 103.378C70.8344 100.753 69.3625 93.3187 73.7125 90.0094C80.7063 84.6844 96.7 85.4156 96.5875 84.825C96.475 84.2343 83.3313 81.2812 71.2844 86.1562C63.2313 89.4187 63.3813 96.2344 57.7188 98.1281C52.0563 100.022 34.3 97.0875 29.9969 101.391Z" fill="#DCECF6"/>
<path d="M41.3032 103.922C39.6063 104.541 41.2094 106.331 41.9969 106.781C43.5719 107.681 45.7 108.628 45.7 108.628C45.7 108.628 41.2282 112.022 42.4657 113.794C43.375 115.097 51.7938 111.863 51.7938 111.863C51.8782 111.863 56.9875 116.034 59.1625 116.044C60.7844 116.053 59.6875 109.997 59.6875 109.997C59.6875 109.997 66.5219 108.544 66.5219 106.463C66.5219 104.841 63.1282 105.309 63.1282 105.309C63.1282 105.309 43 103.303 41.3032 103.922Z" fill="#1E293B"/>
<path d="M55.7875 99.7594C54.0156 99.6 50.7531 103.266 50.7531 103.266C50.7531 103.266 41.1438 102.609 40.9844 104.231C40.825 105.853 46.075 106.547 46.075 107.466C46.075 108.384 41.8375 111.778 42.2219 112.856C42.6063 113.934 50.9969 109.078 51.625 109.313C52.2531 109.547 58.6094 115.688 59.7438 114.638C60.7188 113.738 59.7156 108.459 59.7156 108.459C59.7156 108.459 66.1938 106.922 66.1094 105.759C66.0344 104.606 57.9438 103.753 57.9438 103.753C57.9438 103.753 57.4844 99.9094 55.7875 99.7594Z" fill="#F79228"/>
<path d="M67.7594 25.7156L63.325 25.3969L67.8438 58.4531C67.8438 58.4531 72.3719 95.7 72.6813 97.9313C73.075 100.781 73.7781 102.3 76.2906 101.916C78.8031 101.531 78.55 99.0656 78.3906 97.1438C78.2313 95.2219 74.2094 60.2719 74.2094 60.2719L67.7594 25.7156Z" fill="#4EA4B0"/>
<path d="M64.1312 20.1C64.1312 20.1 42.7281 22.4437 28.9468 37.7437C17.8281 50.0906 16.0187 61.1812 16.8062 61.3031C18.1281 61.5094 21.4937 60.3844 25.1687 61.9125C28.8437 63.4406 30.9812 66.6 32.2093 66.6C33.4375 66.6 37.9187 63.5437 44.2468 64.4625C50.5656 65.3812 54.85 69.15 56.1812 69.15C57.5125 69.15 62.8093 65.175 70.9656 64.7625C78.4093 64.3875 83.4062 66.1875 84.4281 66.0844C85.45 65.9812 87.4375 59.6719 95.2937 57.3281C103.15 54.9844 105.747 56.9062 106.872 56.9062C107.997 56.9062 108.606 51.4031 114.212 49.2562C119.819 47.1187 121.966 48.0281 123.184 47.8312C124.403 47.6344 118.694 33.975 98.4531 24.7219C81.7187 17.0812 64.1312 20.1 64.1312 20.1Z" fill="#1E293B"/>
<path d="M65.1156 21.6469C65.1156 21.6469 51.1844 25.8188 41.4906 41.0156C33.5594 53.4469 33.4375 62.6344 33.9438 63.1406C34.45 63.6469 39.1469 61.3031 44.8563 61.8188C50.5656 62.325 55.3844 66.5719 55.6656 65.5969C56.0219 64.3594 55.9094 53.3906 57.2031 44.1563C59.6125 26.8781 65.2375 23.1188 65.2375 23.1188C65.2375 23.1188 72.7375 28.1438 78.4281 42.3281C82 51.225 83.7719 60.3656 84.5125 61.5281C84.8406 62.0438 87.925 57.3188 94.3375 55.2375C100.272 53.3063 105.456 54.7969 106.169 54.3938C106.881 53.9813 100.225 39.5438 89.1156 31.2375C76.5719 21.8344 65.1156 21.6469 65.1156 21.6469Z" fill="#FEFEFE"/>
<path d="M63.85 12.6656C61.1125 13.0406 61.9844 17.0437 62.1906 19.3969C62.2844 20.4375 62.5094 24.4312 65.2562 24.2156C67.5437 24.0375 67.225 20.9906 67.0187 18.75C66.8219 16.5 66.7281 12.2719 63.85 12.6656Z" fill="#4EA4B0"/>
</svg>


