<svg width="90" height="90" viewBox="0 0 90 90" fill="none" xmlns="http://www.w3.org/2000/svg">
<g clip-path="url(#clip0_467_628)">
<g filter="url(#filter0_d_467_628)">
<path d="M22.5 75H67.5C68.5625 75 69.4537 74.64 70.1737 73.92C70.8937 73.2 71.2525 72.31 71.25 71.25H18.75C18.75 72.3125 19.11 73.2037 19.83 73.9237C20.55 74.6437 21.44 75.0025 22.5 75ZM45 30C42 30 39.5 28.9537 37.5 26.8612C35.5 24.7687 34.5625 22.2212 34.6875 19.2187C34.8125 16.4687 35.6562 14.015 37.2188 11.8575C38.7812 9.7 40.5312 7.7475 42.4688 6C42.8438 5.6875 43.235 5.45375 43.6425 5.29875C44.05 5.14375 44.5025 5.065 45 5.0625C45.4975 5.06 45.9512 5.13875 46.3612 5.29875C46.7712 5.45875 47.1613 5.6925 47.5312 6C49.4688 7.75 51.2188 9.70375 52.7812 11.8612C54.3438 14.0187 55.1875 16.4712 55.3125 19.2187C55.4375 22.2187 54.5 24.7662 52.5 26.8612C50.5 28.9562 48 30.0025 45 30ZM41.25 63.75H48.75V41.25H41.25V63.75ZM45 22.5C45.8125 22.5 46.485 22.2187 47.0175 21.6562C47.55 21.0937 47.815 20.4062 47.8125 19.5937C47.8125 18.5312 47.515 17.5625 46.92 16.6875C46.325 15.8125 45.685 14.9687 45 14.1562C44.3125 14.9687 43.6713 15.8125 43.0763 16.6875C42.4813 17.5625 42.185 18.5312 42.1875 19.5937C42.1875 20.4062 42.4538 21.0937 42.9863 21.6562C43.5187 22.2187 44.19 22.5 45 22.5ZM75.9375 63.75C76.75 63.75 77.4225 63.4837 77.955 62.9513C78.4875 62.4188 78.7525 61.7475 78.75 60.9375C78.7475 60.1275 78.4813 59.4562 77.9513 58.9237C77.4212 58.3913 76.75 58.125 75.9375 58.125C75.125 58.125 74.4537 58.3913 73.9237 58.9237C73.3937 59.4562 73.1275 60.1275 73.125 60.9375C73.1225 61.7475 73.3887 62.42 73.9237 62.955C74.4587 63.49 75.13 63.755 75.9375 63.75ZM67.5 82.5H22.5C19.375 82.5 16.7188 81.4062 14.5312 79.2187C12.3438 77.0312 11.25 74.375 11.25 71.25V67.5C11.25 66.4375 11.61 65.5475 12.33 64.83C13.05 64.1125 13.94 63.7525 15 63.75H33.75V41.25C33.75 39.1875 34.485 37.4225 35.955 35.955C37.425 34.4875 39.19 33.7525 41.25 33.75H48.75C50.8125 33.75 52.5788 34.485 54.0488 35.955C55.5187 37.425 56.2525 39.19 56.25 41.25V63.75H66C65.875 63.25 65.7812 62.7812 65.7188 62.3438C65.6562 61.9062 65.625 61.4375 65.625 60.9375C65.625 58.0625 66.625 55.625 68.625 53.625C70.625 51.625 73.0625 50.625 75.9375 50.625C78.8125 50.625 81.25 51.625 83.25 53.625C85.25 55.625 86.25 58.0625 86.25 60.9375C86.25 63.3125 85.5475 65.4062 84.1425 67.2187C82.7375 69.0312 80.94 70.25 78.75 70.875V71.25C78.75 74.375 77.6562 77.0312 75.4688 79.2187C73.2812 81.4062 70.625 82.5 67.5 82.5Z" fill="#1E293B"/>
</g>
</g>
<defs>
<filter id="filter0_d_467_628" x="9.25" y="3.06244" width="83" height="85.4376" filterUnits="userSpaceOnUse" color-interpolation-filters="sRGB">
<feFlood flood-opacity="0" result="BackgroundImageFix"/>
<feColorMatrix in="SourceAlpha" type="matrix" values="0 0 0 0 0 0 0 0 0 0 0 0 0 0 0 0 0 0 127 0" result="hardAlpha"/>
<feOffset dx="2" dy="2"/>
<feGaussianBlur stdDeviation="2"/>
<feComposite in2="hardAlpha" operator="out"/>
<feColorMatrix type="matrix" values="0 0 0 0 0 0 0 0 0 0 0 0 0 0 0 0 0 0 0.25 0"/>
<feBlend mode="normal" in2="BackgroundImageFix" result="effect1_dropShadow_467_628"/>
<feBlend mode="normal" in="SourceGraphic" in2="effect1_dropShadow_467_628" result="shape"/>
</filter>
<clipPath id="clip0_467_628">
<rect width="90" height="90" fill="white"/>
</clipPath>
</defs>
</svg>
