<svg width="68" height="68" viewBox="0 0 68 68" fill="none" xmlns="http://www.w3.org/2000/svg">
<g filter="url(#filter0_d_523_510)">
<path d="M39.9582 31.2083C34.854 36.6975 29.7498 50.1666 29.7498 50.1666C29.7498 50.1666 22.4582 31.2083 15.1665 26.8333" stroke="#1E293B" stroke-width="3" stroke-linecap="round" stroke-linejoin="round" shape-rendering="crispEdges"/>
</g>
<g filter="url(#filter1_d_523_510)">
<path d="M50.2132 20.2125L51.0765 29.1958C51.6365 35.0233 47.2673 40.2121 41.4398 40.775C35.7232 41.3233 30.5432 37.1438 29.9919 31.4271C29.8607 30.0673 29.9987 28.6951 30.398 27.3886C30.7972 26.0822 31.4499 24.8672 32.3188 23.8131C33.1877 22.759 34.2557 21.8863 35.4619 21.245C36.6681 20.6037 37.9888 20.2063 39.3486 20.0754L48.9269 19.1538C49.2374 19.1245 49.5468 19.2195 49.7873 19.418C50.0279 19.6164 50.18 19.9021 50.2102 20.2125" stroke="#1E293B" stroke-width="3" stroke-linecap="round" stroke-linejoin="round" shape-rendering="crispEdges"/>
</g>
<g filter="url(#filter2_d_523_510)">
<path d="M32.6667 61.8333C48.7754 61.8333 61.8333 48.7754 61.8333 32.6667C61.8333 16.5579 48.7754 3.5 32.6667 3.5C16.5579 3.5 3.5 16.5579 3.5 32.6667C3.5 48.7754 16.5579 61.8333 32.6667 61.8333Z" stroke="#1E293B" stroke-width="3" stroke-linecap="round" stroke-linejoin="round" shape-rendering="crispEdges"/>
</g>
<defs>
<filter id="filter0_d_523_510" x="11.6665" y="23.3331" width="35.7915" height="34.3336" filterUnits="userSpaceOnUse" color-interpolation-filters="sRGB">
<feFlood flood-opacity="0" result="BackgroundImageFix"/>
<feColorMatrix in="SourceAlpha" type="matrix" values="0 0 0 0 0 0 0 0 0 0 0 0 0 0 0 0 0 0 127 0" result="hardAlpha"/>
<feOffset dx="2" dy="2"/>
<feGaussianBlur stdDeviation="2"/>
<feComposite in2="hardAlpha" operator="out"/>
<feColorMatrix type="matrix" values="0 0 0 0 0 0 0 0 0 0 0 0 0 0 0 0 0 0 0.25 0"/>
<feBlend mode="normal" in2="BackgroundImageFix" result="effect1_dropShadow_523_510"/>
<feBlend mode="normal" in="SourceGraphic" in2="effect1_dropShadow_523_510" result="shape"/>
</filter>
<filter id="filter1_d_523_510" x="26.4438" y="15.6486" width="32.1812" height="32.6748" filterUnits="userSpaceOnUse" color-interpolation-filters="sRGB">
<feFlood flood-opacity="0" result="BackgroundImageFix"/>
<feColorMatrix in="SourceAlpha" type="matrix" values="0 0 0 0 0 0 0 0 0 0 0 0 0 0 0 0 0 0 127 0" result="hardAlpha"/>
<feOffset dx="2" dy="2"/>
<feGaussianBlur stdDeviation="2"/>
<feComposite in2="hardAlpha" operator="out"/>
<feColorMatrix type="matrix" values="0 0 0 0 0 0 0 0 0 0 0 0 0 0 0 0 0 0 0.25 0"/>
<feBlend mode="normal" in2="BackgroundImageFix" result="effect1_dropShadow_523_510"/>
<feBlend mode="normal" in="SourceGraphic" in2="effect1_dropShadow_523_510" result="shape"/>
</filter>
<filter id="filter2_d_523_510" x="0" y="0" width="69.3335" height="69.3333" filterUnits="userSpaceOnUse" color-interpolation-filters="sRGB">
<feFlood flood-opacity="0" result="BackgroundImageFix"/>
<feColorMatrix in="SourceAlpha" type="matrix" values="0 0 0 0 0 0 0 0 0 0 0 0 0 0 0 0 0 0 127 0" result="hardAlpha"/>
<feOffset dx="2" dy="2"/>
<feGaussianBlur stdDeviation="2"/>
<feComposite in2="hardAlpha" operator="out"/>
<feColorMatrix type="matrix" values="0 0 0 0 0 0 0 0 0 0 0 0 0 0 0 0 0 0 0.25 0"/>
<feBlend mode="normal" in2="BackgroundImageFix" result="effect1_dropShadow_523_510"/>
<feBlend mode="normal" in="SourceGraphic" in2="effect1_dropShadow_523_510" result="shape"/>
</filter>
</defs>
</svg>
