<svg width="70" height="70" viewBox="0 0 70 70" fill="none" xmlns="http://www.w3.org/2000/svg">
<g clip-path="url(#clip0_498_590)">
<g filter="url(#filter0_d_498_590)">
<path fill-rule="evenodd" clip-rule="evenodd" d="M36.7501 5.83337C38.5237 5.83366 40.231 6.50713 41.5271 7.71769C42.8232 8.92826 43.6115 10.5857 43.7327 12.355L43.7501 12.8334V16.2925C43.7501 16.7048 43.7074 17.1102 43.6218 17.5088L43.8931 17.5H54.8131C56.3297 17.5 57.3943 18.3021 58.3831 19.2588L59.366 20.2388C60.1319 21.0049 60.5863 22.028 60.6412 23.1099C60.6962 24.1918 60.3478 25.2556 59.6635 26.0955L59.366 26.428L54.991 30.803C54.2757 31.5182 53.3347 31.9634 52.3281 32.063L51.8964 32.0834H46.6668V52.5C47.2214 52.4999 47.7646 52.6578 48.2326 52.9554C48.7007 53.2529 49.0742 53.6777 49.3093 54.18L49.4347 54.495L51.6835 61.25H52.5001C53.2435 61.2509 53.9586 61.5355 54.4991 62.0458C55.0397 62.5562 55.365 63.2537 55.4086 63.9958C55.4521 64.7379 55.2107 65.4686 54.7335 66.0387C54.2564 66.6088 53.5796 66.9752 52.8414 67.063L52.5001 67.0834H20.4168C19.6734 67.0826 18.9584 66.7979 18.4178 66.2876C17.8773 65.7772 17.552 65.0798 17.5084 64.3376C17.4648 63.5955 17.7063 62.8648 18.1834 62.2947C18.6606 61.7246 19.3374 61.3583 20.0756 61.2705L20.4168 61.25H21.2335L23.4822 54.495C23.6576 53.969 23.9793 53.5039 24.4096 53.1541C24.8399 52.8044 25.361 52.5846 25.9118 52.5205L26.2501 52.5V32.0834H21.0206C20.0101 32.0827 19.0311 31.7323 18.2497 31.0917L17.9289 30.8L13.5539 26.425C12.7346 25.6047 12.2744 24.4928 12.2744 23.3334C12.2744 22.174 12.7346 21.062 13.5539 20.2417L14.531 19.2588C15.4118 18.41 16.351 17.6809 17.6139 17.5292L18.1039 17.5H29.1581L29.2951 17.5088C29.2374 17.2425 29.1985 16.9726 29.1785 16.7009L29.1668 16.2925V12.8334C29.1671 11.0599 29.8406 9.35256 31.0511 8.05646C32.2617 6.76035 33.9191 5.97206 35.6885 5.85087L36.1668 5.83337H36.7501ZM44.5668 58.3334H28.3501L27.3789 61.25H45.5381L44.5668 58.3334ZM32.0835 43.0675V52.5H40.8335V48.3175L32.0835 43.0675ZM28.8751 23.3334H18.7106L21.6272 26.25H29.1668C29.9404 26.25 30.6822 26.5573 31.2292 27.1043C31.7762 27.6513 32.0835 28.3932 32.0835 29.1667V36.2659L40.8335 41.5159V29.1667C40.8335 28.3932 41.1408 27.6513 41.6878 27.1043C42.2347 26.5573 42.9766 26.25 43.7501 26.25H51.2926L54.2093 23.3334H44.0389L37.316 24.678C36.7499 24.7911 36.167 24.7911 35.601 24.678L28.8751 23.3334ZM36.7501 11.6667H36.1668C35.8979 11.6667 35.6372 11.7595 35.4288 11.9296C35.2205 12.0997 35.0773 12.3365 35.0235 12.6L35.0001 12.8334V16.2925L36.4585 17.7509L37.9168 16.2925V12.8334C37.9169 12.5644 37.824 12.3037 37.6539 12.0954C37.4838 11.887 37.247 11.7438 36.9835 11.69L36.7501 11.6667Z" fill="#1E293B"/>
</g>
</g>
<defs>
<filter id="filter0_d_498_590" x="10.2744" y="3.83337" width="56.3726" height="69.25" filterUnits="userSpaceOnUse" color-interpolation-filters="sRGB">
<feFlood flood-opacity="0" result="BackgroundImageFix"/>
<feColorMatrix in="SourceAlpha" type="matrix" values="0 0 0 0 0 0 0 0 0 0 0 0 0 0 0 0 0 0 127 0" result="hardAlpha"/>
<feOffset dx="2" dy="2"/>
<feGaussianBlur stdDeviation="2"/>
<feComposite in2="hardAlpha" operator="out"/>
<feColorMatrix type="matrix" values="0 0 0 0 0 0 0 0 0 0 0 0 0 0 0 0 0 0 0.25 0"/>
<feBlend mode="normal" in2="BackgroundImageFix" result="effect1_dropShadow_498_590"/>
<feBlend mode="normal" in="SourceGraphic" in2="effect1_dropShadow_498_590" result="shape"/>
</filter>
<clipPath id="clip0_498_590">
<rect width="70" height="70" fill="white"/>
</clipPath>
</defs>
</svg>
