<svg width="90" height="90" viewBox="0 0 90 90" fill="none" xmlns="http://www.w3.org/2000/svg">
<path d="M26.25 52.5C28.475 52.5 30.6501 53.1598 32.5002 54.396C34.3502 55.6321 35.7922 57.3891 36.6436 59.4448C37.4951 61.5005 37.7179 63.7625 37.2838 65.9448C36.8498 68.1271 35.7783 70.1316 34.205 71.7049C32.6316 73.2783 30.6271 74.3497 28.4448 74.7838C26.2625 75.2179 24.0005 74.9951 21.9448 74.1436C19.8891 73.2922 18.1321 71.8502 16.896 70.0002C15.6598 68.1501 15 65.975 15 63.75L15.0188 63.09C15.1871 60.2254 16.4437 57.5334 18.5315 55.5648C20.6193 53.5962 23.3805 52.4998 26.25 52.5ZM67.5 52.5C69.725 52.5 71.9001 53.1598 73.7502 54.396C75.6002 55.6321 77.0422 57.3891 77.8936 59.4448C78.7451 61.5005 78.9679 63.7625 78.5338 65.9448C78.0998 68.1271 77.0283 70.1316 75.455 71.7049C73.8816 73.2783 71.8771 74.3497 69.6948 74.7838C67.5125 75.2179 65.2505 74.9951 63.1948 74.1436C61.1391 73.2922 59.3821 71.8502 58.146 70.0002C56.9098 68.1501 56.25 65.975 56.25 63.75L56.2687 63.09C56.4371 60.2254 57.6937 57.5334 59.7815 55.5648C61.8693 53.5962 64.6305 52.4998 67.5 52.5ZM26.25 60C25.2554 60 24.3016 60.3951 23.5984 61.0983C22.8951 61.8016 22.5 62.7554 22.5 63.75C22.5 64.7446 22.8951 65.6984 23.5984 66.4016C24.3016 67.1049 25.2554 67.5 26.25 67.5C27.2446 67.5 28.1984 67.1049 28.9016 66.4016C29.6049 65.6984 30 64.7446 30 63.75C30 62.7554 29.6049 61.8016 28.9016 61.0983C28.1984 60.3951 27.2446 60 26.25 60ZM67.5 60C66.5054 60 65.5516 60.3951 64.8483 61.0983C64.1451 61.8016 63.75 62.7554 63.75 63.75C63.75 64.7446 64.1451 65.6984 64.8483 66.4016C65.5516 67.1049 66.5054 67.5 67.5 67.5C68.4946 67.5 69.4484 67.1049 70.1517 66.4016C70.8549 65.6984 71.25 64.7446 71.25 63.75C71.25 62.7554 70.8549 61.8016 70.1517 61.0983C69.4484 60.3951 68.4946 60 67.5 60ZM54.1425 15C56.6509 15.0003 59.0874 15.8389 61.0645 17.3826C63.0417 18.9263 64.4463 21.0865 65.055 23.52L66.6787 30H75C77.8695 29.9998 80.6307 31.0962 82.7185 33.0648C84.8063 35.0334 86.0629 37.7254 86.2313 40.59L86.25 41.25V52.575L86.2125 53.0137C86.1018 53.8309 85.7248 54.5887 85.14 55.17L84.7388 55.5112L84.4762 55.695L84.1913 55.8525L83.7937 56.025L83.73 56.0437L83.5537 56.1037L83.1488 56.1975L82.7063 56.2462L82.4062 56.2537L81.9488 56.2087L81.3938 56.085L81.1575 56.0025C80.6445 55.8056 80.1811 55.4983 79.8 55.1025L79.5 54.75C78.1028 52.8871 76.291 51.375 74.2082 50.3336C72.1254 49.2922 69.8287 48.75 67.5 48.75C65.1713 48.75 62.8746 49.2922 60.7918 50.3336C58.709 51.375 56.8972 52.8871 55.5 54.75C55.1507 55.2157 54.6978 55.5937 54.177 55.8541C53.6563 56.1145 53.0822 56.25 52.5 56.25H41.25C40.6678 56.25 40.0937 56.1145 39.573 55.8541C39.0522 55.5937 38.5993 55.2157 38.25 54.75C36.8533 52.8847 35.041 51.3707 32.957 50.3281C30.873 49.2855 28.5746 48.743 26.2444 48.7437C23.9141 48.7445 21.6161 49.2884 19.5327 50.3323C17.4494 51.3762 15.6381 52.8913 14.2425 54.7575C13.9475 55.152 13.5777 55.4845 13.1543 55.736C12.7308 55.9875 12.2619 56.1532 11.7744 56.2236C11.2869 56.2939 10.7903 56.2675 10.313 56.146C9.83565 56.0244 9.38696 55.81 8.9925 55.515C8.59804 55.22 8.26555 54.8502 8.014 54.4268C7.76245 54.0033 7.59678 53.5344 7.52644 53.0469C7.4561 52.5594 7.48247 52.0628 7.60404 51.5855C7.72562 51.1082 7.94002 50.6595 8.235 50.265C10.0838 47.79 12.3975 45.765 15 44.2575V33.7875C14.9961 33.3401 15.0723 32.8956 15.225 32.475L15.3825 32.1L22.8975 17.0737C23.2087 16.4509 23.6872 15.9271 24.2793 15.5608C24.8714 15.1946 25.5538 15.0004 26.25 15H54.1425ZM7.5 22.5C8.49456 22.5 9.44839 22.8951 10.1517 23.5983C10.8549 24.3016 11.25 25.2554 11.25 26.25V41.25C11.25 42.2446 10.8549 43.1984 10.1517 43.9016C9.44839 44.6049 8.49456 45 7.5 45C6.50544 45 5.55161 44.6049 4.84835 43.9016C4.14509 43.1984 3.75 42.2446 3.75 41.25V26.25C3.75 25.2554 4.14509 24.3016 4.84835 23.5983C5.55161 22.8951 6.50544 22.5 7.5 22.5ZM54.1425 22.5H41.25V30H58.9425L57.78 25.3387C57.5769 24.5278 57.1086 23.808 56.4495 23.2937C55.7905 22.7794 54.9785 22.5 54.1425 22.5ZM33.75 22.5H28.5675L24.8138 30H33.75V22.5Z" fill="#E6502C"/>
</svg>
