<svg width="70" height="70" viewBox="0 0 70 70" fill="none" xmlns="http://www.w3.org/2000/svg">
<g clip-path="url(#clip0_498_737)">
<g filter="url(#filter0_d_498_737)">
<path d="M21.3262 35.8203C24.3465 35.8203 26.7949 33.3719 26.7949 30.3516C26.7949 27.3313 24.3465 24.8828 21.3262 24.8828C18.3059 24.8828 15.8574 27.3313 15.8574 30.3516C15.8574 33.3719 18.3059 35.8203 21.3262 35.8203Z" fill="#1E293B"/>
</g>
<g filter="url(#filter1_d_498_737)">
<path d="M48.6699 35.8203C51.6902 35.8203 54.1387 33.3719 54.1387 30.3516C54.1387 27.3313 51.6902 24.8828 48.6699 24.8828C45.6496 24.8828 43.2012 27.3313 43.2012 30.3516C43.2012 33.3719 45.6496 35.8203 48.6699 35.8203Z" fill="#1E293B"/>
</g>
<g filter="url(#filter2_d_498_737)">
<path d="M62.5056 28.9319C62.0342 10.4683 48.4564 2.1875 34.9978 2.1875C21.5414 2.1875 7.9636 10.4683 7.49001 28.9319C3.85548 29.4186 2.18751 32.4417 2.18751 35.2669C2.18532 36.9425 2.72782 38.4934 3.71438 39.6364C4.40016 40.4337 5.59454 41.3602 7.52282 41.6084C7.98438 46.8311 12.0575 53.4264 21.5239 56.7011C21.6759 56.8695 21.8422 57.0259 22.0063 57.1834C23.1656 63.2264 28.5469 67.8125 34.9978 67.8125C41.4531 67.8125 46.8322 63.2242 47.9905 57.1823C48.1545 57.0237 48.3219 56.8684 48.4728 56.7C57.9381 53.4253 62.0124 46.8311 62.4739 41.6052C66.1336 41.1327 67.8125 38.0997 67.8125 35.268C67.8125 32.4417 66.1445 29.4186 62.5056 28.9319ZM34.9978 66.2123C28.5677 66.2123 23.3549 61.0838 23.3549 54.7531C23.3549 49.8848 26.4436 49.2012 30.7934 49.1433C30.87 48.5428 31.3338 48.0714 31.9189 48.0714H38.0778C38.663 48.0714 39.1267 48.5439 39.2011 49.1433C43.5509 49.2012 46.6419 49.887 46.6419 54.7531C46.643 61.0838 41.428 66.2123 34.9978 66.2123ZM48.2147 54.4436C48.0605 48.5286 43.6833 47.7127 40.5092 47.5759C39.4177 45.9627 37.3669 44.8689 34.9978 44.8689C32.6331 44.8689 30.5802 45.9627 29.4886 47.5759C26.3145 47.7127 21.9374 48.5286 21.7831 54.4436C20.5723 52.6214 19.9161 50.4022 19.9161 47.8188C19.9161 43.5509 21.5819 42.7153 24.4617 42.7153C25.6966 42.7153 27.1622 42.8838 28.7131 43.0631C30.6206 43.2852 32.783 43.5356 35.0405 43.5356C37.3002 43.5356 39.4581 43.2852 41.3634 43.0631C42.9034 42.8838 44.3581 42.7153 45.582 42.7153C48.5002 42.7153 50.0806 43.5291 50.0806 47.8188C50.0817 50.4022 49.4255 52.6192 48.2147 54.4436ZM61.4611 39.5347H60.4013V40.6011C60.4013 44.765 57.5575 50.2316 50.5149 53.5784C51.2706 51.882 51.6688 49.9516 51.6688 47.8188C51.6688 43.1189 49.8488 41.1152 45.5831 41.1152C44.2673 41.1152 42.77 41.288 41.183 41.4739C39.3203 41.6894 37.2094 41.9355 35.0416 41.9355C32.8759 41.9355 30.7606 41.6894 28.8936 41.4739C27.2978 41.2902 25.7873 41.1152 24.4628 41.1152C21.607 41.1152 18.328 41.8775 18.328 47.8188C18.328 49.9505 18.7272 51.882 19.4841 53.5784C12.4392 50.2305 9.59548 44.7639 9.59548 40.6011V39.5347H8.53673C7.14219 39.5347 6.0561 39.0972 5.31126 38.2342C4.66157 37.4806 4.30501 36.4273 4.30501 35.268C4.30501 33.2041 5.41626 30.9991 8.53673 30.9991H9.59438V29.9316C9.59438 19.962 13.405 13.3875 18.7228 9.3975C22.75 14.2439 27.0244 17.115 36.0588 17.127C31.8248 13.9256 33.9413 9.65672 33.9413 9.65672C33.9413 9.65672 42.4091 14.992 49.8181 12.8581C49.8181 12.8581 45.5842 11.7906 44.5266 8.59031C44.5266 8.59031 47.6886 9.38547 50.598 8.91187C56.268 12.845 60.4034 19.5431 60.4034 29.9316V30.9991H61.4633C64.5849 30.9991 65.6972 33.2052 65.6972 35.268C65.695 37.3308 64.5827 39.5347 61.4611 39.5347Z" fill="#1E293B"/>
</g>
<g filter="url(#filter3_d_498_737)">
<path d="M39.2403 51.2334H39.2315V52.1773C39.2315 52.8543 38.7142 53.4056 38.0776 53.4056H31.9187C31.2799 53.4056 30.7626 52.8543 30.7626 52.1773V51.2334H30.7538C28.1135 51.2334 26.2017 51.7267 26.2017 54.7542C26.2017 59.2549 30.4246 62.3382 34.9965 62.3382C39.5706 62.3382 43.7935 59.256 43.7935 54.7542C43.7946 51.7267 41.8806 51.2334 39.2403 51.2334ZM38.9778 59.7526C37.7385 59.9582 36.4184 60.0753 34.9976 60.0753C33.579 60.0753 32.2588 59.9582 31.0196 59.7526C29.1548 58.7551 27.7898 57.0357 27.7898 54.7542C27.7898 53.737 27.8663 53.1354 29.2718 52.921C29.5901 54.122 30.6565 55.0079 31.9187 55.0079H32.2392C33.1154 55.3612 34.0517 55.5417 34.9965 55.5395C35.942 55.542 36.8791 55.3615 37.756 55.0079H38.0765C39.3387 55.0079 40.4029 54.1231 40.7212 52.9232C41.0931 52.9812 41.4321 53.0731 41.6739 53.2218C41.8335 53.3203 42.2054 53.551 42.2054 54.7531C42.2076 57.0346 40.8426 58.7551 38.9778 59.7526ZM39.5695 38.0767H30.4268C28.142 38.0767 30.4268 41.3557 34.9987 41.3557C39.5695 41.3535 41.8576 38.0767 39.5695 38.0767Z" fill="#1E293B"/>
</g>
</g>
<defs>
<filter id="filter0_d_498_737" x="13.8574" y="22.8828" width="18.9375" height="18.9375" filterUnits="userSpaceOnUse" color-interpolation-filters="sRGB">
<feFlood flood-opacity="0" result="BackgroundImageFix"/>
<feColorMatrix in="SourceAlpha" type="matrix" values="0 0 0 0 0 0 0 0 0 0 0 0 0 0 0 0 0 0 127 0" result="hardAlpha"/>
<feOffset dx="2" dy="2"/>
<feGaussianBlur stdDeviation="2"/>
<feComposite in2="hardAlpha" operator="out"/>
<feColorMatrix type="matrix" values="0 0 0 0 0 0 0 0 0 0 0 0 0 0 0 0 0 0 0.25 0"/>
<feBlend mode="normal" in2="BackgroundImageFix" result="effect1_dropShadow_498_737"/>
<feBlend mode="normal" in="SourceGraphic" in2="effect1_dropShadow_498_737" result="shape"/>
</filter>
<filter id="filter1_d_498_737" x="41.2012" y="22.8828" width="18.9375" height="18.9375" filterUnits="userSpaceOnUse" color-interpolation-filters="sRGB">
<feFlood flood-opacity="0" result="BackgroundImageFix"/>
<feColorMatrix in="SourceAlpha" type="matrix" values="0 0 0 0 0 0 0 0 0 0 0 0 0 0 0 0 0 0 127 0" result="hardAlpha"/>
<feOffset dx="2" dy="2"/>
<feGaussianBlur stdDeviation="2"/>
<feComposite in2="hardAlpha" operator="out"/>
<feColorMatrix type="matrix" values="0 0 0 0 0 0 0 0 0 0 0 0 0 0 0 0 0 0 0.25 0"/>
<feBlend mode="normal" in2="BackgroundImageFix" result="effect1_dropShadow_498_737"/>
<feBlend mode="normal" in="SourceGraphic" in2="effect1_dropShadow_498_737" result="shape"/>
</filter>
<filter id="filter2_d_498_737" x="0.1875" y="0.1875" width="73.625" height="73.625" filterUnits="userSpaceOnUse" color-interpolation-filters="sRGB">
<feFlood flood-opacity="0" result="BackgroundImageFix"/>
<feColorMatrix in="SourceAlpha" type="matrix" values="0 0 0 0 0 0 0 0 0 0 0 0 0 0 0 0 0 0 127 0" result="hardAlpha"/>
<feOffset dx="2" dy="2"/>
<feGaussianBlur stdDeviation="2"/>
<feComposite in2="hardAlpha" operator="out"/>
<feColorMatrix type="matrix" values="0 0 0 0 0 0 0 0 0 0 0 0 0 0 0 0 0 0 0.25 0"/>
<feBlend mode="normal" in2="BackgroundImageFix" result="effect1_dropShadow_498_737"/>
<feBlend mode="normal" in="SourceGraphic" in2="effect1_dropShadow_498_737" result="shape"/>
</filter>
<filter id="filter3_d_498_737" x="24.2017" y="36.0767" width="25.5918" height="32.2616" filterUnits="userSpaceOnUse" color-interpolation-filters="sRGB">
<feFlood flood-opacity="0" result="BackgroundImageFix"/>
<feColorMatrix in="SourceAlpha" type="matrix" values="0 0 0 0 0 0 0 0 0 0 0 0 0 0 0 0 0 0 127 0" result="hardAlpha"/>
<feOffset dx="2" dy="2"/>
<feGaussianBlur stdDeviation="2"/>
<feComposite in2="hardAlpha" operator="out"/>
<feColorMatrix type="matrix" values="0 0 0 0 0 0 0 0 0 0 0 0 0 0 0 0 0 0 0.25 0"/>
<feBlend mode="normal" in2="BackgroundImageFix" result="effect1_dropShadow_498_737"/>
<feBlend mode="normal" in="SourceGraphic" in2="effect1_dropShadow_498_737" result="shape"/>
</filter>
<clipPath id="clip0_498_737">
<rect width="70" height="70" fill="white"/>
</clipPath>
</defs>
</svg>
