<svg width="90" height="90" viewBox="0 0 90 90" fill="none" xmlns="http://www.w3.org/2000/svg">
<path d="M35.6175 21.7238C40.9425 14.5838 48.9488 12.4988 56.3138 14.505C64.2638 16.6688 71.2538 23.4975 73.575 33.0075C73.695 33.495 73.7988 33.9825 73.8863 34.47C70.5354 33.276 66.8906 33.184 63.4838 34.2075C58.6575 30.6375 52.68 30.0375 47.3663 31.995C40.71 34.4513 35.5125 40.68 34.3088 48.5175C32.7713 58.5525 38.8838 67.5675 47.5275 75.2325L48.9825 76.4925C47.8088 76.575 46.6163 76.3913 45.4763 76.1475C44.8905 76.0215 44.3078 75.8814 43.7288 75.7275L41.715 75.165C23.8125 70.1288 11.8275 62.25 8.38876 50.475C5.64376 41.0775 8.28376 31.6688 14.0888 25.8188C19.4663 20.4 27.4388 18.2025 35.6175 21.7238ZM41.7225 49.6538C43.3275 39.1838 55.4363 34.0238 61.6538 43.0088C61.7133 43.0923 61.8034 43.1489 61.9045 43.1665C62.0056 43.184 62.1095 43.161 62.1938 43.1025C71.1075 36.7875 80.7188 45.7763 78.645 56.1638C77.445 62.1888 71.8575 67.1887 61.8825 71.1637L60.2513 71.8012L59.265 72.2062C58.4138 72.54 57.5138 72.8063 56.7 72.6638C55.89 72.5213 55.1363 71.9587 54.45 71.3587L53.2875 70.3088C44.6125 62.8438 40.7575 55.9588 41.7225 49.6538Z" fill="#E6502C"/>
</svg>
