<svg width="70" height="70" viewBox="0 0 70 70" fill="none" xmlns="http://www.w3.org/2000/svg">
<path d="M69.9998 52.5C69.9998 54.5628 69.1804 56.5411 67.7218 57.9997C66.2632 59.4583 64.2849 60.2778 62.2221 60.2778H46.6665V9.72223H62.2221C64.2849 9.72223 66.2632 10.5417 67.7218 12.0003C69.1804 13.4589 69.9998 15.4372 69.9998 17.5V52.5Z" fill="#CE2B37"/>
<path d="M7.77778 9.72223C5.71498 9.72223 3.73667 10.5417 2.27806 12.0003C0.819442 13.4589 0 15.4372 0 17.5L0 52.5C0 54.5628 0.819442 56.5411 2.27806 57.9997C3.73667 59.4583 5.71498 60.2778 7.77778 60.2778H23.3333V9.72223H7.77778Z" fill="#009246"/>
<path d="M23.3335 9.72223H46.6668V60.2778H23.3335V9.72223Z" fill="#EEEEEE"/>
</svg>
