<svg width="70" height="70" viewBox="0 0 70 70" fill="none" xmlns="http://www.w3.org/2000/svg">
<path d="M65.1821 39.2427C69.3723 31.2605 60.8552 25.725 49.7198 23.0103C50.5576 21.1061 50.8004 18.6134 48.4379 16.2334C45.4082 13.1873 47.4218 8.75 47.4218 8.75C47.4218 8.75 41.0627 14.6158 45.0779 18.6605C46.5588 20.1513 47.3299 21.4605 47.6985 22.5553C44.6244 21.9221 41.5117 21.4931 38.3809 21.2712C39.316 18.7294 39.4068 15.5367 36.4602 12.4797C32.4265 8.28953 35.1127 2.1875 35.1127 2.1875C35.1127 2.1875 26.6329 10.2528 31.9868 15.8134C33.9413 17.8413 34.9706 19.6263 35.4693 21.1225C32.1509 21.023 28.9571 21.1684 26.1199 21.5655C26.4579 19.9303 26.1757 18.0502 24.3721 16.2345C21.3424 13.1884 23.3571 8.75 23.3571 8.75C23.3571 8.75 16.997 14.6158 21.0132 18.6605C22.271 19.927 23.0082 21.058 23.4315 22.0434C22.9517 22.1484 22.488 22.2626 22.0402 22.3858C8.21306 21.0919 2.18212 23.9487 4.93728 29.5531C0.129155 34.3613 1.93603 39.8486 7.95275 44.0475C11.0918 56.9767 11.9001 67.8125 35.5426 67.8125C56.6388 67.8125 59.5537 59.1828 62.1667 48.1381C70.0067 46.5773 68.3365 42.8192 65.1821 39.2427ZM63.2276 37.9509C60.6015 43.5509 49.2046 47.7663 35.5426 47.7663C21.8817 47.7663 10.4848 43.5509 7.85759 37.9509C7.80181 37.7847 7.74822 37.6119 7.69462 37.4434C8.94587 34.2694 13.0124 31.5153 18.724 29.6712C17.382 30.9684 17.1031 32.9055 20.6348 33.5847C21.6454 33.7794 24.4202 33.1056 23.2073 29.6625C23.0377 29.1813 22.761 28.8586 22.4209 28.6639C26.3452 27.7659 30.8001 27.2486 35.5426 27.2486C36.0742 27.2486 36.5959 27.2672 37.1198 27.2792C34.3832 28.2505 32.1509 31.243 37.7388 32.1256C38.9726 32.3203 42.3599 31.6466 40.879 28.2034C40.7494 27.8967 40.5421 27.629 40.2774 27.4269C45.5132 27.8119 50.2568 28.8203 54.0915 30.2739C50.7195 30.0858 46.9788 32.1639 52.9693 35.0897C54.2545 35.7175 58.1592 36.2939 57.6221 32.492C57.5828 32.2175 57.4859 31.9543 57.3377 31.7198C60.4035 33.3353 62.5418 35.2942 63.3895 37.4434L63.2276 37.9509Z" fill="#1E293B"/>
<path d="M28.2592 40.2948C31.7953 40.2948 34.1534 37.0978 36.0007 35.8465C38.582 34.0965 45.0723 33.414 39.3564 33.2762C33.9346 33.1461 27.2409 37.5473 22.7674 37.2443C15.3606 36.7412 22.9468 40.2948 28.2592 40.2948ZM35.9001 46.8267C37.1492 47.0673 40.5824 46.2339 39.0807 41.9759C37.3843 37.1579 27.1151 45.1358 35.9001 46.8267ZM16.4576 36.2884C15.2643 34.604 13.534 32.4679 12.8176 33.5803C11.8387 35.1017 11.5303 38.1631 12.2412 38.2987C17.815 39.3673 17.4245 37.6523 16.4576 36.2884ZM48.8599 36.9709C49.8651 35.7262 47.8581 32.7304 46.5696 33.2543C44.5528 34.0747 43.3901 33.519 42.5042 34.7637C40.4293 37.6786 47.4939 38.6608 48.8599 36.9709ZM48.2321 40.5376C46.7862 39.9 47.1274 42.0361 44.9914 40.3222C43.4623 39.095 40.1723 42.1903 42.3423 44.2925C44.7573 46.632 45.4004 44.4084 46.4154 44.5954C48.4782 44.975 52.0253 42.2111 48.2321 40.5376ZM24.1893 41.2683C23.4357 40.5267 22.4251 41.4214 21.8542 42.5129C21.2887 42.2351 20.8282 42.1706 20.8282 42.1706C20.3962 40.939 19.111 40.0947 19.111 40.0947C19.111 40.0947 19.2281 41.3754 19.3976 42C17.9779 41.4958 17.9342 38.9583 17.9342 38.9583C17.9342 38.9583 16.9815 39.5281 17.0679 40.4961C15.5049 39.235 14.1739 39.8245 14.1739 39.8245C14.1739 39.8245 16.1568 40.9401 16.4303 41.6926C15.3168 41.779 14.6671 42.164 14.2887 43.0598C14.2898 43.0675 16.4893 42.0131 18.1168 42.7744C17.4748 43.2993 17.7942 44.6108 17.7942 44.6108C19.309 43.0051 20.5187 43.1768 21.4867 43.4645C21.3696 43.9556 21.3773 44.404 21.5851 44.6764C23.264 46.8836 29.1123 46.387 30.6829 44.7551C32.5849 42.7809 27.2999 44.3297 24.1893 41.2683Z" fill="#1E293B"/>
<path d="M28.3204 32.9547C27.8228 33.9544 27.8195 34.709 28.3948 35.4944C28.4025 35.4965 28.6267 33.0684 30.1153 32.0622C30.2367 32.8825 31.5251 33.2806 31.5251 33.2806C30.4948 29.6319 33.5026 29.4415 33.4884 28.1323C31.8937 28.2669 30.9881 29.4262 30.9881 29.4262C29.7095 29.1648 28.3237 29.8331 28.3237 29.8331C28.3237 29.8331 29.4842 30.3898 30.1065 30.5659C28.945 31.5251 26.7443 30.2597 26.7443 30.2597C26.7443 30.2597 26.7443 31.3709 27.6193 31.792C25.7348 32.4865 25.5576 33.9303 25.5576 33.9303C25.5576 33.9303 27.5329 32.8026 28.3204 32.9547ZM56.2668 37.9378C56.7196 37.0781 56.059 36.1845 56.059 36.1845C56.059 36.1845 55.0429 38.5109 53.539 38.4311C53.935 37.9192 54.5365 36.7817 54.5365 36.7817C54.5365 36.7817 53.025 37.0694 52.1521 38.0395C52.1521 38.0395 50.7346 37.6469 49.374 38.4869C50.1418 39.5478 52.6728 37.9104 54.0148 41.4564C54.0148 41.4564 54.8132 40.3703 54.4228 39.6386C56.2187 39.5609 57.844 41.3787 57.8495 41.3722C57.8429 40.3987 57.3923 39.795 56.3959 39.2875C56.9384 38.6979 59.1981 38.43 59.1981 38.43C59.1981 38.43 58.1962 37.3745 56.2668 37.9378Z" fill="#1E293B"/>
</svg>
