<svg width="78" height="78" viewBox="0 0 78 78" fill="none" xmlns="http://www.w3.org/2000/svg">
<path d="M66.625 57.25L76 66.625L66.625 76" stroke="#E6502C" stroke-width="4" stroke-linecap="round" stroke-linejoin="round"/>
<path d="M8.5 16C10.4891 16 12.3968 15.2098 13.8033 13.8033C15.2098 12.3968 16 10.4891 16 8.5C16 6.51088 15.2098 4.60322 13.8033 3.1967C12.3968 1.79018 10.4891 1 8.5 1C6.51088 1 4.60322 1.79018 3.1967 3.1967C1.79018 4.60322 1 6.51088 1 8.5C1 10.4891 1.79018 12.3968 3.1967 13.8033C4.60322 15.2098 6.51088 16 8.5 16Z" fill="#E6502C" stroke="#E6502C" stroke-width="2" stroke-linejoin="round"/>
<path d="M16 8.5H31C32.9891 8.5 34.8968 9.29018 36.3033 10.6967C37.7098 12.1032 38.5 14.0109 38.5 16V59.125C38.5 61.1141 39.2902 63.0218 40.6967 64.4283C42.1032 65.8348 44.0109 66.625 46 66.625H76" stroke="#E6502C" stroke-width="4" stroke-linecap="round" stroke-linejoin="round"/>
</svg>
