<svg width="90" height="90" viewBox="0 0 90 90" fill="none" xmlns="http://www.w3.org/2000/svg">
<path d="M37.0195 7.80293L35.789 7.03125C33.3808 5.55468 30.375 4.69687 27.791 5.50195C25.0137 6.36679 22.7988 8.50605 21.6387 11.7193L19.9863 10.8686C17.1386 9.40254 15.648 9.37968 14.4123 9.93515C13.4261 10.3764 12.3978 11.4381 11.2324 12.9885L25.7168 24.1875C27.9844 24.9258 31.3066 24.9082 34.6289 24.0469C37.9687 23.1855 41.291 21.498 43.7168 19.2305L49.1836 5.71289C44.3672 1.90722 39.9726 4.11152 37.0195 7.80293ZM46.3535 21.2519C43.3652 24.2754 38.9179 26.3144 35.4551 27.2285C34.2422 27.5449 33.0293 27.7734 31.8515 27.8965C31.2011 28.9687 30.6562 30.0586 30.2344 31.1484C31.0781 35.4375 32.6601 38.9531 35.0332 41.8359L32.5019 43.9453C31.0429 42.1875 29.7422 40.2891 28.7578 38.1797C28.5996 42.2578 29.5136 46.4766 31.0078 50.8711L27.8965 51.9258C25.1543 43.9101 24.2226 35.7012 28.0722 27.9668C26.7715 27.8613 25.541 27.6152 24.3984 27.2109L24.3457 27.1934C23.5898 27.9141 22.8691 28.6699 22.1836 29.4609C16.6342 35.8945 13.5773 44.4551 15.1769 51.1172C16.033 54.6855 17.5676 58.0605 19.7754 60.9434C23.0097 60.873 26.0683 60.9434 28.8457 61.998C30.164 61.8574 31.5176 61.7695 32.9238 61.7695C37.9336 61.7695 42.4687 62.7012 45.8965 64.3184C47.2324 64.9512 48.4453 65.707 49.4121 66.5684C49.4121 65.6367 49.5527 64.6348 49.834 63.8965C48.2695 62.4199 47.2851 60.6269 47.2851 58.5879C47.2851 55.7578 49.166 53.4199 51.8906 51.7324C51.8906 50.9238 52.0488 50.1504 52.3301 49.4121C50.5547 47.8828 49.4121 45.9844 49.4121 43.7695C49.4121 42.3809 49.8691 41.1152 50.6426 39.9727C49.8691 38.8477 49.4121 37.582 49.4121 36.1934C49.4121 35.5078 49.5176 34.875 49.7109 34.2598C48.0058 32.748 46.9336 30.8848 46.9336 28.7402C46.9336 26.6133 47.9883 24.7676 49.6758 23.2734C48.6387 22.4648 47.5312 21.7793 46.3535 21.2519ZM65.9355 21.6562C61.3652 21.6562 57.2344 22.623 54.4043 24.0469C51.5566 25.4707 50.2207 27.2285 50.2207 28.7402C50.2207 30.2695 51.5566 32.0273 54.4043 33.4512C57.2344 34.875 61.3652 35.8418 65.9355 35.8418C67.9219 35.8418 69.8027 35.6484 71.5429 35.332V32.3437C73.9863 31.9746 76.0078 31.3066 77.3086 30.4453V33.5391C79.5058 32.9062 81.6152 30.5684 81.6679 28.7402C81.6679 27.2285 80.332 25.4707 77.4844 24.0469C74.6367 22.623 70.5234 21.6562 65.9355 21.6562ZM82.8984 33.5566C82.3183 34.1719 81.6328 34.7519 80.8594 35.2793L80.8945 40.3769C83.1094 39.0586 84.1465 37.5293 84.1465 36.1934C84.1465 35.3496 83.7422 34.4355 82.8984 33.5566ZM52.6992 36.2637C52.7519 37.7754 54.0879 39.4805 56.8828 40.8867C59.7304 42.3281 63.8437 43.2773 68.4316 43.2773C71.2969 43.2773 73.9863 42.8906 76.289 42.2578L76.4121 37.4766C73.3886 38.5312 69.8027 39.1113 65.9355 39.1113C60.9258 39.1113 56.373 38.1094 52.9277 36.3867C52.8398 36.3516 52.7695 36.2988 52.6992 36.2637ZM53.0508 42.3809C52.8047 42.8555 52.6992 43.3301 52.6992 43.7695C52.6992 45.2988 54.0351 47.0566 56.8828 48.4805C59.7304 49.9043 63.8437 50.8535 68.4316 50.8535C70.7519 50.8535 72.9492 50.625 74.9355 50.1855V45.9668C72.8965 46.3535 70.7168 46.5469 68.4316 46.5469C63.4043 46.5469 58.8515 45.5625 55.4062 43.8223C54.5449 43.4004 53.7539 42.9082 53.0508 42.3809ZM83.7949 42.3809C82.7226 43.1367 81.791 43.6992 80.7011 44.1738V48.0937C83.039 46.7402 84.1465 45.1582 84.1465 43.7695C84.1465 43.3301 84.041 42.8555 83.7949 42.3809ZM85.1133 48.8496C84.7617 49.2012 84.375 49.5352 83.9531 49.8691V55.5644C85.7636 54.334 86.6426 52.9805 86.6426 51.75C86.6426 50.8184 86.1328 49.8164 85.1133 48.8496ZM55.2129 51.3105C55.1953 51.4687 55.1777 51.6094 55.1777 51.75C55.1777 53.2793 56.5137 55.0195 59.3613 56.4434C62.209 57.8848 66.3398 58.834 70.9101 58.834C73.5293 58.834 76.0254 58.5176 78.1875 57.9902V52.7344C75.3222 53.6484 72 54.1406 68.4316 54.1406C63.4043 54.1406 58.8515 53.1387 55.4062 51.416C55.3359 51.3809 55.2832 51.3457 55.2129 51.3105ZM52.8222 55.0723C51.2929 56.2148 50.5722 57.4629 50.5722 58.5879C50.5722 60.1172 51.9082 61.8574 54.7558 63.2988C57.6035 64.7227 61.7168 65.6719 66.3047 65.6719C67.9746 65.6719 69.5918 65.5488 71.1035 65.3203V62.1211H70.9101C65.8828 62.1211 61.3301 61.1191 57.8847 59.3789C55.6875 58.2891 53.8594 56.8301 52.8222 55.0723ZM81.3867 60.4512C79.998 60.9434 78.4863 61.3476 76.8691 61.6113V63.7383C77.2031 63.5977 77.5371 63.457 77.8535 63.2988C79.5761 62.4199 80.7363 61.4355 81.3867 60.4512ZM83.0039 63.6504C82.3359 64.3184 81.5625 64.916 80.7011 65.4609V70.4883C83.039 69.1523 84.1465 67.5703 84.1465 66.1816C84.1465 65.373 83.7773 64.4941 83.0039 63.6504ZM21.709 64.1426C19.916 64.1601 17.9824 64.3887 15.9785 64.8633C11.9689 65.7949 8.52185 67.5 6.27185 69.3809C4.02185 71.2441 3.14295 73.1426 3.40662 74.4961C3.67029 75.8496 5.05896 77.0977 7.76599 77.8184C10.4642 78.5215 14.2383 78.5566 18.2461 77.625C19.8633 77.2383 21.375 76.7461 22.7637 76.166V72.5273C25.3301 71.3848 27.2461 70.0137 28.1074 68.6777V72.9668C30.2344 71.1387 31.0605 69.3105 30.8144 67.9746C30.5683 66.6211 29.1621 65.373 26.4551 64.6699C25.1015 64.3184 23.4844 64.125 21.709 64.1426ZM33.0644 65.0566C33.539 65.7422 33.873 66.5156 34.0488 67.3769C34.2422 68.4316 34.1543 69.4512 33.8379 70.4531C35.5781 70.9101 37.1601 71.5254 38.5312 72.2988C39.3047 72.7207 40.0254 73.2305 40.6582 73.7578C42.2402 73.3887 43.5761 72.8613 44.5254 72.2285V75.8496C47.3554 74.5137 48.6562 72.8789 48.6562 71.5781C48.6562 70.2598 47.3554 68.625 44.5078 67.2891C41.6777 65.9707 37.5996 65.0742 33.0644 65.0566ZM52.7168 65.9355C52.6992 66.0059 52.6992 66.0937 52.6992 66.1816C52.6992 67.7109 54.0351 69.4512 56.8828 70.8926C59.7304 72.3164 63.8437 73.2656 68.4316 73.2656C70.7519 73.2656 72.9492 73.0195 74.9355 72.5976V67.8691C72.334 68.5723 69.3984 68.959 66.3047 68.959C61.2773 68.959 56.7246 67.957 53.2793 66.2344C53.0859 66.1289 52.8926 66.0234 52.7168 65.9355ZM53.209 72.4922C52.8574 73.0723 52.6992 73.6348 52.6992 74.1797C52.6992 75.709 54.0351 77.4492 56.8828 78.8906C59.7304 80.3144 63.8437 81.2637 68.4316 81.2637C70.7519 81.2637 72.9492 81.0176 74.9355 80.5957V75.9551C72.8965 76.3418 70.7168 76.5527 68.4316 76.5527C63.4043 76.5527 58.8515 75.5508 55.4062 73.8105C54.6152 73.4238 53.8769 72.9844 53.209 72.4922ZM83.6367 72.4922C82.6172 73.1777 81.7207 73.7226 80.7011 74.1621V78.4863C83.039 77.1504 84.1465 75.5684 84.1465 74.1797C84.1465 73.6348 83.9883 73.0723 83.6367 72.4922ZM32.2031 73.4414C31.5879 74.2148 30.8672 74.9531 30.0586 75.6211C27.3164 77.9238 23.4492 79.7871 18.9844 80.8242C17.3918 81.1934 15.8097 81.4219 14.291 81.5449C14.8535 82.4766 15.8431 83.3906 17.2916 84.1992C19.6875 85.5527 23.2031 86.4668 27.1054 86.4668C28.8808 86.4668 30.5683 86.2734 32.1152 85.9394V82.2832C34.541 81.9141 36.5801 81.2461 37.8808 80.3848V83.6191C39.6386 82.3887 40.4824 81 40.4824 79.6816C40.4824 78.1523 39.3398 76.5176 36.9316 75.1641C35.6308 74.4434 34.0136 73.8457 32.2031 73.4414Z" fill="#E6502C"/>
</svg>
