<svg width="90" height="90" viewBox="0 0 90 90" fill="none" xmlns="http://www.w3.org/2000/svg">
<g clip-path="url(#clip0_467_464)">
<g filter="url(#filter0_d_467_464)">
<path fill-rule="evenodd" clip-rule="evenodd" d="M10.2131 4.68937C14.2762 3.79125 21.8438 2.8125 35.625 2.8125C49.4062 2.8125 56.9738 3.79125 61.0369 4.68937C64.8769 5.53875 67.0444 8.76375 67.4381 12.1612C67.6556 14.0306 67.8994 16.4887 68.0925 19.38C65.5975 18.6298 63.0909 17.9185 60.5737 17.2462C47.0438 13.6219 39.0469 12.5062 34.3312 12.2962C27.5138 11.9962 22.6838 16.4925 20.7375 21.4031C18.515 27.0329 16.6151 32.7847 15.0469 38.6306C13.3958 44.7728 13.0275 51.1892 13.965 57.48C6.8175 50.1731 2.8125 40.1156 2.8125 29.625C2.8125 22.2412 3.36937 15.975 3.81187 12.1612C4.20562 8.76375 6.375 5.54062 10.2131 4.68937ZM59.115 22.68C45.8025 19.1119 38.2406 18.0994 34.0837 17.9175C30.1537 17.7431 27.2269 20.2969 25.9669 23.475C23.8244 28.9033 21.9927 34.4491 20.4806 40.0856C16.725 54.1031 20.5856 69.3037 31.455 79.17C34.8075 82.215 38.6475 85.1344 42.1312 86.0681C45.615 87.0019 50.4 86.3925 54.825 85.4306C69.1706 82.3219 80.115 71.0869 83.8688 57.0712C85.3785 51.434 86.566 45.7154 87.4256 39.9431C87.9244 36.5606 86.6663 32.8837 83.175 31.0706C79.485 29.1506 72.4294 26.2462 59.115 22.68ZM60.9 46.3425C59.4862 47.0925 57.8625 47.4937 56.6963 45.9637C55.7175 44.6831 56.0644 42.8419 57.345 41.9325C57.6363 41.7247 57.9421 41.5379 58.26 41.3737C59.0263 40.9674 59.84 40.6575 60.6825 40.4512C62.7731 39.9375 65.6194 39.9225 68.6663 41.6812C71.7131 43.44 73.1231 45.9131 73.7213 47.9794C74.0137 48.9881 74.1112 49.8844 74.1337 50.5406C74.1525 51.0356 74.1281 51.405 74.1075 51.6094C73.9613 53.175 72.54 54.3956 70.9406 54.1894C69.0337 53.9419 68.5687 52.3369 68.5125 50.7375C68.4978 50.3335 68.4329 49.933 68.3194 49.545C68.0569 48.6412 67.4456 47.4712 65.8538 46.5525C64.26 45.6337 62.9419 45.6881 62.0288 45.9131C61.6362 46.0083 61.2571 46.1538 60.9 46.3425ZM51.0263 40.2394C51.6788 41.6644 51.06 43.4344 49.5713 44.055C47.7956 44.7956 46.59 43.6369 45.7425 42.2794C45.5262 41.9388 45.27 41.6254 44.9794 41.3456C44.3006 40.6931 43.1869 39.9862 41.3475 39.9862C39.5081 39.9862 38.3944 40.6931 37.7137 41.3456C37.4237 41.6255 37.1682 41.9389 36.9525 42.2794C36.8917 42.3767 36.8354 42.4768 36.7837 42.5794C36.4895 43.257 35.9404 43.7916 35.2552 44.0677C34.57 44.3438 33.8037 44.3392 33.1219 44.055C31.6331 43.4362 31.0144 41.6662 31.6687 40.2394C31.6975 40.1756 31.735 40.0975 31.7813 40.005C32.3113 38.9959 32.9994 38.078 33.8194 37.2862C35.3719 35.7975 37.83 34.3612 41.3475 34.3612C44.865 34.3612 47.3231 35.7975 48.8756 37.2862C49.6331 38.0137 50.1637 38.7412 50.5125 39.2981C50.775 39.7181 50.94 40.0519 51.0244 40.2394M36.0806 53.625C36.4462 53.5711 36.8188 53.5897 37.1771 53.6798C37.5354 53.77 37.8725 53.9298 38.169 54.1502C38.4656 54.3707 38.7158 54.6474 38.9053 54.9646C39.0949 55.2818 39.2201 55.6332 39.2738 55.9987C39.6525 58.5806 40.7962 61.455 42.3525 63.8025C43.9688 66.2344 45.6975 67.6087 46.9837 67.9538C48.27 68.2987 50.4562 67.9725 53.0719 66.6731C55.5938 65.4206 58.0219 63.5025 59.6419 61.455C60.1079 60.8793 60.7821 60.5106 61.5183 60.4291C62.2544 60.3475 62.993 60.5596 63.5737 61.0193C64.1544 61.4791 64.5304 62.1493 64.6199 62.8845C64.7094 63.6197 64.5053 64.3606 64.0519 64.9462C61.8694 67.7044 58.7644 70.1269 55.575 71.7112C52.4794 73.2487 48.7687 74.2556 45.5287 73.3875C42.2887 72.5194 39.5794 69.7931 37.6669 66.9131C35.6981 63.9469 34.2206 60.2962 33.7088 56.8162C33.6004 56.0783 33.7896 55.3275 34.2347 54.729C34.6799 54.1306 35.3427 53.7334 36.0806 53.625Z" fill="#1E293B"/>
</g>
</g>
<defs>
<filter id="filter0_d_467_464" x="0.8125" y="0.8125" width="92.7178" height="91.72" filterUnits="userSpaceOnUse" color-interpolation-filters="sRGB">
<feFlood flood-opacity="0" result="BackgroundImageFix"/>
<feColorMatrix in="SourceAlpha" type="matrix" values="0 0 0 0 0 0 0 0 0 0 0 0 0 0 0 0 0 0 127 0" result="hardAlpha"/>
<feOffset dx="2" dy="2"/>
<feGaussianBlur stdDeviation="2"/>
<feComposite in2="hardAlpha" operator="out"/>
<feColorMatrix type="matrix" values="0 0 0 0 0 0 0 0 0 0 0 0 0 0 0 0 0 0 0.25 0"/>
<feBlend mode="normal" in2="BackgroundImageFix" result="effect1_dropShadow_467_464"/>
<feBlend mode="normal" in="SourceGraphic" in2="effect1_dropShadow_467_464" result="shape"/>
</filter>
<clipPath id="clip0_467_464">
<rect width="90" height="90" fill="white"/>
</clipPath>
</defs>
</svg>
