<svg width="90" height="90" viewBox="0 0 90 90" fill="none" xmlns="http://www.w3.org/2000/svg">
<g clip-path="url(#clip0_524_980)">
<g filter="url(#filter0_d_524_980)">
<path d="M33.0971 29.7822C28.0621 29.7689 22.3906 30.1739 15.7902 31.1903C15.0112 31.2992 7.50531 35.5807 5.48172 38.5358C3.45812 41.491 2.7659 47.1162 2.7659 47.1162C2.21957 49.4198 2.55144 53.2274 2.70385 53.5976C2.90951 54.3992 4.07142 55.0719 6.06707 55.5583C6.2998 51.8569 9.36719 48.9726 13.0762 48.9681C16.9595 48.9681 20.1074 52.1163 20.1074 55.9993C20.1049 56.3094 20.0819 56.619 20.0385 56.926C20.1422 56.9274 20.26 56.9303 20.3584 56.9313L62.4169 57.2811C62.3372 56.8585 62.2964 56.4294 62.2951 55.9993C62.2951 52.1163 65.4433 48.9681 69.3263 48.9681C73.2097 48.9681 76.3576 52.1163 76.3576 55.9993C76.3576 56.4683 76.3108 56.9362 76.2177 57.3957L87.1488 57.4866C87.3805 53.4767 88.3547 49.2653 85.9141 45.7585C84.9551 44.3803 80.3014 41.8846 68.5065 40.0175C62.4125 36.9571 56.465 33.4872 49.988 31.4987C44.994 30.5082 39.5712 29.7993 33.0971 29.7822ZM30.0742 31.8888C31.1286 31.8965 32.0957 31.9398 32.8892 32.0312L34.1701 40.5306C26.8875 39.6353 19.4665 38.832 15.5436 35.6966C15.6051 34.7298 16.9428 33.3302 18.4451 32.7951C19.2958 32.4921 25.5057 31.8554 30.0744 31.8888H30.0742ZM36.1606 31.95C40.5573 31.9964 47.0647 32.4228 51.5419 34.4004C53.6867 35.3935 57.7248 37.7181 60.4253 39.7705L59.3091 41.6223C51.978 41.2919 42.2077 40.8835 38.1978 40.4305L36.1606 31.95ZM13.0762 51.7806C11.9573 51.7806 10.8842 52.225 10.0931 53.0162C9.30189 53.8074 8.85742 54.8804 8.85742 55.9993C8.85742 57.1182 9.30189 58.1912 10.0931 58.9824C10.8842 59.7736 11.9573 60.2181 13.0762 60.2181C14.1951 60.2181 15.2681 59.7736 16.0593 58.9824C16.8504 58.1912 17.2949 57.1182 17.2949 55.9993C17.2949 54.8804 16.8504 53.8074 16.0593 53.0162C15.2681 52.225 14.1951 51.7806 13.0762 51.7806ZM69.3262 51.7806C68.2073 51.7806 67.1342 52.225 66.3431 53.0162C65.5519 53.8074 65.1074 54.8804 65.1074 55.9993C65.1074 57.1182 65.5519 58.1912 66.3431 58.9824C67.1342 59.7736 68.2073 60.2181 69.3262 60.2181C70.4451 60.2181 71.5181 59.7736 72.3093 58.9824C73.1004 58.1912 73.5449 57.1182 73.5449 55.9993C73.5449 54.8804 73.1004 53.8074 72.3093 53.0162C71.5181 52.225 70.4451 51.7806 69.3262 51.7806Z" fill="#1E293B"/>
</g>
</g>
<defs>
<filter id="filter0_d_524_980" x="0.463867" y="27.7819" width="93.0723" height="38.4362" filterUnits="userSpaceOnUse" color-interpolation-filters="sRGB">
<feFlood flood-opacity="0" result="BackgroundImageFix"/>
<feColorMatrix in="SourceAlpha" type="matrix" values="0 0 0 0 0 0 0 0 0 0 0 0 0 0 0 0 0 0 127 0" result="hardAlpha"/>
<feOffset dx="2" dy="2"/>
<feGaussianBlur stdDeviation="2"/>
<feComposite in2="hardAlpha" operator="out"/>
<feColorMatrix type="matrix" values="0 0 0 0 0 0 0 0 0 0 0 0 0 0 0 0 0 0 0.25 0"/>
<feBlend mode="normal" in2="BackgroundImageFix" result="effect1_dropShadow_524_980"/>
<feBlend mode="normal" in="SourceGraphic" in2="effect1_dropShadow_524_980" result="shape"/>
</filter>
<clipPath id="clip0_524_980">
<rect width="90" height="90" fill="white"/>
</clipPath>
</defs>
</svg>
