<svg width="70" height="70" viewBox="0 0 70 70" fill="none" xmlns="http://www.w3.org/2000/svg">
<g clip-path="url(#clip0_538_641)">
<g filter="url(#filter0_d_538_641)">
<path d="M27.3103 43.6209C27.3104 43.5534 27.2973 43.4866 27.2716 43.4241C27.2459 43.3617 27.2081 43.305 27.1605 43.2571C27.1128 43.2093 27.0563 43.1713 26.9939 43.1453C26.9316 43.1194 26.8648 43.1059 26.7973 43.1058H24.7465C24.679 43.1059 24.6122 43.1194 24.5499 43.1453C24.4876 43.1713 24.431 43.2093 24.3833 43.2571C24.3357 43.305 24.298 43.3617 24.2723 43.4241C24.2466 43.4866 24.2334 43.5534 24.2336 43.6209V45.6794C24.2336 45.9638 24.4643 46.1945 24.7465 46.1945H26.7973C26.8648 46.1944 26.9316 46.181 26.9939 46.155C27.0563 46.129 27.1128 46.091 27.1605 46.0432C27.2081 45.9954 27.2459 45.9386 27.2716 45.8762C27.2973 45.8138 27.3104 45.7469 27.3103 45.6794V43.6209ZM29.874 46.1935H27.8232C27.7557 46.1936 27.6889 46.207 27.6266 46.233C27.5643 46.259 27.5077 46.297 27.4601 46.3448C27.4124 46.3926 27.3747 46.4494 27.349 46.5118C27.3233 46.5742 27.3101 46.6411 27.3103 46.7086V48.7681C27.3103 49.0514 27.5411 49.2833 27.8232 49.2833H29.874C29.9415 49.2831 30.0083 49.2697 30.0707 49.2437C30.133 49.2178 30.1896 49.1798 30.2372 49.132C30.2848 49.0841 30.3226 49.0274 30.3483 48.9649C30.374 48.9025 30.3871 48.8356 30.387 48.7681V46.7086C30.3864 46.5725 30.3323 46.4422 30.2362 46.3457C30.1402 46.2493 30.0101 46.1946 29.874 46.1935ZM33.4626 43.6209C33.4628 43.5534 33.4496 43.4866 33.4239 43.4241C33.3982 43.3617 33.3605 43.305 33.3128 43.2571C33.2652 43.2093 33.2086 43.1713 33.1463 43.1453C33.084 43.1194 33.0172 43.1059 32.9496 43.1058H30.8989C30.8314 43.1059 30.7645 43.1194 30.7022 43.1453C30.6399 43.1713 30.5833 43.2093 30.5357 43.2571C30.4881 43.305 30.4503 43.3617 30.4246 43.4241C30.3989 43.4866 30.3858 43.5534 30.3859 43.6209V45.6794C30.3859 45.9638 30.6167 46.1945 30.8989 46.1945H32.9496C33.0172 46.1944 33.084 46.181 33.1463 46.155C33.2086 46.129 33.2652 46.091 33.3128 46.0432C33.3605 45.9954 33.3982 45.9386 33.4239 45.8762C33.4496 45.8138 33.4628 45.7469 33.4626 45.6794V43.6209ZM36.0264 46.1935H33.9756C33.9081 46.1936 33.8413 46.207 33.7789 46.233C33.7166 46.259 33.66 46.297 33.6124 46.3448C33.5648 46.3926 33.527 46.4494 33.5013 46.5118C33.4756 46.5742 33.4625 46.6411 33.4626 46.7086V48.7681C33.4626 49.0514 33.6934 49.2833 33.9756 49.2833H36.0264C36.0939 49.2831 36.1607 49.2697 36.223 49.2437C36.2853 49.2178 36.3419 49.1798 36.3895 49.132C36.4372 49.0841 36.4749 49.0274 36.5006 48.9649C36.5263 48.9025 36.5395 48.8356 36.5393 48.7681V46.7086C36.5388 46.5725 36.4846 46.4422 36.3886 46.3457C36.2926 46.2493 36.1624 46.1946 36.0264 46.1935ZM39.615 43.6209C39.6151 43.5534 39.6019 43.4866 39.5762 43.4241C39.5505 43.3617 39.5128 43.305 39.4652 43.2571C39.4175 43.2093 39.3609 43.1713 39.2986 43.1453C39.2363 43.1194 39.1695 43.1059 39.102 43.1058H37.0512C36.9837 43.1059 36.9169 43.1194 36.8546 43.1453C36.7923 43.1713 36.7357 43.2093 36.688 43.2571C36.6404 43.305 36.6027 43.3617 36.577 43.4241C36.5513 43.4866 36.5381 43.5534 36.5382 43.6209V45.6794C36.5382 45.9638 36.769 46.1945 37.0512 46.1945H39.102C39.1695 46.1944 39.2363 46.181 39.2986 46.155C39.3609 46.129 39.4175 46.091 39.4652 46.0432C39.5128 45.9954 39.5505 45.9386 39.5762 45.8762C39.6019 45.8138 39.6151 45.7469 39.615 45.6794V43.6209ZM42.1787 46.1935H40.1279C40.0604 46.1936 39.9936 46.207 39.9313 46.233C39.869 46.259 39.8124 46.297 39.7648 46.3448C39.7171 46.3926 39.6794 46.4494 39.6537 46.5118C39.628 46.5742 39.6148 46.6411 39.615 46.7086V48.7681C39.615 49.0514 39.8457 49.2833 40.1279 49.2833H42.1787C42.2462 49.2831 42.313 49.2697 42.3754 49.2437C42.4377 49.2178 42.4943 49.1798 42.5419 49.132C42.5895 49.0841 42.6273 49.0274 42.653 48.9649C42.6787 48.9025 42.6918 48.8356 42.6917 48.7681V46.7086C42.6911 46.5725 42.6369 46.4422 42.5409 46.3457C42.4449 46.2493 42.3148 46.1946 42.1787 46.1935ZM45.2543 43.1058H43.2036C43.136 43.1059 43.0692 43.1194 43.0069 43.1453C42.9446 43.1713 42.888 43.2093 42.8404 43.2571C42.7927 43.305 42.755 43.3617 42.7293 43.4241C42.7036 43.4866 42.6904 43.5534 42.6906 43.6209V45.6794C42.6906 45.9638 42.9214 46.1945 43.2036 46.1945H45.2543C45.3218 46.1944 45.3887 46.181 45.451 46.155C45.5133 46.129 45.5699 46.091 45.6175 46.0432C45.6651 45.9954 45.7029 45.9386 45.7286 45.8762C45.7543 45.8138 45.7675 45.7469 45.7673 45.6794V43.6209C45.7675 43.5534 45.7543 43.4866 45.7286 43.4241C45.7029 43.3617 45.6651 43.305 45.6175 43.2571C45.5699 43.2093 45.5133 43.1713 45.451 43.1453C45.3887 43.1194 45.3218 43.1059 45.2543 43.1058ZM50.8062 27.1141H42.1459C41.599 27.1141 41.1528 27.6238 41.1528 28.245V37.1755C41.1528 37.7967 41.599 38.3064 42.1459 38.3064H52.6448C53.1906 38.3064 53.5471 37.8088 53.4378 37.1984L51.9951 28.2231C51.8868 27.6128 51.3531 27.1141 50.8062 27.1141ZM37.0621 38.3064C37.62 38.3064 38.0771 37.7967 38.0771 37.1755V28.245C38.0771 27.6238 37.62 27.1141 37.0621 27.1141H29.4289C28.8711 27.1141 28.1984 27.5636 27.937 28.1105L23.8321 37.3188C23.5631 37.8613 23.7971 38.3064 24.3561 38.3064H37.0621ZM16.4264 58.0005L15.2243 55.9355C14.8371 55.9388 14.4292 56.2024 14.1448 56.6924C13.8593 57.1813 13.8331 57.6647 14.0234 57.9994L16.4264 58.0005ZM16.4253 59.3097H14.0245C13.8331 59.6444 13.8593 60.1278 14.1448 60.6178C14.4292 61.1067 14.8371 61.3714 15.2243 61.3747L16.4253 59.3097ZM16.3673 62.0299C16.5642 62.3613 16.9995 62.58 17.5693 62.58C18.1392 62.58 18.5734 62.3613 18.7714 62.0299L17.5693 59.9649L16.3673 62.0299ZM18.7112 59.3097L19.9132 61.3747C20.3004 61.3714 20.7084 61.1078 20.9928 60.6189C21.2782 60.1289 21.3045 59.6455 21.1142 59.3108L18.7112 59.3097ZM19.9143 55.9355L18.7123 58.0016H21.1142C21.3045 57.6658 21.2793 57.1834 20.9928 56.6945C20.7084 56.2045 20.3015 55.9399 19.9143 55.9355ZM18.7703 55.2814C18.5734 54.95 18.1381 54.7313 17.5693 54.7313C17.0006 54.7313 16.5653 54.95 16.3684 55.2814L17.5693 57.3453L18.7703 55.2814Z" fill="#1E293B"/>
</g>
<g filter="url(#filter1_d_538_641)">
<path d="M66.1434 53.5686H65.7617V44.4117C65.7617 42.7941 64.4011 41.9289 63.6355 41.4269C62.7802 40.8647 57.6188 38.1839 57.3606 37.1098L54.9719 26.0969C54.7127 25.0217 53.5095 24.0625 52.2922 24.0625H40.0312V23.5462C40.0312 22.9797 39.4931 22.517 38.8369 22.517H38.7942L37.9137 17.0778C37.6447 15.972 36.6702 15.82 36.0161 15.7992C35.8586 15.2534 35.5556 15.3147 35.257 15.3147C34.9562 15.3147 34.6544 15.2534 34.4969 15.7992C33.8428 15.8211 32.8672 15.9786 32.5916 17.1205L31.7188 22.517H31.6772C31.0209 22.517 30.4828 22.9808 30.4828 23.5462V24.0625H28.2756C27.0561 24.0625 25.6134 25.1147 25.0709 26.0969C25.0709 26.0969 21.8859 33.1898 20.3284 35.2395C19.518 36.307 17.3698 37.9947 16.217 38.6761C14.5031 39.6889 10.862 41.3448 9.1875 42.4233C8.33656 42.9701 6.74734 44.3581 6.475 45.4278L4.71297 53.5675H3.85656C2.71469 53.5686 2.1875 54.4261 2.1875 55.9606C2.1875 56.2964 2.34609 58.17 2.41062 58.4959C2.67094 59.8008 3.75375 59.6684 4.89453 59.6684H8.4C8.90859 64.248 12.8155 67.8125 17.5689 67.8125C22.3223 67.8125 26.2292 64.248 26.7378 59.6695H43.2633C43.7719 64.248 47.6787 67.8125 52.4322 67.8125C57.1856 67.8125 61.0925 64.248 61.6011 59.6695H65.1066C66.2473 59.6695 67.3291 59.8019 67.5905 58.497C67.6539 58.17 67.8125 56.2964 67.8125 55.9606C67.8125 54.4261 67.2853 53.5686 66.1434 53.5686ZM36.843 17.2944L37.5977 21.9701H36.4197L36.1386 16.9039C36.6811 16.9455 36.7883 17.0789 36.843 17.2944ZM33.6612 17.337C33.7225 17.0866 33.8308 16.9476 34.3733 16.9039L34.0922 21.9701H32.9131L33.6612 17.337ZM17.5689 63.8881C14.6562 63.8881 12.2948 61.5431 12.2948 58.6556C12.2948 55.7681 14.6562 53.4231 17.5689 53.4231C20.4816 53.4231 22.843 55.7681 22.843 58.6556C22.843 61.5431 20.4805 63.8881 17.5689 63.8881ZM52.4322 63.8881C49.5206 63.8881 47.1581 61.5431 47.1581 58.6556C47.1581 55.7681 49.5206 53.4231 52.4322 53.4231C55.3438 53.4231 57.7062 55.7681 57.7062 58.6556C57.7062 61.5431 55.3438 63.8881 52.4322 63.8881ZM63.5742 45.4278H62.6216C62.2191 45.4278 61.7706 45.8861 61.6241 46.4461L61.0914 48.4805C60.9448 49.0405 61.1559 49.4987 61.5584 49.4987H63.5753V53.5686H60.1059C58.45 51.1142 55.6325 49.4987 52.4322 49.4987C49.2319 49.4987 46.4144 51.1142 44.7584 53.5686H25.2416C23.5856 51.1142 20.7692 49.4987 17.5678 49.4987C14.3664 49.4987 11.55 51.1142 9.89406 53.5686H6.94969L7.59391 50.5925H8.91625C9.40953 50.5925 9.96078 50.1342 10.1402 49.5742L10.7942 46.4461C10.9736 45.8861 10.7166 45.4278 10.2222 45.4278H9.01797C9.38219 45.0319 9.90391 44.5637 10.3709 44.263C11.2077 43.7248 12.7597 42.9406 14.128 42.2483C15.353 41.6303 16.5091 41.0451 17.3305 40.5595C18.5938 39.8125 21.0087 37.9608 22.0697 36.5641C23.6698 34.4597 26.507 28.2362 27.0167 27.1031C27.2716 26.7116 27.9803 26.2576 28.2745 26.2511H52.2922C52.4781 26.2511 52.7778 26.4698 52.8467 26.6175L55.2344 37.6195C55.592 39.1114 57.1747 40.2434 61.4556 42.6847C61.8537 42.9111 62.3044 43.167 62.4772 43.2819C63.1892 43.7489 63.5764 44.0683 63.5764 44.4117V45.4278H63.5742Z" fill="#1E293B"/>
</g>
<g filter="url(#filter2_d_538_641)">
<path d="M51.2897 58.0005L50.0876 55.9355C49.7004 55.9388 49.2925 56.2024 49.0081 56.6924C48.7226 57.1813 48.6964 57.6647 48.8867 57.9994L51.2897 58.0005ZM51.2886 59.3097H48.8878C48.6964 59.6444 48.7226 60.1278 49.0081 60.6178C49.2925 61.1067 49.7004 61.3714 50.0876 61.3747L51.2886 59.3097ZM51.2306 62.0299C51.4286 62.3613 51.8617 62.58 52.4326 62.58C53.0036 62.58 53.4367 62.3613 53.6346 62.0299L52.4326 59.9649L51.2306 62.0299ZM53.5745 59.3097L54.7765 61.3747C55.1637 61.3714 55.5717 61.1078 55.8561 60.6189C56.1415 60.1289 56.1678 59.6455 55.9775 59.3108L53.5745 59.3097ZM54.7776 55.9355L53.5745 58.0016H55.9775C56.1678 57.6658 56.1415 57.1834 55.8561 56.6945C55.5728 56.2045 55.1648 55.9399 54.7776 55.9355ZM53.6325 55.2814C53.4356 54.95 53.0014 54.7313 52.4315 54.7313C51.8617 54.7313 51.4275 54.95 51.2306 55.2814L52.4315 57.3453L53.6325 55.2814Z" fill="#1E293B"/>
</g>
</g>
<defs>
<filter id="filter0_d_538_641" x="11.9014" y="25.1141" width="47.5557" height="43.4659" filterUnits="userSpaceOnUse" color-interpolation-filters="sRGB">
<feFlood flood-opacity="0" result="BackgroundImageFix"/>
<feColorMatrix in="SourceAlpha" type="matrix" values="0 0 0 0 0 0 0 0 0 0 0 0 0 0 0 0 0 0 127 0" result="hardAlpha"/>
<feOffset dx="2" dy="2"/>
<feGaussianBlur stdDeviation="2"/>
<feComposite in2="hardAlpha" operator="out"/>
<feColorMatrix type="matrix" values="0 0 0 0 0 0 0 0 0 0 0 0 0 0 0 0 0 0 0.25 0"/>
<feBlend mode="normal" in2="BackgroundImageFix" result="effect1_dropShadow_538_641"/>
<feBlend mode="normal" in="SourceGraphic" in2="effect1_dropShadow_538_641" result="shape"/>
</filter>
<filter id="filter1_d_538_641" x="0.1875" y="13.3126" width="73.625" height="60.4999" filterUnits="userSpaceOnUse" color-interpolation-filters="sRGB">
<feFlood flood-opacity="0" result="BackgroundImageFix"/>
<feColorMatrix in="SourceAlpha" type="matrix" values="0 0 0 0 0 0 0 0 0 0 0 0 0 0 0 0 0 0 127 0" result="hardAlpha"/>
<feOffset dx="2" dy="2"/>
<feGaussianBlur stdDeviation="2"/>
<feComposite in2="hardAlpha" operator="out"/>
<feColorMatrix type="matrix" values="0 0 0 0 0 0 0 0 0 0 0 0 0 0 0 0 0 0 0.25 0"/>
<feBlend mode="normal" in2="BackgroundImageFix" result="effect1_dropShadow_538_641"/>
<feBlend mode="normal" in="SourceGraphic" in2="effect1_dropShadow_538_641" result="shape"/>
</filter>
<filter id="filter2_d_538_641" x="46.7646" y="52.7313" width="15.335" height="15.8488" filterUnits="userSpaceOnUse" color-interpolation-filters="sRGB">
<feFlood flood-opacity="0" result="BackgroundImageFix"/>
<feColorMatrix in="SourceAlpha" type="matrix" values="0 0 0 0 0 0 0 0 0 0 0 0 0 0 0 0 0 0 127 0" result="hardAlpha"/>
<feOffset dx="2" dy="2"/>
<feGaussianBlur stdDeviation="2"/>
<feComposite in2="hardAlpha" operator="out"/>
<feColorMatrix type="matrix" values="0 0 0 0 0 0 0 0 0 0 0 0 0 0 0 0 0 0 0.25 0"/>
<feBlend mode="normal" in2="BackgroundImageFix" result="effect1_dropShadow_538_641"/>
<feBlend mode="normal" in="SourceGraphic" in2="effect1_dropShadow_538_641" result="shape"/>
</filter>
<clipPath id="clip0_538_641">
<rect width="70" height="70" fill="white"/>
</clipPath>
</defs>
</svg>
