<svg width="90" height="90" viewBox="0 0 90 90" fill="none" xmlns="http://www.w3.org/2000/svg">
<g clip-path="url(#clip0_464_501)">
<g filter="url(#filter0_d_464_501)">
<path d="M87.1875 29.0391L81.7791 24.4744L79.3463 18.1266L72.1772 10.343L68.4577 16.8581L66.0938 17.4516L61.3617 23.6292L58.1175 21.6816L55.8844 16.0973L51.7584 18.1266L47.6353 22.2736L43.5797 16.5192L38.1178 13.1344L36.6188 12.2063L31.9514 2.8125L19.4442 14.8261L2.8125 22.275V53.1605L14.5758 42.2452L16.8075 30.8222L26.6794 23.3733L24.3127 22.5267L25.733 15.5883L21.7434 23.3719L17.6864 25.4869L19.7142 19.8183L17.7525 21.0867L18.0689 17.7511L20.3048 16.7498L20.6395 16.6008L20.9039 16.3462L31.3397 6.3225L32.0752 7.8075L32.0836 8.14219L29.5875 10.343L28.3022 14.7431L32.4281 12.3722L34.1044 11.8842L34.7287 13.1428L34.9945 13.6814L35.505 13.9992L37.8183 15.4336L37.7002 16.3505L34.522 21.0881C34.522 21.0881 29.1769 29.2022 29.1769 36.2194V73.9223H28.3359V72.1294H26.1183V79.3083H28.3359V77.5153H31.9261C31.9261 78.3253 32.0934 79.0959 32.3761 79.8061H2.8125V87.1875H8.08594V84.5508H13.3594V87.1875H18.6328V84.5508H23.9062V87.1875H29.1797V84.5508H34.4531V87.1875H39.7266V84.5508H45V87.1875H50.2734V84.5508H55.5469V87.1875H60.8203V84.5508H66.0938V87.1875H71.3672V84.5508H76.6406V87.1875H81.9141V84.5508H87.1875V81.9141L85.5886 80.3166C86.0231 79.4714 86.2917 78.5292 86.2917 77.5139H87.1875V72.128H31.9908V67.1625H54.4683L58.0584 70.7527H73.9069L77.4998 67.1625H87.1875V63.5723H76.012L72.4191 67.1625H59.5434L55.9533 63.5723H31.9908V39.8123H87.1875V29.0391ZM14.5758 22.8656L13.1569 32.0906L9.49219 21.593L17.1 18.187L14.5758 22.8656ZM78.0412 77.5139C78.061 78.0479 78.2869 78.5534 78.6717 78.9241C79.0564 79.2949 79.5699 79.5021 80.1042 79.5021C80.6385 79.5021 81.152 79.2949 81.5368 78.9241C81.9215 78.5534 82.1475 78.0479 82.1672 77.5139H84.2302C84.2294 78.6072 83.7948 79.6555 83.0217 80.4286C82.2486 81.2017 81.2003 81.6363 80.107 81.637C79.0134 81.6367 77.9646 81.2022 77.191 80.4292C76.4174 79.6561 75.9822 78.6076 75.9811 77.5139H78.0412ZM58.043 77.5139H73.9181C73.9181 78.3239 74.0855 79.0945 74.3681 79.8047H57.5916C57.886 79.0767 58.0392 78.2992 58.043 77.5139ZM49.7953 77.5139C49.7953 78.6488 50.7206 79.5741 51.8583 79.5741C52.9931 79.5741 53.9184 78.6488 53.9184 77.5139H55.9814C55.9807 78.6072 55.546 79.6555 54.7729 80.4286C53.9999 81.2017 52.9516 81.6363 51.8583 81.637C50.7646 81.6367 49.7158 81.2022 48.9422 80.4292C48.1686 79.6561 47.7335 78.6076 47.7323 77.5139H49.7953ZM44.2969 77.5139H45.6736C45.6736 78.3239 45.8381 79.0945 46.1222 79.8047H43.8483C44.1418 79.0765 44.294 78.299 44.2969 77.5139ZM36.0492 77.5139C36.0689 78.0479 36.2949 78.5534 36.6796 78.9241C37.0644 79.2949 37.5779 79.5021 38.1122 79.5021C38.6465 79.5021 39.16 79.2949 39.5447 78.9241C39.9295 78.5534 40.1554 78.0479 40.1752 77.5139H42.2353C42.2353 79.7878 40.3875 81.637 38.1122 81.637C35.8369 81.637 33.9891 79.7892 33.9891 77.5139H36.0492ZM61.2042 25.9945L61.8905 26.4066L63.0352 24.9117L67.32 19.3191L68.9709 18.9042L69.8442 18.6848L70.2886 17.9044L72.5794 13.8938L73.8619 15.2873L74.1361 16.0959L72.5133 17.4502L72.1758 25.3195L67.7812 27.3487V29.0377H61.0552L61.0228 28.703L61.2042 25.9945ZM49.1316 23.7614L53.01 19.8647L54.7734 18.997L55.5567 20.9531L55.4133 23.0358L51.6937 28.7044L51.6656 29.0391H48.9248L48.1148 24.7852L49.1316 23.7614ZM84.375 36.9998H31.9908V36.2194C31.9926 35.0614 32.4537 33.9515 33.2727 33.1329C34.0918 32.3144 35.202 31.8541 36.36 31.853H84.375V36.9998Z" fill="#1E293B"/>
</g>
<g filter="url(#filter1_d_464_501)">
<path d="M34.6765 43.4011C34.3115 43.4015 33.9616 43.5467 33.7034 43.8048C33.4453 44.0629 33.3002 44.4128 33.2998 44.7778V54.5963C33.2998 55.3542 33.9171 55.9702 34.6765 55.9702H42.6992C43.0632 55.9691 43.412 55.824 43.6694 55.5665C43.9269 55.3091 44.072 54.9603 44.0731 54.5963V44.7778C44.0727 44.4133 43.9279 44.0638 43.6704 43.8058C43.4129 43.5477 43.0637 43.4022 42.6992 43.4011H34.6765ZM42.5529 53.1113C42.5531 53.2701 42.522 53.4274 42.4614 53.5742C42.4008 53.721 42.3119 53.8544 42.1997 53.9668C42.0875 54.0793 41.9543 54.1685 41.8077 54.2295C41.661 54.2904 41.5038 54.3219 41.345 54.3221H36.0307C35.8717 54.3222 35.7142 54.2911 35.5672 54.2303C35.4202 54.1695 35.2866 54.0803 35.1742 53.9678C35.0617 53.8554 34.9725 53.7218 34.9117 53.5748C34.851 53.4279 34.8198 53.2703 34.82 53.1113V46.2614C34.82 45.5935 35.3642 45.0507 36.0307 45.0507H41.345C41.5038 45.0508 41.661 45.0823 41.8077 45.1432C41.9543 45.2042 42.0875 45.2934 42.1997 45.4059C42.3119 45.5183 42.4008 45.6517 42.4614 45.7985C42.522 45.9453 42.5531 46.1026 42.5529 46.2614V53.1113ZM48.3228 43.4011C47.9578 43.4015 47.6078 43.5467 47.3497 43.8048C47.0916 44.0629 46.9464 44.4128 46.9461 44.7778V54.5963C46.9461 55.3542 47.5634 55.9702 48.3228 55.9702H56.3454C56.7095 55.9691 57.0583 55.824 57.3157 55.5665C57.5731 55.3091 57.7182 54.9603 57.7193 54.5963V44.7778C57.719 44.4133 57.5742 44.0638 57.3167 43.8058C57.0592 43.5477 56.71 43.4022 56.3454 43.4011H48.3228ZM56.2006 53.1113C56.2008 53.2701 56.1697 53.4274 56.1091 53.5742C56.0485 53.721 55.9595 53.8544 55.8474 53.9668C55.7352 54.0793 55.602 54.1685 55.4553 54.2295C55.3087 54.2904 55.1514 54.3219 54.9926 54.3221H49.6784C49.5193 54.3222 49.3618 54.2911 49.2148 54.2303C49.0678 54.1695 48.9343 54.0803 48.8218 53.9678C48.7094 53.8554 48.6202 53.7218 48.5594 53.5748C48.4986 53.4279 48.4674 53.2703 48.4676 53.1113V46.2614C48.4676 45.5935 49.009 45.0507 49.6784 45.0507H54.9926C55.1514 45.0508 55.3087 45.0823 55.4553 45.1432C55.602 45.2042 55.7352 45.2934 55.8474 45.4059C55.9595 45.5183 56.0485 45.6517 56.1091 45.7985C56.1697 45.9453 56.2008 46.1026 56.2006 46.2614V53.1113ZM61.9704 43.4011C61.6054 43.4015 61.2555 43.5467 60.9974 43.8048C60.7392 44.0629 60.5941 44.4128 60.5937 44.7778V54.5963C60.5937 55.3542 61.2097 55.9702 61.9704 55.9702H69.9903C70.3548 55.9698 70.7043 55.825 70.9624 55.5675C71.2204 55.31 71.3659 54.9608 71.367 54.5963V44.7778C71.3666 44.4128 71.2215 44.0629 70.9634 43.8048C70.7052 43.5467 70.3553 43.4015 69.9903 43.4011H61.9704ZM69.8482 53.1113C69.8484 53.2701 69.8173 53.4274 69.7567 53.5742C69.6961 53.721 69.6072 53.8544 69.495 53.9668C69.3829 54.0793 69.2496 54.1685 69.103 54.2295C68.9563 54.2904 68.7991 54.3219 68.6403 54.3221H63.3261C63.167 54.3222 63.0095 54.2911 62.8625 54.2303C62.7155 54.1695 62.582 54.0803 62.4695 53.9678C62.357 53.8554 62.2678 53.7218 62.2071 53.5748C62.1463 53.4279 62.1151 53.2703 62.1153 53.1113V46.2614C62.1153 45.5935 62.6595 45.0507 63.3261 45.0507H68.6403C68.7991 45.0508 68.9563 45.0823 69.103 45.1432C69.2496 45.2042 69.3829 45.2934 69.495 45.4059C69.6072 45.5183 69.6961 45.6517 69.7567 45.7985C69.8173 45.9453 69.8484 46.1026 69.8482 46.2614V53.1113ZM75.6153 43.4011C75.2507 43.4022 74.9015 43.5477 74.644 43.8058C74.3865 44.0638 74.2417 44.4133 74.2414 44.7778V54.5963C74.2414 55.3542 74.8573 55.9702 75.6153 55.9702H83.6379C84.0025 55.9698 84.352 55.825 84.61 55.5675C84.868 55.31 85.0135 54.9608 85.0147 54.5963V44.7778C85.0143 44.4128 84.8691 44.0629 84.611 43.8048C84.3529 43.5467 84.0029 43.4015 83.6379 43.4011H75.6153ZM83.4959 53.1113C83.4961 53.2703 83.4649 53.4279 83.4041 53.5748C83.3433 53.7218 83.2541 53.8554 83.1417 53.9678C83.0292 54.0803 82.8957 54.1695 82.7487 54.2303C82.6017 54.2911 82.4442 54.3222 82.2851 54.3221H76.9709C76.8121 54.3219 76.6549 54.2904 76.5082 54.2295C76.3615 54.1685 76.2283 54.0793 76.1162 53.9668C76.004 53.8544 75.9151 53.721 75.8545 53.5742C75.7938 53.4274 75.7627 53.2701 75.7629 53.1113V46.2614C75.7627 46.1026 75.7938 45.9453 75.8545 45.7985C75.9151 45.6517 76.004 45.5183 76.1162 45.4059C76.2283 45.2934 76.3615 45.2042 76.5082 45.1432C76.6549 45.0823 76.8121 45.0508 76.9709 45.0507H82.2851C82.9559 45.0507 83.4959 45.5949 83.4959 46.2614V53.1113Z" fill="#1E293B"/>
</g>
</g>
<defs>
<filter id="filter0_d_464_501" x="0.8125" y="0.8125" width="92.375" height="92.375" filterUnits="userSpaceOnUse" color-interpolation-filters="sRGB">
<feFlood flood-opacity="0" result="BackgroundImageFix"/>
<feColorMatrix in="SourceAlpha" type="matrix" values="0 0 0 0 0 0 0 0 0 0 0 0 0 0 0 0 0 0 127 0" result="hardAlpha"/>
<feOffset dx="2" dy="2"/>
<feGaussianBlur stdDeviation="2"/>
<feComposite in2="hardAlpha" operator="out"/>
<feColorMatrix type="matrix" values="0 0 0 0 0 0 0 0 0 0 0 0 0 0 0 0 0 0 0.25 0"/>
<feBlend mode="normal" in2="BackgroundImageFix" result="effect1_dropShadow_464_501"/>
<feBlend mode="normal" in="SourceGraphic" in2="effect1_dropShadow_464_501" result="shape"/>
</filter>
<filter id="filter1_d_464_501" x="31.2998" y="41.4011" width="59.7148" height="20.5691" filterUnits="userSpaceOnUse" color-interpolation-filters="sRGB">
<feFlood flood-opacity="0" result="BackgroundImageFix"/>
<feColorMatrix in="SourceAlpha" type="matrix" values="0 0 0 0 0 0 0 0 0 0 0 0 0 0 0 0 0 0 127 0" result="hardAlpha"/>
<feOffset dx="2" dy="2"/>
<feGaussianBlur stdDeviation="2"/>
<feComposite in2="hardAlpha" operator="out"/>
<feColorMatrix type="matrix" values="0 0 0 0 0 0 0 0 0 0 0 0 0 0 0 0 0 0 0.25 0"/>
<feBlend mode="normal" in2="BackgroundImageFix" result="effect1_dropShadow_464_501"/>
<feBlend mode="normal" in="SourceGraphic" in2="effect1_dropShadow_464_501" result="shape"/>
</filter>
<clipPath id="clip0_464_501">
<rect width="90" height="90" fill="white"/>
</clipPath>
</defs>
</svg>
