<svg width="41" height="58" viewBox="0 0 41 58" fill="none" xmlns="http://www.w3.org/2000/svg">
<g filter="url(#filter0_d_413_596)">
<path d="M18.0417 7.83333C23.6708 7.83333 28.25 12.4125 28.25 18.0417C28.25 23.6708 23.6708 28.25 18.0417 28.25C12.4125 28.25 7.83333 23.6708 7.83333 18.0417C7.83333 12.4125 12.4125 7.83333 18.0417 7.83333ZM20.9583 33.8208C24.6452 33.1391 27.9769 31.1875 30.3746 28.305C32.7722 25.4224 34.0845 21.7911 34.0833 18.0417C34.0833 9.175 26.9083 2 18.0417 2C9.175 2 2 9.175 2 18.0417C1.99886 21.7911 3.3111 25.4224 5.70878 28.305C8.10646 31.1875 11.4381 33.1391 15.125 33.8208V39.9167H12.2083C10.6042 39.9167 9.29167 41.2292 9.29167 42.8333C9.29167 44.4375 10.6042 45.75 12.2083 45.75H15.125V48.6667C15.125 50.2708 16.4375 51.5833 18.0417 51.5833C19.6458 51.5833 20.9583 50.2708 20.9583 48.6667V45.75H23.875C25.4792 45.75 26.7917 44.4375 26.7917 42.8333C26.7917 41.2292 25.4792 39.9167 23.875 39.9167H20.9583V33.8208Z" fill="#1E293B"/>
</g>
<defs>
<filter id="filter0_d_413_596" x="0" y="0" width="40.0834" height="57.5833" filterUnits="userSpaceOnUse" color-interpolation-filters="sRGB">
<feFlood flood-opacity="0" result="BackgroundImageFix"/>
<feColorMatrix in="SourceAlpha" type="matrix" values="0 0 0 0 0 0 0 0 0 0 0 0 0 0 0 0 0 0 127 0" result="hardAlpha"/>
<feOffset dx="2" dy="2"/>
<feGaussianBlur stdDeviation="2"/>
<feComposite in2="hardAlpha" operator="out"/>
<feColorMatrix type="matrix" values="0 0 0 0 0 0 0 0 0 0 0 0 0 0 0 0 0 0 0.25 0"/>
<feBlend mode="normal" in2="BackgroundImageFix" result="effect1_dropShadow_413_596"/>
<feBlend mode="normal" in="SourceGraphic" in2="effect1_dropShadow_413_596" result="shape"/>
</filter>
</defs>
</svg>
