<svg width="95" height="95" viewBox="0 0 95 95" fill="none" xmlns="http://www.w3.org/2000/svg">
<path d="M38.8045 11.2367C41.981 4.28984 51.7779 4.14141 55.192 10.9695C56.4685 13.5227 59.6154 14.5023 62.1091 13.107L63.6529 12.2461C69.7091 8.80234 76.9826 13.9383 75.8248 20.7664L75.5279 22.518C75.0529 25.3383 77.042 27.9805 79.892 28.307L81.6435 28.5148C88.531 29.3164 91.4107 37.718 86.4529 42.557L85.1763 43.8039C83.1279 45.793 83.1873 49.118 85.2951 51.0477L86.6013 52.2352C91.7076 56.9258 89.0951 65.4164 82.2373 66.4258L80.4857 66.693C77.6654 67.1086 75.7654 69.8102 76.3295 72.6305L76.6857 74.382C78.0513 81.1805 70.956 86.5242 64.8107 83.2883L63.2373 82.457C60.7138 81.1211 57.567 82.1898 56.3795 84.8023C53.2029 91.7492 43.406 91.8977 39.992 85.0695C39.6903 84.4636 39.2687 83.9253 38.7529 83.487C38.2371 83.0488 37.6376 82.7198 36.991 82.52C36.3443 82.3201 35.6638 82.2536 34.9906 82.3244C34.3175 82.3953 33.6657 82.602 33.0748 82.932L31.531 83.793C25.5045 87.207 18.231 82.0711 19.3888 75.243L19.6857 73.4914C20.1607 70.6711 18.1717 68.0289 15.3217 67.7023L13.5701 67.4945C6.68259 66.693 3.80291 58.2914 8.76072 53.4523L10.0373 52.2055C12.0857 50.2164 12.0263 46.8914 9.91853 44.9617L8.61228 43.7742C3.50603 39.0836 6.11853 30.593 12.9763 29.5836L14.7279 29.3164C17.5482 28.9008 19.4482 26.1992 18.8842 23.3789L18.5279 21.657C17.1623 14.8586 24.2576 9.51484 30.4029 12.7508L31.9763 13.582C34.4998 14.8883 37.617 13.8195 38.8045 11.2367Z" fill="#E6502C"/>
<path d="M47.4731 80.6461C65.5113 80.6461 80.1294 66.028 80.1294 47.9898C80.1294 29.9517 65.5113 15.3336 47.4731 15.3336C29.435 15.3336 14.8169 29.9547 14.8169 47.9898C14.8169 66.025 29.438 80.6461 47.4731 80.6461Z" fill="#FF896F"/>
<path d="M31.6499 27.3273C29.6972 27.3273 27.8245 28.103 26.4438 29.4838C25.063 30.8645 24.2874 32.7372 24.2874 34.6898C24.2874 35.0835 24.131 35.4611 23.8526 35.7395C23.5742 36.0178 23.1967 36.1742 22.803 36.1742C22.4093 36.1742 22.0317 36.0178 21.7534 35.7395C21.475 35.4611 21.3186 35.0835 21.3186 34.6898C21.3186 31.9498 22.4071 29.322 24.3446 27.3845C26.282 25.4471 28.9098 24.3586 31.6499 24.3586C32.0435 24.3586 32.4211 24.515 32.6995 24.7934C32.9778 25.0717 33.1342 25.4493 33.1342 25.843C33.1342 26.2367 32.9778 26.6142 32.6995 26.8926C32.4211 27.171 32.0435 27.3273 31.6499 27.3273ZM32.3624 52.6805C32.7798 52.2635 33.3457 52.0293 33.9358 52.0293C34.5258 52.0293 35.0917 52.2635 35.5092 52.6805C37.0311 54.2038 38.8383 55.4122 40.8275 56.2367C42.8167 57.0611 44.9489 57.4855 47.1022 57.4855C49.2555 57.4855 51.3877 57.0611 53.3769 56.2367C55.366 55.4122 57.1732 54.2038 58.6952 52.6805C59.1172 52.2872 59.6755 52.0731 60.2523 52.0832C60.8292 52.0934 61.3795 52.3271 61.7875 52.735C62.1954 53.143 62.4291 53.6933 62.4393 54.2702C62.4495 54.847 62.2353 55.4053 61.842 55.8274C59.9067 57.7636 57.6088 59.2995 55.0797 60.3474C52.5506 61.3954 49.8398 61.9347 47.1022 61.9347C44.3646 61.9347 41.6538 61.3954 39.1247 60.3474C36.5956 59.2995 34.2977 57.7636 32.3624 55.8274C31.9454 55.4099 31.7112 54.844 31.7112 54.2539C31.7112 53.6639 31.9454 53.098 32.3624 52.6805ZM62.4655 24.3586C62.0718 24.3586 61.6942 24.515 61.4159 24.7934C61.1375 25.0717 60.9811 25.4493 60.9811 25.843C60.9811 26.2367 61.1375 26.6142 61.4159 26.8926C61.6942 27.171 62.0718 27.3273 62.4655 27.3273C64.4181 27.3273 66.2908 28.103 67.6715 29.4838C69.0523 30.8645 69.828 32.7372 69.828 34.6898C69.828 35.0835 69.9844 35.4611 70.2627 35.7395C70.5411 36.0178 70.9187 36.1742 71.3124 36.1742C71.706 36.1742 72.0836 36.0178 72.362 35.7395C72.6403 35.4611 72.7967 35.0835 72.7967 34.6898C72.7967 31.9498 71.7083 29.322 69.7708 27.3845C67.8333 25.4471 65.2055 24.3586 62.4655 24.3586ZM34.3811 37.6586C33.5622 37.6533 32.7608 37.8953 32.0818 38.353C31.4027 38.8106 30.8776 39.4626 30.5752 40.2236C30.4724 40.5013 30.3154 40.7557 30.1131 40.972C29.9108 41.1883 29.6675 41.362 29.3973 41.4831C29.127 41.6042 28.8354 41.6701 28.5394 41.6771C28.2434 41.6841 27.9489 41.6319 27.6733 41.5237C27.3977 41.4155 27.1464 41.2535 26.9342 41.047C26.7219 40.8405 26.553 40.5937 26.4373 40.3212C26.3216 40.0486 26.2615 39.7557 26.2603 39.4596C26.2592 39.1635 26.3172 38.8702 26.4308 38.5967C27.0601 37.0028 28.1555 35.6357 29.5738 34.6739C30.9921 33.7121 32.6674 33.2004 34.3811 33.2055C38.1603 33.2055 41.3695 35.6577 42.4947 39.0717C42.6793 39.6327 42.6336 40.2441 42.3674 40.7713C42.1013 41.2986 41.6366 41.6985 41.0756 41.8831C40.5146 42.0678 39.9033 42.022 39.376 41.7559C38.8488 41.4897 38.4489 41.0251 38.2642 40.4641C37.7269 38.8313 36.1861 37.6586 34.3811 37.6586ZM56.1658 40.2236C56.4682 39.4626 56.9933 38.8106 57.6724 38.353C58.3515 37.8953 59.1529 37.6533 59.9717 37.6586C61.7767 37.6586 63.3175 38.8283 63.8549 40.4641C64.0399 41.0251 64.4402 41.4896 64.9677 41.7554C65.4952 42.0213 66.1067 42.0667 66.6677 41.8816C67.2287 41.6966 67.6932 41.2963 67.9591 40.7688C68.2249 40.2413 68.2703 39.6297 68.0853 39.0688C67.5206 37.3628 66.4328 35.8781 64.9763 34.8256C63.5198 33.773 61.7687 33.2062 59.9717 33.2055C58.2581 33.2004 56.5827 33.7121 55.1644 34.6739C53.7461 35.6357 52.6507 37.0028 52.0214 38.5967C51.9078 38.8702 51.8498 39.1635 51.851 39.4596C51.8521 39.7557 51.9123 40.0486 52.028 40.3212C52.1437 40.5937 52.3126 40.8405 52.5248 41.047C52.737 41.2535 52.9883 41.4155 53.2639 41.5237C53.5395 41.6319 53.834 41.6841 54.13 41.6771C54.426 41.6701 54.7177 41.6042 54.9879 41.4831C55.2581 41.362 55.5015 41.1883 55.7037 40.972C55.906 40.7557 56.0631 40.5013 56.1658 40.2236Z" fill="#1E293B"/>
</svg>
