<svg width="90" height="90" viewBox="0 0 90 90" fill="none" xmlns="http://www.w3.org/2000/svg">
<path d="M85.7812 39.375C85.2539 38.4961 80.049 36.2479 80.049 36.2479C80.9543 35.7803 81.573 35.6836 81.573 33.75C81.573 31.6406 81.5625 30.9375 80.1562 30.9375H75.3855C75.3662 30.8953 75.3451 30.8514 75.3258 30.8074C72.2461 24.082 71.833 22.3822 67.2398 20.0936C61.0787 17.0297 49.5281 16.875 45 16.875C40.4719 16.875 28.9213 17.0297 22.7654 20.0936C18.167 22.3787 18.2812 23.5547 14.6795 30.8074C14.6795 30.8268 14.6426 30.8777 14.6092 30.9375H9.8332C8.4375 30.9375 8.42695 31.6406 8.42695 33.75C8.42695 35.6836 9.0457 35.7803 9.95098 36.2479C9.95098 36.2479 4.92188 38.6719 4.21875 39.375C3.51562 40.0781 2.8125 45 2.8125 53.4375C2.8125 61.875 3.51562 70.3125 3.51562 70.3125H5.61445C5.61445 72.7734 5.97656 73.125 7.03125 73.125H21.0938C22.1484 73.125 22.5 72.7734 22.5 70.3125H67.5C67.5 72.7734 67.8516 73.125 68.9062 73.125H83.3203C84.0234 73.125 84.375 72.5977 84.375 70.3125H86.4844C86.4844 70.3125 87.1875 61.6992 87.1875 53.4375C87.1875 45.1758 86.3086 40.2539 85.7812 39.375ZM22.0184 47.2746C18.8169 47.6246 15.5991 47.8041 12.3785 47.8125C8.78906 47.8125 8.66602 48.0428 8.41289 45.8016C8.31774 44.7757 8.34784 43.7422 8.50254 42.7236L8.61328 42.1875H9.14062C11.25 42.1875 13.2311 42.2771 16.9717 43.3793C18.8742 43.9502 20.6637 44.8458 22.2609 46.0266C23.0273 46.582 23.2031 47.1094 23.2031 47.1094L22.0184 47.2746ZM65.4645 59.9309L64.6875 61.875H25.3125C25.3125 61.875 25.3811 61.7678 24.4336 59.9098C23.7305 58.5352 24.6094 57.6562 25.9998 57.157C28.6928 56.1867 36.5625 53.4375 45 53.4375C53.4375 53.4375 61.4637 55.807 64.0723 57.157C65.0391 57.6562 66.2397 58.0078 65.4645 59.9414V59.9309ZM20.2887 35.9314C19.7209 35.9643 19.1518 35.9684 18.5836 35.9437C19.0424 35.1281 19.2973 34.2193 19.7455 33.2701C21.1518 30.2818 22.7602 26.8998 25.6236 25.4742C29.7615 23.4141 38.3379 22.4859 45 22.4859C51.6621 22.4859 60.2385 23.407 64.3764 25.4742C67.2398 26.8998 68.8412 30.2836 70.2545 33.2701C70.7063 34.2281 70.9576 35.1439 71.4287 35.9648C71.0771 35.9842 70.6729 35.9648 69.7078 35.9314H20.2887ZM81.4113 45.7945C81.0352 47.9883 81.3867 47.8125 77.6215 47.8125C74.4009 47.8041 71.1831 47.6246 67.9816 47.2746C67.4807 47.185 67.3383 46.3395 67.7391 46.0266C69.3282 44.8325 71.1201 43.9357 73.0283 43.3793C76.7689 42.2771 78.8748 42.1295 80.9543 42.2033C81.094 42.2086 81.2267 42.2655 81.327 42.3628C81.4273 42.4602 81.488 42.5912 81.4975 42.7307C81.5968 43.7539 81.5678 44.7855 81.4113 45.8016V45.7945Z" fill="#E6502C"/>
</svg>
