<svg width="80" height="80" viewBox="0 0 80 80" fill="none" xmlns="http://www.w3.org/2000/svg">
<g filter="url(#filter0_d_548_747)">
<path d="M0.833008 40C0.833008 61.6317 18.368 79.1667 39.9997 79.1667C61.6313 79.1667 79.1663 61.6317 79.1663 40C79.1663 18.3684 61.6313 0.833374 39.9997 0.833374C18.368 0.833374 0.833008 18.3684 0.833008 40Z" fill="#64748B"/>
</g>
<path d="M70.3199 15.2051C63.0732 16.6334 52.4949 19.6434 47.1549 21.1617H47.1515L45.5382 21.6201C42.9099 22.3634 40.4715 23.9267 39.5099 26.4717C39.1427 27.4461 38.8676 28.4527 38.6882 29.4784C37.8832 33.9984 41.5799 37.5967 46.0399 38.7801L50.0599 39.8467C50.7541 40.0364 51.3995 40.3728 51.9527 40.8331C52.5058 41.2934 52.9539 41.8669 53.2665 42.5151C55.1599 46.3867 63.7249 58.9117 69.9732 65.2151C75.9243 58.1624 79.1817 49.228 79.1665 40.0001C79.1806 30.9595 76.0535 22.1949 70.3199 15.2051ZM25.2249 76.2851C27.5465 70.7101 30.0015 61.6234 30.5915 59.2884C30.9632 57.8251 30.8749 56.2917 30.2615 54.9101C28.9115 51.8834 25.8615 46.5001 20.6015 44.5701C20.1526 44.4113 19.6867 44.305 19.2132 44.2534C17.3265 44.0251 7.40822 43.4651 1.00488 43.6901C2.38655 58.4901 12.0015 70.8967 25.2249 76.2851Z" fill="#1E293B"/>
<defs>
<filter id="filter0_d_548_747" x="-1.16699" y="-1.16663" width="86.333" height="86.3334" filterUnits="userSpaceOnUse" color-interpolation-filters="sRGB">
<feFlood flood-opacity="0" result="BackgroundImageFix"/>
<feColorMatrix in="SourceAlpha" type="matrix" values="0 0 0 0 0 0 0 0 0 0 0 0 0 0 0 0 0 0 127 0" result="hardAlpha"/>
<feOffset dx="2" dy="2"/>
<feGaussianBlur stdDeviation="2"/>
<feComposite in2="hardAlpha" operator="out"/>
<feColorMatrix type="matrix" values="0 0 0 0 0 0 0 0 0 0 0 0 0 0 0 0 0 0 0.25 0"/>
<feBlend mode="normal" in2="BackgroundImageFix" result="effect1_dropShadow_548_747"/>
<feBlend mode="normal" in="SourceGraphic" in2="effect1_dropShadow_548_747" result="shape"/>
</filter>
</defs>
</svg>
