<svg width="70" height="70" viewBox="0 0 70 70" fill="none" xmlns="http://www.w3.org/2000/svg">
<g clip-path="url(#clip0_556_1392)">
<g filter="url(#filter0_d_556_1392)">
<path fill-rule="evenodd" clip-rule="evenodd" d="M52.8737 24.5037C58.7712 23.4462 62.5938 19.2575 62.4412 16.0837C62.1962 10.96 58.4975 8.38497 50.5238 8.35247H50.4213C49.9928 8.35319 49.5793 8.19561 49.2599 7.90998C48.9406 7.62435 48.7381 7.23082 48.6912 6.80497C48.6688 6.60343 48.6877 6.39944 48.7468 6.20545C48.8058 6.01146 48.9038 5.83154 49.0347 5.67666C49.1656 5.52179 49.3267 5.39521 49.5081 5.30465C49.6896 5.2141 49.8875 5.16147 50.09 5.14997L50.38 5.13247C52.7525 4.98247 55.375 4.89497 56.79 5.22997C62.69 6.62872 65.965 10.1862 66.24 15.9012C66.4588 20.4462 63.0775 24.8887 58.3187 28.4012L58.18 28.5012C59.1008 30.1129 59.6904 31.9137 59.9487 33.9037C60.8462 39.6637 60.0112 43.2462 60.6512 45.6187C61.2925 47.9925 64.2087 49.2937 65.36 51.945C66.5112 54.5962 66.2975 55.7575 65.96 57.845C65.7608 59.0833 65.3117 60.8925 64.6125 63.2725C64.5353 63.5352 64.375 63.7658 64.1558 63.9298C63.9365 64.0939 63.6701 64.1825 63.3962 64.1825H59.1825C58.4825 64.1825 57.915 63.615 57.915 62.915V62.2775C57.915 62.1099 57.9482 61.9439 58.0128 61.7892C58.0773 61.6345 58.1719 61.4942 58.2911 61.3763C58.4103 61.2584 58.5516 61.1654 58.707 61.1025C58.8623 61.0396 59.0286 61.0082 59.1962 61.01C59.7654 61.0175 60.2504 60.8675 60.6512 60.56C61.665 59.785 61.7487 59.3525 61.7487 57.845C61.7487 56.84 61.3829 55.8287 60.6512 54.8112C57.7137 52.9012 55.2575 51.4087 53.09 50.3112C52.8667 52.5137 52.4279 54.5162 51.7738 56.3187C51.0862 58.2137 49.8917 60.6246 48.19 63.5512C48.0789 63.7436 47.9191 63.9032 47.7266 64.0141C47.5342 64.1249 47.3159 64.183 47.0938 64.1825H43.7588C43.0713 64.1825 42.5088 63.635 42.4925 62.9475L42.4775 62.3725C42.4686 62.0409 42.5901 61.719 42.8159 61.476C43.0416 61.2329 43.3537 61.0881 43.685 61.0725L45.4287 60.99C45.9437 60.965 46.3925 60.6312 46.5638 60.145C47.1413 58.505 47.3787 56.8933 47.2762 55.31C47.1596 53.5241 46.5654 51.0883 45.4938 48.0025C41.0438 47.9625 32.0163 49.8937 29.9375 50.0662C29.4475 50.1071 28.9442 50.1046 28.4275 50.0587C28.0094 51.3725 27.748 52.7311 27.6488 54.1062C27.5204 55.7704 27.5087 58.6962 27.6138 62.8837C27.6179 63.0528 27.5882 63.221 27.5264 63.3784C27.4646 63.5358 27.3719 63.6792 27.2537 63.8003C27.1356 63.9213 26.9945 64.0174 26.8386 64.0831C26.6828 64.1487 26.5154 64.1825 26.3462 64.1825H22.8825C22.1825 64.1825 21.615 63.615 21.615 62.915V62.045C21.615 61.345 22.1825 60.7775 22.8825 60.7775H23.4163C23.6141 60.7775 23.8091 60.7297 23.9846 60.6382C24.1601 60.5468 24.3109 60.4143 24.4242 60.2521C24.5376 60.0899 24.6102 59.9028 24.6358 59.7065C24.6614 59.5103 24.6392 59.3108 24.5712 59.125C23.9156 57.3488 23.4052 55.5224 23.045 53.6637L18.88 63.4137C18.68 63.88 18.2212 64.1825 17.7137 64.1825H13.1138C12.4138 64.1825 11.845 63.615 11.845 62.915V62.2675C11.845 61.6525 12.2863 61.1262 12.8912 61.02L15.0812 60.6312C15.3562 60.5812 15.6087 60.4437 15.7975 60.2362C16.6867 59.2571 17.26 58.0375 17.5175 56.5775C18.1525 52.9762 18.555 52.5862 17.5175 49.1237C17.18 47.9925 14.7025 46.89 13.1175 41.8787C12.1017 38.6712 11.2008 33.2225 10.415 25.5325C10.3867 25.2551 10.2678 24.9948 10.0766 24.7919C9.88543 24.589 9.63268 24.4547 9.3575 24.41L6.9225 24.0162C6.5475 23.955 6.21875 23.7287 6.0275 23.4L4.1 20.07L4.0475 19.9862C3.85875 19.7274 3.75482 19.4165 3.75 19.0962C3.75 18.8512 3.81375 18.5983 3.94125 18.3375C4.00958 18.1983 4.1 18.0758 4.2125 17.97L6.73125 15.6037C6.90625 15.4375 7.0325 15.225 7.0925 14.9912L7.235 14.425C7.3625 13.9212 7.6425 13.4675 8.035 13.1275C8.7925 12.475 9.35167 12.0375 9.7125 11.815C10.1625 11.5383 11.0967 11.2066 12.515 10.82C11.795 9.81247 11.4 8.93081 11.33 8.17497C11.2238 7.04122 11.1337 5.91872 11.5925 5.87497C11.9 5.84664 12.6779 6.69164 13.9262 8.40997C13.8287 6.23831 14.0483 5.27914 14.585 5.53247C15.1217 5.78581 16.3008 7.24956 18.1225 9.92372L19.9 11.9487C20.7634 12.9323 21.3986 14.0946 21.76 15.3525C22.6583 18.4775 23.5125 20.7271 24.3225 22.1012C25.7712 24.5537 27.5475 27.5737 33.32 27.1262C39.0913 26.68 41.0325 25.5112 44.8775 24.9062C46.8456 24.6068 48.8285 24.4144 50.8175 24.33C51.5076 24.2974 52.1989 24.3559 52.8737 24.5037Z" fill="#1E293B"/>
</g>
</g>
<defs>
<filter id="filter0_d_556_1392" x="1.75" y="2.99933" width="70.5" height="67.1832" filterUnits="userSpaceOnUse" color-interpolation-filters="sRGB">
<feFlood flood-opacity="0" result="BackgroundImageFix"/>
<feColorMatrix in="SourceAlpha" type="matrix" values="0 0 0 0 0 0 0 0 0 0 0 0 0 0 0 0 0 0 127 0" result="hardAlpha"/>
<feOffset dx="2" dy="2"/>
<feGaussianBlur stdDeviation="2"/>
<feComposite in2="hardAlpha" operator="out"/>
<feColorMatrix type="matrix" values="0 0 0 0 0 0 0 0 0 0 0 0 0 0 0 0 0 0 0.25 0"/>
<feBlend mode="normal" in2="BackgroundImageFix" result="effect1_dropShadow_556_1392"/>
<feBlend mode="normal" in="SourceGraphic" in2="effect1_dropShadow_556_1392" result="shape"/>
</filter>
<clipPath id="clip0_556_1392">
<rect width="70" height="70" fill="white"/>
</clipPath>
</defs>
</svg>
