<svg width="90" height="90" viewBox="0 0 90 90" fill="none" xmlns="http://www.w3.org/2000/svg">
<g filter="url(#filter0_d_467_428)">
<path d="M26.7419 71.9399L5.99989 47.9999V41.9999H83.9999V47.9999L63.0239 71.9399H26.7419ZM23.9279 14.9999C23.9279 14.2043 23.6118 13.4412 23.0492 12.8786C22.4866 12.316 21.7235 11.9999 20.9279 11.9999C20.1322 11.9999 19.3692 12.316 18.8066 12.8786C18.244 13.4412 17.9279 14.2043 17.9279 14.9999V18.4019L7.14589 20.6099C6.94225 20.6354 6.74599 20.7023 6.56926 20.8067C6.39253 20.911 6.23909 21.0505 6.11843 21.2165C5.99777 21.3825 5.91246 21.5715 5.86777 21.7718C5.82309 21.9721 5.81998 22.1794 5.85865 22.381C5.89731 22.5825 5.97693 22.774 6.09256 22.9436C6.20819 23.1131 6.35739 23.2571 6.53092 23.3667C6.70444 23.4763 6.89861 23.5491 7.1014 23.5806C7.30419 23.6121 7.51129 23.6017 7.70989 23.5499L17.9279 21.8879V25.2839L7.42789 25.4999C7.03007 25.4999 6.64854 25.658 6.36723 25.9393C6.08593 26.2206 5.92789 26.6021 5.92789 26.9999C5.92789 27.3978 6.08593 27.7793 6.36723 28.0606C6.64854 28.3419 7.03007 28.4999 7.42789 28.4999L17.9279 28.7159V35.9879H23.9279V14.9999ZM80.9279 23.9999L35.9279 25.5779V17.9699L81.4919 11.5259C82.2612 11.3641 82.9363 10.9067 83.3718 10.2521C83.8073 9.59762 83.9685 8.79829 83.8207 8.02613C83.6729 7.25397 83.2278 6.57069 82.5814 6.12332C81.9349 5.67594 81.1386 5.50021 80.3639 5.63394L35.8799 14.7299C35.8111 13.9666 35.4506 13.2592 34.8732 12.7552C34.2959 12.2511 33.5464 11.9892 32.7808 12.024C32.0151 12.0588 31.2925 12.3876 30.7633 12.942C30.234 13.4964 29.9391 14.2335 29.9399 14.9999V16.3679L26.9759 16.9679V19.0799L29.9339 18.5999V25.7819L26.9759 25.8419V28.6079L80.9279 29.9999C81.7235 29.9999 82.4866 29.6839 83.0492 29.1213C83.6118 28.5587 83.9279 27.7956 83.9279 26.9999C83.9279 26.2043 83.6118 25.4412 83.0492 24.8786C82.4866 24.316 81.7235 23.9999 80.9279 23.9999ZM59.9999 77.9999H29.9999V81.4559H59.9999V77.9999Z" fill="#1E293B"/>
</g>
<defs>
<filter id="filter0_d_467_428" x="3.83179" y="3.59021" width="86.1682" height="83.8657" filterUnits="userSpaceOnUse" color-interpolation-filters="sRGB">
<feFlood flood-opacity="0" result="BackgroundImageFix"/>
<feColorMatrix in="SourceAlpha" type="matrix" values="0 0 0 0 0 0 0 0 0 0 0 0 0 0 0 0 0 0 127 0" result="hardAlpha"/>
<feOffset dx="2" dy="2"/>
<feGaussianBlur stdDeviation="2"/>
<feComposite in2="hardAlpha" operator="out"/>
<feColorMatrix type="matrix" values="0 0 0 0 0 0 0 0 0 0 0 0 0 0 0 0 0 0 0.25 0"/>
<feBlend mode="normal" in2="BackgroundImageFix" result="effect1_dropShadow_467_428"/>
<feBlend mode="normal" in="SourceGraphic" in2="effect1_dropShadow_467_428" result="shape"/>
</filter>
</defs>
</svg>
