<svg width="90" height="90" viewBox="0 0 90 90" fill="none" xmlns="http://www.w3.org/2000/svg">
<g clip-path="url(#clip0_493_479)">
<path d="M76.5 51.0005H74.9995V36H60.0005V51.0005H58.5V54H76.5V51.0005ZM68.9991 49.5V50.9991H65.9995V49.5C65.9995 47.0152 63.983 45 61.4995 45C63.9844 45 65.9995 42.9834 65.9995 40.5V37.5005H68.9991V40.5C68.9991 42.9848 71.0156 45 73.4991 45C72.3056 45 71.161 45.4741 70.3171 46.318C69.4732 47.1619 68.9991 48.3065 68.9991 49.5ZM31.5 51.0005H29.9995V36H15.0005V51.0005H13.5V54H31.5V51.0005ZM23.9991 49.5V50.9991H20.9995V49.5C20.9995 47.0152 18.983 45 16.4995 45C18.9844 45 20.9995 42.9834 20.9995 40.5V37.5005H23.9991V40.5C23.9991 42.9848 26.0156 45 28.4991 45C27.3056 45 26.161 45.4741 25.3171 46.318C24.4732 47.1619 23.9991 48.3065 23.9991 49.5ZM54 51.0005H52.4995V36H37.5005V51.0005H36V54H54V51.0005ZM46.4991 49.5V50.9991H43.4995V49.5C43.4995 47.0152 41.483 45 38.9995 45C41.4844 45 43.4995 42.9834 43.4995 40.5V37.5005H46.4991V40.5C46.4991 42.9848 48.5156 45 50.9991 45C49.8056 45 48.661 45.4741 47.8171 46.318C46.9732 47.1619 46.4991 48.3065 46.4991 49.5ZM76.5 73.5005H74.9995V58.5H60.0005V73.5005H58.5V76.5H76.5V73.5005ZM68.9991 72V73.4991H65.9995V72C65.9995 69.5152 63.983 67.5 61.4995 67.5C63.9844 67.5 65.9995 65.4834 65.9995 63V60.0005H68.9991V63C68.9991 65.4848 71.0156 67.5 73.4991 67.5C72.3056 67.5 71.161 67.9741 70.3171 68.818C69.4732 69.6619 68.9991 70.8065 68.9991 72ZM54 73.5005H52.4995V58.5H37.5005V73.5005H36V76.5H54V73.5005ZM46.4991 72V73.4991H43.4995V72C43.4995 69.5152 41.483 67.5 38.9995 67.5C41.4844 67.5 43.4995 65.4834 43.4995 63V60.0005H46.4991V63C46.4991 65.4848 48.5156 67.5 50.9991 67.5C49.8056 67.5 48.661 67.9741 47.8171 68.818C46.9732 69.6619 46.4991 70.8065 46.4991 72ZM58.5 6.00047C58.5 2.68594 55.3191 0 51.3956 0C48.5648 0 46.1433 1.40625 45 3.42844C43.8581 1.40625 41.4352 0 38.6044 0C34.6809 0 31.5 2.68594 31.5 6.00047C31.5 12.0009 45 24.0005 45 24.0005C45 24.0005 58.5 11.9995 58.5 6.00047Z" fill="#E6502C"/>
<path d="M85.5 81V27H73.5005V23.9991H16.4995V27H4.5V81H0V90H90V81H85.5ZM33.0005 86.9991H11.9995V83.9995H33.0005V86.9991ZM25.4995 72C25.4995 71.6024 25.6575 71.2211 25.9386 70.94C26.2197 70.6589 26.601 70.5009 26.9986 70.5009C27.3962 70.5009 27.7775 70.6589 28.0586 70.94C28.3397 71.2211 28.4977 71.6024 28.4977 72C28.4977 72.3976 28.3397 72.7789 28.0586 73.06C27.7775 73.3411 27.3962 73.4991 26.9986 73.4991C26.601 73.4991 26.2197 73.3411 25.9386 73.06C25.6575 72.7789 25.4995 72.3976 25.4995 72ZM82.5005 81H29.9995V58.5H15.0005V81H7.49953V29.9995H82.5005V81Z" fill="#E6502C"/>
</g>
<defs>
<clipPath id="clip0_493_479">
<rect width="90" height="90" fill="white"/>
</clipPath>
</defs>
</svg>
