<svg width="200" height="200" viewBox="0 0 200 200" fill="none" xmlns="http://www.w3.org/2000/svg">
<path opacity="0.15" d="M52.0835 189.583C52.0835 191.241 57.1318 192.831 66.118 194.003C75.1041 195.175 87.2919 195.833 100 195.833C112.708 195.833 124.896 195.175 133.882 194.003C142.868 192.831 147.917 191.241 147.917 189.583C147.917 187.926 142.868 186.336 133.882 185.164C124.896 183.992 112.708 183.333 100 183.333C87.2919 183.333 75.1041 183.992 66.118 185.164C57.1318 186.336 52.0835 187.926 52.0835 189.583Z" fill="#45413C"/>
<path d="M169.292 47.4583C147.749 36.796 124.037 31.249 100 31.249C75.9635 31.249 52.251 36.796 30.7085 47.4583L40.1252 66.6667C45.2573 77.0286 47.9239 88.4368 47.9168 100V118.5C47.867 120.527 48.533 122.507 49.7979 124.092C51.0628 125.677 52.8457 126.766 54.8335 127.167C56.0402 127.375 57.278 127.315 58.4589 126.99C59.6397 126.666 60.7345 126.085 61.6654 125.29C62.5963 124.494 63.3404 123.503 63.8447 122.387C64.3491 121.271 64.6013 120.058 64.5835 118.833V116L96.2918 180C96.6415 180.683 97.1727 181.255 97.827 181.655C98.4813 182.055 99.2333 182.267 100 182.267C100.767 182.267 101.519 182.055 102.173 181.655C102.828 181.255 103.359 180.683 103.708 180L114.583 158.042V166.667C114.583 168.324 115.242 169.914 116.414 171.086C117.586 172.258 119.176 172.917 120.833 172.917C122.491 172.917 124.081 172.258 125.253 171.086C126.425 169.914 127.083 168.324 127.083 166.667V142.5C127.023 136.107 128.45 129.788 131.25 124.042C136.5 113.375 142.125 102.083 147.917 90.7083V102.083C147.917 103.741 148.575 105.331 149.747 106.503C150.92 107.675 152.509 108.333 154.167 108.333C155.824 108.333 157.414 107.675 158.586 106.503C159.758 105.331 160.417 103.741 160.417 102.083V75C160.373 68.5959 161.798 62.2669 164.583 56.5L169.292 47.4583Z" fill="#FFE500"/>
<path d="M100 44.7917C122.054 44.7853 143.856 49.4724 163.958 58.5417C164.208 57.9167 164.458 57.25 164.75 56.6667L169.292 47.4583C147.749 36.796 124.037 31.249 100 31.249C75.9635 31.249 52.251 36.796 30.7085 47.4583L36.1668 58.3333C56.2466 49.3531 78.0038 44.7375 100 44.7917Z" fill="#EBCB00"/>
<path d="M127.083 93.75C122.111 93.75 117.341 95.7254 113.825 99.2417C110.309 102.758 108.333 107.527 108.333 112.5C108.333 117.473 110.309 122.242 113.825 125.758C117.341 129.275 122.111 131.25 127.083 131.25H127.875C132.5 121.958 137.417 112 142.417 101.833C140.708 99.3439 138.419 97.3074 135.748 95.8992C133.076 94.491 130.103 93.7534 127.083 93.75ZM97.9167 137.5C97.9222 135.036 97.4409 132.596 96.5006 130.318C95.5603 128.041 94.1794 125.972 92.4372 124.229C90.695 122.487 88.6258 121.106 86.3485 120.166C84.0711 119.226 81.6305 118.744 79.1667 118.75C75.078 118.758 71.1073 120.121 67.875 122.625L84.1667 155.5C88.1114 154.416 91.5919 152.068 94.0753 148.817C96.5587 145.566 97.9081 141.591 97.9167 137.5ZM108.333 60.4167C108.333 65.3895 110.309 70.1586 113.825 73.6749C117.341 77.1912 122.111 79.1667 127.083 79.1667C132.056 79.1667 136.825 77.1912 140.342 73.6749C143.858 70.1586 145.833 65.3895 145.833 60.4167C145.833 55.4438 143.858 50.6747 140.342 47.1584C136.825 43.6421 132.056 41.6667 127.083 41.6667C122.111 41.6667 117.341 43.6421 113.825 47.1584C110.309 50.6747 108.333 55.4438 108.333 60.4167Z" fill="#FF6242" stroke="#45413C" stroke-width="0.5" stroke-linecap="round" stroke-linejoin="round"/>
<path d="M99.9998 31.25C124.04 31.221 147.759 36.7692 169.291 47.4583C169.291 47.4583 179.583 48.75 181.25 39.5833C185.416 16.6667 117.375 10.4167 99.9998 10.4167C82.6248 10.4167 14.5831 16.6667 18.7498 39.5833C20.4165 48.75 30.7081 47.4583 30.7081 47.4583C52.2409 36.7692 75.9599 31.221 99.9998 31.25Z" fill="#F0D5A8"/>
<path d="M18.9169 40.25C34.0836 25.2917 85.0002 20.8333 100 20.8333C115 20.8333 165.917 25.2917 181.084 40.25V39.5833C185.25 16.6667 117.209 10.4167 99.8336 10.4167C82.4586 10.4167 14.5836 16.6667 18.7502 39.5833C18.7919 39.8333 18.8752 40 18.9169 40.25Z" fill="#F7E5C6"/>
<path d="M99.9998 31.25C124.04 31.221 147.759 36.7692 169.291 47.4583C169.291 47.4583 179.583 48.75 181.25 39.5833C185.416 16.6667 117.375 10.4167 99.9998 10.4167C82.6248 10.4167 14.5831 16.6667 18.7498 39.5833C20.4165 48.75 30.7081 47.4583 30.7081 47.4583C52.2409 36.7692 75.9599 31.221 99.9998 31.25Z" stroke="#45413C" stroke-width="0.5" stroke-linecap="round" stroke-linejoin="round"/>
<path d="M52.0835 70.8333C52.0835 75.8062 54.0589 80.5753 57.5752 84.0916C61.0916 87.6079 65.8607 89.5833 70.8335 89.5833C75.8063 89.5833 80.5754 87.6079 84.0917 84.0916C87.6081 80.5753 89.5835 75.8062 89.5835 70.8333C89.5835 65.8605 87.6081 61.0914 84.0917 57.5751C80.5754 54.0588 75.8063 52.0833 70.8335 52.0833C65.8607 52.0833 61.0916 54.0588 57.5752 57.5751C54.0589 61.0914 52.0835 65.8605 52.0835 70.8333Z" fill="#FF6242" stroke="#45413C" stroke-width="0.5" stroke-linecap="round" stroke-linejoin="round"/>
<path d="M64.5835 115.917V106.25M114.583 158.042L103.708 180C103.359 180.683 102.828 181.255 102.173 181.655C101.519 182.055 100.767 182.267 100 182.267C99.2333 182.267 98.4813 182.055 97.827 181.655C97.1727 181.255 96.6415 180.683 96.2918 180L64.5835 116V118.833C64.6013 120.058 64.3491 121.271 63.8447 122.387C63.3404 123.503 62.5963 124.494 61.6654 125.29C60.7345 126.085 59.6397 126.666 58.4589 126.99C57.278 127.315 56.0402 127.375 54.8335 127.167C52.8457 126.766 51.0628 125.677 49.7979 124.092C48.533 122.507 47.867 120.527 47.9168 118.5V100C47.9239 88.4368 45.2573 77.0286 40.1252 66.6667L30.7085 47.4583C52.251 36.796 75.9635 31.249 100 31.249C124.037 31.249 147.749 36.796 169.292 47.4583L164.583 56.5C161.798 62.2669 160.373 68.5959 160.417 75V102.083C160.417 103.741 159.758 105.331 158.586 106.503C157.414 107.675 155.824 108.333 154.167 108.333C152.509 108.333 150.92 107.675 149.747 106.503C148.575 105.331 147.917 103.741 147.917 102.083V90.7083C142.125 102.083 136.5 113.375 131.25 124.042C128.45 129.788 127.023 136.107 127.083 142.5V166.667C127.083 168.324 126.425 169.914 125.253 171.086C124.081 172.258 122.491 172.917 120.833 172.917C119.176 172.917 117.586 172.258 116.414 171.086C115.242 169.914 114.583 168.324 114.583 166.667V158.042ZM114.583 158.042V147.917M147.917 83.3333V90.6667" stroke="#45413C" stroke-width="0.5" stroke-linecap="round" stroke-linejoin="round"/>
</svg>
