<svg width="90" height="90" viewBox="0 0 90 90" fill="none" xmlns="http://www.w3.org/2000/svg">
<g clip-path="url(#clip0_467_439)">
<g filter="url(#filter0_d_467_439)">
<path d="M77.5282 36.097C77.9266 36.0258 78.326 35.9555 78.7263 35.8861C79.002 35.8397 79.2776 35.7792 79.5209 35.6526C79.8035 35.5176 79.999 35.3025 80.1776 35.0705C80.3576 34.8455 79.9723 34.605 79.7937 34.8286C79.6404 35.0297 79.5223 35.1717 79.2959 35.2786C79.0849 35.3855 78.8459 35.4234 78.6096 35.4656C78.2196 35.5322 77.831 35.6006 77.4438 35.6709C77.1443 35.7201 77.2329 36.1476 77.5282 36.097Z" fill="#1E293B"/>
</g>
<g filter="url(#filter1_d_467_439)">
<path d="M54.1601 39.4045C54.5554 39.4045 54.8759 39.13 54.8759 38.7913C54.8759 38.4527 54.5554 38.1782 54.1601 38.1782C53.7648 38.1782 53.4443 38.4527 53.4443 38.7913C53.4443 39.13 53.7648 39.4045 54.1601 39.4045Z" fill="#1E293B"/>
</g>
<g filter="url(#filter2_d_467_439)">
<path d="M43.9849 37.9982C44.3794 37.9982 44.6993 37.7237 44.6993 37.3851C44.6993 37.0465 44.3794 36.772 43.9849 36.772C43.5903 36.772 43.2705 37.0465 43.2705 37.3851C43.2705 37.7237 43.5903 37.9982 43.9849 37.9982Z" fill="#1E293B"/>
</g>
<g filter="url(#filter3_d_467_439)">
<path d="M43.3589 39.4341C40.7868 37.4667 39.6084 35.3376 39.6084 35.3376C39.6084 35.3376 39.8432 38.25 43.3589 39.4341ZM69.1186 37.4766C66.0234 38.6269 63.4514 38.565 63.4514 38.565C63.4514 38.565 66.3117 39.7744 69.1186 37.4766Z" fill="#1E293B"/>
</g>
<g filter="url(#filter4_d_467_439)">
<path d="M49.0568 18.869C50.0509 18.869 50.8568 18.0632 50.8568 17.069C50.8568 16.0749 50.0509 15.269 49.0568 15.269C48.0627 15.269 47.2568 16.0749 47.2568 17.069C47.2568 18.0632 48.0627 18.869 49.0568 18.869Z" fill="#1E293B"/>
</g>
<g filter="url(#filter5_d_467_439)">
<path d="M57.8024 19.8816C58.7966 19.8816 59.6024 19.0757 59.6024 18.0816C59.6024 17.0875 58.7966 16.2816 57.8024 16.2816C56.8083 16.2816 56.0024 17.0875 56.0024 18.0816C56.0024 19.0757 56.8083 19.8816 57.8024 19.8816Z" fill="#1E293B"/>
</g>
<g filter="url(#filter6_d_467_439)">
<path d="M55.8789 23.7783C56.0603 23.521 55.8957 23.2031 55.6553 23.3466C53.6486 24.5658 51.6081 24.3183 49.9417 22.6842C49.7392 22.4874 49.5072 22.763 49.6253 23.0541C50.0654 24.1397 51.0864 25.1832 52.5264 25.3505C53.9706 25.5178 55.2039 24.736 55.8789 23.7783Z" fill="#1E293B"/>
</g>
<g filter="url(#filter7_d_467_439)">
<path d="M66.2906 53.1914C64.537 51.5279 60.8653 50.2172 55.2642 49.2947C55.1513 49.1081 55.053 48.913 54.9703 48.7111L54.7706 48.1655H54.7748C55.1025 45.7243 55.7719 44.8875 56.5903 43.9074C57.4552 42.871 58.417 41.7164 59.1033 39.0769C61.2506 39.8911 65.1347 41.2974 67.5984 41.805C68.4394 42.0075 69.5419 42.1144 70.8342 42.1144C72.7158 42.1144 74.7394 41.8908 76.3284 41.6602C77.1202 42.4744 78.1734 42.4744 78.5841 42.4744C79.3913 42.4744 80.4459 42.3141 81.9056 42.0933C83.3217 41.8768 84.3778 41.2988 85.0486 40.3763C85.4887 39.7688 85.9613 38.7155 85.7067 37.1489C85.2905 34.7119 83.6944 33.331 81.1969 33.2213C80.8313 32.7811 80.273 32.476 79.5375 32.476C79.3988 32.476 79.2478 32.4886 79.0847 32.5139L77.085 32.8979L77.0512 32.9049L77.0175 32.9133C75.7969 33.2129 74.9391 34.1663 74.7787 35.2885H74.6466C73.8886 35.2885 73.1545 35.1872 72.4458 35.0888C71.7764 34.9974 71.145 34.9102 70.5248 34.9102C70.4264 34.9102 70.3303 34.9125 70.2366 34.9172C68.85 33.4505 65.9405 32.2622 63.9633 31.6561C63.2081 30.8532 61.1423 28.9252 58.3917 28.5286C57.9333 28.4654 57.4733 28.4148 57.0122 28.3768C56.7297 28.354 56.4479 28.3236 56.167 28.2854C59.1848 27.3207 62.5725 25.2113 63.6609 21.9516C64.717 21.8546 66.1838 21.2724 66.465 18.8522C66.6098 17.6049 66.4355 16.7232 65.9292 16.1564C65.7121 15.9173 65.4333 15.7427 65.1234 15.6516C65.918 7.76817 64.2136 4.16114 55.2136 3.03473C46.1433 1.89848 43.2577 5.11457 42.1847 13.0725C41.5111 13.2357 40.68 13.8474 40.4494 15.8386C40.2328 17.7174 40.9472 18.9985 42.4702 19.4991C42.7486 22.3847 44.9016 24.9666 47.288 26.6907C46.8855 26.8265 46.4625 26.8913 46.0378 26.8819C45.5934 26.8819 45.1336 26.8411 44.692 26.8004C44.5014 26.7824 44.3106 26.7664 44.1197 26.7525C43.7925 26.7294 43.4647 26.7176 43.1367 26.7174C38.9208 26.7174 36.0788 28.7593 34.6852 32.7868C33.262 34.0355 32.0287 35.498 30.9248 37.2488L30.6605 37.6594C29.6437 39.2443 28.7677 40.6139 28.7887 44.003C28.8014 45.6075 28.7972 47.9574 28.793 49.3693C27.3178 50.1877 27.45 51.9708 27.6342 54.45C27.8128 56.8097 29.4061 58.275 31.7897 58.275C31.9584 58.275 32.092 58.2666 32.1722 58.2624C33.5827 58.1766 34.6753 57.6802 35.4164 56.8477C35.5795 58.4789 36.36 60.1552 38.2683 61.9439C38.2908 62.1169 38.2978 62.4094 38.3048 62.6175C38.3288 63.4346 38.3934 64.5033 38.9573 65.4202C27.2256 69.5976 15.1227 72.6484 2.8125 74.5313V87.1875H87.1875V39.375C87.1875 39.375 79.882 45.7243 66.2906 53.1914ZM74.8153 70.8722C74.8153 71.2674 74.6044 71.7652 74.4652 72.2785L70.2928 72.8283C69.892 72.2813 69.5855 71.7666 69.5616 71.318C69.539 70.8898 69.5654 70.4605 69.6403 70.0383C72.9169 70.1072 74.8153 70.4124 74.8153 70.8722ZM71.4277 59.836C71.5106 62.4249 70.5952 64.2375 69.7092 65.9925C68.8922 67.6097 68.0484 69.2832 68.1581 71.3925C68.2158 72.5386 69.0398 73.5553 69.9103 74.6325C70.4644 75.316 71.0367 76.0233 71.3798 76.7419C70.8089 77.1497 68.7614 77.7671 67.3538 77.7671C66.9825 77.7671 66.8433 77.7178 66.8348 77.7178C65.3963 76.6941 65.0363 75.0333 65.6325 72.1603C66.0333 70.2197 65.7422 68.6686 65.5073 67.4213C65.2317 65.9574 65.0503 64.9899 65.9264 63.9436L66.6787 63.045L65.5312 62.8032C64.8309 62.6569 62.8355 62.0621 62.0705 61.1705C61.9383 60.826 62.1745 58.988 63.0352 57.3807C63.488 56.5327 63.9998 55.9758 64.4906 55.7888C68.483 56.8786 71.3363 59.1807 71.4277 59.836ZM40.2483 76.2891C40.2652 76.171 40.4648 75.8391 40.6111 75.5972C40.9823 74.9813 41.4872 74.1418 41.5884 73.0955C41.6616 72.3333 41.7038 71.5908 41.7502 70.816C41.888 68.4675 42.0413 65.8055 43.148 61.47C43.598 59.701 44.8777 58.6463 46.5736 58.6463C47.797 58.6463 48.96 59.2214 49.5337 60.113C50.0386 60.8963 50.0583 61.8582 49.5886 62.896C48.9923 64.2122 48.1852 65.5819 47.4047 66.9066C46.1109 69.1018 44.7736 71.3714 44.318 73.5314C43.7723 76.1077 44.782 77.9555 45.5189 79.3069C45.8705 79.951 46.1812 80.5177 46.1953 80.9382C45.6609 81.2307 43.7794 81.7285 42.338 81.7285C41.8247 81.7285 41.6433 81.6553 41.632 81.6553C41.4239 81.436 41.2116 80.2744 41.0723 79.5038C40.8741 78.421 40.6519 77.1961 40.2483 76.2891ZM45.6862 76.05C45.5322 75.3143 45.535 74.5543 45.6947 73.8197C45.8381 73.1447 46.1039 72.4458 46.4133 71.7385C53.3827 70.7907 59.5969 70.276 64.4077 70.0988C64.4161 70.6543 64.388 71.235 64.2572 71.8763C64.1391 72.4444 64.0378 73.0477 63.9858 73.6594C58.7559 74.3443 52.3392 75.1852 45.6862 76.05ZM43.8455 18.9352L43.8384 18.3614L43.2731 18.2546C42.4575 18.0999 41.6489 17.7104 41.8472 15.9989C41.9133 15.4252 42.0975 14.4704 42.5855 14.4197C42.6206 14.8093 42.6811 15.106 42.7697 15.3366C43.0341 16.006 43.6247 16.4222 43.6922 16.4686L44.8242 17.2407L44.7919 15.8696C44.7919 15.8611 44.7722 14.9527 44.9564 13.7475C45.5555 10.5061 45.8677 9.61879 46.4091 9.61879C46.7831 9.61879 47.3906 9.81285 48.1613 10.0589C49.5183 10.4949 51.3787 11.0897 54.142 11.4089C56.4581 11.6775 58.8023 11.5791 60.2733 11.4624C60.7753 11.4244 61.1972 11.3907 61.553 11.3907C62.1014 11.3907 62.2491 11.4807 62.3152 11.5496C62.7019 11.9546 62.6442 13.8699 62.5542 15.7754C62.4586 17.0044 62.2308 17.8791 62.2294 17.8875L61.882 19.215L63.1617 18.7229C63.2363 18.6933 63.9028 18.4247 64.3177 17.8285C64.4856 17.5651 64.6163 17.2798 64.7058 16.9805C64.8113 17.0129 64.8548 17.0649 64.8773 17.0902C64.9786 17.2027 65.1966 17.5824 65.0672 18.6891C64.8759 20.3386 64.0673 20.5608 63.3023 20.5608L62.5866 20.5327L62.4473 21.0896C61.3533 25.4883 54.8114 27.7538 52.283 27.4641C49.8094 27.1772 43.9073 23.5632 43.8455 18.9352ZM35.1014 53.6794C35.0831 55.0083 34.6584 56.7057 32.0836 56.8603C32.0217 56.8632 31.9177 56.8702 31.7883 56.8702C31.0022 56.8702 29.2092 56.6452 29.0348 54.3474C28.8141 51.345 28.7648 50.6278 30.195 50.3719C30.1978 49.486 30.2091 46.0997 30.1936 43.9946C30.1725 40.7489 31.0275 39.7182 32.1117 37.9983C33.255 36.1843 34.4953 34.7724 35.8945 33.5982C36.9098 30.3582 38.9953 28.1222 43.1325 28.1222C43.4166 28.1222 43.7109 28.133 44.0156 28.1546C44.6133 28.1968 45.3178 28.2868 46.035 28.2868C46.9378 28.2868 47.8462 28.1082 48.6042 27.5499C49.8727 28.2797 51.1228 28.7466 52.1198 28.8619C52.3205 28.8854 52.5347 28.8971 52.7625 28.8971C53.3081 28.8971 53.9452 28.8239 54.6272 28.6875C54.9858 29.873 56.1417 29.6269 58.1878 29.9208C61.1044 30.3413 63.1772 32.8908 63.1772 32.8908C66.5452 33.8499 69.2241 35.4277 69.5925 36.4318C69.8794 36.3488 70.1902 36.3164 70.522 36.3164C71.6653 36.3164 73.0631 36.6947 74.6452 36.6947C75.1725 36.6947 75.7223 36.6525 76.2877 36.54L76.1766 35.8946C76.05 35.1535 76.5745 34.4686 77.3508 34.2788L79.3139 33.9005C79.3955 33.8874 79.4695 33.8808 79.5361 33.8808C80.2702 33.8808 80.2969 34.598 80.2969 34.6416C80.4816 34.6275 80.6709 34.62 80.865 34.6191C82.3078 34.6191 83.9278 35.0874 84.3173 37.3683C84.3891 37.8071 84.7983 40.2272 81.6933 40.7025C80.2589 40.9205 79.2759 41.0682 78.5827 41.0682C77.677 41.0682 77.2678 40.815 77.0048 40.133C75.4172 40.3904 73.0139 40.7082 70.8328 40.7082C69.7514 40.7082 68.7262 40.6294 67.8811 40.4269C64.4864 39.7266 58.0725 37.17 58.0725 37.17C56.8955 43.906 54.2475 42.1875 53.4164 47.7746C42.3872 47.3007 39.8208 46.4246 39.7167 46.3866L39.5958 46.343C40.0866 43.1072 38.6283 43.2211 39.6056 37.6861C38.6367 40.6196 35.1942 42.0511 34.477 42.3211L33.2198 40.5169C33.2198 40.5169 33.8977 42.9216 34.1142 44.8805L33.6516 50.1061L34.2211 50.0738C34.2511 50.071 34.2806 50.07 34.3097 50.071C35.0072 50.071 35.5894 50.5575 35.7033 51.2086L35.9086 52.9032C35.9452 53.4671 35.1675 53.6794 35.1014 53.6794ZM35.1816 48.7983L35.6653 43.3505C36.4532 42.9935 37.2024 42.5567 37.9012 42.0469C37.9533 42.66 38.0475 43.148 38.1305 43.5966C38.2697 44.3307 38.378 44.9339 38.2359 45.9732L37.8577 47.3527C37.5885 48.3662 37.2655 49.3646 36.8902 50.3438C36.7321 49.9792 36.4979 49.6526 36.2032 49.3861C35.9085 49.1195 35.5601 48.9191 35.1816 48.7983ZM36.7889 56.4146C36.7552 55.7128 36.862 55.0041 37.0462 54.2729C37.6481 53.5121 40.2595 50.6855 45.5147 51.2789C45.5147 51.2789 41.7178 48.5255 38.6072 49.7293C38.7272 49.3796 38.8425 49.0191 38.9531 48.6479C41.5294 48.3975 49.0936 50.8739 54.0056 49.9149C54.1378 50.1427 54.2911 50.3818 54.4908 50.5927C54.8555 50.6489 55.2216 50.7099 55.5891 50.7755C53.64 50.753 53.4797 52.9186 53.4797 52.9186C55.5005 51.3675 59.3156 51.6938 60.1116 51.781C60.5381 51.9019 60.9511 52.0285 61.3505 52.1607C59.31 52.0918 58.4677 54.4571 58.4677 54.4571C60.4336 52.9482 63.8297 53.5022 64.6889 53.6738C65.1741 54 65.5538 54.3488 65.7984 54.7186C65.4217 54.5914 65.0408 54.4765 64.6566 54.3741L64.4892 54.3305L64.3219 54.3685C62.6667 54.751 61.6908 56.7521 61.2563 57.9108C60.9769 58.6602 60.7848 59.4392 60.6839 60.2325C60.3773 61.463 60.307 62.6358 60.5981 63.3994C61.6191 66.0755 62.6358 65.1825 63.2545 63.533C63.4444 63.6132 63.6159 63.6793 63.7945 63.7439L63.7847 63.7805C63.5217 65.236 62.8144 65.7858 61.8638 65.7858C58.9556 65.7858 53.7834 60.6446 52.245 60.6446C52.1472 60.6397 52.0507 60.6691 51.9722 60.7275C51.0525 61.4658 53.0016 63.9324 52.3898 64.485C51.9145 64.9097 50.9048 65.4005 49.6617 65.8083C49.8727 65.4343 50.0541 65.063 50.2509 64.6875C50.9723 63.9099 51.4181 62.9157 51.4181 61.8174C51.4105 61.3963 51.3399 60.9787 51.2086 60.5785C51.1184 60.1427 50.9523 59.7262 50.7178 59.348C49.8769 58.0444 48.2892 57.2358 46.575 57.2358C46.0308 57.2358 45.4542 57.3385 44.8903 57.541C41.8106 58.4719 40.8473 61.8019 40.8473 63.9704C40.8473 64.2839 40.9064 64.5441 40.9936 64.7747C40.9528 65.0025 40.9078 65.236 40.8741 65.4525C40.6603 65.2983 40.4645 65.1204 40.2905 64.9224C39.3272 63.8072 40.0289 61.643 39.382 61.0552C39.3286 61.006 39.2892 60.9596 39.2372 60.9089C39.292 60.0821 39.7659 55.6032 43.5037 54.1688C43.5052 54.173 38.6916 53.7947 36.7889 56.4146ZM19.253 77.1877C26.4333 75.233 33.5573 73.7649 40.2089 72.6722C40.1991 72.7679 40.1963 72.8649 40.1864 72.9605C40.1175 73.6889 39.7392 74.3161 39.4045 74.8702C39.0234 75.5002 38.6648 76.0964 38.9278 76.725C38.9545 76.7855 38.9728 76.8558 38.9967 76.9191C27.4627 78.4139 16.155 79.8596 9.89437 80.6091C11.9475 79.5249 15.39 78.2382 19.253 77.1877ZM26.6077 85.5802C23.7797 85.4382 13.3875 85.1189 9.45 83.5946L39.7758 80.2111C40.0064 81.4472 40.223 82.3613 40.7869 82.7761C41.1131 83.018 41.6081 83.1319 42.3394 83.1319C42.9188 83.1319 47.2992 82.7593 47.5664 81.3685C47.6958 80.6963 47.475 80.0494 47.1502 79.3871L64.6861 77.431C65.0039 77.9569 65.4314 78.4449 66.0234 78.8653C66.3202 79.0763 66.7434 79.1733 67.3552 79.1733C68.7727 79.1733 71.9452 78.4927 72.6666 77.4211C72.7544 77.2913 72.8118 77.1433 72.8345 76.9882C72.8571 76.8331 72.8444 76.6749 72.7973 76.5253L77.7839 75.9699C79.9734 76.9093 81.8916 76.9641 81.8916 77.0682C81.8902 80.1014 58.2919 87.1875 26.6077 85.5802Z" fill="#1E293B"/>
</g>
</g>
<defs>
<filter id="filter0_d_467_439" x="75.2583" y="32.7394" width="10.9658" height="9.36182" filterUnits="userSpaceOnUse" color-interpolation-filters="sRGB">
<feFlood flood-opacity="0" result="BackgroundImageFix"/>
<feColorMatrix in="SourceAlpha" type="matrix" values="0 0 0 0 0 0 0 0 0 0 0 0 0 0 0 0 0 0 127 0" result="hardAlpha"/>
<feOffset dx="2" dy="2"/>
<feGaussianBlur stdDeviation="2"/>
<feComposite in2="hardAlpha" operator="out"/>
<feColorMatrix type="matrix" values="0 0 0 0 0 0 0 0 0 0 0 0 0 0 0 0 0 0 0.25 0"/>
<feBlend mode="normal" in2="BackgroundImageFix" result="effect1_dropShadow_467_439"/>
<feBlend mode="normal" in="SourceGraphic" in2="effect1_dropShadow_467_439" result="shape"/>
</filter>
<filter id="filter1_d_467_439" x="51.4443" y="36.1782" width="9.43164" height="9.2262" filterUnits="userSpaceOnUse" color-interpolation-filters="sRGB">
<feFlood flood-opacity="0" result="BackgroundImageFix"/>
<feColorMatrix in="SourceAlpha" type="matrix" values="0 0 0 0 0 0 0 0 0 0 0 0 0 0 0 0 0 0 127 0" result="hardAlpha"/>
<feOffset dx="2" dy="2"/>
<feGaussianBlur stdDeviation="2"/>
<feComposite in2="hardAlpha" operator="out"/>
<feColorMatrix type="matrix" values="0 0 0 0 0 0 0 0 0 0 0 0 0 0 0 0 0 0 0.25 0"/>
<feBlend mode="normal" in2="BackgroundImageFix" result="effect1_dropShadow_467_439"/>
<feBlend mode="normal" in="SourceGraphic" in2="effect1_dropShadow_467_439" result="shape"/>
</filter>
<filter id="filter2_d_467_439" x="41.2705" y="34.772" width="9.42871" height="9.2262" filterUnits="userSpaceOnUse" color-interpolation-filters="sRGB">
<feFlood flood-opacity="0" result="BackgroundImageFix"/>
<feColorMatrix in="SourceAlpha" type="matrix" values="0 0 0 0 0 0 0 0 0 0 0 0 0 0 0 0 0 0 127 0" result="hardAlpha"/>
<feOffset dx="2" dy="2"/>
<feGaussianBlur stdDeviation="2"/>
<feComposite in2="hardAlpha" operator="out"/>
<feColorMatrix type="matrix" values="0 0 0 0 0 0 0 0 0 0 0 0 0 0 0 0 0 0 0.25 0"/>
<feBlend mode="normal" in2="BackgroundImageFix" result="effect1_dropShadow_467_439"/>
<feBlend mode="normal" in="SourceGraphic" in2="effect1_dropShadow_467_439" result="shape"/>
</filter>
<filter id="filter3_d_467_439" x="37.6084" y="33.3376" width="37.5103" height="12.0964" filterUnits="userSpaceOnUse" color-interpolation-filters="sRGB">
<feFlood flood-opacity="0" result="BackgroundImageFix"/>
<feColorMatrix in="SourceAlpha" type="matrix" values="0 0 0 0 0 0 0 0 0 0 0 0 0 0 0 0 0 0 127 0" result="hardAlpha"/>
<feOffset dx="2" dy="2"/>
<feGaussianBlur stdDeviation="2"/>
<feComposite in2="hardAlpha" operator="out"/>
<feColorMatrix type="matrix" values="0 0 0 0 0 0 0 0 0 0 0 0 0 0 0 0 0 0 0.25 0"/>
<feBlend mode="normal" in2="BackgroundImageFix" result="effect1_dropShadow_467_439"/>
<feBlend mode="normal" in="SourceGraphic" in2="effect1_dropShadow_467_439" result="shape"/>
</filter>
<filter id="filter4_d_467_439" x="45.2568" y="13.269" width="11.6001" height="11.6" filterUnits="userSpaceOnUse" color-interpolation-filters="sRGB">
<feFlood flood-opacity="0" result="BackgroundImageFix"/>
<feColorMatrix in="SourceAlpha" type="matrix" values="0 0 0 0 0 0 0 0 0 0 0 0 0 0 0 0 0 0 127 0" result="hardAlpha"/>
<feOffset dx="2" dy="2"/>
<feGaussianBlur stdDeviation="2"/>
<feComposite in2="hardAlpha" operator="out"/>
<feColorMatrix type="matrix" values="0 0 0 0 0 0 0 0 0 0 0 0 0 0 0 0 0 0 0.25 0"/>
<feBlend mode="normal" in2="BackgroundImageFix" result="effect1_dropShadow_467_439"/>
<feBlend mode="normal" in="SourceGraphic" in2="effect1_dropShadow_467_439" result="shape"/>
</filter>
<filter id="filter5_d_467_439" x="54.0024" y="14.2816" width="11.6001" height="11.6" filterUnits="userSpaceOnUse" color-interpolation-filters="sRGB">
<feFlood flood-opacity="0" result="BackgroundImageFix"/>
<feColorMatrix in="SourceAlpha" type="matrix" values="0 0 0 0 0 0 0 0 0 0 0 0 0 0 0 0 0 0 127 0" result="hardAlpha"/>
<feOffset dx="2" dy="2"/>
<feGaussianBlur stdDeviation="2"/>
<feComposite in2="hardAlpha" operator="out"/>
<feColorMatrix type="matrix" values="0 0 0 0 0 0 0 0 0 0 0 0 0 0 0 0 0 0 0.25 0"/>
<feBlend mode="normal" in2="BackgroundImageFix" result="effect1_dropShadow_467_439"/>
<feBlend mode="normal" in="SourceGraphic" in2="effect1_dropShadow_467_439" result="shape"/>
</filter>
<filter id="filter6_d_467_439" x="47.5933" y="20.6178" width="14.3628" height="10.7554" filterUnits="userSpaceOnUse" color-interpolation-filters="sRGB">
<feFlood flood-opacity="0" result="BackgroundImageFix"/>
<feColorMatrix in="SourceAlpha" type="matrix" values="0 0 0 0 0 0 0 0 0 0 0 0 0 0 0 0 0 0 127 0" result="hardAlpha"/>
<feOffset dx="2" dy="2"/>
<feGaussianBlur stdDeviation="2"/>
<feComposite in2="hardAlpha" operator="out"/>
<feColorMatrix type="matrix" values="0 0 0 0 0 0 0 0 0 0 0 0 0 0 0 0 0 0 0.25 0"/>
<feBlend mode="normal" in2="BackgroundImageFix" result="effect1_dropShadow_467_439"/>
<feBlend mode="normal" in="SourceGraphic" in2="effect1_dropShadow_467_439" result="shape"/>
</filter>
<filter id="filter7_d_467_439" x="0.8125" y="0.81311" width="92.375" height="92.3744" filterUnits="userSpaceOnUse" color-interpolation-filters="sRGB">
<feFlood flood-opacity="0" result="BackgroundImageFix"/>
<feColorMatrix in="SourceAlpha" type="matrix" values="0 0 0 0 0 0 0 0 0 0 0 0 0 0 0 0 0 0 127 0" result="hardAlpha"/>
<feOffset dx="2" dy="2"/>
<feGaussianBlur stdDeviation="2"/>
<feComposite in2="hardAlpha" operator="out"/>
<feColorMatrix type="matrix" values="0 0 0 0 0 0 0 0 0 0 0 0 0 0 0 0 0 0 0.25 0"/>
<feBlend mode="normal" in2="BackgroundImageFix" result="effect1_dropShadow_467_439"/>
<feBlend mode="normal" in="SourceGraphic" in2="effect1_dropShadow_467_439" result="shape"/>
</filter>
<clipPath id="clip0_467_439">
<rect width="90" height="90" fill="white"/>
</clipPath>
</defs>
</svg>
