<svg width="150" height="150" viewBox="0 0 150 150" fill="none" xmlns="http://www.w3.org/2000/svg">
<path d="M126.293 17.7656C109.301 4.31249 84.1874 10.4531 71.5428 21.5156C57.3866 33.8906 56.9881 53.4492 64.3592 69.4219L13.2889 119.543C11.2147 121.582 9.08188 136.172 9.18735 139.043L16.1014 143.871C16.1014 143.871 27.8084 147.375 32.9061 143.391C38.0038 139.406 42.4803 132.187 41.953 128.941C41.6483 127.078 42.0467 125.344 43.2538 124.16C44.7538 122.684 47.1444 122.437 49.5702 123.246C51.4334 123.867 53.5077 123.34 54.9022 121.969L55.3944 121.488C57.3749 119.637 57.5975 117.48 57.2108 115.676C56.6131 112.875 57.6327 110.555 59.203 108.504C60.5624 106.723 63.1405 105.973 65.3905 105.938C69.4452 105.879 72.0702 105.012 74.9413 102.199L82.4178 94.8867C99.2459 102.387 119.883 99 133.277 84.7148C150.457 66.3867 146.062 33.4219 126.293 17.7656ZM116.168 56.8476C111.48 61.4414 103.887 61.4414 99.1991 56.8476C94.5116 52.2539 94.5116 44.7891 99.1991 40.1953C103.887 35.6016 111.48 35.6016 116.168 40.1953C120.855 44.7891 120.855 52.2539 116.168 56.8476Z" fill="#9E740B"/>
<path d="M126.293 17.7656C108.855 0.328125 80.5894 0.328125 63.1519 17.7656C49.8043 31.1133 46.6871 50.7891 53.7652 67.1133L9.17535 111.422C8.13749 112.456 7.324 113.694 6.78566 115.057C6.24732 116.42 5.99568 117.879 6.04644 119.344L6.56206 133.113C9.10503 134.543 9.18706 139.055 9.18706 139.055L20.7886 139.945C23.7535 140.039 26.6246 138.902 28.7105 136.816L32.3902 133.137C34.6871 130.84 35.9878 127.594 35.4136 124.406C35.0503 122.426 35.4488 120.574 36.7027 119.32C38.1793 117.844 40.4879 117.562 42.8668 118.301C44.8472 118.922 47.0035 118.523 48.48 117.059L48.9839 116.555C50.9879 114.645 51.2105 112.43 50.8238 110.578C50.2261 107.695 51.2574 105.316 52.8277 103.207C54.1988 101.367 56.8121 100.605 59.0738 100.57C63.1636 100.512 65.8238 99.6211 68.7183 96.7266L75.7261 89.7539C92.2847 97.5469 112.628 94.6055 126.316 80.918C143.73 63.4688 143.73 35.2031 126.293 17.7656ZM110.355 50.8359C105.621 55.5703 97.9449 55.5703 93.2222 50.8359C88.4879 46.1016 88.4879 38.4258 93.2222 33.7031C97.9566 28.9688 105.632 28.9688 110.355 33.7031C115.089 38.4258 115.089 46.1016 110.355 50.8359Z" fill="#FFCA28"/>
<path d="M6.5625 133.113C6.5625 133.113 8.01563 134.098 9.1875 139.055L64.8281 82.4883C66.6445 80.4961 58.5 81.5274 56.0625 83.9531L6.5625 133.113Z" fill="#DBA010"/>
<path d="M70.8162 23.3438C66.2458 25.8281 61.0896 32.4844 59.6716 42.0938C58.3826 50.8125 58.9333 56.8711 61.863 61.9688C65.1794 67.7227 69.6912 64.6758 67.8747 59.0742C66.6794 55.3828 66.3747 53.9883 66.2107 50.0742C66.0818 47.0156 66.3982 43.9336 67.2654 41.0039C69.4216 33.7383 74.4255 28.9688 75.8904 26.6133C77.7537 23.6016 74.8122 21.1524 70.8162 23.3438ZM38.7302 93.4219C35.4021 96.2578 38.8474 87.4336 41.4021 84.457C44.7654 80.5195 52.7341 72.1641 54.1404 71.4492C56.0622 70.4766 55.9451 75.8438 55.1599 76.8281C52.3708 80.2734 42.0701 90.586 38.7302 93.4219Z" fill="#FFF59D"/>
</svg>
