<svg width="90" height="90" viewBox="0 0 90 90" fill="none" xmlns="http://www.w3.org/2000/svg">
<g filter="url(#filter0_d_445_444)">
<path fill-rule="evenodd" clip-rule="evenodd" d="M47 4.8125C47 4.06658 46.7037 3.35121 46.1762 2.82376C45.6488 2.29632 44.9334 2 44.1875 2C43.4416 2 42.7262 2.29632 42.1988 2.82376C41.6713 3.35121 41.375 4.06658 41.375 4.8125V10.4375C41.375 11.1834 41.6713 11.8988 42.1988 12.4262C42.7262 12.9537 43.4416 13.25 44.1875 13.25C44.9334 13.25 45.6488 12.9537 46.1762 12.4262C46.7037 11.8988 47 11.1834 47 10.4375V4.8125ZM83.5625 47C84.3084 47 85.0238 46.7037 85.5512 46.1762C86.0787 45.6488 86.375 44.9334 86.375 44.1875C86.375 43.4416 86.0787 42.7262 85.5512 42.1988C85.0238 41.6713 84.3084 41.375 83.5625 41.375H77.9375C77.1916 41.375 76.4762 41.6713 75.9488 42.1988C75.4213 42.7262 75.125 43.4416 75.125 44.1875C75.125 44.9334 75.4213 45.6488 75.9488 46.1762C76.4762 46.7037 77.1916 47 77.9375 47H83.5625ZM13.25 44.1875C13.25 44.9334 12.9537 45.6488 12.4262 46.1762C11.8988 46.7037 11.1834 47 10.4375 47H4.8125C4.06658 47 3.35121 46.7037 2.82376 46.1762C2.29632 45.6488 2 44.9334 2 44.1875C2 43.4416 2.29632 42.7262 2.82376 42.1988C3.35121 41.6713 4.06658 41.375 4.8125 41.375H10.4375C11.1834 41.375 11.8988 41.6713 12.4262 42.1988C12.9537 42.7262 13.25 43.4416 13.25 44.1875ZM18.3331 22.3119C18.8607 22.8395 19.5763 23.1359 20.3225 23.1359C21.0687 23.1359 21.7843 22.8395 22.3119 22.3119C22.8395 21.7843 23.1359 21.0687 23.1359 20.3225C23.1359 19.5763 22.8395 18.8607 22.3119 18.3331L18.3331 14.3581C18.0749 14.085 17.7645 13.8663 17.4203 13.7152C17.0761 13.564 16.7051 13.4834 16.3292 13.4781C15.9533 13.4728 15.5801 13.5429 15.2318 13.6842C14.8835 13.8256 14.567 14.0353 14.3011 14.3011C14.0352 14.5669 13.8253 14.8832 13.6838 15.2315C13.5423 15.5798 13.472 15.9529 13.4772 16.3288C13.4823 16.7046 13.5627 17.0757 13.7137 17.42C13.8647 17.7642 14.0832 18.0747 14.3563 18.3331L18.3331 22.3119ZM66.0631 22.3119C66.3243 22.5732 66.6344 22.7806 66.9758 22.922C67.3171 23.0635 67.683 23.1363 68.0525 23.1363C68.422 23.1363 68.7879 23.0635 69.1292 22.922C69.4706 22.7806 69.7807 22.5732 70.0419 22.3119L74.0188 18.3331C74.2918 18.0747 74.5103 17.7642 74.6613 17.42C74.8123 17.0757 74.8927 16.7046 74.8978 16.3288C74.903 15.9529 74.8327 15.5798 74.6912 15.2315C74.5497 14.8832 74.3398 14.5669 74.0739 14.3011C73.808 14.0353 73.4915 13.8256 73.1432 13.6842C72.7949 13.5429 72.4217 13.4728 72.0458 13.4781C71.6699 13.4834 71.2989 13.564 70.9547 13.7152C70.6105 13.8663 70.3001 14.085 70.0419 14.3581L66.0631 18.3331C65.8018 18.5943 65.5944 18.9044 65.453 19.2458C65.3115 19.5871 65.2387 19.953 65.2387 20.3225C65.2387 20.692 65.3115 21.0579 65.453 21.3992C65.5944 21.7406 65.8018 22.0507 66.0631 22.3119ZM44.1875 17C29.1725 17 17 29.1725 17 44.1875C17 45.3737 17.0744 46.5394 17.2231 47.6844C20.0179 47.5249 22.788 48.2856 25.1094 49.85C26.9225 51.08 28.9944 51.6875 31.0625 51.6875C33.1864 51.6867 35.2608 51.0464 37.0156 49.85C39.1362 48.4256 41.6329 47.665 44.1875 47.665C46.7421 47.665 49.2388 48.4256 51.3594 49.85C53.1725 51.08 55.2444 51.6875 57.3125 51.6875C59.4364 51.6867 61.5108 51.0464 63.2656 49.85C65.587 48.2856 68.3571 47.5249 71.1519 47.6844C71.3006 46.5394 71.375 45.3737 71.375 44.1875C71.375 29.1725 59.2025 17 44.1875 17ZM74.9788 53.7312C73.6345 52.8332 72.0541 52.3539 70.4375 52.3539C68.8209 52.3539 67.2405 52.8332 65.8962 53.7312C63.3649 55.4535 60.3742 56.3746 57.3125 56.375C54.3219 56.375 51.3313 55.4937 48.7288 53.7312C47.3845 52.8332 45.8041 52.3539 44.1875 52.3539C42.5709 52.3539 40.9905 52.8332 39.6462 53.7312C37.1149 55.4535 34.1242 56.3746 31.0625 56.375C28.0719 56.375 25.0812 55.4937 22.4788 53.7312C21.1345 52.8332 19.5541 52.3539 17.9375 52.3539C16.3209 52.3539 14.7405 52.8332 13.3962 53.7312C10.8649 55.4535 7.87415 56.3746 4.8125 56.375C4.06658 56.375 3.35121 56.6713 2.82376 57.1988C2.29632 57.7262 2 58.4416 2 59.1875C2 62.4312 2.21562 66.0762 2.50062 69.4756H5.67313C8.43743 69.3177 11.1069 68.4117 13.3962 66.8544C16.1056 65.0169 19.7712 65.0169 22.4788 66.8544C25.0099 68.5773 28.0007 69.4991 31.0625 69.5C34.0531 69.5 37.0437 68.6187 39.6462 66.8562C42.3556 65.0187 46.0213 65.0187 48.7288 66.8562C51.2601 68.5785 54.2508 69.4996 57.3125 69.5C60.3031 69.5 63.2937 68.6187 65.8962 66.8562C68.6056 65.0187 72.2712 65.0187 74.9788 66.8562C77.2683 68.4129 79.9378 69.3182 82.7019 69.4756H85.8744C86.1594 66.0762 86.375 62.4294 86.375 59.1875C86.375 58.4416 86.0787 57.7262 85.5512 57.1988C85.0238 56.6713 84.3084 56.375 83.5625 56.375C80.5719 56.375 77.5813 55.4937 74.9788 53.7312ZM82.625 75.0987H85.2406C84.6288 77.8429 83.1507 80.3175 81.0246 82.1572C78.8986 83.997 76.2373 85.1043 73.4337 85.3156C66.9181 85.8219 56.9225 86.3731 44.1875 86.3731C31.4525 86.3731 21.4569 85.8237 14.9413 85.3156C12.1377 85.1043 9.4764 83.997 7.35036 82.1572C5.22432 80.3175 3.74624 77.8429 3.13438 75.0987H5.75L5.89625 75.095C9.70966 74.8951 13.3955 73.6546 16.5538 71.5081C16.9661 71.2417 17.4466 71.1 17.9375 71.1C18.4284 71.1 18.9089 71.2417 19.3212 71.5081C22.7839 73.8635 26.8747 75.1237 31.0625 75.125C35.1594 75.125 39.2544 73.9175 42.8037 71.51C43.2161 71.2436 43.6966 71.1019 44.1875 71.1019C44.6784 71.1019 45.1589 71.2436 45.5713 71.51C49.0341 73.8647 53.1249 75.1242 57.3125 75.125C61.4094 75.125 65.5044 73.9175 69.0537 71.51C69.4661 71.2436 69.9466 71.1019 70.4375 71.1019C70.9284 71.1019 71.4089 71.2436 71.8213 71.51C75.021 73.6833 78.7609 74.9244 82.625 75.0987Z" fill="#1E293B"/>
</g>
<defs>
<filter id="filter0_d_445_444" x="0" y="0" width="92.375" height="92.3731" filterUnits="userSpaceOnUse" color-interpolation-filters="sRGB">
<feFlood flood-opacity="0" result="BackgroundImageFix"/>
<feColorMatrix in="SourceAlpha" type="matrix" values="0 0 0 0 0 0 0 0 0 0 0 0 0 0 0 0 0 0 127 0" result="hardAlpha"/>
<feOffset dx="2" dy="2"/>
<feGaussianBlur stdDeviation="2"/>
<feComposite in2="hardAlpha" operator="out"/>
<feColorMatrix type="matrix" values="0 0 0 0 0 0 0 0 0 0 0 0 0 0 0 0 0 0 0.25 0"/>
<feBlend mode="normal" in2="BackgroundImageFix" result="effect1_dropShadow_445_444"/>
<feBlend mode="normal" in="SourceGraphic" in2="effect1_dropShadow_445_444" result="shape"/>
</filter>
</defs>
</svg>
