<svg width="80" height="77" viewBox="0 0 80 77" fill="none" xmlns="http://www.w3.org/2000/svg">
<g filter="url(#filter0_d_545_828)">
<path d="M42.1525 3.50501C43.4859 2.52514 45.0978 1.99774 46.7525 2.00001C51.03 2.00001 54.5 5.40251 54.5 9.59501V12H59.5V10.75C59.5 9.0924 60.1585 7.50269 61.3306 6.33059C62.5027 5.15849 64.0924 4.50001 65.75 4.50001C70.75 4.50001 77 7.00001 77 17C77 25 69.5 28.6675 65.75 29.5C54.9175 28.6675 36 27 47 27H32C43 27 24.0825 28.6675 13.25 29.5C9.5 28.6675 2 25 2 17C2 7.00001 8.25 4.50001 13.25 4.50001C14.9076 4.50001 16.4973 5.15849 17.6694 6.33059C18.8415 7.50269 19.5 9.0924 19.5 10.75V12H24.5V9.59501C24.5 5.40251 27.97 2.00001 32.245 2.00001C33.98 2.00001 35.565 2.56751 36.845 3.50501C37.5569 4.19342 38.5084 4.57826 39.4987 4.57826C40.4891 4.57826 41.4406 4.19342 42.1525 3.50501Z" fill="#1E293B"/>
</g>
<g filter="url(#filter1_d_545_828)">
<path d="M17.685 22.57C22.535 24.8675 29.685 27 39.5 27C49.315 27 56.465 24.865 61.315 22.57C66.775 28.05 69.5 35.85 69.5 44.5C69.5 61.08 59.4925 74.5 39.5 74.5C19.5075 74.5 9.5 61.08 9.5 44.5C9.5 35.84 12.23 28.045 17.685 22.57Z" fill="#64748B"/>
</g>
<path d="M37 33.25C37 35.5706 36.0781 37.7962 34.4372 39.4372C32.7962 41.0781 30.5706 42 28.25 42C25.9294 42 23.7038 41.0781 22.0628 39.4372C20.4219 37.7962 19.5 35.5706 19.5 33.25C19.5 30.9294 20.4219 28.7038 22.0628 27.0628C23.7038 25.4219 25.9294 24.5 28.25 24.5C30.5706 24.5 32.7962 25.4219 34.4372 27.0628C36.0781 28.7038 37 30.9294 37 33.25ZM59.5 33.25C59.5 35.5706 58.5781 37.7962 56.9372 39.4372C55.2962 41.0781 53.0706 42 50.75 42C48.4294 42 46.2038 41.0781 44.5628 39.4372C42.9219 37.7962 42 35.5706 42 33.25C42 30.9294 42.9219 28.7038 44.5628 27.0628C46.2038 25.4219 48.4294 24.5 50.75 24.5C53.0706 24.5 55.2962 25.4219 56.9372 27.0628C58.5781 28.7038 59.5 30.9294 59.5 33.25Z" fill="white"/>
<path d="M35.75 34.5C35.75 36.1576 35.0915 37.7473 33.9194 38.9194C32.7473 40.0915 31.1576 40.75 29.5 40.75C27.8424 40.75 26.2527 40.0915 25.0806 38.9194C23.9085 37.7473 23.25 36.1576 23.25 34.5C23.25 32.8424 23.9085 31.2527 25.0806 30.0806C26.2527 28.9085 27.8424 28.25 29.5 28.25C31.1576 28.25 32.7473 28.9085 33.9194 30.0806C35.0915 31.2527 35.75 32.8424 35.75 34.5ZM55.75 34.5C55.75 36.1576 55.0915 37.7473 53.9194 38.9194C52.7473 40.0915 51.1576 40.75 49.5 40.75C47.8424 40.75 46.2527 40.0915 45.0806 38.9194C43.9085 37.7473 43.25 36.1576 43.25 34.5C43.25 32.8424 43.9085 31.2527 45.0806 30.0806C46.2527 28.9085 47.8424 28.25 49.5 28.25C51.1576 28.25 52.7473 28.9085 53.9194 30.0806C55.0915 31.2527 55.75 32.8424 55.75 34.5Z" fill="#1E293B"/>
<path d="M59.5002 12H19.5002V14.5C19.2102 17.3925 20.0452 22.29 24.2602 25.0175C28.3802 26.185 33.4302 27 39.5002 27C45.5702 27 50.6202 26.185 54.7377 25.0175C58.9552 22.2925 59.7877 17.3925 59.5002 14.5V12Z" fill="#1E293B"/>
<path d="M24.5 9.5H54.5V12H24.5V9.5Z" fill="#E6502C"/>
<path d="M39.5 67C19.5 67 19.5 47 19.5 47H59.5C59.5 47 59.5 67 39.5 67Z" fill="#FF5F38"/>
<path d="M22 48.25V47H57V48.25C57 48.913 56.7366 49.5489 56.2678 50.0178C55.7989 50.4866 55.163 50.75 54.5 50.75H24.5C23.837 50.75 23.2011 50.4866 22.7322 50.0178C22.2634 49.5489 22 48.913 22 48.25Z" fill="white"/>
<defs>
<filter id="filter0_d_545_828" x="0" y="0" width="83" height="35.5" filterUnits="userSpaceOnUse" color-interpolation-filters="sRGB">
<feFlood flood-opacity="0" result="BackgroundImageFix"/>
<feColorMatrix in="SourceAlpha" type="matrix" values="0 0 0 0 0 0 0 0 0 0 0 0 0 0 0 0 0 0 127 0" result="hardAlpha"/>
<feOffset dx="2" dy="2"/>
<feGaussianBlur stdDeviation="2"/>
<feComposite in2="hardAlpha" operator="out"/>
<feColorMatrix type="matrix" values="0 0 0 0 0 0 0 0 0 0 0 0 0 0 0 0 0 0 0.25 0"/>
<feBlend mode="normal" in2="BackgroundImageFix" result="effect1_dropShadow_545_828"/>
<feBlend mode="normal" in="SourceGraphic" in2="effect1_dropShadow_545_828" result="shape"/>
</filter>
<filter id="filter1_d_545_828" x="7.5" y="20.57" width="68" height="59.93" filterUnits="userSpaceOnUse" color-interpolation-filters="sRGB">
<feFlood flood-opacity="0" result="BackgroundImageFix"/>
<feColorMatrix in="SourceAlpha" type="matrix" values="0 0 0 0 0 0 0 0 0 0 0 0 0 0 0 0 0 0 127 0" result="hardAlpha"/>
<feOffset dx="2" dy="2"/>
<feGaussianBlur stdDeviation="2"/>
<feComposite in2="hardAlpha" operator="out"/>
<feColorMatrix type="matrix" values="0 0 0 0 0 0 0 0 0 0 0 0 0 0 0 0 0 0 0.25 0"/>
<feBlend mode="normal" in2="BackgroundImageFix" result="effect1_dropShadow_545_828"/>
<feBlend mode="normal" in="SourceGraphic" in2="effect1_dropShadow_545_828" result="shape"/>
</filter>
</defs>
</svg>
