<svg width="90" height="90" viewBox="0 0 90 90" fill="none" xmlns="http://www.w3.org/2000/svg">
<g filter="url(#filter0_d_467_643)">
<path d="M79.7063 20.1938L90.0001 9.9L80.1001 0L69.8063 10.2937V15.075L59.6813 25.3688C55.8779 22.4814 51.2887 20.8144 46.5188 20.5875C43.62 20.4469 40.7236 20.9092 38.0126 21.9452C35.3016 22.9811 32.8351 24.5683 30.7688 26.6063C28.4491 28.754 26.5426 31.3087 25.1438 34.1437C24.8862 34.8829 24.4403 35.5421 23.8501 36.0562C23.121 36.1357 22.3854 36.1357 21.6563 36.0562C19.1397 35.6664 16.566 35.8927 14.156 36.7156C11.746 37.5386 9.57146 38.9336 7.81882 40.7812C5.20141 43.3851 3.15457 46.5051 1.80848 49.943C0.462398 53.3808 -0.153466 57.0612 6.82231e-05 60.75C0.371781 68.5621 3.70986 75.9382 9.33341 81.3736C14.957 86.809 22.4423 89.8942 30.2626 90C33.796 90.0284 37.3001 89.3571 40.5729 88.0248C43.8456 86.6926 46.8223 84.7256 49.3313 82.2375C51.1689 80.4793 52.5534 78.3023 53.3664 75.8926C54.1795 73.4828 54.3969 70.9121 54.0001 68.4C53.9206 67.6709 53.9206 66.9353 54.0001 66.2063C54.5223 65.6252 55.1789 65.181 55.9126 64.9125C58.7615 63.5365 61.3202 61.627 63.4501 59.2875C65.4893 57.2339 67.0779 54.7775 68.1142 52.0752C69.1505 49.373 69.6119 46.4843 69.4688 43.5938C69.2895 38.7973 67.618 34.1764 64.6876 30.375L74.9813 20.0812L79.7063 20.1938ZM62.5501 43.7625C62.6589 45.7111 62.3544 47.6607 61.6564 49.4833C60.9584 51.3058 59.8827 52.9601 58.5001 54.3375C56.9366 56.1606 55.024 57.6524 52.8751 58.725C51.4013 59.3076 50.0756 60.2106 48.9938 61.3687C48.121 62.3959 47.4948 63.6092 47.1633 64.9157C46.8318 66.2222 46.8037 67.5872 47.0813 68.9062C47.4074 70.4346 47.3299 72.0215 46.8565 73.5108C46.3831 75.0001 45.5301 76.3405 44.3813 77.4C40.1526 81.2794 34.56 83.327 28.826 83.0951C23.092 82.8632 17.683 80.3707 13.7813 76.1625C9.55598 72.0011 7.06378 66.3937 6.80632 60.4688C6.67066 57.7311 7.10007 54.9948 8.0678 52.4303C9.03553 49.8658 10.5209 47.528 12.4313 45.5625C13.4941 44.4183 14.8348 43.5684 16.3231 43.0953C17.8113 42.6222 19.3967 42.542 20.9251 42.8625C22.2439 43.1444 23.61 43.1185 24.9172 42.7868C26.2245 42.4551 27.4376 41.8266 28.4626 40.95C29.6036 39.8418 30.5204 38.524 31.1626 37.0688C32.1911 34.9078 33.6675 32.9904 35.4938 31.4438C36.8733 30.064 38.528 28.9903 40.35 28.2925C42.172 27.5947 44.1206 27.2885 46.0688 27.3937C49.1209 27.5399 52.076 28.512 54.6188 30.2062L41.6251 43.4813L46.5751 48.4312L59.7376 35.2125C61.4319 37.7553 62.4039 40.7104 62.5501 43.7625Z" fill="#1E293B"/>
</g>
<defs>
<filter id="filter0_d_467_643" x="-2.02295" y="-2" width="98.0229" height="98.0009" filterUnits="userSpaceOnUse" color-interpolation-filters="sRGB">
<feFlood flood-opacity="0" result="BackgroundImageFix"/>
<feColorMatrix in="SourceAlpha" type="matrix" values="0 0 0 0 0 0 0 0 0 0 0 0 0 0 0 0 0 0 127 0" result="hardAlpha"/>
<feOffset dx="2" dy="2"/>
<feGaussianBlur stdDeviation="2"/>
<feComposite in2="hardAlpha" operator="out"/>
<feColorMatrix type="matrix" values="0 0 0 0 0 0 0 0 0 0 0 0 0 0 0 0 0 0 0.25 0"/>
<feBlend mode="normal" in2="BackgroundImageFix" result="effect1_dropShadow_467_643"/>
<feBlend mode="normal" in="SourceGraphic" in2="effect1_dropShadow_467_643" result="shape"/>
</filter>
</defs>
</svg>
