<svg width="80" height="79" viewBox="0 0 80 79" fill="none" xmlns="http://www.w3.org/2000/svg">
<g filter="url(#filter0_d_545_749)">
<path d="M71.4247 14.4067C71.4247 14.4067 70.6934 12.9505 69.2122 12.1005C67.1934 10.9442 66.4497 7.30048 64.8809 5.24423C62.9809 2.75673 59.9497 2.00673 58.5309 2.00048C55.7434 1.97548 53.7872 2.91298 51.8309 6.14423C51.1559 7.25048 24.8622 54.3942 24.8622 54.3942C25.9934 51.4317 26.8747 47.8567 27.6309 44.788C28.3247 42.0005 28.4309 40.5442 29.5497 36.3817C30.0559 34.4942 32.0684 31.5317 31.6809 28.8255C31.0559 24.513 25.3497 21.0755 14.9059 21.5942C3.63092 22.1567 -0.187834 27.1005 0.374666 31.263C0.812166 34.4692 4.87467 36.4067 5.46217 40.838C5.70592 42.6817 5.05592 45.9317 4.33717 49.3942C1.83092 61.413 5.30592 71.6067 13.8122 74.4817C22.4497 77.4067 32.5247 74.7317 37.0934 64.2067C40.2684 56.9067 52.6309 25.8817 54.1622 21.7942C55.5372 18.138 58.4622 10.1567 59.2809 10.613C60.2059 11.1255 61.5684 14.9692 66.2309 16.3755C69.4997 17.3692 74.0497 17.3755 74.0497 17.3755L71.4247 14.4067ZM16.8684 34.3067C11.4747 34.463 6.88092 32.6942 6.61217 30.3567C6.34342 28.013 10.5059 25.988 15.9122 25.8192C21.2997 25.6567 25.8997 27.4255 26.1684 29.763C26.4372 32.113 22.2809 34.1442 16.8684 34.3067Z" fill="#1E293B"/>
</g>
<defs>
<filter id="filter0_d_545_749" x="-1.67871" y="0" width="81.7285" height="81.5903" filterUnits="userSpaceOnUse" color-interpolation-filters="sRGB">
<feFlood flood-opacity="0" result="BackgroundImageFix"/>
<feColorMatrix in="SourceAlpha" type="matrix" values="0 0 0 0 0 0 0 0 0 0 0 0 0 0 0 0 0 0 127 0" result="hardAlpha"/>
<feOffset dx="2" dy="2"/>
<feGaussianBlur stdDeviation="2"/>
<feComposite in2="hardAlpha" operator="out"/>
<feColorMatrix type="matrix" values="0 0 0 0 0 0 0 0 0 0 0 0 0 0 0 0 0 0 0.25 0"/>
<feBlend mode="normal" in2="BackgroundImageFix" result="effect1_dropShadow_545_749"/>
<feBlend mode="normal" in="SourceGraphic" in2="effect1_dropShadow_545_749" result="shape"/>
</filter>
</defs>
</svg>
