<svg width="90" height="90" viewBox="0 0 90 90" fill="none" xmlns="http://www.w3.org/2000/svg">
<path d="M56.25 35.625C56.25 38.6087 55.0647 41.4702 52.955 43.58C50.8452 45.6897 47.9837 46.875 45 46.875C42.0163 46.875 39.1548 45.6897 37.045 43.58C34.9353 41.4702 33.75 38.6087 33.75 35.625C33.75 32.6413 34.9353 29.7798 37.045 27.67C39.1548 25.5603 42.0163 24.375 45 24.375C47.9837 24.375 50.8452 25.5603 52.955 27.67C55.0647 29.7798 56.25 32.6413 56.25 35.625Z" stroke="#E6502C" stroke-width="4"/>
<path d="M45 7.5C60.2213 7.5 73.125 20.355 73.125 35.9512C73.125 51.795 60.0112 62.9137 47.8987 70.4737C47.0169 70.9811 46.0174 71.2482 45 71.2482C43.9826 71.2482 42.9831 70.9811 42.1013 70.4737C30.0113 62.8387 16.875 51.8512 16.875 35.9512C16.875 20.355 29.7787 7.5 45 7.5Z" stroke="#E6502C" stroke-width="4"/>
<path d="M67.5 75C67.5 79.1438 57.4275 82.5 45 82.5C32.5725 82.5 22.5 79.1438 22.5 75" stroke="#E6502C" stroke-width="4" stroke-linecap="round"/>
</svg>
