<svg width="70" height="70" viewBox="0 0 70 70" fill="none" xmlns="http://www.w3.org/2000/svg">
<g filter="url(#filter0_d_554_1059)">
<path fill-rule="evenodd" clip-rule="evenodd" d="M40.8333 8.74998V12.25H12.25V57.75H57.75V29.1666H61.25V58.3333C61.25 59.1069 60.9427 59.8487 60.3957 60.3957C59.8487 60.9427 59.1069 61.25 58.3333 61.25H11.6667C10.8931 61.25 10.1513 60.9427 9.60427 60.3957C9.05729 59.8487 8.75 59.1069 8.75 58.3333V11.6666C8.75 10.8931 9.05729 10.1512 9.60427 9.60425C10.1513 9.05727 10.8931 8.74998 11.6667 8.74998H40.8333ZM57.925 8.00914C58.1984 7.73664 58.5686 7.58362 58.9546 7.58362C59.3406 7.58362 59.7108 7.73664 59.9842 8.00914L62.0433 10.0654C62.3158 10.3388 62.4689 10.709 62.4689 11.095C62.4689 11.481 62.3158 11.8512 62.0433 12.1246L34.3058 39.8621L27.5479 43.6391C27.3812 43.7308 27.1892 43.7656 27.0009 43.7384C26.8127 43.7111 26.6384 43.6233 26.5046 43.4881C26.3707 43.3529 26.2846 43.1778 26.2591 42.9893C26.2337 42.8008 26.2705 42.6091 26.3637 42.4433L30.1904 35.7466L57.925 8.00914Z" fill="#1E293B"/>
</g>
<defs>
<filter id="filter0_d_554_1059" x="6.75" y="5.58362" width="61.7188" height="61.6664" filterUnits="userSpaceOnUse" color-interpolation-filters="sRGB">
<feFlood flood-opacity="0" result="BackgroundImageFix"/>
<feColorMatrix in="SourceAlpha" type="matrix" values="0 0 0 0 0 0 0 0 0 0 0 0 0 0 0 0 0 0 127 0" result="hardAlpha"/>
<feOffset dx="2" dy="2"/>
<feGaussianBlur stdDeviation="2"/>
<feComposite in2="hardAlpha" operator="out"/>
<feColorMatrix type="matrix" values="0 0 0 0 0 0 0 0 0 0 0 0 0 0 0 0 0 0 0.25 0"/>
<feBlend mode="normal" in2="BackgroundImageFix" result="effect1_dropShadow_554_1059"/>
<feBlend mode="normal" in="SourceGraphic" in2="effect1_dropShadow_554_1059" result="shape"/>
</filter>
</defs>
</svg>
