<svg width="40" height="40" viewBox="0 0 40 40" fill="none" xmlns="http://www.w3.org/2000/svg">
<circle cx="20" cy="20" r="19.5" fill="#FF5F38" stroke="#FF5F38"/>
<path d="M16.2502 25.2125L11.9127 20.875C11.679 20.6413 11.362 20.5099 11.0314 20.5099C10.7009 20.5099 10.3839 20.6413 10.1502 20.875C9.91646 21.1087 9.78516 21.4257 9.78516 21.7562C9.78516 21.9199 9.81739 22.0819 9.88002 22.2332C9.94265 22.3844 10.0345 22.5217 10.1502 22.6375L15.3752 27.8625C15.8627 28.35 16.6502 28.35 17.1377 27.8625L30.3627 14.6375C30.5964 14.4038 30.7277 14.0868 30.7277 13.7562C30.7277 13.4257 30.5964 13.1087 30.3627 12.875C30.129 12.6413 29.812 12.5099 29.4814 12.5099C29.1509 12.5099 28.8339 12.6413 28.6002 12.875L16.2502 25.2125Z" fill="white"/>
</svg>
