<svg width="70" height="70" viewBox="0 0 70 70" fill="none" xmlns="http://www.w3.org/2000/svg">
<g clip-path="url(#clip0_512_597)">
<path d="M7.77778 9.72217C5.71498 9.72217 3.73667 10.5416 2.27806 12.0002C0.819442 13.4588 0 15.4372 0 17.4999L0 52.4999C0 54.5627 0.819442 56.541 2.27806 57.9997C3.73667 59.4583 5.71498 60.2777 7.77778 60.2777H21.3889V9.72217H7.77778Z" fill="#006847"/>
<path d="M62.2224 9.72217H48.6113V60.2777H62.2224C64.2852 60.2777 66.2635 59.4583 67.7222 57.9997C69.1808 56.541 70.0002 54.5627 70.0002 52.4999V17.4999C70.0002 15.4372 69.1808 13.4588 67.7222 12.0002C66.2635 10.5416 64.2852 9.72217 62.2224 9.72217Z" fill="#CE1126"/>
<path d="M21.3887 9.72217H48.6109V60.2777H21.3887V9.72217Z" fill="#EEEEEE"/>
<path d="M44.7224 35C44.7224 37.5785 43.6981 40.0514 41.8748 41.8746C40.0515 43.6979 37.5787 44.7222 35.0002 44.7222C32.4217 44.7222 29.9488 43.6979 28.1255 41.8746C26.3022 40.0514 25.2779 37.5785 25.2779 35H23.3335C23.3335 38.0942 24.5627 41.0617 26.7506 43.2496C28.9385 45.4375 31.906 46.6667 35.0002 46.6667C38.0944 46.6667 41.0618 45.4375 43.2497 43.2496C45.4377 41.0617 46.6668 38.0942 46.6668 35H44.7224Z" fill="#A6D388"/>
<path d="M26.3334 39.412C26.2753 39.2982 26.1954 39.1969 26.0982 39.114C26.001 39.0311 25.8885 38.9682 25.7669 38.9288C25.6454 38.8894 25.5173 38.8744 25.3899 38.8846C25.2626 38.8948 25.1385 38.9299 25.0248 38.9881C24.9108 39.0459 24.8094 39.1257 24.7263 39.2228C24.6432 39.32 24.58 39.4325 24.5405 39.5541C24.5009 39.6756 24.4857 39.8038 24.4958 39.9312C24.5058 40.0586 24.5409 40.1828 24.5989 40.2967C24.7739 40.6415 24.9658 40.9759 25.1745 41.3L25.1823 41.3136L25.1978 41.337L25.2037 41.3506L25.2056 41.3545L25.2134 41.3642L25.2192 41.3758V41.3797L25.225 41.3895L25.227 41.3933L25.2328 41.4031L25.2348 41.407L25.2406 41.4147L25.2445 41.4206L25.2484 41.4264L25.2503 41.4322L25.2562 41.442L25.2581 41.4439L25.262 41.4497L25.2678 41.4614L25.2698 41.4653L25.2756 41.475L25.2775 41.4789L25.2912 41.4983V41.5003L25.3009 41.5139C25.402 41.6617 25.5063 41.8101 25.6139 41.9553C25.6899 42.0574 25.7852 42.1435 25.8945 42.2086C26.0038 42.2738 26.1249 42.3167 26.2508 42.335C26.3767 42.3532 26.505 42.3464 26.6283 42.315C26.7516 42.2835 26.8674 42.228 26.9692 42.1517C27.1758 41.9979 27.313 41.7684 27.3505 41.5135C27.3881 41.2587 27.323 40.9994 27.1695 40.7925C26.8593 40.3522 26.5799 39.8909 26.3334 39.412ZM25.367 36.3358C25.2921 35.7994 25.2622 35.2576 25.2775 34.7161C25.2849 34.4586 25.1897 34.2086 25.0128 34.0212C24.836 33.8338 24.592 33.7243 24.3345 33.7167L24.2645 33.7186C24.0191 33.7293 23.7868 33.8325 23.6144 34.0075C23.442 34.1824 23.3422 34.4161 23.335 34.6617C23.3305 34.8632 23.3298 35.0648 23.3331 35.2664V35.4414L23.335 35.4511V35.5056L23.337 35.5114L23.335 35.5153V35.5211L23.337 35.525V35.5814L23.3389 35.5872V35.6086L23.3409 35.6456L23.3428 35.6631V35.6845C23.361 35.9956 23.3908 36.3047 23.4323 36.612C23.4685 36.866 23.6036 37.0955 23.8084 37.2503C24.0131 37.4051 24.2707 37.4727 24.525 37.4383C24.6529 37.4216 24.7761 37.3797 24.8877 37.3152C24.9993 37.2506 25.0971 37.1646 25.1753 37.0622C25.2535 36.9597 25.3108 36.8428 25.3437 36.7182C25.3766 36.5935 25.3845 36.4636 25.367 36.3358ZM35.6609 44.697L35.6492 44.6989L35.4081 44.7145C34.9475 44.7336 34.4862 44.7199 34.0275 44.6736C33.771 44.6478 33.5147 44.725 33.315 44.8882C33.1154 45.0514 32.9887 45.2872 32.963 45.5438C32.9372 45.8003 33.0144 46.0566 33.1775 46.2563C33.3407 46.4559 33.5765 46.5826 33.8331 46.6083L34.0762 46.6297L34.0839 46.6317L34.0878 46.6297L34.0937 46.6317H34.0975L34.1092 46.6336H34.1209L34.1267 46.6356L34.1403 46.6336L34.1462 46.6356H34.1559L34.1675 46.6375L34.1773 46.6395H34.2025L34.2142 46.6414H34.2395C34.535 46.6621 34.8325 46.6699 35.132 46.6647H35.2078L35.2214 46.6628L35.2331 46.6647H35.2623L35.272 46.6628H35.3089L35.3206 46.6608L35.3323 46.6628L35.3342 46.6608L35.3459 46.6628H35.3478L35.3575 46.6608H35.3731L35.3848 46.6589H35.3964L35.3984 46.6608L35.41 46.6589H35.4237L35.4334 46.657H35.4723L35.482 46.655H35.4898L35.4975 46.6531L35.5053 46.655H35.515L35.5228 46.6531H35.5325L35.7795 46.6395C36.0313 46.6191 36.265 46.5003 36.4298 46.3089C36.5947 46.1174 36.6775 45.8687 36.6603 45.6167C36.6553 45.4906 36.6255 45.3667 36.5725 45.2522C36.5195 45.1377 36.4444 45.0347 36.3516 44.9493C36.2587 44.8638 36.1499 44.7975 36.0314 44.7542C35.9129 44.7109 35.787 44.6915 35.6609 44.697ZM30.9184 43.8258C30.4277 43.599 29.9568 43.3317 29.5106 43.0267C29.3376 42.9082 29.1309 42.8489 28.9214 42.8575C28.7178 42.8661 28.522 42.9385 28.3618 43.0644C28.2015 43.1903 28.0849 43.3634 28.0284 43.5592C27.9719 43.755 27.9783 43.9636 28.0468 44.1556C28.1153 44.3475 28.2423 44.5131 28.41 44.6289L28.412 44.6308L28.4237 44.6367L28.4353 44.6483L28.447 44.6561L28.4587 44.6658C28.9772 45.0184 29.5229 45.327 30.0959 45.5914C30.3295 45.6993 30.5965 45.7102 30.8381 45.6216C31.0798 45.533 31.2765 45.3523 31.385 45.1189C31.4946 44.8855 31.507 44.6182 31.4194 44.3757C31.3319 44.1333 31.1517 43.9355 30.9184 43.8258ZM40.6989 43.052C40.5273 43.0603 40.3609 43.1139 40.2167 43.2075C39.7626 43.4975 39.2853 43.7492 38.7895 43.96C38.5756 44.0449 38.3989 44.2033 38.2912 44.4066C38.1834 44.61 38.1516 44.8451 38.2014 45.0698C38.2513 45.2944 38.3795 45.494 38.5632 45.6327C38.7469 45.7714 38.9739 45.8402 39.2037 45.8267C39.3193 45.8223 39.4332 45.7972 39.54 45.7528L39.8006 45.6361H39.8045L39.8162 45.6283L39.82 45.6264L39.8278 45.6225H39.8356L39.8434 45.6186L39.8473 45.6147L39.8589 45.6128L39.8628 45.6089L39.8687 45.605L39.8784 45.6011L39.8842 45.5992L39.8939 45.5953L39.8978 45.5933L39.9075 45.5895L39.9114 45.5875C39.9153 45.5836 39.9186 45.5817 39.9212 45.5817L39.925 45.5797L39.9367 45.5739H39.9406L39.9523 45.5681L39.9639 45.5622L39.9678 45.5603L39.9775 45.5545L39.9814 45.5525L39.9931 45.5467L39.995 45.5447L40.0087 45.5428L40.0223 45.535L40.0262 45.5331L40.0339 45.5272H40.0378L40.0495 45.5195L40.065 45.5156L40.0767 45.5078L40.0923 45.5L40.0942 45.4981L40.1214 45.4864L40.135 45.4806L40.1623 45.465L40.1778 45.4592L40.1895 45.4533L40.2187 45.4378L40.2303 45.432L40.275 45.4086L40.2887 45.4047L40.3159 45.3892L40.3295 45.3814H40.3314C40.3327 45.3788 40.3373 45.3775 40.345 45.3775C40.3489 45.3723 40.3528 45.3691 40.3567 45.3678L40.3723 45.36L40.3839 45.3542V45.3522L40.4112 45.3406L40.4267 45.3328L40.4287 45.3308L40.4384 45.325L40.4539 45.3172L40.4656 45.3114H40.4695L40.4812 45.3036L40.4948 45.2958L40.4967 45.2939L40.5084 45.2881L40.52 45.2822L40.5239 45.2803L40.5317 45.2745L40.5375 45.2725L40.5473 45.2667L40.5512 45.2647L40.5609 45.2589L40.5648 45.257L40.5764 45.2531C40.5751 45.2518 40.5758 45.2511 40.5784 45.2511L40.59 45.2453L40.5939 45.2433L40.6017 45.2375L40.6056 45.2356L40.6173 45.2297L40.6212 45.2278C40.6212 45.2252 40.6238 45.2232 40.6289 45.222L40.6348 45.22L40.6425 45.2161L40.6484 45.2122L40.6562 45.2083L40.662 45.2045L40.6678 45.2006L40.6737 45.1947L40.6834 45.1928L40.6912 45.1908L40.695 45.187L40.7028 45.1831L40.7106 45.1772L40.7145 45.1753L40.7223 45.1714L40.73 45.1656L40.7359 45.1617C40.7385 45.163 40.7417 45.1623 40.7456 45.1597L40.7495 45.1558L40.7573 45.152L40.7631 45.1481L40.7689 45.1442L40.7767 45.1403L40.7845 45.1345L40.7884 45.1325C40.7936 45.1325 40.7988 45.1306 40.8039 45.1267C40.8 45.1254 40.8 45.1267 40.8039 45.1267L40.8117 45.1208L40.8253 45.1111L40.8292 45.1092L40.8428 45.1033L40.8662 45.0897L40.8817 45.08L40.9206 45.0586C41.045 44.9847 41.1701 44.9089 41.292 44.8311C41.5089 44.6923 41.6619 44.473 41.7173 44.2214C41.7727 43.9699 41.7261 43.7066 41.5875 43.4895C41.4857 43.3503 41.3517 43.2378 41.1969 43.1616C41.0422 43.0854 40.8714 43.0478 40.6989 43.052ZM45.6981 34.0725L45.6514 34.0745C45.4014 34.085 45.165 34.1915 44.9916 34.3718C44.8181 34.5522 44.7208 34.7925 44.72 35.0428C44.72 35.5814 44.6714 36.1258 44.58 36.6547C44.5367 36.9092 44.5963 37.1705 44.7456 37.3811C44.8949 37.5917 45.1218 37.7343 45.3763 37.7776C45.6308 37.821 45.8921 37.7614 46.1027 37.6121C46.3133 37.4628 46.4559 37.2359 46.4992 36.9814V36.9717L46.5012 36.9678L46.5031 36.9639L46.5012 36.96L46.5031 36.9561V36.9522L46.505 36.9483V36.9425L46.507 36.9386V36.9211L46.5109 36.9133V36.9017C46.5529 36.6494 46.5866 36.3959 46.612 36.1414L46.61 36.1395L46.612 36.1336L46.6139 36.1239V36.1025L46.6178 36.0967L46.6159 36.0889V36.085L46.6178 36.0792V36.0714L46.6217 36.0695L46.6178 36.0636V36.0558C46.6217 36.0532 46.623 36.0513 46.6217 36.05V36.0131L46.6256 36.0072C46.6525 35.6871 46.6661 35.364 46.6664 35.0428C46.6659 34.7859 46.5638 34.5397 46.3824 34.3579C46.2009 34.1762 45.9549 34.0735 45.6981 34.0725ZM44.8367 39.3147C44.7249 39.2528 44.602 39.2136 44.475 39.1992C44.348 39.1849 44.2194 39.1957 44.0966 39.2311C43.9738 39.2665 43.8591 39.3258 43.7593 39.4055C43.6594 39.4853 43.5762 39.5839 43.5145 39.6958C43.2523 40.1686 42.9512 40.6187 42.6142 41.0414C42.4554 41.2434 42.3831 41.5001 42.413 41.7554C42.4429 42.0106 42.5727 42.2436 42.7739 42.4034C42.9751 42.5633 43.2314 42.6369 43.4868 42.6083C43.7422 42.5798 43.9758 42.4512 44.1367 42.2508C44.3636 41.9657 44.5775 41.6707 44.7784 41.3661C44.7836 41.3532 44.7907 41.3402 44.7998 41.3272L44.8017 41.3253L44.8095 41.3136L44.8173 41.2981C44.8225 41.2942 44.825 41.2903 44.825 41.2864L44.827 41.2883L44.8348 41.2767V41.2747L44.8406 41.2611L44.8445 41.2592L44.8523 41.2475L44.8581 41.2358L44.86 41.2339L44.8678 41.2222L44.8698 41.2183L44.8737 41.2086L44.8795 41.2047L44.8834 41.195H44.8873L44.8912 41.1833L44.8931 41.1795L44.9009 41.1717L44.9028 41.1678C44.9028 41.1639 44.9048 41.1607 44.9087 41.1581L44.9106 41.1522L44.9184 41.1464C44.9184 41.1438 44.9197 41.1419 44.9223 41.1406V41.1328L44.9281 41.1289L44.9339 41.1192L44.9359 41.1153L44.9417 41.1036L44.9456 41.0997L44.9495 41.092L44.9534 41.0861C44.9534 41.0835 44.9547 41.0816 44.9573 41.0803C44.9573 41.0777 44.9586 41.0757 44.9612 41.0745L44.967 41.0647L44.9689 41.0589L44.9728 41.0531L44.9767 41.0472C44.9806 41.0446 44.9819 41.0427 44.9806 41.0414C44.9845 41.0401 44.9858 41.0375 44.9845 41.0336L44.9884 41.0278L44.9942 41.02L45 41.0122V41.0064L45.0039 41.0006L45.0098 40.9928L45.0156 40.987V40.9811L45.0234 40.9714V40.9656C45.0273 40.9643 45.0292 40.9617 45.0292 40.9578L45.0331 40.9539L45.037 40.9481L45.0428 40.9383L45.0467 40.9325V40.9286L45.0545 40.9189C45.0545 40.9163 45.0558 40.9144 45.0584 40.9131L45.0603 40.9072L45.0662 40.8995L45.07 40.8917L45.0739 40.8858L45.0778 40.8781C45.0778 40.8755 45.0791 40.8742 45.0817 40.8742L45.0856 40.8645L45.0895 40.8606L45.0934 40.8489L45.0973 40.847L45.1012 40.8392L45.105 40.8353L45.1089 40.8256L45.1128 40.8217L45.1167 40.81C45.1193 40.8074 45.1193 40.8061 45.1167 40.8061L45.1245 40.7964L45.1264 40.7925L45.1342 40.7828V40.7808L45.14 40.7692L45.1439 40.7653L45.1478 40.7536L45.1575 40.742L45.1634 40.7303V40.7283L45.1712 40.7147L45.175 40.7128L45.2237 40.6214C45.3433 40.3964 45.3698 40.1333 45.2974 39.8889C45.2251 39.6445 45.0596 39.4383 44.8367 39.3147Z" fill="#5C913B"/>
<path d="M34.9998 42.7778C38.2215 42.7778 40.8332 41.9072 40.8332 40.8334C40.8332 39.7595 38.2215 38.8889 34.9998 38.8889C31.7782 38.8889 29.1665 39.7595 29.1665 40.8334C29.1665 41.9072 31.7782 42.7778 34.9998 42.7778Z" fill="#55ACEE"/>
<path d="M35.9723 42.7778C37.5832 42.7778 38.889 41.9072 38.889 40.8334C38.889 39.7595 37.5832 38.8889 35.9723 38.8889C34.3615 38.8889 33.0557 39.7595 33.0557 40.8334C33.0557 41.9072 34.3615 42.7778 35.9723 42.7778Z" fill="#FFCC4D"/>
<path d="M37.1721 41.3661C37.004 41.3647 36.8391 41.32 36.6933 41.2364C36.5476 41.1527 36.4258 41.0329 36.3398 40.8885C36.2538 40.744 36.2065 40.5799 36.2024 40.4119C36.1984 40.2439 36.2376 40.0776 36.3165 39.9292C36.6276 39.3562 36.953 38.8409 37.2926 38.3833C37.0141 38.3952 36.7353 38.401 36.4565 38.4008C35.9198 38.4008 35.4298 37.9633 35.4298 37.4267C35.4298 36.89 35.809 36.4545 36.3476 36.4545L36.5071 36.4564C37.0826 36.4564 37.6737 36.4214 38.2026 36.3728C38.3499 36.3579 38.4987 36.3776 38.6371 36.4303C38.7755 36.4829 38.8997 36.5671 38.9998 36.6761C39.0258 36.6541 39.0536 36.634 39.0835 36.6158C39.2779 36.4875 39.4594 36.3832 39.6279 36.3028C39.7485 36.2107 39.889 36.1481 40.0382 36.12L40.1082 36.1064C40.4737 35.9878 40.7304 35.9722 40.8335 35.9722C40.9857 35.9717 41.136 36.007 41.272 36.0754C41.408 36.1439 41.526 36.2434 41.6164 36.3659C41.7067 36.4885 41.7669 36.6306 41.792 36.7808C41.8172 36.931 41.8065 37.085 41.761 37.2303C41.6015 37.7475 41.2457 37.8642 40.6215 37.9886C40.4584 38.0539 40.3031 38.1374 40.1587 38.2375C39.9825 38.351 39.7749 38.4057 39.5656 38.3938C39.3564 38.382 39.1562 38.3041 38.994 38.1714C39.1262 38.3425 39.1976 38.5528 39.1969 38.769C39.1962 38.9852 39.1234 39.1951 38.9901 39.3653C38.6583 39.7892 38.3368 40.287 38.0257 40.8586C37.9421 41.0121 37.8188 41.1403 37.6686 41.2296C37.5183 41.3189 37.3468 41.3661 37.1721 41.3661ZM34.411 38.2764L34.2826 38.2686C33.5881 38.1784 32.9017 38.0348 32.2293 37.8389C32.1068 37.8026 31.9927 37.7425 31.8935 37.662C31.7943 37.5815 31.7119 37.4823 31.651 37.37C31.5901 37.2577 31.552 37.1344 31.5388 37.0074C31.5256 36.8803 31.5376 36.7519 31.574 36.6295L31.5857 36.5906L31.5623 36.6353C31.5 36.7468 31.4162 36.8449 31.3159 36.9241C31.2156 37.0032 31.1006 37.0618 30.9776 37.0964C30.8547 37.1311 30.7261 37.1412 30.5992 37.1261C30.4723 37.1111 30.3496 37.0711 30.2382 37.0086C29.5904 36.6532 28.9966 36.2074 28.4746 35.6845C28.2975 35.5011 28.1995 35.2555 28.2017 35.0006C28.2039 34.7457 28.3061 34.5018 28.4864 34.3216C28.6667 34.1413 28.9105 34.0391 29.1654 34.0369C29.4203 34.0346 29.6659 34.1326 29.8493 34.3097C30.2343 34.6947 30.6802 35.0285 31.1871 35.3111C31.3852 35.4221 31.5382 35.599 31.6195 35.8111C31.7008 36.0231 31.7054 36.2569 31.6323 36.472C31.7345 36.2673 31.9055 36.1052 32.1153 36.0141C32.3251 35.9231 32.5603 35.9089 32.7796 35.9742C33.3162 36.1336 33.9054 36.2561 34.5296 36.3397C34.7744 36.3709 34.9983 36.494 35.1558 36.6842C35.3132 36.8743 35.3924 37.1172 35.3773 37.3636C35.3622 37.61 35.254 37.8415 35.0745 38.011C34.895 38.1805 34.6578 38.2754 34.411 38.2764ZM29.6432 33.7283C28.8148 33.7283 27.7435 33.4075 27.094 32.6414C26.0985 31.467 25.5132 29.96 25.6026 28.805C25.6259 28.4958 25.3246 28.247 25.029 28.1692C24.8598 28.1245 24.5623 28.0972 24.4223 28.3986C24.3955 28.4566 24.3576 28.5087 24.3106 28.552C24.2637 28.5953 24.2086 28.6289 24.1487 28.6509C24.0887 28.673 24.025 28.683 23.9612 28.6804C23.8974 28.6778 23.8347 28.6627 23.7768 28.6358C23.7188 28.609 23.6667 28.5711 23.6234 28.5241C23.5801 28.4772 23.5465 28.4221 23.5245 28.3622C23.5024 28.3023 23.4924 28.2386 23.495 28.1747C23.4976 28.1109 23.5127 28.0483 23.5396 27.9903C23.8429 27.3311 24.5235 27.0375 25.274 27.2281C25.9701 27.4089 26.6371 28.035 26.571 28.8808C26.501 29.7792 27.0104 31.0372 27.8348 32.0114C28.2684 32.5247 29.0229 32.7328 29.5362 32.7522C29.9543 32.7736 30.1662 32.6783 30.2109 32.6375C30.1021 32.3789 28.6612 31.6206 28.0468 31.2978C27.5237 31.0236 27.3682 30.6464 27.3293 30.38C27.199 29.4953 28.1071 28.5989 28.9859 27.7356C29.2951 27.4303 29.5887 27.1425 29.7482 26.9306C29.929 26.6914 29.8998 26.532 29.8648 26.4328C29.7307 26.0692 29.1493 25.7095 28.4493 25.5539C27.7998 25.4087 27.3669 25.0983 27.1504 24.6225C26.8685 23.9983 27.0182 23.1817 27.6054 22.1239C27.6364 22.0681 27.6781 22.019 27.7281 21.9793C27.7782 21.9396 27.8355 21.9102 27.8969 21.8927C27.9583 21.8752 28.0225 21.8699 28.0859 21.8772C28.1494 21.8845 28.2107 21.9043 28.2665 21.9353C28.3223 21.9663 28.3714 22.008 28.4111 22.058C28.4508 22.1081 28.4802 22.1654 28.4977 22.2268C28.5152 22.2882 28.5205 22.3524 28.5132 22.4158C28.5059 22.4793 28.4861 22.5406 28.4551 22.5964C27.9009 23.592 27.9554 24.0431 28.0371 24.2239C28.1187 24.4028 28.3261 24.5292 28.6593 24.6031C29.4818 24.7858 30.4715 25.2739 30.7748 26.0945C30.9479 26.5631 30.8604 27.0686 30.526 27.5139C30.3237 27.7842 30.0048 28.0972 29.6685 28.4297C29.1668 28.9236 28.2315 29.8433 28.2918 30.24C28.3035 30.3217 28.4104 30.3936 28.4998 30.4383C29.9601 31.2045 30.9304 31.7586 31.1287 32.4372C31.163 32.5531 31.1734 32.6747 31.1593 32.7946C31.1453 32.9146 31.1071 33.0305 31.0471 33.1353C30.8584 33.4639 30.4657 33.6661 29.9096 33.7167C29.8253 33.7245 29.7365 33.7283 29.6432 33.7283Z" fill="#5C913B"/>
<path d="M37.9166 36.9444C38.4535 36.9444 38.8888 36.0739 38.8888 35C38.8888 33.9261 38.4535 33.0555 37.9166 33.0555C37.3796 33.0555 36.9443 33.9261 36.9443 35C36.9443 36.0739 37.3796 36.9444 37.9166 36.9444Z" fill="#FFCC4D"/>
<path d="M33.6235 33.4212C33.6235 33.9812 32.9526 34.4342 32.1243 34.4342C31.2979 34.4342 30.6251 33.9812 30.6251 33.4212C30.6251 32.8612 31.296 32.4081 32.1243 32.4081C32.9507 32.4081 33.6235 32.8612 33.6235 33.4212ZM31.3154 24.4242C31.4126 24.8364 30.874 25.3187 30.1118 25.4995C29.3496 25.6803 28.6535 25.4917 28.5543 25.0795C28.4571 24.6653 28.9957 24.1831 29.756 24.0023C30.5201 23.8234 31.2182 24.0101 31.3154 24.4242Z" fill="#FFCC4D"/>
<path d="M43.8141 34.9125C43.9891 35.0486 44.2866 33.495 44.2419 33.0108C44.2419 32.9778 44.1855 31.9491 44.4033 31.2141C44.5374 30.9653 44.5452 29.1083 44.3391 28.6203C44.5024 28.6066 44.6988 28.5541 44.7222 28.3558C43.9677 28.6339 43.7908 26.7672 43.0655 25.6939C42.3616 24.6186 41.4886 23.9925 40.5766 23.3391C40.6532 23.1486 40.7595 22.9714 40.8916 22.8141C39.7736 23.3741 38.0313 21.3461 35.4569 21.4978C34.8794 21.5541 34.6052 21.5891 34.4574 21.943C33.9772 21.9819 33.4891 22.0908 33.4891 22.7228C33.4891 22.8744 33.6272 23.1505 33.9344 23.1525C34.3544 23.275 34.6966 23.1797 34.9824 23.7669L35.0583 24.3736C35.0583 24.3736 34.683 23.8933 34.4769 23.8175L34.6033 23.5589C34.4088 23.4461 34.0647 23.5375 34.0647 23.5375C34.0647 23.5375 33.3161 23.1875 32.7152 23.2808L32.5986 22.7947C32.4936 23.0941 32.2583 23.0786 32.2252 23.3605C32.1591 23.1583 32.0716 22.9075 32.0094 22.7053C31.7974 22.993 31.8597 23.3041 31.7838 23.6036C31.7022 23.6736 31.5349 23.6755 31.4922 23.483C31.4708 23.2458 31.4416 23.2244 31.4416 22.9425C31.2899 23.2089 31.1072 23.3391 31.0469 23.7961L30.8855 23.2905C30.8913 23.8875 30.378 24.2433 29.8919 24.6653C29.7538 24.918 29.9133 24.92 29.9249 25.0503L30.1816 25.1786L30.6424 25.1455C30.7183 25.2408 30.6561 25.2486 30.8563 25.3089C31.393 25.4586 32.0619 24.815 32.5869 25.828C32.3458 26.0303 32.1027 26.5028 32.1805 26.5922C32.2777 26.5922 31.9861 26.7283 32.3788 26.6039C31.9705 27.0005 31.6944 27.5236 31.6944 27.5547C31.6477 27.6675 31.8577 27.5391 31.8149 27.7433L31.9122 27.7316C30.9808 28.7389 31.8811 29.8219 31.7819 30.4033C31.9374 30.6541 31.9569 30.3975 32.1513 30.3722C32.3147 31.0878 32.7852 31.5214 33.073 32.0872L32.4663 32.093C32.4799 32.3614 32.723 32.6161 32.9155 32.8514L32.5091 32.9797C32.247 33.1087 32.014 33.29 31.8247 33.5125C31.6905 33.8391 32.4722 33.9169 32.8494 33.9753L32.8358 34.37C33.4249 34.4264 34.1055 34.2514 34.1055 34.2183L34.2533 34.1036L34.5858 34.2864C34.6966 34.2864 34.8697 33.843 34.7899 33.5028C35.0038 33.7575 35.2061 34.1678 35.4199 34.4244L35.6202 34.3972C35.803 34.6869 36.0538 34.9747 36.2366 35.2644L36.4408 35.3422C36.5594 35.3014 36.6605 35.2878 36.7247 35.0544L36.818 35.2178L37.1408 34.9961L37.3663 34.9514L37.5355 35.2275C37.6347 35.1905 37.7319 34.9747 37.7377 34.7453C37.8388 34.9455 37.866 34.93 37.9399 34.9825L38.0897 34.6675L38.8966 35.4219L39.5072 35.4569C39.7249 35.6047 40.3219 35.698 40.423 35.4589C40.913 35.6689 41.4905 35.4316 41.4613 35.1983C41.9124 35.3772 42.6066 35.2566 42.6066 35.2275C42.6902 35.2178 42.9041 35.0078 42.7019 34.8503C41.2105 33.8119 38.9997 32.093 38.1461 31.6789C38.1461 31.3716 37.9147 30.2653 37.6658 29.9619L37.868 29.6236C38.4494 30.1661 38.6594 30.1136 38.9686 30.1991C39.2991 30.4616 39.4138 30.8603 39.7444 31.2239L40.0399 31.2783C39.7981 30.6461 39.4318 30.0688 38.9627 29.5808C39.2816 29.7403 39.8105 30.1661 40.1644 30.4753C40.3977 30.8661 40.4658 31.1772 40.6797 31.6672C40.8352 31.7664 40.9947 32.13 40.9733 31.8286C40.9363 31.2628 40.5377 30.3664 40.5377 30.3022C41.1716 30.8039 41.1638 31.5855 41.3563 32.0619C41.5177 32.303 41.5994 32.6258 41.6694 32.55L41.4827 31.08L41.3738 30.5414C41.8424 30.8116 42.0097 31.8422 42.2294 33.0789C42.2294 33.2753 42.3091 33.4911 42.2974 33.6175C42.3986 33.7419 42.5133 34.0861 42.5113 33.8819C42.5113 33.8819 42.5113 31.8714 42.3733 31.4105C42.3383 31.1636 42.4316 30.763 42.4316 30.763C42.6027 31.5972 42.7855 32.5014 42.9586 33.3336V33.9461L43.2152 34.2047C43.2638 33.6991 43.3222 33.1975 43.3727 32.6958L43.1802 30.8972V30.3839C43.1763 30.203 43.3455 30.2361 43.4524 30.4422C43.4777 30.8836 43.4777 31.2278 43.4952 31.6672C43.5711 32.1689 43.6236 32.5364 43.6605 33.1761C43.6819 33.6933 43.7052 34.9339 43.8141 34.9125Z" fill="#C1694F"/>
</g>
<defs>
<clipPath id="clip0_512_597">
<rect width="70" height="70" fill="white"/>
</clipPath>
</defs>
</svg>
