<svg width="70" height="66" viewBox="0 0 70 66" fill="none" xmlns="http://www.w3.org/2000/svg">
<g filter="url(#filter0_d_498_727)">
<path d="M34.2984 2.00001L2 18.6329L3.67344 19.7432L34.2984 4.43074L64.9234 19.7432L66.5969 18.6331L34.2984 2.00001ZM34.2984 7.1822L4.90391 21.8795V63.6386H9.00547V23.7167H59.5914V63.6386H63.693V21.8795L34.2984 7.1822ZM11.8766 26.4511V28.912H56.7203V26.4511H11.8766ZM11.8766 31.3729V33.8339H56.7203V31.3729H11.8766ZM25.5484 36.2948C24.3863 36.2948 23.5806 37.0501 22.9576 37.8808C22.3346 38.7115 21.8261 39.7539 21.3884 40.9214C20.8046 42.4785 20.3575 44.2483 20.124 45.9645C18.9315 45.659 17.1096 45.3587 16.7984 46.2753C16.4766 47.2233 17.8025 48.1323 19.0773 48.7659C19.0335 48.9118 18.9911 49.0626 18.9534 49.2231C18.7083 50.2647 18.5758 51.5526 18.5758 52.8378C18.5758 54.1229 18.7083 55.4108 18.9534 56.4526C19.1273 57.1917 19.3783 57.7878 19.602 58.1698H48.9949C49.2186 57.7878 49.4696 57.1917 49.6435 56.4526C49.8886 55.4108 50.0211 54.1229 50.0211 52.8378C50.0211 51.5526 49.8886 50.2647 49.6435 49.2229C49.6068 49.0694 49.5655 48.917 49.5196 48.7659C50.7944 48.1323 52.1203 47.2233 51.7984 46.2753C51.4873 45.3587 49.6653 45.659 48.4729 45.9645C48.2395 44.2483 47.7924 42.4785 47.2085 40.9214C46.7707 39.7539 46.2621 38.7113 45.6391 37.8808C45.0162 37.0501 44.2105 36.2948 43.0484 36.2948H25.5484ZM25.5484 38.7558H43.0484C42.9801 38.7558 43.2681 38.8208 43.6705 39.3573C44.073 39.8939 44.5214 40.7654 44.904 41.7854C45.4062 43.1246 45.791 44.7163 46.0016 46.217C42.8017 45.3353 39.2449 45.3183 34.2984 45.3183C29.352 45.3183 25.7952 45.3353 22.5953 46.217C22.8059 44.7163 23.1907 43.1245 23.6929 41.7854C24.0754 40.7654 24.5239 39.8939 24.9262 39.3573C25.3287 38.8208 25.6168 38.7558 25.5484 38.7558ZM23.3609 50.6503C23.9411 50.6503 24.4975 50.8808 24.9077 51.291C25.318 51.7012 25.5484 52.2576 25.5484 52.8378C25.5484 53.4179 25.318 53.9743 24.9077 54.3846C24.4975 54.7948 23.9411 55.0253 23.3609 55.0253C22.7808 55.0253 22.2244 54.7948 21.8141 54.3846C21.4039 53.9743 21.1734 53.4179 21.1734 52.8378C21.1734 52.2576 21.4039 51.7012 21.8141 51.291C22.2244 50.8808 22.7808 50.6503 23.3609 50.6503ZM45.2359 50.6503C45.8161 50.6503 46.3725 50.8808 46.7827 51.291C47.193 51.7012 47.4234 52.2576 47.4234 52.8378C47.4234 53.4179 47.193 53.9743 46.7827 54.3846C46.3725 54.7948 45.8161 55.0253 45.2359 55.0253C44.6558 55.0253 44.0994 54.7948 43.6891 54.3846C43.2789 53.9743 43.0484 53.4179 43.0484 52.8378C43.0484 52.2576 43.2789 51.7012 43.6891 51.291C44.0994 50.8808 44.6558 50.6503 45.2359 50.6503ZM20.2164 60.6308V63.6386H24.318V60.6308H20.2164ZM44.2789 60.6308V63.6386H48.3805V60.6308H44.2789Z" fill="#1E293B"/>
</g>
<defs>
<filter id="filter0_d_498_727" x="0" y="0" width="72.5967" height="69.6385" filterUnits="userSpaceOnUse" color-interpolation-filters="sRGB">
<feFlood flood-opacity="0" result="BackgroundImageFix"/>
<feColorMatrix in="SourceAlpha" type="matrix" values="0 0 0 0 0 0 0 0 0 0 0 0 0 0 0 0 0 0 127 0" result="hardAlpha"/>
<feOffset dx="2" dy="2"/>
<feGaussianBlur stdDeviation="2"/>
<feComposite in2="hardAlpha" operator="out"/>
<feColorMatrix type="matrix" values="0 0 0 0 0 0 0 0 0 0 0 0 0 0 0 0 0 0 0.25 0"/>
<feBlend mode="normal" in2="BackgroundImageFix" result="effect1_dropShadow_498_727"/>
<feBlend mode="normal" in="SourceGraphic" in2="effect1_dropShadow_498_727" result="shape"/>
</filter>
</defs>
</svg>
