<svg width="70" height="70" viewBox="0 0 70 70" fill="none" xmlns="http://www.w3.org/2000/svg">
<g filter="url(#filter0_d_538_833)">
<path d="M45.2314 41.1716L55.361 32.4216L55.7985 32.4537C56.2535 32.5082 56.6083 32.7016 56.8631 33.0341C57.1178 33.3666 57.2451 33.7244 57.2451 34.1075C57.2451 34.3291 57.2043 34.5391 57.1226 34.7375C57.041 34.9358 56.8913 35.1098 56.6735 35.2596L48.641 42.2304L51.0706 52.8033C51.0803 52.8577 51.0851 52.919 51.0851 52.987V53.1679C51.0851 53.6287 50.9344 54.0079 50.6331 54.3054C50.3297 54.6009 49.9574 54.7487 49.516 54.7487C49.3779 54.7487 49.2331 54.7409 49.0814 54.7254C48.9297 54.7098 48.7888 54.6466 48.6585 54.5358L48.3026 54.317L45.2314 41.1716ZM39.6664 23.9721L36.8285 17.2754L36.9801 16.905C37.1085 16.5744 37.3068 16.3187 37.5751 16.1379C37.8435 15.9571 38.1303 15.8666 38.4356 15.8666C38.7408 15.8666 39.0393 15.9571 39.331 16.1379C39.6226 16.3187 39.8336 16.5686 39.9639 16.8875L43.076 24.2929L39.6664 23.9721ZM18.2406 49.7758L20.6089 39.6958L12.8039 32.9C12.5278 32.6472 12.3197 32.3701 12.1797 32.0687C12.0397 31.7673 11.9697 31.4659 11.9697 31.1646C11.9697 30.6084 12.1632 30.0912 12.5501 29.6129C12.9371 29.1365 13.4689 28.8682 14.1456 28.8079L24.4501 27.9008L28.4314 18.4041C28.6278 17.9316 28.9321 17.5777 29.3443 17.3425C29.7565 17.1072 30.1785 16.9896 30.6101 16.9896C31.0418 16.9896 31.4676 17.1072 31.8876 17.3425C32.3076 17.5777 32.6178 17.9316 32.8181 18.4041L36.8022 27.9008L47.1039 28.8079C47.7806 28.8662 48.3124 29.1346 48.6993 29.6129C49.0882 30.0873 49.2826 30.6026 49.2826 31.1587C49.2826 31.4757 49.2117 31.7819 49.0697 32.0775C48.9297 32.373 48.7217 32.6482 48.4456 32.9029L40.6435 39.6929L43.0293 49.7758C43.0643 49.8827 43.0818 50.0558 43.0818 50.295C43.0818 50.9697 42.8485 51.5346 42.3818 51.9896C41.9113 52.4465 41.3639 52.675 40.7397 52.675C40.6231 52.675 40.2021 52.5476 39.4768 52.2929L30.6247 46.9641L21.7756 52.2929C21.5694 52.4018 21.3585 52.4922 21.1426 52.5641C20.9268 52.6361 20.7207 52.673 20.5243 52.675C19.8165 52.675 19.2079 52.3882 18.6985 51.8145C18.189 51.2409 18.0364 50.5633 18.2406 49.7758Z" fill="#1E293B"/>
</g>
<defs>
<filter id="filter0_d_538_833" x="9.96973" y="13.8666" width="53.2754" height="46.8821" filterUnits="userSpaceOnUse" color-interpolation-filters="sRGB">
<feFlood flood-opacity="0" result="BackgroundImageFix"/>
<feColorMatrix in="SourceAlpha" type="matrix" values="0 0 0 0 0 0 0 0 0 0 0 0 0 0 0 0 0 0 127 0" result="hardAlpha"/>
<feOffset dx="2" dy="2"/>
<feGaussianBlur stdDeviation="2"/>
<feComposite in2="hardAlpha" operator="out"/>
<feColorMatrix type="matrix" values="0 0 0 0 0 0 0 0 0 0 0 0 0 0 0 0 0 0 0.25 0"/>
<feBlend mode="normal" in2="BackgroundImageFix" result="effect1_dropShadow_538_833"/>
<feBlend mode="normal" in="SourceGraphic" in2="effect1_dropShadow_538_833" result="shape"/>
</filter>
</defs>
</svg>
