<svg width="84" height="90" viewBox="0 0 84 90" fill="none" xmlns="http://www.w3.org/2000/svg">
<path d="M24.893 13.8857C25.2933 13.8952 25.677 14.0467 25.9758 14.3132L25.9674 14.3301C26.1174 14.4675 26.2383 14.6337 26.3228 14.8187C26.4074 15.0037 26.4539 15.2039 26.4596 15.4072C26.4645 15.4844 26.4465 15.5613 26.408 15.6283C26.3695 15.6953 26.3121 15.7495 26.243 15.7841C26.1994 15.8055 26.1509 15.8152 26.1024 15.8122H25.2333C25.2631 15.686 25.2782 15.5567 25.2783 15.4269C25.3112 15.1212 25.2235 14.8147 25.0339 14.5726C24.8443 14.3304 24.5677 14.1718 24.263 14.1304C24.0954 14.1314 23.9319 14.1823 23.7933 14.2766C24.1006 14.0193 24.4894 13.8797 24.8902 13.8829M24.848 20.391C24.4016 20.6162 23.8847 20.6576 23.408 20.5063C23.3626 20.4936 23.3201 20.4718 23.2833 20.4423C23.2464 20.4128 23.2158 20.3761 23.1934 20.3345C23.171 20.293 23.1572 20.2473 23.1529 20.2003C23.1485 20.1533 23.1537 20.1058 23.168 20.0608C23.1824 20.0159 23.2057 19.9742 23.2365 19.9384C23.2673 19.9026 23.305 19.8734 23.3474 19.8525C23.3897 19.8316 23.4358 19.8195 23.483 19.8168C23.5301 19.8141 23.5773 19.821 23.6218 19.8369C23.9213 19.9323 24.2463 19.9062 24.5268 19.7641C24.8072 19.6221 25.0206 19.3755 25.1208 19.0776C25.1499 18.9888 25.2131 18.9152 25.2964 18.873C25.3798 18.8308 25.4765 18.8235 25.5652 18.8526C25.654 18.8816 25.7276 18.9448 25.7698 19.0281C25.812 19.1115 25.8193 19.2082 25.7902 19.2969C25.6318 19.7718 25.2935 20.1628 24.848 20.391Z" fill="#1E293B"/>
<path d="M23.7399 15.1372H23.7006C23.6321 15.3593 23.6341 15.597 23.7062 15.8179H24.7271C24.7629 15.7061 24.7809 15.5893 24.7806 15.4719C24.7806 15.0219 24.5274 14.6563 24.2181 14.6563C24.1062 14.6578 23.9989 14.7009 23.9171 14.7772C23.9313 14.813 23.938 14.8513 23.9368 14.8897C23.9432 14.9486 23.9261 15.0076 23.8892 15.0539C23.8523 15.1003 23.7987 15.1302 23.7399 15.1372Z" fill="#1E293B"/>
<g filter="url(#filter0_d_445_407)">
<path d="M73.6225 52.3466L79.7341 61.3044C80.1309 61.8748 80.3436 62.553 80.3436 63.2479C80.3436 63.9427 80.1309 64.6209 79.7341 65.1913L79.5878 65.3994L79.4078 65.5794C79.2256 65.7622 79.0269 65.9279 78.8144 66.0744C78.4329 66.5207 77.9636 66.8837 77.4356 67.1406C76.9077 67.3975 76.3325 67.543 75.7459 67.5679C75.2341 67.5679 74.7306 67.4497 74.2722 67.2191L67.0497 63.5629L51.8369 66.9716C50.276 67.3113 48.6507 67.2008 47.1501 66.6532C45.6495 66.1055 44.3352 65.1431 43.36 63.8779L41.1269 60.8094L40.6853 61.4226C40.3534 61.8688 39.97 62.2654 39.535 62.6122L39.4844 62.6657L39.431 62.7219H39.3691C39.1441 62.9094 38.9078 63.0801 38.6603 63.2338C37.7041 63.776 36.6236 64.0609 35.5244 64.0607C34.8437 64.0447 34.1697 63.9213 33.5275 63.6951L33.4375 63.7091L33.3447 63.681C33.1274 63.5894 32.916 63.4842 32.7119 63.366L32.5825 63.3154C32.53 63.2997 32.4791 63.279 32.4306 63.2535L31.4125 64.0269L22.3113 79.9822L20.1934 83.9029C19.9403 84.3959 19.591 84.8332 19.1662 85.1891C18.7414 85.545 18.2495 85.8122 17.7198 85.975C17.19 86.1378 16.633 86.1928 16.0817 86.1369C15.5303 86.081 14.9957 85.9152 14.5094 85.6494C13.6938 85.2135 6.48813 81.3491 4.82595 80.2804C4.15472 79.7596 3.6729 79.0329 3.45444 78.2119C3.23598 77.3909 3.29294 76.5209 3.61657 75.7354C3.78386 74.9175 4.21896 74.1787 4.85309 73.6357C5.48723 73.0927 6.28424 72.7766 7.11813 72.7372H13.8906L18.5003 60.3932C19.2086 57.8667 20.3279 55.4741 21.8134 53.3113L22.0244 53.0076L22.3056 52.7685L27.0869 48.6904L28.0431 47.8466C26.918 45.7946 26.0616 43.6063 25.495 41.3357L24.9325 41.4201C23.77 41.5776 22.6019 41.6563 21.4281 41.6563C15.9982 41.6659 10.7035 39.9633 6.29689 36.7907L5.31251 36.2479L5.17189 36.1691L5.0397 36.0763C4.01244 35.3458 3.16192 34.3943 2.55063 33.2919L2.42126 33.0585L2.33688 32.8054C2.016 31.8348 1.92267 30.8034 2.0641 29.7909C2.20553 28.7785 2.57793 27.8121 3.15251 26.9666L3.21157 26.8822L3.27626 26.8007C4.1146 25.7454 5.16959 24.8822 6.37001 24.2694L6.46001 24.2216L6.55001 24.1907C7.03095 23.9854 7.54845 23.8813 8.07157 23.8813C8.60314 23.8785 9.12626 23.9938 9.61001 24.2104C10.4356 24.1401 11.2623 24.332 11.9725 24.7588C13.1341 25.4057 14.0256 26.4463 14.4756 27.6951C16.0894 28.6298 17.8751 29.2294 19.726 29.458C21.5769 29.6866 23.4548 29.5394 25.2475 29.0254C25.3281 28.6447 25.4163 28.2651 25.5119 27.8863L25.675 27.2591C25.5662 27.2467 25.4582 27.2279 25.3516 27.2029L25.1378 27.1635C23.5666 26.989 22.1137 26.2452 21.0535 25.0725C19.9933 23.8999 19.3992 22.3796 19.3834 20.7988C18.8902 20.4311 18.5011 19.9414 18.2545 19.3777C18.008 18.8141 17.9124 18.1959 17.9772 17.5841C18.0306 16.7122 18.3541 15.8741 18.9081 15.1963L18.9503 15.1401C19.0516 14.9994 19.1753 14.8279 19.3244 14.5804V13.2247C19.33 12.7447 19.3778 12.2704 19.4678 11.8016C19.0114 11.0809 18.7119 10.2722 18.5889 9.42801C18.4658 8.58387 18.5219 7.72327 18.7534 6.90225C19.0824 5.57122 19.8257 4.37913 20.8762 3.49802C21.9266 2.61691 23.2299 2.09236 24.5978 2.00006C25.1744 1.99725 25.7453 2.09568 26.2853 2.29537C26.6763 2.43037 27.0081 2.55975 27.3063 2.67787L27.3456 2.69193C27.5988 2.81568 27.865 2.90193 28.1444 2.95068C28.4781 2.92818 28.8025 2.86443 29.1175 2.75943C30.2581 2.43253 31.4382 2.26407 32.6247 2.25881C33.7448 2.16968 34.8711 2.31959 35.929 2.69861C36.9868 3.07762 37.952 3.6771 38.7607 4.45731C39.5694 5.23753 40.203 6.18067 40.6197 7.22426C41.0363 8.26785 41.2265 9.38806 41.1775 10.5107C41.2256 12.1739 41.0793 13.837 40.7416 15.4663C40.9928 15.6932 41.2197 15.9416 41.4222 16.2116C41.9959 16.926 42.4206 17.7444 42.6766 18.6219L42.8003 18.5769L42.8369 18.5966L43.2306 18.4307C45.1039 17.6537 47.1503 17.3897 49.1594 17.6657C51.1786 17.9385 53.0884 18.7453 54.6916 20.0029L58.9216 23.3104L61.0675 24.9051L62.9688 26.3113C64.0375 27.0172 64.9572 27.9313 65.6688 29.0001L65.8263 29.2363L65.9331 29.5007C66.195 30.5716 66.1837 31.6912 65.9001 32.7566C65.6166 33.822 65.0699 34.7991 64.3103 35.5982C63.4301 36.626 62.3228 37.4348 61.0759 37.9607L60.9747 38.0029L60.8706 38.0394C60.2847 38.2421 59.6578 38.297 59.0455 38.1994C58.4332 38.1017 57.8545 37.8546 57.3606 37.4797H56.9275C56.0277 37.4128 55.1745 37.0533 54.4981 36.4561C53.8217 35.8589 53.3592 35.0568 53.1813 34.1722L47.5141 29.7566L44.5244 30.9379L43.8494 31.2529C44.7712 34.2191 46.0221 37.0728 47.5788 39.7607C48.0213 40.3251 48.3963 40.9316 48.7038 41.5804L50.5375 44.4491L53.8225 50.0544C54.4947 51.1513 54.8069 52.4282 54.7113 53.7107L65.5956 52.7544L67.6769 51.3172L68.0397 51.0557C68.65 50.6141 69.3841 50.3779 70.1378 50.3807C70.8304 50.4195 71.5049 50.617 72.1091 50.9579C72.7133 51.2988 73.2311 51.7739 73.6225 52.3466ZM44.1138 60.0557L50.3744 56.0872C51.1081 55.607 51.6268 54.8605 51.8209 54.0053C52.015 53.1501 51.8695 52.2529 51.415 51.5029L49.2775 47.9647L49.255 48.0407L46.3975 43.3101C46.324 43.1292 46.2443 42.951 46.1584 42.7757C46.1036 42.6658 46.0416 42.5596 45.9728 42.4579L45.9447 42.4157L45.8491 42.2638L31.6684 48.3866V48.4063L28.9375 50.7997L25.99 53.331L33.0213 60.2301C33.6625 60.846 34.5091 61.2032 35.3978 61.2341H35.8C36.2488 61.1899 36.6855 61.0631 37.0881 60.8601C37.1449 60.8415 37.1996 60.817 37.2513 60.7869C37.3047 60.7538 37.3523 60.712 37.3919 60.6632C37.4278 60.6239 37.4674 60.5881 37.51 60.5563C37.841 60.3434 38.1354 60.0784 38.3819 59.7716L38.5084 59.5972L39.8303 57.786L40.2184 57.3135C40.3602 57.1414 40.5409 57.0054 40.7456 56.9169C40.9503 56.8283 41.1732 56.7898 41.3957 56.8043C41.6183 56.8189 41.8341 56.8862 42.0256 57.0006C42.217 57.1151 42.3784 57.2734 42.4966 57.4626L44.1138 60.0557ZM45.7534 62.3479C46.4127 63.1274 47.2718 63.7128 48.2384 64.0413C49.2051 64.3698 50.2429 64.429 51.2406 64.2126L67.5644 60.5563L66.4647 55.5529L66.5463 55.4769L53.7381 56.6047C53.2655 57.3401 52.6425 57.967 51.91 58.4441L51.8819 58.461L45.7534 62.3479ZM47.6181 20.3685C46.4875 20.3685 45.3681 20.5907 44.3191 21.021L42.9044 21.5891C42.8969 21.6435 42.8931 21.6988 42.8931 21.7551C42.8931 21.8357 42.8856 21.9154 42.8706 21.9941C42.8537 22.0637 42.8302 22.1315 42.8003 22.1966C42.774 22.2529 42.7523 22.3112 42.7356 22.371L42.7553 22.3991C42.7703 22.416 42.7788 22.4329 42.7806 22.4497L42.8369 22.5735L44.8816 27.7541L46.7744 27.006H46.7941C47.1497 26.8568 47.5387 26.8052 47.9209 26.8566C48.3031 26.908 48.6646 27.0606 48.9681 27.2985L55.7659 32.6029C55.8222 33.4804 56.0978 34.5829 57.1075 34.6504H58.57C58.6656 34.8583 58.8136 35.0379 58.9995 35.1715C59.1853 35.3051 59.4027 35.3882 59.6303 35.4126C59.7479 35.412 59.8646 35.393 59.9763 35.3563C60.82 34.9963 61.5738 34.4479 62.17 33.7532C62.9575 32.8251 63.6325 31.3063 63.3231 30.5469C62.8078 29.7712 62.1375 29.1104 61.3544 28.6063L59.3856 27.1438L59.3434 27.1916L52.945 22.2079C51.4251 21.0162 49.5495 20.3686 47.6181 20.3685ZM21.7909 15.9247C21.5378 16.3466 21.3353 16.6279 21.1806 16.8416C20.9531 17.0828 20.8142 17.3942 20.7869 17.7247C20.7025 18.5966 21.5181 18.8216 21.9119 18.8779C21.9673 18.8829 22.0187 18.909 22.0554 18.9509C22.092 18.9928 22.1112 19.0473 22.1088 19.1029C22.165 22.2247 22.7275 24.4466 26.44 24.4747H26.5244C27.4413 24.4635 28.3525 24.3172 29.23 24.0388L29.9838 25.5294C30.6334 24.7841 31.4491 24.2019 32.3659 23.8279C31.6493 23.2654 31.0754 22.5419 30.6908 21.716C30.3062 20.8902 30.1218 19.9852 30.1525 19.0747L30.175 17.8457C30.4563 17.8669 30.739 17.8307 31.0059 17.7394C31.2727 17.648 31.5183 17.5033 31.7275 17.3141C31.9496 17.1163 32.1273 16.8737 32.2487 16.6023C32.3702 16.3308 32.4327 16.0367 32.4322 15.7393C32.4316 15.4419 32.3681 15.148 32.2456 14.8769C32.1232 14.6059 31.9447 14.3639 31.7219 14.1669C31.3043 13.7946 30.756 13.6034 30.1975 13.6354C30.1246 13.119 29.9224 12.6295 29.6097 12.2122C29.2627 11.7703 28.7594 11.4784 28.2034 11.3966H28.1753C27.7279 11.3125 27.2654 11.3716 26.8534 11.5654C26.2012 11.8589 25.485 11.9819 24.7722 11.9226C25.36 11.9844 25.9253 12.1926 26.4203 12.5301C26.4759 12.5611 26.5224 12.6061 26.5552 12.6607C26.588 12.7152 26.606 12.7774 26.6074 12.841C26.6089 12.9047 26.5936 12.9676 26.5633 13.0235C26.5329 13.0795 26.4885 13.1265 26.4344 13.1601C26.3695 13.2003 26.2937 13.2192 26.2175 13.2142C26.1414 13.2091 26.0687 13.1804 26.0097 13.1319C25.424 12.7361 24.7138 12.568 24.0128 12.6594C23.9166 12.6721 23.8193 12.6461 23.7423 12.587C23.6653 12.5279 23.6149 12.4407 23.6022 12.3444C23.5895 12.2482 23.6156 12.1509 23.6747 12.0739C23.7337 11.9969 23.821 11.9465 23.9172 11.9338C24.1647 11.9001 24.4113 11.8926 24.6569 11.9113C24.2316 11.8685 23.8153 11.7614 23.4222 11.5935C23.1409 11.4622 22.87 11.3141 22.6094 11.1491C22.2997 11.8077 22.1357 12.5252 22.1284 13.2529V14.6591C22.1289 15.1033 22.0125 15.5398 21.7909 15.9247ZM24.5472 38.6329C25.6084 38.4866 26.6556 38.2682 27.6888 37.9776H27.6972C27.5284 35.7051 27.5313 33.4213 27.7084 31.1516C25.1694 32.1875 22.4141 32.5814 19.6865 32.2983C16.9589 32.0153 14.3432 31.064 12.0709 29.5288C12.011 29.0538 11.8436 28.5987 11.5814 28.1981C11.3192 27.7975 10.9691 27.462 10.5578 27.2169C10.3894 27.1089 10.1952 27.0477 9.99532 27.0397V27.0847C9.20782 27.8666 8.50188 28.7179 7.87751 29.6385C7.81321 29.7876 7.80034 29.9538 7.84095 30.111C7.88076 30.2334 7.95616 30.3411 8.05751 30.4204C8.14979 30.4917 8.2578 30.5399 8.37251 30.561C8.40048 30.5652 8.42892 30.5652 8.45688 30.561C8.73063 30.2797 8.99032 29.9985 9.23595 29.7172C9.28242 29.6304 9.3401 29.55 9.40751 29.4782C9.68876 29.1716 9.9222 29.2869 10.0263 29.4135C10.0774 29.4762 10.1054 29.5547 10.1054 29.6357C10.1054 29.7166 10.0774 29.7951 10.0263 29.8579L9.81814 30.111L9.79282 30.1672C9.61207 30.6947 9.55434 31.2565 9.62407 31.8097C9.62869 31.8557 9.62193 31.902 9.60438 31.9447C9.59189 31.989 9.56871 32.0296 9.53689 32.0629C9.50792 32.0997 9.47022 32.1287 9.4272 32.1472C9.34267 32.1872 9.24604 32.1932 9.1572 32.1641C9.11261 32.1508 9.07203 32.1267 9.03907 32.0938C9.00225 32.0648 8.97325 32.0271 8.9547 31.9841C8.93277 31.9435 8.92118 31.8981 8.92095 31.8519V31.0841C8.83097 31.1586 8.72503 31.2112 8.61137 31.2381C8.49772 31.2649 8.37941 31.2651 8.26564 31.2388C8.03159 31.2006 7.811 31.1039 7.62438 30.9576C7.4078 30.7914 7.24931 30.5611 7.17157 30.2994C7.08138 29.9826 7.10527 29.6442 7.23907 29.3432L7.2672 29.2869C7.76782 28.5388 8.32001 27.8338 8.92376 27.1719C8.84746 27.0622 8.75222 26.967 8.64251 26.8907C8.4731 26.7822 8.28027 26.7157 8.08001 26.6966C7.9349 26.6991 7.79164 26.7297 7.65813 26.7866C6.82042 27.2195 6.0827 27.8231 5.49251 28.5585C5.15929 29.0467 4.94285 29.605 4.85994 30.1902C4.77703 30.7755 4.82987 31.372 5.01438 31.9335C5.4222 32.6676 5.99032 33.3004 6.67376 33.7897L7.79876 34.4141C12.6294 37.9259 18.6293 39.4372 24.5472 38.6329ZM19.24 79.6841L29.2384 62.1341L30.2059 61.4001L23.9341 55.2547C22.7063 57.1001 21.7771 59.1275 21.1806 61.2622L15.8369 75.5497H16.09L19.0263 79.5407L19.24 79.6841Z" fill="#1E293B"/>
</g>
<defs>
<filter id="filter0_d_445_407" x="0" y="0" width="86.3435" height="92.1581" filterUnits="userSpaceOnUse" color-interpolation-filters="sRGB">
<feFlood flood-opacity="0" result="BackgroundImageFix"/>
<feColorMatrix in="SourceAlpha" type="matrix" values="0 0 0 0 0 0 0 0 0 0 0 0 0 0 0 0 0 0 127 0" result="hardAlpha"/>
<feOffset dx="2" dy="2"/>
<feGaussianBlur stdDeviation="2"/>
<feComposite in2="hardAlpha" operator="out"/>
<feColorMatrix type="matrix" values="0 0 0 0 0 0 0 0 0 0 0 0 0 0 0 0 0 0 0.25 0"/>
<feBlend mode="normal" in2="BackgroundImageFix" result="effect1_dropShadow_445_407"/>
<feBlend mode="normal" in="SourceGraphic" in2="effect1_dropShadow_445_407" result="shape"/>
</filter>
</defs>
</svg>
