<svg width="70" height="70" viewBox="0 0 70 70" fill="none" xmlns="http://www.w3.org/2000/svg">
<g clip-path="url(#clip0_523_543)">
<g filter="url(#filter0_d_523_543)">
<path fill-rule="evenodd" clip-rule="evenodd" d="M64.1668 35C64.1668 51.1087 51.1089 64.1666 35.0002 64.1666C18.8914 64.1666 5.8335 51.1087 5.8335 35C5.8335 18.8912 18.8914 5.83331 35.0002 5.83331C51.1089 5.83331 64.1668 18.8912 64.1668 35ZM52.5016 54.565C47.6937 58.8785 41.4594 61.2598 35.0002 61.25C20.5029 61.25 8.75016 49.4973 8.75016 35C8.75016 28.0904 11.4189 21.805 15.7837 17.1164L21.5733 22.906C21.8483 23.1717 22.2167 23.3187 22.5991 23.3153C22.9814 23.312 23.3472 23.1586 23.6176 22.8883C23.888 22.6179 24.0414 22.2521 24.0447 21.8697C24.048 21.4874 23.901 21.119 23.6354 20.8439L17.8866 15.0952C22.6438 10.9932 28.7187 8.7408 35.0002 8.74998C49.4975 8.74998 61.2502 20.5027 61.2502 35C61.2502 41.7229 58.7214 47.8581 54.5652 52.5014L42.1037 40.0414C43.0732 39.2582 43.8552 38.2679 44.3924 37.1433C44.9296 36.0186 45.2085 34.788 45.2085 33.5416L42.0556 34.0375C40.9305 34.2139 39.8536 34.6188 38.891 35.2273C37.9284 35.8358 37.1005 36.6349 36.4585 37.5754V33.3127L38.1531 33.0458C40.1195 32.7359 41.9107 31.7342 43.2042 30.2209C44.4977 28.7077 45.2084 26.7824 45.2085 24.7916L42.0556 25.2875C40.9305 25.4639 39.8536 25.8688 38.891 26.4773C37.9284 27.0858 37.1005 27.8849 36.4585 28.8254V26.25L37.1366 25.5719C38.5036 24.2045 39.2715 22.3501 39.2715 20.4166C39.2715 18.4832 38.5036 16.6288 37.1366 15.2614L35.0002 13.125L32.8652 15.26C31.4977 16.6274 30.7295 18.4821 30.7295 20.4159C30.7295 22.3498 31.4977 24.2044 32.8652 25.5719L33.5418 26.25V28.8254C32.8998 27.8849 32.072 27.0858 31.1094 26.4773C30.1468 25.8688 29.0698 25.4639 27.9447 25.2875L24.7918 24.7916C24.7919 26.7824 25.5026 28.7077 26.7961 30.2209C28.0896 31.7342 29.8808 32.7359 31.8472 33.0458L33.5418 33.3127V37.5754C32.8998 36.6349 32.072 35.8358 31.1094 35.2273C30.1468 34.6188 29.0698 34.2139 27.9447 34.0375L24.7918 33.5416C24.7919 35.5324 25.5026 37.4577 26.7961 38.9709C28.0896 40.4842 29.8808 41.4859 31.8472 41.7958L33.5418 42.0627V46.3254C32.8998 45.3849 32.072 44.5858 31.1094 43.9773C30.1468 43.3688 29.0698 42.9639 27.9447 42.7875L24.7918 42.2916C24.7919 44.2824 25.5026 46.2077 26.7961 47.7209C28.0896 49.2342 29.8808 50.2359 31.8472 50.5458L33.5418 50.8127V55.4166H36.4585V50.2439C36.9726 50.5344 37.5703 50.6408 38.1531 50.5458C39.4232 50.346 40.63 49.8559 41.6797 49.1135C42.7294 48.3711 43.5936 47.3965 44.2052 46.2656L52.5016 54.565ZM40.9706 43.0339L39.4291 41.491C39.012 41.6244 38.5855 41.7263 38.1531 41.7958L36.4585 42.0627V46.3254C37.5405 44.7432 39.1336 43.5811 40.9706 43.0339Z" fill="#1E293B"/>
</g>
</g>
<defs>
<filter id="filter0_d_523_543" x="3.8335" y="3.83331" width="66.3335" height="66.3333" filterUnits="userSpaceOnUse" color-interpolation-filters="sRGB">
<feFlood flood-opacity="0" result="BackgroundImageFix"/>
<feColorMatrix in="SourceAlpha" type="matrix" values="0 0 0 0 0 0 0 0 0 0 0 0 0 0 0 0 0 0 127 0" result="hardAlpha"/>
<feOffset dx="2" dy="2"/>
<feGaussianBlur stdDeviation="2"/>
<feComposite in2="hardAlpha" operator="out"/>
<feColorMatrix type="matrix" values="0 0 0 0 0 0 0 0 0 0 0 0 0 0 0 0 0 0 0.25 0"/>
<feBlend mode="normal" in2="BackgroundImageFix" result="effect1_dropShadow_523_543"/>
<feBlend mode="normal" in="SourceGraphic" in2="effect1_dropShadow_523_543" result="shape"/>
</filter>
<clipPath id="clip0_523_543">
<rect width="70" height="70" fill="white"/>
</clipPath>
</defs>
</svg>
