<svg width="70" height="70" viewBox="0 0 70 70" fill="none" xmlns="http://www.w3.org/2000/svg">
<g clip-path="url(#clip0_498_724)">
<g filter="url(#filter0_d_498_724)">
<path d="M30.3473 7.43831C24.8273 7.43831 19.8182 8.53343 16.0814 10.3864C12.3446 12.2391 9.69824 14.9721 9.69824 18.3203C9.69824 18.6717 9.72736 19.0167 9.78383 19.3543L9.77945 20.1575C9.70357 31.4912 12.0011 42.6631 11.8261 53.6151C11.7753 56.7999 13.7804 59.6181 17.0214 61.4892C20.2625 63.3604 24.7867 64.4287 30.3003 64.4287C35.8178 64.4287 40.0535 63.3317 43.0022 61.4168C45.9513 59.5016 47.5697 56.671 47.5697 53.6364C47.5697 53.203 47.5771 52.7689 47.5868 52.3335C53.3486 52.1812 57.8839 49.1274 60.8656 45.1471C63.9056 41.0888 65.5178 36.0818 65.608 31.5264C65.6982 26.9709 64.2431 22.3785 60.2546 20.5077C58.2602 19.5722 56.072 19.609 53.5212 20.3539C52.6791 20.5997 51.8057 20.9349 50.9064 21.3622C50.9159 20.9616 50.9235 20.561 50.9235 20.1659V19.2471C50.9686 18.9444 50.9918 18.6341 50.9918 18.3202C50.9918 14.9719 48.3454 12.2392 44.6084 10.3864C40.8719 8.53329 35.867 7.43831 30.3473 7.43831ZM30.3473 9.99331C35.5248 9.99331 40.2029 11.0532 43.4764 12.6764C46.7498 14.2993 48.4365 16.3643 48.4365 18.3202C48.4365 20.2761 46.7498 22.3452 43.4764 23.9684C40.2029 25.5913 35.5248 26.6472 30.3473 26.6472C25.1697 26.6472 20.4912 25.5914 17.2179 23.9683C13.9445 22.3454 12.2532 20.2761 12.2532 18.3202C12.2532 16.3643 13.9445 14.2993 17.2179 12.6764C20.4912 11.053 25.1695 9.99317 30.347 9.99317L30.3473 9.99331ZM20.8239 15.3294C17.6534 16.2464 15.6413 17.6105 15.6413 19.1321C15.6413 21.8929 22.2582 24.1308 30.4197 24.1308C38.5813 24.1308 45.194 21.8928 45.194 19.132C45.194 17.7287 43.4823 16.4597 40.7292 15.5517C41.4491 16.113 41.853 16.7401 41.853 17.4061C41.853 19.7557 36.8265 21.6613 30.6248 21.6613C24.4233 21.6613 19.3968 19.7557 19.3968 17.4059C19.3968 16.6515 19.9147 15.9439 20.8239 15.3294ZM56.8236 24.6649C57.4169 24.6617 57.8934 24.7733 58.2632 24.9469C59.7433 25.6409 60.7796 28.0655 60.7116 31.5264C60.6432 34.9871 59.3835 39.1156 57.0415 42.2417C54.8135 45.2153 51.8317 47.2117 47.8641 47.424C48.4591 40.6096 49.8096 33.6852 50.5 27.211C53.3334 25.3185 55.4074 24.6725 56.8233 24.6647L56.8236 24.6649Z" fill="#1E293B"/>
</g>
</g>
<defs>
<filter id="filter0_d_498_724" x="7.69824" y="5.43829" width="63.9136" height="64.9904" filterUnits="userSpaceOnUse" color-interpolation-filters="sRGB">
<feFlood flood-opacity="0" result="BackgroundImageFix"/>
<feColorMatrix in="SourceAlpha" type="matrix" values="0 0 0 0 0 0 0 0 0 0 0 0 0 0 0 0 0 0 127 0" result="hardAlpha"/>
<feOffset dx="2" dy="2"/>
<feGaussianBlur stdDeviation="2"/>
<feComposite in2="hardAlpha" operator="out"/>
<feColorMatrix type="matrix" values="0 0 0 0 0 0 0 0 0 0 0 0 0 0 0 0 0 0 0.25 0"/>
<feBlend mode="normal" in2="BackgroundImageFix" result="effect1_dropShadow_498_724"/>
<feBlend mode="normal" in="SourceGraphic" in2="effect1_dropShadow_498_724" result="shape"/>
</filter>
<clipPath id="clip0_498_724">
<rect width="70" height="70" fill="white"/>
</clipPath>
</defs>
</svg>
