<svg width="90" height="90" viewBox="0 0 90 90" fill="none" xmlns="http://www.w3.org/2000/svg">
<g filter="url(#filter0_d_429_515)">
<path d="M11.125 73.125V78.75C11.125 80.9878 12.0139 83.1339 13.5963 84.7162C15.1786 86.2986 17.3247 87.1875 19.5625 87.1875C21.8003 87.1875 23.9464 86.2986 25.5287 84.7162C27.1111 83.1339 28 80.9878 28 78.75V73.125M61.75 73.125V78.75C61.75 80.9878 62.6389 83.1339 64.2213 84.7162C65.8036 86.2986 67.9497 87.1875 70.1875 87.1875C72.4253 87.1875 74.5714 86.2986 76.1537 84.7162C77.7361 83.1339 78.625 80.9878 78.625 78.75V73.125M33.625 53.4375H56.125M73 30.9375H16.75M73 30.9375L80.9538 38.8913C81.9989 39.9361 82.828 41.1767 83.3936 42.5421C83.9592 43.9074 84.2502 45.3709 84.25 46.8488V59.0625C84.25 60.5543 83.6574 61.9851 82.6025 63.04C81.5476 64.0949 80.1168 64.6875 78.625 64.6875H11.125C9.63316 64.6875 8.20242 64.0949 7.14752 63.04C6.09263 61.9851 5.5 60.5543 5.5 59.0625V46.8488C5.49982 45.3709 5.79084 43.9074 6.35642 42.5421C6.92201 41.1767 7.75107 39.9361 8.79625 38.8913L16.75 30.9375M73 30.9375V8.4375C73 6.94566 72.4074 5.51492 71.3525 4.46002C70.2976 3.40513 68.8668 2.8125 67.375 2.8125H22.375C20.8832 2.8125 19.4524 3.40513 18.3975 4.46002C17.3426 5.51492 16.75 6.94566 16.75 8.4375V30.9375M73 30.9375H78.625C80.1168 30.9375 81.5476 30.3449 82.6025 29.29C83.6574 28.2351 84.25 26.8043 84.25 25.3125V19.6875C84.25 18.1957 83.6574 16.7649 82.6025 15.71C81.5476 14.6551 80.1168 14.0625 78.625 14.0625H73V30.9375ZM16.75 30.9375H11.125C9.63316 30.9375 8.20242 30.3449 7.14752 29.29C6.09263 28.2351 5.5 26.8043 5.5 25.3125V19.6875C5.5 18.1957 6.09263 16.7649 7.14752 15.71C8.20242 14.6551 9.63316 14.0625 11.125 14.0625H16.75V30.9375ZM44.875 2.8125V30.9375M6.5125 42.1875H83.2375" stroke="#1E293B" stroke-width="3" stroke-linecap="round" stroke-linejoin="round" shape-rendering="crispEdges"/>
</g>
<g filter="url(#filter1_d_429_515)">
<path d="M16.75 54.8438C16.377 54.8438 16.0194 54.6956 15.7556 54.4319C15.4919 54.1681 15.3438 53.8105 15.3438 53.4375C15.3438 53.0645 15.4919 52.7069 15.7556 52.4431C16.0194 52.1794 16.377 52.0312 16.75 52.0312C17.123 52.0312 17.4806 52.1794 17.7444 52.4431C18.0081 52.7069 18.1562 53.0645 18.1562 53.4375C18.1562 53.8105 18.0081 54.1681 17.7444 54.4319C17.4806 54.6956 17.123 54.8438 16.75 54.8438ZM73 54.8438C72.627 54.8438 72.2694 54.6956 72.0056 54.4319C71.7419 54.1681 71.5938 53.8105 71.5938 53.4375C71.5938 53.0645 71.7419 52.7069 72.0056 52.4431C72.2694 52.1794 72.627 52.0312 73 52.0312C73.373 52.0312 73.7306 52.1794 73.9944 52.4431C74.2581 52.7069 74.4062 53.0645 74.4062 53.4375C74.4062 53.8105 74.2581 54.1681 73.9944 54.4319C73.7306 54.6956 73.373 54.8438 73 54.8438Z" stroke="#1E293B" stroke-width="3" shape-rendering="crispEdges"/>
</g>
<defs>
<filter id="filter0_d_429_515" x="0" y="-0.6875" width="89.75" height="95.375" filterUnits="userSpaceOnUse" color-interpolation-filters="sRGB">
<feFlood flood-opacity="0" result="BackgroundImageFix"/>
<feColorMatrix in="SourceAlpha" type="matrix" values="0 0 0 0 0 0 0 0 0 0 0 0 0 0 0 0 0 0 127 0" result="hardAlpha"/>
<feOffset dy="2"/>
<feGaussianBlur stdDeviation="2"/>
<feComposite in2="hardAlpha" operator="out"/>
<feColorMatrix type="matrix" values="0 0 0 0 0 0 0 0 0 0 0 0 0 0 0 0 0 0 0.25 0"/>
<feBlend mode="normal" in2="BackgroundImageFix" result="effect1_dropShadow_429_515"/>
<feBlend mode="normal" in="SourceGraphic" in2="effect1_dropShadow_429_515" result="shape"/>
</filter>
<filter id="filter1_d_429_515" x="9.84375" y="48.5312" width="70.0625" height="13.8125" filterUnits="userSpaceOnUse" color-interpolation-filters="sRGB">
<feFlood flood-opacity="0" result="BackgroundImageFix"/>
<feColorMatrix in="SourceAlpha" type="matrix" values="0 0 0 0 0 0 0 0 0 0 0 0 0 0 0 0 0 0 127 0" result="hardAlpha"/>
<feOffset dy="2"/>
<feGaussianBlur stdDeviation="2"/>
<feComposite in2="hardAlpha" operator="out"/>
<feColorMatrix type="matrix" values="0 0 0 0 0 0 0 0 0 0 0 0 0 0 0 0 0 0 0.25 0"/>
<feBlend mode="normal" in2="BackgroundImageFix" result="effect1_dropShadow_429_515"/>
<feBlend mode="normal" in="SourceGraphic" in2="effect1_dropShadow_429_515" result="shape"/>
</filter>
</defs>
</svg>
