<svg width="80" height="80" viewBox="0 0 80 80" fill="none" xmlns="http://www.w3.org/2000/svg">
<g clip-path="url(#clip0_548_677)">
<g filter="url(#filter0_d_548_677)">
<path d="M56.0253 26.4562L55.6003 26.7937L56.1628 26.225C51.4815 21.575 44.0815 18.55 37.894 22.2625C35.4378 23.7375 33.7378 26.0875 30.9878 27.125C30.4253 27.3375 29.769 27.5 29.1753 27.65C28.7378 27.7562 27.5378 27.8062 27.194 28.0937C26.4003 28.7687 27.8878 30.725 28.1565 31.4312C29.094 33.9375 26.8503 36.575 24.6065 37.5562C22.8065 38.35 20.7253 38.6062 19.1565 37.1562C18.719 36.7562 18.3815 36.4 18.1128 35.875C17.9065 35.475 17.8503 35.05 17.4628 34.7625C16.7753 34.25 16.3628 34.8437 15.9815 35.4C15.2753 36.4437 14.919 36.9625 13.694 37.4875C11.294 38.5187 8.65653 38.775 6.51278 40.3562C-0.637216 45.6437 -1.32472 55.7437 2.63778 63.1312C5.22528 67.9625 8.99403 72.5562 13.5378 75.6687C20.4503 80.4062 30.5628 80.8187 36.6003 74.2812C38.4065 72.325 38.944 69.725 40.2315 67.45C40.8878 66.2812 41.4503 65.9875 42.5565 65.4C43.1565 65.0812 43.7878 64.7375 43.3503 63.9937C43.1065 63.575 42.6878 63.4812 42.319 63.2312C41.8253 62.9062 41.5065 62.5312 41.1565 62.0562C39.8815 60.3375 40.369 58.2937 41.3503 56.5875C42.569 54.4687 45.4315 52.5187 47.8253 53.725C48.5003 54.0687 50.2815 55.7562 51.044 55.0437C51.3628 54.7375 51.544 53.5437 51.7003 53.1187C51.9128 52.5375 52.1503 51.9062 52.419 51.375C53.744 48.7562 56.269 47.3187 58.0003 45.0375C62.3503 39.2937 60.1378 31.6125 56.0253 26.4562Z" fill="#64748B"/>
</g>
<g filter="url(#filter1_d_548_677)">
<path d="M34.5439 37.8813L74.2627 7.5813L76.5752 10.425L40.2064 44.2438L34.5439 37.8813Z" fill="#2F2F2F"/>
</g>
<path d="M71.3566 3.075C70.9129 4.4875 71.4754 5.8375 72.3316 6.9625C72.7816 7.55 73.2941 8.08125 73.8129 8.6C74.0441 8.8375 74.3441 9.06875 74.5379 9.3375C74.6816 9.5375 74.9816 9.875 75.0754 10.125C75.1504 10.3313 75.0941 10.6438 75.0941 10.8688C75.0941 11.3 75.0316 11.625 74.9379 11.9875C75.3754 11.8 75.7629 11.5 76.1816 11.3C78.2441 10.3125 79.9316 8.6625 79.7629 6.21875C79.6254 4.11875 77.8441 1.625 75.7566 0.968753C74.893 0.695111 73.9627 0.717103 73.1129 1.03125C72.0504 1.4375 71.6379 2.175 71.3566 3.075Z" fill="#2F2F2F"/>
<g filter="url(#filter2_d_548_677)">
<path d="M68.8876 9.37498C68.1689 9.90623 67.3564 10.2937 66.6939 10.8937C65.5564 11.9187 66.0501 12.3312 66.7814 13.4812C67.1189 14.0125 67.4626 14.5062 67.8501 15C68.1564 15.3937 68.5251 15.6687 68.8189 16.05C69.6126 17.0687 70.6064 17.8562 71.7814 16.8625C72.3501 16.3875 72.8126 15.7875 73.3501 15.275C74.3939 14.275 75.3876 13.225 76.4064 12.1875C78.0501 10.5125 79.5314 9.20623 79.5314 6.66873C79.5314 6.09998 79.5439 5.45623 79.1001 5.04998C77.3876 3.46248 75.0626 5.11873 73.5189 6.13748C71.9483 7.1777 70.404 8.2572 68.8876 9.37498Z" fill="#2F2F2F"/>
</g>
<path d="M63.8502 8.69369C63.9314 7.64994 65.0627 6.99369 65.9752 7.40619C66.4752 7.63119 66.8814 8.03119 67.2502 8.42494C67.5877 8.78119 67.6439 9.25619 68.1752 9.43119C68.4127 9.50619 68.6814 9.44369 68.9314 9.47494C68.8689 9.70619 68.6314 9.92494 68.4564 10.0812C68.2502 10.2687 68.0814 10.4687 67.8877 10.6687C67.6439 10.9187 67.3627 11.1249 67.0627 11.3062C66.9877 11.3562 66.1564 11.7437 66.1627 11.7687C66.1314 11.5062 66.2814 11.1062 66.0627 10.8999C65.2877 10.1624 63.7314 10.1749 63.8502 8.69369Z" fill="#2F2F2F"/>
<path d="M69.5878 9.28756C69.7315 9.16256 69.8753 9.03756 70.0253 8.91881C70.5878 8.48131 71.8003 7.86256 72.069 7.15006C71.8378 7.25006 71.4128 7.41881 71.169 7.27506C70.9815 7.16256 70.8753 6.78756 70.7815 6.60006C70.5003 6.05631 70.3065 5.37506 69.769 5.01881C69.244 4.68131 68.544 4.56881 67.994 4.90006C67.3565 5.28756 67.0878 5.89381 67.3565 6.60006C67.5128 7.01881 67.7753 7.42506 68.094 7.74381C68.7628 8.40006 69.369 8.76881 68.7065 9.76881C68.7315 9.72506 69.2753 9.53131 69.3815 9.45006C69.4503 9.40006 69.519 9.34381 69.5878 9.28756ZM71.0628 15.9251C71.0565 15.9438 71.0565 15.9626 71.0503 15.9813C71.0065 16.2063 71.0628 16.4313 71.0628 16.6563C71.069 16.8376 70.9565 17.0313 70.969 17.2001C71.3378 17.3188 71.519 16.9063 71.9003 17.2563C72.2878 17.6188 72.1878 18.2626 72.5815 18.6501C73.344 19.3938 74.6503 19.5376 75.3378 18.6063C75.869 17.8813 75.6628 17.1001 75.0128 16.5313C74.2128 15.8251 73.5065 15.9688 73.8878 14.7313C73.7128 14.7126 73.444 14.7876 73.2753 14.8251C73.1315 14.8563 72.944 14.8938 72.794 14.8751C72.4565 14.8376 71.8815 14.6376 71.5878 14.8876C71.2878 15.1438 71.1315 15.5438 71.0628 15.9251Z" fill="#2F2F2F"/>
<path d="M73.944 12.9625C73.9315 12.9875 73.9252 13.0125 73.919 13.0438C73.844 13.3688 74.0502 13.6813 74.0502 14.0125C74.0565 14.1938 74.0565 14.6313 73.8877 14.7563C74.094 14.5563 74.2815 14.3688 74.6002 14.4188C75.0315 14.4875 75.219 15.05 75.5127 15.3188C75.9752 15.7313 76.619 16.0688 77.2377 16.1063C78.3377 16.175 79.5565 14.9188 78.8252 13.7938C78.2752 12.95 76.2815 13.275 76.8002 11.925C76.8565 11.7875 76.969 11.6813 77.0002 11.525C76.769 11.8188 76.3127 12.0875 75.969 12.2188C75.8127 12.2813 75.6065 12.3375 75.444 12.3563C75.219 12.3875 75.0377 12.2813 74.8252 12.2688C74.394 12.2625 74.0877 12.5625 73.944 12.9625ZM21.494 42.7125C20.594 43.075 19.7377 42.9875 18.9627 41.7938C18.7815 41.5125 18.4127 41.3375 18.0752 41.3C15.9377 41.05 15.7877 43.8813 17.0877 45.0063C19.3377 46.9688 21.769 45.8125 23.919 44.3625C25.0065 43.6313 26.044 42.8 27.244 42.2563C27.8315 41.9875 28.5815 41.6688 29.244 41.7438C30.144 41.8438 30.1565 42.7063 30.9127 42.8875C31.969 43.1438 33.1815 42.1375 32.8627 41.0563C32.294 39.0938 29.4252 39.2063 27.894 39.4188C26.3127 39.6375 24.9252 40.5125 23.6377 41.3938C22.9065 41.9 22.1877 42.4375 21.494 42.7125ZM34.6502 58.4125C34.1315 59.2313 34.0627 60.0875 35.0877 61.0688C35.3377 61.3 35.4377 61.6938 35.419 62.0313C35.2752 64.1813 32.4627 63.8125 31.594 62.325C30.0815 59.75 31.6565 57.575 33.4815 55.725C34.4065 54.7938 35.4065 53.925 36.169 52.8438C36.5377 52.3188 36.9877 51.6375 37.0377 50.9813C37.1002 50.075 36.2565 49.9063 36.219 49.1313C36.1627 48.05 37.3752 47.0375 38.3815 47.5438C40.2002 48.4688 39.569 51.2688 39.0752 52.7313C38.569 54.2438 37.4565 55.45 36.3502 56.55C35.7127 57.175 35.0502 57.7813 34.6502 58.4125Z" fill="#2F2F2F"/>
<path d="M21.7188 49.9938L27.1313 55.75L15.4437 63.775L13 60.6375L21.7188 49.9938Z" fill="#2F2F2F"/>
<path d="M2.88086 69.7062L5.32461 72.8437L15.4434 63.775L12.9996 60.6375L2.88086 69.7062Z" fill="#2F2F2F"/>
</g>
<defs>
<filter id="filter0_d_548_677" x="-1.76953" y="18.5999" width="68.1416" height="66.6112" filterUnits="userSpaceOnUse" color-interpolation-filters="sRGB">
<feFlood flood-opacity="0" result="BackgroundImageFix"/>
<feColorMatrix in="SourceAlpha" type="matrix" values="0 0 0 0 0 0 0 0 0 0 0 0 0 0 0 0 0 0 127 0" result="hardAlpha"/>
<feOffset dx="2" dy="2"/>
<feGaussianBlur stdDeviation="2"/>
<feComposite in2="hardAlpha" operator="out"/>
<feColorMatrix type="matrix" values="0 0 0 0 0 0 0 0 0 0 0 0 0 0 0 0 0 0 0.25 0"/>
<feBlend mode="normal" in2="BackgroundImageFix" result="effect1_dropShadow_548_677"/>
<feBlend mode="normal" in="SourceGraphic" in2="effect1_dropShadow_548_677" result="shape"/>
</filter>
<filter id="filter1_d_548_677" x="32.5439" y="5.5813" width="50.0312" height="44.6625" filterUnits="userSpaceOnUse" color-interpolation-filters="sRGB">
<feFlood flood-opacity="0" result="BackgroundImageFix"/>
<feColorMatrix in="SourceAlpha" type="matrix" values="0 0 0 0 0 0 0 0 0 0 0 0 0 0 0 0 0 0 127 0" result="hardAlpha"/>
<feOffset dx="2" dy="2"/>
<feGaussianBlur stdDeviation="2"/>
<feComposite in2="hardAlpha" operator="out"/>
<feColorMatrix type="matrix" values="0 0 0 0 0 0 0 0 0 0 0 0 0 0 0 0 0 0 0.25 0"/>
<feBlend mode="normal" in2="BackgroundImageFix" result="effect1_dropShadow_548_677"/>
<feBlend mode="normal" in="SourceGraphic" in2="effect1_dropShadow_548_677" result="shape"/>
</filter>
<filter id="filter2_d_548_677" x="64.0205" y="2.39221" width="21.5107" height="20.928" filterUnits="userSpaceOnUse" color-interpolation-filters="sRGB">
<feFlood flood-opacity="0" result="BackgroundImageFix"/>
<feColorMatrix in="SourceAlpha" type="matrix" values="0 0 0 0 0 0 0 0 0 0 0 0 0 0 0 0 0 0 127 0" result="hardAlpha"/>
<feOffset dx="2" dy="2"/>
<feGaussianBlur stdDeviation="2"/>
<feComposite in2="hardAlpha" operator="out"/>
<feColorMatrix type="matrix" values="0 0 0 0 0 0 0 0 0 0 0 0 0 0 0 0 0 0 0.25 0"/>
<feBlend mode="normal" in2="BackgroundImageFix" result="effect1_dropShadow_548_677"/>
<feBlend mode="normal" in="SourceGraphic" in2="effect1_dropShadow_548_677" result="shape"/>
</filter>
<clipPath id="clip0_548_677">
<rect width="80" height="80" fill="white"/>
</clipPath>
</defs>
</svg>
