<svg width="70" height="70" viewBox="0 0 70 70" fill="none" xmlns="http://www.w3.org/2000/svg">
<g clip-path="url(#clip0_498_722)">
<g filter="url(#filter0_d_498_722)">
<path d="M35.0002 58.3333C33.2502 58.3333 31.8648 58.8194 30.8439 59.7917C29.8231 60.7639 27.9516 61.25 25.2293 61.25C22.5071 61.25 20.6356 60.7639 19.6148 59.7917C18.5939 58.8194 17.2085 58.3333 15.4585 58.3333C14.0488 58.3333 12.9793 58.6619 12.2502 59.3192C11.521 59.9764 10.3786 60.4985 8.82309 60.8854C8.04531 61.0799 7.35309 60.9097 6.74642 60.375C6.13976 59.8403 5.83545 59.1597 5.83351 58.3333C5.83156 57.5069 6.12323 56.7904 6.70851 56.1838C7.29378 55.5771 7.95003 55.0783 8.67726 54.6875C9.50364 54.25 10.3786 53.7756 11.3023 53.2642C12.2259 52.7528 13.6113 52.4981 15.4585 52.5C18.1807 52.5 20.0523 52.9861 21.0731 53.9583C22.0939 54.9306 23.4793 55.4167 25.2293 55.4167C26.9793 55.4167 28.3648 54.9306 29.3856 53.9583C30.4064 52.9861 32.2779 52.5 35.0002 52.5C37.7224 52.5 39.5939 52.9861 40.6148 53.9583C41.6356 54.9306 43.021 55.4167 44.771 55.4167C46.521 55.4167 47.9064 54.9306 48.9272 53.9583C49.9481 52.9861 51.8196 52.5 54.5418 52.5C56.3891 52.5 57.7745 52.7557 58.6981 53.2671C59.6217 53.7785 60.4967 54.2519 61.3231 54.6875C62.0523 55.0764 62.7085 55.5751 63.2918 56.1838C63.8752 56.7924 64.1668 57.5089 64.1668 58.3333C64.1668 59.1578 63.8635 59.8383 63.2568 60.375C62.6502 60.9117 61.957 61.0818 61.1773 60.8854C59.6217 60.4965 58.4793 59.9744 57.7502 59.3192C57.021 58.6639 55.9516 58.3353 54.5418 58.3333C52.7918 58.3333 51.4064 58.8194 50.3856 59.7917C49.3647 60.7639 47.4932 61.25 44.771 61.25C42.0488 61.25 40.1773 60.7639 39.1564 59.7917C38.1356 58.8194 36.7502 58.3333 35.0002 58.3333ZM35.0002 45.2083C33.1529 45.2083 31.7792 45.6944 30.8789 46.6667C29.9786 47.6389 28.0954 48.125 25.2293 48.125C22.3632 48.125 20.4548 47.6389 19.5039 46.6667C18.5531 45.6944 17.2046 45.2083 15.4585 45.2083C14.0488 45.2083 12.9793 45.5369 12.2502 46.1942C11.521 46.8514 10.3786 47.3735 8.82309 47.7604C8.04531 47.9549 7.35309 47.7847 6.74642 47.25C6.13976 46.7153 5.83545 46.0347 5.83351 45.2083C5.83156 44.3819 6.12323 43.6654 6.70851 43.0588C7.29378 42.4521 7.95003 41.9533 8.67726 41.5625C9.50364 41.125 10.3786 40.6506 11.3023 40.1392C12.2259 39.6278 13.6113 39.3731 15.4585 39.375C18.1807 39.375 20.0649 39.8611 21.111 40.8333C22.1571 41.8056 23.5299 42.2917 25.2293 42.2917C26.9793 42.2917 28.3648 41.8056 29.3856 40.8333C30.4064 39.8611 32.2779 39.375 35.0002 39.375C37.7224 39.375 39.5939 39.8611 40.6148 40.8333C41.6356 41.8056 43.021 42.2917 44.771 42.2917C46.521 42.2917 47.9064 41.8056 48.9272 40.8333C49.9481 39.8611 51.8196 39.375 54.5418 39.375C56.3891 39.375 57.7745 39.6307 58.6981 40.1421C59.6217 40.6535 60.4967 41.1269 61.3231 41.5625C62.0523 41.9514 62.7085 42.4501 63.2918 43.0588C63.8752 43.6674 64.1668 44.3839 64.1668 45.2083C64.1668 46.0328 63.8635 46.7133 63.2568 47.25C62.6502 47.7867 61.957 47.9568 61.1773 47.7604C59.6217 47.3715 58.4793 46.8494 57.7502 46.1942C57.021 45.5389 55.9516 45.2103 54.5418 45.2083C52.7918 45.2083 51.4424 45.6944 50.4935 46.6667C49.5446 47.6389 47.6371 48.125 44.771 48.125C42.0002 48.125 40.117 47.6389 39.1214 46.6667C38.1259 45.6944 36.7521 45.2083 35.0002 45.2083ZM20.1252 33.25L29.8231 23.5521L26.9064 20.6354C25.6911 19.4201 24.4399 18.4596 23.1527 17.7538C21.8654 17.0479 20.3945 16.5744 18.7398 16.3333C17.7675 16.1389 16.9295 15.6771 16.2256 14.9479C15.5217 14.2188 15.1688 13.3681 15.1668 12.3958C15.1668 11.375 15.5314 10.5117 16.2606 9.80584C16.9898 9.1 17.8404 8.79667 18.8127 8.89584C21.4377 9.13889 23.6981 9.68625 25.5939 10.5379C27.4898 11.3896 29.3613 12.7381 31.2085 14.5833L49.8752 33.25C49.0488 33.7847 48.2467 34.2106 47.4689 34.5275C46.6911 34.8444 45.7918 35.0019 44.771 35C43.021 35 41.6356 34.5139 40.6148 33.5417C39.5939 32.5694 37.7224 32.0833 35.0002 32.0833C32.2779 32.0833 30.4064 32.5694 29.3856 33.5417C28.3648 34.5139 26.9793 35 25.2293 35C24.2085 35 23.3092 34.8425 22.5314 34.5275C21.7536 34.2125 20.9516 33.7867 20.1252 33.25ZM48.7085 8.75C50.7502 8.75 52.4759 9.4675 53.8856 10.9025C55.2953 12.3375 56.0002 14.0506 56.0002 16.0417C56.0002 18.0833 55.2953 19.809 53.8856 21.2188C52.4759 22.6285 50.7502 23.3333 48.7085 23.3333C46.6668 23.3333 44.9411 22.6285 43.5314 21.2188C42.1217 19.809 41.4168 18.0833 41.4168 16.0417C41.4168 14.0486 42.1217 12.3346 43.5314 10.8996C44.9411 9.46459 46.6668 8.74806 48.7085 8.75Z" fill="#1E293B"/>
</g>
</g>
<defs>
<filter id="filter0_d_498_722" x="3.8335" y="6.75" width="66.3335" height="60.5" filterUnits="userSpaceOnUse" color-interpolation-filters="sRGB">
<feFlood flood-opacity="0" result="BackgroundImageFix"/>
<feColorMatrix in="SourceAlpha" type="matrix" values="0 0 0 0 0 0 0 0 0 0 0 0 0 0 0 0 0 0 127 0" result="hardAlpha"/>
<feOffset dx="2" dy="2"/>
<feGaussianBlur stdDeviation="2"/>
<feComposite in2="hardAlpha" operator="out"/>
<feColorMatrix type="matrix" values="0 0 0 0 0 0 0 0 0 0 0 0 0 0 0 0 0 0 0.25 0"/>
<feBlend mode="normal" in2="BackgroundImageFix" result="effect1_dropShadow_498_722"/>
<feBlend mode="normal" in="SourceGraphic" in2="effect1_dropShadow_498_722" result="shape"/>
</filter>
<clipPath id="clip0_498_722">
<rect width="70" height="70" fill="white"/>
</clipPath>
</defs>
</svg>
