<svg width="70" height="70" viewBox="0 0 70 70" fill="none" xmlns="http://www.w3.org/2000/svg">
<g clip-path="url(#clip0_498_742)">
<g filter="url(#filter0_d_498_742)">
<path d="M66.1233 57.4H43.3999V63H66.3557C66.8616 63.0241 67.3604 62.874 67.7689 62.5746C68.1773 62.2752 68.4707 61.8447 68.5999 61.355V59.997C68.5999 59.997 68.5831 57.4 66.1233 57.4ZM62.9803 56.294C64.472 56.2918 65.9017 55.6975 66.9555 54.6416C68.0092 53.5858 68.6006 52.1549 68.5999 50.6632C68.5999 47.5454 66.0799 45.031 62.9803 45.031C62.2422 45.0323 61.5115 45.179 60.8301 45.4628C60.1487 45.7466 59.5299 46.1619 59.009 46.6849C58.4882 47.208 58.0755 47.8286 57.7946 48.5112C57.5137 49.1938 57.3701 49.9251 57.3719 50.6632C57.3719 53.7698 59.8849 56.294 62.9803 56.294ZM51.1447 56C54.0931 56 56.4647 53.9224 56.4647 50.9782C56.4633 48.0396 54.0833 46.4982 51.1573 46.4758L43.3999 47.4586V56H51.1447ZM25.9321 19.5062C29.3747 19.5062 32.1593 16.7062 32.1593 13.2524C32.1593 9.7986 29.3747 7 25.9321 7C22.4923 7 19.7035 9.7986 19.7035 13.2524C19.7035 16.7062 22.4923 19.5062 25.9321 19.5062ZM19.5733 39.7446L19.5173 39.6634L16.6949 33.0918L16.6907 46.2H25.1257L26.9681 44.24L21.9715 42.3164C20.7871 41.8712 19.9457 40.8632 19.5733 39.7446ZM21.3611 39.1552C21.6341 39.7684 22.1395 40.2654 22.7751 40.4936L32.4029 44.0622C32.6963 44.1909 33.0122 44.2605 33.3325 44.2669C33.6527 44.2734 33.9712 44.2166 34.2695 44.0998C34.5678 43.983 34.8402 43.8085 35.071 43.5864C35.3018 43.3642 35.4865 43.0987 35.6145 42.805C35.8744 42.2093 35.8884 41.535 35.6534 40.929C35.4185 40.3231 34.9536 39.8344 34.3601 39.5696L25.4771 36.2152L22.7331 29.6338L24.5223 28.9674L26.8477 34.6066L33.5999 37.1098V30.219L37.1839 32.3512L38.9703 41.3504C39.0732 41.6549 39.2354 41.936 39.4475 42.1774C39.6597 42.4188 39.9176 42.6157 40.2064 42.7569C40.4951 42.898 40.809 42.9805 41.1298 42.9995C41.4506 43.0186 41.7721 42.9739 42.0755 42.868C42.6866 42.6506 43.1873 42.2011 43.4691 41.6169C43.7508 41.0327 43.7908 40.3609 43.5805 39.7474L41.5785 31.08C41.4469 30.6004 41.1725 30.1721 40.7917 29.8522C39.7655 28.7154 34.5757 22.9124 34.2061 22.5246C33.6643 21.9814 32.4253 21 30.0845 21H21.6845C16.9105 21 15.9921 25.872 16.9679 28.35L21.3611 39.1552ZM41.9999 47.6H4.1537C2.7761 47.6 1.3999 48.377 1.3999 50.0864V63H41.9999V47.6Z" fill="#1E293B"/>
</g>
</g>
<defs>
<filter id="filter0_d_498_742" x="-0.600098" y="5" width="75.2002" height="64.0026" filterUnits="userSpaceOnUse" color-interpolation-filters="sRGB">
<feFlood flood-opacity="0" result="BackgroundImageFix"/>
<feColorMatrix in="SourceAlpha" type="matrix" values="0 0 0 0 0 0 0 0 0 0 0 0 0 0 0 0 0 0 127 0" result="hardAlpha"/>
<feOffset dx="2" dy="2"/>
<feGaussianBlur stdDeviation="2"/>
<feComposite in2="hardAlpha" operator="out"/>
<feColorMatrix type="matrix" values="0 0 0 0 0 0 0 0 0 0 0 0 0 0 0 0 0 0 0.25 0"/>
<feBlend mode="normal" in2="BackgroundImageFix" result="effect1_dropShadow_498_742"/>
<feBlend mode="normal" in="SourceGraphic" in2="effect1_dropShadow_498_742" result="shape"/>
</filter>
<clipPath id="clip0_498_742">
<rect width="70" height="70" fill="white"/>
</clipPath>
</defs>
</svg>
