<svg width="90" height="90" viewBox="0 0 90 90" fill="none" xmlns="http://www.w3.org/2000/svg">
<path d="M70.3969 6.73313C67.403 4.92609 65.4623 5.58281 64.4513 6.28594C63.3375 5.57578 62.2153 4.97812 61.1072 4.56328C58.1344 3.45094 53.3123 2.8125 47.8772 2.8125C42.442 2.8125 37.6186 3.45094 34.6472 4.56328C33.5377 4.97812 32.4155 5.57578 31.3017 6.28594C30.2878 5.58562 28.3472 4.93594 25.3617 6.73875C18.5681 10.8464 4.00922 9.21938 12.6267 26.917C13.9458 29.6213 14.9709 31.5492 15.8752 32.6939C15.7936 39.5114 17.3475 47.7548 20.4877 53.8538C19.3894 55.6256 17.7427 59.1244 17.8791 63.9577C10.2727 62.1225 4.21875 53.1675 4.21875 53.1675C4.21875 64.3528 12.9248 69.4238 18.7847 69.4786C19.3859 71.4944 20.2114 73.4364 21.2456 75.2681C22.4452 77.4127 26.0958 78.9033 29.2036 79.6317C29.8547 81.9802 30.6773 83.5889 31.6955 84.5831C33.6741 86.5111 37.4639 87.1875 40.5478 87.1875C40.7372 87.1875 40.9228 87.1856 41.1047 87.1819C43.92 87.1045 46.3008 86.4872 47.8786 85.4494C49.4564 86.4872 51.8358 87.1059 54.6483 87.1819C57.818 87.255 61.9566 86.6278 64.0589 84.5817C65.063 83.603 65.8814 81.983 66.5339 79.6331C69.6445 78.9047 73.3064 77.4169 74.5102 75.2667C79.9791 65.4891 77.5238 58.0795 75.8152 54.81C79.0706 48.5508 80.2884 39.6506 79.9847 32.5533C80.8622 31.3931 81.8606 29.5144 83.1277 26.91C91.748 9.21094 77.1891 10.8408 70.3969 6.73313ZM23.7192 73.973C19.1981 65.8884 20.6522 59.8233 22.1456 56.648C23.3775 58.4353 24.7894 59.9034 26.3784 60.9342C26.5584 61.3111 26.872 61.9031 27.322 62.6161C27.5231 68.5434 27.9155 73.1475 28.5384 76.6322C26.003 75.8616 24.1706 74.7787 23.7192 73.973ZM28.3725 57.368C27.8296 56.837 27.3982 56.203 27.1036 55.503C26.8091 54.8031 26.6574 54.0513 26.6574 53.292C26.6574 52.5326 26.8091 51.7808 27.1036 51.0809C27.3982 50.3809 27.8296 49.7469 28.3725 49.2159L37.402 40.3523C38.4455 39.3272 39.7505 38.5045 41.2172 37.8802C40.725 38.4061 40.4255 39.0755 40.4255 39.9727C40.4255 42.4561 46.3556 44.6569 47.8786 44.6569C49.3988 44.6569 55.3317 42.4561 55.3317 39.9727C55.3317 39.0741 55.0308 38.4047 54.54 37.8787C56.0095 38.5031 57.3159 39.3272 58.3636 40.3509L67.3861 49.2159C67.9291 49.7467 68.3606 50.3805 68.6552 51.0803C68.9498 51.7801 69.1017 52.5317 69.1018 53.291C69.1019 54.0502 68.9503 54.8019 68.656 55.5018C68.3616 56.2016 67.9303 56.8357 67.3875 57.3666C66.2837 58.4485 64.7974 59.051 63.2517 59.0428C61.8517 59.0408 60.4983 58.5392 59.4352 57.6281L59.3592 57.5606C59.2792 57.4929 59.1966 57.4282 59.1117 57.3666L51.0708 49.4761L50.0822 48.5058C49.5352 47.9686 48.7336 47.6592 47.8814 47.6592C47.0306 47.6592 46.2277 47.9686 45.6834 48.5044L44.4108 49.7531L36.5681 57.4313C36.51 57.4734 36.4533 57.5184 36.398 57.5662L36.3389 57.6183C35.2758 58.5364 33.9185 59.0424 32.5139 59.0442C30.9666 59.0523 29.4785 58.45 28.3725 57.368ZM41.7755 57.5437C42.383 60.8611 45.277 62.3475 47.8786 62.3475C50.4802 62.3475 53.3728 60.8611 53.9789 57.5437C54.1617 56.5537 53.9831 55.2867 53.467 53.7652L57.0164 57.2513L57.8728 58.0922L54.5231 61.3814C52.9734 62.8987 50.5533 63.7692 47.8786 63.7692C45.2039 63.7692 42.7781 62.8988 41.227 61.3828L37.8802 58.095L42.2873 53.7722C41.7698 55.2867 41.5941 56.5552 41.7755 57.5437ZM44.145 52.8581H46.7297L47.8772 59.5463L49.0247 52.8581H51.6094C52.4391 54.7622 52.7822 56.2852 52.5952 57.3061C52.1297 59.85 49.8895 60.9863 47.8786 60.9863C45.8634 60.9863 43.6261 59.8486 43.1606 57.3061C42.9736 56.2837 43.3153 54.7622 44.145 52.8581ZM46.8267 82.7606C45.9309 83.7366 43.7077 84.3877 41.0273 84.4622C37.8872 84.5437 34.8638 83.8083 33.6909 82.6636C31.95 80.9662 30.8138 75.4523 30.3005 66.2766C32.9456 68.8781 37.0505 71.5669 43.207 72.5006C42.6839 71.7806 42.3408 70.6598 42.3408 69.3858C42.3408 69.1341 42.3647 68.8908 42.3914 68.6531C42.8302 68.7712 43.2703 68.8978 43.7062 68.9906C43.6964 69.1214 43.6838 69.2522 43.6838 69.3858C43.6838 71.1773 44.4431 72.5808 45.4134 72.758C46.0603 72.8058 46.7184 72.8438 47.3991 72.8564C47.357 73.8482 47.3331 74.8407 47.3273 75.8334C47.3428 77.85 47.4089 79.8652 47.6283 81.8831L46.8267 82.7606ZM62.0634 82.6622C60.8906 83.8069 57.8644 84.5367 54.7284 84.4608C52.0467 84.3863 49.8248 83.7352 48.9319 82.7592L48.1219 81.8775C48.3398 79.8609 48.4017 77.8458 48.413 75.8292C48.4068 74.836 48.3815 73.843 48.337 72.8508C56.8688 72.7341 62.2519 69.48 65.4581 66.3272C64.9477 75.4678 63.81 80.962 62.0634 82.6622ZM72.0394 73.9716C71.5866 74.7788 69.7458 75.8672 67.2005 76.6364C67.8347 73.1348 68.2355 68.5209 68.4352 62.6484C68.5702 62.4375 68.6916 62.2378 68.7994 62.0494C69.3295 61.733 69.8442 61.4334 70.3898 61.1016C71.7666 60.2634 72.9731 59.0878 74.032 57.6759C75.2738 60.982 76.1147 66.6802 72.0394 73.9716ZM68.888 58.7995C60.7739 63.7453 54.5358 66.8109 48.5086 66.8109C42.9848 66.8109 37.2684 64.2164 30.1106 59.9836C30.8818 60.2548 31.6923 60.3974 32.5097 60.4055C34.0875 60.4055 35.5753 59.8964 36.817 58.9922L40.2258 62.3377C42.0412 64.1123 44.8298 65.1305 47.8786 65.1305C50.9245 65.1305 53.7117 64.1109 55.5244 62.3363L58.9345 58.9894C60.1856 59.907 61.696 60.4029 63.2475 60.4055C65.1672 60.4157 67.0133 59.6678 68.3845 58.3242C69.0546 57.669 69.587 56.8865 69.9504 56.0227C70.3139 55.1589 70.5011 54.2312 70.5011 53.2941C70.5011 52.3569 70.3139 51.4292 69.9504 50.5654C69.587 49.7016 69.0546 48.9191 68.3845 48.2639L60.8428 40.853C62.3095 41.9123 64.0736 42.4808 65.8828 42.4772C70.4503 42.4772 74.167 38.9756 74.167 34.6711C74.167 30.3666 70.4503 26.8636 65.8828 26.8636C61.3153 26.8636 57.5972 30.3652 57.5972 34.6711C57.5972 36.3769 58.1878 37.9519 59.1764 39.2372C56.4525 36.6848 52.3575 35.2153 47.873 35.2153C43.3772 35.2153 39.2709 36.6933 36.5555 39.2611C37.5864 37.9528 38.1493 36.3368 38.1544 34.6711C38.1544 30.3652 34.4362 26.8636 29.8687 26.8636C25.3013 26.8636 21.5859 30.3652 21.5859 34.6711C21.5859 38.977 25.3013 42.4772 29.8687 42.4772C31.6898 42.4811 33.4648 41.9053 34.9369 40.8333L27.3698 48.2625C26.0402 49.5645 25.2815 51.3408 25.2601 53.2016C25.2388 55.0624 25.9566 56.8557 27.2559 58.1878C21.7645 53.9016 18.7636 42.3563 18.7003 33.3759C19.7873 32.3452 20.97 29.7787 22.6209 25.5136C23.9639 22.043 23.9766 19.3908 24.2845 17.0198C27.5147 12.6127 31.777 8.55422 35.6597 7.10156C38.2823 6.12141 42.8498 5.535 47.8772 5.535C52.9045 5.535 57.4692 6.12141 60.0933 7.10156C63.9788 8.55422 68.2425 12.6155 71.4741 17.0255C71.7806 19.395 71.7961 22.043 73.1348 25.508C74.8983 30.0614 76.1245 32.663 77.2734 33.5419C77.5533 43.0945 74.835 55.1742 68.888 58.7995ZM67.7784 40.0148C68.8781 40.0148 69.8977 39.7069 70.7667 39.1992C69.4437 40.4388 67.6958 41.1243 65.8828 41.1145C62.0902 41.1145 59.0048 38.2219 59.0048 34.6697C59.0048 31.1175 62.0887 28.2234 65.8828 28.2234C67.7925 28.2234 69.5222 28.9589 70.7695 30.1402C69.8631 29.6063 68.8304 29.3242 67.7784 29.3231C64.6369 29.3231 62.0916 31.718 62.0916 34.6697C62.0916 37.6214 64.6369 40.0148 67.7784 40.0148ZM27.9773 29.3245C26.8763 29.3245 25.8581 29.6325 24.9877 30.1416C26.3097 28.9002 28.0581 28.214 29.8716 28.2248C33.6642 28.2248 36.7509 31.1175 36.7509 34.6711C36.7509 38.2247 33.6656 41.1159 29.8716 41.1159C28.0585 41.1257 26.3107 40.4402 24.9877 39.2006C25.8581 39.7083 26.8763 40.0163 27.9773 40.0163C31.1175 40.0163 33.6614 37.6242 33.6614 34.6711C33.6614 31.718 31.1175 29.3245 27.9773 29.3245Z" fill="#E6502C"/>
<path d="M39.4295 44.4698L38.1653 43.2844L36.9025 44.4726L38.1653 45.6581L39.4295 44.4698ZM36.4202 47.7365L35.1573 46.5483L33.8945 47.7365L35.1573 48.9248L36.4202 47.7365ZM37.8503 48.9248L39.1117 50.1131L40.3759 48.9248L39.1117 47.7365L37.8503 48.9248ZM61.8592 47.7365L60.5964 46.5483L59.3322 47.7365L60.5964 48.9248L61.8592 47.7365ZM58.8512 44.4726L57.5884 43.2844L56.3256 44.4698L57.5884 45.6581L58.8512 44.4726ZM57.9048 48.9248L56.6406 47.7365L55.3778 48.9248L56.6406 50.1131L57.9048 48.9248Z" fill="#E6502C"/>
</svg>
