<svg width="90" height="90" viewBox="0 0 90 90" fill="none" xmlns="http://www.w3.org/2000/svg">
<g clip-path="url(#clip0_550_774)">
<path d="M89.5364 42.0117C89.2762 35.0156 89.4801 28.0125 88.3551 21.0797C87.4903 15.7148 85.6551 11.5875 80.0653 10.4273C80.0653 10.4273 79.8543 10.3289 78.5957 10.1883C77.6606 10.0617 76.7114 9.99141 75.7621 9.95625C71.2973 9.66797 62.2551 9.3586 44.0371 9.3586C29.0395 9.3586 20.4825 9.63985 15.6871 9.90703C13.9293 9.94219 12.1434 10.0406 10.4348 10.343C10.0692 10.3992 9.92855 10.4273 9.92855 10.4273C4.34574 11.5875 2.51058 15.7078 1.64574 21.0797C0.520737 28.0125 0.724643 35.0156 0.464487 42.0117C0.134018 50.9203 -0.0909818 59.843 0.942612 68.7164C1.17464 70.6781 1.58246 72.9141 2.32777 74.7422C4.43011 79.9523 11.7075 79.8398 16.1301 80.1352C23.7309 80.6484 31.3809 80.6766 38.9957 80.6062C40.9996 80.5922 43.0036 80.557 45.0075 80.5078C47.0114 80.55 49.0223 80.5852 51.0192 80.6062C58.634 80.6766 66.284 80.6414 73.8848 80.1352C78.3004 79.8398 85.5778 79.9523 87.6871 74.7422C88.4254 72.9141 88.8332 70.6781 89.0653 68.7164C90.0918 59.843 89.8739 50.9203 89.5364 42.0117Z" fill="#1E293B"/>
<path d="M13.8864 73.8141C12.3677 73.8562 10.856 73.9687 9.33721 73.9828C4.70362 74.018 5.28721 68.8148 5.06221 65.2641C4.94971 63.5062 4.90049 61.7344 4.97784 59.9695C5.00596 59.3086 4.96378 55.6664 6.06065 55.6805C6.70049 55.6875 7.33331 55.6664 7.97315 55.6312C8.44424 55.6031 8.78174 55.4906 9.05596 55.8562L9.12628 55.9617C10.7646 58.7883 11.7489 62.2336 12.4872 65.4398C12.6771 66.2133 14.0341 73.807 13.8864 73.8141ZM19.8981 20.032C19.5677 22.4437 19.1036 24.7781 18.5692 27.0422C16.8185 34.4672 14.8357 41.6812 12.1849 47.6719C11.6716 48.832 11.1161 49.9289 10.5325 51.0187C10.3216 51.4266 10.2232 51.7641 9.79424 51.9117L8.88721 51.8414C8.79581 51.4687 9.00674 50.9273 9.08409 50.5406C9.16846 50.0484 9.27393 49.5562 9.35831 49.05C9.54815 47.925 9.64659 46.7648 9.54815 45.6047C9.52706 45.3586 9.62549 43.8117 9.38643 43.7203C8.97862 43.5516 8.22628 46.0547 8.14893 46.35C8.00128 46.9125 7.83253 47.4891 7.62862 48.0234C7.34034 48.7828 7.08018 49.5351 6.77081 50.2734C6.57393 50.7445 6.36299 51.1031 6.13096 51.5391C5.99034 51.7992 5.93409 51.968 5.62471 52.0172C5.39971 52.0523 5.09737 52.0383 4.91456 51.8766C4.67549 51.6445 4.7669 51.2789 4.77393 50.9625C4.78799 50.1328 4.84424 49.2961 4.86534 48.4453C4.90753 46.8984 4.96378 45.3234 5.02003 43.7203C5.13956 39.9937 5.32237 36.1195 5.60362 32.0836C5.87081 28.1672 6.04659 23.9766 6.94659 19.8351C7.14346 18.9562 7.25596 16.8891 8.19815 16.7062L8.33174 16.6922H8.21221C8.57784 16.6852 8.9294 16.4812 9.29503 16.4531C9.90674 16.4039 10.5114 16.4039 11.1232 16.3687C12.3185 16.3055 13.5138 16.2281 14.7021 16.2281C15.9817 16.2352 17.2192 16.3406 18.4989 16.3406C18.9138 16.3406 19.7857 16.2914 20.0247 16.7625C20.3763 17.4937 20.0036 19.2727 19.8981 20.032ZM85.0357 65.2641C84.8177 68.8078 85.4013 74.018 80.7607 73.9828C79.2489 73.9687 78.356 73.8562 76.8442 73.8141C76.6966 73.8141 77.4278 66.2203 77.6036 65.4469C78.3419 62.2406 79.3192 58.7953 80.9646 55.9687L81.0349 55.8633C81.3091 55.4976 81.6466 55.6101 82.1177 55.6383C82.7505 55.6734 83.3903 55.6945 84.0231 55.6875C85.12 55.6734 85.0778 59.3227 85.113 59.9766C85.2044 61.7344 85.1411 63.5062 85.0357 65.2641ZM85.1903 51.8766C85.0075 52.0453 84.7052 52.0523 84.4802 52.0172C84.1778 51.968 84.1146 51.7922 83.981 51.5391C83.7489 51.1031 83.538 50.7375 83.3411 50.2734C83.0247 49.5351 82.7716 48.7828 82.4833 48.0234C82.2794 47.4891 82.1106 46.9125 81.963 46.35C81.8857 46.0547 81.1333 43.5516 80.7325 43.7203C80.5005 43.8187 80.5919 45.3586 80.5708 45.6047C80.4724 46.7648 80.5708 47.932 80.7607 49.05C80.845 49.5492 80.9505 50.0484 81.0349 50.5406C81.1052 50.9273 81.3161 51.4687 81.2247 51.8414L80.3177 51.9117C79.8888 51.7641 79.7903 51.4266 79.5794 51.0187C79.0028 49.9289 78.4403 48.832 77.9271 47.6719C75.2692 41.6812 73.2935 34.4672 71.5356 27.0422C71.0013 24.7781 70.5372 22.4437 70.2067 20.032C70.1013 19.2656 69.7356 17.4937 70.0872 16.7766C70.3192 16.2984 71.1982 16.3547 71.613 16.3547C72.8857 16.3547 74.1302 16.2492 75.4099 16.2422C76.6052 16.2422 77.8005 16.3125 78.9888 16.3828C79.6005 16.418 80.2122 16.418 80.8169 16.4672C81.1896 16.4953 81.5271 16.6992 81.8997 16.7062H81.7802L81.9138 16.7203C82.863 16.9031 82.9755 18.9703 83.1653 19.8492C84.0653 23.9906 84.2482 28.1812 84.5083 32.0977C84.7755 36.1336 84.9724 40.0078 85.0919 43.7344C85.1411 45.3375 85.1974 46.9125 85.2396 48.4594C85.2677 49.3101 85.3169 50.1469 85.331 50.9766C85.338 51.2789 85.4294 51.6445 85.1903 51.8766Z" fill="#ED6C30"/>
<path d="M68.8715 48.6562V27.9211C68.8715 27.9211 69.0403 26.6906 67.2192 27.1969C66.3051 27.45 58.6692 29.5945 44.5082 29.5945C30.3332 29.5945 23.8223 27.45 22.9153 27.1969C21.0942 26.6906 21.2629 27.9211 21.2629 27.9211V56.7914C21.2629 56.7914 21.0942 58.0219 22.9153 57.5156C23.8223 57.2625 34.4465 54.9914 45.0707 54.9914C55.6949 54.9914 66.3121 57.2625 67.2262 57.5156C69.0473 58.0219 68.8785 56.7914 68.8785 56.7914V48.6562H68.8715Z" fill="white"/>
<path d="M24.0957 16.2914C24.1379 19.7227 26.7957 22.493 30.0793 22.493C33.3629 22.493 36.0207 19.7227 36.0629 16.2914H24.0957ZM44.4301 16.2914C44.4723 19.7227 47.1371 22.493 50.4137 22.493C53.6973 22.493 56.3621 19.7227 56.4043 16.2914H44.4301Z" fill="#ED6C30"/>
<path d="M54.2809 16.2914C54.323 19.7227 56.9809 22.493 60.2645 22.493C63.548 22.493 66.2059 19.7227 66.248 16.2914H54.2809ZM34.4668 16.2914C34.509 19.7227 37.1668 22.493 40.4504 22.493C43.734 22.493 46.3918 19.7227 46.441 16.2914H34.4668Z" fill="#ED6C30"/>
<path d="M51.4965 69.3211C48.4379 69.2578 48.4941 69.5602 45.5902 69.5602C42.6863 69.5602 42.7426 69.2578 39.677 69.3211C36.6184 69.3844 36.5691 74.693 36.5691 74.693C40.134 75.7266 51.0395 75.7266 54.6113 74.693C54.6113 74.693 54.5551 69.3844 51.4965 69.3211ZM50.1816 63.3164C47.8051 63.2742 47.8473 63.4781 45.5832 63.4781C43.3191 63.4781 43.3684 63.2742 40.9848 63.3164C38.6012 63.3586 38.566 66.9867 38.566 66.9867C41.3434 67.6899 49.823 67.6899 52.6004 66.9867C52.6074 66.9867 52.5723 63.3586 50.1816 63.3164ZM48.6137 59.168C47.0387 59.1399 47.0738 59.2735 45.5762 59.2735C44.0785 59.2735 44.1137 59.1469 42.5387 59.168C40.9637 59.1961 40.9355 61.4672 40.9355 61.4672C42.7707 61.9102 48.3816 61.9102 50.2168 61.4672C50.2168 61.4672 50.1887 59.1891 48.6137 59.168ZM31.1551 69.3211C28.0965 69.2578 28.1527 69.5602 25.2418 69.5602C22.3309 69.5602 22.3941 69.2578 19.3355 69.3211C16.277 69.3844 16.2207 74.693 16.2207 74.693C19.7926 75.7266 30.698 75.7266 34.2629 74.693C34.2629 74.693 34.2137 69.3844 31.1551 69.3211ZM32.6527 63.3164C30.2762 63.2742 30.3184 63.4781 28.0543 63.4781C25.7902 63.4781 25.8395 63.2742 23.4559 63.3164C21.0723 63.3586 21.0371 66.9867 21.0371 66.9867C23.8145 67.6899 32.2941 67.6899 35.0715 66.9867C35.0715 66.9867 35.0363 63.3586 32.6527 63.3164ZM34.5512 59.168C32.9762 59.1399 33.0113 59.2735 31.5137 59.2735C30.016 59.2735 30.0512 59.1469 28.4762 59.168C26.9012 59.1961 26.873 61.4672 26.873 61.4672C28.7082 61.9102 34.3191 61.9102 36.1543 61.4672C36.1473 61.4672 36.1262 59.1891 34.5512 59.168ZM59.7934 69.3211C62.852 69.2578 62.7957 69.5602 65.7066 69.5602C68.6176 69.5602 68.5543 69.2578 71.6129 69.3211C74.6715 69.3844 74.7277 74.693 74.7277 74.693C71.1559 75.7266 60.2574 75.7266 56.6856 74.693C56.6856 74.693 56.7348 69.3844 59.7934 69.3211ZM58.2957 63.3164C60.6723 63.2742 60.6301 63.4781 62.8941 63.4781C65.1582 63.4781 65.109 63.2742 67.4926 63.3164C69.8762 63.3586 69.9113 66.9867 69.9113 66.9867C67.134 67.6899 58.6543 67.6899 55.877 66.9867C55.877 66.9867 55.9121 63.3586 58.2957 63.3164ZM56.3973 59.168C57.9723 59.1399 57.9371 59.2735 59.4348 59.2735C60.9324 59.2735 60.8973 59.1469 62.4723 59.168C64.0473 59.1961 64.0754 61.4672 64.0754 61.4672C62.2402 61.9102 56.6293 61.9102 54.7941 61.4672C54.7941 61.4672 54.8223 59.1891 56.3973 59.168Z" fill="#ED6C30"/>
</g>
<defs>
<clipPath id="clip0_550_774">
<rect width="90" height="90" fill="white"/>
</clipPath>
</defs>
</svg>
