<svg width="67" height="67" viewBox="0 0 67 67" fill="none" xmlns="http://www.w3.org/2000/svg">
<g filter="url(#filter0_d_498_518)">
<path d="M51.0612 4.63659C46.5394 2.02656 41.166 1.31958 36.1229 2.67115C31.0798 4.02271 26.7801 7.32213 24.1696 11.8437L23.4404 13.1066C23.2965 13.3553 23.203 13.63 23.1653 13.9149C23.1276 14.1998 23.1463 14.4893 23.2206 14.767C23.2948 15.0446 23.423 15.3049 23.5978 15.533C23.7727 15.761 23.9907 15.9524 24.2396 16.0962L37.4638 23.732L29.2825 38.0528C23.7992 38.7499 18.9517 41.6024 15.3321 45.6566C16.393 45.8291 17.3855 46.2914 18.2003 46.9924C19.015 47.6934 19.6202 48.6058 19.9492 49.6291C20.6346 51.767 22.0608 52.4174 23.21 52.4291C24.3854 52.4437 25.7242 51.8078 26.36 49.8974C26.747 48.7357 27.4898 47.7251 28.4831 47.009C29.4764 46.2929 30.6699 45.9076 31.8944 45.9076C33.1189 45.9076 34.3124 46.2929 35.3057 47.009C36.299 47.7251 37.0418 48.7357 37.4288 49.8974C38.0675 51.8078 39.4062 52.4437 40.5788 52.4291C41.7279 52.4174 43.1542 51.767 43.8425 49.6291C44.1714 48.6058 44.7767 47.6934 45.5914 46.9924C46.4061 46.2914 47.3987 45.8291 48.4596 45.6566C44.8021 41.5587 39.8904 38.6887 34.3342 38.0295L41.2554 25.9195L54.5496 33.5962C54.7983 33.7401 55.073 33.8336 55.3579 33.8713C55.6428 33.909 55.9323 33.8902 56.21 33.816C56.4876 33.7418 56.7479 33.6136 56.976 33.4388C57.204 33.2639 57.3954 33.0458 57.5392 32.797L58.2683 31.5312C60.8786 27.0097 61.586 21.6365 60.235 16.5935C58.884 11.5505 55.5852 7.25055 51.0642 4.6395M16.4783 50.7491C16.3325 50.294 16.0415 49.8991 15.65 49.625C15.2585 49.3508 14.788 49.2124 14.3105 49.2309C13.8329 49.2495 13.3745 49.4239 13.0054 49.7275C12.6363 50.0312 12.3769 50.4474 12.2667 50.9124C11.6542 53.5112 10.4963 54.8908 9.23042 55.6783C7.88875 56.5124 6.16792 56.8478 4.1875 56.8478C3.60734 56.8478 3.05094 57.0783 2.6407 57.4885C2.23047 57.8988 2 58.4552 2 59.0353C2 59.6155 2.23047 60.1719 2.6407 60.5821C3.05094 60.9924 3.60734 61.2228 4.1875 61.2228C6.585 61.2228 9.23333 60.8291 11.5404 59.3941C12.7749 58.6257 13.8309 57.6024 14.6379 56.3928C19.1646 61.8353 27.5004 61.8091 31.8958 56.3083C36.37 61.9053 44.9217 61.8353 49.3871 56.1041C51.8604 59.3358 55.7163 61.2228 59.6042 61.2228C60.1843 61.2228 60.7407 60.9924 61.151 60.5821C61.5612 60.1719 61.7917 59.6155 61.7917 59.0353C61.7917 58.4552 61.5612 57.8988 61.151 57.4885C60.7407 57.0783 60.1843 56.8478 59.6042 56.8478C56.1538 56.8478 52.6508 54.5233 51.4842 50.7695C51.346 50.3257 51.0702 49.9375 50.6965 49.6611C50.3229 49.3847 49.871 49.2345 49.4062 49.2322C48.9415 49.2299 48.4881 49.3757 48.1118 49.6485C47.7355 49.9212 47.4558 50.3067 47.3133 50.7491C45.0267 57.8658 36.2008 57.7462 33.9696 51.0524C33.8237 50.6179 33.5451 50.2402 33.173 49.9727C32.8009 49.7051 32.3541 49.5611 31.8958 49.5611C31.4375 49.5611 30.9908 49.7051 30.6187 49.9727C30.2466 50.2402 29.968 50.6179 29.8221 51.0524C27.5908 57.7462 18.765 57.8628 16.4783 50.7491Z" fill="#1E293B"/>
</g>
<defs>
<filter id="filter0_d_498_518" x="0" y="0" width="67.7915" height="67.2228" filterUnits="userSpaceOnUse" color-interpolation-filters="sRGB">
<feFlood flood-opacity="0" result="BackgroundImageFix"/>
<feColorMatrix in="SourceAlpha" type="matrix" values="0 0 0 0 0 0 0 0 0 0 0 0 0 0 0 0 0 0 127 0" result="hardAlpha"/>
<feOffset dx="2" dy="2"/>
<feGaussianBlur stdDeviation="2"/>
<feComposite in2="hardAlpha" operator="out"/>
<feColorMatrix type="matrix" values="0 0 0 0 0 0 0 0 0 0 0 0 0 0 0 0 0 0 0.25 0"/>
<feBlend mode="normal" in2="BackgroundImageFix" result="effect1_dropShadow_498_518"/>
<feBlend mode="normal" in="SourceGraphic" in2="effect1_dropShadow_498_518" result="shape"/>
</filter>
</defs>
</svg>
