<svg width="90" height="90" viewBox="0 0 90 90" fill="none" xmlns="http://www.w3.org/2000/svg">
<g clip-path="url(#clip0_561_1508)">
<path d="M62.9 33.768C62.0145 38.5836 56.9281 41.6831 56.9281 41.6831C56.9281 41.6831 53.2753 36.9749 54.158 32.1584C55.0454 27.3372 60.1337 24.2414 60.1337 24.2414C60.1337 24.2414 63.7827 28.9515 62.9 33.768ZM62.3029 50.7183C58.9839 54.3203 53.0221 54.2375 53.0221 54.2375C53.0221 54.2375 52.4404 48.3138 55.7594 44.7118C59.0784 41.1097 65.0439 41.1906 65.0439 41.1906C65.0439 41.1906 65.6247 47.1171 62.3029 50.7183Z" stroke="black" stroke-width="2" stroke-linejoin="round"/>
<path d="M45.3659 63.553C45.3659 63.553 50.5784 66.4514 55.2155 64.8569C59.8525 63.2624 62.1616 57.7766 62.1616 57.7766C62.1616 57.7766 56.949 54.8782 52.312 56.4727C47.6749 58.0673 45.3659 63.553 45.3659 63.553ZM45.3659 63.553L36.3621 60.6604C35.6252 60.4237 34.849 60.3344 34.0776 60.3977C33.3062 60.461 32.5549 60.6756 31.8664 61.0292C31.178 61.3829 30.5659 61.8686 30.0652 62.4588C29.5645 63.049 29.185 63.732 28.9483 64.4689C28.7115 65.2058 28.6223 65.9821 28.6855 66.7534C28.7488 67.5248 28.9634 68.2761 29.3171 68.9646C29.6707 69.653 30.1565 70.2651 30.7467 70.7658C31.3369 71.2665 32.0199 71.646 32.7567 71.8827L38.4073 73.6981" stroke="black" stroke-width="2" stroke-linecap="round" stroke-linejoin="round"/>
<path d="M53.4273 19.4094C55.8092 23.6938 53.8607 29.314 53.8607 29.314C53.8607 29.314 48.0425 27.9915 45.6607 23.7071C43.2788 19.4228 45.2282 13.7997 45.2282 13.7997C45.2282 13.7997 51.0455 15.1251 53.4273 19.4094Z" stroke="black" stroke-width="2" stroke-linejoin="round"/>
</g>
<defs>
<clipPath id="clip0_561_1508">
<rect width="70.9718" height="70.9718" fill="white" transform="translate(21.709) rotate(17.8105)"/>
</clipPath>
</defs>
</svg>
