<svg width="90" height="90" viewBox="0 0 90 90" fill="none" xmlns="http://www.w3.org/2000/svg">
<g clip-path="url(#clip0_545_722)">
<path fill-rule="evenodd" clip-rule="evenodd" d="M33.3193 1.60714C35.5134 1.55485 37.6596 2.25258 39.4035 3.58505C41.1474 4.91752 42.3846 6.80501 42.9107 8.93571L44.2929 14.4643H80.3571C82.9146 14.4643 85.3673 15.4802 87.1757 17.2886C88.9841 19.097 90 21.5497 90 24.1071V78.75C90 81.3074 88.9841 83.7601 87.1757 85.5685C85.3673 87.3769 82.9146 88.3929 80.3571 88.3929H9.64286C7.08541 88.3929 4.63271 87.3769 2.82433 85.5685C1.01594 83.7601 0 81.3074 0 78.75L0 11.25C0 8.69255 1.01594 6.23985 2.82433 4.43147C4.63271 2.62308 7.08541 1.60714 9.64286 1.60714H33.3193ZM60.9429 28.8C60.0087 28.6235 59.047 28.6565 58.1271 28.8964L58.095 28.9093L35.775 35.1C34.4679 35.4606 33.3139 36.2374 32.488 37.3128C31.6621 38.3881 31.2091 39.7034 31.1979 41.0593V56.25C29.2375 56.2066 27.3086 56.7482 25.6573 57.8057C24.006 58.8633 22.7073 60.3888 21.9268 62.1877C21.1463 63.9865 20.9194 65.9771 21.2751 67.9055C21.6309 69.8338 22.553 71.6125 23.924 73.0145C25.2949 74.4165 27.0525 75.3782 28.9724 75.777C30.8923 76.1759 32.8874 75.9936 34.7033 75.2536C36.5192 74.5136 38.0734 73.2493 39.1677 71.6222C40.262 69.995 40.8467 68.0787 40.8471 66.1179V44.9421L56.3207 40.6414V49.0178H56.1021C54.1346 49.0151 52.2112 49.6002 50.5785 50.698C48.9457 51.7959 47.6782 53.3565 46.9385 55.1796C46.1988 57.0028 46.0205 59.0054 46.4267 60.9305C46.8329 62.8556 47.8049 64.6155 49.218 65.9845C50.6312 67.3534 52.4211 68.2689 54.3582 68.6137C56.2953 68.9584 58.2912 68.7166 60.0899 67.9193C61.8886 67.1219 63.4081 65.8054 64.4535 64.1386C65.4988 62.4718 66.0225 60.5307 65.9571 58.5643L65.9507 34.8879V34.8621C65.9434 33.4281 65.44 32.0408 64.526 30.9358C63.6119 29.8307 62.3501 29.0761 60.9429 28.8Z" fill="#E6502C"/>
</g>
<defs>
<clipPath id="clip0_545_722">
<rect width="90" height="90" fill="white"/>
</clipPath>
</defs>
</svg>
