<svg width="90" height="90" viewBox="0 0 90 90" fill="none" xmlns="http://www.w3.org/2000/svg">
<path d="M31.5 20.25C30.15 20.25 29.25 21.6 29.25 22.5V33.75H24.75V22.5C24.75 21.15 23.85 20.25 22.5 20.25C21.15 20.25 20.25 21.6 20.25 22.5V33.75H15.75V22.5C15.75 21.15 14.85 20.25 13.5 20.25C12.15 20.25 11.25 21.6 11.25 22.5V37.35C11.25 41.4 14.4 44.55 18 45V76.5C18 79.2 19.8 81 22.5 81C25.2 81 27 79.2 27 76.5V45C30.6 44.55 33.75 41.4 33.75 37.35V22.5C33.75 21.6 32.85 20.25 31.5 20.25ZM40.5 22.5V49.5H45V76.5C45 79.2 46.8 81 49.5 81C52.2 81 54 79.2 54 76.5V9C46.35 9 40.5 14.85 40.5 22.5ZM72 18C65.7 18 60.75 24.75 60.75 32.85C60.3 38.25 63 43.2 67.5 46.35V76.5C67.5 79.2 69.3 81 72 81C74.7 81 76.5 79.2 76.5 76.5V46.35C81 43.2 83.7 38.25 83.25 32.85C83.25 24.75 78.3 18 72 18Z" fill="#E6502C"/>
</svg>
