<svg width="80" height="80" viewBox="0 0 80 80" fill="none" xmlns="http://www.w3.org/2000/svg">
<g clip-path="url(#clip0_545_801)">
<path d="M66.4627 5.14C67.3377 4.765 68.3377 5.165 68.7127 6.04C68.8877 6.44 68.8877 6.865 68.7377 7.24C68.6377 7.59 68.6127 7.94 68.7627 8.265L69.6377 10.19L68.0127 10.89L67.1627 8.94C67.0028 8.62576 66.7372 8.37793 66.4127 8.24C66.0326 8.07362 65.7291 7.77013 65.5627 7.39C65.1877 6.515 65.5877 5.515 66.4627 5.14ZM64.7627 7.84C64.6747 7.63264 64.5466 7.44475 64.3857 7.28714C64.2247 7.12953 64.0342 7.00532 63.8251 6.92166C63.6159 6.83801 63.3923 6.79656 63.1671 6.79971C62.9418 6.80285 62.7195 6.85053 62.5127 6.94C61.6377 7.315 61.2377 8.315 61.6127 9.19C61.7877 9.59 62.0877 9.865 62.4627 10.04C62.7877 10.19 63.0627 10.415 63.2127 10.74L64.0627 12.69L65.6877 11.99L64.8377 10.04C64.7049 9.71277 64.696 9.34831 64.8127 9.015C64.9127 8.665 64.9127 8.24 64.7627 7.84ZM60.7877 9.64C60.6997 9.43264 60.5716 9.24475 60.4107 9.08714C60.2497 8.92953 60.0592 8.80532 59.8501 8.72166C59.6409 8.63801 59.4173 8.59656 59.1921 8.59971C58.9668 8.60285 58.7445 8.65053 58.5377 8.74C57.6627 9.115 57.2627 10.115 57.6377 10.99C57.8127 11.39 58.1127 11.665 58.4877 11.84C58.8127 11.99 59.0877 12.215 59.2377 12.54L60.0877 14.49L61.7127 13.79L60.8627 11.84C60.7907 11.6794 60.7514 11.506 60.7471 11.33C60.7428 11.154 60.7736 10.9789 60.8377 10.815C60.9708 10.4312 60.953 10.0111 60.7877 9.64Z" fill="#D3D3D3"/>
<g filter="url(#filter0_d_545_801)">
<path d="M41.3123 57.69C41.4595 56.0171 42.1462 54.4373 43.2689 53.1884C44.3915 51.9394 45.8895 51.089 47.5373 50.765C48.9123 50.49 50.2623 50.015 51.5623 49.365C53.4623 48.415 54.2373 46.09 53.2873 44.19C52.8283 43.2765 52.026 42.5821 51.0561 42.2588C50.0862 41.9355 49.0277 42.0096 48.1123 42.465C44.8873 44.09 40.9873 43.465 38.4123 40.89C36.8499 39.3219 35.9685 37.2013 35.9592 34.9878C35.9498 32.7742 36.8132 30.6462 38.3623 29.065C39.8623 27.54 39.9373 25.09 38.4373 23.565C36.9373 22.04 34.4623 22.04 32.9623 23.54C30.6373 25.865 29.1623 28.74 28.5623 31.765C27.8873 35.165 25.0123 37.64 21.5623 37.965C17.4123 38.34 13.3873 40.115 10.2373 43.29C3.16233 50.44 3.26233 62.215 10.4873 69.215C17.6123 76.14 29.0123 76.065 36.0623 69.015C39.0891 65.9744 40.9479 61.9647 41.3123 57.69Z" fill="#1E293B"/>
</g>
<path d="M38.462 45.115C37.687 44.84 36.962 44.39 36.337 43.765C35.964 43.3881 35.6368 42.9685 35.362 42.515C34.9408 41.8292 34.6683 41.0627 34.562 40.265C34.412 39.29 33.837 38.465 33.012 37.99C32.662 37.79 32.262 37.665 31.862 37.615C30.687 37.49 29.537 38.04 28.912 39.065C28.137 40.34 26.737 41.165 25.112 41.24C22.387 41.34 19.787 42.365 17.812 44.365L17.762 44.415C15.287 46.965 15.337 51.04 17.837 53.54L23.462 59.165C25.812 61.515 24.012 64.69 23.987 66.915C23.987 67.315 24.062 67.74 24.212 68.115C24.887 69.865 26.912 70.69 28.662 69.99C30.537 69.24 32.237 68.14 33.687 66.665C34.962 65.39 35.962 63.94 36.712 62.34C37.412 60.79 37.712 59.115 38.012 57.415C38.412 55.19 39.512 53.14 41.312 51.44C42.662 49.965 44.112 49.14 46.162 48.665C46.587 48.565 47.512 48.215 47.887 47.965C48.537 47.54 48.687 47.015 48.512 46.565C47.987 45.065 46.712 45.515 45.737 45.69C44.062 46.015 42.637 45.84 42.187 45.79C42.062 45.765 41.962 45.765 41.837 45.74C41.212 45.64 39.312 45.415 38.462 45.115Z" fill="#F4F4F4"/>
<path d="M23.4125 61.915L17.3875 55.89C17.1375 55.64 16.7375 55.64 16.4875 55.89L13.8125 58.515C13.5625 58.765 13.5625 59.165 13.8125 59.415L19.8375 65.44C20.0875 65.69 20.4875 65.69 20.7375 65.44L23.3875 62.79C23.6625 62.565 23.6625 62.165 23.4125 61.915Z" fill="#9B9B9B"/>
<path d="M30.5127 44.915L34.3377 48.74C34.9377 49.34 34.9377 50.29 34.3377 50.865C34.0531 51.1414 33.6719 51.2961 33.2752 51.2961C32.8784 51.2961 32.4973 51.1414 32.2127 50.865L28.3877 47.04C28.1113 46.7554 27.9566 46.3743 27.9566 45.9775C27.9566 45.5807 28.1113 45.1996 28.3877 44.915C28.6723 44.6386 29.0534 44.4839 29.4502 44.4839C29.8469 44.4839 30.2281 44.6386 30.5127 44.915ZM25.4877 49.965L29.3127 53.79C29.8877 54.365 29.8877 55.315 29.3127 55.915C29.0281 56.1914 28.6469 56.3461 28.2502 56.3461C27.8534 56.3461 27.4723 56.1914 27.1877 55.915L23.3627 52.09C23.0863 51.8054 22.9316 51.4243 22.9316 51.0275C22.9316 50.6307 23.0863 50.2496 23.3627 49.965C23.6473 49.6886 24.0284 49.5339 24.4252 49.5339C24.8219 49.5339 25.2031 49.6886 25.4877 49.965Z" fill="#D3D3D3"/>
<g filter="url(#filter1_d_545_801)">
<path d="M62.6373 21.34L61.2498 17.5L57.9373 16.64L34.1123 40.465C33.4873 41.09 33.4873 42.09 34.1123 42.69L36.5873 45.165C37.2123 45.79 38.2123 45.79 38.8123 45.165L62.6373 21.34Z" fill="#635994"/>
</g>
<g filter="url(#filter2_d_545_801)">
<path d="M65.4875 21.015L68.1875 16.49C68.4875 15.99 69.0875 15.765 69.6375 15.99C71.0625 16.54 72.7375 16.24 73.8375 15.04C75.1875 13.59 75.2125 11.315 73.8875 9.86499C72.5875 8.43999 70.7375 8.41499 68.9625 9.21499L58.7125 13.94C57.5875 14.565 57.3875 16.09 58.2875 17.015L62.5375 21.265C63.3875 22.09 64.7875 21.99 65.4875 21.015Z" fill="#1E293B"/>
</g>
</g>
<defs>
<filter id="filter0_d_545_801" x="2.99902" y="20.4181" width="56.6943" height="59.938" filterUnits="userSpaceOnUse" color-interpolation-filters="sRGB">
<feFlood flood-opacity="0" result="BackgroundImageFix"/>
<feColorMatrix in="SourceAlpha" type="matrix" values="0 0 0 0 0 0 0 0 0 0 0 0 0 0 0 0 0 0 127 0" result="hardAlpha"/>
<feOffset dx="2" dy="2"/>
<feGaussianBlur stdDeviation="2"/>
<feComposite in2="hardAlpha" operator="out"/>
<feColorMatrix type="matrix" values="0 0 0 0 0 0 0 0 0 0 0 0 0 0 0 0 0 0 0.25 0"/>
<feBlend mode="normal" in2="BackgroundImageFix" result="effect1_dropShadow_545_801"/>
<feBlend mode="normal" in="SourceGraphic" in2="effect1_dropShadow_545_801" result="shape"/>
</filter>
<filter id="filter1_d_545_801" x="31.6436" y="14.64" width="36.9941" height="36.9938" filterUnits="userSpaceOnUse" color-interpolation-filters="sRGB">
<feFlood flood-opacity="0" result="BackgroundImageFix"/>
<feColorMatrix in="SourceAlpha" type="matrix" values="0 0 0 0 0 0 0 0 0 0 0 0 0 0 0 0 0 0 127 0" result="hardAlpha"/>
<feOffset dx="2" dy="2"/>
<feGaussianBlur stdDeviation="2"/>
<feComposite in2="hardAlpha" operator="out"/>
<feColorMatrix type="matrix" values="0 0 0 0 0 0 0 0 0 0 0 0 0 0 0 0 0 0 0.25 0"/>
<feBlend mode="normal" in2="BackgroundImageFix" result="effect1_dropShadow_545_801"/>
<feBlend mode="normal" in="SourceGraphic" in2="effect1_dropShadow_545_801" result="shape"/>
</filter>
<filter id="filter2_d_545_801" x="55.7227" y="6.68616" width="25.1436" height="21.1352" filterUnits="userSpaceOnUse" color-interpolation-filters="sRGB">
<feFlood flood-opacity="0" result="BackgroundImageFix"/>
<feColorMatrix in="SourceAlpha" type="matrix" values="0 0 0 0 0 0 0 0 0 0 0 0 0 0 0 0 0 0 127 0" result="hardAlpha"/>
<feOffset dx="2" dy="2"/>
<feGaussianBlur stdDeviation="2"/>
<feComposite in2="hardAlpha" operator="out"/>
<feColorMatrix type="matrix" values="0 0 0 0 0 0 0 0 0 0 0 0 0 0 0 0 0 0 0.25 0"/>
<feBlend mode="normal" in2="BackgroundImageFix" result="effect1_dropShadow_545_801"/>
<feBlend mode="normal" in="SourceGraphic" in2="effect1_dropShadow_545_801" result="shape"/>
</filter>
<clipPath id="clip0_545_801">
<rect width="80" height="80" fill="white"/>
</clipPath>
</defs>
</svg>
