<svg width="30" height="30" viewBox="0 0 30 30" fill="none" xmlns="http://www.w3.org/2000/svg">
<path fill-rule="evenodd" clip-rule="evenodd" d="M10.5444 20.6525L9.99881 27.94C9.96006 28.4525 10.4157 28.8044 10.8226 28.5763C13.7057 26.9613 22.7363 21.03 27.3138 7.99377C27.5238 7.39564 26.9594 6.85627 26.4782 7.19377C23.7744 9.08752 17.8657 13 14.2138 13.7463C14.2138 13.7463 16.5526 12.1213 17.9519 9.62877C18.0191 9.50903 18.0521 9.37315 18.0474 9.23594C18.0426 9.09873 18.0003 8.96546 17.9251 8.85064L12.8207 1.49314C12.5182 1.05752 11.8969 1.23814 11.7882 1.79377L10.1988 9.87939L2.74006 16.3894C2.36631 16.7156 2.44256 17.375 2.87443 17.5494L10.5444 20.6525ZM23.7344 17.78C23.2619 18.4394 22.2444 19.795 21.3051 20.6238C21.1176 20.7894 21.1426 21.0669 21.3576 21.2019L26.3219 24.3181C26.6207 24.5056 27.0238 24.2831 26.9738 23.9581C26.7426 22.4688 26.0776 19.3638 24.3957 17.7338C24.2082 17.5525 23.8844 17.5713 23.7344 17.78Z" fill="url(#paint0_linear_878_1219)"/>
<defs>
<linearGradient id="paint0_linear_878_1219" x1="2.5" y1="14.9487" x2="27.3589" y2="14.9487" gradientUnits="userSpaceOnUse">
<stop stop-color="#FD4B19"/>
<stop offset="1" stop-color="#BBB736"/>
</linearGradient>
</defs>
</svg>
