<svg width="40" height="40" viewBox="0 0 40 40" fill="none" xmlns="http://www.w3.org/2000/svg">
<path d="M15.6056 24.9262C15.6057 24.8877 15.5982 24.8495 15.5835 24.8138C15.5688 24.7781 15.5472 24.7457 15.52 24.7183C15.4928 24.691 15.4604 24.6693 15.4248 24.6545C15.3892 24.6396 15.351 24.6319 15.3125 24.6319H14.1406C14.102 24.6319 14.0638 24.6396 14.0282 24.6545C13.9926 24.6693 13.9603 24.691 13.9331 24.7183C13.9058 24.7457 13.8843 24.7781 13.8696 24.8138C13.8549 24.8495 13.8474 24.8877 13.8475 24.9262V26.1025C13.8475 26.265 13.9793 26.3969 14.1406 26.3969H15.3125C15.351 26.3968 15.3892 26.3891 15.4248 26.3743C15.4604 26.3594 15.4928 26.3377 15.52 26.3104C15.5472 26.2831 15.5688 26.2506 15.5835 26.215C15.5982 26.1793 15.6057 26.1411 15.6056 26.1025V24.9262ZM17.0706 26.3962H15.8987C15.8601 26.3963 15.822 26.404 15.7864 26.4188C15.7507 26.4337 15.7184 26.4554 15.6912 26.4827C15.664 26.5101 15.6424 26.5425 15.6277 26.5782C15.613 26.6138 15.6055 26.652 15.6056 26.6906V27.8675C15.6056 28.0294 15.7375 28.1619 15.8987 28.1619H17.0706C17.1092 28.1618 17.1473 28.1541 17.183 28.1393C17.2186 28.1244 17.2509 28.1027 17.2781 28.0754C17.3053 28.0481 17.3269 28.0156 17.3416 27.98C17.3563 27.9443 17.3638 27.9061 17.3637 27.8675V26.6906C17.3634 26.6129 17.3324 26.5384 17.2776 26.4833C17.2227 26.4282 17.1483 26.3969 17.0706 26.3962ZM19.1212 24.9262C19.1213 24.8877 19.1138 24.8495 19.0991 24.8138C19.0844 24.7781 19.0628 24.7457 19.0356 24.7183C19.0084 24.691 18.9761 24.6693 18.9405 24.6545C18.9048 24.6396 18.8667 24.6319 18.8281 24.6319H17.6562C17.6176 24.6319 17.5795 24.6396 17.5439 24.6545C17.5082 24.6693 17.4759 24.691 17.4487 24.7183C17.4215 24.7457 17.3999 24.7781 17.3852 24.8138C17.3705 24.8495 17.363 24.8877 17.3631 24.9262V26.1025C17.3631 26.265 17.495 26.3969 17.6562 26.3969H18.8281C18.8667 26.3968 18.9048 26.3891 18.9405 26.3743C18.9761 26.3594 19.0084 26.3377 19.0356 26.3104C19.0628 26.2831 19.0844 26.2506 19.0991 26.215C19.1138 26.1793 19.1213 26.1411 19.1212 26.1025V24.9262ZM20.5862 26.3962H19.4143C19.3758 26.3963 19.3376 26.404 19.302 26.4188C19.2664 26.4337 19.234 26.4554 19.2068 26.4827C19.1796 26.5101 19.158 26.5425 19.1433 26.5782C19.1287 26.6138 19.1211 26.652 19.1212 26.6906V27.8675C19.1212 28.0294 19.2531 28.1619 19.4143 28.1619H20.5862C20.6248 28.1618 20.663 28.1541 20.6986 28.1393C20.7342 28.1244 20.7665 28.1027 20.7937 28.0754C20.821 28.0481 20.8425 28.0156 20.8572 27.98C20.8719 27.9443 20.8794 27.9061 20.8793 27.8675V26.6906C20.879 26.6129 20.8481 26.5384 20.7932 26.4833C20.7383 26.4282 20.664 26.3969 20.5862 26.3962ZM22.6368 24.9262C22.6369 24.8877 22.6294 24.8495 22.6147 24.8138C22.6 24.7781 22.5785 24.7457 22.5512 24.7183C22.524 24.691 22.4917 24.6693 22.4561 24.6545C22.4205 24.6396 22.3823 24.6319 22.3437 24.6319H21.1718C21.1333 24.6319 21.0951 24.6396 21.0595 24.6545C21.0239 24.6693 20.9915 24.691 20.9643 24.7183C20.9371 24.7457 20.9155 24.7781 20.9008 24.8138C20.8862 24.8495 20.8786 24.8877 20.8787 24.9262V26.1025C20.8787 26.265 21.0106 26.3969 21.1718 26.3969H22.3437C22.3823 26.3968 22.4205 26.3891 22.4561 26.3743C22.4917 26.3594 22.524 26.3377 22.5512 26.3104C22.5785 26.2831 22.6 26.2506 22.6147 26.215C22.6294 26.1793 22.6369 26.1411 22.6368 26.1025V24.9262ZM24.1018 26.3962H22.93C22.8914 26.3963 22.8532 26.404 22.8176 26.4188C22.782 26.4337 22.7497 26.4554 22.7224 26.4827C22.6952 26.5101 22.6736 26.5425 22.659 26.5782C22.6443 26.6138 22.6368 26.652 22.6368 26.6906V27.8675C22.6368 28.0294 22.7687 28.1619 22.93 28.1619H24.1018C24.1404 28.1618 24.1786 28.1541 24.2142 28.1393C24.2498 28.1244 24.2822 28.1027 24.3094 28.0754C24.3366 28.0481 24.3582 28.0156 24.3728 27.98C24.3875 27.9443 24.3951 27.9061 24.395 27.8675V26.6906C24.3946 26.6129 24.3637 26.5384 24.3088 26.4833C24.254 26.4282 24.1796 26.3969 24.1018 26.3962ZM25.8593 24.6319H24.6875C24.6489 24.6319 24.6107 24.6396 24.5751 24.6545C24.5395 24.6693 24.5072 24.691 24.4799 24.7183C24.4527 24.7457 24.4312 24.7781 24.4165 24.8138C24.4018 24.8495 24.3943 24.8877 24.3943 24.9262V26.1025C24.3943 26.265 24.5262 26.3969 24.6875 26.3969H25.8593C25.8979 26.3968 25.9361 26.3891 25.9717 26.3743C26.0073 26.3594 26.0397 26.3377 26.0669 26.3104C26.0941 26.2831 26.1157 26.2506 26.1303 26.215C26.145 26.1793 26.1525 26.1411 26.1525 26.1025V24.9262C26.1525 24.8877 26.145 24.8495 26.1303 24.8138C26.1157 24.7781 26.0941 24.7457 26.0669 24.7183C26.0397 24.691 26.0073 24.6693 25.9717 24.6545C25.9361 24.6396 25.8979 24.6319 25.8593 24.6319ZM29.0318 15.4937H24.0831C23.7706 15.4937 23.5156 15.785 23.5156 16.14V21.2431C23.5156 21.5981 23.7706 21.8894 24.0831 21.8894H30.0825C30.3943 21.8894 30.5981 21.605 30.5356 21.2562L29.7112 16.1275C29.6493 15.7787 29.3443 15.4937 29.0318 15.4937ZM21.1781 21.8894C21.4968 21.8894 21.7581 21.5981 21.7581 21.2431V16.14C21.7581 15.785 21.4968 15.4937 21.1781 15.4937H16.8162C16.4975 15.4937 16.1131 15.7506 15.9637 16.0631L13.6181 21.325C13.4643 21.635 13.5981 21.8894 13.9175 21.8894H21.1781ZM9.38622 33.1431L8.69934 31.9631C8.47809 31.965 8.24497 32.1156 8.08247 32.3956C7.91934 32.675 7.90434 32.9512 8.01309 33.1425L9.38622 33.1431ZM9.38559 33.8912H8.01372C7.90434 34.0825 7.91934 34.3587 8.08247 34.6387C8.24497 34.9181 8.47809 35.0694 8.69934 35.0712L9.38559 33.8912ZM9.35247 35.4456C9.46497 35.635 9.71372 35.76 10.0393 35.76C10.365 35.76 10.6131 35.635 10.7262 35.4456L10.0393 34.2656L9.35247 35.4456ZM10.6918 33.8912L11.3787 35.0712C11.6 35.0694 11.8331 34.9187 11.9956 34.6394C12.1587 34.3594 12.1737 34.0831 12.065 33.8919L10.6918 33.8912ZM11.3793 31.9631L10.6925 33.1437H12.065C12.1737 32.9519 12.1593 32.6762 11.9956 32.3969C11.8331 32.1169 11.6006 31.9656 11.3793 31.9631ZM10.7256 31.5894C10.6131 31.4 10.3643 31.275 10.0393 31.275C9.71434 31.275 9.46559 31.4 9.35309 31.5894L10.0393 32.7687L10.7256 31.5894Z" fill="#1E293B"/>
<path d="M37.7962 30.6106H37.5781V25.3781C37.5781 24.4537 36.8006 23.9594 36.3631 23.6725C35.8744 23.3512 32.925 21.8194 32.7775 21.2056L31.4125 14.9125C31.2644 14.2981 30.5769 13.75 29.8813 13.75H22.875V13.455C22.875 13.1312 22.5675 12.8669 22.1925 12.8669H22.1681L21.665 9.75874C21.5113 9.12686 20.9544 9.03999 20.5806 9.02811C20.4906 8.71624 20.3175 8.75124 20.1469 8.75124C19.975 8.75124 19.8025 8.71624 19.7125 9.02811C19.3388 9.04061 18.7812 9.13061 18.6238 9.78311L18.125 12.8669H18.1012C17.7262 12.8669 17.4188 13.1319 17.4188 13.455V13.75H16.1575C15.4606 13.75 14.6363 14.3512 14.3263 14.9125C14.3263 14.9125 12.5063 18.9656 11.6163 20.1369C11.1531 20.7469 9.92562 21.7112 9.26687 22.1006C8.2875 22.6794 6.20687 23.6256 5.25 24.2419C4.76375 24.5544 3.85563 25.3475 3.7 25.9587L2.69313 30.61H2.20375C1.55125 30.6106 1.25 31.1006 1.25 31.9775C1.25 32.1694 1.34062 33.24 1.3775 33.4262C1.52625 34.1719 2.145 34.0962 2.79688 34.0962H4.8C5.09062 36.7131 7.32312 38.75 10.0394 38.75C12.7556 38.75 14.9881 36.7131 15.2787 34.0969H24.7219C25.0125 36.7131 27.245 38.75 29.9613 38.75C32.6775 38.75 34.91 36.7131 35.2006 34.0969H37.2038C37.8556 34.0969 38.4738 34.1725 38.6231 33.4269C38.6594 33.24 38.75 32.1694 38.75 31.9775C38.75 31.1006 38.4487 30.6106 37.7962 30.6106ZM21.0531 9.88249L21.4844 12.5544H20.8113L20.6506 9.65936C20.9606 9.68311 21.0219 9.75936 21.0531 9.88249ZM19.235 9.90686C19.27 9.76374 19.3319 9.68436 19.6419 9.65936L19.4813 12.5544H18.8075L19.235 9.90686ZM10.0394 36.5075C8.375 36.5075 7.02563 35.1675 7.02563 33.5175C7.02563 31.8675 8.375 30.5275 10.0394 30.5275C11.7037 30.5275 13.0531 31.8675 13.0531 33.5175C13.0531 35.1675 11.7031 36.5075 10.0394 36.5075ZM29.9613 36.5075C28.2975 36.5075 26.9475 35.1675 26.9475 33.5175C26.9475 31.8675 28.2975 30.5275 29.9613 30.5275C31.625 30.5275 32.975 31.8675 32.975 33.5175C32.975 35.1675 31.625 36.5075 29.9613 36.5075ZM36.3281 25.9587H35.7838C35.5538 25.9587 35.2975 26.2206 35.2137 26.5406L34.9094 27.7031C34.8256 28.0231 34.9463 28.285 35.1763 28.285H36.3288V30.6106H34.3462C33.4 29.2081 31.79 28.285 29.9613 28.285C28.1325 28.285 26.5225 29.2081 25.5763 30.6106H14.4237C13.4775 29.2081 11.8681 28.285 10.0387 28.285C8.20938 28.285 6.6 29.2081 5.65375 30.6106H3.97125L4.33938 28.91H5.095C5.37688 28.91 5.69187 28.6481 5.79437 28.3281L6.16813 26.5406C6.27063 26.2206 6.12375 25.9587 5.84125 25.9587H5.15312C5.36125 25.7325 5.65938 25.465 5.92625 25.2931C6.40438 24.9856 7.29125 24.5375 8.07312 24.1419C8.77312 23.7887 9.43375 23.4544 9.90312 23.1769C10.625 22.75 12.005 21.6919 12.6112 20.8937C13.5256 19.6912 15.1469 16.135 15.4381 15.4875C15.5837 15.2637 15.9887 15.0044 16.1569 15.0006H29.8813C29.9875 15.0006 30.1588 15.1256 30.1981 15.21L31.5625 21.4969C31.7669 22.3494 32.6712 22.9962 35.1175 24.3912C35.345 24.5206 35.6025 24.6669 35.7013 24.7325C36.1081 24.9994 36.3294 25.1819 36.3294 25.3781V25.9587H36.3281Z" fill="#1E293B"/>
<path d="M29.3081 33.1431L28.6212 31.9631C28.4 31.965 28.1668 32.1156 28.0043 32.3956C27.8412 32.675 27.8262 32.9512 27.935 33.1425L29.3081 33.1431ZM29.3075 33.8912H27.9356C27.8262 34.0825 27.8412 34.3587 28.0043 34.6387C28.1668 34.9181 28.4 35.0694 28.6212 35.0712L29.3075 33.8912ZM29.2743 35.4456C29.3875 35.635 29.635 35.76 29.9612 35.76C30.2875 35.76 30.535 35.635 30.6481 35.4456L29.9612 34.2656L29.2743 35.4456ZM30.6137 33.8912L31.3006 35.0712C31.5218 35.0694 31.755 34.9187 31.9175 34.6394C32.0806 34.3594 32.0956 34.0831 31.9868 33.8919L30.6137 33.8912ZM31.3012 31.9631L30.6137 33.1437H31.9868C32.0956 32.9519 32.0806 32.6762 31.9175 32.3969C31.7556 32.1169 31.5225 31.9656 31.3012 31.9631ZM30.6468 31.5894C30.5343 31.4 30.2862 31.275 29.9606 31.275C29.635 31.275 29.3868 31.4 29.2743 31.5894L29.9606 32.7687L30.6468 31.5894Z" fill="#1E293B"/>
</svg>
