<svg width="40" height="40" viewBox="0 0 40 40" fill="none" xmlns="http://www.w3.org/2000/svg">
<path d="M5 20V28.3333M5 28.3333H8.33333C10.69 28.3333 11.8683 28.3333 12.6 29.0667C13.3333 29.7967 13.3333 30.975 13.3333 33.3333V35M5 28.3333V35M6.66667 11.6667L15.5283 6.805C17.7217 5.60167 18.82 5 20 5C21.18 5 22.2783 5.60167 24.4717 6.805L33.3333 11.6667M30 10V16.6667M10 10V16.6667M35 20V28.3333M35 28.3333H31.6667C29.31 28.3333 28.1317 28.3333 27.4 29.0667C26.6667 29.7967 26.6667 30.975 26.6667 33.3333V35M35 28.3333V35M11.6667 23.3333H20M20 23.3333H28.3333M20 23.3333V35M20 35H18.3333M20 35H21.6667" stroke="#1E293B" stroke-width="3" stroke-linecap="round" stroke-linejoin="round"/>
</svg>
