<svg width="95" height="95" viewBox="0 0 95 95" fill="none" xmlns="http://www.w3.org/2000/svg">
<g clip-path="url(#clip0_907_1514)">
<path d="M70.907 37.6834C66.1623 29.7943 59.6374 23.1248 51.8542 18.2084C48.3469 15.9855 44.3487 14.6549 40.2088 14.333C36.0689 14.011 31.9131 14.7073 28.1042 16.3611C24.7726 17.9326 21.8736 20.2914 19.6576 23.2339C17.4416 26.1764 15.9751 29.614 15.3848 33.25C15.1737 34.5431 14.9889 35.8889 14.8306 36.9445H12.1917C11.2875 36.934 10.3903 37.1031 9.55187 37.4418C8.71348 37.7806 7.95066 38.2824 7.30758 38.9181C6.66451 39.5538 6.15398 40.3108 5.80556 41.1452C5.45715 41.9797 5.27777 42.8749 5.27783 43.7792V66.3417C5.27783 66.9436 5.51693 67.5208 5.94254 67.9464C6.36814 68.372 6.94538 68.6111 7.54728 68.6111H12.1126V67.582C12.1058 65.1386 12.6872 62.7294 13.8076 60.558C14.928 58.3866 16.5546 56.5167 18.5499 55.1063C20.5451 53.6959 22.8505 52.7864 25.2713 52.4546C27.6921 52.1228 30.1572 52.3785 32.4584 53.2L29.8195 55.8389C27.7122 55.4513 25.5396 55.6334 23.5262 56.3664C21.5128 57.0994 19.7316 58.3567 18.3667 60.0084C17.663 60.7144 17.0989 61.5471 16.7042 62.4625C15.8922 64.0338 15.4415 65.7666 15.3849 67.5344C15.3284 69.3022 15.6674 71.0603 16.3773 72.6802C17.0871 74.3002 18.1499 75.7412 19.4879 76.8978C20.8259 78.0545 22.4055 78.8977 24.1111 79.3658C25.8167 79.8339 27.6053 79.9151 29.3463 79.6034C31.0873 79.2917 32.7367 78.5951 34.1741 77.5644C35.6114 76.5337 36.8003 75.1949 37.654 73.6459C38.5077 72.0969 39.0046 70.3768 39.1084 68.6111H53.5695V67.582C53.5643 65.1417 54.1456 62.7359 55.2646 60.5673C56.3836 58.3988 58.0074 56.5309 59.9992 55.1211C61.991 53.7113 64.2925 52.8009 66.7098 52.4665C69.127 52.1322 71.5892 52.3838 73.8889 53.2L71.2501 55.8389C69.1427 55.4513 66.9701 55.6334 64.9567 56.3664C62.9433 57.0994 61.1622 58.3567 59.7973 60.0084C59.0935 60.7144 58.5295 61.5471 58.1348 62.4625C57.3339 64.0336 56.8929 65.7633 56.844 67.5261C56.795 69.2889 57.1392 71.0404 57.8517 72.6535C58.5642 74.2666 59.6269 75.7008 60.9629 76.8519C62.2988 78.003 63.8743 78.8421 65.575 79.3083C67.2757 79.7745 69.0589 79.8561 70.7951 79.5471C72.5313 79.2381 74.1768 78.5463 75.6122 77.522C77.0477 76.4977 78.237 75.1665 79.0937 73.6251C79.9505 72.0838 80.4532 70.371 80.5653 68.6111H87.4528C88.0547 68.6111 88.632 68.372 89.0576 67.9464C89.4832 67.5208 89.7223 66.9436 89.7223 66.3417V61.6445C89.7023 56.1256 87.8405 50.7714 84.4321 46.4307C81.0236 42.0901 76.2637 39.0116 70.907 37.6834ZM31.6667 36.9445H21.1112C21.1112 36.0209 21.3751 35.0709 21.5334 34.1209C21.9767 31.2359 23.1467 28.5111 24.9332 26.2029C26.7198 23.8947 29.0642 22.0789 31.7459 20.9264L31.6667 36.9445ZM27.3389 74.8389C26.0341 74.8389 24.7586 74.452 23.6737 73.7271C22.5888 73.0022 21.7432 71.9718 21.2439 70.7663C20.7446 69.5609 20.6139 68.2344 20.8685 66.9546C21.123 65.6749 21.7514 64.4994 22.674 63.5768C23.5966 62.6541 24.7722 62.0258 26.0519 61.7712C27.3316 61.5167 28.6581 61.6473 29.8636 62.1467C31.0691 62.646 32.0994 63.4916 32.8243 64.5765C33.5492 65.6614 33.9362 66.9369 33.9362 68.2417C33.9362 69.9914 33.2411 71.6694 32.0039 72.9066C30.7667 74.1439 29.0886 74.8389 27.3389 74.8389ZM50.1389 50.1389H42.2223V44.8611H50.1389V50.1389ZM34.3056 36.9445V19.7125C39.2639 19.0376 44.3025 20.1107 48.5556 22.7472C54.3994 26.4207 59.4288 31.2525 63.3334 36.9445H34.3056ZM68.7695 74.8389C67.4647 74.8389 66.1892 74.452 65.1043 73.7271C64.0194 73.0022 63.1738 71.9718 62.6745 70.7663C62.1751 69.5609 62.0445 68.2344 62.299 66.9546C62.5536 65.6749 63.1819 64.4994 64.1046 63.5768C65.0272 62.6541 66.2027 62.0258 67.4824 61.7712C68.7622 61.5167 70.0887 61.6473 71.2941 62.1467C72.4996 62.646 73.53 63.4916 74.2549 64.5765C74.9798 65.6614 75.3667 66.9369 75.3667 68.2417C75.3667 69.9914 74.6717 71.6694 73.4344 72.9066C72.1972 74.1439 70.5192 74.8389 68.7695 74.8389Z" fill="#E6502C"/>
</g>
<defs>
<clipPath id="clip0_907_1514">
<rect width="95" height="95" fill="white"/>
</clipPath>
</defs>
</svg>
