<svg width="95" height="95" viewBox="0 0 95 95" fill="none" xmlns="http://www.w3.org/2000/svg">
<path d="M95 53.4375V89.0625H89.0625V83.125H5.9375V89.0625H0V53.4375H5.9375V58.6792L17.8125 34.9292V5.9375H23.75V11.875H71.25V5.9375H77.1875V23.75C78.0225 23.75 78.7956 23.9046 79.5068 24.2139C80.2181 24.5231 80.8366 24.9406 81.3623 25.4663C81.888 25.992 82.321 26.626 82.6611 27.3682C83.0013 28.1104 83.1559 28.8835 83.125 29.6875V41.5625C83.125 42.7686 82.8003 43.8509 82.1509 44.8096L89.0625 58.6792V53.4375H95ZM53.4375 29.6875V41.5625H77.1875V29.6875H53.4375ZM23.75 17.8125V35.625H47.5V29.6875C47.5 28.8525 47.6546 28.0794 47.9639 27.3682C48.2731 26.6569 48.6906 26.0384 49.2163 25.5127C49.742 24.987 50.376 24.554 51.1182 24.2139C51.8604 23.8737 52.6335 23.7191 53.4375 23.75H71.25V17.8125H23.75ZM12.2461 59.375H82.7539L76.8164 47.5H53.4375C52.6025 47.5 51.8294 47.3454 51.1182 47.0361C50.4069 46.7269 49.7884 46.3094 49.2627 45.7837C48.737 45.258 48.304 44.624 47.9639 43.8818C47.6237 43.1396 47.4691 42.3665 47.5 41.5625H21.106L12.2461 59.375ZM89.0625 77.1875V65.3125H5.9375V77.1875H89.0625Z" fill="#E6502C"/>
</svg>
