<svg width="95" height="95" viewBox="0 0 95 95" fill="none" xmlns="http://www.w3.org/2000/svg">
<path d="M47.4362 4.22119C23.0975 4.22119 3.328 10.4047 3.328 18.0155C3.32837 22.1699 9.34158 25.9179 18.6475 28.4469C15.4177 26.7937 13.5394 24.8815 13.5394 22.7933C13.5394 16.8321 28.7078 11.9333 47.4362 11.9333C66.1646 11.9333 81.4377 16.8317 81.4377 22.7933C81.4377 24.8703 79.5265 26.7993 76.3296 28.4469C85.5778 25.9185 91.5385 22.155 91.5385 18.0155C91.5385 10.4047 71.7751 4.22119 47.4362 4.22119ZM27.3626 19.1288V24.7126H67.4927V19.1288H27.3626ZM28.1742 28.1797V67.1568H31.6415V28.1799H28.1744L28.1742 28.1797ZM35.4337 28.1797C35.5632 39.6488 40.1327 46.073 45.2325 47.4421C40.0655 48.8291 35.44 55.4021 35.4276 67.1565H59.2125C59.2002 55.4015 54.5827 48.8307 49.4193 47.4421C54.5159 46.0717 59.077 39.6495 59.2069 28.1799H35.4335L35.4337 28.1797ZM62.8828 28.1797V67.1568H66.3503V28.1799H62.8828V28.1797ZM18.6475 66.9305C9.34176 69.4587 3.32819 73.207 3.32819 77.3614C3.32819 84.9721 23.0975 91.1557 47.4364 91.1557C71.7753 91.1557 91.5385 84.9723 91.5385 77.3617C91.5385 73.2222 85.5778 69.4587 76.3292 66.9303C79.5265 68.5779 81.4377 70.5009 81.4377 72.578C81.4377 78.5396 66.1647 83.4441 47.4362 83.4441C28.7077 83.4441 13.5394 78.5388 13.5394 72.5776C13.5394 70.4894 15.4177 68.5831 18.6475 66.9301V66.9305ZM27.3626 70.6238V76.2019H67.4927V70.6238H27.3626Z" fill="#E6502C"/>
</svg>
