<svg width="40" height="40" viewBox="0 0 40 40" fill="none" xmlns="http://www.w3.org/2000/svg">
<path d="M4.99992 35C4.5277 35 4.13214 34.84 3.81325 34.52C3.49436 34.2 3.33436 33.8044 3.33325 33.3333V20L6.83325 9.99999C6.99992 9.49999 7.29881 9.09721 7.72992 8.79166C8.16103 8.4861 8.63992 8.33332 9.16659 8.33332H14.9999V10.625C14.9999 10.7917 15.0071 10.9655 15.0216 11.1467C15.036 11.3278 15.0566 11.5011 15.0833 11.6667H9.74992L7.99992 16.6667H18.6249L24.2083 22.25C23.9305 22.4722 23.7155 22.75 23.5633 23.0833C23.411 23.4167 23.3344 23.7778 23.3333 24.1667C23.3333 24.8611 23.5766 25.4517 24.0633 25.9383C24.5499 26.425 25.1399 26.6678 25.8333 26.6667C26.3888 26.6667 26.8888 26.5 27.3333 26.1667C27.7777 25.8333 28.0694 25.4028 28.2083 24.875C28.5138 24.9305 28.8121 24.9722 29.1033 25C29.3944 25.0278 29.6933 25.0139 29.9999 24.9583C30.611 24.9028 31.2016 24.75 31.7716 24.5C32.3416 24.25 32.8621 23.9028 33.3333 23.4583V33.3333C33.3333 33.8055 33.1733 34.2017 32.8533 34.5217C32.5333 34.8417 32.1377 35.0011 31.6666 35H29.9999C29.5277 35 29.1321 34.84 28.8133 34.52C28.4944 34.2 28.3344 33.8044 28.3333 33.3333V31.6667H8.33325V33.3333C8.33325 33.8055 8.17325 34.2017 7.85325 34.5217C7.53325 34.8417 7.1377 35.0011 6.66659 35H4.99992ZM10.8333 26.6667C11.5277 26.6667 12.1183 26.4239 12.6049 25.9383C13.0916 25.4528 13.3344 24.8622 13.3333 24.1667C13.3321 23.4711 13.0894 22.8811 12.6049 22.3967C12.1205 21.9122 11.5299 21.6689 10.8333 21.6667C10.1366 21.6644 9.54659 21.9078 9.06325 22.3967C8.57992 22.8855 8.33659 23.4755 8.33325 24.1667C8.32992 24.8578 8.57325 25.4483 9.06325 25.9383C9.55325 26.4283 10.1433 26.6711 10.8333 26.6667ZM27.5833 20.9167L19.0833 12.4167C18.861 12.1944 18.6805 11.9233 18.5416 11.6033C18.4027 11.2833 18.3333 10.9578 18.3333 10.6267V4.16666C18.3333 3.47221 18.5766 2.88221 19.0633 2.39666C19.5499 1.9111 20.1399 1.66777 20.8333 1.66666H27.2916C27.6249 1.66666 27.9516 1.7361 28.2716 1.87499C28.5916 2.01388 28.8621 2.19443 29.0833 2.41666L37.5833 10.9167C38.0555 11.3889 38.2916 11.9794 38.2916 12.6883C38.2916 13.3972 38.0555 13.9872 37.5833 14.4583L31.1249 20.9167C30.6527 21.3889 30.0627 21.625 29.3549 21.625C28.6471 21.625 28.0566 21.3889 27.5833 20.9167ZM24.9999 9.99999C25.4721 9.99999 25.8683 9.83999 26.1883 9.51999C26.5083 9.19999 26.6677 8.80443 26.6666 8.33332C26.6655 7.86221 26.5055 7.46666 26.1866 7.14666C25.8677 6.82666 25.4721 6.66666 24.9999 6.66666C24.5277 6.66666 24.1321 6.82666 23.8133 7.14666C23.4944 7.46666 23.3344 7.86221 23.3333 8.33332C23.3321 8.80443 23.4921 9.20054 23.8133 9.52166C24.1344 9.84277 24.5299 10.0022 24.9999 9.99999Z" fill="#1E293B"/>
</svg>
