<svg width="40" height="40" viewBox="0 0 40 40" fill="none" xmlns="http://www.w3.org/2000/svg">
<path d="M15.4167 8.33335C15.4175 7.696 15.5513 7.06584 15.8095 6.48312C16.0676 5.9004 16.4445 5.37792 16.916 4.94907C17.3875 4.52021 17.9432 4.1944 18.5477 3.99245C19.1522 3.7905 19.7922 3.71685 20.4268 3.7762C21.0614 3.83555 21.6766 4.0266 22.2332 4.33714C22.7898 4.64768 23.2754 5.07089 23.6592 5.57974C24.043 6.08858 24.3165 6.67188 24.4621 7.29237C24.6077 7.91285 24.6223 8.55689 24.505 9.18335C25.4667 9.70835 26.14 10.3217 26.655 10.79C26.8161 10.9389 26.9633 11.0695 27.0967 11.1817C27.435 11.4634 27.7483 11.67 28.1533 11.8184C28.5633 11.9684 29.1333 12.0834 30 12.0834C30.3315 12.0834 30.6495 12.215 30.8839 12.4495C31.1183 12.6839 31.25 13.0018 31.25 13.3334C31.25 13.6649 31.1183 13.9828 30.8839 14.2172C30.6495 14.4517 30.3315 14.5834 30 14.5834C28.9133 14.5834 28.0383 14.44 27.29 14.165C26.535 13.8867 25.9733 13.4984 25.5 13.1067C25.2694 12.9135 25.0433 12.7151 24.8217 12.5117C24.3683 12.1017 23.975 11.745 23.3883 11.4184C22.8131 12.0508 22.0724 12.5098 21.25 12.7434V28.3334C21.25 30.16 21.7917 31.2734 22.4467 31.9284C23.1117 32.5934 24.0233 32.9167 25 32.9167C25.3315 32.9167 25.6495 33.0484 25.8839 33.2828C26.1183 33.5172 26.25 33.8352 26.25 34.1667C26.25 34.4982 26.1183 34.8162 25.8839 35.0506C25.6495 35.285 25.3315 35.4167 25 35.4167C23.4783 35.4167 21.89 34.9067 20.6783 33.6967C20.4161 33.4356 20.1789 33.1467 19.9667 32.83C19.9 32.9334 19.8317 33.0334 19.7617 33.13C18.6667 34.6384 17.02 35.4167 15 35.4167C14.6685 35.4167 14.3505 35.285 14.1161 35.0506C13.8817 34.8162 13.75 34.4982 13.75 34.1667C13.75 33.8352 13.8817 33.5172 14.1161 33.2828C14.3505 33.0484 14.6685 32.9167 15 32.9167C16.3133 32.9167 17.1667 32.4467 17.74 31.66C18.3567 30.8117 18.75 29.4467 18.75 27.5V12.745C17.9276 12.5114 17.1869 12.0525 16.6117 11.42C16.025 11.745 15.6317 12.1034 15.1783 12.5117C14.9733 12.6984 14.755 12.895 14.5 13.1067C14.0267 13.5 13.4667 13.8867 12.71 14.165C11.9617 14.44 11.0867 14.5834 10 14.5834C9.66848 14.5834 9.35054 14.4517 9.11612 14.2172C8.8817 13.9828 8.75 13.6649 8.75 13.3334C8.75 13.0018 8.8817 12.6839 9.11612 12.4495C9.35054 12.215 9.66848 12.0834 10 12.0834C10.8667 12.0834 11.4367 11.97 11.8483 11.8167C12.2517 11.67 12.565 11.4634 12.905 11.1834C13.0383 11.07 13.1856 10.9389 13.3467 10.79C13.86 10.3234 14.5333 9.70835 15.4967 9.18335C15.4458 8.90282 15.4191 8.61845 15.4167 8.33335ZM20 6.25002C19.4475 6.25002 18.9176 6.46951 18.5269 6.86021C18.1362 7.25091 17.9167 7.78082 17.9167 8.33335C17.9167 8.88589 18.1362 9.41579 18.5269 9.80649C18.9176 10.1972 19.4475 10.4167 20 10.4167C20.5525 10.4167 21.0824 10.1972 21.4731 9.80649C21.8638 9.41579 22.0833 8.88589 22.0833 8.33335C22.0833 7.78082 21.8638 7.25091 21.4731 6.86021C21.0824 6.46951 20.5525 6.25002 20 6.25002Z" fill="#1E293B"/>
<path d="M11.8501 15.7617L14.9467 22.0834H15.8334C16.1649 22.0834 16.4829 22.2151 16.7173 22.4495C16.9517 22.6839 17.0834 23.0018 17.0834 23.3334C17.0834 25.212 16.3371 27.0136 15.0088 28.342C13.6804 29.6704 11.8787 30.4167 10.0001 30.4167C8.12146 30.4167 6.31979 29.6704 4.99141 28.342C3.66303 27.0136 2.91675 25.212 2.91675 23.3334C2.91675 23.0018 3.04844 22.6839 3.28286 22.4495C3.51729 22.2151 3.83523 22.0834 4.16675 22.0834H5.05341L8.15008 15.7617L8.17842 15.7034C8.36159 15.3737 8.6308 15.1 8.95734 14.9113C9.28388 14.7227 9.65549 14.6262 10.0326 14.6322C10.4096 14.6382 10.778 14.7464 11.0984 14.9453C11.4187 15.1443 11.6775 15.4264 11.8501 15.7617ZM10.0001 17.6667L7.83675 22.0834H12.1634L10.0001 17.6667ZM34.9468 22.0834L31.8517 15.7617L31.8218 15.7034C31.6384 15.3741 31.3693 15.1008 31.0429 14.9124C30.7166 14.7241 30.3452 14.6278 29.9685 14.6338C29.5917 14.6398 29.2236 14.7478 28.9034 14.9464C28.5832 15.1451 28.3228 15.4268 28.1501 15.7617L25.0534 22.0834H24.1667C23.8352 22.0834 23.5173 22.2151 23.2829 22.4495C23.0484 22.6839 22.9167 23.0018 22.9167 23.3334C22.9167 25.212 23.663 27.0136 24.9914 28.342C26.3198 29.6704 28.1215 30.4167 30.0001 30.4167C31.8787 30.4167 33.6804 29.6704 35.0088 28.342C36.3371 27.0136 37.0834 25.212 37.0834 23.3334C37.0834 23.0018 36.9517 22.6839 36.7173 22.4495C36.4829 22.2151 36.1649 22.0834 35.8334 22.0834H34.9468ZM32.1634 22.0834H27.8384L30.0001 17.6667L32.1634 22.0834Z" fill="#1E293B"/>
</svg>
