<svg width="143" height="200" viewBox="0 0 143 200" fill="none" xmlns="http://www.w3.org/2000/svg">
<path fill-rule="evenodd" clip-rule="evenodd" d="M70.0624 -9.25828e-06C79.6007 -0.185334 89.0795 1.54196 97.9394 5.07993C106.799 8.61791 114.861 13.8949 121.648 20.5993C128.435 27.3038 133.81 35.3 137.456 44.1159C141.102 52.9317 142.945 62.3887 142.877 71.9286C142.818 84.3876 139.488 96.6126 133.22 107.38C126.952 118.148 117.967 127.081 107.162 133.286V146.657C107.162 150.446 105.657 154.08 102.978 156.759C100.299 159.438 96.6655 160.943 92.8767 160.943H50.0195C46.2307 160.943 42.5971 159.438 39.918 156.759C37.2389 154.08 35.7338 150.446 35.7338 146.657V133.286C22.2137 125.486 11.6208 113.471 5.57521 99.0809C-0.470333 84.6903 -1.63567 68.7156 2.25744 53.6C6.15055 38.4845 14.8878 25.0602 27.1328 15.3805C39.3778 5.70081 54.4564 0.298542 70.0624 -9.25828e-06ZM42.8767 178.4C40.0351 178.4 37.3098 179.529 35.3005 181.538C33.2912 183.547 32.1624 186.273 32.1624 189.114C32.1624 191.956 33.2912 194.681 35.3005 196.69C37.3098 198.7 40.0351 199.829 42.8767 199.829H100.02C102.861 199.829 105.586 198.7 107.596 196.69C109.605 194.681 110.734 191.956 110.734 189.114C110.734 186.273 109.605 183.547 107.596 181.538C105.586 179.529 102.861 178.4 100.02 178.4H42.8767Z" fill="white"/>
<path fill-rule="evenodd" clip-rule="evenodd" d="M71.4482 24.6571C76.3767 24.6571 80.3767 28.6571 80.3767 33.5857V39.0714C84.3293 39.8207 88.0162 41.5936 91.0694 44.2131C94.1226 46.8327 96.4353 50.2072 97.7767 54C98.2132 55.1153 98.4209 56.3071 98.3873 57.5044C98.3537 58.7017 98.0795 59.8799 97.5812 60.9691C97.0828 62.0582 96.3704 63.0359 95.4863 63.844C94.6023 64.6522 93.5647 65.2741 92.4353 65.673C91.3059 66.0718 90.1078 66.2393 88.9124 66.1656C87.7169 66.0918 86.5485 65.7783 85.4767 65.2436C84.4049 64.709 83.4517 63.9642 82.6737 63.0535C81.8957 62.1428 81.3089 61.085 80.9482 59.9428C80.5909 58.951 79.9375 58.0929 79.0764 57.4848C78.2153 56.8766 77.1881 56.5478 76.1339 56.5428H65.2767C64.3895 56.5416 63.5332 56.8681 62.8719 57.4595C62.2106 58.051 61.791 58.8658 61.6936 59.7476C61.5963 60.6295 61.8279 61.5162 62.3442 62.2377C62.8604 62.9592 63.6249 63.4647 64.491 63.6571L81.0339 67.2714C86.2004 68.4106 90.8153 71.2983 94.0989 75.4465C97.3826 79.5948 99.1337 84.7493 99.0565 90.0394C98.9792 95.3294 97.0783 100.431 93.6749 104.481C90.2715 108.532 85.5743 111.284 80.3767 112.271V117.786C80.3767 120.154 79.436 122.425 77.7616 124.099C76.0872 125.774 73.8162 126.714 71.4482 126.714C69.0801 126.714 66.8091 125.774 65.1347 124.099C63.4603 122.425 62.5196 120.154 62.5196 117.786V112.286C58.5686 111.538 54.8828 109.767 51.8298 107.15C48.7767 104.533 46.463 101.161 45.1196 97.3714C44.3957 95.1563 44.5665 92.746 45.5955 90.6552C46.6245 88.5644 48.4302 86.9587 50.627 86.181C52.8238 85.4034 55.2375 85.5155 57.3528 86.4932C59.4681 87.471 61.1172 89.2371 61.9482 91.4143C62.6624 93.4143 64.5624 94.8142 66.7767 94.8142H76.1339C77.3865 94.8014 78.5908 94.3292 79.5184 93.4873C80.446 92.6454 81.0323 91.4924 81.1662 90.2468C81.3001 89.0014 80.9722 87.75 80.2447 86.7302C79.5173 85.7104 78.4408 84.9931 77.2196 84.7142L60.6767 81.1C55.7385 80.0186 51.3406 77.2283 48.2586 73.2212C45.1765 69.2141 43.6083 64.2475 43.8303 59.1971C44.0523 54.1467 46.0504 49.3369 49.4722 45.6157C52.894 41.8945 57.5198 39.501 62.5339 38.8571V33.5714C62.5339 28.6428 66.5196 24.6571 71.4482 24.6571Z" fill="#FF896F"/>
</svg>
