<svg width="95" height="95" viewBox="0 0 95 95" fill="none" xmlns="http://www.w3.org/2000/svg">
<path d="M31.6667 31.6667V57H79.1667C80.94 57 82.3333 58.3933 82.3333 60.1667V88.6667H0V60.1667C0 58.3933 1.39333 57 3.16667 57H12.6667V31.6667H8.80333C7.34667 31.6667 6.08 30.6533 5.76333 29.26L1.01333 10.26C0.57 8.55 1.58333 6.84 3.29333 6.39667C3.54667 6.39667 3.8 6.33333 4.05333 6.33333H15.8333L13.8067 2.28C13.6287 1.90936 13.6019 1.48402 13.7319 1.09397C13.8619 0.703916 14.1386 0.379734 14.5033 0.19C14.7213 0.0827142 14.9578 0.0182163 15.2 0L29.1333 0C29.9567 0 30.7167 0.696667 30.7167 1.58333C30.7167 1.83667 30.6533 2.09 30.5267 2.28L28.5 6.33333H40.28C42.0533 6.33333 43.4467 7.72667 43.4467 9.5C43.4467 9.75333 43.3833 10.0067 43.32 10.26L38.57 29.26C38.2533 30.6533 36.9867 31.6667 35.53 31.6667H31.6667ZM25.3333 63.3333H6.33333V69.6667H25.3333V63.3333ZM50.6667 63.3333H31.6667V69.6667H50.6667V63.3333ZM76 63.3333H57V69.6667H76V63.3333ZM25.3333 76H6.33333V82.3333H25.3333V76ZM50.6667 76H31.6667V82.3333H50.6667V76ZM76 76H57V82.3333H76V76ZM8.10667 12.6667L11.2733 25.3333H33.06L36.2267 12.6667H8.10667ZM35.91 39.7733L38.0633 38.3167C38.8233 37.8733 39.6467 37.7467 40.47 37.8733L47.9433 39.52L57.3167 33.3767L47.31 27.4867C46.965 27.2617 46.7198 26.9124 46.6255 26.5115C46.5311 26.1105 46.5948 25.6886 46.8033 25.3333C46.93 25.1433 47.0567 24.9533 47.31 24.8267L51.11 22.3567C51.49 22.1033 51.9333 22.04 52.3133 22.1033L69.2233 25.7133L76.19 21.1533C80.6233 18.24 86.07 17.48 91.1367 19L92.53 19.38C94.24 19.8867 95.19 21.66 94.6833 23.37C94.43 24.0667 93.9867 24.7 93.3533 25.08L53.6433 50.92L36.2267 43.4467C35.7183 43.2154 35.3208 42.7941 35.1195 42.2731C34.9182 41.7521 34.9292 41.173 35.15 40.66C35.2767 40.28 35.5933 39.9633 35.91 39.7733Z" fill="#E6502C"/>
</svg>
