<svg width="40" height="40" viewBox="0 0 40 40" fill="none" xmlns="http://www.w3.org/2000/svg">
<path d="M10.6667 17.36C10.6667 17.7067 10.5333 18.0267 10.2667 18.2667L7.6 20.9333C7.2 21.36 6.56 21.4667 6.02667 21.1733L5.33333 20.8V23.84L8.58667 25.4667C9.04 25.7067 9.33333 26.16 9.33333 26.6667V30.6667C9.33333 31.4133 8.74667 32 8 32C7.25333 32 6.66667 31.4133 6.66667 30.6667V27.4933L4.13333 26.2133C4.08 26.2667 4.05333 26.2933 4 26.32V29.3333L3.92 29.76L2.58667 33.76C2.37333 34.4533 1.6 34.8267 0.906667 34.5867C0.740717 34.5326 0.587274 34.4459 0.455395 34.3316C0.323515 34.2173 0.215871 34.0777 0.138817 33.9211C0.0617625 33.7645 0.0168592 33.5941 0.00675734 33.4198C-0.00334456 33.2456 0.0215596 33.0711 0.08 32.9067L1.33333 29.12V26.32C0.533333 25.84 0 24.9867 0 24V19.3333C0 17.8667 1.2 16.6667 2.66667 16.6667C3.22667 16.6667 3.73333 16.8267 4.18667 17.1467L6.42667 18.3467L8.4 16.4C8.90667 15.8667 9.76 15.8667 10.2667 16.4C10.5333 16.64 10.6667 16.96 10.6667 17.3067V7.99999C10.6667 5.06666 13.0667 2.66666 16 2.66666H34.6667C37.6 2.66666 40 5.06666 40 7.99999V26.6667C40 29.6 37.6 32 34.6667 32H16C13.0667 32 10.6667 29.6 10.6667 26.6667V17.36ZM20.6667 33.3333L20 34.6667H30.6667L30 33.3333H34L37.3333 40H33.3333L32 37.3333H18.6667L17.3333 40H13.3333L16.6667 33.3333H20.6667ZM29.3333 25.3333C29.3333 26.8 30.5333 28 32 28C33.4667 28 34.6667 26.8 34.6667 25.3333C34.6667 23.8667 33.4667 22.6667 32 22.6667C30.5333 22.6667 29.3333 23.8667 29.3333 25.3333ZM21.3333 25.3333C21.3333 23.8667 20.1333 22.6667 18.6667 22.6667C17.2 22.6667 16 23.8667 16 25.3333C16 26.8 17.2 28 18.6667 28C20.1333 28 21.3333 26.8 21.3333 25.3333ZM13.3333 9.33332L13.36 17.3333C13.36 18.08 13.9733 18.6667 14.6933 18.6667H22.6933C23.4133 18.6667 24.0267 18.08 24.0267 17.3333L23.9733 9.33332C23.9733 8.58666 23.3867 7.99999 22.64 7.99999H14.6667C13.92 7.99999 13.3333 8.58666 13.3333 9.33332ZM26.6667 9.33332L26.6933 17.3333C26.6933 18.08 27.3067 18.6667 28.0267 18.6667H36.0267C36.7467 18.6667 37.36 18.08 37.36 17.3333L37.3067 9.33332C37.3067 8.58666 36.72 7.99999 35.9733 7.99999H28C27.2533 7.99999 26.6667 8.58666 26.6667 9.33332ZM2.66667 16C1.2 16 0 14.8 0 13.3333C0 11.8667 1.2 10.6667 2.66667 10.6667C4.13333 10.6667 5.33333 11.8667 5.33333 13.3333C5.33333 14.8 4.13333 16 2.66667 16Z" fill="#1E293B"/>
</svg>
