<svg width="40" height="40" viewBox="0 0 40 40" fill="none" xmlns="http://www.w3.org/2000/svg">
<path d="M13.9882 4.81197C13.9405 4.551 13.791 4.31968 13.5727 4.1689C13.3544 4.01812 13.0852 3.96023 12.8242 4.00797C12.5632 4.05571 12.3319 4.20516 12.1811 4.42346C12.0304 4.64175 11.9725 4.911 12.0202 5.17197L12.0382 5.26397C8.58021 6.40997 6.54221 8.24397 5.38421 10.29C4.25421 12.29 4.03021 14.39 4.00421 16H4.00021V16.008L2.66021 17.684C2.40166 18.0074 2.21285 18.3808 2.10567 18.7807C1.99849 19.1807 1.97526 19.5985 2.03744 20.0079C2.09963 20.4172 2.24588 20.8093 2.46699 21.1593C2.6881 21.5094 2.97928 21.8099 3.32221 22.042L20.6322 33.762C22.7833 35.2196 25.3218 35.9991 27.9202 36H33.5002C34.1456 36 34.7835 35.8612 35.3705 35.593C35.9575 35.3248 36.48 34.9335 36.9025 34.4456C37.325 33.9577 37.6375 33.3846 37.819 32.7652C38.0005 32.1459 38.0466 31.4947 37.9542 30.856C37.6342 28.662 35.7802 27.088 33.8602 26.48C32.6422 26.092 31.5002 25.462 30.8322 24.47L24.7982 14.09L25.1582 14.034C25.2894 14.014 25.4152 13.9682 25.5285 13.8991C25.6417 13.83 25.7401 13.7391 25.8178 13.6317C25.8956 13.5242 25.9512 13.4023 25.9814 13.2732C26.0117 13.144 26.0159 13.0101 25.9939 12.8793C25.9718 12.7485 25.924 12.6234 25.8532 12.5113C25.7823 12.3991 25.6899 12.3022 25.5812 12.2261C25.4725 12.1501 25.3498 12.0964 25.2202 12.0682C25.0906 12.04 24.9567 12.0379 24.8262 12.062C24.2555 12.1566 23.6902 12.2026 23.1302 12.2C18.9902 12.178 15.3342 9.52597 14.2042 5.71597C14.1148 5.41908 14.0426 5.11723 13.9882 4.81197ZM9.34021 8.81597L13.7302 16.418C13.9956 16.8771 14.0678 17.4228 13.9309 17.9351C13.794 18.4474 13.4592 18.8844 13.0002 19.15L11.2542 20.16L6.00021 16.614V16.36C6.00021 14.828 6.16421 12.976 7.12621 11.274C7.60621 10.422 8.30821 9.57397 9.34221 8.81397M13.6642 21.784L19.7562 18.264C19.9838 18.1327 20.235 18.0476 20.4954 18.0135C20.7559 17.9794 21.0206 17.9969 21.2743 18.065C21.528 18.1332 21.7658 18.2507 21.974 18.4107C22.1823 18.5708 22.3571 18.7704 22.4882 18.998L23.6942 21.086C23.9594 21.5453 24.0313 22.0912 23.894 22.6036C23.7567 23.1159 23.4216 23.5527 22.9622 23.818L19.5782 25.772L13.6642 21.784ZM27.9822 32H35.9502C35.7182 33.14 34.7102 34 33.5002 34H27.9202C25.7213 34 23.5729 33.341 21.7522 32.108L4.44421 20.386C4.33005 20.3086 4.23314 20.2084 4.15956 20.0917C4.08599 19.9751 4.03734 19.8444 4.01668 19.7081C3.99602 19.5717 4.00379 19.4325 4.0395 19.2993C4.07522 19.1661 4.13811 19.0417 4.22421 18.934L4.79621 18.214L22.9482 30.46C24.4352 31.4635 26.1882 31.9998 27.9822 32Z" fill="#1E293B"/>
</svg>
