<svg width="61" height="61" viewBox="0 0 61 61" fill="none" xmlns="http://www.w3.org/2000/svg">
<circle cx="30.5" cy="30.5" r="30.5" fill="#E6502C" fill-opacity="0.3"/>
<path fill-rule="evenodd" clip-rule="evenodd" d="M26.5445 35.6523L25.9985 42.9398C25.9601 43.4519 26.4154 43.8046 26.8226 43.5764C29.7056 41.9615 38.7364 36.0301 43.3136 22.9938C43.5235 22.3958 42.9595 21.8562 42.4779 22.1935C39.7742 24.0869 33.8654 28.0005 30.2138 28.7459C30.2138 28.7459 32.5523 27.1218 33.9519 24.6284C34.0891 24.384 34.0778 24.0711 33.9248 23.8505L28.8204 16.4934C28.5179 16.0573 27.8971 16.238 27.7879 16.7939L26.1988 24.8796L18.7402 31.3893C18.3663 31.7155 18.4426 32.3749 18.8743 32.5495L26.5445 35.6523Z" fill="#FF5F38" fill-opacity="0.6"/>
<path fill-rule="evenodd" clip-rule="evenodd" d="M39.7339 32.7801C39.2616 33.4391 38.2441 34.7949 37.3046 35.6234C37.1168 35.7891 37.1421 36.0669 37.3576 36.2022L42.3214 39.3183C42.6203 39.5058 43.0239 39.2831 42.9734 38.9578C42.7425 37.4686 42.0772 34.3638 40.3954 32.7339C40.2075 32.552 39.8838 32.5711 39.7339 32.7801Z" fill="#FF5F38" fill-opacity="0.6"/>
</svg>
