<svg width="95" height="95" viewBox="0 0 95 95" fill="none" xmlns="http://www.w3.org/2000/svg">
<path d="M8.37341 49.2902H16.8507V52.4341H8.37341V49.2902ZM19.4988 49.2902H27.9746V52.4341H19.4988V49.2902ZM30.6227 49.2902H39.1V52.4341H30.6227V49.2902ZM41.7481 49.2902H50.2224V52.4341H41.7481V49.2902ZM52.8705 49.2902H61.3493V52.4341H52.8705V49.2902ZM63.9959 49.2902H72.4717V52.4341H63.9959V49.2902ZM75.1198 49.2902H83.5971V52.4341H75.1198V49.2902ZM41.7481 55.5795H50.2224V58.7219H41.7481V55.5795ZM52.8705 55.5795H61.3493V58.7219H52.8705V55.5795ZM63.9959 55.5795H72.4717V58.7219H63.9959V55.5795ZM75.1198 55.5795H83.5971V58.7219H75.1198V55.5795ZM8.37341 61.8658H16.8507V65.0127H8.37341V61.8658ZM19.4988 61.8658H27.9746V65.0127H19.4988V61.8658ZM30.6227 61.8658H39.1V65.0127H30.6227V61.8658ZM41.7481 61.8658H50.2224V65.0127H41.7481V61.8658ZM52.8705 61.8658H61.3493V65.0127H52.8705V61.8658ZM63.9959 61.8658H72.4717V65.0127H63.9959V61.8658ZM75.1198 61.8658H83.5971V65.0127H75.1198V61.8658ZM8.37341 68.1566H16.8507V71.302H8.37341V68.1566ZM19.4988 68.1566H27.9746V71.302H19.4988V68.1566ZM30.6227 68.1566H39.1V71.302H30.6227V68.1566ZM41.7481 68.1566H50.2224V71.302H41.7481V68.1566ZM52.8705 68.1566H61.3493V71.302H52.8705V68.1566ZM63.9959 68.1566H72.4717V71.302H63.9959V68.1566ZM75.1198 68.1566H83.5971V71.302H75.1198V68.1566ZM8.37341 74.4444H16.8507V77.5898H8.37341V74.4444ZM19.4988 74.4444H27.9746V77.5898H19.4988V74.4444ZM30.6227 74.4444H39.1V77.5898H30.6227V74.4444ZM41.7481 74.4444H50.2224V77.5898H41.7481V74.4444ZM52.8705 74.4444H61.3493V77.5898H52.8705V74.4444ZM63.9959 74.4444H72.4717V77.5898H63.9959V74.4444ZM75.1198 74.4444H83.5971V77.5898H75.1198V74.4444ZM8.37341 80.7366H16.8507V83.8791H8.37341V80.7366ZM19.4988 80.7366H27.9746V83.8791H19.4988V80.7366ZM30.6227 80.7366H39.1V83.8791H30.6227V80.7366ZM41.7481 80.7366H50.2224V83.8791H41.7481V80.7366ZM52.8705 80.7366H61.3493V83.8791H52.8705V80.7366ZM63.9959 80.7366H72.4717V83.8791H63.9959V80.7366Z" fill="#E6502C"/>
<path d="M87.9834 27.3229H85.5653C78.2548 22.8727 50.1362 5.9375 45.9859 5.9375C41.8282 5.9375 14.9803 22.8579 7.97258 27.3229H7.01664C4.78117 27.3229 2.96875 29.2867 2.96875 31.7137V84.6717C2.96875 87.0972 4.78117 89.0625 7.01664 89.0625H87.9848C90.2188 89.0625 92.0312 87.0972 92.0312 84.6717V31.7137C92.0312 29.2867 90.2188 27.3229 87.9834 27.3229ZM43.6896 8.12992C43.42 8.58832 43.2785 9.11071 43.2799 9.6425C43.2799 11.2367 44.4912 12.5296 45.9874 12.5296C47.4807 12.5296 48.692 11.2367 48.692 9.6425C48.692 9.07398 48.5331 8.54703 48.2659 8.09875C54.478 10.6608 70.4707 19.9099 82.7257 27.3214H10.7231C22.3829 19.9396 37.6215 10.732 43.6896 8.12992ZM55.1252 31.1555H57.9396L60.3116 36.1534L62.5783 31.1555H65.2828L61.462 38.328V42.6298H59.0766V38.328L55.1252 31.1555ZM55.9194 40.5665V42.6298H47.831V31.1555H50.2164V40.5665H55.9194ZM39.0747 39.9282C39.3617 40.5714 39.9891 40.893 40.9569 40.893C41.9187 40.893 42.5442 40.5714 42.8331 39.9282C43.0192 39.566 43.1122 38.9906 43.1122 38.2019V31.1555H45.5391V38.2063C45.5391 39.4275 45.3506 40.3775 44.9736 41.0563C44.273 42.3012 42.9346 42.9237 40.9584 42.9237C38.9861 42.9237 37.6457 42.3012 36.9372 41.0563C36.5631 40.3765 36.3756 39.4265 36.3746 38.2063V31.1555H38.7986V38.2019C38.7966 38.9906 38.8886 39.566 39.0747 39.9282ZM29.2155 40.4136C29.3778 40.7758 29.7266 40.9564 30.262 40.9554C30.7904 40.9554 31.1392 40.7585 31.3084 40.3646C31.4104 40.1301 31.4618 39.7352 31.4628 39.1801V31.1541H33.8452V39.1415C33.8452 40.1162 33.682 40.8896 33.3554 41.4616C32.7983 42.4254 31.7963 42.9078 30.3495 42.9088C28.8988 42.9088 27.9265 42.5184 27.4327 41.7377C26.9379 40.9559 26.6905 39.8906 26.6905 38.5418V38.2776H28.9438V38.5418C28.9626 39.4304 29.0532 40.0544 29.2155 40.4136ZM86.0329 84.6717C86.0329 85.4555 85.5386 86.1205 84.9538 86.1205H7.01664C6.4318 86.1205 5.9375 85.4555 5.9375 84.6717V45.7514H86.0329V84.6717Z" fill="#E6502C"/>
</svg>
