<svg width="95" height="95" viewBox="0 0 95 95" fill="none" xmlns="http://www.w3.org/2000/svg">
<path fill-rule="evenodd" clip-rule="evenodd" d="M38.5917 16.8229C38.5917 20.2348 37.2364 23.507 34.8238 25.9195C32.4112 28.3321 29.139 29.6875 25.7271 29.6875C22.3152 29.6875 19.0431 28.3321 16.6305 25.9195C14.2179 23.507 12.8626 20.2348 12.8626 16.8229C12.8626 13.411 14.2179 10.1388 16.6305 7.72626C19.0431 5.31368 22.3152 3.95831 25.7271 3.95831C29.139 3.95831 32.4112 5.31368 34.8238 7.72626C37.2364 10.1388 38.5917 13.411 38.5917 16.8229ZM25.7271 32.6562C21.0306 32.6562 17.4047 32.8205 14.7289 33.0204C10.6241 33.3252 7.40204 36.2742 6.53121 40.2543C5.06325 46.9922 4.01099 53.8141 3.38037 60.6812C3.29547 61.5454 3.38535 62.4179 3.64465 63.2466C3.90395 64.0753 4.32737 64.8434 4.88969 65.505C5.45201 66.1667 6.14174 66.7085 6.9178 67.098C7.69386 67.4876 8.54037 67.717 9.40693 67.7726C10.5179 67.8491 11.7846 67.9217 13.2069 67.9903L14.529 85.8444C14.7467 88.8111 16.8763 91.384 19.9579 91.7225C23.7935 92.1384 27.6629 92.1378 31.4984 91.7205C34.58 91.384 36.7095 88.8111 36.9292 85.8444L37.0895 83.6653C36.7673 80.196 36.6087 76.7134 36.6145 73.2291C36.6145 68.9898 36.8382 65.4451 37.0895 62.7871C37.6318 57.0831 41.3052 52.0936 46.7677 50.1145C46.2528 46.8093 45.6383 43.5204 44.9251 40.2523C44.0542 36.2741 40.8341 33.3252 36.7273 33.0204C33.067 32.7631 29.3984 32.6416 25.7291 32.6562H25.7271ZM56.6081 50.1857C55.9756 51.6994 55.4291 53.2476 54.9713 54.8229C53.3444 54.9417 51.9689 55.0802 50.8151 55.2187C46.4807 55.7412 43.3991 59.1573 43.0013 63.3491C42.6963 66.6336 42.5464 69.9306 42.552 73.2291C42.552 77.2627 42.7638 80.6174 43.0013 83.1092C43.3991 87.299 46.4787 90.7171 50.8151 91.2415C54.1737 91.6453 59.4304 92.0312 67.2916 92.0312C75.1529 92.0312 80.4095 91.6453 83.7682 91.2396C88.1026 90.7171 91.1841 87.301 91.5819 83.1092C91.8194 80.6174 92.0312 77.2627 92.0312 73.2291C92.0312 69.1956 91.8194 65.8409 91.5819 63.3491C91.1841 59.1593 88.1045 55.7412 83.7682 55.2168C82.386 55.0531 81.0002 54.9211 79.6119 54.8209C79.1541 53.2463 78.6076 51.6987 77.9752 50.1857C76.8272 47.3931 74.3256 45.1388 71.0263 44.747C69.7868 44.6015 68.5397 44.5295 67.2916 44.5312C65.8666 44.5312 64.6138 44.6203 63.5589 44.747C60.2596 45.1388 57.76 47.3931 56.6081 50.1857ZM67.2916 50.4687C66.116 50.4687 65.0967 50.5439 64.2576 50.6429C63.3867 50.7458 62.5476 51.3554 62.1003 52.4459C61.8331 53.0931 61.5619 53.7918 61.3066 54.5082C63.1063 54.4554 65.1013 54.4284 67.2916 54.4271C70.577 54.4251 71.4756 54.4568 73.2786 54.5082C73.0314 53.8145 72.7675 53.1268 72.4869 52.4459C72.0377 51.3574 71.1965 50.7458 70.3257 50.6429C69.3186 50.5251 68.3055 50.467 67.2916 50.4687Z" fill="#E6502C"/>
</svg>
