<svg width="40" height="40" viewBox="0 0 40 40" fill="none" xmlns="http://www.w3.org/2000/svg">
<path d="M23.3333 21.6667C22.4166 21.6667 21.6321 21.3406 20.9799 20.6883C20.3277 20.0361 20.001 19.2511 19.9999 18.3333V10C19.9999 9.08333 20.3266 8.29888 20.9799 7.64666C21.6333 6.99444 22.4177 6.66777 23.3333 6.66666H26.6666C27.5833 6.66666 28.3683 6.99333 29.0216 7.64666C29.6749 8.3 30.001 9.08444 29.9999 10V18.3333C29.9999 19.25 29.6738 20.035 29.0216 20.6883C28.3694 21.3417 27.5844 21.6678 26.6666 21.6667H23.3333ZM15.8333 30C15.0833 30 14.4166 29.785 13.8333 29.355C13.2499 28.925 12.8471 28.3483 12.6249 27.625L8.45825 13.7917C8.4027 13.6528 8.36825 13.5 8.35492 13.3333C8.34159 13.1667 8.33436 13 8.33325 12.8333V8.33333C8.33325 7.86111 8.49325 7.46555 8.81325 7.14666C9.13325 6.82777 9.52881 6.66777 9.99992 6.66666C10.471 6.66555 10.8671 6.82555 11.1883 7.14666C11.5094 7.46777 11.6688 7.86333 11.6666 8.33333V13.3333L15.8333 26.6667H28.3333C28.8055 26.6667 29.2016 26.8267 29.5216 27.1467C29.8416 27.4667 30.001 27.8622 29.9999 28.3333C29.9988 28.8044 29.8388 29.2006 29.5199 29.5217C29.201 29.8428 28.8055 30.0022 28.3333 30H15.8333ZM14.9999 35C14.5277 35 14.1321 34.84 13.8133 34.52C13.4944 34.2 13.3344 33.8044 13.3333 33.3333C13.3321 32.8622 13.4921 32.4667 13.8133 32.1467C14.1344 31.8267 14.5299 31.6667 14.9999 31.6667H28.3333C28.8055 31.6667 29.2016 31.8267 29.5216 32.1467C29.8416 32.4667 30.001 32.8622 29.9999 33.3333C29.9988 33.8044 29.8388 34.2006 29.5199 34.5217C29.201 34.8428 28.8055 35.0022 28.3333 35H14.9999Z" fill="#1E293B"/>
</svg>
