<svg width="40" height="40" viewBox="0 0 40 40" fill="none" xmlns="http://www.w3.org/2000/svg">
<path d="M16.4531 3.46798L15.9062 3.12501C14.8359 2.46876 13.5 2.08751 12.3515 2.44532C11.1172 2.8297 10.1328 3.78048 9.61715 5.2086L8.88278 4.83048C7.61715 4.17892 6.95465 4.16876 6.40543 4.41563C5.96715 4.61173 5.51012 5.0836 4.99215 5.77266L11.4297 10.75C12.4375 11.0781 13.914 11.0703 15.3906 10.6875C16.875 10.3047 18.3515 9.5547 19.4297 8.54688L21.8593 2.53907C19.7187 0.847665 17.7656 1.82735 16.4531 3.46798ZM20.6015 9.44532C19.2734 10.7891 17.2968 11.6953 15.7578 12.1016C15.2187 12.2422 14.6797 12.3438 14.1562 12.3984C13.8672 12.875 13.625 13.3594 13.4375 13.8438C13.8125 15.75 14.5156 17.3125 15.5703 18.5938L14.4453 19.5313C13.7968 18.75 13.2187 17.9063 12.7812 16.9688C12.7109 18.7813 13.1172 20.6563 13.7812 22.6094L12.3984 23.0781C11.1797 19.5156 10.7656 15.8672 12.4765 12.4297C11.8984 12.3828 11.3515 12.2734 10.8437 12.0938L10.8203 12.0859C10.4843 12.4063 10.164 12.7422 9.85934 13.0938C7.39293 15.9531 6.03434 19.7578 6.74528 22.7188C7.12574 24.3047 7.80778 25.8047 8.78903 27.0859C10.2265 27.0547 11.5859 27.0859 12.8203 27.5547C13.4062 27.4922 14.0078 27.4531 14.6328 27.4531C16.8593 27.4531 18.875 27.8672 20.3984 28.5859C20.9922 28.8672 21.5312 29.2031 21.9609 29.5859C21.9609 29.1719 22.0234 28.7266 22.1484 28.3984C21.4531 27.7422 21.0156 26.9453 21.0156 26.0391C21.0156 24.7813 21.8515 23.7422 23.0625 22.9922C23.0625 22.6328 23.1328 22.2891 23.2578 21.9609C22.4687 21.2813 21.9609 20.4375 21.9609 19.4531C21.9609 18.8359 22.164 18.2734 22.5078 17.7656C22.164 17.2656 21.9609 16.7031 21.9609 16.0859C21.9609 15.7813 22.0078 15.5 22.0937 15.2266C21.3359 14.5547 20.8593 13.7266 20.8593 12.7734C20.8593 11.8281 21.3281 11.0078 22.0781 10.3438C21.6172 9.98438 21.125 9.6797 20.6015 9.44532ZM29.3047 9.62501C27.2734 9.62501 25.4375 10.0547 24.1797 10.6875C22.914 11.3203 22.3203 12.1016 22.3203 12.7734C22.3203 13.4531 22.914 14.2344 24.1797 14.8672C25.4375 15.5 27.2734 15.9297 29.3047 15.9297C30.1875 15.9297 31.0234 15.8438 31.7968 15.7031V14.375C32.8828 14.2109 33.7812 13.9141 34.3593 13.5313V14.9063C35.3359 14.625 36.2734 13.5859 36.2968 12.7734C36.2968 12.1016 35.7031 11.3203 34.4375 10.6875C33.1718 10.0547 31.3437 9.62501 29.3047 9.62501ZM36.8437 14.9141C36.5859 15.1875 36.2812 15.4453 35.9375 15.6797L35.9531 17.9453C36.9375 17.3594 37.3984 16.6797 37.3984 16.0859C37.3984 15.7109 37.2187 15.3047 36.8437 14.9141ZM23.4218 16.1172C23.4453 16.7891 24.039 17.5469 25.2812 18.1719C26.5468 18.8125 28.375 19.2344 30.414 19.2344C31.6875 19.2344 32.8828 19.0625 33.9062 18.7813L33.9609 16.6563C32.6172 17.125 31.0234 17.3828 29.3047 17.3828C27.0781 17.3828 25.0547 16.9375 23.5234 16.1719C23.4843 16.1563 23.4531 16.1328 23.4218 16.1172ZM23.5781 18.8359C23.4687 19.0469 23.4218 19.2578 23.4218 19.4531C23.4218 20.1328 24.0156 20.9141 25.2812 21.5469C26.5468 22.1797 28.375 22.6016 30.414 22.6016C31.4453 22.6016 32.4218 22.5 33.3046 22.3047V20.4297C32.3984 20.6016 31.4296 20.6875 30.414 20.6875C28.1796 20.6875 26.1562 20.25 24.625 19.4766C24.2422 19.2891 23.8906 19.0703 23.5781 18.8359ZM37.2422 18.8359C36.7656 19.1719 36.3515 19.4219 35.8671 19.6328V21.375C36.9062 20.7734 37.3984 20.0703 37.3984 19.4531C37.3984 19.2578 37.3515 19.0469 37.2422 18.8359ZM37.8281 21.7109C37.6718 21.8672 37.5 22.0156 37.3125 22.1641V24.6953C38.1172 24.1484 38.5078 23.5469 38.5078 23C38.5078 22.5859 38.2812 22.1406 37.8281 21.7109ZM24.539 22.8047C24.5312 22.875 24.5234 22.9375 24.5234 23C24.5234 23.6797 25.1172 24.4531 26.3828 25.0859C27.6484 25.7266 29.4843 26.1484 31.5156 26.1484C32.6796 26.1484 33.789 26.0078 34.75 25.7734V23.4375C33.4765 23.8438 32 24.0625 30.414 24.0625C28.1796 24.0625 26.1562 23.6172 24.625 22.8516C24.5937 22.8359 24.5703 22.8203 24.539 22.8047ZM23.4765 24.4766C22.7968 24.9844 22.4765 25.5391 22.4765 26.0391C22.4765 26.7188 23.0703 27.4922 24.3359 28.1328C25.6015 28.7656 27.4297 29.1875 29.4687 29.1875C30.2109 29.1875 30.9297 29.1328 31.6015 29.0313V27.6094H31.5156C29.2812 27.6094 27.2578 27.1641 25.7265 26.3906C24.75 25.9063 23.9375 25.2578 23.4765 24.4766ZM36.1718 26.8672C35.5546 27.0859 34.8828 27.2656 34.164 27.3828V28.3281C34.3125 28.2656 34.4609 28.2031 34.6015 28.1328C35.3671 27.7422 35.8828 27.3047 36.1718 26.8672ZM36.8906 28.2891C36.5937 28.5859 36.25 28.8516 35.8671 29.0938V31.3281C36.9062 30.7344 37.3984 30.0313 37.3984 29.4141C37.3984 29.0547 37.2343 28.6641 36.8906 28.2891ZM9.6484 28.5078C8.85153 28.5156 7.99215 28.6172 7.10153 28.8281C5.31949 29.2422 3.78746 30 2.78746 30.8359C1.78746 31.6641 1.39684 32.5078 1.51403 33.1094C1.63121 33.7109 2.2484 34.2656 3.45153 34.5859C4.65074 34.8984 6.32809 34.9141 8.10934 34.5C8.82809 34.3281 9.49996 34.1094 10.1172 33.8516V32.2344C11.2578 31.7266 12.1093 31.1172 12.4922 30.5234V32.4297C13.4375 31.6172 13.8047 30.8047 13.6953 30.2109C13.5859 29.6094 12.9609 29.0547 11.7578 28.7422C11.1562 28.5859 10.4375 28.5 9.6484 28.5078ZM14.6953 28.9141C14.9062 29.2188 15.0547 29.5625 15.1328 29.9453C15.2187 30.4141 15.1797 30.8672 15.039 31.3125C15.8125 31.5156 16.5156 31.7891 17.125 32.1328C17.4687 32.3203 17.789 32.5469 18.0703 32.7813C18.7734 32.6172 19.3672 32.3828 19.789 32.1016V33.7109C21.0468 33.1172 21.625 32.3906 21.625 31.8125C21.625 31.2266 21.0468 30.5 19.7812 29.9063C18.5234 29.3203 16.7109 28.9219 14.6953 28.9141ZM23.4296 29.3047C23.4218 29.3359 23.4218 29.375 23.4218 29.4141C23.4218 30.0938 24.0156 30.8672 25.2812 31.5078C26.5468 32.1406 28.375 32.5625 30.414 32.5625C31.4453 32.5625 32.4218 32.4531 33.3046 32.2656V30.1641C32.1484 30.4766 30.8437 30.6484 29.4687 30.6484C27.2343 30.6484 25.2109 30.2031 23.6797 29.4375C23.5937 29.3906 23.5078 29.3438 23.4296 29.3047ZM23.6484 32.2188C23.4922 32.4766 23.4218 32.7266 23.4218 32.9688C23.4218 33.6484 24.0156 34.4219 25.2812 35.0625C26.5468 35.6953 28.375 36.1172 30.414 36.1172C31.4453 36.1172 32.4218 36.0078 33.3046 35.8203V33.7578C32.3984 33.9297 31.4296 34.0234 30.414 34.0234C28.1796 34.0234 26.1562 33.5781 24.625 32.8047C24.2734 32.6328 23.9453 32.4375 23.6484 32.2188ZM37.1718 32.2188C36.7187 32.5234 36.3203 32.7656 35.8671 32.9609V34.8828C36.9062 34.2891 37.3984 33.5859 37.3984 32.9688C37.3984 32.7266 37.3281 32.4766 37.1718 32.2188ZM14.3125 32.6406C14.039 32.9844 13.7187 33.3125 13.3593 33.6094C12.1406 34.6328 10.4218 35.4609 8.43746 35.9219C7.72965 36.0859 7.02653 36.1875 6.35153 36.2422C6.60153 36.6563 7.04137 37.0625 7.68512 37.4219C8.74996 38.0234 10.3125 38.4297 12.0468 38.4297C12.8359 38.4297 13.5859 38.3438 14.2734 38.1953V36.5703C15.3515 36.4063 16.2578 36.1094 16.8359 35.7266V37.1641C17.6172 36.6172 17.9922 36 17.9922 35.4141C17.9922 34.7344 17.4843 34.0078 16.414 33.4063C15.8359 33.0859 15.1172 32.8203 14.3125 32.6406Z" fill="#1E293B"/>
</svg>
