<svg width="40" height="40" viewBox="0 0 40 40" fill="none" xmlns="http://www.w3.org/2000/svg">
<g clip-path="url(#clip0_907_1402)">
<path fill-rule="evenodd" clip-rule="evenodd" d="M19.745 10.9C23.565 10.9 25.9533 6.7633 24.0433 3.4533C23.6075 2.69846 22.9807 2.0716 22.226 1.63569C21.4712 1.19979 20.615 0.970192 19.7433 0.969971C15.9233 0.969971 13.535 5.1083 15.445 8.41664C15.8808 9.17148 16.5076 9.79834 17.2624 10.2342C18.0172 10.6702 18.8734 10.8997 19.745 10.9ZM18.09 28.2733H6.34834L1.93167 35.2133C1.61412 35.7177 1.48858 36.3195 1.57797 36.9088C1.66735 37.4981 1.9657 38.0355 2.41854 38.4231C2.87138 38.8106 3.4485 39.0224 4.04452 39.0197C4.64055 39.0169 5.21571 38.7999 5.665 38.4083C5.35674 37.7209 5.224 36.9677 5.27869 36.2163C5.33338 35.4649 5.57379 34.7388 5.97834 34.1033L8.345 30.5233C8.50355 30.3137 8.73599 30.1724 8.99504 30.1281C9.25408 30.0838 9.52026 30.1399 9.73942 30.285C9.95857 30.43 10.1142 30.6531 10.1747 30.9089C10.2352 31.1646 10.196 31.4338 10.065 31.6616L7.72334 35.2133C7.39999 35.7678 7.30391 36.426 7.45525 37.0497C7.60659 37.6735 7.99358 38.2145 8.53507 38.5592C9.07656 38.9039 9.73048 39.0255 10.3597 38.8985C10.9889 38.7716 11.5445 38.406 11.91 37.8783L16.97 29.9283H23.8817C24.54 29.9279 25.1712 29.666 25.6366 29.2004C26.1019 28.7347 26.3633 28.1033 26.3633 27.445V19.1716C26.3633 14.0766 20.85 10.8916 16.4367 13.4383C15.5306 13.9631 14.761 14.694 14.19 15.5716L14.1983 15.6016L15.3983 20H18.09C21.2733 20 23.265 23.4466 21.6733 26.205C21.3102 26.8339 20.7879 27.356 20.1588 27.7188C19.5297 28.0816 18.8162 28.2723 18.09 28.2716V28.2733ZM18.3333 32.41L14.1183 39.0266H26.705C26.4795 38.5046 26.3632 37.942 26.3633 37.3733V31.745C25.6084 32.1809 24.7518 32.4097 23.88 32.4083L18.3333 32.41ZM28.845 22.6916C29.8156 22.014 30.9713 21.6515 32.155 21.6533H36.2917V20.8266C36.2919 19.9573 36.1208 19.0964 35.7882 18.2933C35.4555 17.4901 34.9679 16.7603 34.3531 16.1457C33.7383 15.5311 33.0084 15.0436 32.2052 14.7112C31.4019 14.3787 30.541 14.2079 29.6717 14.2083H27.3717C28.305 15.6366 28.845 17.3416 28.845 19.1716V22.6916ZM2.05667 15.035C1.8021 15.0347 1.55091 15.0932 1.32264 15.2059C1.09436 15.3186 0.895157 15.4824 0.740514 15.6846C0.585871 15.8868 0.47996 16.122 0.431019 16.3718C0.382078 16.6216 0.391427 16.8794 0.458337 17.125L2.37167 24.1366C2.37167 25.05 3.11167 25.79 4.025 25.79H18.09C18.3117 25.797 18.5325 25.7594 18.7393 25.6795C18.9461 25.5995 19.1348 25.4788 19.2941 25.3245C19.4533 25.1702 19.58 24.9855 19.6665 24.7813C19.753 24.5771 19.7975 24.3576 19.7975 24.1358C19.7975 23.914 19.753 23.6945 19.6665 23.4904C19.58 23.2862 19.4533 23.1014 19.2941 22.9471C19.1348 22.7928 18.9461 22.6721 18.7393 22.5921C18.5325 22.5122 18.3117 22.4746 18.09 22.4816H13.5L11.8033 16.255C11.7087 15.9042 11.5008 15.5945 11.2121 15.3739C10.9234 15.1533 10.57 15.0342 10.2067 15.035H2.05667ZM32.155 24.135C31.7203 24.1348 31.2898 24.2202 30.8881 24.3865C30.4864 24.5527 30.1214 24.7966 29.814 25.104C29.5066 25.4114 29.2628 25.7763 29.0965 26.178C28.9303 26.5797 28.8448 27.0102 28.845 27.445V37.3733C28.845 38.2866 29.5867 39.0283 30.5 39.0283H37.945C38.3839 39.0283 38.8049 38.8539 39.1153 38.5436C39.4256 38.2332 39.6 37.8122 39.6 37.3733V27.445C39.5996 26.5674 39.2506 25.7259 38.6299 25.1055C38.0092 24.4851 37.1676 24.1366 36.29 24.1366L32.155 24.135Z" fill="#1E293B"/>
</g>
<defs>
<clipPath id="clip0_907_1402">
<rect width="40" height="40" fill="white"/>
</clipPath>
</defs>
</svg>
