<svg width="40" height="40" viewBox="0 0 40 40" fill="none" xmlns="http://www.w3.org/2000/svg">
<path d="M37.5163 24.6531V20.9944L33.8787 20.0794L33.6306 19.6144C33.3375 19.0675 33.0956 18.7188 32.9094 18.5787C32.7031 18.4194 32.3538 18.3325 32.0219 18.2862C31.7712 17.8206 31.5994 17.7462 31.5 17.7025C31.394 17.6578 31.28 17.6353 31.165 17.6363C30.8912 17.6363 30.5606 17.7663 30.285 17.905C29.8606 17.4494 29.6206 17.4462 29.4931 17.445H29.3531C28.0281 17.445 26.2931 17.5413 24.4081 17.7075L23.9094 17.0725C23.895 17.0538 22.4137 15.1569 22.015 13.6912L21.9425 13.4256V8.28062C21.9425 8.28062 20.4813 8.49625 19.7625 6.68437H19.1181C19.1181 6.68437 18.9494 6.75375 18.665 6.78937C18.0888 6.72375 17.3406 6.46375 16.5475 5.715C14.4656 3.75 12.4781 3.75 12.4781 3.75H11.8337C11.8337 3.75 9.61 3.75 7.28375 5.71563C6.43625 6.43188 5.62187 6.73875 5.05437 6.80625C4.60687 6.78625 4.3325 6.685 4.3325 6.685H3.6875C2.88438 8.49625 1.25 8.28062 1.25 8.28062V25.9194H1.5075V27.7537H2.38125L2.77813 26.4862L8.7775 30.3269C8.9525 31.4338 9.715 33.8619 9.715 33.8619C9.715 33.8619 10.5356 31.9363 10.6656 31.5356L11.2644 31.9181L11.5694 33.47L11.9269 32.3419L13.8488 33.5737L14.0831 36.0131L14.4281 36.25L15.26 36.0131L15.6581 33.7381L36.9181 30.1931L37.445 32.3456L38.4919 32.1731V29.9312L38.75 29.8875V25.2294L37.5163 24.6531ZM19.3156 13.69C20.6525 13.69 21.4487 13.8431 21.4487 13.8431C21.8844 15.4425 23.4469 17.4294 23.4469 17.4294L23.2525 17.4281C19.3731 17.4281 16.4731 18.5856 16.4731 18.5856C15.845 16.1375 14.4994 14.3044 14.4994 14.3044C16.0734 13.9023 17.6911 13.6959 19.3156 13.69ZM11.0406 14.1887C12.5344 14.1887 13.4237 14.3594 13.4237 14.3594C13.9113 16.1481 15.6575 18.37 15.6575 18.37L15.4525 18.3687C11.1081 18.3687 7.86 19.6644 7.86 19.6644C7.1575 16.9256 5.65125 14.8763 5.65125 14.8763C7.8075 14.3313 9.67563 14.1887 11.0406 14.1887ZM5.39187 15.5356C6.07261 16.5957 6.62264 17.7341 7.03 18.9262C6.74062 18.9963 6.57812 19.0413 6.57812 19.0413C4.31687 18.155 3.62875 16.2994 3.62875 16.2994C4.19599 15.9999 4.78544 15.7446 5.39187 15.5356ZM9.00312 19.9237C8.685 20.1731 8.12563 20.9675 8.0025 21.4769C7.88312 21.9725 8.015 23.59 8.11688 24.6181L2.575 21.9137V18.655L4.55813 18.4937C5.09226 18.9577 5.70275 19.3257 6.3625 19.5813L6.54875 19.6544L6.74125 19.5994C6.74875 19.5975 6.91375 19.5519 7.2025 19.4831C7.23375 19.5902 7.26396 19.6985 7.29312 19.8081L7.45812 20.4506L8.07938 20.2038C8.09 20.2 8.45563 20.0581 9.08375 19.8725C9.05688 19.8888 9.02625 19.9062 9.00312 19.9237ZM12.9963 29.4594C12.9963 29.4594 12.6781 27.9588 12.4475 27.9588C12.4283 27.9588 12.4098 27.9698 12.3919 27.9919C12.1838 28.2525 11.6775 30.6713 11.6775 30.6713C11.6775 30.6713 11.4487 29.0656 11.1788 29.0656C11.1529 29.0652 11.1269 29.0806 11.1006 29.1119C10.4506 29.9006 9.77312 31.9094 9.77312 31.9094C9.77312 31.9094 8.9525 28.6469 9.12188 27.3006C9.29938 25.8894 10.0775 23.1825 10.6544 22.0381C10.9319 21.4863 11.625 20.4212 12.0756 20.2863C16.1944 19.0544 25.02 18.0256 29.3525 18.0256H29.4856C29.6806 18.0275 30.145 18.6544 30.145 18.6544C30.145 18.6544 30.825 18.2169 31.1644 18.2169C31.2027 18.2169 31.236 18.2229 31.2644 18.235C31.3944 18.2919 31.6362 18.8287 31.6362 18.8287C31.6362 18.8287 32.3481 18.8819 32.5544 19.0406C32.7313 19.1744 33.1131 19.8862 33.1131 19.8862C33.1131 19.8862 32.085 19.6719 31.82 19.6644C31.6425 19.6593 31.465 19.6568 31.2875 19.6569C26.8869 19.6569 18.8088 21.065 14.8681 22.7712C14.4381 22.9562 13.8019 24.0912 13.6244 24.7112C13.365 25.6237 12.9963 29.4594 12.9963 29.4594ZM36.7438 24.8169L14.8681 27.9137L13.8062 27.3956C13.9306 26.34 14.0763 25.2644 14.1887 24.8694C14.3131 24.4325 14.6681 23.8088 14.9231 23.4894L36.7438 21.4131V24.8169Z" fill="#1E293B"/>
</svg>
