<svg width="40" height="40" viewBox="0 0 40 40" fill="none" xmlns="http://www.w3.org/2000/svg">
<g clip-path="url(#clip0_908_1415)">
<path d="M11.6667 0C9.35922 0 7.10359 0.684238 5.18502 1.96619C3.26645 3.24814 1.7711 5.07022 0.888077 7.20203C0.00505507 9.33383 -0.225984 11.6796 0.224177 13.9427C0.674338 16.2058 1.78548 18.2846 3.41709 19.9162C5.04871 21.5479 7.12751 22.659 9.39062 23.1092C11.6537 23.5593 13.9995 23.3283 16.1313 22.4453C18.2631 21.5622 20.0852 20.0669 21.3672 18.1483C22.6491 16.2297 23.3333 13.9741 23.3333 11.6667C23.3333 8.57247 22.1042 5.60501 19.9163 3.41709C17.7283 1.22916 14.7609 0 11.6667 0ZM11.6667 20C10.0185 20 8.40733 19.5113 7.03692 18.5956C5.66651 17.6799 4.59841 16.3784 3.96768 14.8557C3.33695 13.333 3.17192 11.6574 3.49346 10.0409C3.815 8.42441 4.60868 6.93955 5.77412 5.77411C6.93955 4.60867 8.42441 3.815 10.0409 3.49346C11.6574 3.17191 13.333 3.33694 14.8557 3.96767C16.3784 4.5984 17.6799 5.6665 18.5956 7.03691C19.5113 8.40732 20 10.0185 20 11.6667C20 12.761 19.7845 13.8446 19.3657 14.8557C18.9469 15.8667 18.333 16.7854 17.5592 17.5592C16.7854 18.333 15.8667 18.9469 14.8557 19.3657C13.8447 19.7845 12.761 20 11.6667 20Z" fill="#1E293B"/>
<path d="M15 10.15H13.7667C13.7106 10.1522 13.6546 10.1431 13.6021 10.1232C13.5496 10.1033 13.5017 10.0729 13.4612 10.034C13.4207 9.99509 13.3885 9.9484 13.3666 9.89673C13.3446 9.84506 13.3333 9.78948 13.3333 9.73333V7.46666C13.3333 7.02463 13.1577 6.60071 12.8452 6.28815C12.5326 5.97559 12.1087 5.8 11.6667 5.8C11.2246 5.8 10.8007 5.97559 10.4882 6.28815C10.1756 6.60071 10 7.02463 10 7.46666V11.8C10 12.242 10.1756 12.6659 10.4882 12.9785C10.8007 13.2911 11.2246 13.4667 11.6667 13.4667H15C15.442 13.4667 15.866 13.2911 16.1785 12.9785C16.4911 12.6659 16.6667 12.242 16.6667 11.8C16.6667 11.358 16.4911 10.934 16.1785 10.6215C15.866 10.3089 15.442 10.1333 15 10.1333V10.15ZM35.5167 15.5333C35.4513 15.4996 35.3955 15.4498 35.3547 15.3885C35.3139 15.3273 35.2893 15.2567 35.2833 15.1833C35.2818 15.1078 35.2993 15.0331 35.3343 14.9661C35.3692 14.8991 35.4205 14.842 35.4833 14.8C36.416 14.1937 37.1821 13.3638 37.712 12.3856C38.2418 11.4075 38.5184 10.3124 38.5167 9.2C38.5116 8.02084 38.1985 6.86349 37.6083 5.84262C37.0182 4.82175 36.1715 3.97282 35.1523 3.37995C34.133 2.78709 32.9765 2.47086 31.7973 2.46263C30.6182 2.45439 29.4574 2.75443 28.4299 3.333C27.4024 3.91157 26.544 4.74859 25.9397 5.76111C25.3353 6.77364 25.0061 7.92651 24.9845 9.10547C24.963 10.2844 25.2499 11.4486 25.8168 12.4825C26.3838 13.5164 27.211 14.3843 28.2167 15C28.2775 15.0389 28.3266 15.0935 28.3589 15.1581C28.3912 15.2226 28.4054 15.2947 28.4 15.3667C28.4009 15.4396 28.381 15.5112 28.3426 15.5732C28.3043 15.6352 28.249 15.685 28.1833 15.7167C26.9388 16.4016 25.9005 17.4076 25.1765 18.6299C24.4526 19.8521 24.0693 21.2461 24.0667 22.6667V27.3333C24.0707 27.5578 24.1601 27.7724 24.3167 27.9333C24.4732 28.0842 24.6826 28.168 24.9 28.1667H27.3167C27.4216 28.1663 27.5229 28.2056 27.6001 28.2767C27.6774 28.3478 27.7249 28.4454 27.7333 28.55L28.8167 39.25C28.8295 39.4563 28.9217 39.6496 29.074 39.7894C29.2262 39.9292 29.4267 40.0047 29.6333 40H34.3667C34.574 40.001 34.7742 39.9248 34.9283 39.7861C35.0824 39.6474 35.1793 39.4563 35.2 39.25L36.2667 28.55C36.2748 28.4482 36.32 28.3529 36.3937 28.2822C36.4675 28.2115 36.5646 28.1704 36.6667 28.1667H39.0833C39.3008 28.168 39.5101 28.0842 39.6667 27.9333C39.7616 27.8627 39.8405 27.7727 39.898 27.6692C39.9555 27.5658 39.9902 27.4513 40 27.3333V22.6C39.9934 21.1196 39.5691 19.6711 38.776 18.421C37.9829 17.1709 36.8532 16.17 35.5167 15.5333ZM33.3333 21.2667C33.3333 21.5982 33.2016 21.9161 32.9672 22.1505C32.7328 22.385 32.4149 22.5167 32.0833 22.5167C31.7518 22.5167 31.4339 22.385 31.1994 22.1505C30.965 21.9161 30.8333 21.5982 30.8333 21.2667V18.45C30.8333 18.1185 30.965 17.8005 31.1994 17.5661C31.4339 17.3317 31.7518 17.2 32.0833 17.2C32.4149 17.2 32.7328 17.3317 32.9672 17.5661C33.2016 17.8005 33.3333 18.1185 33.3333 18.45V21.2667ZM28.4667 8.2C28.4841 8.13888 28.5159 8.08281 28.5594 8.03644C28.6029 7.99006 28.6568 7.95472 28.7167 7.93333C28.7704 7.90415 28.8305 7.88887 28.8917 7.88887C28.9528 7.88887 29.013 7.90415 29.0667 7.93333C30.3867 8.73755 31.9043 9.15881 33.45 9.15C33.9685 9.1569 34.4867 9.12346 35 9.05C35.0223 9.04491 35.0454 9.04498 35.0677 9.05021C35.0899 9.05543 35.1107 9.06567 35.1284 9.08014C35.1461 9.09461 35.1602 9.11293 35.1697 9.1337C35.1793 9.15448 35.1839 9.17715 35.1833 9.2C35.1833 10.115 34.8199 10.9925 34.1729 11.6395C33.5259 12.2865 32.6483 12.65 31.7333 12.65C30.8183 12.65 29.9408 12.2865 29.2938 11.6395C28.6468 10.9925 28.2833 10.115 28.2833 9.2C28.293 8.85925 28.3548 8.52199 28.4667 8.2Z" fill="#1E293B"/>
</g>
<defs>
<clipPath id="clip0_908_1415">
<rect width="40" height="40" fill="white"/>
</clipPath>
</defs>
</svg>
