<svg width="95" height="95" viewBox="0 0 95 95" fill="none" xmlns="http://www.w3.org/2000/svg">
<path d="M87.0832 11.875L39.5832 17.4563V23.75H87.0832V27.7084H39.5832V47.5H87.0832C87.0832 54.6646 84.8269 61.1959 80.4332 67.0938C76.0394 72.9917 70.3394 77.3063 63.3332 80.1563V87.0834H31.6665V80.1563C24.6998 77.3063 18.9603 72.9521 14.5665 67.0938C10.1728 61.2354 7.9165 54.6646 7.9165 47.5H19.7915V15.8334L87.0832 7.91669V11.875ZM23.7498 19.3167V23.75H27.7082V18.9209L23.7498 19.3167ZM23.7498 27.7084V47.5H27.7082V27.7084H23.7498ZM35.6248 47.5V27.7084H31.6665V47.5H35.6248ZM35.6248 23.75V18.0104L31.6665 18.3667V23.75H35.6248Z" fill="#E6502C"/>
</svg>
