<svg width="40" height="40" viewBox="0 0 40 40" fill="none" xmlns="http://www.w3.org/2000/svg">
<path d="M29.17 20.055L22.1017 15.9583L25.665 7.40668C25.7894 7.15269 25.8473 6.8713 25.8333 6.58885C25.8193 6.30641 25.7338 6.03213 25.585 5.79168C25.4361 5.55124 25.2287 5.35249 24.9821 5.21403C24.7355 5.07558 24.4578 5.00194 24.175 5.00001C23.7991 4.9986 23.4338 5.12429 23.1384 5.35668L23.0217 5.45668L10.5217 17.29C10.3338 17.4685 10.19 17.6882 10.1017 17.9318C10.0134 18.1755 9.98296 18.4363 10.0129 18.6937C10.0428 18.9511 10.1322 19.1981 10.274 19.4149C10.4159 19.6318 10.6062 19.8127 10.83 19.9433L17.9 24.0433L14.295 32.6933C14.1463 33.0462 14.1238 33.4395 14.2312 33.807C14.3386 34.1745 14.5694 34.4938 14.8847 34.711C15.2 34.9283 15.5805 35.0302 15.9622 34.9996C16.3438 34.9691 16.7033 34.808 16.98 34.5433L29.48 22.7067C29.6675 22.5281 29.811 22.3084 29.8989 22.0648C29.9869 21.8213 30.0171 21.5606 29.987 21.3035C29.9569 21.0463 29.8675 20.7996 29.7257 20.5829C29.5839 20.3663 29.3937 20.1855 29.17 20.055Z" fill="#1E293B"/>
</svg>
