<svg width="40" height="40" viewBox="0 0 40 40" fill="none" xmlns="http://www.w3.org/2000/svg">
<path fill-rule="evenodd" clip-rule="evenodd" d="M7.49997 6.66666C7.49997 6.22463 7.67556 5.80071 7.98812 5.48815C8.30068 5.17558 8.72461 4.99999 9.16663 4.99999H30.8333C31.2753 4.99999 31.6993 5.17558 32.0118 5.48815C32.3244 5.80071 32.5 6.22463 32.5 6.66666V23.3333H7.49997V6.66666ZM9.16663 1.66666C7.84055 1.66666 6.56878 2.19344 5.6311 3.13112C4.69342 4.0688 4.16663 5.34057 4.16663 6.66666V25L0.4333 34.955C0.29138 35.3332 0.243217 35.7401 0.292934 36.141C0.342651 36.5419 0.488767 36.9248 0.718774 37.2568C0.948782 37.5889 1.25583 37.8603 1.61364 38.0478C1.97144 38.2352 2.36935 38.3332 2.7733 38.3333H37.225C37.6291 38.3335 38.0272 38.2357 38.3852 38.0483C38.7432 37.861 39.0505 37.5896 39.2807 37.2575C39.5109 36.9254 39.6572 36.5424 39.707 36.1414C39.7568 35.7404 39.7086 35.3333 39.5666 34.955L35.8333 25V6.66666C35.8333 5.34057 35.3065 4.0688 34.3688 3.13112C33.4312 2.19344 32.1594 1.66666 30.8333 1.66666H9.16663ZM16.25 32.5C16.25 32.1685 16.3817 31.8505 16.6161 31.6161C16.8505 31.3817 17.1684 31.25 17.5 31.25H22.5C22.8315 31.25 23.1494 31.3817 23.3839 31.6161C23.6183 31.8505 23.75 32.1685 23.75 32.5C23.75 32.8315 23.6183 33.1495 23.3839 33.3839C23.1494 33.6183 22.8315 33.75 22.5 33.75H17.5C17.1684 33.75 16.8505 33.6183 16.6161 33.3839C16.3817 33.1495 16.25 32.8315 16.25 32.5ZM24.1666 11.6667C24.1666 12.7717 23.7276 13.8315 22.9462 14.6129C22.1648 15.3943 21.105 15.8333 20 15.8333C18.8949 15.8333 17.8351 15.3943 17.0537 14.6129C16.2723 13.8315 15.8333 12.7717 15.8333 11.6667C15.8333 10.5616 16.2723 9.50178 17.0537 8.72038C17.8351 7.93898 18.8949 7.49999 20 7.49999C21.105 7.49999 22.1648 7.93898 22.9462 8.72038C23.7276 9.50178 24.1666 10.5616 24.1666 11.6667ZM13.8416 19.62C15.5985 18.2425 17.7675 17.4958 20 17.5C22.3233 17.5 24.46 18.2917 26.1583 19.62C26.7233 20.0617 26.37 20.8867 25.6533 20.8867H14.3466C13.63 20.8867 13.2766 20.0617 13.8416 19.62Z" fill="#1E293B"/>
</svg>
