<svg width="40" height="40" viewBox="0 0 40 40" fill="none" xmlns="http://www.w3.org/2000/svg">
<path d="M12.4002 26.525C13.27 26.525 13.9752 25.8198 13.9752 24.95C13.9752 24.0801 13.27 23.375 12.4002 23.375C11.5303 23.375 10.8252 24.0801 10.8252 24.95C10.8252 25.8198 11.5303 26.525 12.4002 26.525Z" fill="#1E293B"/>
<path d="M14.7501 22.15C15.1781 22.15 15.5251 21.803 15.5251 21.375C15.5251 20.947 15.1781 20.6 14.7501 20.6C14.3221 20.6 13.9751 20.947 13.9751 21.375C13.9751 21.803 14.3221 22.15 14.7501 22.15Z" fill="#1E293B"/>
<path fill-rule="evenodd" clip-rule="evenodd" d="M37.875 22.5V22.275C37.8851 22.0501 37.8851 21.8249 37.875 21.6V20.775C37.735 20.5761 37.6096 20.3672 37.5 20.15V19.475C37.5 19.25 37.5 19.05 37.3 18.85C37.2181 18.6726 37.1512 18.4886 37.1 18.3V18.175C37.0047 17.9887 36.9212 17.7967 36.85 17.6C36.7761 17.4288 36.6926 17.2619 36.6 17.1L36.3 16.525V16.3C35.599 15.1666 34.7592 14.1252 33.8 13.2H26.925L28.55 7.09999C28.6737 6.67385 28.9614 6.3142 29.35 6.09999C29.5499 6.00798 29.7674 5.96035 29.9875 5.96035C30.2076 5.96035 30.4251 6.00798 30.625 6.09999L35.3 7.87499L36.425 4.97499L31.75 2.49999C31.1348 2.26386 30.4768 2.15973 29.8188 2.19436C29.1608 2.22899 28.5174 2.40161 27.9303 2.70101C27.3433 3.00041 26.8258 3.41989 26.4115 3.93224C25.9971 4.44459 25.6951 5.03835 25.525 5.67499L23.7 12.625H18.275C18.0914 10.6295 17.154 8.77907 15.6537 7.45063C14.1534 6.12218 12.203 5.41566 10.2 5.47499C8.13693 5.4073 6.13067 6.15754 4.61822 7.5623C3.10576 8.96706 2.20963 10.9125 2.12501 12.975C2.12322 14.5002 2.58649 15.9897 3.45303 17.2448C4.31957 18.5 5.54818 19.4611 6.97501 20C6.98804 20.2081 6.98804 20.4169 6.97501 20.625V21.4C6.96487 21.6249 6.96487 21.8501 6.97501 22.075V23.2C7.1308 27.1348 8.81259 30.8544 11.664 33.5704C14.5154 36.2865 18.3122 37.7856 22.25 37.75C26.2602 37.8781 30.1574 36.4103 33.0867 33.6685C36.016 30.9267 37.738 27.1349 37.875 23.125V22.5ZM22.25 34.625C19.0684 34.7537 15.9657 33.6153 13.6224 31.4594C11.279 29.3035 9.88642 26.3062 9.75001 23.125C9.76682 20.3917 10.8006 17.7626 12.65 15.75H31.875C33.7445 17.7982 34.7713 20.477 34.75 23.25C34.5816 26.4091 33.1752 29.3746 30.8354 31.5038C28.4956 33.633 25.4109 34.7544 22.25 34.625ZM5.25 13.075C5.28191 12.452 5.43686 11.8414 5.70593 11.2786C5.975 10.7158 6.35286 10.2118 6.8177 9.79581C7.28255 9.37977 7.82517 9.05991 8.41427 8.85466C9.00337 8.64942 9.62728 8.56286 10.25 8.59999C11.432 8.54093 12.5945 8.91835 13.5164 9.66047C14.4383 10.4026 15.0553 11.4576 15.25 12.625H11.325C10.3576 13.5426 9.51685 14.5851 8.82501 15.725V15.925L8.52501 16.5C8.44786 16.6451 8.38102 16.7955 8.325 16.95C7.48997 16.6751 6.75375 16.1616 6.20728 15.4729C5.66081 14.7843 5.32801 13.9506 5.25 13.075Z" fill="#1E293B"/>
</svg>
