<svg width="40" height="40" viewBox="0 0 40 40" fill="none" xmlns="http://www.w3.org/2000/svg">
<path fill-rule="evenodd" clip-rule="evenodd" d="M4.53917 2.08417C6.345 1.685 9.70833 1.25 15.8333 1.25C21.9583 1.25 25.3217 1.685 27.1275 2.08417C28.8342 2.46167 29.7975 3.895 29.9725 5.405C30.0692 6.23583 30.1775 7.32833 30.2633 8.61333C29.1544 8.27992 28.0404 7.96377 26.9217 7.665C20.9083 6.05417 17.3542 5.55833 15.2583 5.465C12.2283 5.33167 10.0817 7.33 9.21667 9.5125C8.22891 12.0146 7.38448 14.571 6.6875 17.1692C5.95367 19.899 5.78999 22.7508 6.20667 25.5467C3.03 22.2992 1.25 17.8292 1.25 13.1667C1.25 9.885 1.4975 7.1 1.69417 5.405C1.86917 3.895 2.83333 2.4625 4.53917 2.08417ZM26.2733 10.08C20.3567 8.49417 16.9958 8.04417 15.1483 7.96333C13.4017 7.88583 12.1008 9.02083 11.5408 10.4333C10.5886 12.8459 9.77451 15.3107 9.1025 17.8158C7.43333 24.0458 9.14917 30.8017 13.98 35.1867C15.47 36.54 17.1767 37.8375 18.725 38.2525C20.2733 38.6675 22.4 38.3967 24.3667 37.9692C30.7425 36.5875 35.6067 31.5942 37.275 25.365C37.946 22.8596 38.4738 20.3179 38.8558 17.7525C39.0775 16.2492 38.5183 14.615 36.9667 13.8092C35.3267 12.9558 32.1908 11.665 26.2733 10.08ZM27.0667 20.5967C26.4383 20.93 25.7167 21.1083 25.1983 20.4283C24.7633 19.8592 24.9175 19.0408 25.4867 18.6367C25.6161 18.5443 25.752 18.4613 25.8933 18.3883C26.2339 18.2077 26.5956 18.07 26.97 17.9783C27.8992 17.75 29.1642 17.7433 30.5183 18.525C31.8725 19.3067 32.4992 20.4058 32.765 21.3242C32.895 21.7725 32.9383 22.1708 32.9483 22.4625C32.9567 22.6825 32.9458 22.8467 32.9367 22.9375C32.8717 23.6333 32.24 24.1758 31.5292 24.0842C30.6817 23.9742 30.475 23.2608 30.45 22.55C30.4435 22.3705 30.4146 22.1924 30.3642 22.02C30.2475 21.6183 29.9758 21.0983 29.2683 20.69C28.56 20.2817 27.9742 20.3058 27.5683 20.4058C27.3939 20.4481 27.2254 20.5128 27.0667 20.5967ZM22.6783 17.8842C22.9683 18.5175 22.6933 19.3042 22.0317 19.58C21.2425 19.9092 20.7067 19.3942 20.33 18.7908C20.2339 18.6395 20.12 18.5002 19.9908 18.3758C19.6892 18.0858 19.1942 17.7717 18.3767 17.7717C17.5592 17.7717 17.0642 18.0858 16.7617 18.3758C16.6328 18.5002 16.5192 18.6395 16.4233 18.7908C16.3963 18.8341 16.3713 18.8786 16.3483 18.9242C16.2175 19.2253 15.9735 19.4629 15.669 19.5856C15.3645 19.7084 15.0239 19.7063 14.7208 19.58C14.0592 19.305 13.7842 18.5183 14.075 17.8842C14.0878 17.8558 14.1044 17.8211 14.125 17.78C14.3606 17.3315 14.6664 16.9236 15.0308 16.5717C15.7208 15.91 16.8133 15.2717 18.3767 15.2717C19.94 15.2717 21.0325 15.91 21.7225 16.5717C22.0592 16.895 22.295 17.2183 22.45 17.4658C22.5667 17.6525 22.64 17.8008 22.6775 17.8842M16.0358 23.8333C16.1983 23.8094 16.3639 23.8176 16.5232 23.8577C16.6824 23.8978 16.8322 23.9688 16.964 24.0668C17.0958 24.1648 17.207 24.2877 17.2913 24.4287C17.3755 24.5697 17.4311 24.7259 17.455 24.8883C17.6233 26.0358 18.1317 27.3133 18.8233 28.3567C19.5417 29.4375 20.31 30.0483 20.8817 30.2017C21.4533 30.355 22.425 30.21 23.5875 29.6325C24.7083 29.0758 25.7875 28.2233 26.5075 27.3133C26.7146 27.0575 27.0143 26.8936 27.3414 26.8574C27.6686 26.8211 27.9969 26.9154 28.255 27.1197C28.5131 27.324 28.6802 27.6219 28.7199 27.9487C28.7597 28.2754 28.669 28.6047 28.4675 28.865C27.4975 30.0908 26.1175 31.1675 24.7 31.8717C23.3242 32.555 21.675 33.0025 20.235 32.6167C18.795 32.2308 17.5908 31.0192 16.7408 29.7392C15.8658 28.4208 15.2092 26.7983 14.9817 25.2517C14.9335 24.9237 15.0176 24.59 15.2154 24.324C15.4133 24.058 15.7079 23.8815 16.0358 23.8333Z" fill="#1E293B"/>
</svg>
