<svg width="61" height="61" viewBox="0 0 61 61" fill="none" xmlns="http://www.w3.org/2000/svg">
<circle cx="30.5" cy="30.5" r="30.5" fill="#E6502C" fill-opacity="0.3"/>
<path d="M30.9735 16.3102C29.1612 16.3102 27.6923 17.7791 27.6923 19.5914C27.6923 21.4035 29.1612 22.8727 30.9735 22.8727C32.7857 22.8727 34.2548 21.4035 34.2548 19.5914C34.2548 17.7791 32.7857 16.3102 30.9735 16.3102ZM22.1562 23.465C21.9776 23.4667 21.8039 23.4973 21.6436 23.555C21.2161 23.709 20.8848 24.0103 20.6146 24.3529C20.4019 24.6226 20.2324 24.9244 20.0865 25.2313C19.6887 24.8579 19.2536 24.3064 18.8092 23.4667L17.877 23.9599C18.4696 25.0798 19.0838 25.8327 19.7105 26.3075C19.6867 26.4131 19.6573 26.522 19.6423 26.6218C19.5248 27.4012 19.8129 28.0847 20.2069 28.6571C20.5198 29.1117 20.8998 29.5284 21.2694 29.9677C20.8301 30.8911 20.6043 31.8714 20.6033 32.8602C20.6074 34.5464 21.2644 36.1897 22.4831 37.562L22.6972 36.7934L23.7132 37.0765L22.2408 42.3605C23.4629 42.7369 24.6455 42.7426 25.8513 42.2977L26.9486 38.3877L27.964 38.6728L27.443 40.5296C28.4911 40.822 29.5919 40.9737 30.7013 40.9783C31.4246 40.9747 32.1463 40.9081 32.8581 40.7793L32.3341 38.4572L33.3629 38.225L34.2416 42.1199C35.7027 42.7801 37.0832 42.7396 38.5051 42.1915L37.0335 37.5635L38.0385 37.2438L38.3297 38.16C39.6069 35.9282 42.3585 36.4559 43.7101 35.8116C44.3948 35.5834 44.0277 31.7174 43.9982 31.5319C43.9759 31.3918 42.2559 31.3082 41.645 31.4002C41.2949 31.4529 40.6874 30.6925 40.0402 29.7831C39.7245 29.1686 39.3161 28.5875 38.8242 28.053C38.5905 27.7439 38.6639 27.8719 38.4414 27.6737C38.4833 28.0661 38.5656 28.3948 38.6846 28.6247L37.748 29.1097C37.3157 28.2746 37.2804 27.1847 37.4162 26.0125C37.509 25.2115 37.698 24.3744 37.9453 23.5672C37.2533 23.963 36.6196 24.5914 36.0691 25.3594C35.2685 26.4764 34.6555 27.8525 34.2734 29.0299L33.2703 28.7044C33.433 28.2028 33.6336 27.6699 33.8712 27.132C33.0235 26.7468 31.793 26.5601 30.5064 26.6149C29.1088 26.674 27.6452 27.0084 26.5195 27.5641L26.0525 26.6182C27.3492 25.9782 28.9307 25.626 30.4617 25.561C30.6531 25.5529 30.8437 25.5491 31.0328 25.5499C32.2451 25.5549 33.3983 25.7478 34.3301 26.1815C34.4614 25.9323 34.6007 25.6873 34.7476 25.4469C33.4737 24.9899 32.096 24.7498 30.7012 24.742C26.9977 24.7453 23.5936 26.3781 21.8311 28.9968C21.5408 28.6563 21.273 28.3458 21.0758 28.0593C20.7676 27.6116 20.63 27.2576 20.6835 26.8214C21.2963 27.0061 21.8924 26.9427 22.3648 26.7118C22.9693 26.4163 23.3857 25.9003 23.5644 25.3413C23.6538 25.0618 23.6849 24.7635 23.6121 24.4666C23.5392 24.1699 23.3408 23.8787 23.0497 23.7077C22.7648 23.5403 22.4538 23.4623 22.1561 23.465L22.1562 23.465ZM22.1754 24.5083C22.1949 24.5075 22.2145 24.5081 22.234 24.5101C22.3138 24.5181 22.4016 24.5503 22.5154 24.6172C22.566 24.6469 22.5732 24.6589 22.5877 24.7181C22.6022 24.7772 22.6022 24.8877 22.5599 25.0202C22.4751 25.2852 22.2251 25.6062 21.9016 25.7644C21.6469 25.8889 21.3524 25.9353 20.984 25.814C21.1114 25.5191 21.2666 25.229 21.4424 25.0062C21.6333 24.7642 21.8374 24.6061 22.0007 24.5473C22.062 24.5253 22.1176 24.5108 22.1752 24.5083H22.1754ZM38.4734 30.2884C38.9911 30.2884 39.4109 30.7081 39.4109 31.2259C39.4109 31.7437 38.9911 32.1634 38.4734 32.1634C37.9556 32.1634 37.5359 31.7436 37.5359 31.2259C37.5359 30.7082 37.9556 30.2884 38.4734 30.2884Z" fill="#FF5F38" fill-opacity="0.6"/>
</svg>
