<svg width="95" height="95" viewBox="0 0 95 95" fill="none" xmlns="http://www.w3.org/2000/svg">
<path d="M67.292 17.8125C67.292 19.3872 66.6664 20.8974 65.5529 22.0109C64.4394 23.1244 62.9292 23.75 61.3545 23.75C59.7798 23.75 58.2695 23.1244 57.156 22.0109C56.0425 20.8974 55.417 19.3872 55.417 17.8125C55.417 16.2378 56.0425 14.7276 57.156 13.6141C58.2695 12.5006 59.7798 11.875 61.3545 11.875C62.9292 11.875 64.4394 12.5006 65.5529 13.6141C66.6664 14.7276 67.292 16.2378 67.292 17.8125Z" stroke="#E6502C" stroke-width="4"/>
<path d="M59.3752 83.125L56.7468 72.774C55.8726 69.3359 54.0723 66.2034 51.5416 63.7173L45.521 57.7917M45.521 57.7917C41.535 54.6488 39.536 53.0773 38.7641 50.9754C38.4195 50.041 38.2543 49.0499 38.2772 48.0542C38.3327 45.8138 39.7141 43.6842 42.4731 39.425L47.5002 31.6706M45.521 57.7917L59.3752 36.7215M23.7502 44.1473C27.7085 36.3494 33.7964 31.8369 47.5002 31.6706M47.5002 31.6706C48.367 31.6627 49.6535 31.6588 50.9439 31.6588C52.9429 31.6588 53.9404 31.6588 54.736 32.0308C55.5316 32.4029 56.351 33.3767 57.9818 35.3281C58.4489 35.8902 58.9318 36.389 59.3752 36.7215M59.3752 36.7215C63.947 40.1494 71.1037 41.5308 79.1668 32.4544M15.8335 70.1812L18.5172 70.8225C25.3612 72.4454 32.4704 69.3342 35.6252 63.3333" stroke="#E6502C" stroke-width="4" stroke-linecap="round" stroke-linejoin="round"/>
</svg>
