<svg width="90" height="90" viewBox="0 0 90 90" fill="none" xmlns="http://www.w3.org/2000/svg">
<circle cx="45" cy="45" r="45" fill="#FF5F38"/>
<path d="M42.9167 51.25V47.0833H47.0833V51.25H42.9167ZM40.8333 34.5833H49.1667V31.6979C49.1667 31.3785 49.0333 31.0847 48.7667 30.8167C48.5 30.5486 48.2062 30.4153 47.8854 30.4167H42.1146C41.7951 30.4167 41.5014 30.55 41.2333 30.8167C40.9653 31.0833 40.8319 31.3771 40.8333 31.6979V34.5833ZM29.6167 61.6667C28.6569 61.6667 27.8563 61.3458 27.2146 60.7042C26.5729 60.0625 26.2514 59.2611 26.25 58.3V50.2083H40.8333V51.65C40.8333 52.1333 40.9931 52.5347 41.3125 52.8542C41.6319 53.1736 42.0333 53.3333 42.5167 53.3333H47.4833C47.9667 53.3333 48.3681 53.1736 48.6875 52.8542C49.0069 52.5347 49.1667 52.1333 49.1667 51.65V50.2083H63.75V58.3021C63.75 59.2604 63.4292 60.0604 62.7875 60.7021C62.1458 61.3438 61.3451 61.6653 60.3854 61.6667H29.6167ZM26.25 48.125V37.95C26.25 36.9903 26.5715 36.1896 27.2146 35.5479C27.8576 34.9063 28.6576 34.5847 29.6146 34.5833H38.75V31.6979C38.75 30.7396 39.0715 29.9389 39.7146 29.2958C40.3576 28.6528 41.1583 28.332 42.1167 28.3333H47.8854C48.8438 28.3333 49.6444 28.6542 50.2875 29.2958C50.9306 29.9375 51.2514 30.7382 51.25 31.6979V34.5833H60.3854C61.3438 34.5833 62.1437 34.9049 62.7854 35.5479C63.4271 36.191 63.7486 36.9917 63.75 37.95V48.125H49.1667V46.6833C49.1667 46.2 49.0069 45.7986 48.6875 45.4792C48.3681 45.1597 47.9667 45 47.4833 45H42.5167C42.0333 45 41.6319 45.1597 41.3125 45.4792C40.9931 45.7986 40.8333 46.2 40.8333 46.6833V48.125H26.25Z" fill="white"/>
</svg>
