<svg width="100" height="100" viewBox="0 0 100 100" fill="none" xmlns="http://www.w3.org/2000/svg">
<path d="M48.0021 3.125C41.4701 3.12543 35.1768 5.58062 30.3701 10.0037C25.5635 14.4268 22.5946 20.4947 22.0521 27.0042L20.1709 49.5667C20.1109 50.2848 20.2006 51.0075 20.4344 51.6892C20.6681 52.3708 21.0407 52.9966 21.5286 53.5268C22.0166 54.0571 22.6093 54.4803 23.2692 54.7697C23.9291 55.0592 24.6419 55.2085 25.3626 55.2083H33.5709C34.8993 55.2085 36.1776 54.7011 37.1443 53.7898C38.1109 52.8786 38.6928 51.6324 38.7709 50.3062L40.0105 29.2104C40.1285 27.1949 40.8534 25.2623 42.0899 23.6664C43.3265 22.0705 45.0169 20.886 46.9391 20.2685C48.8613 19.6509 50.9253 19.6293 52.86 20.2064C54.7946 20.7836 56.5095 21.9324 57.7792 23.5021C58.8876 24.8729 60.5459 26.0896 62.5667 26.1125C65.8514 26.1514 68.8903 26.2014 71.6834 26.2625C74.8438 26.3312 77.6459 23.4417 76.4334 20.1542C74.5902 15.1574 71.2592 10.8458 66.8896 7.80089C62.52 4.75593 57.3218 3.12396 51.9959 3.125H48.0021Z" fill="#1E293B"/>
<path d="M49.9998 96.875C36.4998 96.875 26.9123 96.5646 20.7436 96.2583C14.1436 95.9312 8.58109 91.1812 7.9415 84.3292C7.58109 80.4833 7.2915 75.3375 7.2915 68.75C7.2915 62.1625 7.58317 57.0167 7.9415 53.1708C8.58109 46.3187 14.1436 41.5687 20.7436 41.2417C26.9123 40.9354 36.4978 40.625 49.9998 40.625C63.5019 40.625 73.0873 40.9375 79.2561 41.2417C85.8561 41.5687 91.4186 46.3187 92.0582 53.1708C92.4186 57.0167 92.7082 62.1625 92.7082 68.75C92.7082 75.3375 92.4165 80.4833 92.0582 84.3292C91.4186 91.1812 85.8561 95.9312 79.2561 96.2583C73.0873 96.5646 63.5019 96.875 49.9998 96.875Z" fill="#FF5F38"/>
<path d="M55.1707 71.1188C56.5278 70.0449 57.517 68.5752 58.0008 66.9136C58.4847 65.252 58.4392 63.481 57.8708 61.8464C57.3023 60.2118 56.239 58.7948 54.8286 57.792C53.4181 56.7892 51.7304 56.2504 49.9998 56.2504C48.2692 56.2504 46.5816 56.7892 45.1711 57.792C43.7606 58.7948 42.6974 60.2118 42.1289 61.8464C41.5604 63.481 41.515 65.252 41.9988 66.9136C42.4827 68.5752 43.4719 70.0449 44.829 71.1188L43.5019 76.8063C43.0436 78.775 44.0998 80.7292 46.0998 81.0021C47.154 81.1458 48.454 81.25 49.9998 81.25C51.5457 81.25 52.8457 81.1458 53.8998 81C55.8998 80.7292 56.9582 78.775 56.4978 76.8083L55.1707 71.1188Z" fill="#1E293B"/>
</svg>
